/* XPM */
static char * 3dcircle_xpm[] = {
"14 16 3 1",
" 	c #659510403CF3 s Background",
".	c #B2CA8A289E79 s HiShadow",
"X	c #3CF308202492 s LoShadow",
"              ",
"              ",
"              ",
"    .....     ",
"   ..    .    ",
"  ..      X   ",
"  .        X  ",
"  .        X  ",
"  .        X  ",
"  .        X  ",
"   .      X   ",
"    X    X    ",
"     XXXX     ",
"              ",
"              ",
"              "};
