/* XPM */
static char * 3dfeet_xpm[] = {
"50 17 2 1",
" 	c #659510403CF3",
".	c #B2CA8A289E79",
"                                                  ",
"                                                  ",
"                                                  ",
"                                                  ",
"                                                  ",
"                                                  ",
"                                                  ",
"                  ...                             ",
"    ...        .. ...                             ",
"   ......    .....  .                             ",
"  ................. .                             ",
"  ................. .                             ",
"  ................. .                             ",
"   ................ .                             ",
"    ..............  ..                            ",
"        ......    .                               ",
"                                                  "};
