STARTFONT 2.1
FONT -Adobe-Courier-Medium-O-Normal--25-180-100-100-M-150-ISO8859-2
SIZE 18 100 100
FONTBOUNDINGBOX 18 24 -1 -5
COMMENT $XConsortium: courO18.bdf,v 1.6 95/01/26 17:53:10 gildea Exp $
COMMENT 
COMMENT +
COMMENT  Copyright 1984-1989, 1994 Adobe Systems Incorporated.
COMMENT  Copyright 1988, 1994 Digital Equipment Corporation.
COMMENT
COMMENT  Adobe is a trademark of Adobe Systems Incorporated which may be
COMMENT  registered in certain jurisdictions.
COMMENT  Permission to use these trademarks is hereby granted only in
COMMENT  association with the images described in this file.
COMMENT
COMMENT  Permission to use, copy, modify, distribute and sell this software
COMMENT  and its documentation for any purpose and without fee is hereby
COMMENT  granted, provided that the above copyright notices appear in all
COMMENT  copies and that both those copyright notices and this permission
COMMENT  notice appear in supporting documentation, and that the names of
COMMENT  Adobe Systems and Digital Equipment Corporation not be used in
COMMENT  advertising or publicity pertaining to distribution of the software
COMMENT  without specific, written prior permission.  Adobe Systems and
COMMENT  Digital Equipment Corporation make no representations about the
COMMENT  suitability of this software for any purpose.  It is provided "as
COMMENT  is" without express or implied warranty.
COMMENT -
COMMENT  
COMMENT  Translation to ISO8859-2 by Cub Soft;  Petr.Kolar@vslib.cz
COMMENT  
STARTPROPERTIES 28
FOUNDRY "Adobe"
FAMILY_NAME "Courier"
WEIGHT_NAME "Medium"
SLANT "O"
SETWIDTH_NAME "Normal"
ADD_STYLE_NAME ""
PIXEL_SIZE 25
POINT_SIZE 180
RESOLUTION_X 100
RESOLUTION_Y 100
SPACING "M"
AVERAGE_WIDTH 150
CHARSET_REGISTRY "ISO8859"
CHARSET_ENCODING "2"
CAP_HEIGHT 14
X_HEIGHT 11
FONT_ASCENT 17
FONT_DESCENT 5
FACE_NAME "Courier Oblique"
COPYRIGHT "Copyright (c) 1984, 1987 Adobe Systems Incorporated. All Rights Reserved. Copyright (c) 1988, 1991 Digital Equipment Corporation. All Rights Reserved., Copyright 1996 Cub Soft"
NOTICE "No mark"
_DEC_DEVICE_FONTNAMES "PS=Courier-Oblique"
_DEC_PRODUCTINFO "DECwindows Fonts V2.2, 07-Nov-1991"
DEFAULT_CHAR 32
RELATIVE_SETWIDTH 50
RELATIVE_WEIGHT 50
CHARSET_COLLECTIONS "ASCII ISO8859-2 ADOBE-STANDARD"
FULL_NAME "Courier Oblique"
ENDPROPERTIES
CHARS 191
STARTCHAR space
ENCODING 32
SWIDTH 600 0
DWIDTH 15 0
BBX 1 1 0 0
BITMAP
00
ENDCHAR
STARTCHAR exclam
ENCODING 33
SWIDTH 600 0
DWIDTH 15 0
BBX 5 16 6 0
BITMAP
18
18
18
38
38
30
30
30
20
20
20
00
00
00
e0
e0
ENDCHAR
STARTCHAR quotedbl
ENCODING 34
SWIDTH 600 0
DWIDTH 15 0
BBX 8 7 6 9
BITMAP
e7
e7
c6
c6
c6
84
84
ENDCHAR
STARTCHAR numbersign
ENCODING 35
SWIDTH 600 0
DWIDTH 15 0
BBX 9 17 4 -1
BITMAP
0900
0900
0900
1200
1200
1200
ff80
2400
2400
2400
ff00
4800
4800
4800
9000
9000
9000
ENDCHAR
STARTCHAR dollar
ENCODING 36
SWIDTH 600 0
DWIDTH 15 0
BBX 11 18 3 -2
BITMAP
0100
0100
07a0
08c0
1040
1000
1000
1800
0f00
0080
0040
0040
4040
6080
bf00
0800
0800
0800
ENDCHAR
STARTCHAR percent
ENCODING 37
SWIDTH 600 0
DWIDTH 15 0
BBX 11 16 3 -1
BITMAP
0e00
1100
2100
2100
2100
2200
1c60
0380
1c00
e380
0440
0840
0840
0840
0880
0700
ENDCHAR
STARTCHAR ampersand
ENCODING 38
SWIDTH 600 0
DWIDTH 15 0
BBX 10 13 3 0
BITMAP
0f40
1180
2000
2000
2000
1000
3000
4980
8500
8200
8200
4500
38c0
ENDCHAR
STARTCHAR apostrophe
ENCODING 39
SWIDTH 600 0
DWIDTH 15 0
BBX 5 6 6 10
BITMAP
38
38
70
60
c0
80
ENDCHAR
STARTCHAR parenleft
ENCODING 40
SWIDTH 600 0
DWIDTH 15 0
BBX 6 19 7 -3
BITMAP
04
08
10
20
20
40
40
40
80
80
80
80
80
80
80
80
40
40
20
ENDCHAR
STARTCHAR parenright
ENCODING 41
SWIDTH 600 0
DWIDTH 15 0
BBX 6 19 5 -3
BITMAP
10
08
08
04
04
04
04
04
04
04
04
08
08
08
10
10
20
40
80
ENDCHAR
STARTCHAR asterisk
ENCODING 42
SWIDTH 600 0
DWIDTH 15 0
BBX 8 9 6 7
BITMAP
08
08
08
cb
3c
18
24
44
84
ENDCHAR
STARTCHAR plus
ENCODING 43
SWIDTH 600 0
DWIDTH 15 0
BBX 12 13 3 1
BITMAP
0100
0100
0100
0200
0200
0200
fff0
0400
0400
0400
0800
0800
0800
ENDCHAR
STARTCHAR comma
ENCODING 44
SWIDTH 600 0
DWIDTH 15 0
BBX 5 6 3 -3
BITMAP
38
38
70
60
c0
80
ENDCHAR
STARTCHAR minus
ENCODING 45
SWIDTH 600 0
DWIDTH 15 0
BBX 10 1 4 7
BITMAP
ffc0
ENDCHAR
STARTCHAR period
ENCODING 46
SWIDTH 600 0
DWIDTH 15 0
BBX 4 3 6 0
BITMAP
70
f0
e0
ENDCHAR
STARTCHAR slash
ENCODING 47
SWIDTH 600 0
DWIDTH 15 0
BBX 12 18 3 -2
BITMAP
0010
0020
0020
0040
0080
0080
0100
0200
0200
0400
0800
0800
1000
2000
2000
4000
8000
8000
ENDCHAR
STARTCHAR zero
ENCODING 48
SWIDTH 600 0
DWIDTH 15 0
BBX 9 15 4 0
BITMAP
0e00
1100
2080
4080
4080
4080
8080
8080
8100
8100
8100
8200
8200
4400
3800
ENDCHAR
STARTCHAR one
ENCODING 49
SWIDTH 600 0
DWIDTH 15 0
BBX 9 15 3 0
BITMAP
0300
1d00
0200
0200
0200
0200
0400
0400
0400
0400
0800
0800
0800
0800
ff80
ENDCHAR
STARTCHAR two
ENCODING 50
SWIDTH 600 0
DWIDTH 15 0
BBX 10 15 3 0
BITMAP
0f00
1080
2040
2040
0040
0040
0080
0100
0200
0400
0800
1000
2000
4080
ff80
ENDCHAR
STARTCHAR three
ENCODING 51
SWIDTH 600 0
DWIDTH 15 0
BBX 9 15 4 0
BITMAP
1e00
2100
4080
0080
0080
0100
0e00
0100
0080
0080
0080
0080
8100
8200
7c00
ENDCHAR
STARTCHAR four
ENCODING 52
SWIDTH 600 0
DWIDTH 15 0
BBX 10 15 3 0
BITMAP
00c0
0140
0240
0480
0880
1080
2080
2100
4100
8100
ffc0
0200
0200
0200
0f80
ENDCHAR
STARTCHAR five
ENCODING 53
SWIDTH 600 0
DWIDTH 15 0
BBX 12 15 2 0
BITMAP
0ff0
0800
0800
1000
1000
1f80
1040
0020
0020
0020
0020
0040
8040
6180
1e00
ENDCHAR
STARTCHAR six
ENCODING 54
SWIDTH 600 0
DWIDTH 15 0
BBX 10 15 4 0
BITMAP
03c0
0c00
1000
2000
2000
5e00
6100
4080
8080
8080
8080
8080
8100
4300
3c00
ENDCHAR
STARTCHAR seven
ENCODING 55
SWIDTH 600 0
DWIDTH 15 0
BBX 9 15 5 0
BITMAP
ff80
8080
8100
0100
0200
0200
0400
0400
0800
0800
1000
1000
2000
2000
4000
ENDCHAR
STARTCHAR eight
ENCODING 56
SWIDTH 600 0
DWIDTH 15 0
BBX 10 15 4 0
BITMAP
0f00
1080
2040
2040
2040
1080
1f00
2100
4080
8080
8080
8080
8100
4200
3c00
ENDCHAR
STARTCHAR nine
ENCODING 57
SWIDTH 600 0
DWIDTH 15 0
BBX 11 15 3 0
BITMAP
0780
1840
1020
2020
2020
2020
2060
10a0
0f40
0040
0080
0100
0200
0c00
f000
ENDCHAR
STARTCHAR colon
ENCODING 58
SWIDTH 600 0
DWIDTH 15 0
BBX 6 10 5 0
BITMAP
1c
3c
38
00
00
00
00
70
f0
e0
ENDCHAR
STARTCHAR semicolon
ENCODING 59
SWIDTH 600 0
DWIDTH 15 0
BBX 8 13 3 -3
BITMAP
07
0f
0e
00
00
00
00
38
38
70
60
c0
80
ENDCHAR
STARTCHAR less
ENCODING 60
SWIDTH 600 0
DWIDTH 15 0
BBX 12 10 2 2
BITMAP
0030
00c0
0300
0c00
3000
e000
3000
0c00
0300
00c0
ENDCHAR
STARTCHAR equal
ENCODING 61
SWIDTH 600 0
DWIDTH 15 0
BBX 13 4 2 5
BITMAP
7ff8
0000
0000
fff0
ENDCHAR
STARTCHAR greater
ENCODING 62
SWIDTH 600 0
DWIDTH 15 0
BBX 12 10 2 2
BITMAP
3000
0c00
0300
00c0
0030
00c0
0300
0c00
3000
c000
ENDCHAR
STARTCHAR question
ENCODING 63
SWIDTH 600 0
DWIDTH 15 0
BBX 8 14 6 0
BITMAP
3e
c1
81
01
01
02
06
18
20
20
00
00
e0
e0
ENDCHAR
STARTCHAR at
ENCODING 64
SWIDTH 600 0
DWIDTH 15 0
BBX 10 18 3 -2
BITMAP
0700
1880
1040
2040
2040
41c0
4640
4440
8880
8880
8880
8880
87c0
8000
8000
4000
6180
1e00
ENDCHAR
STARTCHAR A
ENCODING 65
SWIDTH 600 0
DWIDTH 15 0
BBX 13 14 1 0
BITMAP
07c0
01c0
0140
0240
0220
0420
0420
0820
0fe0
1010
1010
2010
2010
f878
ENDCHAR
STARTCHAR B
ENCODING 66
SWIDTH 600 0
DWIDTH 15 0
BBX 13 14 1 0
BITMAP
1fe0
0410
0408
0808
0808
0830
0fc0
1030
1008
1008
2008
2010
2030
ffc0
ENDCHAR
STARTCHAR C
ENCODING 67
SWIDTH 600 0
DWIDTH 15 0
BBX 13 14 2 0
BITMAP
07c8
1838
3010
2010
4000
4000
8000
8000
8000
8000
8000
4060
60c0
1f00
ENDCHAR
STARTCHAR D
ENCODING 68
SWIDTH 600 0
DWIDTH 15 0
BBX 13 14 1 0
BITMAP
1fe0
0410
0408
0808
0808
0808
0808
1008
1010
1010
2020
2020
20c0
ff00
ENDCHAR
STARTCHAR E
ENCODING 69
SWIDTH 600 0
DWIDTH 15 0
BBX 14 14 1 0
BITMAP
1ffc
0404
0408
0808
0880
0880
0f00
1100
1100
1000
2010
2010
2020
ffe0
ENDCHAR
STARTCHAR F
ENCODING 70
SWIDTH 600 0
DWIDTH 15 0
BBX 14 14 1 0
BITMAP
1ffc
0404
0408
0808
0880
0880
0f00
1100
1100
1000
2000
2000
2000
fe00
ENDCHAR
STARTCHAR G
ENCODING 71
SWIDTH 600 0
DWIDTH 15 0
BBX 13 14 2 0
BITMAP
07c8
1838
3010
2010
4000
4000
8000
8000
83f0
8020
8020
4060
60c0
1f00
ENDCHAR
STARTCHAR H
ENCODING 72
SWIDTH 600 0
DWIDTH 15 0
BBX 15 14 1 0
BITMAP
1f3e
0408
0408
0810
0810
0810
0ff0
1020
1020
1020
2040
2040
2040
f9f0
ENDCHAR
STARTCHAR I
ENCODING 73
SWIDTH 600 0
DWIDTH 15 0
BBX 12 14 3 0
BITMAP
1ff0
0100
0100
0200
0200
0200
0200
0400
0400
0400
0800
0800
0800
ff80
ENDCHAR
STARTCHAR J
ENCODING 74
SWIDTH 600 0
DWIDTH 15 0
BBX 15 14 2 0
BITMAP
03fe
0010
0010
0010
0020
0020
0020
4020
4040
8040
8040
8080
4180
3e00
ENDCHAR
STARTCHAR K
ENCODING 75
SWIDTH 600 0
DWIDTH 15 0
BBX 14 14 1 0
BITMAP
1f3c
0410
0420
0840
0880
0900
0e00
1900
1080
1040
2040
2020
2020
fc38
ENDCHAR
STARTCHAR L
ENCODING 76
SWIDTH 600 0
DWIDTH 15 0
BBX 13 14 1 0
BITMAP
1fc0
0400
0400
0800
0800
0800
0800
1000
1008
1008
2008
2010
2010
fff0
ENDCHAR
STARTCHAR M
ENCODING 77
SWIDTH 600 0
DWIDTH 15 0
BBX 16 14 1 0
BITMAP
1e07
0606
060a
0a14
0a14
0924
0924
1148
1088
1088
2010
2010
2010
f87c
ENDCHAR
STARTCHAR N
ENCODING 78
SWIDTH 600 0
DWIDTH 15 0
BBX 16 14 1 0
BITMAP
1f1f
0404
0404
0a08
0a08
0a08
0908
1110
1110
1090
20a0
20a0
2060
f860
ENDCHAR
STARTCHAR O
ENCODING 79
SWIDTH 600 0
DWIDTH 15 0
BBX 13 14 2 0
BITMAP
07c0
1830
3010
2008
4008
4008
8008
8008
8010
8010
8020
4060
60c0
1f00
ENDCHAR
STARTCHAR P
ENCODING 80
SWIDTH 600 0
DWIDTH 15 0
BBX 13 14 1 0
BITMAP
1fe0
0410
0408
0808
0808
0810
0830
1fc0
1000
1000
2000
2000
2000
fe00
ENDCHAR
STARTCHAR Q
ENCODING 81
SWIDTH 600 0
DWIDTH 15 0
BBX 13 16 2 -2
BITMAP
07c0
1830
3010
2008
4008
4008
8008
8008
8010
8010
8020
4060
60c0
1f00
3860
6780
ENDCHAR
STARTCHAR R
ENCODING 82
SWIDTH 600 0
DWIDTH 15 0
BBX 13 14 1 0
BITMAP
1fe0
0410
0408
0808
0808
0810
0830
1fc0
1080
1040
2020
2020
2010
fc18
ENDCHAR
STARTCHAR S
ENCODING 83
SWIDTH 600 0
DWIDTH 15 0
BBX 12 14 2 0
BITMAP
0390
0c70
0820
1020
1000
1000
0e00
0180
0040
0040
4040
4080
e180
9e00
ENDCHAR
STARTCHAR T
ENCODING 84
SWIDTH 600 0
DWIDTH 15 0
BBX 12 14 4 0
BITMAP
7ff0
4210
4210
8420
8420
0400
0400
0800
0800
0800
1000
1000
1000
fe00
ENDCHAR
STARTCHAR U
ENCODING 85
SWIDTH 600 0
DWIDTH 15 0
BBX 14 14 3 0
BITMAP
f87c
2010
2010
2010
4020
4020
4020
4020
8040
8040
8040
8080
4180
3e00
ENDCHAR
STARTCHAR V
ENCODING 86
SWIDTH 600 0
DWIDTH 15 0
BBX 14 14 3 0
BITMAP
f87c
2010
2020
2020
1040
1040
1080
1080
1100
0900
0a00
0a00
0c00
0c00
ENDCHAR
STARTCHAR W
ENCODING 87
SWIDTH 600 0
DWIDTH 15 0
BBX 14 14 2 0
BITMAP
783c
2008
2008
2310
4510
4510
4920
4920
5120
5140
a140
a140
c180
c180
ENDCHAR
STARTCHAR X
ENCODING 88
SWIDTH 600 0
DWIDTH 15 0
BBX 16 14 1 0
BITMAP
1e0f
0404
0408
0210
0220
0140
0180
0180
0280
0440
0840
1020
2020
f8f8
ENDCHAR
STARTCHAR Y
ENCODING 89
SWIDTH 600 0
DWIDTH 15 0
BBX 13 14 4 0
BITMAP
f078
2020
2040
1080
1100
0a00
0c00
0800
0800
0800
1000
1000
1000
fe00
ENDCHAR
STARTCHAR Z
ENCODING 90
SWIDTH 600 0
DWIDTH 15 0
BBX 12 14 2 0
BITMAP
1ff0
1010
2020
2040
0080
0100
0200
0400
0800
1000
2020
4020
8040
ffc0
ENDCHAR
STARTCHAR bracketleft
ENCODING 91
SWIDTH 600 0
DWIDTH 15 0
BBX 7 19 6 -3
BITMAP
0e
08
08
08
10
10
10
10
20
20
20
20
40
40
40
80
80
80
e0
ENDCHAR
STARTCHAR backslash
ENCODING 92
SWIDTH 600 0
DWIDTH 15 0
BBX 5 19 6 -2
BITMAP
80
80
80
40
40
40
40
20
20
20
20
10
10
10
10
08
08
08
08
ENDCHAR
STARTCHAR bracketright
ENCODING 93
SWIDTH 600 0
DWIDTH 15 0
BBX 7 19 5 -3
BITMAP
0e
02
02
02
04
04
04
08
08
08
08
10
10
10
10
20
20
20
e0
ENDCHAR
STARTCHAR asciicircum
ENCODING 94
SWIDTH 600 0
DWIDTH 15 0
BBX 10 7 4 9
BITMAP
0200
0500
0900
1080
2080
4040
8040
ENDCHAR
STARTCHAR underscore
ENCODING 95
SWIDTH 600 0
DWIDTH 15 0
BBX 15 1 0 -4
BITMAP
fffe
ENDCHAR
STARTCHAR grave
ENCODING 96
SWIDTH 600 0
DWIDTH 15 0
BBX 5 4 6 12
BITMAP
c0
60
30
18
ENDCHAR
STARTCHAR a
ENCODING 97
SWIDTH 600 0
DWIDTH 15 0
BBX 10 11 2 0
BITMAP
0f80
3040
0040
0040
1fc0
6080
4080
8100
8300
8500
79c0
ENDCHAR
STARTCHAR b
ENCODING 98
SWIDTH 600 0
DWIDTH 15 0
BBX 13 15 1 0
BITMAP
1c00
0400
0400
0800
09e0
0a10
0c08
1008
1008
1008
1008
2010
3030
2860
e780
ENDCHAR
STARTCHAR c
ENCODING 99
SWIDTH 600 0
DWIDTH 15 0
BBX 11 11 2 0
BITMAP
0fa0
3060
6040
4040
8000
8000
8000
8000
80c0
4180
3e00
ENDCHAR
STARTCHAR d
ENCODING 100
SWIDTH 600 0
DWIDTH 15 0
BBX 13 15 1 0
BITMAP
0038
0008
0010
0010
0f90
3050
6020
4020
8020
8020
8040
8040
80c0
4340
3c70
ENDCHAR
STARTCHAR e
ENCODING 101
SWIDTH 600 0
DWIDTH 15 0
BBX 11 11 2 0
BITMAP
0f80
3040
6020
4020
8020
ffe0
8000
8000
8000
4180
3e00
ENDCHAR
STARTCHAR f
ENCODING 102
SWIDTH 600 0
DWIDTH 15 0
BBX 13 15 2 0
BITMAP
00f8
0100
0200
0200
3fe0
0400
0400
0400
0800
0800
0800
1000
1000
1000
ff80
ENDCHAR
STARTCHAR g
ENCODING 103
SWIDTH 600 0
DWIDTH 15 0
BBX 13 16 2 -5
BITMAP
0f98
3050
6020
4020
8020
8020
8040
8040
80c0
4140
3e40
0080
0080
0100
0300
fc00
ENDCHAR
STARTCHAR h
ENCODING 104
SWIDTH 600 0
DWIDTH 15 0
BBX 12 15 1 0
BITMAP
1c00
0400
0400
0800
09e0
0a10
0c10
1010
1020
1020
1020
2040
2040
2040
f9f0
ENDCHAR
STARTCHAR i
ENCODING 105
SWIDTH 600 0
DWIDTH 15 0
BBX 10 15 3 0
BITMAP
0300
0300
0000
0000
1e00
0200
0200
0400
0400
0400
0400
0800
0800
0800
ffc0
ENDCHAR
STARTCHAR j
ENCODING 106
SWIDTH 600 0
DWIDTH 15 0
BBX 10 20 2 -5
BITMAP
00c0
00c0
0000
0000
1fc0
0040
0040
0080
0080
0080
0080
0100
0100
0100
0100
0100
0200
0200
0c00
f000
ENDCHAR
STARTCHAR k
ENCODING 107
SWIDTH 600 0
DWIDTH 15 0
BBX 13 15 1 0
BITMAP
1c00
0400
0400
0800
08f8
0860
0980
1600
1c00
1400
1200
2100
2080
2040
e0f0
ENDCHAR
STARTCHAR l
ENCODING 108
SWIDTH 600 0
DWIDTH 15 0
BBX 10 15 3 0
BITMAP
0f00
0100
0100
0200
0200
0200
0200
0400
0400
0400
0400
0800
0800
0800
ffc0
ENDCHAR
STARTCHAR m
ENCODING 109
SWIDTH 600 0
DWIDTH 15 0
BBX 15 11 0 0
BITMAP
398c
0a52
0c62
0842
1084
1084
1084
2108
2108
2108
f9ce
ENDCHAR
STARTCHAR n
ENCODING 110
SWIDTH 600 0
DWIDTH 15 0
BBX 12 11 1 0
BITMAP
39e0
0a10
0c10
0810
1020
1020
1020
2040
2040
2040
f9f0
ENDCHAR
STARTCHAR o
ENCODING 111
SWIDTH 600 0
DWIDTH 15 0
BBX 11 11 2 0
BITMAP
0f80
3040
6020
4020
8020
8020
8020
8040
80c0
4180
3e00
ENDCHAR
STARTCHAR p
ENCODING 112
SWIDTH 600 0
DWIDTH 15 0
BBX 15 16 -1 -5
BITMAP
1cf8
0504
0602
0402
0802
0802
0802
0804
140c
1218
11e0
1000
2000
2000
2000
fc00
ENDCHAR
STARTCHAR q
ENCODING 113
SWIDTH 600 0
DWIDTH 15 0
BBX 14 16 1 -5
BITMAP
0f9c
3050
6020
4020
8020
8020
8040
8040
80c0
4340
3c40
0040
0080
0080
0080
07e0
ENDCHAR
STARTCHAR r
ENCODING 114
SWIDTH 600 0
DWIDTH 15 0
BBX 13 11 2 0
BITMAP
1c70
0588
0600
0800
0800
0800
0800
1000
1000
1000
ff80
ENDCHAR
STARTCHAR s
ENCODING 115
SWIDTH 600 0
DWIDTH 15 0
BBX 11 11 2 0
BITMAP
0fa0
1060
2020
2000
1000
0f00
0080
0040
8040
c080
bf00
ENDCHAR
STARTCHAR t
ENCODING 116
SWIDTH 600 0
DWIDTH 15 0
BBX 9 15 3 0
BITMAP
0800
0800
1000
1000
ff80
1000
2000
2000
2000
2000
4000
4000
4000
2180
1e00
ENDCHAR
STARTCHAR u
ENCODING 117
SWIDTH 600 0
DWIDTH 15 0
BBX 10 11 3 0
BITMAP
e1c0
2040
2040
4040
4080
4080
8080
8100
8300
4500
39c0
ENDCHAR
STARTCHAR v
ENCODING 118
SWIDTH 600 0
DWIDTH 15 0
BBX 13 11 3 0
BITMAP
f8f8
2020
2040
2040
1080
1080
1100
1100
0a00
0c00
0c00
ENDCHAR
STARTCHAR w
ENCODING 119
SWIDTH 600 0
DWIDTH 15 0
BBX 13 11 2 0
BITMAP
f078
4010
4010
4620
4620
4a40
4a40
5280
5280
6300
6300
ENDCHAR
STARTCHAR x
ENCODING 120
SWIDTH 600 0
DWIDTH 15 0
BBX 13 11 1 0
BITMAP
3c78
1010
0820
0440
0280
0300
0500
0880
1040
2020
f0f0
ENDCHAR
STARTCHAR y
ENCODING 121
SWIDTH 600 0
DWIDTH 15 0
BBX 14 16 1 -5
BITMAP
1e1c
0808
0808
0810
0420
0420
0440
0440
0280
0300
0300
0200
0400
0800
1000
fe00
ENDCHAR
STARTCHAR z
ENCODING 122
SWIDTH 600 0
DWIDTH 15 0
BBX 11 11 3 0
BITMAP
3fe0
4040
4080
0100
0200
0400
0800
1000
2040
4040
ff80
ENDCHAR
STARTCHAR braceleft
ENCODING 123
SWIDTH 600 0
DWIDTH 15 0
BBX 7 19 6 -3
BITMAP
06
08
08
10
10
10
20
20
c0
20
20
20
20
40
40
40
40
40
30
ENDCHAR
STARTCHAR bar
ENCODING 124
SWIDTH 600 0
DWIDTH 15 0
BBX 4 18 7 -3
BITMAP
10
10
10
10
20
20
20
20
40
40
40
40
40
80
80
80
80
80
ENDCHAR
STARTCHAR braceright
ENCODING 125
SWIDTH 600 0
DWIDTH 15 0
BBX 7 19 5 -3
BITMAP
18
04
04
04
04
04
08
08
08
06
08
08
08
10
10
10
20
20
c0
ENDCHAR
STARTCHAR asciitilde
ENCODING 126
SWIDTH 600 0
DWIDTH 15 0
BBX 11 3 3 6
BITMAP
3860
64c0
c380
ENDCHAR
STARTCHAR nobreakspace
ENCODING 160
SWIDTH 600 0
DWIDTH 15 0
BBX 1 1 0 0
BITMAP
00
ENDCHAR
STARTCHAR Aogonek
ENCODING 161
SWIDTH 600 0
DWIDTH 15 0
BBX 13 19 1 -5
BITMAP
07c0
01c0
0140
0240
0220
0420
0420
0820
0fe0
1010
1010
2010
2010
f878
0100
0200
0400
0480
0300
ENDCHAR
STARTCHAR breve
ENCODING 162
SWIDTH 600 0
DWIDTH 15 0
BBX 7 3 6 12
BITMAP
82
c6
7c
ENDCHAR
STARTCHAR Lstroke
ENCODING 163
SWIDTH 600 0
DWIDTH 15 0
BBX 13 14 1 0
BITMAP
1fc0
0400
0400
0800
0800
0980
0e00
1800
7008
1008
2008
2010
2010
fff0
ENDCHAR
STARTCHAR currency
ENCODING 164
SWIDTH 600 0
DWIDTH 15 0
BBX 11 9 3 2
BITMAP
4f20
30c0
2040
4040
4040
4080
2180
7e80
8040
ENDCHAR
STARTCHAR Lcaron
ENCODING 165
SWIDTH 720 0
DWIDTH 18 0
BBX 16 16 1 0
BITMAP
0007
0007
1fce
040c
0418
0810
0800
0800
0800
1000
1008
1008
2008
2010
2010
fff0
ENDCHAR
STARTCHAR Sacute
ENCODING 166
SWIDTH 600 0
DWIDTH 15 0
BBX 13 19 2 0
BITMAP
0018
0030
0060
00c0
0000
0390
0c70
0820
1020
1000
1000
0e00
0180
0040
0040
4040
4080
e180
9e00
ENDCHAR
STARTCHAR section
ENCODING 167
SWIDTH 600 0
DWIDTH 15 0
BBX 12 18 3 -2
BITMAP
03f0
0410
0810
0810
0800
3c00
4200
4100
4080
2040
1020
0820
0420
03c0
8100
8100
8200
fc00
ENDCHAR
STARTCHAR diaeresis
ENCODING 168
SWIDTH 600 0
DWIDTH 15 0
BBX 7 2 7 12
BITMAP
c6
c6
ENDCHAR
STARTCHAR Scaron
ENCODING 169
SWIDTH 600 0
DWIDTH 15 0
BBX 12 18 2 0
BITMAP
0630
0360
01c0
0000
0390
0c70
0820
1020
1000
1000
0e00
0180
0040
0040
4040
4080
e180
9e00
ENDCHAR
STARTCHAR Scedilla
ENCODING 170
SWIDTH 600 0
DWIDTH 15 0
BBX 12 19 2 -5
BITMAP
0390
0c70
0820
1020
1000
1000
0e00
0180
0040
0040
4040
4080
e180
9e00
0200
0200
0100
0900
0e00
ENDCHAR
STARTCHAR Tcaron
ENCODING 171
SWIDTH 600 0
DWIDTH 15 0
BBX 12 18 4 0
BITMAP
18c0
0d80
0700
0000
7ff0
4210
4210
8420
8420
0400
0400
0800
0800
0800
1000
1000
1000
fe00
ENDCHAR
STARTCHAR Zacute
ENCODING 172
SWIDTH 600 0
DWIDTH 15 0
BBX 12 19 2 0
BITMAP
0030
0060
00c0
0180
0000
1ff0
1010
2020
2040
0080
0100
0200
0400
0800
1000
2020
4020
8040
ffc0
ENDCHAR
STARTCHAR hyphen
ENCODING 173
SWIDTH 600 0
DWIDTH 15 0
BBX 10 1 3 7
BITMAP
ffc0
ENDCHAR
STARTCHAR Zcaron
ENCODING 174
SWIDTH 600 0
DWIDTH 15 0
BBX 12 18 2 0
BITMAP
0c60
06c0
0380
0000
1ff0
1010
2020
2040
0080
0100
0200
0400
0800
1000
2020
4020
8040
ffc0
ENDCHAR
STARTCHAR Zabovedot
ENCODING 175
SWIDTH 600 0
DWIDTH 15 0
BBX 12 17 2 0
BITMAP
0180
0180
0000
1ff0
1010
2020
2040
0080
0100
0200
0400
0800
1000
2020
4020
8040
ffc0
ENDCHAR
STARTCHAR degree
ENCODING 176
SWIDTH 600 0
DWIDTH 15 0
BBX 7 7 5 8
BITMAP
3c
46
82
82
82
c4
78
ENDCHAR
STARTCHAR aogonek
ENCODING 177
SWIDTH 600 0
DWIDTH 15 0
BBX 10 16 2 -5
BITMAP
0f80
3040
0040
0040
1fc0
6080
4080
8100
8300
8500
79c0
0400
0800
1000
1200
0c00
ENDCHAR
STARTCHAR ogonek
ENCODING 178
SWIDTH 600 0
DWIDTH 15 0
BBX 4 5 6 -4
BITMAP
20
40
80
90
60
ENDCHAR
STARTCHAR lstroke
ENCODING 179
SWIDTH 600 0
DWIDTH 15 0
BBX 10 16 3 0
BITMAP
0f00
0100
0100
0100
0200
0200
02c0
0300
0c00
3400
0400
0400
0800
0800
0800
ffc0
ENDCHAR
STARTCHAR acute
ENCODING 180
SWIDTH 600 0
DWIDTH 15 0
BBX 5 4 9 12
BITMAP
18
30
60
c0
ENDCHAR
STARTCHAR lcaron
ENCODING 181
SWIDTH 760 0
DWIDTH 19 0
BBX 14 17 3 0
BITMAP
001c
001c
0f38
0130
0160
0240
0200
0200
0200
0400
0400
0400
0400
0800
0800
0800
ffc0
ENDCHAR
STARTCHAR sacute
ENCODING 182
SWIDTH 600 0
DWIDTH 15 0
BBX 12 16 2 0
BITMAP
0030
0060
00c0
0180
0000
0fa0
1060
2020
2000
1000
0f00
0080
0040
8040
c080
bf00
ENDCHAR
STARTCHAR caron
ENCODING 183
SWIDTH 600 0
DWIDTH 15 0
BBX 7 3 6 12
BITMAP
c6
6c
38
ENDCHAR
STARTCHAR cedilla
ENCODING 184
SWIDTH 600 0
DWIDTH 15 0
BBX 4 5 5 -4
BITMAP
20
20
10
90
e0
ENDCHAR
STARTCHAR scaron
ENCODING 185
SWIDTH 600 0
DWIDTH 15 0
BBX 11 15 2 0
BITMAP
0c60
06c0
0380
0000
0fa0
1060
2020
2000
1000
0f00
0080
0040
8040
c080
bf00
ENDCHAR
STARTCHAR scedilla
ENCODING 186
SWIDTH 600 0
DWIDTH 15 0
BBX 11 16 2 -5
BITMAP
0fa0
1060
2020
2000
1000
0f00
0080
0040
8040
c080
bf00
0200
0200
0100
0900
0e00
ENDCHAR
STARTCHAR tcaron
ENCODING 187
SWIDTH 680 0
DWIDTH 17 0
BBX 11 18 3 0
BITMAP
00e0
00e0
01c0
0980
0b00
1200
1000
ff80
1000
2000
2000
2000
2000
4000
4000
4000
2180
1e00
ENDCHAR
STARTCHAR zacute
ENCODING 188
SWIDTH 600 0
DWIDTH 15 0
BBX 11 16 3 0
BITMAP
0060
00c0
0180
0300
0000
3fe0
4040
4080
0100
0200
0400
0800
1000
2040
4040
ff80
ENDCHAR
STARTCHAR doubleacute
ENCODING 189
SWIDTH 600 0
DWIDTH 15 0
BBX 9 4 5 12
BITMAP
1980
3300
6600
cc00
ENDCHAR
STARTCHAR zcaron
ENCODING 190
SWIDTH 600 0
DWIDTH 15 0
BBX 11 15 3 0
BITMAP
18c0
0d80
0700
0000
3fe0
4040
4080
0100
0200
0400
0800
1000
2040
4040
ff80
ENDCHAR
STARTCHAR zabovedot
ENCODING 191
SWIDTH 600 0
DWIDTH 15 0
BBX 11 14 3 0
BITMAP
0300
0300
0000
3fe0
4040
4080
0100
0200
0400
0800
1000
2040
4040
ff80
ENDCHAR
STARTCHAR Racute
ENCODING 192
SWIDTH 600 0
DWIDTH 15 0
BBX 13 19 1 0
BITMAP
0018
0030
0060
00c0
0000
1fe0
0410
0408
0808
0808
0810
0830
1fc0
1080
1040
2020
2020
2010
fc18
ENDCHAR
STARTCHAR Aacute
ENCODING 193
SWIDTH 600 0
DWIDTH 15 0
BBX 13 19 1 0
BITMAP
0030
0060
00c0
0180
0000
07c0
01c0
0140
0240
0220
0420
0420
0820
0fe0
1010
1010
2010
2010
f878
ENDCHAR
STARTCHAR Acircumflex
ENCODING 194
SWIDTH 600 0
DWIDTH 15 0
BBX 13 18 1 0
BITMAP
01c0
0360
0630
0000
07c0
01c0
0140
0240
0220
0420
0420
0820
0fe0
1010
1010
2010
2010
f878
ENDCHAR
STARTCHAR Abreve
ENCODING 195
SWIDTH 600 0
DWIDTH 15 0
BBX 13 18 1 0
BITMAP
0820
0c60
07c0
0000
07c0
01c0
0140
0240
0220
0420
0420
0820
0fe0
1010
1010
2010
2010
f878
ENDCHAR
STARTCHAR Adiaeresis
ENCODING 196
SWIDTH 600 0
DWIDTH 15 0
BBX 13 18 1 0
BITMAP
0630
0630
0000
0000
07c0
01c0
0140
0240
0220
0420
0420
0820
0fe0
1010
1010
2010
2010
f878
ENDCHAR
STARTCHAR Lacute
ENCODING 197
SWIDTH 600 0
DWIDTH 15 0
BBX 13 19 1 0
BITMAP
0060
00c0
0180
0300
0000
1fc0
0400
0400
0800
0800
0800
0800
1000
1008
1008
2008
2010
2010
fff0
ENDCHAR
STARTCHAR Cacute
ENCODING 198
SWIDTH 600 0
DWIDTH 15 0
BBX 13 19 2 0
BITMAP
0030
0060
00c0
0180
0000
07c8
1838
3010
2010
4000
4000
8000
8000
8000
8000
8000
4060
60c0
1f00
ENDCHAR
STARTCHAR Ccedilla
ENCODING 199
SWIDTH 600 0
DWIDTH 15 0
BBX 13 18 2 -4
BITMAP
07c8
1838
3010
2010
4000
4000
8000
8000
8000
8000
8000
4060
60c0
1f00
1000
0800
4800
7000
ENDCHAR
STARTCHAR Ccaron
ENCODING 200
SWIDTH 600 0
DWIDTH 15 0
BBX 13 18 2 0
BITMAP
0c60
06c0
0380
0000
07c8
1838
3010
2010
4000
4000
8000
8000
8000
8000
8000
4060
60c0
1f00
ENDCHAR
STARTCHAR Eacute
ENCODING 201
SWIDTH 600 0
DWIDTH 15 0
BBX 14 19 1 0
BITMAP
0018
0030
0060
00c0
0000
1ffc
0404
0408
0808
0880
0880
0f00
1100
1100
1000
2010
2010
2020
ffe0
ENDCHAR
STARTCHAR Eogonek
ENCODING 202
SWIDTH 600 0
DWIDTH 15 0
BBX 14 19 1 -5
BITMAP
1ffc
0404
0408
0808
0880
0880
0f00
1100
1100
1000
2010
2010
2020
ffe0
0100
0200
0400
0480
0300
ENDCHAR
STARTCHAR Ediaeresis
ENCODING 203
SWIDTH 600 0
DWIDTH 15 0
BBX 14 18 1 0
BITMAP
0318
0318
0000
0000
1ffc
0404
0408
0808
0880
0880
0f00
1100
1100
1000
2010
2010
2020
ffe0
ENDCHAR
STARTCHAR Ecaron
ENCODING 204
SWIDTH 600 0
DWIDTH 15 0
BBX 14 18 1 0
BITMAP
0630
0360
01c0
0000
1ffc
0404
0408
0808
0880
0880
0f00
1100
1100
1000
2010
2010
2020
ffe0
ENDCHAR
STARTCHAR Iacute
ENCODING 205
SWIDTH 600 0
DWIDTH 15 0
BBX 12 19 3 0
BITMAP
0030
0060
00c0
0180
0000
1ff0
0100
0100
0200
0200
0200
0200
0400
0400
0400
0800
0800
0800
ff80
ENDCHAR
STARTCHAR Icircumflex
ENCODING 206
SWIDTH 600 0
DWIDTH 15 0
BBX 12 18 3 0
BITMAP
0380
06c0
0c60
0000
1ff0
0100
0100
0200
0200
0200
0200
0400
0400
0400
0800
0800
0800
ff80
ENDCHAR
STARTCHAR Dcaron
ENCODING 207
SWIDTH 600 0
DWIDTH 15 0
BBX 13 18 1 0
BITMAP
0630
0360
01c0
0000
1fe0
0410
0408
0808
0808
0808
0808
1008
1010
1010
2020
2020
20c0
ff00
ENDCHAR
STARTCHAR Dstroke
ENCODING 208
SWIDTH 600 0
DWIDTH 15 0
BBX 13 14 1 0
BITMAP
1fe0
0410
0408
0808
0808
0808
3e08
1008
1010
1010
2020
2020
20c0
ff00
ENDCHAR
STARTCHAR Nacute
ENCODING 209
SWIDTH 600 0
DWIDTH 15 0
BBX 16 19 1 0
BITMAP
000c
0018
0030
0060
0000
1f1f
0404
0404
0a08
0a08
0a08
0908
1110
1110
1090
20a0
20a0
2060
f860
ENDCHAR
STARTCHAR Ncaron
ENCODING 210
SWIDTH 600 0
DWIDTH 15 0
BBX 16 18 1 0
BITMAP
0318
01b0
00e0
0000
1f1f
0404
0404
0a08
0a08
0a08
0908
1110
1110
1090
20a0
20a0
2060
f860
ENDCHAR
STARTCHAR Oacute
ENCODING 211
SWIDTH 600 0
DWIDTH 15 0
BBX 13 19 2 0
BITMAP
0030
0060
00c0
0180
0000
07c0
1830
3010
2008
4008
4008
8008
8008
8010
8010
8020
4060
60c0
1f00
ENDCHAR
STARTCHAR Ocircumflex
ENCODING 212
SWIDTH 600 0
DWIDTH 15 0
BBX 13 18 2 0
BITMAP
01c0
0360
0630
0000
07c0
1830
3010
2008
4008
4008
8008
8008
8010
8010
8020
4060
60c0
1f00
ENDCHAR
STARTCHAR Odoubleacute
ENCODING 213
SWIDTH 600 0
DWIDTH 15 0
BBX 14 19 2 0
BITMAP
00cc
0198
0330
0660
0000
07c0
1830
3010
2008
4008
4008
8008
8008
8010
8010
8020
4060
60c0
1f00
ENDCHAR
STARTCHAR Odiaeresis
ENCODING 214
SWIDTH 600 0
DWIDTH 15 0
BBX 13 18 2 0
BITMAP
0c60
0c60
0000
0000
07c0
1830
3010
2008
4008
4008
8008
8008
8010
8010
8020
4060
60c0
1f00
ENDCHAR
STARTCHAR multiply
ENCODING 215
SWIDTH 600 0
DWIDTH 15 0
BBX 12 11 2 2
BITMAP
4010
2020
1040
0880
0500
0600
0a00
1100
2080
4040
8020
ENDCHAR
STARTCHAR Rcaron
ENCODING 216
SWIDTH 600 0
DWIDTH 15 0
BBX 13 18 1 0
BITMAP
0630
0360
01c0
0000
1fe0
0410
0408
0808
0808
0810
0830
1fc0
1080
1040
2020
2020
2010
fc18
ENDCHAR
STARTCHAR Uring
ENCODING 217
SWIDTH 600 0
DWIDTH 15 0
BBX 14 20 3 0
BITMAP
00c0
0120
0220
0240
0180
0000
f87c
2010
2010
2010
4020
4020
4020
4020
8040
8040
8040
8080
4180
3e00
ENDCHAR
STARTCHAR Uacute
ENCODING 218
SWIDTH 600 0
DWIDTH 15 0
BBX 14 19 3 0
BITMAP
0060
00c0
0180
0300
0000
f87c
2010
2010
2010
4020
4020
4020
4020
8040
8040
8040
8080
4180
3e00
ENDCHAR
STARTCHAR Udoubleacute
ENCODING 219
SWIDTH 600 0
DWIDTH 15 0
BBX 14 19 3 0
BITMAP
00cc
0198
0330
0660
0000
f87c
2010
2010
2010
4020
4020
4020
4020
8040
8040
8040
8080
4180
3e00
ENDCHAR
STARTCHAR Udiaeresis
ENCODING 220
SWIDTH 600 0
DWIDTH 15 0
BBX 14 18 3 0
BITMAP
0c60
0c60
0000
0000
f87c
2010
2010
2010
4020
4020
4020
4020
8040
8040
8040
8080
4180
3e00
ENDCHAR
STARTCHAR Yacute
ENCODING 221
SWIDTH 600 0
DWIDTH 15 0
BBX 13 19 4 0
BITMAP
00c0
0180
0300
0600
0000
f078
2020
2040
1080
1100
0a00
0c00
0800
0800
0800
1000
1000
1000
fe00
ENDCHAR
STARTCHAR Tcedilla
ENCODING 222
SWIDTH 600 0
DWIDTH 15 0
BBX 12 19 4 -5
BITMAP
7ff0
4210
4210
8420
8420
0400
0400
0800
0800
0800
1000
1000
1000
fe00
0200
0200
0100
0900
0e00
ENDCHAR
STARTCHAR ssharp
ENCODING 223
SWIDTH 600 0
DWIDTH 15 0
BBX 12 16 1 0
BITMAP
01c0
0220
0410
0410
0410
0820
0840
09c0
0820
1010
1010
1010
2020
2420
2440
f380
ENDCHAR
STARTCHAR racute
ENCODING 224
SWIDTH 600 0
DWIDTH 15 0
BBX 13 16 2 0
BITMAP
0018
0030
0060
00c0
0000
1c70
0588
0600
0800
0800
0800
0800
1000
1000
1000
ff80
ENDCHAR
STARTCHAR aacute
ENCODING 225
SWIDTH 600 0
DWIDTH 15 0
BBX 11 16 2 0
BITMAP
0060
00c0
0180
0300
0000
0f80
3040
0040
0040
1fc0
6080
4080
8100
8300
8500
79c0
ENDCHAR
STARTCHAR acircumflex
ENCODING 226
SWIDTH 600 0
DWIDTH 15 0
BBX 10 15 2 0
BITMAP
0700
0d80
18c0
0000
0f80
3040
0040
0040
1fc0
6080
4080
8100
8300
8500
79c0
ENDCHAR
STARTCHAR abreve
ENCODING 227
SWIDTH 600 0
DWIDTH 15 0
BBX 10 15 2 0
BITMAP
1040
18c0
0f80
0000
0f80
3040
0040
0040
1fc0
6080
4080
8100
8300
8500
79c0
ENDCHAR
STARTCHAR adiaeresis
ENCODING 228
SWIDTH 600 0
DWIDTH 15 0
BBX 10 15 2 0
BITMAP
18c0
18c0
0000
0000
0f80
3040
0040
0040
1fc0
6080
4080
8100
8300
8500
79c0
ENDCHAR
STARTCHAR lacute
ENCODING 229
SWIDTH 600 0
DWIDTH 15 0
BBX 11 20 3 0
BITMAP
0060
00c0
0180
0300
0000
0f00
0100
0100
0200
0200
0200
0200
0400
0400
0400
0400
0800
0800
0800
ffc0
ENDCHAR
STARTCHAR cacute
ENCODING 230
SWIDTH 600 0
DWIDTH 15 0
BBX 11 16 2 0
BITMAP
0060
00c0
0180
0300
0000
0fa0
3060
6040
4040
8000
8000
8000
8000
80c0
4180
3e00
ENDCHAR
STARTCHAR ccedilla
ENCODING 231
SWIDTH 600 0
DWIDTH 15 0
BBX 11 15 2 -4
BITMAP
0fa0
3060
6040
4040
8000
8000
8000
8000
80c0
c180
7e00
1000
0800
4800
7000
ENDCHAR
STARTCHAR ccaron
ENCODING 232
SWIDTH 600 0
DWIDTH 15 0
BBX 11 15 2 0
BITMAP
18c0
0d80
0700
0000
0fa0
3060
6040
4040
8000
8000
8000
8000
80c0
4180
3e00
ENDCHAR
STARTCHAR eacute
ENCODING 233
SWIDTH 600 0
DWIDTH 15 0
BBX 11 16 2 0
BITMAP
00c0
0180
0300
0600
0000
0f80
3040
6060
4020
8020
ffe0
8000
8000
8000
4180
3e00
ENDCHAR
STARTCHAR eogonek
ENCODING 234
SWIDTH 600 0
DWIDTH 15 0
BBX 11 16 2 -5
BITMAP
0f80
3040
6020
4020
8020
ffe0
8000
8000
8000
4180
3e00
0200
0400
0800
0900
0600
ENDCHAR
STARTCHAR ediaeresis
ENCODING 235
SWIDTH 600 0
DWIDTH 15 0
BBX 11 15 2 0
BITMAP
18c0
18c0
0000
0000
0f80
3040
6060
4020
8020
ffe0
8000
8000
8000
4180
3e00
ENDCHAR
STARTCHAR ecaron
ENCODING 236
SWIDTH 600 0
DWIDTH 15 0
BBX 11 15 2 0
BITMAP
18c0
0d80
0700
0000
0f80
3040
6020
4020
8020
ffe0
8000
8000
8000
4180
3e00
ENDCHAR
STARTCHAR iacute
ENCODING 237
SWIDTH 600 0
DWIDTH 15 0
BBX 10 16 3 0
BITMAP
00c0
0180
0300
0600
0000
1e00
0200
0200
0400
0400
0400
0400
0800
0800
0800
ffc0
ENDCHAR
STARTCHAR icircumflex
ENCODING 238
SWIDTH 600 0
DWIDTH 15 0
BBX 10 15 3 0
BITMAP
0700
0d80
18c0
0000
1e00
0200
0200
0400
0400
0400
0400
0800
0800
0800
ffc0
ENDCHAR
STARTCHAR dcaron
ENCODING 239
SWIDTH 840 0
DWIDTH 21 0
BBX 19 17 1 0
BITMAP
0000e0
0000e0
0039c0
000980
001300
001200
0f9000
305000
602000
402000
802000
802000
804000
804000
80c000
434000
3c7000
ENDCHAR
STARTCHAR dstroke
ENCODING 240
SWIDTH 720 0
DWIDTH 18 0
BBX 16 15 1 0
BITMAP
0038
0008
00ff
0010
0f90
3050
6020
4020
8020
8020
8040
8040
80c0
4340
3c70
ENDCHAR
STARTCHAR nacute
ENCODING 241
SWIDTH 600 0
DWIDTH 15 0
BBX 12 16 1 0
BITMAP
0030
0060
00c0
0180
0000
39e0
0a10
0c10
0810
1020
1020
1020
2040
2040
2040
f9f0
ENDCHAR
STARTCHAR ncaron
ENCODING 242
SWIDTH 600 0
DWIDTH 15 0
BBX 12 15 1 0
BITMAP
0c60
06c0
0380
0000
39e0
0a10
0c10
0810
1020
1020
1020
2040
2040
2040
f9f0
ENDCHAR
STARTCHAR oacute
ENCODING 243
SWIDTH 600 0
DWIDTH 15 0
BBX 11 16 2 0
BITMAP
00c0
0180
0300
0600
0000
0f80
3040
6020
4020
8020
8020
8020
8040
80c0
4180
3e00
ENDCHAR
STARTCHAR ocircumflex
ENCODING 244
SWIDTH 600 0
DWIDTH 15 0
BBX 11 15 2 0
BITMAP
0700
0d80
18c0
0000
0f80
3040
6020
4020
8020
8020
8020
8040
80c0
4180
3e00
ENDCHAR
STARTCHAR odoubleacute
ENCODING 245
SWIDTH 600 0
DWIDTH 15 0
BBX 13 16 2 0
BITMAP
0198
0330
0660
0cc0
0000
0f80
3040
6020
4020
8020
8020
8020
8040
80c0
4180
3e00
ENDCHAR
STARTCHAR odiaeresis
ENCODING 246
SWIDTH 600 0
DWIDTH 15 0
BBX 11 15 2 0
BITMAP
18c0
18c0
0000
0000
0f80
3040
6020
4020
8020
8020
8020
8040
80c0
4180
3e00
ENDCHAR
STARTCHAR division
ENCODING 247
SWIDTH 600 0
DWIDTH 15 0
BBX 11 11 3 2
BITMAP
0300
0780
0300
0000
0000
ffe0
0000
0000
1800
3c00
1800
ENDCHAR
STARTCHAR rcaron
ENCODING 248
SWIDTH 600 0
DWIDTH 15 0
BBX 13 15 2 0
BITMAP
0630
0360
01c0
0000
1c70
0588
0600
0800
0800
0800
0800
1000
1000
1000
ff80
ENDCHAR
STARTCHAR uring
ENCODING 249
SWIDTH 600 0
DWIDTH 15 0
BBX 10 17 3 0
BITMAP
0300
0480
0880
0900
0600
0000
e1c0
2040
2040
4040
4080
4080
8080
8100
8300
4500
39c0
ENDCHAR
STARTCHAR uacute
ENCODING 250
SWIDTH 600 0
DWIDTH 15 0
BBX 10 16 3 0
BITMAP
00c0
0180
0300
0600
0000
e1c0
2040
2040
4040
4080
4080
8080
8100
8300
4500
39c0
ENDCHAR
STARTCHAR udoubleacute
ENCODING 251
SWIDTH 600 0
DWIDTH 15 0
BBX 12 16 3 0
BITMAP
0330
0660
0cc0
1980
0000
e1c0
2040
2040
4040
4080
4080
8080
8100
8300
4500
39c0
ENDCHAR
STARTCHAR udiaeresis
ENCODING 252
SWIDTH 600 0
DWIDTH 15 0
BBX 10 15 3 0
BITMAP
3180
3180
0000
0000
e1c0
2040
2040
4040
4080
4080
8080
8100
8300
4500
39c0
ENDCHAR
STARTCHAR yacute
ENCODING 253
SWIDTH 600 0
DWIDTH 15 0
BBX 14 21 1 -5
BITMAP
0018
0030
0060
00c0
0000
1e1c
0808
0808
0810
0420
0420
0440
0440
0280
0300
0300
0200
0400
0800
1000
fe00
ENDCHAR
STARTCHAR tcedilla
ENCODING 254
SWIDTH 600 0
DWIDTH 15 0
BBX 9 20 3 -5
BITMAP
0800
0800
1000
1000
ff80
1000
2000
2000
2000
2000
4000
4000
4000
2180
1e00
0400
0400
0200
1200
1c00
ENDCHAR
STARTCHAR abovedot
ENCODING 255
SWIDTH 600 0
DWIDTH 15 0
BBX 2 2 9 12
BITMAP
c0
c0
ENDCHAR
ENDFONT
