STARTFONT 2.1
FONT -Adobe-Courier-Bold-O-Normal--34-240-100-100-M-200-ISO8859-2
SIZE 24 100 100
FONTBOUNDINGBOX 26 33 -1 -7
COMMENT $XConsortium: courBO24.bdf,v 1.10 95/01/26 17:52:49 gildea Exp $
COMMENT 
COMMENT +
COMMENT  Copyright 1984-1989, 1994 Adobe Systems Incorporated.
COMMENT  Copyright 1988, 1994 Digital Equipment Corporation.
COMMENT
COMMENT  Adobe is a trademark of Adobe Systems Incorporated which may be
COMMENT  registered in certain jurisdictions.
COMMENT  Permission to use these trademarks is hereby granted only in
COMMENT  association with the images described in this file.
COMMENT
COMMENT  Permission to use, copy, modify, distribute and sell this software
COMMENT  and its documentation for any purpose and without fee is hereby
COMMENT  granted, provided that the above copyright notices appear in all
COMMENT  copies and that both those copyright notices and this permission
COMMENT  notice appear in supporting documentation, and that the names of
COMMENT  Adobe Systems and Digital Equipment Corporation not be used in
COMMENT  advertising or publicity pertaining to distribution of the software
COMMENT  without specific, written prior permission.  Adobe Systems and
COMMENT  Digital Equipment Corporation make no representations about the
COMMENT  suitability of this software for any purpose.  It is provided "as
COMMENT  is" without express or implied warranty.
COMMENT -
COMMENT  
COMMENT  Translation to ISO8859-2 by Cub Soft;  Petr.Kolar@vslib.cz
COMMENT  
STARTPROPERTIES 28
FOUNDRY "Adobe"
FAMILY_NAME "Courier"
WEIGHT_NAME "Bold"
SLANT "O"
SETWIDTH_NAME "Normal"
ADD_STYLE_NAME ""
PIXEL_SIZE 34
POINT_SIZE 240
RESOLUTION_X 100
RESOLUTION_Y 100
SPACING "M"
AVERAGE_WIDTH 200
CHARSET_REGISTRY "ISO8859"
CHARSET_ENCODING "2"
CAP_HEIGHT 20
X_HEIGHT 15
FONT_ASCENT 23
FONT_DESCENT 7
FACE_NAME "Courier Bold Oblique"
COPYRIGHT "Copyright (c) 1984, 1987 Adobe Systems Incorporated. All Rights Reserved. Copyright (c) 1988, 1991 Digital Equipment Corporation. All Rights Reserved., Copyright 1996 Cub Soft"
NOTICE "No mark"
_DEC_DEVICE_FONTNAMES "PS=Courier-BoldOblique"
_DEC_PRODUCTINFO "DECwindows Fonts V2.2, 07-Nov-1991"
DEFAULT_CHAR 32
RELATIVE_SETWIDTH 50
RELATIVE_WEIGHT 70
CHARSET_COLLECTIONS "ASCII ISO8859-2 ADOBE-STANDARD"
FULL_NAME "Courier Bold Oblique"
ENDPROPERTIES
CHARS 191
STARTCHAR space
ENCODING 32
SWIDTH 600 0
DWIDTH 20 0
BBX 1 1 0 0
BITMAP
00
ENDCHAR
STARTCHAR exclam
ENCODING 33
SWIDTH 600 0
DWIDTH 20 0
BBX 8 21 8 0
BITMAP
0e
1f
1f
1f
1e
1e
1e
1c
1c
1c
18
18
18
10
10
00
00
70
f8
f8
f0
ENDCHAR
STARTCHAR quotedbl
ENCODING 34
SWIDTH 600 0
DWIDTH 20 0
BBX 11 10 8 10
BITMAP
f1e0
f1e0
f1e0
f1e0
e1c0
e1c0
e1c0
c180
c180
c180
ENDCHAR
STARTCHAR numbersign
ENCODING 35
SWIDTH 600 0
DWIDTH 20 0
BBX 17 26 3 -3
BITMAP
00c300
01c700
01c700
01c700
01cf00
038e00
038e00
038e00
1fff80
3fff80
3fff00
071c00
0e3800
0e3800
0e3800
7ffe00
fffe00
fffc00
1c7000
38e000
38e000
39e000
79c000
71c000
71c000
618000
ENDCHAR
STARTCHAR dollar
ENCODING 36
SWIDTH 600 0
DWIDTH 20 0
BBX 16 27 4 -4
BITMAP
0070
0070
0070
01f8
07ff
0fff
1e0f
1c0e
1c0e
1e00
1f80
0fe0
07f8
00fc
003c
601c
e01c
e03c
f0f8
fff0
ffe0
df80
0e00
0e00
0e00
0e00
0e00
ENDCHAR
STARTCHAR percent
ENCODING 37
SWIDTH 600 0
DWIDTH 20 0
BBX 17 21 3 0
BITMAP
07c000
0fe000
1c7000
383000
303000
303000
387080
1fe380
0f8f00
003c00
03f000
1f0000
7c7800
e1fc00
038e00
070600
060600
060600
030c00
03fc00
01f000
ENDCHAR
STARTCHAR ampersand
ENCODING 38
SWIDTH 600 0
DWIDTH 20 0
BBX 15 18 4 0
BITMAP
00f8
03fc
07f8
0f30
0e00
0e00
0e00
0f00
0f00
3f8e
7b9e
73de
e1f8
e0f0
e1e0
fff8
fef8
7cf0
ENDCHAR
STARTCHAR apostrophe
ENCODING 39
SWIDTH 600 0
DWIDTH 20 0
BBX 9 9 7 11
BITMAP
0f80
0f00
1e00
1c00
3800
3800
7000
e000
c000
ENDCHAR
STARTCHAR parenleft
ENCODING 40
SWIDTH 600 0
DWIDTH 20 0
BBX 10 26 10 -5
BITMAP
00c0
01c0
03c0
0780
0700
0f00
1e00
3c00
3c00
7800
7800
7800
f000
f000
f000
f000
f000
f000
f000
f000
7000
7800
7800
3800
3800
3000
ENDCHAR
STARTCHAR parenright
ENCODING 41
SWIDTH 600 0
DWIDTH 20 0
BBX 10 26 2 -5
BITMAP
0300
0780
0780
03c0
03c0
03c0
01c0
01c0
01c0
01c0
01c0
01c0
03c0
03c0
0380
0380
0780
0700
0f00
0e00
1e00
3c00
7800
7000
f000
c000
ENDCHAR
STARTCHAR asterisk
ENCODING 42
SWIDTH 600 0
DWIDTH 20 0
BBX 15 14 6 7
BITMAP
01c0
01c0
01c0
01c0
7bde
7ffe
fffc
07e0
0fe0
1ee0
3cf0
7870
7078
2030
ENDCHAR
STARTCHAR plus
ENCODING 43
SWIDTH 600 0
DWIDTH 20 0
BBX 17 19 3 0
BITMAP
007000
00f000
00f000
00e000
00e000
00e000
00e000
01c000
7fff80
ffff80
ffff00
03c000
038000
038000
038000
038000
078000
078000
070000
ENDCHAR
STARTCHAR comma
ENCODING 44
SWIDTH 600 0
DWIDTH 20 0
BBX 8 8 4 -4
BITMAP
0f
1e
1c
3c
38
70
e0
c0
ENDCHAR
STARTCHAR minus
ENCODING 45
SWIDTH 600 0
DWIDTH 20 0
BBX 15 3 3 8
BITMAP
7ffe
fffe
fffc
ENDCHAR
STARTCHAR period
ENCODING 46
SWIDTH 600 0
DWIDTH 20 0
BBX 4 4 8 0
BITMAP
70
f0
f0
e0
ENDCHAR
STARTCHAR slash
ENCODING 47
SWIDTH 600 0
DWIDTH 20 0
BBX 20 27 2 -4
BITMAP
000030
0000f0
0000e0
0001c0
0003c0
000380
000700
000f00
000e00
001c00
003c00
003800
007000
00f000
00e000
01c000
03c000
038000
070000
0f0000
0e0000
1c0000
3c0000
380000
700000
f00000
c00000
ENDCHAR
STARTCHAR zero
ENCODING 48
SWIDTH 600 0
DWIDTH 20 0
BBX 15 21 5 0
BITMAP
01f0
07f8
0ffc
1e3c
3c1c
381e
780e
700e
700e
f01c
e01c
e01c
e01c
e03c
e038
e078
e070
f1e0
7fe0
7f80
1f00
ENDCHAR
STARTCHAR one
ENCODING 49
SWIDTH 600 0
DWIDTH 20 0
BBX 14 21 3 0
BITMAP
0038
03f8
1ff0
1ff0
1cf0
00e0
00e0
00e0
00e0
01e0
01c0
01c0
01c0
03c0
0380
0380
0780
0780
7ffc
fffc
fff8
ENDCHAR
STARTCHAR two
ENCODING 50
SWIDTH 600 0
DWIDTH 20 0
BBX 18 21 2 0
BITMAP
007e00
01ff80
03ff80
07c3c0
0f01c0
0e01c0
0401c0
0003c0
000780
000f00
001e00
007c00
00f800
01f000
07c000
0f8000
3e0000
780000
fffe00
fffe00
fffc00
ENDCHAR
STARTCHAR three
ENCODING 51
SWIDTH 600 0
DWIDTH 20 0
BBX 18 21 2 0
BITMAP
00fe00
03ff00
07ff80
0783c0
0601c0
0003c0
000380
000f80
00fe00
00fc00
00fe00
001f00
000700
000700
000700
000700
000f00
703e00
fffc00
fff800
3fe000
ENDCHAR
STARTCHAR four
ENCODING 52
SWIDTH 600 0
DWIDTH 20 0
BBX 16 21 2 0
BITMAP
001f
003f
007e
00fe
00ee
01ce
03dc
079c
0f1c
0e3c
1c38
3c38
7038
fffe
fffe
fffc
0070
0070
03fe
07fe
07fc
ENDCHAR
STARTCHAR five
ENCODING 53
SWIDTH 600 0
DWIDTH 20 0
BBX 17 21 3 0
BITMAP
07ff80
07ff80
07ff00
070000
0f0000
0e0000
0e0000
0ff000
0ffc00
1ffe00
1e1e00
000f00
000700
000f00
000e00
000e00
601e00
f07c00
fff800
7ff000
1fc000
ENDCHAR
STARTCHAR six
ENCODING 54
SWIDTH 600 0
DWIDTH 20 0
BBX 16 21 4 0
BITMAP
003f
01ff
07fe
0f80
1e00
3c00
3800
7800
73c0
f7f0
fff8
fc78
f838
f038
e038
e038
e078
f0f0
7fe0
7fc0
1f00
ENDCHAR
STARTCHAR seven
ENCODING 55
SWIDTH 600 0
DWIDTH 20 0
BBX 14 21 5 0
BITMAP
7ffc
7ffc
fffc
e03c
c038
0078
0070
00f0
00e0
01c0
01c0
0380
0780
0700
0f00
0e00
1e00
1c00
3c00
7800
3000
ENDCHAR
STARTCHAR eight
ENCODING 56
SWIDTH 600 0
DWIDTH 20 0
BBX 16 21 4 0
BITMAP
00f8
03fe
07fe
0f0f
0e07
1e07
1c07
1c0e
1e3e
0ff8
0ff0
3ff8
783c
f01c
e01c
e01c
e03c
f078
7ff8
7fe0
1f80
ENDCHAR
STARTCHAR nine
ENCODING 57
SWIDTH 600 0
DWIDTH 20 0
BBX 16 21 3 0
BITMAP
00f8
01fe
07fe
078f
0e07
1e07
1c07
1c07
1c0f
1c0f
1e1f
0fff
0fee
03ce
001e
003c
0078
03f0
7fe0
ff80
fe00
ENDCHAR
STARTCHAR colon
ENCODING 58
SWIDTH 600 0
DWIDTH 20 0
BBX 7 15 8 0
BITMAP
1e
3e
3e
3c
00
00
00
00
00
00
00
78
f8
f8
f0
ENDCHAR
STARTCHAR semicolon
ENCODING 59
SWIDTH 600 0
DWIDTH 20 0
BBX 12 20 2 -5
BITMAP
00f0
01f0
01f0
01e0
0000
0000
0000
0000
0000
0000
0000
07c0
0f80
0f00
1e00
3c00
3800
7000
e000
4000
ENDCHAR
STARTCHAR less
ENCODING 60
SWIDTH 600 0
DWIDTH 20 0
BBX 19 19 3 0
BITMAP
000060
0001e0
0007c0
001f80
007e00
01f800
07e000
1f8000
7f0000
fc0000
7e0000
1f0000
0fc000
03e000
01f800
007c00
003e00
000e00
000400
ENDCHAR
STARTCHAR equal
ENCODING 61
SWIDTH 600 0
DWIDTH 20 0
BBX 20 9 2 5
BITMAP
1ffff0
3ffff0
3fffe0
000000
000000
000000
7fffc0
ffffc0
ffff80
ENDCHAR
STARTCHAR greater
ENCODING 62
SWIDTH 600 0
DWIDTH 20 0
BBX 19 19 2 0
BITMAP
040000
0e0000
0f8000
07c000
03f000
00f800
007e00
001f00
000fc0
0007e0
001fc0
003f00
00fc00
03f000
0fc000
3f0000
7c0000
f00000
c00000
ENDCHAR
STARTCHAR question
ENCODING 63
SWIDTH 600 0
DWIDTH 20 0
BBX 13 20 7 0
BITMAP
0fc0
3fe0
7ff0
f078
e038
c038
0038
0078
01f0
0fe0
1f80
1c00
3c00
3800
0000
0000
7000
f800
f800
f000
ENDCHAR
STARTCHAR at
ENCODING 64
SWIDTH 600 0
DWIDTH 20 0
BBX 15 23 4 -2
BITMAP
00f8
03fc
078e
0e06
0c06
1806
3806
303e
30fe
71ee
638c
630c
630c
639c
41fc
c0fc
c000
c000
6000
6000
7070
3ff0
0f80
ENDCHAR
STARTCHAR A
ENCODING 65
SWIDTH 600 0
DWIDTH 20 0
BBX 21 20 -1 0
BITMAP
00ff80
01ff80
01ff80
001f80
003b80
003b80
0073c0
00f1c0
00e1c0
01e1c0
01c1c0
0381c0
07ffe0
07ffe0
0fffe0
0e00e0
1c00e0
7f83f8
ff87f8
ff07f0
ENDCHAR
STARTCHAR B
ENCODING 66
SWIDTH 600 0
DWIDTH 20 0
BBX 19 20 0 0
BITMAP
0fff80
1fffc0
1fffe0
0781e0
0700e0
0700e0
0700e0
0701e0
0fffc0
0fff00
0fffc0
0e03e0
1e01e0
1c00e0
1c00e0
1c01e0
1c03e0
7fffc0
ffff80
fffe00
ENDCHAR
STARTCHAR C
ENCODING 67
SWIDTH 600 0
DWIDTH 20 0
BBX 19 20 3 0
BITMAP
00fc60
03ffe0
0fffe0
1f83e0
1e01c0
3801c0
780180
700000
f00000
e00000
e00000
e00000
e00000
e00000
e00000
f00700
781f00
7ffe00
1ffc00
07f000
ENDCHAR
STARTCHAR D
ENCODING 68
SWIDTH 600 0
DWIDTH 20 0
BBX 19 20 1 0
BITMAP
0ffe00
1fff80
1fffc0
0783e0
0701e0
0700e0
0700e0
0700e0
0f00e0
0e00e0
0e00e0
0e00e0
1e01c0
1c01c0
1c03c0
1c0780
1c0f00
7ffe00
fffc00
fff000
ENDCHAR
STARTCHAR E
ENCODING 69
SWIDTH 600 0
DWIDTH 20 0
BBX 21 20 1 0
BITMAP
0ffff8
1ffff8
1ffff0
078070
070070
070070
070e60
070e00
0ffe00
0ffc00
0ffc00
0e1c00
1e1c00
1c1ce0
1c01c0
1c01c0
1c01c0
7fffc0
ffff80
ffff80
ENDCHAR
STARTCHAR F
ENCODING 70
SWIDTH 600 0
DWIDTH 20 0
BBX 21 20 1 0
BITMAP
0ffff8
1ffff8
1ffff0
078070
070070
070070
070e60
070e00
0ffe00
0ffc00
0ffc00
0e1c00
1e1c00
1c1c00
1c0000
1c0000
1c0000
7ff000
fff000
ffe000
ENDCHAR
STARTCHAR G
ENCODING 71
SWIDTH 600 0
DWIDTH 20 0
BBX 19 20 3 0
BITMAP
00fc60
03ffe0
0fffc0
1f03c0
3c01c0
7801c0
700180
f00000
e00000
e00000
e00000
e07fc0
e0ffc0
e0ff80
e00700
f00700
781f00
7fff00
3ffe00
0ff000
ENDCHAR
STARTCHAR H
ENCODING 72
SWIDTH 600 0
DWIDTH 20 0
BBX 22 20 0 0
BITMAP
0ff1fc
1ff3fc
1fe3f8
0780f0
0700e0
0700e0
0700e0
0700e0
0fffe0
0fffc0
0fffc0
0e01c0
1e03c0
1c0380
1c0380
1c0380
1c0380
7f1fe0
ff3fe0
fe3fc0
ENDCHAR
STARTCHAR I
ENCODING 73
SWIDTH 600 0
DWIDTH 20 0
BBX 17 20 3 0
BITMAP
0fff80
1fff80
1fff00
00f000
00e000
00e000
00e000
00e000
01e000
01c000
01c000
01c000
03c000
038000
038000
038000
038000
7ffc00
fffc00
fff800
ENDCHAR
STARTCHAR J
ENCODING 74
SWIDTH 600 0
DWIDTH 20 0
BBX 21 20 3 0
BITMAP
007ff8
00fff8
00fff0
000780
000700
000700
000700
000700
000f00
000e00
000e00
700e00
f01e00
e01c00
e01c00
e03c00
f0f800
fff000
ffe000
3f8000
ENDCHAR
STARTCHAR K
ENCODING 75
SWIDTH 600 0
DWIDTH 20 0
BBX 22 20 1 0
BITMAP
0ff1fc
1ff3fc
1fe3f8
0781e0
0703c0
070780
071f00
077c00
0ff000
0ff800
0ffc00
0f3c00
1e1e00
1c0e00
1c0e00
1c0700
1c0700
7f87e0
ff87e0
ff07c0
ENDCHAR
STARTCHAR L
ENCODING 76
SWIDTH 600 0
DWIDTH 20 0
BBX 20 20 1 0
BITMAP
07fe00
0ffe00
0ffc00
01e000
01c000
01c000
01c000
01c000
03c000
038000
038000
038000
078070
0700e0
0700e0
0700e0
0700e0
7fffe0
ffffc0
ffffc0
ENDCHAR
STARTCHAR M
ENCODING 77
SWIDTH 600 0
DWIDTH 20 0
BBX 24 20 -1 0
BITMAP
0fc07f
1fc07f
1fc0fe
07e0f8
07e1f8
07e1f8
07e3b8
06e378
0ef778
0ef770
0e7e70
0e7c70
1e7cf0
1c78e0
1c70e0
1c70e0
1c00e0
7f87f8
ff8ff8
ff0ff0
ENDCHAR
STARTCHAR N
ENCODING 78
SWIDTH 600 0
DWIDTH 20 0
BBX 22 20 1 0
BITMAP
0f81fc
1fc3fc
1fc3f8
07c0f0
07e0e0
07e0e0
07f0e0
0770e0
0f71e0
0e79c0
0e39c0
0e39c0
1e3dc0
1c1d80
1c1f80
1c1f80
1c0f80
7f8f80
ff8700
ff0700
ENDCHAR
STARTCHAR O
ENCODING 79
SWIDTH 600 0
DWIDTH 20 0
BBX 18 20 2 0
BITMAP
00fc00
03ff00
0fff80
0f0780
1e03c0
3c01c0
7801c0
7001c0
7001c0
e001c0
e001c0
e003c0
e00380
e00780
f00700
700f00
7c3e00
3ffc00
1ff000
07c000
ENDCHAR
STARTCHAR P
ENCODING 80
SWIDTH 600 0
DWIDTH 20 0
BBX 19 20 2 0
BITMAP
0fff00
1fff80
1fffc0
0781e0
0700e0
0700e0
0700e0
0701e0
0f01c0
0e0f80
0fff00
0ffe00
1fe000
1c0000
1c0000
1c0000
1c0000
7fe000
ffe000
ffc000
ENDCHAR
STARTCHAR Q
ENCODING 81
SWIDTH 600 0
DWIDTH 20 0
BBX 18 25 2 -5
BITMAP
00fc00
03fe00
07ff00
0f8780
1e0380
3c01c0
7801c0
7001c0
7001c0
f001c0
e001c0
e003c0
e00380
e00780
f00700
701e00
787e00
3ff800
1ff000
0fc000
1e0700
7fcf00
7fff00
78fe00
001c00
ENDCHAR
STARTCHAR R
ENCODING 82
SWIDTH 600 0
DWIDTH 20 0
BBX 19 20 1 0
BITMAP
0fff00
1fffc0
1fffc0
0781e0
0700e0
0700e0
0700e0
0701e0
0f07c0
0fff80
0ffe00
0ffc00
1e1e00
1c0e00
1c0f00
1c0700
1c0780
7f83e0
ff83e0
ff01e0
ENDCHAR
STARTCHAR S
ENCODING 83
SWIDTH 600 0
DWIDTH 20 0
BBX 19 20 2 0
BITMAP
00fc00
03ff60
07ffe0
0f03e0
0e01c0
0e01c0
0e0180
0f0000
0fc000
07f800
03fe00
007f00
000f80
000380
700380
700380
7c0700
ffff00
fffe00
c7f800
ENDCHAR
STARTCHAR T
ENCODING 84
SWIDTH 600 0
DWIDTH 20 0
BBX 18 20 4 0
BITMAP
3fffc0
3fffc0
7fff80
71e380
71c380
71c380
e1c700
e1c700
e3c700
038000
038000
038000
078000
070000
070000
070000
070000
7ff000
fff000
ffe000
ENDCHAR
STARTCHAR U
ENCODING 85
SWIDTH 600 0
DWIDTH 20 0
BBX 19 20 3 0
BITMAP
7f8fe0
ff9fe0
ff1fc0
3c0780
380700
380700
380700
380700
780f00
700e00
700e00
700e00
f01e00
e01c00
e01c00
703c00
78f800
7ff000
3fe000
0f8000
ENDCHAR
STARTCHAR V
ENCODING 86
SWIDTH 600 0
DWIDTH 20 0
BBX 21 20 3 0
BITMAP
7f07f8
ff0ff8
fe0ff0
3801c0
3803c0
380380
1c0700
1c0f00
1c0e00
1c1e00
1c1c00
1e3800
0e7800
0e7000
0ee000
0fe000
0fc000
07c000
078000
070000
ENDCHAR
STARTCHAR W
ENCODING 87
SWIDTH 600 0
DWIDTH 20 0
BBX 22 20 3 0
BITMAP
7f81fc
ff83fc
ff03f8
3800f0
3870e0
3870e0
38f1e0
38f1c0
39f9c0
39f9c0
3bbb80
3b3b80
3f3b80
7e3f00
7e3f00
7c1f00
7c1e00
781e00
781e00
701e00
ENDCHAR
STARTCHAR X
ENCODING 88
SWIDTH 600 0
DWIDTH 20 0
BBX 23 20 0 0
BITMAP
07e0fe
0fe1fe
0fc1fc
03c0f0
01c1e0
01e3c0
00f780
00ff00
007e00
003c00
007c00
00fe00
01fe00
03cf00
078700
0f0780
1e0380
7f0fe0
ff1fe0
fe1fc0
ENDCHAR
STARTCHAR Y
ENCODING 89
SWIDTH 600 0
DWIDTH 20 0
BBX 19 20 4 0
BITMAP
7e0fe0
fe1fe0
fc1fc0
3c0f00
1c1e00
1e3c00
0e3800
0f7000
077000
07e000
07c000
038000
038000
038000
070000
070000
070000
7ff000
fff000
ffe000
ENDCHAR
STARTCHAR Z
ENCODING 90
SWIDTH 600 0
DWIDTH 20 0
BBX 18 20 2 0
BITMAP
07ffc0
07ffc0
07ffc0
0f03c0
0e0780
0e0f00
1c1e00
003c00
007800
00f000
01e000
03c000
078000
0f0380
1e0700
3c0700
780f00
7fff00
7ffe00
fffe00
ENDCHAR
STARTCHAR bracketleft
ENCODING 91
SWIDTH 600 0
DWIDTH 20 0
BBX 13 26 7 -5
BITMAP
07f8
07f8
07f0
0700
0f00
0e00
0e00
0e00
0e00
1e00
1c00
1c00
1c00
3c00
3800
3800
3800
3800
7800
7000
7000
7000
7000
ff00
ff00
fe00
ENDCHAR
STARTCHAR backslash
ENCODING 92
SWIDTH 600 0
DWIDTH 20 0
BBX 8 27 8 -4
BITMAP
60
e0
e0
e0
e0
f0
70
70
70
78
38
38
38
3c
1c
1c
1c
1e
0e
0e
0e
0f
07
07
07
07
06
ENDCHAR
STARTCHAR bracketright
ENCODING 93
SWIDTH 600 0
DWIDTH 20 0
BBX 12 26 2 -5
BITMAP
03f0
07f0
07f0
0070
00f0
00e0
00e0
00e0
00e0
01e0
01c0
01c0
01c0
03c0
0380
0380
0380
0380
0780
0700
0700
0700
0700
7f00
fe00
fe00
ENDCHAR
STARTCHAR asciicircum
ENCODING 94
SWIDTH 600 0
DWIDTH 20 0
BBX 15 11 5 11
BITMAP
0040
00c0
01c0
03e0
07f0
0f70
1e78
3c38
783c
f01e
e01c
ENDCHAR
STARTCHAR underscore
ENCODING 95
SWIDTH 600 0
DWIDTH 20 0
BBX 20 3 0 -7
BITMAP
fffff0
fffff0
fffff0
ENDCHAR
STARTCHAR grave
ENCODING 96
SWIDTH 600 0
DWIDTH 20 0
BBX 7 5 7 16
BITMAP
f0
78
1c
0e
06
ENDCHAR
STARTCHAR a
ENCODING 97
SWIDTH 600 0
DWIDTH 20 0
BBX 16 15 3 0
BITMAP
01f0
0ffc
1ffe
1e0e
000e
000e
07fe
1ffe
3ffc
781c
f01c
e07c
f7ff
ffdf
7f9e
ENDCHAR
STARTCHAR b
ENCODING 98
SWIDTH 600 0
DWIDTH 20 0
BBX 19 21 1 0
BITMAP
0fc000
1fc000
1f8000
038000
078000
070000
071f00
077fc0
07ffc0
0fc1e0
0f00e0
0e00e0
0e00e0
1e00e0
1e01e0
1e01e0
1c03c0
3e0780
7fff00
fbfe00
f9f800
ENDCHAR
STARTCHAR c
ENCODING 99
SWIDTH 600 0
DWIDTH 20 0
BBX 18 15 3 0
BITMAP
01fcc0
07ffc0
1fffc0
3e07c0
780380
700380
f00300
e00000
e00000
e00000
f00180
f80f80
7fff00
3ffe00
0ff800
ENDCHAR
STARTCHAR d
ENCODING 100
SWIDTH 600 0
DWIDTH 20 0
BBX 19 21 3 0
BITMAP
0007e0
000fe0
000fc0
0001c0
0003c0
000380
03e380
0ffb80
1ffb80
3e1f80
780f00
700f00
e00700
e00f00
e00e00
e00e00
f01e00
f87c00
7fff80
3fff80
0f9f00
ENDCHAR
STARTCHAR e
ENCODING 101
SWIDTH 600 0
DWIDTH 20 0
BBX 17 15 3 0
BITMAP
03f000
0ffc00
1ffe00
3c0f00
780700
f00780
ffff80
ffff80
ffff00
e00000
e00000
f81f00
7fff00
3ffe00
0ff000
ENDCHAR
STARTCHAR f
ENCODING 102
SWIDTH 600 0
DWIDTH 20 0
BBX 20 21 4 0
BITMAP
001ff0
007ff0
00ffe0
00e000
01c000
01c000
0fff00
1fff00
1ffe00
03c000
038000
038000
038000
078000
070000
070000
070000
070000
7ffc00
fffc00
fff800
ENDCHAR
STARTCHAR g
ENCODING 103
SWIDTH 600 0
DWIDTH 20 0
BBX 19 22 3 -7
BITMAP
07e1e0
1ffbe0
3fffc0
7c1f80
700f00
f00f00
e00f00
e00f00
e00e00
e01e00
e01e00
f87e00
7ffe00
3fdc00
0f9c00
001c00
003c00
003800
00f800
7ff000
ffe000
ff8000
ENDCHAR
STARTCHAR h
ENCODING 104
SWIDTH 600 0
DWIDTH 20 0
BBX 19 21 1 0
BITMAP
0fc000
1fc000
1f8000
038000
078000
070000
071e00
077f80
07ffc0
0f83c0
0f01c0
0e01c0
0e01c0
1e03c0
1c0380
1c0380
1c0380
1c0380
7f0fe0
ff1fe0
fe1fc0
ENDCHAR
STARTCHAR i
ENCODING 105
SWIDTH 600 0
DWIDTH 20 0
BBX 16 21 2 0
BITMAP
0078
0078
00f8
00f0
0000
0000
07f0
0ff0
0ff0
00f0
00e0
00e0
00e0
01e0
01c0
01c0
01c0
01c0
7fff
ffff
fffe
ENDCHAR
STARTCHAR j
ENCODING 106
SWIDTH 600 0
DWIDTH 20 0
BBX 16 28 1 -7
BITMAP
000f
001f
001e
001e
0000
0000
07ff
0fff
0fff
000f
000e
000e
000e
001e
001c
001c
001c
001c
003c
0038
0038
0038
0078
0070
00f0
7fe0
ffc0
ff00
ENDCHAR
STARTCHAR k
ENCODING 107
SWIDTH 600 0
DWIDTH 20 0
BBX 18 21 2 0
BITMAP
0fc000
1fc000
1f8000
038000
078000
070000
071fc0
073fc0
071f80
0f3c00
0e7800
0ff000
0fc000
1fc000
1fe000
1cf000
1c7800
1c3c00
fc3f80
fc7f80
f87f00
ENDCHAR
STARTCHAR l
ENCODING 108
SWIDTH 600 0
DWIDTH 20 0
BBX 16 21 2 0
BITMAP
03fc
07fc
07f8
0038
0078
0070
0070
0070
0070
00f0
00e0
00e0
00e0
01e0
01c0
01c0
01c0
01c0
7fff
ffff
fffe
ENDCHAR
STARTCHAR m
ENCODING 109
SWIDTH 600 0
DWIDTH 20 0
BBX 22 15 0 0
BITMAP
1e38e0
3efff8
3ffffc
0f9f3c
0f1e38
0e1c38
0e1c38
1e3c78
1c3870
1c3870
1c3870
1c3870
7e7cf8
fe7cf8
fc78f0
ENDCHAR
STARTCHAR n
ENCODING 110
SWIDTH 600 0
DWIDTH 20 0
BBX 19 15 1 0
BITMAP
1e3e00
3e7f80
3fffc0
0f83c0
0f01c0
0e01c0
0e01c0
1e03c0
1c0380
1c0380
1c0380
1c0380
7f0fe0
ff1fe0
fe1fc0
ENDCHAR
STARTCHAR o
ENCODING 111
SWIDTH 600 0
DWIDTH 20 0
BBX 16 15 3 0
BITMAP
01f0
0ffc
1ffe
3c0f
3807
7007
7003
f007
6007
700e
700e
783c
3ffc
1ff0
07c0
ENDCHAR
STARTCHAR p
ENCODING 112
SWIDTH 600 0
DWIDTH 20 0
BBX 21 22 -1 -7
BITMAP
07c780
0fdfe0
0ffff0
01f878
03e038
03c038
038038
078038
078078
078078
0780f0
07e1e0
0fffc0
0eff80
0e3e00
0e0000
0e0000
1e0000
1c0000
7fc000
ffc000
ff8000
ENDCHAR
STARTCHAR q
ENCODING 113
SWIDTH 600 0
DWIDTH 20 0
BBX 20 22 3 -7
BITMAP
03e3f0
0ffbf0
1fffe0
3c1f00
780700
f00700
e00700
e00f00
e00e00
e00e00
e01e00
f87e00
7ffe00
3fdc00
0f9c00
001c00
001c00
003c00
003800
01ff00
03ff00
03fe00
ENDCHAR
STARTCHAR r
ENCODING 114
SWIDTH 600 0
DWIDTH 20 0
BBX 19 15 2 0
BITMAP
0fc7c0
1fdfe0
1fbfe0
03f0c0
03e000
03c000
038000
078000
070000
070000
070000
070000
7ffc00
fffc00
fff800
ENDCHAR
STARTCHAR s
ENCODING 115
SWIDTH 600 0
DWIDTH 20 0
BBX 17 15 3 0
BITMAP
01f980
07ff80
0fff00
1e0f00
1c0600
1e0000
1ff000
0ffc00
01fe00
301e00
700e00
781e00
fffc00
fff800
cfe000
ENDCHAR
STARTCHAR t
ENCODING 116
SWIDTH 600 0
DWIDTH 20 0
BBX 15 20 4 0
BITMAP
0380
0780
0700
0f00
0e00
7ffc
fffc
fff8
1e00
1c00
1c00
1c00
3c00
3800
3800
380c
3c3e
3ffc
1ff8
0fc0
ENDCHAR
STARTCHAR u
ENCODING 117
SWIDTH 600 0
DWIDTH 20 0
BBX 18 15 3 0
BITMAP
7e1fc0
fe3fc0
fc3f80
3c0380
380700
380700
380700
780f00
700e00
700e00
701e00
787e00
7fff80
7fef80
3f8f00
ENDCHAR
STARTCHAR v
ENCODING 118
SWIDTH 600 0
DWIDTH 20 0
BBX 19 15 3 0
BITMAP
7f0fe0
ff1fe0
fe1fc0
380700
380e00
1c1e00
1c1c00
1c3800
1c7800
0e7000
0ee000
0fe000
0fc000
078000
070000
ENDCHAR
STARTCHAR w
ENCODING 119
SWIDTH 600 0
DWIDTH 20 0
BBX 20 15 2 0
BITMAP
7f03f0
ff07f0
fe07e0
3861c0
38e380
38e380
39f300
3bf700
3bf600
3f7600
3e7e00
3e7c00
3c3c00
3c3800
383800
ENDCHAR
STARTCHAR x
ENCODING 120
SWIDTH 600 0
DWIDTH 20 0
BBX 20 15 1 0
BITMAP
1fc3f0
3fc7f0
3f87e0
070780
038e00
01dc00
00f800
00f000
01f800
039c00
0f0e00
1e0700
7f1fc0
ff3fc0
fe3f80
ENDCHAR
STARTCHAR y
ENCODING 121
SWIDTH 600 0
DWIDTH 20 0
BBX 23 22 -1 -7
BITMAP
07e0fe
0fe1fe
0fc1fc
038078
0380f0
0381e0
01c1c0
01c380
01c780
01e700
00ee00
00fe00
00fc00
00f800
007000
00f000
00e000
01c000
038000
7ff000
fff000
ffe000
ENDCHAR
STARTCHAR z
ENCODING 122
SWIDTH 600 0
DWIDTH 20 0
BBX 17 15 3 0
BITMAP
1fff80
3fff80
3fff00
781e00
703c00
70f800
01f000
03c000
078000
0f0700
3e0f00
7c0e00
fffe00
fffc00
fffc00
ENDCHAR
STARTCHAR braceleft
ENCODING 123
SWIDTH 600 0
DWIDTH 20 0
BBX 11 26 7 -5
BITMAP
00e0
03e0
07c0
0700
0f00
0e00
0e00
0e00
0e00
1e00
1c00
3c00
7800
f800
f800
3800
3800
3800
7800
7000
7000
7000
7000
7c00
7c00
3800
ENDCHAR
STARTCHAR bar
ENCODING 124
SWIDTH 600 0
DWIDTH 20 0
BBX 8 26 7 -5
BITMAP
03
07
07
07
0f
0e
0e
0e
0e
1e
1c
1c
1c
3c
38
38
38
38
78
70
70
70
70
f0
e0
c0
ENDCHAR
STARTCHAR braceright
ENCODING 125
SWIDTH 600 0
DWIDTH 20 0
BBX 11 26 4 -5
BITMAP
0300
07c0
07c0
01c0
01e0
01c0
01c0
01c0
01c0
03c0
0380
0380
03e0
01e0
03c0
0780
0700
0700
0f00
0e00
0e00
0e00
1e00
7c00
f800
f000
ENDCHAR
STARTCHAR asciitilde
ENCODING 126
SWIDTH 600 0
DWIDTH 20 0
BBX 16 7 4 6
BITMAP
0c00
3f03
7f87
fbdf
e1fe
c0fc
0030
ENDCHAR
STARTCHAR nobreakspace
ENCODING 160
SWIDTH 600 0
DWIDTH 20 0
BBX 1 1 0 0
BITMAP
00
ENDCHAR
STARTCHAR Aogonek
ENCODING 161
SWIDTH 600 0
DWIDTH 20 0
BBX 21 28 -1 -8
BITMAP
00ff80
01ff80
01ff80
001f80
003b80
003b80
0073c0
00f1c0
00e1c0
01e1c0
01c1c0
0381c0
07ffe0
07ffe0
0fffe0
0e00e0
1c00e0
7f83f8
ff87f8
ff07f0
001800
003800
007000
00e000
00e000
00fc00
00fc00
007000
ENDCHAR
STARTCHAR breve
ENCODING 162
SWIDTH 600 0
DWIDTH 20 0
BBX 11 5 9 17
BITMAP
c0e0
c0e0
f1c0
7f80
1e00
ENDCHAR
STARTCHAR Lstroke
ENCODING 163
SWIDTH 600 0
DWIDTH 20 0
BBX 20 20 1 0
BITMAP
07fe00
0ffe00
0ffc00
01e000
01c000
01c000
01ce00
01fe00
03fc00
03f000
0fe000
1f8000
7f8070
7700e0
0700e0
0700e0
0700e0
7fffe0
ffffc0
ffffc0
ENDCHAR
STARTCHAR currency
ENCODING 164
SWIDTH 600 0
DWIDTH 20 0
BBX 16 15 4 2
BITMAP
1803
3de7
3fff
1ffe
1e3c
1c1c
3c1c
381c
381c
3838
3c78
7ff8
fffc
e7bc
c018
ENDCHAR
STARTCHAR Lcaron
ENCODING 165
SWIDTH 750 0
DWIDTH 25 0
BBX 25 23 1 0
BITMAP
00000f80
00000f00
00001e00
07fe1c00
0ffe3800
0ffc3800
01e07000
01c0e000
01c0c000
01c00000
01c00000
03c00000
03800000
03800000
03800000
07807000
0700e000
0700e000
0700e000
0700e000
7fffe000
ffffc000
ffffc000
ENDCHAR
STARTCHAR Sacute
ENCODING 166
SWIDTH 600 0
DWIDTH 20 0
BBX 20 27 2 0
BITMAP
0000f0
0001e0
0003c0
000700
000e00
001c00
000000
00fc00
03ff60
07ffe0
0f03e0
0e01c0
0e01c0
0e0180
0f0000
0fc000
07f800
03fe00
007f00
000f80
000380
700380
700380
7c0700
ffff00
fffe00
c7f800
ENDCHAR
STARTCHAR section
ENCODING 167
SWIDTH 600 0
DWIDTH 20 0
BBX 18 22 3 -2
BITMAP
007fc0
01ffc0
038180
030180
030180
0f8000
1fc000
38e000
307000
383800
1c1c00
0e0e00
070700
038300
01c700
00fe00
007c00
603000
603000
e07000
ffe000
ff8000
ENDCHAR
STARTCHAR diaeresis
ENCODING 168
SWIDTH 600 0
DWIDTH 20 0
BBX 11 3 9 17
BITMAP
70e0
f1e0
e1c0
ENDCHAR
STARTCHAR Scaron
ENCODING 169
SWIDTH 600 0
DWIDTH 20 0
BBX 19 26 2 0
BITMAP
0060c0
0073c0
003f00
001e00
000800
000000
00fc00
03ff60
07ffe0
0f03e0
0e01c0
0e01c0
0e0180
0f0000
0fc000
07f800
03fe00
007f00
000f80
000380
700380
700380
7c0700
ffff00
fffe00
c7f800
ENDCHAR
STARTCHAR Scedilla
ENCODING 170
SWIDTH 600 0
DWIDTH 20 0
BBX 19 26 2 -6
BITMAP
00fc00
03ff60
07ffe0
0f03e0
0e01c0
0e01c0
0e0180
0f0000
0fc000
07f800
03fe00
007f00
000f80
000380
700380
700380
7c0700
ffff00
fffe00
c7f800
003800
003000
007000
033800
03f000
01e000
ENDCHAR
STARTCHAR Tcaron
ENCODING 171
SWIDTH 600 0
DWIDTH 20 0
BBX 18 26 4 0
BITMAP
018300
01cf00
00fc00
007800
002000
000000
3fffc0
3fffc0
7fff80
71e380
71c380
71c380
e1c700
e1c700
e3c700
038000
038000
038000
078000
070000
070000
070000
070000
7ff000
fff000
ffe000
ENDCHAR
STARTCHAR Zacute
ENCODING 172
SWIDTH 600 0
DWIDTH 20 0
BBX 20 27 2 0
BITMAP
0000f0
0001e0
0003c0
000700
000e00
001c00
000000
07ffc0
07ffc0
07ffc0
0f03c0
0e0780
0e0f00
1c1e00
003c00
007800
00f000
01e000
03c000
078000
0f0380
1e0700
3c0700
780f00
7fff00
7ffe00
fffe00
ENDCHAR
STARTCHAR hyphen
ENCODING 173
SWIDTH 600 0
DWIDTH 20 0
BBX 14 3 4 8
BITMAP
7ffc
fffc
fff8
ENDCHAR
STARTCHAR Zcaron
ENCODING 174
SWIDTH 600 0
DWIDTH 20 0
BBX 18 26 2 0
BITMAP
0060c0
0073c0
003f00
001e00
000800
000000
07ffc0
07ffc0
07ffc0
0f03c0
0e0780
0e0f00
1c1e00
003c00
007800
00f000
01e000
03c000
078000
0f0380
1e0700
3c0700
780f00
7fff00
7ffe00
fffe00
ENDCHAR
STARTCHAR Zabovedot
ENCODING 175
SWIDTH 600 0
DWIDTH 20 0
BBX 18 24 2 0
BITMAP
000e00
001e00
001c00
000000
07ffc0
07ffc0
07ffc0
0f03c0
0e0780
0e0f00
1c1e00
003c00
007800
00f000
01e000
03c000
078000
0f0380
1e0700
3c0700
780f00
7fff00
7ffe00
fffe00
ENDCHAR
STARTCHAR degree
ENCODING 176
SWIDTH 600 0
DWIDTH 20 0
BBX 10 9 7 11
BITMAP
1f00
6180
40c0
c040
8040
8040
c0c0
6300
3e00
ENDCHAR
STARTCHAR aogonek
ENCODING 177
SWIDTH 600 0
DWIDTH 20 0
BBX 16 23 3 -8
BITMAP
01f0
0ffc
1ffe
1e0e
000e
000e
07fe
1ffe
3ffc
781c
f01c
e07c
f7ff
ffdf
7f9e
00c0
01c0
0380
0700
0700
07e0
07e0
0380
ENDCHAR
STARTCHAR ogonek
ENCODING 178
SWIDTH 600 0
DWIDTH 20 0
BBX 6 8 8 -6
BITMAP
18
38
70
e0
e0
fc
fc
70
ENDCHAR
STARTCHAR lstroke
ENCODING 179
SWIDTH 600 0
DWIDTH 20 0
BBX 16 21 2 0
BITMAP
03f8
07f8
07f8
0038
0078
0070
0070
0077
007f
00fe
01f8
07f0
0fe0
1fe0
1dc0
01c0
01c0
01c0
7fff
ffff
fffe
ENDCHAR
STARTCHAR acute
ENCODING 180
SWIDTH 600 0
DWIDTH 20 0
BBX 9 6 10 15
BITMAP
0780
0f00
1e00
3800
7000
e000
ENDCHAR
STARTCHAR lcaron
ENCODING 181
SWIDTH 840 0
DWIDTH 28 0
BBX 24 24 2 0
BITMAP
00001f
00001e
00003c
03fc38
07fc70
07f870
0038e0
0079c0
007180
007000
007000
007000
00f000
00e000
00e000
00e000
01e000
01c000
01c000
01c000
01c000
7fff00
ffff00
fffe00
ENDCHAR
STARTCHAR sacute
ENCODING 182
SWIDTH 600 0
DWIDTH 20 0
BBX 18 22 3 0
BITMAP
0003c0
000780
000f00
001c00
003800
007000
000000
01f980
07ff80
0fff00
1e0f00
1c0600
1e0000
1ff000
0ffc00
01fe00
301e00
700e00
781e00
fffc00
fff800
cfe000
ENDCHAR
STARTCHAR caron
ENCODING 183
SWIDTH 600 0
DWIDTH 20 0
BBX 9 5 9 17
BITMAP
c180
e780
7e00
3c00
1000
ENDCHAR
STARTCHAR cedilla
ENCODING 184
SWIDTH 600 0
DWIDTH 20 0
BBX 7 6 5 -6
BITMAP
0e
0c
1c
ce
fc
78
ENDCHAR
STARTCHAR scaron
ENCODING 185
SWIDTH 600 0
DWIDTH 20 0
BBX 17 21 3 0
BITMAP
018300
01cf00
00fc00
007800
002000
000000
01f980
07ff80
0fff00
1e0f00
1c0600
1e0000
1ff000
0ffc00
01fe00
301e00
700e00
781e00
fffc00
fff800
cfe000
ENDCHAR
STARTCHAR scedilla
ENCODING 186
SWIDTH 600 0
DWIDTH 20 0
BBX 17 21 3 -6
BITMAP
01f980
07ff80
0fff00
1e0f00
1c0600
1e0000
1ff000
0ffc00
01fe00
301e00
700e00
781e00
fffc00
fff800
cfe000
007000
006000
00e000
067000
07e000
03c000
ENDCHAR
STARTCHAR tcaron
ENCODING 187
SWIDTH 600 0
DWIDTH 20 0
BBX 15 29 4 0
BITMAP
07c0
0780
0f00
0e00
1c00
1c00
3800
7000
6000
0380
0780
0700
0f00
0e00
7ffc
fffc
fff8
1e00
1c00
1c00
1c00
3c00
3800
3800
380c
3c3e
3ffc
1ff8
0fc0
ENDCHAR
STARTCHAR zacute
ENCODING 188
SWIDTH 600 0
DWIDTH 20 0
BBX 17 22 3 0
BITMAP
000780
000f00
001e00
003800
007000
00e000
000000
1fff80
3fff80
3fff00
781e00
703c00
70f800
01f000
03c000
078000
0f0700
3e0f00
7c0e00
fffe00
fffc00
fffc00
ENDCHAR
STARTCHAR doubleacute
ENCODING 189
SWIDTH 600 0
DWIDTH 20 0
BBX 13 5 7 16
BITMAP
1e78
3cf0
79e0
e380
c300
ENDCHAR
STARTCHAR zcaron
ENCODING 190
SWIDTH 600 0
DWIDTH 20 0
BBX 17 21 3 0
BITMAP
030600
039e00
01f800
00f000
004000
000000
1fff80
3fff80
3fff00
781e00
703c00
70f800
01f000
03c000
078000
0f0700
3e0f00
7c0e00
fffe00
fffc00
fffc00
ENDCHAR
STARTCHAR zabovedot
ENCODING 191
SWIDTH 600 0
DWIDTH 20 0
BBX 17 19 3 0
BITMAP
007000
00f000
00e000
000000
1fff80
3fff80
3fff00
781e00
703c00
70f800
01f000
03c000
078000
0f0700
3e0f00
7c0e00
fffe00
fffc00
fffc00
ENDCHAR
STARTCHAR Racute
ENCODING 192
SWIDTH 600 0
DWIDTH 20 0
BBX 19 27 1 0
BITMAP
0001e0
0003c0
000780
000e00
001c00
003800
000000
0fff00
1fffc0
1fffc0
0781e0
0700e0
0700e0
0700e0
0701e0
0f07c0
0fff80
0ffe00
0ffc00
1e1e00
1c0e00
1c0f00
1c0700
1c0780
7f83e0
ff83e0
ff01e0
ENDCHAR
STARTCHAR Aacute
ENCODING 193
SWIDTH 600 0
DWIDTH 20 0
BBX 21 26 -1 0
BITMAP
000078
0000f0
0001e0
000380
000700
000000
00ff80
01ff80
01ff80
001f80
003b80
003b80
0073c0
00f1c0
00e1c0
01e1c0
01c1c0
0381c0
07ffe0
07ffe0
0fffe0
0e00e0
1c00e0
7f83f8
ff87f8
ff07f0
ENDCHAR
STARTCHAR Acircumflex
ENCODING 194
SWIDTH 600 0
DWIDTH 20 0
BBX 21 26 -1 0
BITMAP
000200
000f00
001f80
0071c0
0060c0
000000
00ff80
01ff80
01ff80
001f80
003b80
003b80
0073c0
00f1c0
00e1c0
01e1c0
01c1c0
0381c0
07ffe0
07ffe0
0fffe0
0e00e0
1c00e0
7f83f8
ff87f8
ff07f0
ENDCHAR
STARTCHAR Abreve
ENCODING 195
SWIDTH 600 0
DWIDTH 20 0
BBX 21 26 -1 0
BITMAP
00c0e0
00c0e0
00f1c0
007f80
001e00
000000
00ff80
01ff80
01ff80
001f80
003b80
003b80
0073c0
00f1c0
00e1c0
01e1c0
01c1c0
0381c0
07ffe0
07ffe0
0fffe0
0e00e0
1c00e0
7f83f8
ff87f8
ff07f0
ENDCHAR
STARTCHAR Adiaeresis
ENCODING 196
SWIDTH 600 0
DWIDTH 20 0
BBX 21 25 -1 0
BITMAP
003870
0078f0
0070e0
000000
000000
00ff80
01ff80
01ff80
001f80
003f80
003b80
0073c0
00f1c0
00e1c0
01e1c0
01c1c0
0381c0
07ffe0
07ffe0
0fffe0
0e00e0
1c00e0
7f83f8
ff87f8
ff07f0
ENDCHAR
STARTCHAR Lacute
ENCODING 197
SWIDTH 600 0
DWIDTH 20 0
BBX 20 27 1 0
BITMAP
0003c0
000780
000f00
001c00
003800
007000
000000
07fe00
0ffe00
0ffc00
01e000
01c000
01c000
01c000
01c000
03c000
038000
038000
038000
078070
0700e0
0700e0
0700e0
0700e0
7fffe0
ffffc0
ffffc0
ENDCHAR
STARTCHAR Cacute
ENCODING 198
SWIDTH 600 0
DWIDTH 20 0
BBX 20 27 3 0
BITMAP
0000f0
0001e0
0003c0
000700
000e00
001c00
000000
00fc60
03ffe0
0fffe0
1f83e0
1e01c0
3801c0
780180
700000
f00000
e00000
e00000
e00000
e00000
e00000
e00000
f00700
781f00
7ffe00
1ffc00
07f000
ENDCHAR
STARTCHAR Ccedilla
ENCODING 199
SWIDTH 600 0
DWIDTH 20 0
BBX 19 26 3 -6
BITMAP
00fc60
03ffe0
0fffe0
1f87c0
1e01c0
3801c0
780180
700000
f00000
e00000
e00000
e00000
e00000
e00000
e00000
f00700
781f00
7ffe00
1ffc00
07f000
038000
030000
070000
338000
3f0000
1e0000
ENDCHAR
STARTCHAR Ccaron
ENCODING 200
SWIDTH 600 0
DWIDTH 20 0
BBX 19 26 3 0
BITMAP
0060c0
0073c0
003f00
001e00
000800
000000
00fc60
03ffe0
0fffe0
1f83e0
1e01c0
3801c0
780180
700000
f00000
e00000
e00000
e00000
e00000
e00000
e00000
f00700
781f00
7ffe00
1ffc00
07f000
ENDCHAR
STARTCHAR Eacute
ENCODING 201
SWIDTH 600 0
DWIDTH 20 0
BBX 21 26 1 0
BITMAP
0001e0
0003c0
000780
000e00
001c00
000000
0ffff8
1ffff8
1ffff0
078070
070070
070070
070e60
070e00
0ffe00
0ffc00
0ffc00
0e1c00
1e1c00
1c1ce0
1c01c0
1c01c0
1c01c0
7fffc0
ffff80
ffff80
ENDCHAR
STARTCHAR Eogonek
ENCODING 202
SWIDTH 600 0
DWIDTH 20 0
BBX 21 28 1 -8
BITMAP
0ffff8
1ffff8
1ffff0
078070
070070
070070
070e60
070e00
0ffe00
0ffc00
0ffc00
0e1c00
1e1c00
1c1ce0
1c01c0
1c01c0
1c01c0
7fffc0
ffff80
ffff80
001800
003800
007000
00e000
00e000
00fc00
00fc00
007000
ENDCHAR
STARTCHAR Ediaeresis
ENCODING 203
SWIDTH 600 0
DWIDTH 20 0
BBX 21 25 1 0
BITMAP
0070e0
00f1e0
00e1c0
000000
000000
0ffff8
1ffff8
1ffff0
078070
070070
070070
070e60
070e00
0ffe00
0ffc00
0ffc00
0e1c00
1e1c00
1c1ce0
1c01c0
1c01c0
1c01c0
7fffc0
ffff80
ffff80
ENDCHAR
STARTCHAR Ecaron
ENCODING 204
SWIDTH 600 0
DWIDTH 20 0
BBX 21 26 1 0
BITMAP
0060c0
0073c0
003f00
001e00
000800
000000
0ffff8
1ffff8
1ffff0
078070
070070
070070
070e60
070e00
0ffe00
0ffc00
0ffc00
0e1c00
1e1c00
1c1ce0
1c01c0
1c01c0
1c01c0
7fffc0
ffff80
ffff80
ENDCHAR
STARTCHAR Iacute
ENCODING 205
SWIDTH 600 0
DWIDTH 20 0
BBX 17 26 3 0
BITMAP
000780
000f00
001e00
003800
007000
000000
0fff80
1fff80
1fff80
00f000
00e000
00e000
00e000
00e000
01e000
01c000
01c000
01c000
03c000
038000
038000
038000
038000
7ffc00
fffc00
fff800
ENDCHAR
STARTCHAR Icircumflex
ENCODING 206
SWIDTH 600 0
DWIDTH 20 0
BBX 17 26 3 0
BITMAP
000800
003c00
007e00
01c700
018300
000000
0fff80
1fff80
1fff80
00f000
00e000
00e000
00e000
00e000
01e000
01c000
01c000
01c000
03c000
038000
038000
038000
038000
7ffc00
fffc00
fff800
ENDCHAR
STARTCHAR Dcaron
ENCODING 207
SWIDTH 600 0
DWIDTH 20 0
BBX 19 26 1 0
BITMAP
00c180
00e780
007e00
003c00
001000
000000
0ffe00
1fff80
1fffc0
0783e0
0701e0
0700e0
0700e0
0700e0
0f00e0
0e00e0
0e00e0
0e00e0
1e01c0
1c01c0
1c03c0
1c0780
1c0f00
7ffe00
fffc00
fff000
ENDCHAR
STARTCHAR Dstroke
ENCODING 208
SWIDTH 600 0
DWIDTH 20 0
BBX 19 20 1 0
BITMAP
0ffe00
1fff80
1fffc0
0783c0
0701e0
0700e0
0700e0
0700e0
3fe0e0
7fe0e0
7fc0e0
0e00e0
1e01e0
1c01c0
1c03c0
1c0780
1c0f00
7ffe00
fffc00
fff000
ENDCHAR
STARTCHAR Nacute
ENCODING 209
SWIDTH 600 0
DWIDTH 20 0
BBX 22 27 1 0
BITMAP
000078
0000f0
0001e0
000380
000700
000e00
000000
0f81fc
1fc3fc
1fc3f8
07c0f0
07e0e0
07e0e0
07f0e0
0770e0
0f71e0
0e79c0
0e39c0
0e39c0
1e3dc0
1c1d80
1c1f80
1c1f80
1c0f80
7f8f80
ff8700
ff0700
ENDCHAR
STARTCHAR Ncaron
ENCODING 210
SWIDTH 600 0
DWIDTH 20 0
BBX 22 26 1 0
BITMAP
003060
0039e0
001f80
000f00
000400
000000
0f81fc
1fc3fc
1fc3f8
07c0f0
07e0e0
07e0e0
07f0e0
0770e0
0f71e0
0e79c0
0e39c0
0e39c0
1e3dc0
1c1d80
1c1f80
1c1f80
1c0f80
7f8f80
ff8700
ff0700
ENDCHAR
STARTCHAR Oacute
ENCODING 211
SWIDTH 600 0
DWIDTH 20 0
BBX 18 26 2 0
BITMAP
000780
000f00
001e00
003800
007000
000000
00fc00
03ff00
0fff80
0f0780
1e03c0
3c01c0
7801c0
7001c0
7001c0
e001c0
e001c0
e003c0
e00380
e00780
f00700
700f00
7c3e00
3ffc00
1ff000
07c000
ENDCHAR
STARTCHAR Ocircumflex
ENCODING 212
SWIDTH 600 0
DWIDTH 20 0
BBX 18 26 2 0
BITMAP
000800
003c00
007e00
01e700
018300
000000
00fc00
03ff00
0fff80
0f0780
1e03c0
3c01c0
7801c0
7001c0
7001c0
e001c0
e001c0
e003c0
e00380
e00780
f00700
700f00
7c3e00
3ffc00
1ff000
07c000
ENDCHAR
STARTCHAR Odoubleacute
ENCODING 213
SWIDTH 600 0
DWIDTH 20 0
BBX 21 26 2 0
BITMAP
001e78
003cf0
0079e0
00e380
00c300
000000
00fc00
03ff00
0fff80
0f0780
1e03c0
3c01c0
7801c0
7001c0
7001c0
e001c0
e001c0
e003c0
e00380
e00780
f00700
700f00
7c3e00
3ffc00
1ff000
07c000
ENDCHAR
STARTCHAR Odiaeresis
ENCODING 214
SWIDTH 600 0
DWIDTH 20 0
BBX 18 24 2 0
BITMAP
00e1c0
01e3c0
01c380
000000
00fc00
03ff00
0fff80
0f0780
1e03c0
3c01c0
7801c0
7001c0
7001c0
e001c0
e001c0
e003c0
e00380
e00780
f00700
700f00
7c3e00
3ffc00
1ff000
07c000
ENDCHAR
STARTCHAR multiply
ENCODING 215
SWIDTH 600 0
DWIDTH 20 0
BBX 17 15 3 1
BITMAP
300300
780780
3c0f00
1e1e00
0f3c00
07f800
03f000
01e000
03e000
07f000
1f7800
3c3c00
781e00
f00f00
600600
ENDCHAR
STARTCHAR Rcaron
ENCODING 216
SWIDTH 600 0
DWIDTH 20 0
BBX 19 26 1 0
BITMAP
00c180
00e780
007e00
003c00
001000
000000
0fff00
1fffc0
1fffc0
0781e0
0700e0
0700e0
0700e0
0701e0
0f07c0
0fff80
0ffe00
0ffc00
1e1e00
1c0e00
1c0f00
1c0700
1c0780
7f83e0
ff83e0
ff01e0
ENDCHAR
STARTCHAR Uring
ENCODING 217
SWIDTH 600 0
DWIDTH 20 0
BBX 19 26 3 0
BITMAP
007800
00c400
008400
008c00
007800
000000
7f8fe0
ff9fe0
ff1fc0
3c0780
380700
380700
380700
380700
780f00
700e00
700e00
700e00
f01e00
e01c00
e01c00
703c00
78f800
7ff000
3fe000
0f8000
ENDCHAR
STARTCHAR Uacute
ENCODING 218
SWIDTH 600 0
DWIDTH 20 0
BBX 19 26 3 0
BITMAP
000f00
001e00
003c00
007000
00e000
000000
7f8fe0
ff9fe0
ff1fc0
3c0780
380700
380700
380700
380700
780f00
700e00
700e00
700e00
f01e00
e01c00
e01c00
703c00
78f800
7ff000
3fe000
0f8000
ENDCHAR
STARTCHAR Udoubleacute
ENCODING 219
SWIDTH 600 0
DWIDTH 20 0
BBX 20 26 3 0
BITMAP
003cf0
0079e0
00f3c0
01c700
018600
000000
7f8fe0
ff9fe0
ff1fc0
3c0780
380700
380700
380700
380700
780f00
700e00
700e00
700e00
f01e00
e01c00
e01c00
703c00
78f800
7ff000
3fe000
0f8000
ENDCHAR
STARTCHAR Udiaeresis
ENCODING 220
SWIDTH 600 0
DWIDTH 20 0
BBX 19 25 3 0
BITMAP
01c380
03c780
038700
000000
000000
7f8fe0
ff9fe0
ff1fc0
3c0780
380700
380700
380700
380700
780f00
700e00
700e00
700e00
f01e00
e01c00
e01c00
703c00
78f800
7ff000
3fe000
0f8000
ENDCHAR
STARTCHAR Yacute
ENCODING 221
SWIDTH 600 0
DWIDTH 20 0
BBX 19 26 4 0
BITMAP
000f00
001e00
003c00
007000
00e000
000000
7e0fe0
fe1fe0
fc1fc0
3c0f00
1c1e00
1e3c00
0e3800
0f7000
07f000
07e000
07c000
038000
078000
070000
070000
070000
070000
7ff000
fff000
ffe000
ENDCHAR
STARTCHAR Tcedilla
ENCODING 222
SWIDTH 600 0
DWIDTH 20 0
BBX 18 26 4 -6
BITMAP
3fffc0
3fffc0
7fff80
71e380
71c380
71c380
e1c700
e1c700
e3c700
038000
038000
038000
078000
070000
070000
070000
070000
7ff000
fff000
ffe000
007000
006000
00e000
067000
07e000
03c000
ENDCHAR
STARTCHAR ssharp
ENCODING 223
SWIDTH 600 0
DWIDTH 20 0
BBX 17 21 1 0
BITMAP
007c00
00ff00
01ff00
03c780
078380
070380
070700
070700
073e00
0f7e00
0e7f00
0e0f00
0e0780
1e0380
1c0380
1c0380
1cc380
1dc780
7fff00
fffe00
fcfc00
ENDCHAR
STARTCHAR racute
ENCODING 224
SWIDTH 600 0
DWIDTH 20 0
BBX 19 22 2 0
BITMAP
0001e0
0003c0
000780
000e00
001c00
003800
000000
0fc7c0
1fdfe0
1fbfe0
03f0c0
03e000
03c000
038000
078000
070000
070000
070000
070000
7ffc00
fffc00
fff800
ENDCHAR
STARTCHAR aacute
ENCODING 225
SWIDTH 600 0
DWIDTH 20 0
BBX 16 21 3 0
BITMAP
001e
003c
0078
00e0
01c0
0000
01f0
0ffc
1ffe
1e0e
000e
000e
07fe
1ffe
3ffc
781c
f01c
e07c
f7ff
ffdf
7f9e
ENDCHAR
STARTCHAR acircumflex
ENCODING 226
SWIDTH 600 0
DWIDTH 20 0
BBX 16 22 3 0
BITMAP
0010
0078
00fc
038e
0306
0000
0000
01f0
0ffc
1ffe
1e0e
000e
000e
07fe
1ffe
3ffc
781c
f01c
e07c
f7ff
ffdf
7f9e
ENDCHAR
STARTCHAR abreve
ENCODING 227
SWIDTH 600 0
DWIDTH 20 0
BBX 16 21 3 0
BITMAP
0607
0607
078e
03fc
00f0
0000
01f0
0ffc
1ffe
1e0e
000e
000e
07fe
1ffe
3ffc
781c
f01c
e07c
f7ff
ffdf
7f9e
ENDCHAR
STARTCHAR adiaeresis
ENCODING 228
SWIDTH 600 0
DWIDTH 20 0
BBX 16 20 3 0
BITMAP
0387
078f
070e
0000
0000
01f0
0ffc
1ffe
1e0e
000e
000e
07fe
1ffe
3ffc
781c
f01c
e07c
f7ff
ffdf
7f9e
ENDCHAR
STARTCHAR lacute
ENCODING 229
SWIDTH 600 0
DWIDTH 20 0
BBX 18 28 2 0
BITMAP
0003c0
000780
000f00
001c00
003800
007000
000000
03fc00
07fc00
07f800
003800
007800
007000
007000
007000
007000
00f000
00e000
00e000
00e000
01e000
01c000
01c000
01c000
01c000
7fff00
ffff00
fffe00
ENDCHAR
STARTCHAR cacute
ENCODING 230
SWIDTH 600 0
DWIDTH 20 0
BBX 18 22 3 0
BITMAP
0003c0
000780
000f00
001c00
003800
007000
000000
01fcc0
07ffc0
1fffc0
3e07c0
780380
700380
f00300
e00000
e00000
e00000
f00180
f80f80
7fff00
3ffe00
0ff800
ENDCHAR
STARTCHAR ccedilla
ENCODING 231
SWIDTH 600 0
DWIDTH 20 0
BBX 18 21 3 -6
BITMAP
01fcc0
0fffc0
1fffc0
3c07c0
780380
700380
f00300
e00000
e00000
e00000
f00380
780780
7fff00
3ffe00
0ff000
01c000
018000
038000
19c000
1f8000
0f0000
ENDCHAR
STARTCHAR ccaron
ENCODING 232
SWIDTH 600 0
DWIDTH 20 0
BBX 18 21 3 0
BITMAP
018300
01cf00
00fc00
007800
002000
000000
01fcc0
07ffc0
1fffc0
3e07c0
780380
700380
f00300
e00000
e00000
e00000
f00180
f80f80
7fff00
3ffe00
0ff800
ENDCHAR
STARTCHAR eacute
ENCODING 233
SWIDTH 600 0
DWIDTH 20 0
BBX 17 21 3 0
BITMAP
003c00
007800
00f000
01c000
038000
000000
03f000
0ffc00
1ffe00
3c0f00
780700
f00780
ffff80
ffff80
ffff00
e00000
e00000
f81f00
7fff00
3ffe00
0ff000
ENDCHAR
STARTCHAR eogonek
ENCODING 234
SWIDTH 600 0
DWIDTH 20 0
BBX 17 23 3 -8
BITMAP
03f000
0ffc00
1ffe00
3c0f00
780700
f00780
ffff80
ffff80
ffff00
e00000
e00000
f81f00
7fff00
3ffe00
0ff000
006000
00e000
01c000
038000
038000
03f000
03f000
01c000
ENDCHAR
STARTCHAR ediaeresis
ENCODING 235
SWIDTH 600 0
DWIDTH 20 0
BBX 17 20 3 0
BITMAP
070e00
0f1e00
0e1c00
000000
000000
03f000
0ffc00
1ffe00
3c0f00
780700
f00780
ffff80
ffff80
ffff00
e00000
e00000
f81f00
7fff00
3ffe00
0ff000
ENDCHAR
STARTCHAR ecaron
ENCODING 236
SWIDTH 600 0
DWIDTH 20 0
BBX 17 21 3 0
BITMAP
030600
039e00
01f800
00f000
004000
000000
03f000
0ffc00
1ffe00
3c0f00
780700
f00780
ffff80
ffff80
ffff00
e00000
e00000
f81f00
7fff00
3ffe00
0ff000
ENDCHAR
STARTCHAR iacute
ENCODING 237
SWIDTH 600 0
DWIDTH 20 0
BBX 16 21 2 0
BITMAP
001e
003c
0078
00e0
01c0
0000
07f0
0ff0
0ff0
00f0
00e0
00e0
00e0
01e0
01c0
01c0
01c0
01c0
7fff
ffff
fffe
ENDCHAR
STARTCHAR icircumflex
ENCODING 238
SWIDTH 600 0
DWIDTH 20 0
BBX 16 21 2 0
BITMAP
0020
00f0
01f8
071c
060c
0000
07f0
0ff0
0ff0
00f0
00e0
00e0
00e0
01e0
01c0
01c0
01c0
01c0
7fff
ffff
fffe
ENDCHAR
STARTCHAR dcaron
ENCODING 239
SWIDTH 900 0
DWIDTH 30 0
BBX 29 24 3 0
BITMAP
000000f8
000000f0
000001e0
0007e1c0
000fe380
000fc380
0001c700
0003ce00
00038c00
03e38000
0ffb8000
1ffb8000
3e1f8000
780f0000
700f0000
e0070000
e00f0000
e00e0000
e00e0000
f01e0000
f87c0000
7fff8000
3fff8000
0f9f0000
ENDCHAR
STARTCHAR dstroke
ENCODING 240
SWIDTH 690 0
DWIDTH 23 0
BBX 22 21 3 0
BITMAP
0007e0
000fe0
000fc0
00fffc
00fffc
000380
03e380
0ffb80
1ffb80
3e1f80
780f00
700f00
e00700
e00f00
e00e00
e00e00
f01e00
f87c00
7fff80
3fff80
0f9f00
ENDCHAR
STARTCHAR nacute
ENCODING 241
SWIDTH 600 0
DWIDTH 20 0
BBX 19 22 1 0
BITMAP
0003c0
000780
000f00
001c00
003800
007000
000000
1e3e00
3e7f80
3fffc0
0f83c0
0f01c0
0e01c0
0e01c0
1e03c0
1c0380
1c0380
1c0380
1c0380
7f0fe0
ff1fe0
fe1fc0
ENDCHAR
STARTCHAR ncaron
ENCODING 242
SWIDTH 600 0
DWIDTH 20 0
BBX 19 21 1 0
BITMAP
018300
01cf00
00fc00
007800
002000
000000
1e3e00
3e7f80
3fffc0
0f83c0
0f01c0
0e01c0
0e01c0
1e03c0
1c0380
1c0380
1c0380
1c0380
7f0fe0
ff1fe0
fe1fc0
ENDCHAR
STARTCHAR oacute
ENCODING 243
SWIDTH 600 0
DWIDTH 20 0
BBX 15 21 4 0
BITMAP
003c
0078
00f0
01c0
0380
0000
03e0
1ff8
3ffc
781e
700e
e00e
e006
e00e
c00e
e01c
e01c
f078
7ff8
3fe0
0f80
ENDCHAR
STARTCHAR ocircumflex
ENCODING 244
SWIDTH 600 0
DWIDTH 20 0
BBX 15 22 4 0
BITMAP
0040
01e0
07f0
0e38
0c18
0000
0000
03e0
1ff8
3ffc
781e
700e
e00e
e006
e00e
c00e
e01c
e01c
f078
7ff8
3fe0
0f80
ENDCHAR
STARTCHAR odoubleacute
ENCODING 245
SWIDTH 600 0
DWIDTH 20 0
BBX 19 21 3 0
BITMAP
0079e0
00f3c0
01e780
038e00
030c00
000000
01f000
0ffc00
1ffe00
3c0f00
380700
700700
700300
f00700
600700
700e00
700e00
783c00
3ffc00
1ff000
07c000
ENDCHAR
STARTCHAR odiaeresis
ENCODING 246
SWIDTH 600 0
DWIDTH 20 0
BBX 15 20 4 0
BITMAP
0e1c
1e3c
1c38
0000
0000
03e0
1ff8
3ffc
781e
700e
e00e
e006
e00e
c00e
e01c
e01c
f078
7ff8
3fe0
0f80
ENDCHAR
STARTCHAR division
ENCODING 247
SWIDTH 600 0
DWIDTH 20 0
BBX 14 15 5 2
BITMAP
01c0
03c0
03c0
0380
0000
0000
fffc
fffc
fffc
0000
0000
0700
0f00
0f00
0e00
ENDCHAR
STARTCHAR rcaron
ENCODING 248
SWIDTH 600 0
DWIDTH 20 0
BBX 19 21 2 0
BITMAP
00c180
00e780
007e00
003c00
001000
000000
0fc7c0
1fdfe0
1fbfe0
03f0c0
03e000
03c000
038000
078000
070000
070000
070000
070000
7ffc00
fffc00
fff800
ENDCHAR
STARTCHAR uring
ENCODING 249
SWIDTH 600 0
DWIDTH 20 0
BBX 18 21 3 0
BITMAP
00f000
018800
010800
011800
00f000
000000
7e1fc0
fe3fc0
fc3f80
3c0380
380700
380700
380700
780f00
700e00
700e00
701e00
787e00
7fff80
7fef80
3f8f00
ENDCHAR
STARTCHAR uacute
ENCODING 250
SWIDTH 600 0
DWIDTH 20 0
BBX 17 21 3 0
BITMAP
000f00
001e00
003c00
007000
00e000
000000
7c1f80
fc3f80
fc3f80
3c0780
380700
380700
380700
780f00
700e00
700e00
701e00
703e00
7fff80
7fef80
3f8f00
ENDCHAR
STARTCHAR udoubleacute
ENCODING 251
SWIDTH 600 0
DWIDTH 20 0
BBX 19 21 3 0
BITMAP
0079e0
00f3c0
01e780
038e00
030c00
000000
7e1fc0
fe3fc0
fc3f80
3c0380
380700
380700
380700
780f00
700e00
700e00
701e00
787e00
7fff80
7fef80
3f8f00
ENDCHAR
STARTCHAR udiaeresis
ENCODING 252
SWIDTH 600 0
DWIDTH 20 0
BBX 17 20 3 0
BITMAP
038700
078f00
070e00
000000
000000
7c1f80
fc3f80
fc3f80
3c0780
380700
380700
380700
780f00
700e00
700e00
701e00
703e00
7fff80
7fef80
3f8f00
ENDCHAR
STARTCHAR yacute
ENCODING 253
SWIDTH 600 0
DWIDTH 20 0
BBX 22 28 -1 -7
BITMAP
0000f0
0001e0
0003c0
000700
000e00
000000
07e0fc
0fe1fc
0fc1fc
038070
0380f0
0381e0
01c1c0
01c380
01c780
01e700
00ee00
00fe00
00fc00
00f800
007800
00f000
00e000
01c000
03c000
7ff000
fff000
ffe000
ENDCHAR
STARTCHAR tcedilla
ENCODING 254
SWIDTH 600 0
DWIDTH 20 0
BBX 15 26 4 -6
BITMAP
0380
0780
0700
0f00
0e00
7ffc
fffc
fff8
1e00
1c00
1c00
1c00
3c00
3800
3800
380c
3c3e
3ffc
1ff8
0fc0
00e0
00c0
01c0
0ce0
0fc0
0780
ENDCHAR
STARTCHAR abovedot
ENCODING 255
SWIDTH 600 0
DWIDTH 20 0
BBX 4 3 12 17
BITMAP
70
f0
e0
ENDCHAR
ENDFONT
