STARTFONT 2.1
FONT -Adobe-Courier-Bold-R-Normal--17-120-100-100-M-100-ISO8859-2
SIZE 12 100 100
FONTBOUNDINGBOX 12 17 -1 -3
COMMENT $XConsortium: courB12.bdf,v 1.10 95/01/26 17:52:09 gildea Exp $
COMMENT 
COMMENT +
COMMENT  Copyright 1984-1989, 1994 Adobe Systems Incorporated.
COMMENT  Copyright 1988, 1994 Digital Equipment Corporation.
COMMENT
COMMENT  Adobe is a trademark of Adobe Systems Incorporated which may be
COMMENT  registered in certain jurisdictions.
COMMENT  Permission to use these trademarks is hereby granted only in
COMMENT  association with the images described in this file.
COMMENT
COMMENT  Permission to use, copy, modify, distribute and sell this software
COMMENT  and its documentation for any purpose and without fee is hereby
COMMENT  granted, provided that the above copyright notices appear in all
COMMENT  copies and that both those copyright notices and this permission
COMMENT  notice appear in supporting documentation, and that the names of
COMMENT  Adobe Systems and Digital Equipment Corporation not be used in
COMMENT  advertising or publicity pertaining to distribution of the software
COMMENT  without specific, written prior permission.  Adobe Systems and
COMMENT  Digital Equipment Corporation make no representations about the
COMMENT  suitability of this software for any purpose.  It is provided "as
COMMENT  is" without express or implied warranty.
COMMENT -
COMMENT  
COMMENT  Translation to ISO8859-2 by Cub Soft;  Petr.Kolar@vslib.cz
COMMENT  
STARTPROPERTIES 28
FOUNDRY "Adobe"
FAMILY_NAME "Courier"
WEIGHT_NAME "Bold"
SLANT "R"
SETWIDTH_NAME "Normal"
ADD_STYLE_NAME ""
PIXEL_SIZE 17
POINT_SIZE 120
RESOLUTION_X 100
RESOLUTION_Y 100
SPACING "M"
AVERAGE_WIDTH 100
CHARSET_REGISTRY "ISO8859"
CHARSET_ENCODING "2"
CAP_HEIGHT 10
X_HEIGHT 7
FONT_ASCENT 12
FONT_DESCENT 3
FACE_NAME "Courier Bold"
COPYRIGHT "Copyright (c) 1984, 1987 Adobe Systems Incorporated. All Rights Reserved. Copyright (c) 1988, 1991 Digital Equipment Corporation. All Rights Reserved., Copyright 1996 Cub Soft"
NOTICE "No mark"
_DEC_DEVICE_FONTNAMES "PS=Courier-Bold"
_DEC_PRODUCTINFO "DECwindows Fonts V2.2, 07-Nov-1991"
DEFAULT_CHAR 32
RELATIVE_SETWIDTH 50
RELATIVE_WEIGHT 70
CHARSET_COLLECTIONS "ASCII ISO8859-2 ADOBE-STANDARD"
FULL_NAME "Courier Bold"
ENDPROPERTIES
CHARS 191
STARTCHAR space
ENCODING 32
SWIDTH 600 0
DWIDTH 10 0
BBX 1 1 0 0
BITMAP
00
ENDCHAR
STARTCHAR exclam
ENCODING 33
SWIDTH 600 0
DWIDTH 10 0
BBX 2 11 3 0
BITMAP
c0
c0
c0
c0
c0
c0
c0
c0
00
c0
c0
ENDCHAR
STARTCHAR quotedbl
ENCODING 34
SWIDTH 600 0
DWIDTH 10 0
BBX 6 5 2 6
BITMAP
cc
cc
cc
cc
cc
ENDCHAR
STARTCHAR numbersign
ENCODING 35
SWIDTH 600 0
DWIDTH 10 0
BBX 9 12 0 -1
BITMAP
3600
3600
3600
3600
ff80
3600
3600
ff80
3600
3600
3600
3600
ENDCHAR
STARTCHAR dollar
ENCODING 36
SWIDTH 600 0
DWIDTH 10 0
BBX 7 13 1 -1
BITMAP
18
18
7e
c6
c0
e0
7c
0e
06
c6
fc
30
30
ENDCHAR
STARTCHAR percent
ENCODING 37
SWIDTH 600 0
DWIDTH 10 0
BBX 8 11 1 0
BITMAP
78
cc
cc
78
07
3c
e0
1e
33
33
1e
ENDCHAR
STARTCHAR ampersand
ENCODING 38
SWIDTH 600 0
DWIDTH 10 0
BBX 7 9 1 0
BITMAP
38
6c
60
30
76
de
cc
cc
7e
ENDCHAR
STARTCHAR apostrophe
ENCODING 39
SWIDTH 600 0
DWIDTH 10 0
BBX 3 5 3 6
BITMAP
60
60
60
c0
80
ENDCHAR
STARTCHAR parenleft
ENCODING 40
SWIDTH 600 0
DWIDTH 10 0
BBX 4 13 3 -2
BITMAP
30
60
60
60
c0
c0
c0
c0
c0
60
60
60
30
ENDCHAR
STARTCHAR parenright
ENCODING 41
SWIDTH 600 0
DWIDTH 10 0
BBX 4 13 2 -2
BITMAP
c0
60
60
60
30
30
30
30
30
60
60
60
c0
ENDCHAR
STARTCHAR asterisk
ENCODING 42
SWIDTH 600 0
DWIDTH 10 0
BBX 8 6 1 5
BITMAP
18
18
ff
3c
3c
66
ENDCHAR
STARTCHAR plus
ENCODING 43
SWIDTH 600 0
DWIDTH 10 0
BBX 8 8 1 1
BITMAP
18
18
18
ff
ff
18
18
18
ENDCHAR
STARTCHAR comma
ENCODING 44
SWIDTH 600 0
DWIDTH 10 0
BBX 3 5 3 -3
BITMAP
e0
e0
60
c0
80
ENDCHAR
STARTCHAR minus
ENCODING 45
SWIDTH 600 0
DWIDTH 10 0
BBX 8 2 1 4
BITMAP
ff
ff
ENDCHAR
STARTCHAR period
ENCODING 46
SWIDTH 600 0
DWIDTH 10 0
BBX 3 2 3 0
BITMAP
e0
e0
ENDCHAR
STARTCHAR slash
ENCODING 47
SWIDTH 600 0
DWIDTH 10 0
BBX 7 14 1 -2
BITMAP
06
06
0c
0c
0c
18
18
30
30
30
60
60
c0
c0
ENDCHAR
STARTCHAR zero
ENCODING 48
SWIDTH 600 0
DWIDTH 10 0
BBX 8 11 1 0
BITMAP
3c
66
66
c3
c3
c3
c3
c3
66
66
3c
ENDCHAR
STARTCHAR one
ENCODING 49
SWIDTH 600 0
DWIDTH 10 0
BBX 8 11 1 0
BITMAP
18
78
d8
18
18
18
18
18
18
18
ff
ENDCHAR
STARTCHAR two
ENCODING 50
SWIDTH 600 0
DWIDTH 10 0
BBX 7 11 1 0
BITMAP
78
cc
86
06
06
0c
18
30
60
c6
fe
ENDCHAR
STARTCHAR three
ENCODING 51
SWIDTH 600 0
DWIDTH 10 0
BBX 7 11 1 0
BITMAP
78
cc
86
0c
38
0c
06
06
86
cc
78
ENDCHAR
STARTCHAR four
ENCODING 52
SWIDTH 600 0
DWIDTH 10 0
BBX 8 11 1 0
BITMAP
06
0e
1e
36
66
46
c6
ff
06
06
1f
ENDCHAR
STARTCHAR five
ENCODING 53
SWIDTH 600 0
DWIDTH 10 0
BBX 7 11 1 0
BITMAP
fe
c0
c0
c0
fc
c6
06
06
06
cc
f8
ENDCHAR
STARTCHAR six
ENCODING 54
SWIDTH 600 0
DWIDTH 10 0
BBX 8 11 1 0
BITMAP
1e
70
60
c0
dc
e6
c3
c3
c3
66
3c
ENDCHAR
STARTCHAR seven
ENCODING 55
SWIDTH 600 0
DWIDTH 10 0
BBX 7 11 1 0
BITMAP
fe
c6
06
0c
0c
18
18
18
30
30
30
ENDCHAR
STARTCHAR eight
ENCODING 56
SWIDTH 600 0
DWIDTH 10 0
BBX 7 11 1 0
BITMAP
38
6c
c6
44
38
6c
c6
c6
c6
6c
38
ENDCHAR
STARTCHAR nine
ENCODING 57
SWIDTH 600 0
DWIDTH 10 0
BBX 8 11 1 0
BITMAP
3c
66
c3
c3
67
3b
03
03
06
0e
78
ENDCHAR
STARTCHAR colon
ENCODING 58
SWIDTH 600 0
DWIDTH 10 0
BBX 3 7 3 0
BITMAP
e0
e0
00
00
00
e0
e0
ENDCHAR
STARTCHAR semicolon
ENCODING 59
SWIDTH 600 0
DWIDTH 10 0
BBX 3 10 3 -3
BITMAP
e0
e0
00
00
00
e0
e0
60
c0
80
ENDCHAR
STARTCHAR less
ENCODING 60
SWIDTH 600 0
DWIDTH 10 0
BBX 9 9 1 0
BITMAP
0180
0780
1e00
7800
e000
7800
1e00
0780
0180
ENDCHAR
STARTCHAR equal
ENCODING 61
SWIDTH 600 0
DWIDTH 10 0
BBX 9 5 0 2
BITMAP
ff80
ff80
0000
ff80
ff80
ENDCHAR
STARTCHAR greater
ENCODING 62
SWIDTH 600 0
DWIDTH 10 0
BBX 9 9 0 0
BITMAP
c000
f000
3c00
0f00
0380
0f00
3c00
f000
c000
ENDCHAR
STARTCHAR question
ENCODING 63
SWIDTH 600 0
DWIDTH 10 0
BBX 7 10 1 0
BITMAP
7c
c6
c6
06
1c
30
30
00
30
30
ENDCHAR
STARTCHAR at
ENCODING 64
SWIDTH 600 0
DWIDTH 10 0
BBX 9 12 0 -1
BITMAP
3e00
6300
c180
dd80
b280
b280
b280
b280
df00
c000
6300
3e00
ENDCHAR
STARTCHAR A
ENCODING 65
SWIDTH 600 0
DWIDTH 10 0
BBX 10 10 0 0
BITMAP
3c00
0c00
1e00
1200
3300
3300
3f00
6180
6180
f3c0
ENDCHAR
STARTCHAR B
ENCODING 66
SWIDTH 600 0
DWIDTH 10 0
BBX 9 10 0 0
BITMAP
fe00
6300
6180
6300
7e00
6300
6180
6180
6300
fe00
ENDCHAR
STARTCHAR C
ENCODING 67
SWIDTH 600 0
DWIDTH 10 0
BBX 9 10 0 0
BITMAP
1e80
7380
6180
c000
c000
c000
c000
6180
7380
1e00
ENDCHAR
STARTCHAR D
ENCODING 68
SWIDTH 600 0
DWIDTH 10 0
BBX 9 10 0 0
BITMAP
fc00
6700
6300
6180
6180
6180
6180
6300
6700
fc00
ENDCHAR
STARTCHAR E
ENCODING 69
SWIDTH 600 0
DWIDTH 10 0
BBX 8 10 1 0
BITMAP
ff
63
60
64
7c
64
60
63
63
ff
ENDCHAR
STARTCHAR F
ENCODING 70
SWIDTH 600 0
DWIDTH 10 0
BBX 8 10 1 0
BITMAP
ff
63
60
64
7c
64
60
60
60
f8
ENDCHAR
STARTCHAR G
ENCODING 71
SWIDTH 600 0
DWIDTH 10 0
BBX 10 10 0 0
BITMAP
1e80
7380
6180
c000
c000
c7c0
c180
6180
7180
1f00
ENDCHAR
STARTCHAR H
ENCODING 72
SWIDTH 600 0
DWIDTH 10 0
BBX 9 10 0 0
BITMAP
f780
6300
6300
6300
7f00
6300
6300
6300
6300
f780
ENDCHAR
STARTCHAR I
ENCODING 73
SWIDTH 600 0
DWIDTH 10 0
BBX 8 10 1 0
BITMAP
ff
18
18
18
18
18
18
18
18
ff
ENDCHAR
STARTCHAR J
ENCODING 74
SWIDTH 600 0
DWIDTH 10 0
BBX 9 10 0 0
BITMAP
3f80
0600
0600
0600
0600
0600
c600
c600
c600
7c00
ENDCHAR
STARTCHAR K
ENCODING 75
SWIDTH 600 0
DWIDTH 10 0
BBX 9 10 0 0
BITMAP
f780
6300
6600
6c00
7800
7c00
6600
6600
6300
fb80
ENDCHAR
STARTCHAR L
ENCODING 76
SWIDTH 600 0
DWIDTH 10 0
BBX 9 10 0 0
BITMAP
fc00
3000
3000
3000
3000
3000
3180
3180
3180
ff80
ENDCHAR
STARTCHAR M
ENCODING 77
SWIDTH 600 0
DWIDTH 10 0
BBX 10 10 0 0
BITMAP
e1c0
6180
7380
7380
7f80
6d80
6d80
6180
6180
f3c0
ENDCHAR
STARTCHAR N
ENCODING 78
SWIDTH 600 0
DWIDTH 10 0
BBX 10 10 0 0
BITMAP
f7c0
7180
7980
6980
6d80
6d80
6580
6780
6380
fb80
ENDCHAR
STARTCHAR O
ENCODING 79
SWIDTH 600 0
DWIDTH 10 0
BBX 9 10 0 0
BITMAP
3e00
6300
6300
c180
c180
c180
c180
6300
6300
3e00
ENDCHAR
STARTCHAR P
ENCODING 80
SWIDTH 600 0
DWIDTH 10 0
BBX 9 10 0 0
BITMAP
fe00
6300
6180
6180
6300
7e00
6000
6000
6000
fc00
ENDCHAR
STARTCHAR Q
ENCODING 81
SWIDTH 600 0
DWIDTH 10 0
BBX 9 12 0 -2
BITMAP
3e00
6300
6300
c180
c180
c180
c180
6300
6300
3e00
1980
3f00
ENDCHAR
STARTCHAR R
ENCODING 82
SWIDTH 600 0
DWIDTH 10 0
BBX 9 10 0 0
BITMAP
fc00
6600
6300
6300
6600
7c00
6600
6300
6300
fb80
ENDCHAR
STARTCHAR S
ENCODING 83
SWIDTH 600 0
DWIDTH 10 0
BBX 8 10 1 0
BITMAP
3d
67
c3
e0
78
1e
07
c3
e6
bc
ENDCHAR
STARTCHAR T
ENCODING 84
SWIDTH 600 0
DWIDTH 10 0
BBX 8 10 1 0
BITMAP
ff
99
99
99
18
18
18
18
18
7e
ENDCHAR
STARTCHAR U
ENCODING 85
SWIDTH 600 0
DWIDTH 10 0
BBX 10 10 0 0
BITMAP
f3c0
6180
6180
6180
6180
6180
6180
6180
3300
1e00
ENDCHAR
STARTCHAR V
ENCODING 86
SWIDTH 600 0
DWIDTH 10 0
BBX 10 10 0 0
BITMAP
f3c0
6180
6180
3300
3300
3300
1e00
1e00
0c00
0c00
ENDCHAR
STARTCHAR W
ENCODING 87
SWIDTH 600 0
DWIDTH 10 0
BBX 10 10 0 0
BITMAP
f3c0
6180
6d80
6d80
6d80
3f00
3300
3300
3300
3300
ENDCHAR
STARTCHAR X
ENCODING 88
SWIDTH 600 0
DWIDTH 10 0
BBX 10 10 0 0
BITMAP
f3c0
6180
3300
1e00
0c00
0c00
1e00
3300
6180
f3c0
ENDCHAR
STARTCHAR Y
ENCODING 89
SWIDTH 600 0
DWIDTH 10 0
BBX 10 10 0 0
BITMAP
f3c0
6180
3300
3300
1e00
0c00
0c00
0c00
0c00
3f00
ENDCHAR
STARTCHAR Z
ENCODING 90
SWIDTH 600 0
DWIDTH 10 0
BBX 7 10 1 0
BITMAP
fe
c6
cc
1c
18
30
70
66
c6
fe
ENDCHAR
STARTCHAR bracketleft
ENCODING 91
SWIDTH 600 0
DWIDTH 10 0
BBX 4 13 3 -2
BITMAP
f0
c0
c0
c0
c0
c0
c0
c0
c0
c0
c0
c0
f0
ENDCHAR
STARTCHAR backslash
ENCODING 92
SWIDTH 600 0
DWIDTH 10 0
BBX 7 14 1 -2
BITMAP
c0
c0
60
60
60
30
30
38
18
18
0c
0c
06
06
ENDCHAR
STARTCHAR bracketright
ENCODING 93
SWIDTH 600 0
DWIDTH 10 0
BBX 4 13 2 -2
BITMAP
f0
30
30
30
30
30
30
30
30
30
30
30
f0
ENDCHAR
STARTCHAR asciicircum
ENCODING 94
SWIDTH 600 0
DWIDTH 10 0
BBX 8 4 1 7
BITMAP
18
3c
66
c3
ENDCHAR
STARTCHAR underscore
ENCODING 95
SWIDTH 600 0
DWIDTH 10 0
BBX 10 2 0 -3
BITMAP
ffc0
ffc0
ENDCHAR
STARTCHAR grave
ENCODING 96
SWIDTH 600 0
DWIDTH 10 0
BBX 4 3 2 8
BITMAP
c0
60
30
ENDCHAR
STARTCHAR a
ENCODING 97
SWIDTH 600 0
DWIDTH 10 0
BBX 8 7 1 0
BITMAP
3c
66
06
7e
c6
c6
7b
ENDCHAR
STARTCHAR b
ENCODING 98
SWIDTH 600 0
DWIDTH 10 0
BBX 9 11 0 0
BITMAP
e000
6000
6000
6000
6e00
7300
6180
6180
6180
7300
ee00
ENDCHAR
STARTCHAR c
ENCODING 99
SWIDTH 600 0
DWIDTH 10 0
BBX 8 7 0 0
BITMAP
3d
67
c3
c0
c0
63
3e
ENDCHAR
STARTCHAR d
ENCODING 100
SWIDTH 600 0
DWIDTH 10 0
BBX 9 11 0 0
BITMAP
0700
0300
0300
0300
3b00
6700
c300
c300
c300
6700
3b80
ENDCHAR
STARTCHAR e
ENCODING 101
SWIDTH 600 0
DWIDTH 10 0
BBX 8 7 1 0
BITMAP
3c
66
c3
ff
c0
63
3e
ENDCHAR
STARTCHAR f
ENCODING 102
SWIDTH 600 0
DWIDTH 10 0
BBX 8 11 1 0
BITMAP
1e
33
30
30
fe
30
30
30
30
30
fe
ENDCHAR
STARTCHAR g
ENCODING 103
SWIDTH 600 0
DWIDTH 10 0
BBX 9 10 0 -3
BITMAP
3b80
6700
c300
c300
c300
6700
3b00
0300
0300
3e00
ENDCHAR
STARTCHAR h
ENCODING 104
SWIDTH 600 0
DWIDTH 10 0
BBX 9 11 0 0
BITMAP
e000
6000
6000
6000
6e00
7300
6300
6300
6300
6300
f780
ENDCHAR
STARTCHAR i
ENCODING 105
SWIDTH 600 0
DWIDTH 10 0
BBX 8 10 1 0
BITMAP
18
18
00
78
18
18
18
18
18
ff
ENDCHAR
STARTCHAR j
ENCODING 106
SWIDTH 600 0
DWIDTH 10 0
BBX 6 13 1 -3
BITMAP
18
18
00
fc
0c
0c
0c
0c
0c
0c
0c
0c
f8
ENDCHAR
STARTCHAR k
ENCODING 107
SWIDTH 600 0
DWIDTH 10 0
BBX 9 11 0 0
BITMAP
e000
6000
6000
6000
6f80
6600
6c00
7800
6c00
6600
ef80
ENDCHAR
STARTCHAR l
ENCODING 108
SWIDTH 600 0
DWIDTH 10 0
BBX 8 11 1 0
BITMAP
78
18
18
18
18
18
18
18
18
18
ff
ENDCHAR
STARTCHAR m
ENCODING 109
SWIDTH 600 0
DWIDTH 10 0
BBX 10 7 0 0
BITMAP
ed80
7f80
6d80
6d80
6d80
6d80
edc0
ENDCHAR
STARTCHAR n
ENCODING 110
SWIDTH 600 0
DWIDTH 10 0
BBX 9 7 0 0
BITMAP
ee00
7300
6300
6300
6300
6300
f780
ENDCHAR
STARTCHAR o
ENCODING 111
SWIDTH 600 0
DWIDTH 10 0
BBX 8 7 1 0
BITMAP
3c
66
c3
c3
c3
66
3c
ENDCHAR
STARTCHAR p
ENCODING 112
SWIDTH 600 0
DWIDTH 10 0
BBX 9 10 0 -3
BITMAP
ee00
7300
6180
6180
6180
7300
6e00
6000
6000
f800
ENDCHAR
STARTCHAR q
ENCODING 113
SWIDTH 600 0
DWIDTH 10 0
BBX 9 10 0 -3
BITMAP
3b80
6700
c300
c300
c300
6700
3b00
0300
0300
0f80
ENDCHAR
STARTCHAR r
ENCODING 114
SWIDTH 600 0
DWIDTH 10 0
BBX 9 7 0 0
BITMAP
f700
3980
3000
3000
3000
3000
fe00
ENDCHAR
STARTCHAR s
ENCODING 115
SWIDTH 600 0
DWIDTH 10 0
BBX 7 7 1 0
BITMAP
7e
c6
e0
7c
0e
c6
fc
ENDCHAR
STARTCHAR t
ENCODING 116
SWIDTH 600 0
DWIDTH 10 0
BBX 9 9 0 0
BITMAP
3000
3000
ff00
3000
3000
3000
3000
3180
1f00
ENDCHAR
STARTCHAR u
ENCODING 117
SWIDTH 600 0
DWIDTH 10 0
BBX 9 7 0 0
BITMAP
e700
6300
6300
6300
6300
6700
3b80
ENDCHAR
STARTCHAR v
ENCODING 118
SWIDTH 600 0
DWIDTH 10 0
BBX 10 7 0 0
BITMAP
f3c0
6180
3300
3300
1e00
1e00
0c00
ENDCHAR
STARTCHAR w
ENCODING 119
SWIDTH 600 0
DWIDTH 10 0
BBX 10 7 0 0
BITMAP
f3c0
6180
6d80
2d00
3f00
3300
3300
ENDCHAR
STARTCHAR x
ENCODING 120
SWIDTH 600 0
DWIDTH 10 0
BBX 8 7 1 0
BITMAP
e7
66
3c
18
3c
66
e7
ENDCHAR
STARTCHAR y
ENCODING 121
SWIDTH 600 0
DWIDTH 10 0
BBX 10 10 0 -3
BITMAP
f3c0
6180
3300
3300
1e00
1e00
0c00
1800
1800
7c00
ENDCHAR
STARTCHAR z
ENCODING 122
SWIDTH 600 0
DWIDTH 10 0
BBX 7 7 1 0
BITMAP
fe
cc
18
30
60
c6
fe
ENDCHAR
STARTCHAR braceleft
ENCODING 123
SWIDTH 600 0
DWIDTH 10 0
BBX 4 13 3 -2
BITMAP
30
60
60
60
60
40
c0
60
60
60
60
60
30
ENDCHAR
STARTCHAR bar
ENCODING 124
SWIDTH 600 0
DWIDTH 10 0
BBX 2 13 4 -2
BITMAP
c0
c0
c0
c0
c0
c0
c0
c0
c0
c0
c0
c0
c0
ENDCHAR
STARTCHAR braceright
ENCODING 125
SWIDTH 600 0
DWIDTH 10 0
BBX 4 13 3 -2
BITMAP
c0
60
60
60
60
20
30
60
60
60
60
60
c0
ENDCHAR
STARTCHAR asciitilde
ENCODING 126
SWIDTH 600 0
DWIDTH 10 0
BBX 8 3 1 3
BITMAP
70
db
0e
ENDCHAR
STARTCHAR nobreakspace
ENCODING 160
SWIDTH 600 0
DWIDTH 10 0
BBX 1 1 0 0
BITMAP
00
ENDCHAR
STARTCHAR Aogonek
ENCODING 161
SWIDTH 600 0
DWIDTH 10 0
BBX 10 13 0 -3
BITMAP
3c00
0c00
1e00
1200
3300
3300
3f00
6180
6180
f3c0
0c00
1800
0e00
ENDCHAR
STARTCHAR breve
ENCODING 162
SWIDTH 600 0
DWIDTH 10 0
BBX 6 3 2 8
BITMAP
cc
cc
78
ENDCHAR
STARTCHAR Lstroke
ENCODING 163
SWIDTH 600 0
DWIDTH 10 0
BBX 9 10 0 0
BITMAP
fc00
3000
3400
3c00
3800
7000
f180
b180
3180
ff80
ENDCHAR
STARTCHAR currency
ENCODING 164
SWIDTH 600 0
DWIDTH 10 0
BBX 8 7 1 1
BITMAP
c3
7e
66
42
66
7e
c3
ENDCHAR
STARTCHAR Lcaron
ENCODING 165
SWIDTH 660 0
DWIDTH 11 0
BBX 10 11 0 0
BITMAP
00c0
fcc0
30c0
3180
3100
3000
3000
3180
3180
3180
ff80
ENDCHAR
STARTCHAR Sacute
ENCODING 166
SWIDTH 600 0
DWIDTH 10 0
BBX 8 14 1 0
BITMAP
03
06
0c
00
3d
67
c3
e0
78
1e
07
c3
e6
bc
ENDCHAR
STARTCHAR section
ENCODING 167
SWIDTH 600 0
DWIDTH 10 0
BBX 10 12 0 -1
BITMAP
1f80
3180
3180
7800
ce00
c380
70c0
1cc0
0780
6300
6300
7e00
ENDCHAR
STARTCHAR diaeresis
ENCODING 168
SWIDTH 600 0
DWIDTH 10 0
BBX 5 2 3 8
BITMAP
d8
d8
ENDCHAR
STARTCHAR Scaron
ENCODING 169
SWIDTH 600 0
DWIDTH 10 0
BBX 8 14 1 0
BITMAP
33
1e
0c
00
3d
67
c3
e0
78
1e
07
c3
e6
bc
ENDCHAR
STARTCHAR Scedilla
ENCODING 170
SWIDTH 600 0
DWIDTH 10 0
BBX 8 14 1 -4
BITMAP
3d
67
c3
e0
78
1e
07
c3
e6
bc
08
18
0c
3c
ENDCHAR
STARTCHAR Tcaron
ENCODING 171
SWIDTH 600 0
DWIDTH 10 0
BBX 8 14 1 0
BITMAP
66
3c
18
00
ff
99
99
99
18
18
18
18
18
7e
ENDCHAR
STARTCHAR Zacute
ENCODING 172
SWIDTH 600 0
DWIDTH 10 0
BBX 7 14 1 0
BITMAP
06
0c
18
00
fe
c6
cc
1c
18
30
70
66
c6
fe
ENDCHAR
STARTCHAR hyphen
ENCODING 173
SWIDTH 600 0
DWIDTH 10 0
BBX 7 2 1 4
BITMAP
fe
fe
ENDCHAR
STARTCHAR Zcaron
ENCODING 174
SWIDTH 600 0
DWIDTH 10 0
BBX 7 14 1 0
BITMAP
66
3c
18
00
fe
c6
cc
1c
18
30
70
66
c6
fe
ENDCHAR
STARTCHAR Zabovedot
ENCODING 175
SWIDTH 600 0
DWIDTH 10 0
BBX 7 13 1 0
BITMAP
18
18
00
fe
c6
cc
1c
18
30
70
66
c6
fe
ENDCHAR
STARTCHAR degree
ENCODING 176
SWIDTH 600 0
DWIDTH 10 0
BBX 5 5 2 6
BITMAP
70
d8
88
d8
70
ENDCHAR
STARTCHAR aogonek
ENCODING 177
SWIDTH 600 0
DWIDTH 10 0
BBX 8 10 1 -3
BITMAP
3c
66
06
7e
c6
c6
7b
18
30
1c
ENDCHAR
STARTCHAR ogonek
ENCODING 178
SWIDTH 600 0
DWIDTH 10 0
BBX 4 3 3 -3
BITMAP
60
c0
70
ENDCHAR
STARTCHAR lstroke
ENCODING 179
SWIDTH 600 0
DWIDTH 10 0
BBX 8 10 1 0
BITMAP
78
18
1a
1e
3c
78
58
18
18
ff
ENDCHAR
STARTCHAR acute
ENCODING 180
SWIDTH 600 0
DWIDTH 10 0
BBX 4 3 3 8
BITMAP
30
60
c0
ENDCHAR
STARTCHAR lcaron
ENCODING 181
SWIDTH 660 0
DWIDTH 11 0
BBX 9 12 1 0
BITMAP
0180
7980
1980
1b00
1a00
1800
1800
1800
1800
1800
1800
ff00
ENDCHAR
STARTCHAR sacute
ENCODING 182
SWIDTH 600 0
DWIDTH 10 0
BBX 7 11 1 0
BITMAP
06
0c
18
00
7e
c6
e0
7c
0e
c6
fc
ENDCHAR
STARTCHAR caron
ENCODING 183
SWIDTH 600 0
DWIDTH 10 0
BBX 6 3 2 8
BITMAP
cc
78
30
ENDCHAR
STARTCHAR cedilla
ENCODING 184
SWIDTH 600 0
DWIDTH 10 0
BBX 4 4 3 -3
BITMAP
20
60
30
f0
ENDCHAR
STARTCHAR scaron
ENCODING 185
SWIDTH 600 0
DWIDTH 10 0
BBX 7 11 1 0
BITMAP
66
3c
18
00
7e
c6
e0
7c
0e
c6
fc
ENDCHAR
STARTCHAR scedilla
ENCODING 186
SWIDTH 600 0
DWIDTH 10 0
BBX 7 11 1 -4
BITMAP
7e
c6
e0
7c
0e
c6
fc
08
18
0c
3c
ENDCHAR
STARTCHAR tcaron
ENCODING 187
SWIDTH 600 0
DWIDTH 10 0
BBX 9 13 0 0
BITMAP
0300
0300
0300
0600
3400
3000
ff00
3000
3000
3000
3000
3180
1f00
ENDCHAR
STARTCHAR zacute
ENCODING 188
SWIDTH 600 0
DWIDTH 10 0
BBX 7 11 1 0
BITMAP
06
0c
18
00
fe
cc
18
30
60
c6
fe
ENDCHAR
STARTCHAR doubleacute
ENCODING 189
SWIDTH 600 0
DWIDTH 10 0
BBX 8 3 1 8
BITMAP
33
66
cc
ENDCHAR
STARTCHAR zcaron
ENCODING 190
SWIDTH 600 0
DWIDTH 10 0
BBX 7 11 1 0
BITMAP
66
3c
18
00
fe
cc
18
30
60
c6
fe
ENDCHAR
STARTCHAR zabovedot
ENCODING 191
SWIDTH 600 0
DWIDTH 10 0
BBX 7 10 1 0
BITMAP
18
18
00
fe
cc
18
30
60
c6
fe
ENDCHAR
STARTCHAR Racute
ENCODING 192
SWIDTH 600 0
DWIDTH 10 0
BBX 9 14 0 0
BITMAP
0600
0c00
1800
0000
fc00
6600
6300
6300
6600
7c00
6600
6300
6300
fb80
ENDCHAR
STARTCHAR Aacute
ENCODING 193
SWIDTH 600 0
DWIDTH 10 0
BBX 10 14 0 0
BITMAP
0600
0c00
1800
0000
3c00
0c00
1e00
1200
3300
3300
3f00
6180
6180
f3c0
ENDCHAR
STARTCHAR Acircumflex
ENCODING 194
SWIDTH 600 0
DWIDTH 10 0
BBX 10 14 0 0
BITMAP
0c00
1e00
3300
0000
3c00
0c00
1e00
1200
3300
3300
3f00
6180
6180
f3c0
ENDCHAR
STARTCHAR Abreve
ENCODING 195
SWIDTH 600 0
DWIDTH 10 0
BBX 10 14 0 0
BITMAP
6600
6600
3c00
0000
3c00
0c00
1e00
1200
3300
3300
3f00
6180
6180
f3c0
ENDCHAR
STARTCHAR Adiaeresis
ENCODING 196
SWIDTH 600 0
DWIDTH 10 0
BBX 10 13 0 0
BITMAP
3600
3600
0000
3c00
0c00
1e00
1200
3300
3300
3f00
6180
6180
f3c0
ENDCHAR
STARTCHAR Lacute
ENCODING 197
SWIDTH 600 0
DWIDTH 10 0
BBX 9 14 0 0
BITMAP
0c00
1800
3000
0000
fc00
3000
3000
3000
3000
3000
3180
3180
3180
ff80
ENDCHAR
STARTCHAR Cacute
ENCODING 198
SWIDTH 600 0
DWIDTH 10 0
BBX 9 14 0 0
BITMAP
0300
0600
0c00
0000
1e80
7380
6180
c000
c000
c000
c000
6180
7380
1e00
ENDCHAR
STARTCHAR Ccedilla
ENCODING 199
SWIDTH 600 0
DWIDTH 10 0
BBX 9 13 0 -3
BITMAP
1e80
7380
6180
c000
c000
c000
c000
6180
7380
1e00
1800
0c00
3c00
ENDCHAR
STARTCHAR Ccaron
ENCODING 200
SWIDTH 600 0
DWIDTH 10 0
BBX 9 14 0 0
BITMAP
3300
1e00
0c00
0000
1e80
7380
6180
c000
c000
c000
c000
6180
7380
1e00
ENDCHAR
STARTCHAR Eacute
ENCODING 201
SWIDTH 600 0
DWIDTH 10 0
BBX 8 14 1 0
BITMAP
06
0c
18
00
ff
63
60
64
7c
64
60
63
63
ff
ENDCHAR
STARTCHAR Eogonek
ENCODING 202
SWIDTH 600 0
DWIDTH 10 0
BBX 8 13 1 -3
BITMAP
ff
63
60
64
7c
64
60
63
63
ff
18
30
1c
ENDCHAR
STARTCHAR Ediaeresis
ENCODING 203
SWIDTH 600 0
DWIDTH 10 0
BBX 8 13 1 0
BITMAP
36
36
00
ff
63
60
64
7c
64
60
63
63
ff
ENDCHAR
STARTCHAR Ecaron
ENCODING 204
SWIDTH 600 0
DWIDTH 10 0
BBX 8 14 1 0
BITMAP
66
3c
18
00
ff
63
60
64
7c
64
60
63
63
ff
ENDCHAR
STARTCHAR Iacute
ENCODING 205
SWIDTH 600 0
DWIDTH 10 0
BBX 8 14 1 0
BITMAP
0c
18
30
00
ff
18
18
18
18
18
18
18
18
ff
ENDCHAR
STARTCHAR Icircumflex
ENCODING 206
SWIDTH 600 0
DWIDTH 10 0
BBX 8 14 1 0
BITMAP
18
3c
66
00
ff
18
18
18
18
18
18
18
18
ff
ENDCHAR
STARTCHAR Dcaron
ENCODING 207
SWIDTH 600 0
DWIDTH 10 0
BBX 9 14 0 0
BITMAP
6600
3c00
1800
0000
fc00
6700
6300
6180
6180
6180
6180
6300
6700
fc00
ENDCHAR
STARTCHAR Dstroke
ENCODING 208
SWIDTH 600 0
DWIDTH 10 0
BBX 9 10 0 0
BITMAP
fc00
6700
6300
6180
f980
6180
6180
6300
6700
fc00
ENDCHAR
STARTCHAR Nacute
ENCODING 209
SWIDTH 600 0
DWIDTH 10 0
BBX 10 14 0 0
BITMAP
0300
0600
0c00
0000
f7c0
7180
7980
6980
6d80
6d80
6580
6780
6380
fb80
ENDCHAR
STARTCHAR Ncaron
ENCODING 210
SWIDTH 600 0
DWIDTH 10 0
BBX 10 14 0 0
BITMAP
3300
1e00
0c00
0000
f7c0
7180
7980
6980
6d80
6d80
6580
6780
6380
fb80
ENDCHAR
STARTCHAR Oacute
ENCODING 211
SWIDTH 600 0
DWIDTH 10 0
BBX 9 14 0 0
BITMAP
0600
0c00
1800
0000
3e00
6300
6300
c180
c180
c180
c180
6300
6300
3e00
ENDCHAR
STARTCHAR Ocircumflex
ENCODING 212
SWIDTH 600 0
DWIDTH 10 0
BBX 9 14 0 0
BITMAP
0c00
1e00
3300
0000
3e00
6300
6300
c180
c180
c180
c180
6300
6300
3e00
ENDCHAR
STARTCHAR Odoubleacute
ENCODING 213
SWIDTH 600 0
DWIDTH 10 0
BBX 10 14 0 0
BITMAP
0cc0
1980
3300
0000
3e00
6300
6300
c180
c180
c180
c180
6300
6300
3e00
ENDCHAR
STARTCHAR Odiaeresis
ENCODING 214
SWIDTH 600 0
DWIDTH 10 0
BBX 9 13 0 0
BITMAP
3600
3600
0000
3e00
6300
6300
c180
c180
c180
c180
6300
6300
3e00
ENDCHAR
STARTCHAR multiply
ENCODING 215
SWIDTH 600 0
DWIDTH 10 0
BBX 8 7 1 1
BITMAP
e3
76
3c
18
3c
6e
c7
ENDCHAR
STARTCHAR Rcaron
ENCODING 216
SWIDTH 600 0
DWIDTH 10 0
BBX 9 14 0 0
BITMAP
6600
3c00
1800
0000
fc00
6600
6300
6300
6600
7c00
6600
6300
6300
fb80
ENDCHAR
STARTCHAR Uring
ENCODING 217
SWIDTH 600 0
DWIDTH 10 0
BBX 10 15 0 0
BITMAP
1c00
3600
3600
1c00
0000
f3c0
6180
6180
6180
6180
6180
6180
6180
3300
1e00
ENDCHAR
STARTCHAR Uacute
ENCODING 218
SWIDTH 600 0
DWIDTH 10 0
BBX 10 14 0 0
BITMAP
0300
0600
0c00
0000
f3c0
6180
6180
6180
6180
6180
6180
6180
3300
1e00
ENDCHAR
STARTCHAR Udoubleacute
ENCODING 219
SWIDTH 600 0
DWIDTH 10 0
BBX 10 14 0 0
BITMAP
0cc0
1980
3300
0000
f3c0
6180
6180
6180
6180
6180
6180
6180
3300
1e00
ENDCHAR
STARTCHAR Udiaeresis
ENCODING 220
SWIDTH 600 0
DWIDTH 10 0
BBX 10 13 0 0
BITMAP
1b00
1b00
0000
f3c0
6180
6180
6180
6180
6180
6180
6180
3300
1e00
ENDCHAR
STARTCHAR Yacute
ENCODING 221
SWIDTH 600 0
DWIDTH 10 0
BBX 10 14 0 0
BITMAP
0300
0600
0c00
0000
f3c0
6180
3300
3300
1e00
0c00
0c00
0c00
0c00
3f00
ENDCHAR
STARTCHAR Tcedilla
ENCODING 222
SWIDTH 600 0
DWIDTH 10 0
BBX 8 14 1 -4
BITMAP
ff
99
99
99
18
18
18
18
18
7e
08
18
0c
3c
ENDCHAR
STARTCHAR ssharp
ENCODING 223
SWIDTH 600 0
DWIDTH 10 0
BBX 8 11 0 0
BITMAP
3c
66
66
64
6c
66
63
63
63
7a
ec
ENDCHAR
STARTCHAR racute
ENCODING 224
SWIDTH 600 0
DWIDTH 10 0
BBX 9 11 0 0
BITMAP
0300
0600
0c00
0000
f700
3980
3000
3000
3000
3000
fe00
ENDCHAR
STARTCHAR aacute
ENCODING 225
SWIDTH 600 0
DWIDTH 10 0
BBX 8 11 1 0
BITMAP
06
0c
18
00
3c
66
06
7e
c6
c6
7b
ENDCHAR
STARTCHAR acircumflex
ENCODING 226
SWIDTH 600 0
DWIDTH 10 0
BBX 8 11 1 0
BITMAP
18
3c
66
00
3c
66
06
7e
c6
c6
7b
ENDCHAR
STARTCHAR abreve
ENCODING 227
SWIDTH 600 0
DWIDTH 10 0
BBX 8 11 1 0
BITMAP
66
66
3c
00
3c
66
06
7e
c6
c6
7b
ENDCHAR
STARTCHAR adiaeresis
ENCODING 228
SWIDTH 600 0
DWIDTH 10 0
BBX 8 10 1 0
BITMAP
36
36
00
3c
66
06
7e
c6
c6
7b
ENDCHAR
STARTCHAR lacute
ENCODING 229
SWIDTH 600 0
DWIDTH 10 0
BBX 8 15 1 0
BITMAP
0c
18
30
00
78
18
18
18
18
18
18
18
18
18
ff
ENDCHAR
STARTCHAR cacute
ENCODING 230
SWIDTH 600 0
DWIDTH 10 0
BBX 8 11 0 0
BITMAP
03
06
0c
00
3d
67
c3
c0
c0
63
3e
ENDCHAR
STARTCHAR ccedilla
ENCODING 231
SWIDTH 600 0
DWIDTH 10 0
BBX 8 10 1 -3
BITMAP
3d
67
c3
c0
c0
e3
7e
18
0c
3c
ENDCHAR
STARTCHAR ccaron
ENCODING 232
SWIDTH 600 0
DWIDTH 10 0
BBX 8 11 0 0
BITMAP
33
1e
0c
00
3d
67
c3
c0
c0
63
3e
ENDCHAR
STARTCHAR eacute
ENCODING 233
SWIDTH 600 0
DWIDTH 10 0
BBX 8 11 1 0
BITMAP
06
0c
18
00
3c
66
c3
ff
c0
63
3e
ENDCHAR
STARTCHAR eogonek
ENCODING 234
SWIDTH 600 0
DWIDTH 10 0
BBX 8 10 1 -3
BITMAP
3c
66
c3
ff
c0
63
3e
18
30
1c
ENDCHAR
STARTCHAR ediaeresis
ENCODING 235
SWIDTH 600 0
DWIDTH 10 0
BBX 8 10 1 0
BITMAP
36
36
00
3c
66
c3
ff
c0
63
3e
ENDCHAR
STARTCHAR ecaron
ENCODING 236
SWIDTH 600 0
DWIDTH 10 0
BBX 8 11 1 0
BITMAP
66
3c
18
00
3c
66
c3
ff
c0
63
3e
ENDCHAR
STARTCHAR iacute
ENCODING 237
SWIDTH 600 0
DWIDTH 10 0
BBX 8 11 1 0
BITMAP
06
0c
18
00
78
18
18
18
18
18
ff
ENDCHAR
STARTCHAR icircumflex
ENCODING 238
SWIDTH 600 0
DWIDTH 10 0
BBX 8 11 1 0
BITMAP
18
3c
66
00
78
18
18
18
18
18
ff
ENDCHAR
STARTCHAR dcaron
ENCODING 239
SWIDTH 780 0
DWIDTH 13 0
BBX 12 12 0 0
BITMAP
0030
0730
0330
0360
0340
3b00
6700
c300
c300
c300
6700
3b80
ENDCHAR
STARTCHAR dstroke
ENCODING 240
SWIDTH 720 0
DWIDTH 12 0
BBX 11 11 0 0
BITMAP
0700
0300
1fe0
0300
3b00
6700
c300
c300
c300
6700
3b80
ENDCHAR
STARTCHAR nacute
ENCODING 241
SWIDTH 600 0
DWIDTH 10 0
BBX 9 11 0 0
BITMAP
0600
0c00
1800
0000
ee00
7300
6300
6300
6300
6300
f780
ENDCHAR
STARTCHAR ncaron
ENCODING 242
SWIDTH 600 0
DWIDTH 10 0
BBX 9 11 0 0
BITMAP
6600
3c00
1800
0000
ee00
7300
6300
6300
6300
6300
f780
ENDCHAR
STARTCHAR oacute
ENCODING 243
SWIDTH 600 0
DWIDTH 10 0
BBX 8 11 1 0
BITMAP
0c
18
30
00
3c
66
c3
c3
c3
66
3c
ENDCHAR
STARTCHAR ocircumflex
ENCODING 244
SWIDTH 600 0
DWIDTH 10 0
BBX 8 11 1 0
BITMAP
18
3c
66
00
3c
66
c3
c3
c3
66
3c
ENDCHAR
STARTCHAR odoubleacute
ENCODING 245
SWIDTH 600 0
DWIDTH 10 0
BBX 9 11 1 0
BITMAP
1980
3300
6600
0000
3c00
6600
c300
c300
c300
6600
3c00
ENDCHAR
STARTCHAR odiaeresis
ENCODING 246
SWIDTH 600 0
DWIDTH 10 0
BBX 8 10 1 0
BITMAP
6c
6c
00
3c
66
c3
c3
c3
66
3c
ENDCHAR
STARTCHAR division
ENCODING 247
SWIDTH 600 0
DWIDTH 10 0
BBX 8 8 1 1
BITMAP
18
18
00
ff
ff
00
18
18
ENDCHAR
STARTCHAR rcaron
ENCODING 248
SWIDTH 600 0
DWIDTH 10 0
BBX 9 11 0 0
BITMAP
3300
1e00
0c00
0000
f700
3980
3000
3000
3000
3000
fe00
ENDCHAR
STARTCHAR uring
ENCODING 249
SWIDTH 600 0
DWIDTH 10 0
BBX 9 12 0 0
BITMAP
3800
6c00
6c00
3800
0000
e700
6300
6300
6300
6300
6700
3b80
ENDCHAR
STARTCHAR uacute
ENCODING 250
SWIDTH 600 0
DWIDTH 10 0
BBX 9 11 0 0
BITMAP
0c00
1800
3000
0000
e700
6300
6300
6300
6300
6700
3b80
ENDCHAR
STARTCHAR udoubleacute
ENCODING 251
SWIDTH 600 0
DWIDTH 10 0
BBX 9 11 0 0
BITMAP
1980
3300
6600
0000
e700
6300
6300
6300
6300
6700
3b80
ENDCHAR
STARTCHAR udiaeresis
ENCODING 252
SWIDTH 600 0
DWIDTH 10 0
BBX 9 10 0 0
BITMAP
3600
3600
0000
e700
6300
6300
6300
6300
6700
3b80
ENDCHAR
STARTCHAR yacute
ENCODING 253
SWIDTH 600 0
DWIDTH 10 0
BBX 10 14 0 -3
BITMAP
0600
0c00
1800
0000
f3c0
6180
3300
3300
1e00
1e00
0c00
1800
1800
7c00
ENDCHAR
STARTCHAR tcedilla
ENCODING 254
SWIDTH 600 0
DWIDTH 10 0
BBX 9 13 0 -4
BITMAP
3000
3000
ff00
3000
3000
3000
3000
3180
1f00
0400
0c00
0600
1e00
ENDCHAR
STARTCHAR abovedot
ENCODING 255
SWIDTH 600 0
DWIDTH 10 0
BBX 2 2 4 8
BITMAP
c0
c0
ENDCHAR
ENDFONT
