STARTFONT 2.1
FONT -Adobe-Courier-Bold-R-Normal--34-240-100-100-M-200-ISO8859-2
SIZE 24 100 100
FONTBOUNDINGBOX 22 33 -1 -7
COMMENT $XConsortium: courB24.bdf,v 1.11 95/01/26 17:52:23 gildea Exp $
COMMENT 
COMMENT +
COMMENT  Copyright 1984-1989, 1994 Adobe Systems Incorporated.
COMMENT  Copyright 1988, 1994 Digital Equipment Corporation.
COMMENT
COMMENT  Adobe is a trademark of Adobe Systems Incorporated which may be
COMMENT  registered in certain jurisdictions.
COMMENT  Permission to use these trademarks is hereby granted only in
COMMENT  association with the images described in this file.
COMMENT
COMMENT  Permission to use, copy, modify, distribute and sell this software
COMMENT  and its documentation for any purpose and without fee is hereby
COMMENT  granted, provided that the above copyright notices appear in all
COMMENT  copies and that both those copyright notices and this permission
COMMENT  notice appear in supporting documentation, and that the names of
COMMENT  Adobe Systems and Digital Equipment Corporation not be used in
COMMENT  advertising or publicity pertaining to distribution of the software
COMMENT  without specific, written prior permission.  Adobe Systems and
COMMENT  Digital Equipment Corporation make no representations about the
COMMENT  suitability of this software for any purpose.  It is provided "as
COMMENT  is" without express or implied warranty.
COMMENT -
COMMENT  
COMMENT  Translation to ISO8859-2 by Cub Soft;  Petr.Kolar@vslib.cz
COMMENT  
STARTPROPERTIES 28
FOUNDRY "Adobe"
FAMILY_NAME "Courier"
WEIGHT_NAME "Bold"
SLANT "R"
SETWIDTH_NAME "Normal"
ADD_STYLE_NAME ""
PIXEL_SIZE 34
POINT_SIZE 240
RESOLUTION_X 100
RESOLUTION_Y 100
SPACING "M"
AVERAGE_WIDTH 200
CHARSET_REGISTRY "ISO8859"
CHARSET_ENCODING "2"
CAP_HEIGHT 20
X_HEIGHT 15
FONT_ASCENT 23
FONT_DESCENT 7
FACE_NAME "Courier Bold"
COPYRIGHT "Copyright (c) 1984, 1987 Adobe Systems Incorporated. All Rights Reserved. Copyright (c) 1988, 1991 Digital Equipment Corporation. All Rights Reserved., Copyright 1996 Cub Soft"
NOTICE "No mark"
_DEC_DEVICE_FONTNAMES "PS=Courier-Bold"
_DEC_PRODUCTINFO "DECwindows Fonts V2.2-1, 15-Oct-1992"
DEFAULT_CHAR 32
RELATIVE_SETWIDTH 50
RELATIVE_WEIGHT 70
CHARSET_COLLECTIONS "ASCII ISO8859-2 ADOBE-STANDARD"
FULL_NAME "Courier Bold"
ENDPROPERTIES
CHARS 191
STARTCHAR space
ENCODING 32
SWIDTH 600 0
DWIDTH 20 0
BBX 1 1 0 0
BITMAP
00
ENDCHAR
STARTCHAR exclam
ENCODING 33
SWIDTH 600 0
DWIDTH 20 0
BBX 5 21 7 0
BITMAP
70
f8
f8
f8
f8
f8
70
70
70
70
70
70
70
70
70
20
00
00
70
f8
70
ENDCHAR
STARTCHAR quotedbl
ENCODING 34
SWIDTH 600 0
DWIDTH 20 0
BBX 9 10 5 10
BITMAP
e380
e380
e380
e380
e380
e380
e380
e380
e380
4100
ENDCHAR
STARTCHAR numbersign
ENCODING 35
SWIDTH 600 0
DWIDTH 20 0
BBX 15 26 2 -3
BITMAP
0e38
0e38
0e38
0e38
0e38
0e38
0e38
0e38
7ffe
7ffe
7ffe
1c70
1c70
1c70
1c70
fffc
fffc
fffc
38e0
38e0
38e0
38e0
38e0
38e0
38e0
38e0
ENDCHAR
STARTCHAR dollar
ENCODING 36
SWIDTH 600 0
DWIDTH 20 0
BBX 14 27 3 -4
BITMAP
0700
0700
0700
0fd8
3ff8
7ff8
f078
e038
e038
f000
fe00
7fc0
3ff0
07f8
00fc
003c
e01c
e01c
f03c
fff8
fff0
e780
0700
0700
0700
0700
0700
ENDCHAR
STARTCHAR percent
ENCODING 37
SWIDTH 600 0
DWIDTH 20 0
BBX 15 21 2 0
BITMAP
1f00
3f80
3180
60c0
60c0
60c0
71c2
3f8e
1f3e
00f8
03e0
1f00
fcf8
f1fc
c38e
0306
0306
0306
018c
01fc
00f8
ENDCHAR
STARTCHAR ampersand
ENCODING 38
SWIDTH 600 0
DWIDTH 20 0
BBX 14 18 2 0
BITMAP
07a0
1fe0
3fe0
3c60
3800
3800
3c00
1c00
1e00
7f3c
7fbc
f3bc
e1f0
e0f0
e0f0
fffc
7fbc
3f3c
ENDCHAR
STARTCHAR apostrophe
ENCODING 39
SWIDTH 600 0
DWIDTH 20 0
BBX 6 10 5 11
BITMAP
3c
3c
78
78
70
70
e0
e0
c0
c0
ENDCHAR
STARTCHAR parenleft
ENCODING 40
SWIDTH 600 0
DWIDTH 20 0
BBX 7 26 8 -5
BITMAP
0e
0e
1e
3c
38
38
78
70
70
f0
f0
f0
e0
e0
f0
f0
f0
70
70
78
38
3c
1c
1e
0e
0e
ENDCHAR
STARTCHAR parenright
ENCODING 41
SWIDTH 600 0
DWIDTH 20 0
BBX 7 26 4 -5
BITMAP
e0
e0
f0
78
38
38
3c
1c
1c
1e
1e
1e
0e
0e
1e
1e
1e
1c
1c
3c
38
78
70
f0
e0
e0
ENDCHAR
STARTCHAR asterisk
ENCODING 42
SWIDTH 600 0
DWIDTH 20 0
BBX 15 14 3 7
BITMAP
0380
0380
0380
0380
638c
fbbe
7ffc
1ff0
0fe0
0fe0
1ef0
3c78
783c
3018
ENDCHAR
STARTCHAR plus
ENCODING 43
SWIDTH 600 0
DWIDTH 20 0
BBX 17 17 1 1
BITMAP
01c000
01c000
01c000
01c000
01c000
01c000
01c000
ffff80
ffff80
ffff80
01c000
01c000
01c000
01c000
01c000
01c000
01c000
ENDCHAR
STARTCHAR comma
ENCODING 44
SWIDTH 600 0
DWIDTH 20 0
BBX 7 10 5 -5
BITMAP
1e
1e
3c
3c
38
70
70
e0
e0
c0
ENDCHAR
STARTCHAR minus
ENCODING 45
SWIDTH 600 0
DWIDTH 20 0
BBX 15 3 2 8
BITMAP
fffe
fffe
fffe
ENDCHAR
STARTCHAR period
ENCODING 46
SWIDTH 600 0
DWIDTH 20 0
BBX 5 4 7 0
BITMAP
70
f8
f8
70
ENDCHAR
STARTCHAR slash
ENCODING 47
SWIDTH 600 0
DWIDTH 20 0
BBX 13 27 3 -4
BITMAP
0038
0038
0078
0070
0070
00e0
00e0
01e0
01c0
01c0
0380
0380
0780
0700
0f00
0e00
0e00
1c00
1c00
3c00
3800
3800
7000
7000
f000
e000
e000
ENDCHAR
STARTCHAR zero
ENCODING 48
SWIDTH 600 0
DWIDTH 20 0
BBX 13 21 3 0
BITMAP
0f80
3fe0
7ff0
7070
f078
e038
e038
e038
e038
e038
e038
e038
e038
e038
e038
e038
f078
7070
7ff0
3fe0
0f80
ENDCHAR
STARTCHAR one
ENCODING 49
SWIDTH 600 0
DWIDTH 20 0
BBX 13 21 4 0
BITMAP
0300
0f00
7f00
ff00
ff00
6700
0700
0700
0700
0700
0700
0700
0700
0700
0700
0700
0700
0700
fff8
fff8
fff8
ENDCHAR
STARTCHAR two
ENCODING 50
SWIDTH 600 0
DWIDTH 20 0
BBX 14 21 2 0
BITMAP
07c0
1ff0
3ff8
783c
701c
701c
701c
001c
0038
0078
00f0
01e0
03c0
0780
0f00
1e00
3c00
7800
fffc
fffc
fffc
ENDCHAR
STARTCHAR three
ENCODING 51
SWIDTH 600 0
DWIDTH 20 0
BBX 15 21 2 0
BITMAP
07e0
1ff0
7ff8
783c
701c
001c
001c
003c
07f8
07f0
07f8
007c
001c
000e
000e
000e
001e
e03c
fffc
fff8
3fe0
ENDCHAR
STARTCHAR four
ENCODING 52
SWIDTH 600 0
DWIDTH 20 0
BBX 14 21 2 0
BITMAP
00f0
01f0
01f0
03f0
07f0
0770
0f70
0e70
1e70
1c70
3870
7870
7070
fffc
fffc
fffc
0070
0070
03fc
03fc
03fc
ENDCHAR
STARTCHAR five
ENCODING 53
SWIDTH 600 0
DWIDTH 20 0
BBX 15 21 2 0
BITMAP
3ffc
3ffc
3ffc
3800
3800
3800
3800
3fe0
3ff8
3ffc
387c
001e
000e
000e
000e
000e
401e
f03c
fff8
7ff8
1fe0
ENDCHAR
STARTCHAR six
ENCODING 54
SWIDTH 600 0
DWIDTH 20 0
BBX 14 21 3 0
BITMAP
01f8
07f8
0ff8
1f00
3c00
7800
7000
7000
e3c0
eff0
fff0
f878
f03c
e01c
e01c
f01c
703c
7878
7ff8
3ff0
0fc0
ENDCHAR
STARTCHAR seven
ENCODING 55
SWIDTH 600 0
DWIDTH 20 0
BBX 14 21 2 0
BITMAP
fffc
fffc
fffc
e03c
e038
e038
0038
0078
0070
0070
00f0
00e0
00e0
01e0
01c0
01c0
03c0
0380
0780
0700
0700
ENDCHAR
STARTCHAR eight
ENCODING 56
SWIDTH 600 0
DWIDTH 20 0
BBX 14 21 3 0
BITMAP
0f80
3fe0
7ff0
7070
e038
e038
e038
7070
7ff0
3fe0
3ff0
7cf8
f03c
e01c
e01c
e01c
e01c
f87c
7ff8
3ff0
0fc0
ENDCHAR
STARTCHAR nine
ENCODING 57
SWIDTH 600 0
DWIDTH 20 0
BBX 14 21 3 0
BITMAP
0f80
3fe0
7ff0
78f0
f078
e038
e03c
e03c
e03c
f07c
78fc
3fdc
3f9c
0f3c
0038
0078
0070
61f0
ffe0
ff80
7e00
ENDCHAR
STARTCHAR colon
ENCODING 58
SWIDTH 600 0
DWIDTH 20 0
BBX 5 15 7 0
BITMAP
70
f8
f8
70
00
00
00
00
00
00
00
70
f8
f8
70
ENDCHAR
STARTCHAR semicolon
ENCODING 59
SWIDTH 600 0
DWIDTH 20 0
BBX 8 19 5 -4
BITMAP
0e
1f
1f
0e
00
00
00
00
00
00
1e
1e
3c
38
78
70
e0
e0
c0
ENDCHAR
STARTCHAR less
ENCODING 60
SWIDTH 600 0
DWIDTH 20 0
BBX 18 19 0 0
BITMAP
0001c0
0003c0
000fc0
003f80
00fe00
01f800
07e000
1f8000
7f0000
fc0000
7f0000
1f8000
07e000
01f800
00fe00
003f80
000fc0
0003c0
0001c0
ENDCHAR
STARTCHAR equal
ENCODING 61
SWIDTH 600 0
DWIDTH 20 0
BBX 17 9 1 5
BITMAP
ffff80
ffff80
ffff80
000000
000000
000000
ffff80
ffff80
ffff80
ENDCHAR
STARTCHAR greater
ENCODING 62
SWIDTH 600 0
DWIDTH 20 0
BBX 18 19 1 0
BITMAP
e00000
f00000
fc0000
7f0000
1fc000
07e000
01f800
007e00
003f80
000fc0
003f80
007e00
01f800
07e000
1fc000
7f0000
fc0000
f00000
e00000
ENDCHAR
STARTCHAR question
ENCODING 63
SWIDTH 600 0
DWIDTH 20 0
BBX 13 20 3 0
BITMAP
1fc0
7fe0
fff0
e0f8
e038
e038
0038
0078
00f0
03f0
07c0
0780
0700
0700
0000
0000
0000
0700
0f80
0700
ENDCHAR
STARTCHAR at
ENCODING 64
SWIDTH 600 0
DWIDTH 20 0
BBX 14 23 3 -2
BITMAP
0fc0
1fe0
3870
7030
6030
e030
c030
c1f0
c7f0
c630
cc30
cc30
cc30
ce30
c7fc
c3bc
c000
e000
6000
7030
3870
1fe0
0fc0
ENDCHAR
STARTCHAR A
ENCODING 65
SWIDTH 600 0
DWIDTH 20 0
BBX 21 20 -1 0
BITMAP
1ff000
1ff800
1ff800
01dc00
01dc00
01dc00
038e00
038e00
038e00
070700
070700
070700
0fff80
0fff80
1fffc0
1c01c0
1c01c0
ff8ff8
ff8ff8
ff8ff8
ENDCHAR
STARTCHAR B
ENCODING 66
SWIDTH 600 0
DWIDTH 20 0
BBX 18 20 1 0
BITMAP
fff800
fffe00
ffff00
1c0780
1c0380
1c0380
1c0380
1c0780
1fff00
1ffc00
1ffe00
1c0f80
1c03c0
1c01c0
1c01c0
1c01c0
1c03c0
ffff80
ffff00
fffc00
ENDCHAR
STARTCHAR C
ENCODING 67
SWIDTH 600 0
DWIDTH 20 0
BBX 18 20 1 0
BITMAP
03f980
0fff80
1fff80
3e0f80
780780
700380
f00380
e00000
e00000
e00000
e00000
e00000
e00000
e00000
f00000
780380
7c07c0
3fff80
1fff00
07fc00
ENDCHAR
STARTCHAR D
ENCODING 68
SWIDTH 600 0
DWIDTH 20 0
BBX 17 20 1 0
BITMAP
ffe000
fff800
fffc00
383e00
380f00
380700
380780
380380
380380
380380
380380
380380
380380
380380
380780
380700
381f00
fffe00
fffc00
fff000
ENDCHAR
STARTCHAR E
ENCODING 69
SWIDTH 600 0
DWIDTH 20 0
BBX 17 20 1 0
BITMAP
ffff00
ffff00
ffff00
1c0700
1c0700
1c0700
1c7700
1c7000
1ff000
1ff000
1ff000
1c7000
1c7000
1c0380
1c0380
1c0380
1c0380
ffff80
ffff80
ffff80
ENDCHAR
STARTCHAR F
ENCODING 70
SWIDTH 600 0
DWIDTH 20 0
BBX 17 20 1 0
BITMAP
ffff80
ffff80
ffff80
1c0380
1c0380
1c0380
1c7380
1c7000
1ff000
1ff000
1ff000
1c7000
1c7000
1c0000
1c0000
1c0000
1c0000
ffe000
ffe000
ffe000
ENDCHAR
STARTCHAR G
ENCODING 71
SWIDTH 600 0
DWIDTH 20 0
BBX 17 20 2 0
BITMAP
03f300
0fff00
1fff00
3c0f00
780700
700700
f00700
e00000
e00000
e00000
e00000
e0ff80
e0ff80
e0ff80
f00700
700700
7c0f00
3fff00
1ffe00
07f800
ENDCHAR
STARTCHAR H
ENCODING 72
SWIDTH 600 0
DWIDTH 20 0
BBX 17 20 1 0
BITMAP
ff7f80
ff7f80
ff7f80
380e00
380e00
380e00
380e00
380e00
3ffe00
3ffe00
3ffe00
380e00
380e00
380e00
380e00
380e00
380e00
ff7f80
ff7f80
ff7f80
ENDCHAR
STARTCHAR I
ENCODING 73
SWIDTH 600 0
DWIDTH 20 0
BBX 13 20 3 0
BITMAP
fff8
fff8
fff8
0700
0700
0700
0700
0700
0700
0700
0700
0700
0700
0700
0700
0700
0700
fff8
fff8
fff8
ENDCHAR
STARTCHAR J
ENCODING 74
SWIDTH 600 0
DWIDTH 20 0
BBX 17 20 2 0
BITMAP
07ff80
07ff80
07ff80
003800
003800
003800
003800
003800
003800
003800
e03800
e03800
e03800
e03800
e03800
e07800
f0f000
fff000
7fe000
1f8000
ENDCHAR
STARTCHAR K
ENCODING 75
SWIDTH 600 0
DWIDTH 20 0
BBX 19 20 1 0
BITMAP
ff9fc0
ff9fc0
ff9fc0
1c0f00
1c1e00
1c3c00
1c7800
1cf000
1fe000
1ff000
1ff800
1e7c00
1c3c00
1c1e00
1c0e00
1c0f00
1c0700
ff87e0
ff87e0
ff87e0
ENDCHAR
STARTCHAR L
ENCODING 76
SWIDTH 600 0
DWIDTH 20 0
BBX 17 20 1 0
BITMAP
ffe000
ffe000
ffe000
0e0000
0e0000
0e0000
0e0000
0e0000
0e0000
0e0000
0e0000
0e0380
0e0380
0e0380
0e0380
0e0380
0e0380
ffff80
ffff80
ffff80
ENDCHAR
STARTCHAR M
ENCODING 77
SWIDTH 600 0
DWIDTH 20 0
BBX 21 20 -1 0
BITMAP
fc01f8
fc01f8
fe03f8
3e03e0
3f07e0
3f07e0
3b8ee0
3b8ee0
3bdee0
39dce0
39dce0
38f8e0
38f8e0
38f8e0
3870e0
3870e0
3800e0
ff07f8
ff07f8
ff07f8
ENDCHAR
STARTCHAR N
ENCODING 78
SWIDTH 600 0
DWIDTH 20 0
BBX 19 20 0 0
BITMAP
f81fe0
fc1fe0
fe1fe0
3e0380
3f0380
3f0380
3b8380
3bc380
39c380
39e380
38f380
387380
387b80
383b80
381f80
381f80
380f80
ff0780
ff0780
ff0380
ENDCHAR
STARTCHAR O
ENCODING 79
SWIDTH 600 0
DWIDTH 20 0
BBX 18 20 1 0
BITMAP
03f000
0ffc00
1ffe00
3c0f00
780780
700380
f003c0
e001c0
e001c0
e001c0
e001c0
e001c0
e001c0
f003c0
700380
780780
3c0f00
1ffe00
0ffc00
03f000
ENDCHAR
STARTCHAR P
ENCODING 80
SWIDTH 600 0
DWIDTH 20 0
BBX 17 20 1 0
BITMAP
fff800
fffe00
ffff00
1c0f00
1c0380
1c0380
1c0380
1c0380
1c0780
1c0f00
1ffe00
1ffc00
1ff000
1c0000
1c0000
1c0000
1c0000
ffe000
ffe000
ffe000
ENDCHAR
STARTCHAR Q
ENCODING 81
SWIDTH 600 0
DWIDTH 20 0
BBX 18 25 1 -5
BITMAP
03f000
0ff800
1ffe00
3c0f00
780780
700380
f003c0
e001c0
e001c0
e001c0
e001c0
e001c0
e001c0
e001c0
700380
780780
3c0f00
1ffe00
0ffc00
07f000
0e0000
1fe1c0
3fffc0
3fffc0
383f00
ENDCHAR
STARTCHAR R
ENCODING 82
SWIDTH 600 0
DWIDTH 20 0
BBX 20 20 1 0
BITMAP
fff800
fffe00
ffff00
1c0f00
1c0780
1c0380
1c0380
1c0780
1c0f00
1ffe00
1ffc00
1ff800
1c3c00
1c1e00
1c0f00
1c0780
1c03c0
ff83f0
ff81f0
ff81f0
ENDCHAR
STARTCHAR S
ENCODING 83
SWIDTH 600 0
DWIDTH 20 0
BBX 15 20 2 0
BITMAP
0fcc
3ffc
7ffc
f07c
e01c
e01c
f01c
f800
7f00
3fe0
0ff8
01fc
003e
e01e
e00e
e00e
f01e
fffc
fff8
e7e0
ENDCHAR
STARTCHAR T
ENCODING 84
SWIDTH 600 0
DWIDTH 20 0
BBX 17 20 1 0
BITMAP
ffff80
ffff80
ffff80
e1c380
e1c380
e1c380
e1c380
e1c380
e1c380
01c000
01c000
01c000
01c000
01c000
01c000
01c000
01c000
3ffe00
3ffe00
3ffe00
ENDCHAR
STARTCHAR U
ENCODING 85
SWIDTH 600 0
DWIDTH 20 0
BBX 19 20 0 0
BITMAP
ff1fe0
ff1fe0
ff1fe0
380380
380380
380380
380380
380380
380380
380380
380380
380380
380380
380380
380380
1c0700
1f1f00
0ffe00
07fc00
01f000
ENDCHAR
STARTCHAR V
ENCODING 86
SWIDTH 600 0
DWIDTH 20 0
BBX 21 20 -1 0
BITMAP
ff8ff8
ff8ff8
ff8ff8
1c01c0
1c01c0
1e03c0
0e0380
0e0380
070700
070700
078f00
038e00
038e00
03de00
01dc00
01dc00
00f800
00f800
00f800
007000
ENDCHAR
STARTCHAR W
ENCODING 87
SWIDTH 600 0
DWIDTH 20 0
BBX 19 20 0 0
BITMAP
ff1fe0
ff1fe0
ff1fe0
7001c0
7001c0
70e1c0
70e1c0
71f1c0
39f380
39f380
3bbb80
3bbb80
3bbb80
3f1f80
3f1f80
1e0f00
1e0f00
1e0f00
1c0700
1c0700
ENDCHAR
STARTCHAR X
ENCODING 88
SWIDTH 600 0
DWIDTH 20 0
BBX 19 20 0 0
BITMAP
ff1fe0
ff1fe0
ff1fe0
3c0780
1e0f00
0f1e00
07bc00
03f800
01f000
00e000
01f000
03f800
07bc00
0f1e00
0e0e00
1e0f00
3c0780
ff1fe0
ff1fe0
ff1fe0
ENDCHAR
STARTCHAR Y
ENCODING 89
SWIDTH 600 0
DWIDTH 20 0
BBX 19 20 0 0
BITMAP
ff1fe0
ff1fe0
ff1fe0
3c0780
0e0e00
0f1e00
071c00
07bc00
03f800
01f000
01f000
00e000
00e000
00e000
00e000
00e000
00e000
0ffe00
0ffe00
0ffe00
ENDCHAR
STARTCHAR Z
ENCODING 90
SWIDTH 600 0
DWIDTH 20 0
BBX 15 20 2 0
BITMAP
7ffc
7ffc
7ffc
703c
7038
7078
70f0
71e0
01c0
03c0
0780
0f00
0e0e
1e0e
3c0e
780e
700e
fffe
fffe
fffe
ENDCHAR
STARTCHAR bracketleft
ENCODING 91
SWIDTH 600 0
DWIDTH 20 0
BBX 7 26 8 -5
BITMAP
fe
fe
fe
e0
e0
e0
e0
e0
e0
e0
e0
e0
e0
e0
e0
e0
e0
e0
e0
e0
e0
e0
e0
fe
fe
fe
ENDCHAR
STARTCHAR backslash
ENCODING 92
SWIDTH 600 0
DWIDTH 20 0
BBX 13 27 3 -4
BITMAP
e000
e000
f000
7000
7000
3800
3800
3c00
1c00
1c00
0e00
0e00
0f00
0700
0780
0380
0380
01c0
01c0
01e0
00e0
00e0
0070
0070
0078
0038
0038
ENDCHAR
STARTCHAR bracketright
ENCODING 93
SWIDTH 600 0
DWIDTH 20 0
BBX 7 26 4 -5
BITMAP
fe
fe
fe
0e
0e
0e
0e
0e
0e
0e
0e
0e
0e
0e
0e
0e
0e
0e
0e
0e
0e
0e
0e
fe
fe
fe
ENDCHAR
STARTCHAR asciicircum
ENCODING 94
SWIDTH 600 0
DWIDTH 20 0
BBX 13 11 3 11
BITMAP
0200
0700
0700
0f80
1fc0
3de0
38e0
78f0
f078
e038
e038
ENDCHAR
STARTCHAR underscore
ENCODING 95
SWIDTH 600 0
DWIDTH 20 0
BBX 20 3 0 -7
BITMAP
fffff0
fffff0
fffff0
ENDCHAR
STARTCHAR grave
ENCODING 96
SWIDTH 600 0
DWIDTH 20 0
BBX 6 6 6 16
BITMAP
c0
e0
70
38
1c
0c
ENDCHAR
STARTCHAR a
ENCODING 97
SWIDTH 600 0
DWIDTH 20 0
BBX 16 15 2 0
BITMAP
1fe0
7ff8
7ffc
703c
001c
001c
0ffc
7ffc
7ffc
f01c
e01c
e07c
ffff
7fdf
3f9f
ENDCHAR
STARTCHAR b
ENCODING 98
SWIDTH 600 0
DWIDTH 20 0
BBX 19 21 0 0
BITMAP
fc0000
fc0000
fc0000
1c0000
1c0000
1c0000
1c7c00
1dff00
1fff80
1f87c0
1e01c0
1e01e0
1c00e0
1c00e0
1c00e0
1c00e0
1e01c0
1f03c0
ffff80
ffff00
fcfe00
ENDCHAR
STARTCHAR c
ENCODING 99
SWIDTH 600 0
DWIDTH 20 0
BBX 16 15 2 0
BITMAP
07e6
1ffe
3ffe
7c3e
700e
e00e
e00e
e000
e000
e000
f006
780f
7ffe
3ffc
0ff0
ENDCHAR
STARTCHAR d
ENCODING 100
SWIDTH 600 0
DWIDTH 20 0
BBX 19 21 1 0
BITMAP
003f00
003f00
003f00
000700
000700
000700
07e700
1fff00
3fff00
7c3f00
700f00
f00f00
e00700
e00700
e00700
e00700
700f00
7c3f00
3fffe0
1ff7e0
07e7e0
ENDCHAR
STARTCHAR e
ENCODING 101
SWIDTH 600 0
DWIDTH 20 0
BBX 18 15 1 0
BITMAP
03f000
0ffc00
1ffe00
3e1f00
780780
700380
ffff80
ffff80
ffff80
f00000
780000
7e0380
3fffc0
1fff80
07fe00
ENDCHAR
STARTCHAR f
ENCODING 102
SWIDTH 600 0
DWIDTH 20 0
BBX 16 21 3 0
BITMAP
01ff
07ff
07ff
0f00
0e00
0e00
fffc
fffc
fffc
0e00
0e00
0e00
0e00
0e00
0e00
0e00
0e00
0e00
fffc
fffc
fffc
ENDCHAR
STARTCHAR g
ENCODING 103
SWIDTH 600 0
DWIDTH 20 0
BBX 18 22 1 -7
BITMAP
07cfc0
1fffc0
3fffc0
7c7e00
701e00
f01e00
e00e00
e00e00
e00e00
f01e00
701e00
787e00
3ffe00
1fee00
0fce00
000e00
000e00
001e00
003c00
1ffc00
1ff800
1fe000
ENDCHAR
STARTCHAR h
ENCODING 104
SWIDTH 600 0
DWIDTH 20 0
BBX 18 21 1 0
BITMAP
fc0000
fc0000
fc0000
1c0000
1c0000
1c0000
1cf800
1dfc00
1ffe00
1f0f00
1e0700
1c0700
1c0700
1c0700
1c0700
1c0700
1c0700
1c0700
7f1fc0
7f1fc0
7f1fc0
ENDCHAR
STARTCHAR i
ENCODING 105
SWIDTH 600 0
DWIDTH 20 0
BBX 15 21 3 0
BITMAP
0780
0780
0780
0780
0000
0000
7f80
7f80
7f80
0380
0380
0380
0380
0380
0380
0380
0380
0380
fffe
fffe
fffe
ENDCHAR
STARTCHAR j
ENCODING 106
SWIDTH 600 0
DWIDTH 20 0
BBX 12 28 3 -7
BITMAP
03c0
03c0
03c0
03c0
0000
0000
fff0
fff0
fff0
0070
0070
0070
0070
0070
0070
0070
0070
0070
0070
0070
0070
0070
0070
0070
00f0
ffe0
ffc0
ff80
ENDCHAR
STARTCHAR k
ENCODING 107
SWIDTH 600 0
DWIDTH 20 0
BBX 17 21 1 0
BITMAP
fc0000
fc0000
fc0000
1c0000
1c0000
1c0000
1cff00
1cff00
1cff00
1c7800
1cf000
1de000
1fc000
1fc000
1fe000
1df000
1cf800
1c7c00
fc3f80
fc3f80
fc3f80
ENDCHAR
STARTCHAR l
ENCODING 108
SWIDTH 600 0
DWIDTH 20 0
BBX 15 21 3 0
BITMAP
7f80
7f80
7f80
0380
0380
0380
0380
0380
0380
0380
0380
0380
0380
0380
0380
0380
0380
0380
fffe
fffe
fffe
ENDCHAR
STARTCHAR m
ENCODING 109
SWIDTH 600 0
DWIDTH 20 0
BBX 20 15 1 0
BITMAP
f38f00
ffff80
ffffc0
78f1c0
70e1c0
70e1c0
70e1c0
70e1c0
70e1c0
70e1c0
70e1c0
70e1c0
fcf9f0
fcf9f0
fcf9f0
ENDCHAR
STARTCHAR n
ENCODING 110
SWIDTH 600 0
DWIDTH 20 0
BBX 17 15 2 0
BITMAP
f9f000
fbf800
fffc00
3e1e00
3c0e00
380e00
380e00
380e00
380e00
380e00
380e00
380e00
fe3f80
fe3f80
fe3f80
ENDCHAR
STARTCHAR o
ENCODING 111
SWIDTH 600 0
DWIDTH 20 0
BBX 17 15 2 0
BITMAP
07f000
1ffc00
3ffe00
780f00
700700
f00780
e00380
e00380
e00380
f00780
700700
780f00
3ffe00
1ffc00
07f000
ENDCHAR
STARTCHAR p
ENCODING 112
SWIDTH 600 0
DWIDTH 20 0
BBX 19 22 0 -7
BITMAP
fc7c00
fdff00
ffff80
1f03c0
1e01e0
1c00e0
1c00e0
1c00e0
1c00e0
1c01e0
1e01c0
1f07c0
1fff80
1dfe00
1c7800
1c0000
1c0000
1c0000
1c0000
ffc000
ffc000
ffc000
ENDCHAR
STARTCHAR q
ENCODING 113
SWIDTH 600 0
DWIDTH 20 0
BBX 19 22 1 -7
BITMAP
07e7e0
1fffe0
3fffe0
7c3f00
700f00
f00f00
e00700
e00700
e00700
f00f00
700f00
7c3f00
3fff00
1ff700
07c700
000700
000700
000700
000700
007fe0
007fe0
007fe0
ENDCHAR
STARTCHAR r
ENCODING 114
SWIDTH 600 0
DWIDTH 20 0
BBX 17 15 2 0
BITMAP
7e3e00
7eff00
7fff80
0fc700
0f0200
0f0000
0e0000
0e0000
0e0000
0e0000
0e0000
0e0000
fffc00
fffc00
fffc00
ENDCHAR
STARTCHAR s
ENCODING 115
SWIDTH 600 0
DWIDTH 20 0
BBX 15 15 3 0
BITMAP
0fec
3ffc
3ffc
783c
701c
7800
7fc0
3ff8
0ffc
e03e
e00e
f81e
fffc
fff8
e7e0
ENDCHAR
STARTCHAR t
ENCODING 116
SWIDTH 600 0
DWIDTH 20 0
BBX 16 20 2 0
BITMAP
1c00
1c00
1c00
1c00
1c00
fffc
fffc
fffc
1c00
1c00
1c00
1c00
1c00
1c00
1c00
1c06
1e1f
1fff
0ffe
03f0
ENDCHAR
STARTCHAR u
ENCODING 117
SWIDTH 600 0
DWIDTH 20 0
BBX 18 15 1 0
BITMAP
fc3f00
fc3f00
fc3f00
1c0700
1c0700
1c0700
1c0700
1c0700
1c0700
1c0700
1c0700
1e1f00
1fffc0
0fffc0
07f7c0
ENDCHAR
STARTCHAR v
ENCODING 118
SWIDTH 600 0
DWIDTH 20 0
BBX 19 15 0 0
BITMAP
ff1fe0
ff1fe0
ff1fe0
3c0700
1c0700
1e0e00
0e0e00
0f1c00
071c00
07b800
03b800
03f000
01f000
01e000
00e000
ENDCHAR
STARTCHAR w
ENCODING 119
SWIDTH 600 0
DWIDTH 20 0
BBX 19 15 0 0
BITMAP
fe0fe0
fe0fe0
fe0fe0
38e380
38e380
39f380
3df780
1df700
1fbf00
1f1f00
1f1f00
0f1e00
0e0e00
0e0e00
0e0e00
ENDCHAR
STARTCHAR x
ENCODING 120
SWIDTH 600 0
DWIDTH 20 0
BBX 17 15 1 0
BITMAP
fe3f80
fe3f80
fe3f80
3c1c00
1e3800
0f7000
07e000
03e000
03f000
077800
0e3c00
1c1e00
fe3f80
fe3f80
fe3f80
ENDCHAR
STARTCHAR y
ENCODING 121
SWIDTH 600 0
DWIDTH 20 0
BBX 19 22 1 -7
BITMAP
ff1fe0
ff1fe0
ff1fe0
3c0380
1c0700
1e0700
0e0e00
0f0e00
071c00
079c00
03b800
03f800
01f000
01f000
00e000
00e000
01c000
01c000
038000
7ff000
7ff000
7ff000
ENDCHAR
STARTCHAR z
ENCODING 122
SWIDTH 600 0
DWIDTH 20 0
BBX 13 15 4 0
BITMAP
fff8
fff8
fff8
e0f0
e1e0
e3c0
0780
0f00
1e00
3c00
7838
f038
fff8
fff8
fff8
ENDCHAR
STARTCHAR braceleft
ENCODING 123
SWIDTH 600 0
DWIDTH 20 0
BBX 9 26 5 -5
BITMAP
0780
0f80
0f80
1e00
1c00
1c00
1c00
1c00
1c00
1c00
1c00
3c00
f800
f800
fc00
1c00
1c00
1c00
1c00
1c00
1c00
1c00
1c00
1f80
0f80
0780
ENDCHAR
STARTCHAR bar
ENCODING 124
SWIDTH 600 0
DWIDTH 20 0
BBX 3 26 8 -5
BITMAP
e0
e0
e0
e0
e0
e0
e0
e0
e0
e0
e0
e0
e0
e0
e0
e0
e0
e0
e0
e0
e0
e0
e0
e0
e0
e0
ENDCHAR
STARTCHAR braceright
ENCODING 125
SWIDTH 600 0
DWIDTH 20 0
BBX 9 26 5 -5
BITMAP
f000
f800
f800
3c00
1c00
1c00
1c00
1c00
1c00
1c00
1c00
1e00
0f80
0f80
1f80
1c00
1c00
1c00
1c00
1c00
1c00
1c00
1c00
fc00
f800
f000
ENDCHAR
STARTCHAR asciitilde
ENCODING 126
SWIDTH 600 0
DWIDTH 20 0
BBX 15 7 2 6
BITMAP
0c00
3f0e
7f8e
f7de
e3fc
e1f8
0060
ENDCHAR
STARTCHAR nobreakspace
ENCODING 160
SWIDTH 600 0
DWIDTH 20 0
BBX 1 1 0 0
BITMAP
00
ENDCHAR
STARTCHAR Aogonek
ENCODING 161
SWIDTH 600 0
DWIDTH 20 0
BBX 21 28 -1 -8
BITMAP
1ff000
1ff800
1ff800
01dc00
01dc00
01dc00
038e00
038e00
038e00
070700
070700
070700
0fff80
0fff80
1fffc0
1c01c0
1c01c0
ff8ff8
ff8ff8
ff8ff8
003000
007000
00e000
00c000
00c000
00e000
007c00
003c00
ENDCHAR
STARTCHAR breve
ENCODING 162
SWIDTH 600 0
DWIDTH 20 0
BBX 9 5 5 16
BITMAP
c180
c180
e380
ff80
3e00
ENDCHAR
STARTCHAR Lstroke
ENCODING 163
SWIDTH 600 0
DWIDTH 20 0
BBX 17 20 1 0
BITMAP
ffe000
ffe000
ffe000
0e0000
0e0000
0e0000
0e7000
0ff000
0ff000
0fc000
3f0000
fe0380
fe0380
ee0380
0e0380
0e0380
0e0380
ffff80
ffff80
ffff80
ENDCHAR
STARTCHAR currency
ENCODING 164
SWIDTH 600 0
DWIDTH 20 0
BBX 15 15 2 2
BITMAP
e00e
f7de
fffe
7ffc
3c78
783c
701c
701c
701c
783c
3c78
7ffc
fffe
f7de
e00e
ENDCHAR
STARTCHAR Lcaron
ENCODING 165
SWIDTH 630 0
DWIDTH 21 0
BBX 18 23 1 0
BITMAP
0003c0
0003c0
000780
ffe780
ffe700
ffe700
0e0e00
0e0e00
0e0c00
0e0c00
0e0000
0e0000
0e0000
0e0000
0e0380
0e0380
0e0380
0e0380
0e0380
0e0380
ffff80
ffff80
ffff80
ENDCHAR
STARTCHAR Sacute
ENCODING 166
SWIDTH 600 0
DWIDTH 20 0
BBX 15 27 2 0
BITMAP
0018
003c
00f8
01e0
0380
0100
0000
0fcc
3ffc
7ffc
f07c
e01c
e01c
f01c
f800
7f00
3fe0
0ff8
01fc
003e
e01e
e00e
e00e
f01e
fffc
fff8
e7e0
ENDCHAR
STARTCHAR section
ENCODING 167
SWIDTH 600 0
DWIDTH 20 0
BBX 16 24 2 -3
BITMAP
01fe
07fe
0ffe
1c06
1806
1806
3c00
7f00
e780
c1e0
60f0
703c
3c0e
0f06
0783
01e7
00fe
003c
3018
3018
3038
3ff0
3fe0
3f80
ENDCHAR
STARTCHAR diaeresis
ENCODING 168
SWIDTH 600 0
DWIDTH 20 0
BBX 11 4 4 17
BITMAP
60c0
f1e0
f1e0
60c0
ENDCHAR
STARTCHAR Scaron
ENCODING 169
SWIDTH 600 0
DWIDTH 20 0
BBX 15 26 2 0
BITMAP
1830
1ef0
0fe0
0380
0100
0000
0fcc
3ffc
7ffc
f07c
e01c
e01c
f01c
f800
7f00
3fe0
0ff8
01fc
003e
e01e
e00e
e00e
f01e
fffc
fff8
e7e0
ENDCHAR
STARTCHAR Scedilla
ENCODING 170
SWIDTH 600 0
DWIDTH 20 0
BBX 15 27 2 -7
BITMAP
0fcc
3ffc
7ffc
f07c
e01c
e01c
f01c
f800
7f00
3fe0
0ff8
01fc
003e
e01e
e00e
e00e
f01e
fffc
fff8
e7e0
0180
0180
0180
00c0
07c0
07c0
0380
ENDCHAR
STARTCHAR Tcaron
ENCODING 171
SWIDTH 600 0
DWIDTH 20 0
BBX 17 26 1 0
BITMAP
0c1800
0f7800
07f000
01c000
008000
000000
ffff80
ffff80
ffff80
e1c380
e1c380
e1c380
e1c380
e1c380
e1c380
01c000
01c000
01c000
01c000
01c000
01c000
01c000
01c000
3ffe00
3ffe00
3ffe00
ENDCHAR
STARTCHAR Zacute
ENCODING 172
SWIDTH 600 0
DWIDTH 20 0
BBX 15 27 2 0
BITMAP
0018
003c
00f8
01e0
0380
0100
0000
7ffc
7ffc
7ffc
703c
7038
7078
70f0
71e0
01c0
03c0
0780
0f00
0e0e
1e0e
3c0e
780e
700e
fffe
fffe
fffe
ENDCHAR
STARTCHAR hyphen
ENCODING 173
SWIDTH 600 0
DWIDTH 20 0
BBX 15 3 2 8
BITMAP
fffe
fffe
fffe
ENDCHAR
STARTCHAR Zcaron
ENCODING 174
SWIDTH 600 0
DWIDTH 20 0
BBX 15 26 2 0
BITMAP
1830
1ef0
0fe0
0380
0100
0000
7ffc
7ffc
7ffc
703c
7038
7078
70f0
71e0
01c0
03c0
0780
0f00
0e0e
1e0e
3c0e
780e
700e
fffe
fffe
fffe
ENDCHAR
STARTCHAR Zabovedot
ENCODING 175
SWIDTH 600 0
DWIDTH 20 0
BBX 15 24 2 0
BITMAP
0380
0380
0380
0000
7ffc
7ffc
7ffc
703c
7038
7078
70f0
71e0
01c0
03c0
0780
0f00
0e0e
1e0e
3c0e
780e
700e
fffe
fffe
fffe
ENDCHAR
STARTCHAR degree
ENCODING 176
SWIDTH 600 0
DWIDTH 20 0
BBX 9 9 5 11
BITMAP
1c00
7700
c180
8080
8080
8080
c180
7700
1c00
ENDCHAR
STARTCHAR aogonek
ENCODING 177
SWIDTH 600 0
DWIDTH 20 0
BBX 16 23 2 -8
BITMAP
1fe0
7ff8
7ffc
703c
001c
001c
0ffc
7ffc
7ffc
f01c
e01c
e07c
ffff
7fdf
3f9f
0180
0380
0700
0600
0600
0700
03e0
01e0
ENDCHAR
STARTCHAR ogonek
ENCODING 178
SWIDTH 600 0
DWIDTH 20 0
BBX 6 8 7 -6
BITMAP
30
70
e0
c0
c0
e0
7c
3c
ENDCHAR
STARTCHAR lstroke
ENCODING 179
SWIDTH 600 0
DWIDTH 20 0
BBX 15 21 2 0
BITMAP
7f80
7f80
7f80
0380
0380
0380
0380
03b8
03f8
07f8
1fe0
3f80
3f80
3b80
0380
0380
0380
0380
fffe
fffe
fffe
ENDCHAR
STARTCHAR acute
ENCODING 180
SWIDTH 600 0
DWIDTH 20 0
BBX 8 6 6 15
BITMAP
06
0f
3e
78
e0
40
ENDCHAR
STARTCHAR lcaron
ENCODING 181
SWIDTH 630 0
DWIDTH 21 0
BBX 16 24 3 0
BITMAP
000f
000f
001e
7f9e
7f9c
7f9c
03b8
03b8
03b0
03b0
0380
0380
0380
0380
0380
0380
0380
0380
0380
0380
0380
fffe
fffe
fffe
ENDCHAR
STARTCHAR sacute
ENCODING 182
SWIDTH 600 0
DWIDTH 20 0
BBX 15 22 3 0
BITMAP
0018
003c
00f8
01e0
0380
0100
0000
0fec
3ffc
3ffc
783c
701c
7800
7fc0
3ff8
0ffc
e03e
e00e
f81e
fffc
fff8
e7e0
ENDCHAR
STARTCHAR caron
ENCODING 183
SWIDTH 600 0
DWIDTH 20 0
BBX 9 5 5 16
BITMAP
c180
f780
7f00
1c00
0800
ENDCHAR
STARTCHAR cedilla
ENCODING 184
SWIDTH 600 0
DWIDTH 20 0
BBX 5 7 6 -6
BITMAP
30
30
30
18
f8
f8
70
ENDCHAR
STARTCHAR scaron
ENCODING 185
SWIDTH 600 0
DWIDTH 20 0
BBX 15 21 3 0
BITMAP
1830
1ef0
0fe0
0380
0100
0000
0fec
3ffc
3ffc
783c
701c
7800
7fc0
3ff8
0ffc
e03e
e00e
f81e
fffc
fff8
e7e0
ENDCHAR
STARTCHAR scedilla
ENCODING 186
SWIDTH 600 0
DWIDTH 20 0
BBX 15 22 3 -7
BITMAP
0fec
3ffc
3ffc
783c
701c
7800
7fc0
3ff8
0ffc
e03e
e00e
f81e
fffc
fff8
e7e0
0180
0180
0180
00c0
07c0
07c0
0380
ENDCHAR
STARTCHAR tcaron
ENCODING 187
SWIDTH 600 0
DWIDTH 20 0
BBX 16 26 2 0
BITMAP
0078
0078
00f0
00f0
00e0
00e0
1dc0
1dc0
1d80
1d80
1c00
fffc
fffc
fffc
1c00
1c00
1c00
1c00
1c00
1c00
1c00
1c06
1e1f
1fff
0ffe
03f0
ENDCHAR
STARTCHAR zacute
ENCODING 188
SWIDTH 600 0
DWIDTH 20 0
BBX 13 22 4 0
BITMAP
0030
0078
01f0
03c0
0700
0200
0000
fff8
fff8
fff8
e0f0
e1e0
e3c0
0780
0f00
1e00
3c00
7838
f038
fff8
fff8
fff8
ENDCHAR
STARTCHAR doubleacute
ENCODING 189
SWIDTH 600 0
DWIDTH 20 0
BBX 12 6 4 16
BITMAP
0c30
1c70
38e0
71c0
e380
c300
ENDCHAR
STARTCHAR zcaron
ENCODING 190
SWIDTH 600 0
DWIDTH 20 0
BBX 13 21 4 0
BITMAP
3060
3de0
1fc0
0700
0200
0000
fff8
fff8
fff8
e0f0
e1e0
e3c0
0780
0f00
1e00
3c00
7838
f038
fff8
fff8
fff8
ENDCHAR
STARTCHAR zabovedot
ENCODING 191
SWIDTH 600 0
DWIDTH 20 0
BBX 13 19 4 0
BITMAP
0700
0700
0700
0000
fff8
fff8
fff8
e0f0
e1e0
e3c0
0780
0f00
1e00
3c00
7838
f038
fff8
fff8
fff8
ENDCHAR
STARTCHAR Racute
ENCODING 192
SWIDTH 600 0
DWIDTH 20 0
BBX 20 27 1 0
BITMAP
001800
003c00
00f800
01e000
038000
010000
000000
fff800
fffe00
ffff00
1c0f00
1c0780
1c0380
1c0380
1c0780
1c0f00
1ffe00
1ffc00
1ff800
1c3c00
1c1e00
1c0f00
1c0780
1c03c0
ff83f0
ff81f0
ff81f0
ENDCHAR
STARTCHAR Aacute
ENCODING 193
SWIDTH 600 0
DWIDTH 20 0
BBX 21 26 -1 0
BITMAP
000300
000f00
001e00
007800
006000
000000
1ff000
1ff800
1ff800
01fc00
01dc00
01dc00
03de00
038e00
038e00
070700
070700
070700
0fff80
0fff80
1fffc0
1c01c0
1c01c0
ff8ff8
ff8ff8
ff8ff8
ENDCHAR
STARTCHAR Acircumflex
ENCODING 194
SWIDTH 600 0
DWIDTH 20 0
BBX 21 26 -1 0
BITMAP
004000
00e000
03b800
071c00
0e0e00
000000
1ff000
1ff800
1ff800
01fc00
01dc00
01dc00
03de00
038e00
038e00
070700
070700
070700
0fff80
0fff80
1fffc0
1c01c0
1c01c0
ff8ff8
ff8ff8
ff8ff8
ENDCHAR
STARTCHAR Abreve
ENCODING 195
SWIDTH 600 0
DWIDTH 20 0
BBX 21 26 -1 0
BITMAP
183000
183000
1c7000
1ff000
07c000
000000
1ff000
1ff800
1ff800
01dc00
01dc00
01dc00
038e00
038e00
038e00
070700
070700
070700
0fff80
0fff80
1fffc0
1c01c0
1c01c0
ff8ff8
ff8ff8
ff8ff8
ENDCHAR
STARTCHAR Adiaeresis
ENCODING 196
SWIDTH 600 0
DWIDTH 20 0
BBX 21 25 -1 0
BITMAP
0c1800
1e3c00
1e3c00
0c1800
000000
1ff000
1ff800
1ff800
01fc00
01dc00
01dc00
03de00
038e00
038e00
070700
070700
070700
0fff80
0fff80
1fffc0
1c01c0
1c01c0
ff8ff8
ff8ff8
ff8ff8
ENDCHAR
STARTCHAR Lacute
ENCODING 197
SWIDTH 600 0
DWIDTH 20 0
BBX 17 27 1 0
BITMAP
006000
00f000
03e000
078000
0e0000
040000
000000
ffe000
ffe000
ffe000
0e0000
0e0000
0e0000
0e0000
0e0000
0e0000
0e0000
0e0000
0e0380
0e0380
0e0380
0e0380
0e0380
0e0380
ffff80
ffff80
ffff80
ENDCHAR
STARTCHAR Cacute
ENCODING 198
SWIDTH 600 0
DWIDTH 20 0
BBX 18 27 1 0
BITMAP
000600
000f00
003e00
007800
00e000
004000
000000
03f980
0fff80
1fff80
3e0f80
780780
700380
f00380
e00000
e00000
e00000
e00000
e00000
e00000
e00000
f00000
780380
7c07c0
3fff80
1fff00
07fc00
ENDCHAR
STARTCHAR Ccedilla
ENCODING 199
SWIDTH 600 0
DWIDTH 20 0
BBX 17 26 1 -6
BITMAP
03e300
0fff00
1fff00
3e1f00
780f00
700700
f00700
e00000
e00000
e00000
e00000
e00000
e00000
f00000
700100
780380
3e0f80
3fff00
0ffe00
03f800
00c000
00c000
00e000
047000
07f000
03e000
ENDCHAR
STARTCHAR Ccaron
ENCODING 200
SWIDTH 600 0
DWIDTH 20 0
BBX 18 26 1 0
BITMAP
060c00
07bc00
03f800
00e000
004000
000000
03f980
0fff80
1fff80
3e0f80
780780
700380
f00380
e00000
e00000
e00000
e00000
e00000
e00000
e00000
f00000
780380
7c07c0
3fff80
1fff00
07fc00
ENDCHAR
STARTCHAR Eacute
ENCODING 201
SWIDTH 600 0
DWIDTH 20 0
BBX 17 26 1 0
BITMAP
000c00
003c00
007800
01e000
018000
000000
ffff00
ffff00
ffff00
1c0700
1c0700
1c0700
1c7700
1c7000
1ff000
1ff000
1ff000
1c7000
1c7000
1c0380
1c0380
1c0380
1c0380
ffff80
ffff80
ffff80
ENDCHAR
STARTCHAR Eogonek
ENCODING 202
SWIDTH 600 0
DWIDTH 20 0
BBX 17 28 1 -8
BITMAP
ffff00
ffff00
ffff00
1c0700
1c0700
1c0700
1c7700
1c7000
1ff000
1ff000
1ff000
1c7000
1c7000
1c0380
1c0380
1c0380
1c0380
ffff80
ffff80
ffff80
00c000
01c000
038000
030000
030000
038000
01f000
00f000
ENDCHAR
STARTCHAR Ediaeresis
ENCODING 203
SWIDTH 600 0
DWIDTH 20 0
BBX 17 25 1 0
BITMAP
060c00
0f1e00
0f1e00
060c00
000000
ffff00
ffff00
ffff00
1c0700
1c0700
1c0700
1c7700
1c7000
1ff000
1ff000
1ff000
1c7000
1c7000
1c0380
1c0380
1c0380
1c0380
ffff80
ffff80
ffff80
ENDCHAR
STARTCHAR Ecaron
ENCODING 204
SWIDTH 600 0
DWIDTH 20 0
BBX 17 26 1 0
BITMAP
183000
1ef000
0fe000
038000
010000
000000
ffff00
ffff00
ffff00
1c0700
1c0700
1c0700
1c7700
1c7000
1ff000
1ff000
1ff000
1c7000
1c7000
1c0380
1c0380
1c0380
1c0380
ffff80
ffff80
ffff80
ENDCHAR
STARTCHAR Iacute
ENCODING 205
SWIDTH 600 0
DWIDTH 20 0
BBX 13 26 3 0
BITMAP
0030
00f0
01e0
0780
0600
0000
fff8
fff8
fff8
0700
0700
0700
0700
0700
0700
0700
0700
0700
0700
0700
0700
0700
0700
fff8
fff8
fff8
ENDCHAR
STARTCHAR Icircumflex
ENCODING 206
SWIDTH 600 0
DWIDTH 20 0
BBX 13 26 3 0
BITMAP
0200
0700
1dc0
38e0
7070
0000
fff8
fff8
fff8
0700
0700
0700
0700
0700
0700
0700
0700
0700
0700
0700
0700
0700
0700
fff8
fff8
fff8
ENDCHAR
STARTCHAR Dcaron
ENCODING 207
SWIDTH 600 0
DWIDTH 20 0
BBX 17 26 1 0
BITMAP
306000
3de000
1fc000
070000
020000
000000
ffe000
fff800
fffc00
383e00
380f00
380700
380780
380380
380380
380380
380380
380380
380380
380380
380780
380700
381f00
fffe00
fffc00
fff000
ENDCHAR
STARTCHAR Dstroke
ENCODING 208
SWIDTH 600 0
DWIDTH 20 0
BBX 17 20 2 0
BITMAP
ffe000
fff800
fffc00
383e00
380f00
380700
380700
380380
ff8380
ff8380
ff8380
380380
380380
380380
380700
380700
381e00
fffe00
fffc00
fff000
ENDCHAR
STARTCHAR Nacute
ENCODING 209
SWIDTH 600 0
DWIDTH 20 0
BBX 19 27 0 0
BITMAP
000600
000f00
003e00
007800
00e000
004000
000000
f81fe0
fc1fe0
fe1fe0
3e0380
3f0380
3f0380
3b8380
3bc380
39c380
39e380
38f380
387380
387b80
383b80
381f80
381f80
380f80
ff0780
ff0780
ff0380
ENDCHAR
STARTCHAR Ncaron
ENCODING 210
SWIDTH 600 0
DWIDTH 20 0
BBX 19 26 0 0
BITMAP
060c00
07bc00
03f800
00e000
004000
000000
f81fe0
fc1fe0
fe1fe0
3e0380
3f0380
3f0380
3b8380
3bc380
39c380
39e380
38f380
387380
387b80
383b80
381f80
381f80
380f80
ff0780
ff0780
ff0380
ENDCHAR
STARTCHAR Oacute
ENCODING 211
SWIDTH 600 0
DWIDTH 20 0
BBX 17 26 1 0
BITMAP
001800
007800
00f000
03c000
030000
000000
07f000
0ffc00
1ffc00
3c1e00
780f00
700700
700700
e00380
e00380
e00380
e00380
e00380
e00380
700700
780700
380e00
3e3e00
1ffc00
0ff800
03e000
ENDCHAR
STARTCHAR Ocircumflex
ENCODING 212
SWIDTH 600 0
DWIDTH 20 0
BBX 17 26 1 0
BITMAP
008000
01c000
077000
0e3800
1c1c00
000000
07f000
0ffc00
1ffc00
3c1e00
780f00
700700
700700
e00380
e00380
e00380
e00380
e00380
e00380
700700
780700
380e00
3e3e00
1ffc00
0ff800
03e000
ENDCHAR
STARTCHAR Odoubleacute
ENCODING 213
SWIDTH 600 0
DWIDTH 20 0
BBX 18 27 1 0
BITMAP
006180
00e380
01c700
038e00
071c00
061800
000000
03f000
0ffc00
1ffe00
3c0f00
780780
700380
f003c0
e001c0
e001c0
e001c0
e001c0
e001c0
e001c0
f003c0
700380
780780
3c0f00
1ffe00
0ffc00
03f000
ENDCHAR
STARTCHAR Odiaeresis
ENCODING 214
SWIDTH 600 0
DWIDTH 20 0
BBX 17 25 1 0
BITMAP
0c1800
1e3c00
1e3c00
0c1800
000000
07f000
0ffc00
1ffc00
3c1e00
780f00
700700
700700
e00380
e00380
e00380
e00380
e00380
e00380
700700
780700
380e00
3e3e00
1ffc00
0ff800
03e000
ENDCHAR
STARTCHAR multiply
ENCODING 215
SWIDTH 600 0
DWIDTH 20 0
BBX 15 16 2 0
BITMAP
e00e
f01e
f83e
783c
3c78
1ef0
0fe0
07c0
07c0
0fe0
1ef0
3c78
783c
f83e
f01e
e00e
ENDCHAR
STARTCHAR Rcaron
ENCODING 216
SWIDTH 600 0
DWIDTH 20 0
BBX 20 26 1 0
BITMAP
183000
1ef000
0fe000
038000
010000
000000
fff800
fffe00
ffff00
1c0f00
1c0780
1c0380
1c0380
1c0780
1c0f00
1ffe00
1ffc00
1ff800
1c3c00
1c1e00
1c0f00
1c0780
1c03c0
ff83f0
ff81f0
ff81f0
ENDCHAR
STARTCHAR Uring
ENCODING 217
SWIDTH 600 0
DWIDTH 20 0
BBX 19 26 0 0
BITMAP
00e000
01b000
011000
01b000
00e000
000000
ff1fe0
ff1fe0
ff1fe0
380380
380380
380380
380380
380380
380380
380380
380380
380380
380380
380380
380380
1c0700
1f1f00
0ffe00
07fc00
01f000
ENDCHAR
STARTCHAR Uacute
ENCODING 218
SWIDTH 600 0
DWIDTH 20 0
BBX 19 26 0 0
BITMAP
001c00
003c00
00f000
01e000
018000
000000
ff1fe0
ff1fe0
ff1fe0
380380
380380
380380
380380
380380
380380
380380
380380
380380
380380
380380
380380
1c0780
1f1f00
0ffe00
07fc00
01f800
ENDCHAR
STARTCHAR Udoubleacute
ENCODING 219
SWIDTH 600 0
DWIDTH 20 0
BBX 19 27 0 0
BITMAP
0030c0
0071c0
00e380
01c700
038e00
030c00
000000
ff1fe0
ff1fe0
ff1fe0
380380
380380
380380
380380
380380
380380
380380
380380
380380
380380
380380
380380
1c0700
1f1f00
0ffe00
07fc00
01f000
ENDCHAR
STARTCHAR Udiaeresis
ENCODING 220
SWIDTH 600 0
DWIDTH 20 0
BBX 19 26 0 0
BITMAP
060c00
0f1e00
0f1e00
060c00
000000
000000
ffbfe0
ffbfe0
ffbfe0
380380
380380
380380
380380
380380
380380
380380
380380
380380
380380
380380
380380
1c0780
1f1f00
0ffe00
07fc00
01f800
ENDCHAR
STARTCHAR Yacute
ENCODING 221
SWIDTH 600 0
DWIDTH 20 0
BBX 17 26 1 0
BITMAP
001800
007800
00f000
03c000
030000
000000
fe3f80
fe3f80
fe3f80
3c1e00
1c1c00
1e3c00
0e3800
0f7800
07f000
03e000
03e000
01c000
01c000
01c000
01c000
01c000
01c000
1ffc00
1ffc00
1ffc00
ENDCHAR
STARTCHAR Tcedilla
ENCODING 222
SWIDTH 600 0
DWIDTH 20 0
BBX 17 27 1 -7
BITMAP
ffff80
ffff80
ffff80
e1c380
e1c380
e1c380
e1c380
e1c380
e1c380
01c000
01c000
01c000
01c000
01c000
01c000
01c000
01c000
3ffe00
3ffe00
3ffe00
00c000
00c000
00c000
006000
03e000
03e000
01c000
ENDCHAR
STARTCHAR ssharp
ENCODING 223
SWIDTH 600 0
DWIDTH 20 0
BBX 17 22 0 -1
BITMAP
03e000
07f000
0ff800
1e3c00
1c1c00
1c1c00
1c1c00
1c3c00
1df800
1df800
1dfe00
1c1f00
1c0f00
1c0780
1c0380
1c0380
1dc380
1dc380
ffff00
feff00
fe7e00
001800
ENDCHAR
STARTCHAR racute
ENCODING 224
SWIDTH 600 0
DWIDTH 20 0
BBX 17 22 2 0
BITMAP
000c00
001e00
007c00
00f000
01c000
008000
000000
7e3e00
7eff00
7fff80
0fc700
0f0200
0f0000
0e0000
0e0000
0e0000
0e0000
0e0000
0e0000
fffc00
fffc00
fffc00
ENDCHAR
STARTCHAR aacute
ENCODING 225
SWIDTH 600 0
DWIDTH 20 0
BBX 17 22 2 0
BITMAP
002000
007000
00f000
03c000
078000
060000
000000
0fe000
3ff000
3ff800
383c00
001c00
001c00
0ffc00
3ffc00
7ffc00
781c00
e03c00
e07c00
ffff80
7fdf80
3f9f80
ENDCHAR
STARTCHAR acircumflex
ENCODING 226
SWIDTH 600 0
DWIDTH 20 0
BBX 17 22 1 0
BITMAP
008000
01c000
077000
0e3800
1c1c00
000000
000000
07e000
3ff000
3ff800
3c3c00
001c00
001c00
0ffc00
3ffc00
7ffc00
781c00
f01c00
e03c00
ffff80
7fff80
3f9f80
ENDCHAR
STARTCHAR abreve
ENCODING 227
SWIDTH 600 0
DWIDTH 20 0
BBX 16 21 2 0
BITMAP
1830
1830
1c70
1ff0
07c0
0000
1fe0
7ff8
7ffc
703c
001c
001c
0ffc
7ffc
7ffc
f01c
e01c
e07c
ffff
7fdf
3f9f
ENDCHAR
STARTCHAR adiaeresis
ENCODING 228
SWIDTH 600 0
DWIDTH 20 0
BBX 17 21 2 0
BITMAP
0c1800
1e3c00
1e3c00
0c1800
000000
000000
0fe000
3ff000
3ff800
383c00
001c00
001c00
0ffc00
3ffc00
7ffc00
781c00
f01c00
e07c00
ffff80
7fdf80
3f9f80
ENDCHAR
STARTCHAR lacute
ENCODING 229
SWIDTH 600 0
DWIDTH 20 0
BBX 15 28 3 0
BITMAP
00c0
01e0
07c0
0f00
1c00
0800
0000
7f80
7f80
7f80
0380
0380
0380
0380
0380
0380
0380
0380
0380
0380
0380
0380
0380
0380
0380
fffe
fffe
fffe
ENDCHAR
STARTCHAR cacute
ENCODING 230
SWIDTH 600 0
DWIDTH 20 0
BBX 16 22 2 0
BITMAP
000c
001e
007c
00f0
01c0
0080
0000
07e6
1ffe
3ffe
7c3e
700e
e00e
e00e
e000
e000
e000
f006
780f
7ffe
3ffc
0ff0
ENDCHAR
STARTCHAR ccedilla
ENCODING 231
SWIDTH 600 0
DWIDTH 20 0
BBX 16 21 2 -6
BITMAP
07e6
1ffe
3ffe
7c3e
700e
f00e
e00e
e000
e000
e000
f006
7c0f
3ffe
1ffc
07f0
0180
0180
01c0
08e0
0fc0
0380
ENDCHAR
STARTCHAR ccaron
ENCODING 232
SWIDTH 600 0
DWIDTH 20 0
BBX 16 21 2 0
BITMAP
0c18
0f78
07f0
01c0
0080
0000
07e6
1ffe
3ffe
7c3e
700e
e00e
e00e
e000
e000
e000
f006
780f
7ffe
3ffc
0ff0
ENDCHAR
STARTCHAR eacute
ENCODING 233
SWIDTH 600 0
DWIDTH 20 0
BBX 16 22 1 0
BITMAP
0010
0038
0078
01e0
03c0
0300
0000
07e0
1ff8
3ffc
7c3e
700e
f00f
ffff
ffff
ffff
e000
7000
7c0e
3fff
1ffe
07f0
ENDCHAR
STARTCHAR eogonek
ENCODING 234
SWIDTH 600 0
DWIDTH 20 0
BBX 18 23 1 -8
BITMAP
03f000
0ffc00
1ffe00
3e1f00
780780
700380
ffff80
ffff80
ffff80
f00000
780000
7e0380
3fffc0
1fff80
07fe00
00c000
01c000
038000
030000
030000
038000
01f000
00f000
ENDCHAR
STARTCHAR ediaeresis
ENCODING 235
SWIDTH 600 0
DWIDTH 20 0
BBX 16 21 1 0
BITMAP
0c18
1e3c
1e3c
0c18
0000
0000
07e0
1ff8
3ffc
7c3e
700e
f00f
ffff
ffff
ffff
e000
7000
7c1f
3fff
1fff
07f0
ENDCHAR
STARTCHAR ecaron
ENCODING 236
SWIDTH 600 0
DWIDTH 20 0
BBX 18 21 1 0
BITMAP
0c1800
0f7800
07f000
01c000
008000
000000
03f000
0ffc00
1ffe00
3e1f00
780780
700380
ffff80
ffff80
ffff80
f00000
780000
7e0380
3fffc0
1fff80
07fe00
ENDCHAR
STARTCHAR iacute
ENCODING 237
SWIDTH 600 0
DWIDTH 20 0
BBX 15 23 2 0
BITMAP
0080
01c0
03c0
0f00
1e00
1800
0000
0000
7f80
7f80
7f80
0380
0380
0380
0380
0380
0380
0380
0380
0380
fffe
fffe
fffe
ENDCHAR
STARTCHAR icircumflex
ENCODING 238
SWIDTH 600 0
DWIDTH 20 0
BBX 15 22 2 0
BITMAP
0200
0700
1dc0
38e0
7070
0000
0000
7f80
7f80
7f80
0380
0380
0380
0380
0380
0380
0380
0380
0380
fffe
fffe
fffe
ENDCHAR
STARTCHAR dcaron
ENCODING 239
SWIDTH 720 0
DWIDTH 24 0
BBX 23 24 1 0
BITMAP
00001e
00001e
00003c
003f3c
003f38
003f38
000770
000770
000760
07e760
1fff00
3fff00
7c3f00
700f00
f00f00
e00700
e00700
e00700
e00700
700f00
7c3f00
3fffe0
1ff7e0
07e7e0
ENDCHAR
STARTCHAR dstroke
ENCODING 240
SWIDTH 600 0
DWIDTH 20 0
BBX 19 21 1 0
BITMAP
003f00
003f00
003f00
000700
003fe0
003fe0
07e700
1fff00
3fff00
7c3f00
700f00
f00f00
e00700
e00700
e00700
e00700
700f00
7c3f00
3fffe0
1ff7e0
07e7e0
ENDCHAR
STARTCHAR nacute
ENCODING 241
SWIDTH 600 0
DWIDTH 20 0
BBX 17 22 2 0
BITMAP
003000
007800
01f000
03c000
070000
020000
000000
f9f000
fbf800
fffc00
3e1e00
3c0e00
380e00
380e00
380e00
380e00
380e00
380e00
380e00
fe3f80
fe3f80
fe3f80
ENDCHAR
STARTCHAR ncaron
ENCODING 242
SWIDTH 600 0
DWIDTH 20 0
BBX 17 21 2 0
BITMAP
306000
3de000
1fc000
070000
020000
000000
f9f000
fbf800
fffc00
3e1e00
3c0e00
380e00
380e00
380e00
380e00
380e00
380e00
380e00
fe3f80
fe3f80
fe3f80
ENDCHAR
STARTCHAR oacute
ENCODING 243
SWIDTH 600 0
DWIDTH 20 0
BBX 17 22 1 0
BITMAP
001000
003800
007800
01e000
03c000
030000
000000
07f000
0ff800
3ffe00
3c1e00
780f00
f00780
e00380
e00380
e00380
f00780
780f00
7c1f00
3ffe00
1ffc00
07f000
ENDCHAR
STARTCHAR ocircumflex
ENCODING 244
SWIDTH 600 0
DWIDTH 20 0
BBX 17 22 1 0
BITMAP
008000
01c000
077000
0e3800
1c1c00
000000
000000
07f000
0ff800
3ffe00
3c1e00
780f00
f00780
e00380
e00380
e00380
f00780
780f00
7c1f00
3ffe00
1ffc00
07f000
ENDCHAR
STARTCHAR odoubleacute
ENCODING 245
SWIDTH 600 0
DWIDTH 20 0
BBX 17 22 2 0
BITMAP
006180
00e380
01c700
038e00
071c00
061800
000000
07f000
1ffc00
3ffe00
780f00
700700
f00780
e00380
e00380
e00380
f00780
700700
780f00
3ffe00
1ffc00
07f000
ENDCHAR
STARTCHAR odiaeresis
ENCODING 246
SWIDTH 600 0
DWIDTH 20 0
BBX 17 21 1 0
BITMAP
0c1800
1e3c00
1e3c00
0c1800
000000
000000
07f000
0ff800
3ffe00
3c1e00
780f00
f00780
e00380
e00380
e00380
f00780
780f00
7c1f00
3ffe00
1ffc00
07f000
ENDCHAR
STARTCHAR division
ENCODING 247
SWIDTH 600 0
DWIDTH 20 0
BBX 15 15 2 2
BITMAP
0380
07c0
07c0
0380
0000
0000
fffe
fffe
fffe
0000
0000
0380
07c0
07c0
0380
ENDCHAR
STARTCHAR rcaron
ENCODING 248
SWIDTH 600 0
DWIDTH 20 0
BBX 17 21 2 0
BITMAP
0c1800
0f7800
07f000
01c000
008000
000000
7e3e00
7eff00
7fff80
0fc700
0f0200
0f0000
0e0000
0e0000
0e0000
0e0000
0e0000
0e0000
fffc00
fffc00
fffc00
ENDCHAR
STARTCHAR uring
ENCODING 249
SWIDTH 600 0
DWIDTH 20 0
BBX 18 21 1 0
BITMAP
038000
06c000
044000
06c000
038000
000000
fc3f00
fc3f00
fc3f00
1c0700
1c0700
1c0700
1c0700
1c0700
1c0700
1c0700
1c0700
1e1f00
1fffc0
0fffc0
07f7c0
ENDCHAR
STARTCHAR uacute
ENCODING 250
SWIDTH 600 0
DWIDTH 20 0
BBX 18 22 0 0
BITMAP
000800
001c00
003c00
00f000
01e000
018000
000000
fc3f00
fc3f00
fc3f00
1c0700
1c0700
1c0700
1c0700
1c0700
1c0700
1c0700
1c0f00
1c1f00
1fffc0
0ff7c0
07e7c0
ENDCHAR
STARTCHAR udoubleacute
ENCODING 251
SWIDTH 600 0
DWIDTH 20 0
BBX 18 22 1 0
BITMAP
00c300
01c700
038e00
071c00
0e3800
0c3000
000000
fc3f00
fc3f00
fc3f00
1c0700
1c0700
1c0700
1c0700
1c0700
1c0700
1c0700
1c0700
1e1f00
1fffc0
0fffc0
07f7c0
ENDCHAR
STARTCHAR udiaeresis
ENCODING 252
SWIDTH 600 0
DWIDTH 20 0
BBX 18 21 0 0
BITMAP
0c1800
1e3c00
1e3c00
0c1800
000000
000000
fc3f00
fc3f00
fc3f00
1c0700
1c0700
1c0700
1c0700
1c0700
1c0700
1c0700
1c0f00
1c1f00
1fffc0
0ff7c0
07e7c0
ENDCHAR
STARTCHAR yacute
ENCODING 253
SWIDTH 600 0
DWIDTH 20 0
BBX 17 29 1 -7
BITMAP
001000
003800
007800
01e000
03c000
030000
000000
fe3f80
fe3f80
fe3f80
780f00
380e00
3c1e00
1c1c00
1e3c00
0e3800
0f7800
077000
07f000
03e000
03e000
01c000
01c000
038000
038000
070000
ffe000
ffe000
ffe000
ENDCHAR
STARTCHAR tcedilla
ENCODING 254
SWIDTH 600 0
DWIDTH 20 0
BBX 16 27 2 -7
BITMAP
1c00
1c00
1c00
1c00
1c00
fffc
fffc
fffc
1c00
1c00
1c00
1c00
1c00
1c00
1c00
1c06
1e1f
1fff
0ffe
03f0
0180
0180
0180
00c0
07c0
07c0
0380
ENDCHAR
STARTCHAR abovedot
ENCODING 255
SWIDTH 600 0
DWIDTH 20 0
BBX 3 3 8 17
BITMAP
e0
e0
e0
ENDCHAR
ENDFONT
