STARTFONT 2.1
FONT -Adobe-Helvetica-Bold-R-Normal--20-140-100-100-P-105-ISO8859-2
SIZE 14 100 100
FONTBOUNDINGBOX 20 23 -1 -5
COMMENT $XConsortium: helvB14.bdf,v 1.7 95/01/26 17:54:00 gildea Exp $
COMMENT 
COMMENT +
COMMENT  Copyright 1984-1989, 1994 Adobe Systems Incorporated.
COMMENT  Copyright 1988, 1994 Digital Equipment Corporation.
COMMENT
COMMENT  Adobe is a trademark of Adobe Systems Incorporated which may be
COMMENT  registered in certain jurisdictions.
COMMENT  Permission to use these trademarks is hereby granted only in
COMMENT  association with the images described in this file.
COMMENT
COMMENT  Permission to use, copy, modify, distribute and sell this software
COMMENT  and its documentation for any purpose and without fee is hereby
COMMENT  granted, provided that the above copyright notices appear in all
COMMENT  copies and that both those copyright notices and this permission
COMMENT  notice appear in supporting documentation, and that the names of
COMMENT  Adobe Systems and Digital Equipment Corporation not be used in
COMMENT  advertising or publicity pertaining to distribution of the software
COMMENT  without specific, written prior permission.  Adobe Systems and
COMMENT  Digital Equipment Corporation make no representations about the
COMMENT  suitability of this software for any purpose.  It is provided "as
COMMENT  is" without express or implied warranty.
COMMENT -
COMMENT  
COMMENT  Translation to ISO8859-2 by Cub Soft;  Petr.Kolar@vslib.cz
COMMENT  
STARTPROPERTIES 28
FOUNDRY "Adobe"
FAMILY_NAME "Helvetica"
WEIGHT_NAME "Bold"
SLANT "R"
SETWIDTH_NAME "Normal"
ADD_STYLE_NAME ""
PIXEL_SIZE 20
POINT_SIZE 140
RESOLUTION_X 100
RESOLUTION_Y 100
SPACING "P"
AVERAGE_WIDTH 105
CHARSET_REGISTRY "ISO8859"
CHARSET_ENCODING "2"
CAP_HEIGHT 14
X_HEIGHT 10
FONT_ASCENT 16
FONT_DESCENT 5
FACE_NAME "Helvetica Bold"
COPYRIGHT "Copyright (c) 1984, 1987 Adobe Systems Incorporated. All Rights Reserved. Copyright (c) 1988, 1991 Digital Equipment Corporation. All Rights Reserved., Copyright 1996 Cub Soft"
NOTICE "Helvetica is a trademark of Linotype-Hell AG and/or its subsidiaries.  "
_DEC_DEVICE_FONTNAMES "PS=Helvetica-Bold"
_DEC_PRODUCTINFO "DECwindows Fonts V2.2, 11-Nov-1991"
DEFAULT_CHAR 32
RELATIVE_SETWIDTH 50
RELATIVE_WEIGHT 70
CHARSET_COLLECTIONS "ASCII ISO8859-2 ADOBE-STANDARD"
FULL_NAME "Helvetica Bold"
ENDPROPERTIES
CHARS 191
STARTCHAR space
ENCODING 32
SWIDTH 278 0
DWIDTH 5 0
BBX 1 1 0 0
BITMAP
00
ENDCHAR
STARTCHAR exclam
ENCODING 33
SWIDTH 333 0
DWIDTH 5 0
BBX 3 14 1 0
BITMAP
e0
e0
e0
e0
e0
e0
e0
e0
c0
c0
00
e0
e0
e0
ENDCHAR
STARTCHAR quotedbl
ENCODING 34
SWIDTH 474 0
DWIDTH 7 0
BBX 5 5 1 9
BITMAP
d8
d8
d8
d8
90
ENDCHAR
STARTCHAR numbersign
ENCODING 35
SWIDTH 556 0
DWIDTH 11 0
BBX 11 13 0 0
BITMAP
0d80
0d80
0d80
7fe0
7fe0
1b00
1b00
1b00
ffc0
ffc0
3600
3600
3600
ENDCHAR
STARTCHAR dollar
ENCODING 36
SWIDTH 556 0
DWIDTH 10 0
BBX 10 16 0 -2
BITMAP
0400
3f00
7f80
e580
e400
e400
7c00
3f00
0f80
09c0
e9c0
e9c0
7f80
3f00
0800
0800
ENDCHAR
STARTCHAR percent
ENCODING 37
SWIDTH 889 0
DWIDTH 16 0
BBX 13 13 1 0
BITMAP
7860
fc60
ccc0
cc80
fd80
7b00
0200
06f0
0df8
0998
1998
31f8
30f0
ENDCHAR
STARTCHAR ampersand
ENCODING 38
SWIDTH 722 0
DWIDTH 14 0
BBX 13 14 1 0
BITMAP
1e00
3f00
7380
6180
7300
3e00
1c60
7e60
e7e0
c3c0
c1c0
e3e0
7f70
3e38
ENDCHAR
STARTCHAR apostrophe
ENCODING 39
SWIDTH 278 0
DWIDTH 5 0
BBX 3 5 1 9
BITMAP
e0
e0
60
60
c0
ENDCHAR
STARTCHAR parenleft
ENCODING 40
SWIDTH 333 0
DWIDTH 7 0
BBX 6 18 1 -4
BITMAP
1c
38
30
70
60
e0
e0
e0
e0
e0
e0
e0
e0
60
70
30
38
1c
ENDCHAR
STARTCHAR parenright
ENCODING 41
SWIDTH 333 0
DWIDTH 7 0
BBX 6 18 0 -4
BITMAP
e0
70
30
38
18
1c
1c
1c
1c
1c
1c
1c
1c
18
38
30
70
e0
ENDCHAR
STARTCHAR asterisk
ENCODING 42
SWIDTH 389 0
DWIDTH 9 0
BBX 7 6 1 8
BITMAP
10
d6
7c
38
6c
44
ENDCHAR
STARTCHAR plus
ENCODING 43
SWIDTH 584 0
DWIDTH 11 0
BBX 8 8 1 1
BITMAP
18
18
18
ff
ff
18
18
18
ENDCHAR
STARTCHAR comma
ENCODING 44
SWIDTH 278 0
DWIDTH 5 0
BBX 3 6 1 -3
BITMAP
e0
e0
e0
60
c0
80
ENDCHAR
STARTCHAR minus
ENCODING 45
SWIDTH 584 0
DWIDTH 11 0
BBX 9 2 1 4
BITMAP
ff80
ff80
ENDCHAR
STARTCHAR period
ENCODING 46
SWIDTH 278 0
DWIDTH 5 0
BBX 3 3 1 0
BITMAP
e0
e0
e0
ENDCHAR
STARTCHAR slash
ENCODING 47
SWIDTH 278 0
DWIDTH 5 0
BBX 5 14 0 0
BITMAP
18
18
18
38
30
30
30
70
60
60
e0
c0
c0
c0
ENDCHAR
STARTCHAR zero
ENCODING 48
SWIDTH 556 0
DWIDTH 10 0
BBX 9 13 0 0
BITMAP
1c00
7f00
7700
e380
e380
e380
e380
e380
e380
e380
7700
7f00
1c00
ENDCHAR
STARTCHAR one
ENCODING 49
SWIDTH 556 0
DWIDTH 10 0
BBX 6 13 1 0
BITMAP
1c
3c
fc
fc
1c
1c
1c
1c
1c
1c
1c
1c
1c
ENDCHAR
STARTCHAR two
ENCODING 50
SWIDTH 556 0
DWIDTH 10 0
BBX 9 13 0 0
BITMAP
3e00
7f00
e380
e380
0380
0700
1f00
3e00
7800
7000
e000
ff80
ff80
ENDCHAR
STARTCHAR three
ENCODING 51
SWIDTH 556 0
DWIDTH 10 0
BBX 9 13 0 0
BITMAP
3e00
7f00
e700
e300
0700
1e00
1f00
0780
0380
e380
e780
7f00
3e00
ENDCHAR
STARTCHAR four
ENCODING 52
SWIDTH 556 0
DWIDTH 10 0
BBX 9 13 0 0
BITMAP
0700
0f00
1f00
3f00
3700
7700
6700
e700
ff80
ff80
0700
0700
0700
ENDCHAR
STARTCHAR five
ENCODING 53
SWIDTH 556 0
DWIDTH 10 0
BBX 9 13 0 0
BITMAP
ff00
ff00
e000
e000
fe00
ff00
e780
0380
0380
e380
e780
ff00
7e00
ENDCHAR
STARTCHAR six
ENCODING 54
SWIDTH 556 0
DWIDTH 10 0
BBX 9 13 0 0
BITMAP
3f00
7f80
7180
e000
ee00
ff00
f380
e180
e180
e180
f380
7f00
3e00
ENDCHAR
STARTCHAR seven
ENCODING 55
SWIDTH 556 0
DWIDTH 10 0
BBX 9 13 0 0
BITMAP
ff80
ff80
0380
0700
0e00
0e00
1c00
1c00
3800
3800
7000
7000
7000
ENDCHAR
STARTCHAR eight
ENCODING 56
SWIDTH 556 0
DWIDTH 10 0
BBX 9 13 0 0
BITMAP
3e00
7f00
e380
e380
e380
7f00
3e00
7700
e380
e380
e380
7f00
3e00
ENDCHAR
STARTCHAR nine
ENCODING 57
SWIDTH 556 0
DWIDTH 10 0
BBX 9 13 0 0
BITMAP
3e00
7f00
e780
c380
c380
c380
e780
7f80
3b80
0380
c700
ff00
7e00
ENDCHAR
STARTCHAR colon
ENCODING 58
SWIDTH 333 0
DWIDTH 6 0
BBX 3 10 1 0
BITMAP
e0
e0
e0
00
00
00
00
e0
e0
e0
ENDCHAR
STARTCHAR semicolon
ENCODING 59
SWIDTH 333 0
DWIDTH 6 0
BBX 3 13 1 -3
BITMAP
e0
e0
e0
00
00
00
00
e0
e0
e0
60
c0
80
ENDCHAR
STARTCHAR less
ENCODING 60
SWIDTH 584 0
DWIDTH 11 0
BBX 9 9 1 0
BITMAP
0380
0f80
3e00
7800
e000
7800
3e00
0f80
0380
ENDCHAR
STARTCHAR equal
ENCODING 61
SWIDTH 584 0
DWIDTH 11 0
BBX 9 5 1 3
BITMAP
ff80
ff80
0000
ff80
ff80
ENDCHAR
STARTCHAR greater
ENCODING 62
SWIDTH 584 0
DWIDTH 11 0
BBX 9 9 1 0
BITMAP
e000
f800
3e00
0f00
0380
0f00
3e00
f800
e000
ENDCHAR
STARTCHAR question
ENCODING 63
SWIDTH 611 0
DWIDTH 10 0
BBX 8 14 1 0
BITMAP
7e
ff
e7
e7
0e
1e
1c
38
38
38
00
38
38
38
ENDCHAR
STARTCHAR at
ENCODING 64
SWIDTH 975 0
DWIDTH 18 0
BBX 16 17 1 -3
BITMAP
07f0
1ffc
3c1e
7006
63b7
e7f3
c663
cc63
ccc3
ccc6
ccc6
effc
e7b8
7000
3c00
1ff0
07f0
ENDCHAR
STARTCHAR A
ENCODING 65
SWIDTH 722 0
DWIDTH 14 0
BBX 12 14 1 0
BITMAP
0f00
0f00
1f80
1980
1980
39c0
39c0
30c0
70e0
7fe0
7fe0
e070
e070
e070
ENDCHAR
STARTCHAR B
ENCODING 66
SWIDTH 722 0
DWIDTH 14 0
BBX 11 14 2 0
BITMAP
fe00
ff80
e3c0
e1c0
e1c0
e380
ff80
ffc0
e1e0
e0e0
e0e0
e1e0
ffc0
ff00
ENDCHAR
STARTCHAR C
ENCODING 67
SWIDTH 722 0
DWIDTH 14 0
BBX 12 14 1 0
BITMAP
0f80
3fe0
78e0
7070
f070
e000
e000
e000
e000
f070
7070
78e0
3fe0
0f80
ENDCHAR
STARTCHAR D
ENCODING 68
SWIDTH 722 0
DWIDTH 14 0
BBX 12 14 1 0
BITMAP
ff00
ffc0
e1e0
e0e0
e070
e070
e070
e070
e070
e070
e0e0
e1e0
ffc0
ff00
ENDCHAR
STARTCHAR E
ENCODING 69
SWIDTH 667 0
DWIDTH 13 0
BBX 10 14 2 0
BITMAP
ffc0
ffc0
e000
e000
e000
e000
ff80
ff80
e000
e000
e000
e000
ffc0
ffc0
ENDCHAR
STARTCHAR F
ENCODING 70
SWIDTH 611 0
DWIDTH 12 0
BBX 10 14 1 0
BITMAP
ffc0
ffc0
e000
e000
e000
e000
ff80
ff80
e000
e000
e000
e000
e000
e000
ENDCHAR
STARTCHAR G
ENCODING 71
SWIDTH 778 0
DWIDTH 15 0
BBX 12 14 1 0
BITMAP
0f80
3fe0
78e0
7070
f070
e000
e000
e3f0
e3f0
f070
7070
78f0
3ff0
1fb0
ENDCHAR
STARTCHAR H
ENCODING 72
SWIDTH 722 0
DWIDTH 14 0
BBX 12 14 1 0
BITMAP
e070
e070
e070
e070
e070
e070
fff0
fff0
e070
e070
e070
e070
e070
e070
ENDCHAR
STARTCHAR I
ENCODING 73
SWIDTH 278 0
DWIDTH 5 0
BBX 3 14 1 0
BITMAP
e0
e0
e0
e0
e0
e0
e0
e0
e0
e0
e0
e0
e0
e0
ENDCHAR
STARTCHAR J
ENCODING 74
SWIDTH 556 0
DWIDTH 10 0
BBX 9 14 0 0
BITMAP
0380
0380
0380
0380
0380
0380
0380
0380
0380
e380
e380
f780
7f00
3e00
ENDCHAR
STARTCHAR K
ENCODING 75
SWIDTH 722 0
DWIDTH 14 0
BBX 13 14 1 0
BITMAP
e0f0
e1e0
e3c0
e780
ef00
fe00
fc00
fe00
ef00
e780
e3c0
e1e0
e0f0
e078
ENDCHAR
STARTCHAR L
ENCODING 76
SWIDTH 611 0
DWIDTH 11 0
BBX 9 14 1 0
BITMAP
e000
e000
e000
e000
e000
e000
e000
e000
e000
e000
e000
e000
ff80
ff80
ENDCHAR
STARTCHAR M
ENCODING 77
SWIDTH 833 0
DWIDTH 16 0
BBX 14 14 1 0
BITMAP
e01c
e01c
f03c
f03c
f87c
f87c
f87c
ecdc
ecdc
ecdc
e79c
e79c
e31c
e31c
ENDCHAR
STARTCHAR N
ENCODING 78
SWIDTH 722 0
DWIDTH 14 0
BBX 12 14 1 0
BITMAP
e070
f070
f070
f870
fc70
ec70
ee70
e670
e770
e370
e1f0
e1f0
e0f0
e070
ENDCHAR
STARTCHAR O
ENCODING 79
SWIDTH 778 0
DWIDTH 15 0
BBX 13 14 1 0
BITMAP
0f80
3fe0
78f0
7070
f078
e038
e038
e038
e038
f078
7070
78f0
3fe0
0f80
ENDCHAR
STARTCHAR P
ENCODING 80
SWIDTH 667 0
DWIDTH 13 0
BBX 11 14 1 0
BITMAP
ff00
ffc0
e1e0
e0e0
e0e0
e0e0
e1e0
ffc0
ff00
e000
e000
e000
e000
e000
ENDCHAR
STARTCHAR Q
ENCODING 81
SWIDTH 778 0
DWIDTH 15 0
BBX 13 15 1 -1
BITMAP
0f80
3fe0
78f0
7070
f078
e038
e038
e038
e038
f378
73f0
79f0
3fe0
0ff0
0030
ENDCHAR
STARTCHAR R
ENCODING 82
SWIDTH 722 0
DWIDTH 14 0
BBX 12 14 1 0
BITMAP
ff00
ffc0
e1e0
e0e0
e0e0
e1e0
ffc0
ff80
e1c0
e0e0
e0e0
e0e0
e0e0
e0f0
ENDCHAR
STARTCHAR S
ENCODING 83
SWIDTH 667 0
DWIDTH 13 0
BBX 11 14 1 0
BITMAP
3f80
7fc0
f1e0
e0e0
f000
7e00
3f80
0fc0
01e0
e0e0
e0e0
f1e0
7fc0
3f80
ENDCHAR
STARTCHAR T
ENCODING 84
SWIDTH 611 0
DWIDTH 11 0
BBX 11 14 0 0
BITMAP
ffe0
ffe0
0e00
0e00
0e00
0e00
0e00
0e00
0e00
0e00
0e00
0e00
0e00
0e00
ENDCHAR
STARTCHAR U
ENCODING 85
SWIDTH 722 0
DWIDTH 14 0
BBX 12 14 1 0
BITMAP
e070
e070
e070
e070
e070
e070
e070
e070
e070
e070
e070
70e0
7fe0
1f80
ENDCHAR
STARTCHAR V
ENCODING 86
SWIDTH 667 0
DWIDTH 13 0
BBX 13 14 0 0
BITMAP
e038
e038
7070
7070
3060
38e0
38e0
1dc0
1dc0
0d80
0f80
0f80
0700
0700
ENDCHAR
STARTCHAR W
ENCODING 87
SWIDTH 944 0
DWIDTH 17 0
BBX 15 14 1 0
BITMAP
e38e
e38e
e38e
e38e
739c
739c
739c
76dc
36d8
36d8
3ef8
1c70
1c70
1c70
ENDCHAR
STARTCHAR X
ENCODING 88
SWIDTH 667 0
DWIDTH 12 0
BBX 12 14 0 0
BITMAP
e070
e070
70e0
79e0
1980
1f80
0f00
1f80
1980
39c0
70e0
70e0
e070
e070
ENDCHAR
STARTCHAR Y
ENCODING 89
SWIDTH 667 0
DWIDTH 13 0
BBX 13 14 0 0
BITMAP
e038
e038
7070
38e0
38e0
1dc0
1dc0
0f80
0700
0700
0700
0700
0700
0700
ENDCHAR
STARTCHAR Z
ENCODING 90
SWIDTH 611 0
DWIDTH 12 0
BBX 10 14 1 0
BITMAP
ffc0
ffc0
01c0
0380
0700
0700
0e00
1c00
3800
3800
7000
e000
ffc0
ffc0
ENDCHAR
STARTCHAR bracketleft
ENCODING 91
SWIDTH 333 0
DWIDTH 6 0
BBX 5 18 1 -4
BITMAP
f8
f8
e0
e0
e0
e0
e0
e0
e0
e0
e0
e0
e0
e0
e0
e0
f8
f8
ENDCHAR
STARTCHAR backslash
ENCODING 92
SWIDTH 278 0
DWIDTH 5 0
BBX 5 14 0 0
BITMAP
c0
c0
c0
e0
60
60
60
70
30
30
38
18
18
18
ENDCHAR
STARTCHAR bracketright
ENCODING 93
SWIDTH 333 0
DWIDTH 6 0
BBX 5 18 0 -4
BITMAP
f8
f8
38
38
38
38
38
38
38
38
38
38
38
38
38
38
f8
f8
ENDCHAR
STARTCHAR asciicircum
ENCODING 94
SWIDTH 584 0
DWIDTH 10 0
BBX 10 7 0 6
BITMAP
0c00
1e00
1e00
3300
7380
6180
e1c0
ENDCHAR
STARTCHAR underscore
ENCODING 95
SWIDTH 556 0
DWIDTH 10 0
BBX 10 2 0 -4
BITMAP
ffc0
ffc0
ENDCHAR
STARTCHAR grave
ENCODING 96
SWIDTH 333 0
DWIDTH 5 0
BBX 5 3 0 11
BITMAP
e0
70
38
ENDCHAR
STARTCHAR a
ENCODING 97
SWIDTH 556 0
DWIDTH 11 0
BBX 10 10 1 0
BITMAP
3e00
7f00
6380
0780
3f80
7b80
e380
e780
fb80
7bc0
ENDCHAR
STARTCHAR b
ENCODING 98
SWIDTH 611 0
DWIDTH 12 0
BBX 10 14 1 0
BITMAP
e000
e000
e000
e000
ef00
ff80
f380
e1c0
e1c0
e1c0
e1c0
f380
ff80
ef00
ENDCHAR
STARTCHAR c
ENCODING 99
SWIDTH 556 0
DWIDTH 11 0
BBX 9 10 1 0
BITMAP
1e00
7f80
7380
e000
e000
e000
e000
7380
7f80
1e00
ENDCHAR
STARTCHAR d
ENCODING 100
SWIDTH 611 0
DWIDTH 12 0
BBX 10 14 1 0
BITMAP
01c0
01c0
01c0
01c0
3dc0
7fc0
73c0
e1c0
e1c0
e1c0
e1c0
73c0
7fc0
3dc0
ENDCHAR
STARTCHAR e
ENCODING 101
SWIDTH 556 0
DWIDTH 11 0
BBX 9 10 1 0
BITMAP
1e00
7f00
7380
e180
ff80
ff80
e000
7380
7f80
1e00
ENDCHAR
STARTCHAR f
ENCODING 102
SWIDTH 333 0
DWIDTH 7 0
BBX 7 14 0 0
BITMAP
1e
3e
38
38
fe
fe
38
38
38
38
38
38
38
38
ENDCHAR
STARTCHAR g
ENCODING 103
SWIDTH 611 0
DWIDTH 12 0
BBX 10 14 1 -4
BITMAP
3dc0
7fc0
73c0
e1c0
e1c0
e1c0
e1c0
73c0
7fc0
3dc0
01c0
7380
7f80
1e00
ENDCHAR
STARTCHAR h
ENCODING 104
SWIDTH 611 0
DWIDTH 11 0
BBX 9 14 1 0
BITMAP
e000
e000
e000
e000
ef00
ff80
f380
e380
e380
e380
e380
e380
e380
e380
ENDCHAR
STARTCHAR i
ENCODING 105
SWIDTH 278 0
DWIDTH 5 0
BBX 3 14 1 0
BITMAP
e0
e0
e0
00
e0
e0
e0
e0
e0
e0
e0
e0
e0
e0
ENDCHAR
STARTCHAR j
ENCODING 106
SWIDTH 278 0
DWIDTH 5 0
BBX 5 18 -1 -4
BITMAP
38
38
38
00
38
38
38
38
38
38
38
38
38
38
38
38
f8
f0
ENDCHAR
STARTCHAR k
ENCODING 107
SWIDTH 556 0
DWIDTH 10 0
BBX 9 14 1 0
BITMAP
e000
e000
e000
e000
e700
ee00
fc00
f800
f800
fc00
ee00
e700
e780
e380
ENDCHAR
STARTCHAR l
ENCODING 108
SWIDTH 278 0
DWIDTH 5 0
BBX 3 14 1 0
BITMAP
e0
e0
e0
e0
e0
e0
e0
e0
e0
e0
e0
e0
e0
e0
ENDCHAR
STARTCHAR m
ENCODING 109
SWIDTH 889 0
DWIDTH 17 0
BBX 15 10 1 0
BITMAP
ef3c
fffe
f3ce
e38e
e38e
e38e
e38e
e38e
e38e
e38e
ENDCHAR
STARTCHAR n
ENCODING 110
SWIDTH 611 0
DWIDTH 11 0
BBX 9 10 1 0
BITMAP
ef00
ff80
f380
e380
e380
e380
e380
e380
e380
e380
ENDCHAR
STARTCHAR o
ENCODING 111
SWIDTH 611 0
DWIDTH 12 0
BBX 10 10 1 0
BITMAP
1e00
7f80
7380
e1c0
e1c0
e1c0
e1c0
7380
7f80
1e00
ENDCHAR
STARTCHAR p
ENCODING 112
SWIDTH 611 0
DWIDTH 12 0
BBX 10 14 1 -4
BITMAP
ef00
ff80
f380
e1c0
e1c0
e1c0
e1c0
f380
ff80
ef00
e000
e000
e000
e000
ENDCHAR
STARTCHAR q
ENCODING 113
SWIDTH 611 0
DWIDTH 12 0
BBX 10 14 1 -4
BITMAP
3dc0
7fc0
73c0
e1c0
e1c0
e1c0
e1c0
73c0
7fc0
3dc0
01c0
01c0
01c0
01c0
ENDCHAR
STARTCHAR r
ENCODING 114
SWIDTH 389 0
DWIDTH 7 0
BBX 6 10 1 0
BITMAP
ec
fc
fc
e0
e0
e0
e0
e0
e0
e0
ENDCHAR
STARTCHAR s
ENCODING 115
SWIDTH 556 0
DWIDTH 11 0
BBX 9 10 1 0
BITMAP
3f00
7f80
e380
e000
ff00
3f80
0380
e380
ff00
7e00
ENDCHAR
STARTCHAR t
ENCODING 116
SWIDTH 333 0
DWIDTH 6 0
BBX 6 13 0 0
BITMAP
70
70
70
fc
fc
70
70
70
70
70
70
7c
3c
ENDCHAR
STARTCHAR u
ENCODING 117
SWIDTH 611 0
DWIDTH 11 0
BBX 9 10 1 0
BITMAP
e380
e380
e380
e380
e380
e380
e380
e780
ff80
7b80
ENDCHAR
STARTCHAR v
ENCODING 118
SWIDTH 556 0
DWIDTH 9 0
BBX 9 10 0 0
BITMAP
e380
e380
e380
7700
7700
7700
3e00
3e00
1c00
1c00
ENDCHAR
STARTCHAR w
ENCODING 119
SWIDTH 778 0
DWIDTH 15 0
BBX 15 10 0 0
BITMAP
e38e
e38e
e38e
739c
77dc
76dc
3ef8
3c78
1c70
1c70
ENDCHAR
STARTCHAR x
ENCODING 120
SWIDTH 556 0
DWIDTH 11 0
BBX 9 10 1 0
BITMAP
e380
e380
7700
3e00
1c00
3e00
7700
7700
e380
e380
ENDCHAR
STARTCHAR y
ENCODING 121
SWIDTH 556 0
DWIDTH 11 0
BBX 9 14 1 -4
BITMAP
e380
e380
e380
7700
7700
7700
3e00
3e00
1c00
1c00
1c00
1800
7800
7000
ENDCHAR
STARTCHAR z
ENCODING 122
SWIDTH 500 0
DWIDTH 10 0
BBX 8 10 1 0
BITMAP
ff
ff
07
0e
1c
38
70
e0
ff
ff
ENDCHAR
STARTCHAR braceleft
ENCODING 123
SWIDTH 389 0
DWIDTH 8 0
BBX 7 18 1 -4
BITMAP
0e
1c
38
38
38
38
38
70
e0
70
38
38
38
38
38
38
1c
0e
ENDCHAR
STARTCHAR bar
ENCODING 124
SWIDTH 280 0
DWIDTH 5 0
BBX 2 18 1 -4
BITMAP
c0
c0
c0
c0
c0
c0
c0
c0
c0
c0
c0
c0
c0
c0
c0
c0
c0
c0
ENDCHAR
STARTCHAR braceright
ENCODING 125
SWIDTH 389 0
DWIDTH 8 0
BBX 7 18 0 -4
BITMAP
e0
70
38
38
38
38
38
1c
0e
1c
38
38
38
38
38
38
70
e0
ENDCHAR
STARTCHAR asciitilde
ENCODING 126
SWIDTH 584 0
DWIDTH 11 0
BBX 9 3 1 4
BITMAP
7980
ff80
cf00
ENDCHAR
STARTCHAR nobreakspace
ENCODING 160
SWIDTH 278 0
DWIDTH 5 0
BBX 1 1 0 0
BITMAP
00
ENDCHAR
STARTCHAR Aogonek
ENCODING 161
SWIDTH 722 0
DWIDTH 14 0
BBX 12 19 1 -5
BITMAP
0f00
0f00
1f80
1980
1980
39c0
39c0
30c0
70e0
7fe0
7fe0
e070
e070
e070
0700
0e00
1c00
1f80
0f00
ENDCHAR
STARTCHAR breve
ENCODING 162
SWIDTH 333 0
DWIDTH 7 0
BBX 7 3 0 11
BITMAP
c6
ee
7c
ENDCHAR
STARTCHAR Lstroke
ENCODING 163
SWIDTH 611 0
DWIDTH 11 0
BBX 10 14 0 0
BITMAP
7000
7000
7000
7000
7600
7e00
f800
f000
7000
7000
7000
7000
7fc0
7fc0
ENDCHAR
STARTCHAR currency
ENCODING 164
SWIDTH 556 0
DWIDTH 11 0
BBX 9 8 1 2
BITMAP
c180
ff80
7700
6300
6300
7700
ff80
c180
ENDCHAR
STARTCHAR Lcaron
ENCODING 165
SWIDTH 611 0
DWIDTH 11 0
BBX 9 15 1 0
BITMAP
0e00
ee00
e600
e600
ec00
e000
e000
e000
e000
e000
e000
e000
e000
ff80
ff80
ENDCHAR
STARTCHAR Sacute
ENCODING 166
SWIDTH 667 0
DWIDTH 13 0
BBX 11 18 1 0
BITMAP
0380
0700
0e00
0000
3f80
7fc0
f1e0
e0e0
f000
7e00
3f80
0fc0
01e0
e0e0
e0e0
f1e0
7fc0
3f80
ENDCHAR
STARTCHAR section
ENCODING 167
SWIDTH 556 0
DWIDTH 10 0
BBX 9 18 0 -4
BITMAP
3e00
7f00
e380
e380
f000
7c00
fe00
c700
c380
e180
7180
3f80
0f00
0780
e380
e380
7f00
3e00
ENDCHAR
STARTCHAR diaeresis
ENCODING 168
SWIDTH 333 0
DWIDTH 7 0
BBX 5 2 1 12
BITMAP
d8
d8
ENDCHAR
STARTCHAR Scaron
ENCODING 169
SWIDTH 667 0
DWIDTH 13 0
BBX 11 18 1 0
BITMAP
3b80
1f00
0e00
0000
3f80
7fc0
f1e0
e0e0
f000
7e00
3f80
0fc0
01e0
e0e0
e0e0
f1e0
7fc0
3f80
ENDCHAR
STARTCHAR Scedilla
ENCODING 170
SWIDTH 667 0
DWIDTH 13 0
BBX 11 19 1 -5
BITMAP
3f80
7fc0
f1e0
e0e0
f000
7e00
3f80
0fc0
01e0
e0e0
e0e0
f1e0
7fc0
3f80
0c00
0e00
0300
1f00
1e00
ENDCHAR
STARTCHAR Tcaron
ENCODING 171
SWIDTH 611 0
DWIDTH 11 0
BBX 11 18 0 0
BITMAP
3b80
1f00
0e00
0000
ffe0
ffe0
0e00
0e00
0e00
0e00
0e00
0e00
0e00
0e00
0e00
0e00
0e00
0e00
ENDCHAR
STARTCHAR Zacute
ENCODING 172
SWIDTH 611 0
DWIDTH 12 0
BBX 10 18 1 0
BITMAP
0700
0e00
1c00
0000
ffc0
ffc0
01c0
0380
0700
0700
0e00
1c00
3800
3800
7000
e000
ffc0
ffc0
ENDCHAR
STARTCHAR hyphen
ENCODING 173
SWIDTH 333 0
DWIDTH 6 0
BBX 5 3 0 4
BITMAP
f8
f8
f8
ENDCHAR
STARTCHAR Zcaron
ENCODING 174
SWIDTH 611 0
DWIDTH 12 0
BBX 10 18 1 0
BITMAP
7700
3e00
1c00
0000
ffc0
ffc0
01c0
0380
0700
0700
0e00
1c00
3800
3800
7000
e000
ffc0
ffc0
ENDCHAR
STARTCHAR Zabovedot
ENCODING 175
SWIDTH 611 0
DWIDTH 12 0
BBX 10 17 1 0
BITMAP
0c00
0c00
0000
ffc0
ffc0
01c0
0380
0700
0700
0e00
1c00
3800
3800
7000
e000
ffc0
ffc0
ENDCHAR
STARTCHAR degree
ENCODING 176
SWIDTH 400 0
DWIDTH 7 0
BBX 6 6 0 7
BITMAP
78
fc
cc
cc
fc
78
ENDCHAR
STARTCHAR aogonek
ENCODING 177
SWIDTH 556 0
DWIDTH 11 0
BBX 10 15 1 -5
BITMAP
3e00
7f00
6380
0780
3f80
7b80
e380
e780
fb80
7bc0
0e00
1c00
3800
3f00
1e00
ENDCHAR
STARTCHAR ogonek
ENCODING 178
SWIDTH 333 0
DWIDTH 6 0
BBX 6 5 0 -5
BITMAP
38
70
e0
fc
78
ENDCHAR
STARTCHAR lstroke
ENCODING 179
SWIDTH 278 0
DWIDTH 5 0
BBX 5 14 0 0
BITMAP
70
70
70
70
70
78
f8
f0
70
70
70
70
70
70
ENDCHAR
STARTCHAR acute
ENCODING 180
SWIDTH 333 0
DWIDTH 5 0
BBX 5 3 0 11
BITMAP
38
70
e0
ENDCHAR
STARTCHAR lcaron
ENCODING 181
SWIDTH 462 0
DWIDTH 9 0
BBX 7 15 1 0
BITMAP
0e
ee
e6
e6
ec
e0
e0
e0
e0
e0
e0
e0
e0
e0
e0
ENDCHAR
STARTCHAR sacute
ENCODING 182
SWIDTH 556 0
DWIDTH 11 0
BBX 9 14 1 0
BITMAP
0700
0e00
1c00
0000
3f00
7f80
e380
e000
ff00
3f80
0380
e380
ff00
7e00
ENDCHAR
STARTCHAR caron
ENCODING 183
SWIDTH 333 0
DWIDTH 7 0
BBX 7 3 0 11
BITMAP
ee
7c
38
ENDCHAR
STARTCHAR cedilla
ENCODING 184
SWIDTH 333 0
DWIDTH 7 0
BBX 5 5 1 -5
BITMAP
60
70
18
f8
f0
ENDCHAR
STARTCHAR scaron
ENCODING 185
SWIDTH 556 0
DWIDTH 11 0
BBX 9 14 1 0
BITMAP
7700
3e00
1c00
0000
3f00
7f80
e380
e000
ff00
3f80
0380
e380
ff00
7e00
ENDCHAR
STARTCHAR scedilla
ENCODING 186
SWIDTH 556 0
DWIDTH 11 0
BBX 9 15 1 -5
BITMAP
3f00
7f80
e380
e000
ff00
3f80
0380
e380
ff00
7e00
1800
1c00
0600
3e00
3c00
ENDCHAR
STARTCHAR tcaron
ENCODING 187
SWIDTH 411 0
DWIDTH 8 0
BBX 8 16 0 0
BITMAP
07
07
03
73
76
70
fc
fc
70
70
70
70
70
70
7c
3c
ENDCHAR
STARTCHAR zacute
ENCODING 188
SWIDTH 500 0
DWIDTH 10 0
BBX 8 14 1 0
BITMAP
0e
1c
38
00
ff
ff
07
0e
1c
38
70
e0
ff
ff
ENDCHAR
STARTCHAR doubleacute
ENCODING 189
SWIDTH 333 0
DWIDTH 7 0
BBX 7 3 0 11
BITMAP
36
6c
d8
ENDCHAR
STARTCHAR zcaron
ENCODING 190
SWIDTH 500 0
DWIDTH 10 0
BBX 8 14 1 0
BITMAP
ee
7c
38
00
ff
ff
07
0e
1c
38
70
e0
ff
ff
ENDCHAR
STARTCHAR zabovedot
ENCODING 191
SWIDTH 500 0
DWIDTH 10 0
BBX 8 13 1 0
BITMAP
18
18
00
ff
ff
07
0e
1c
38
70
e0
ff
ff
ENDCHAR
STARTCHAR Racute
ENCODING 192
SWIDTH 722 0
DWIDTH 14 0
BBX 12 18 1 0
BITMAP
0380
0700
0e00
0000
ff00
ffc0
e1e0
e0e0
e0e0
e1e0
ffc0
ff80
e1c0
e0e0
e0e0
e0e0
e0e0
e0f0
ENDCHAR
STARTCHAR Aacute
ENCODING 193
SWIDTH 722 0
DWIDTH 14 0
BBX 12 18 1 0
BITMAP
01c0
0380
0600
0000
0f00
0f00
1f80
1980
1980
39c0
39c0
30c0
70e0
7fe0
7fe0
e070
e070
e070
ENDCHAR
STARTCHAR Acircumflex
ENCODING 194
SWIDTH 722 0
DWIDTH 14 0
BBX 12 18 1 0
BITMAP
0700
0f80
1dc0
0000
0f00
0f00
1f80
1980
1980
39c0
39c0
30c0
70e0
7fe0
7fe0
e070
e070
e070
ENDCHAR
STARTCHAR Abreve
ENCODING 195
SWIDTH 722 0
DWIDTH 14 0
BBX 12 18 1 0
BITMAP
3180
3b80
1f00
0000
0f00
0f00
1f80
1980
1980
39c0
39c0
30c0
70e0
7fe0
7fe0
e070
e070
e070
ENDCHAR
STARTCHAR Adiaeresis
ENCODING 196
SWIDTH 722 0
DWIDTH 14 0
BBX 12 18 1 0
BITMAP
1980
1980
1980
0000
0f00
0f00
1f80
1980
1980
39c0
39c0
30c0
70e0
7fe0
7fe0
e070
e070
e070
ENDCHAR
STARTCHAR Lacute
ENCODING 197
SWIDTH 611 0
DWIDTH 11 0
BBX 9 18 1 0
BITMAP
3800
7000
e000
0000
e000
e000
e000
e000
e000
e000
e000
e000
e000
e000
e000
e000
ff80
ff80
ENDCHAR
STARTCHAR Cacute
ENCODING 198
SWIDTH 722 0
DWIDTH 14 0
BBX 12 18 1 0
BITMAP
0380
0700
0e00
0000
0f80
3fe0
78e0
7070
f070
e000
e000
e000
e000
f070
7070
78e0
3fe0
0f80
ENDCHAR
STARTCHAR Ccedilla
ENCODING 199
SWIDTH 722 0
DWIDTH 14 0
BBX 12 19 1 -5
BITMAP
0f80
3fe0
78e0
7070
f070
e000
e000
e000
e000
f070
7070
78e0
3fe0
0f80
0c00
0e00
0300
1f00
1e00
ENDCHAR
STARTCHAR Ccaron
ENCODING 200
SWIDTH 722 0
DWIDTH 14 0
BBX 12 18 1 0
BITMAP
3b80
1f00
0e00
0000
0f80
3fe0
78e0
7070
f070
e000
e000
e000
e000
f070
7070
78e0
3fe0
0f80
ENDCHAR
STARTCHAR Eacute
ENCODING 201
SWIDTH 667 0
DWIDTH 13 0
BBX 10 18 2 0
BITMAP
0380
0700
0c00
0000
ffc0
ffc0
e000
e000
e000
e000
ff80
ff80
e000
e000
e000
e000
ffc0
ffc0
ENDCHAR
STARTCHAR Eogonek
ENCODING 202
SWIDTH 667 0
DWIDTH 13 0
BBX 10 19 2 -5
BITMAP
ffc0
ffc0
e000
e000
e000
e000
ff80
ff80
e000
e000
e000
e000
ffc0
ffc0
0e00
1c00
3800
3f00
1e00
ENDCHAR
STARTCHAR Ediaeresis
ENCODING 203
SWIDTH 667 0
DWIDTH 13 0
BBX 10 18 2 0
BITMAP
3300
3300
3300
0000
ffc0
ffc0
e000
e000
e000
e000
ff80
ff80
e000
e000
e000
e000
ffc0
ffc0
ENDCHAR
STARTCHAR Ecaron
ENCODING 204
SWIDTH 667 0
DWIDTH 13 0
BBX 10 18 2 0
BITMAP
7700
3e00
1c00
0000
ffc0
ffc0
e000
e000
e000
e000
ff80
ff80
e000
e000
e000
e000
ffc0
ffc0
ENDCHAR
STARTCHAR Iacute
ENCODING 205
SWIDTH 278 0
DWIDTH 5 0
BBX 5 18 1 0
BITMAP
38
70
c0
00
e0
e0
e0
e0
e0
e0
e0
e0
e0
e0
e0
e0
e0
e0
ENDCHAR
STARTCHAR Icircumflex
ENCODING 206
SWIDTH 278 0
DWIDTH 5 0
BBX 7 18 -1 0
BITMAP
38
7c
ee
00
38
38
38
38
38
38
38
38
38
38
38
38
38
38
ENDCHAR
STARTCHAR Dcaron
ENCODING 207
SWIDTH 722 0
DWIDTH 14 0
BBX 12 18 1 0
BITMAP
3b80
1f00
0e00
0000
ff00
ffc0
e1e0
e0e0
e070
e070
e070
e070
e070
e070
e0e0
e1e0
ffc0
ff00
ENDCHAR
STARTCHAR Dstroke
ENCODING 208
SWIDTH 722 0
DWIDTH 14 0
BBX 14 14 -1 0
BITMAP
3fc0
3ff0
3878
3838
381c
381c
ff1c
ff1c
381c
381c
3838
3878
3ff0
3fc0
ENDCHAR
STARTCHAR Nacute
ENCODING 209
SWIDTH 722 0
DWIDTH 14 0
BBX 12 18 1 0
BITMAP
0380
0700
0e00
0000
e070
f070
f070
f870
fc70
ec70
ee70
e670
e770
e370
e1f0
e1f0
e0f0
e070
ENDCHAR
STARTCHAR Ncaron
ENCODING 210
SWIDTH 722 0
DWIDTH 14 0
BBX 12 18 1 0
BITMAP
3b80
1f00
0e00
0000
e070
f070
f070
f870
fc70
ec70
ee70
e670
e770
e370
e1f0
e1f0
e0f0
e070
ENDCHAR
STARTCHAR Oacute
ENCODING 211
SWIDTH 778 0
DWIDTH 15 0
BBX 13 18 1 0
BITMAP
01c0
0380
0600
0000
0f80
3fe0
78f0
7070
f078
e038
e038
e038
e038
f078
7070
78f0
3fe0
0f80
ENDCHAR
STARTCHAR Ocircumflex
ENCODING 212
SWIDTH 778 0
DWIDTH 15 0
BBX 13 18 1 0
BITMAP
0700
0f80
1dc0
0000
0f80
3fe0
78f0
7070
f078
e038
e038
e038
e038
f078
7070
78f0
3fe0
0f80
ENDCHAR
STARTCHAR Odoubleacute
ENCODING 213
SWIDTH 778 0
DWIDTH 15 0
BBX 13 18 1 0
BITMAP
0360
06c0
0d80
0000
0f80
3fe0
78f0
7070
f078
e038
e038
e038
e038
f078
7070
78f0
3fe0
0f80
ENDCHAR
STARTCHAR Odiaeresis
ENCODING 214
SWIDTH 778 0
DWIDTH 15 0
BBX 13 18 1 0
BITMAP
0cc0
0cc0
0cc0
0000
0f80
3fe0
78f0
7070
f078
e038
e038
e038
e038
f078
7070
78f0
3fe0
0f80
ENDCHAR
STARTCHAR multiply
ENCODING 215
SWIDTH 584 0
DWIDTH 11 0
BBX 10 8 0 1
BITMAP
e1c0
7380
3f00
1e00
1e00
3f00
7380
e1c0
ENDCHAR
STARTCHAR Rcaron
ENCODING 216
SWIDTH 722 0
DWIDTH 14 0
BBX 12 18 1 0
BITMAP
3b80
1f00
0e00
0000
ff00
ffc0
e1e0
e0e0
e0e0
e1e0
ffc0
ff80
e1c0
e0e0
e0e0
e0e0
e0e0
e0f0
ENDCHAR
STARTCHAR Uring
ENCODING 217
SWIDTH 722 0
DWIDTH 14 0
BBX 12 19 1 0
BITMAP
0f00
1980
1980
0f00
0000
e070
e070
e070
e070
e070
e070
e070
e070
e070
e070
e070
70e0
7fe0
1f80
ENDCHAR
STARTCHAR Uacute
ENCODING 218
SWIDTH 722 0
DWIDTH 14 0
BBX 12 18 1 0
BITMAP
01c0
0380
0600
0000
e070
e070
e070
e070
e070
e070
e070
e070
e070
e070
e070
70e0
7fe0
1f80
ENDCHAR
STARTCHAR Udoubleacute
ENCODING 219
SWIDTH 722 0
DWIDTH 14 0
BBX 12 18 1 0
BITMAP
06c0
0d80
1b00
0000
e070
e070
e070
e070
e070
e070
e070
e070
e070
e070
e070
70e0
7fe0
1f80
ENDCHAR
STARTCHAR Udiaeresis
ENCODING 220
SWIDTH 722 0
DWIDTH 14 0
BBX 12 18 1 0
BITMAP
1980
1980
1980
0000
e070
e070
e070
e070
e070
e070
e070
e070
e070
e070
e070
70e0
7fe0
1f80
ENDCHAR
STARTCHAR Yacute
ENCODING 221
SWIDTH 667 0
DWIDTH 13 0
BBX 13 18 0 0
BITMAP
01c0
0380
0600
0000
e038
e038
7070
38e0
38e0
1dc0
1dc0
0f80
0700
0700
0700
0700
0700
0700
ENDCHAR
STARTCHAR Tcedilla
ENCODING 222
SWIDTH 611 0
DWIDTH 11 0
BBX 11 19 0 -5
BITMAP
ffe0
ffe0
0e00
0e00
0e00
0e00
0e00
0e00
0e00
0e00
0e00
0e00
0e00
0e00
0c00
0e00
0300
1f00
1e00
ENDCHAR
STARTCHAR ssharp
ENCODING 223
SWIDTH 611 0
DWIDTH 10 0
BBX 8 14 1 0
BITMAP
3c
7e
e7
e7
e7
e7
ee
ee
e7
e7
e7
e7
ef
ee
ENDCHAR
STARTCHAR racute
ENCODING 224
SWIDTH 389 0
DWIDTH 7 0
BBX 6 14 1 0
BITMAP
1c
38
70
00
ec
fc
fc
e0
e0
e0
e0
e0
e0
e0
ENDCHAR
STARTCHAR aacute
ENCODING 225
SWIDTH 556 0
DWIDTH 11 0
BBX 10 14 1 0
BITMAP
0380
0700
0c00
0000
3e00
7f00
7380
0780
3f80
7b80
e380
e780
fb80
7bc0
ENDCHAR
STARTCHAR acircumflex
ENCODING 226
SWIDTH 556 0
DWIDTH 11 0
BBX 10 14 1 0
BITMAP
1c00
3e00
7700
0000
3e00
7f00
7380
0780
3f80
7b80
e380
e780
fb80
7bc0
ENDCHAR
STARTCHAR abreve
ENCODING 227
SWIDTH 556 0
DWIDTH 11 0
BBX 10 14 1 0
BITMAP
6300
7700
3e00
0000
3e00
7f00
6380
0780
3f80
7b80
e380
e780
fb80
7bc0
ENDCHAR
STARTCHAR adiaeresis
ENCODING 228
SWIDTH 556 0
DWIDTH 11 0
BBX 10 14 1 0
BITMAP
3300
3300
3300
0000
3e00
7f00
7380
0780
3f80
7b80
e380
e780
fb80
7bc0
ENDCHAR
STARTCHAR lacute
ENCODING 229
SWIDTH 278 0
DWIDTH 5 0
BBX 5 18 1 0
BITMAP
38
70
e0
00
e0
e0
e0
e0
e0
e0
e0
e0
e0
e0
e0
e0
e0
e0
ENDCHAR
STARTCHAR cacute
ENCODING 230
SWIDTH 556 0
DWIDTH 11 0
BBX 9 14 1 0
BITMAP
0700
0e00
1c00
0000
1e00
7f80
7380
e000
e000
e000
e000
7380
7f80
1e00
ENDCHAR
STARTCHAR ccedilla
ENCODING 231
SWIDTH 556 0
DWIDTH 10 0
BBX 9 15 1 -5
BITMAP
1e00
7f80
7380
e000
e000
e000
e000
7380
7f80
1e00
1800
1c00
0600
3e00
3c00
ENDCHAR
STARTCHAR ccaron
ENCODING 232
SWIDTH 556 0
DWIDTH 11 0
BBX 9 14 1 0
BITMAP
7700
3e00
1c00
0000
1e00
7f80
7380
e000
e000
e000
e000
7380
7f80
1e00
ENDCHAR
STARTCHAR eacute
ENCODING 233
SWIDTH 556 0
DWIDTH 11 0
BBX 9 14 1 0
BITMAP
0380
0700
0c00
0000
1e00
7f00
7380
e180
ff80
ff80
e000
7380
7f80
1e00
ENDCHAR
STARTCHAR eogonek
ENCODING 234
SWIDTH 556 0
DWIDTH 11 0
BBX 9 15 1 -5
BITMAP
1e00
7f00
7380
e180
ff80
ff80
e000
7380
7f80
1e00
0e00
1c00
3800
3f00
1e00
ENDCHAR
STARTCHAR ediaeresis
ENCODING 235
SWIDTH 556 0
DWIDTH 11 0
BBX 9 14 1 0
BITMAP
3300
3300
3300
0000
1e00
7f00
7380
e180
ff80
ff80
e000
7380
7f80
1e00
ENDCHAR
STARTCHAR ecaron
ENCODING 236
SWIDTH 556 0
DWIDTH 11 0
BBX 9 14 1 0
BITMAP
7700
3e00
1c00
0000
1e00
7f00
7380
e180
ff80
ff80
e000
7380
7f80
1e00
ENDCHAR
STARTCHAR iacute
ENCODING 237
SWIDTH 278 0
DWIDTH 5 0
BBX 5 14 1 0
BITMAP
38
70
c0
00
e0
e0
e0
e0
e0
e0
e0
e0
e0
e0
ENDCHAR
STARTCHAR icircumflex
ENCODING 238
SWIDTH 278 0
DWIDTH 5 0
BBX 7 14 -1 0
BITMAP
38
7c
ee
00
38
38
38
38
38
38
38
38
38
38
ENDCHAR
STARTCHAR dcaron
ENCODING 239
SWIDTH 822 0
DWIDTH 16 0
BBX 14 15 1 0
BITMAP
001c
01dc
01cc
01cc
01d8
3dc0
7fc0
73c0
e1c0
e1c0
e1c0
e1c0
73c0
7fc0
3dc0
ENDCHAR
STARTCHAR dstroke
ENCODING 240
SWIDTH 771 0
DWIDTH 15 0
BBX 13 14 1 0
BITMAP
01c0
0ff8
01c0
01c0
3dc0
7fc0
73c0
e1c0
e1c0
e1c0
e1c0
73c0
7fc0
3dc0
ENDCHAR
STARTCHAR nacute
ENCODING 241
SWIDTH 611 0
DWIDTH 11 0
BBX 9 14 1 0
BITMAP
0700
0e00
1c00
0000
ef00
ff80
f380
e380
e380
e380
e380
e380
e380
e380
ENDCHAR
STARTCHAR ncaron
ENCODING 242
SWIDTH 611 0
DWIDTH 11 0
BBX 9 14 1 0
BITMAP
7700
3e00
1c00
0000
ef00
ff80
f380
e380
e380
e380
e380
e380
e380
e380
ENDCHAR
STARTCHAR oacute
ENCODING 243
SWIDTH 611 0
DWIDTH 12 0
BBX 10 14 1 0
BITMAP
0380
0700
0c00
0000
1e00
7f80
7380
e1c0
e1c0
e1c0
e1c0
7380
7f80
1e00
ENDCHAR
STARTCHAR ocircumflex
ENCODING 244
SWIDTH 611 0
DWIDTH 12 0
BBX 10 14 1 0
BITMAP
1c00
3e00
7700
0000
1e00
7f80
7380
e1c0
e1c0
e1c0
e1c0
7380
7f80
1e00
ENDCHAR
STARTCHAR odoubleacute
ENCODING 245
SWIDTH 611 0
DWIDTH 12 0
BBX 10 14 1 0
BITMAP
0d80
1b00
3600
0000
1e00
7f80
7380
e1c0
e1c0
e1c0
e1c0
7380
7f80
1e00
ENDCHAR
STARTCHAR odiaeresis
ENCODING 246
SWIDTH 611 0
DWIDTH 12 0
BBX 10 14 1 0
BITMAP
3300
3300
3300
0000
1e00
7f80
7380
e1c0
e1c0
e1c0
e1c0
7380
7f80
1e00
ENDCHAR
STARTCHAR division
ENCODING 247
SWIDTH 584 0
DWIDTH 11 0
BBX 9 8 1 1
BITMAP
1c00
1c00
0000
ff80
ff80
0000
1c00
1c00
ENDCHAR
STARTCHAR rcaron
ENCODING 248
SWIDTH 389 0
DWIDTH 7 0
BBX 7 14 0 0
BITMAP
ee
7c
38
00
76
7e
7e
70
70
70
70
70
70
70
ENDCHAR
STARTCHAR uring
ENCODING 249
SWIDTH 611 0
DWIDTH 11 0
BBX 9 15 1 0
BITMAP
1e00
3300
3300
1e00
0000
e380
e380
e380
e380
e380
e380
e380
e780
ff80
7b80
ENDCHAR
STARTCHAR uacute
ENCODING 250
SWIDTH 611 0
DWIDTH 11 0
BBX 9 14 1 0
BITMAP
0380
0700
0c00
0000
e380
e380
e380
e380
e380
e380
e380
e780
ff80
7b80
ENDCHAR
STARTCHAR udoubleacute
ENCODING 251
SWIDTH 611 0
DWIDTH 11 0
BBX 9 14 1 0
BITMAP
0d80
1b00
3600
0000
e380
e380
e380
e380
e380
e380
e380
e780
ff80
7b80
ENDCHAR
STARTCHAR udiaeresis
ENCODING 252
SWIDTH 611 0
DWIDTH 11 0
BBX 9 14 1 0
BITMAP
3300
3300
3300
0000
e380
e380
e380
e380
e380
e380
e380
e780
ff80
7b80
ENDCHAR
STARTCHAR yacute
ENCODING 253
SWIDTH 556 0
DWIDTH 11 0
BBX 9 18 1 -4
BITMAP
0700
0e00
1800
0000
e380
e380
e380
7700
7700
7700
3e00
3e00
1c00
1c00
1c00
1800
7800
7000
ENDCHAR
STARTCHAR tcedilla
ENCODING 254
SWIDTH 333 0
DWIDTH 6 0
BBX 6 18 0 -5
BITMAP
70
70
70
fc
fc
70
70
70
70
70
70
7c
3c
60
70
18
f8
f0
ENDCHAR
STARTCHAR abovedot
ENCODING 255
SWIDTH 333 0
DWIDTH 4 0
BBX 2 2 1 12
BITMAP
c0
c0
ENDCHAR
ENDFONT
