STARTFONT 2.1
FONT -Adobe-Helvetica-Bold-R-Normal--25-180-100-100-P-138-ISO8859-2
SIZE 18 100 100
FONTBOUNDINGBOX 27 29 -2 -5
COMMENT $XConsortium: helvB18.bdf,v 1.7 95/01/26 17:54:05 gildea Exp $
COMMENT 
COMMENT +
COMMENT  Copyright 1984-1989, 1994 Adobe Systems Incorporated.
COMMENT  Copyright 1988, 1994 Digital Equipment Corporation.
COMMENT
COMMENT  Adobe is a trademark of Adobe Systems Incorporated which may be
COMMENT  registered in certain jurisdictions.
COMMENT  Permission to use these trademarks is hereby granted only in
COMMENT  association with the images described in this file.
COMMENT
COMMENT  Permission to use, copy, modify, distribute and sell this software
COMMENT  and its documentation for any purpose and without fee is hereby
COMMENT  granted, provided that the above copyright notices appear in all
COMMENT  copies and that both those copyright notices and this permission
COMMENT  notice appear in supporting documentation, and that the names of
COMMENT  Adobe Systems and Digital Equipment Corporation not be used in
COMMENT  advertising or publicity pertaining to distribution of the software
COMMENT  without specific, written prior permission.  Adobe Systems and
COMMENT  Digital Equipment Corporation make no representations about the
COMMENT  suitability of this software for any purpose.  It is provided "as
COMMENT  is" without express or implied warranty.
COMMENT -
COMMENT  
COMMENT  Translation to ISO8859-2 by Cub Soft;  Petr.Kolar@vslib.cz
COMMENT  
STARTPROPERTIES 28
FOUNDRY "Adobe"
FAMILY_NAME "Helvetica"
WEIGHT_NAME "Bold"
SLANT "R"
SETWIDTH_NAME "Normal"
ADD_STYLE_NAME ""
PIXEL_SIZE 25
POINT_SIZE 180
RESOLUTION_X 100
RESOLUTION_Y 100
SPACING "P"
AVERAGE_WIDTH 138
CHARSET_REGISTRY "ISO8859"
CHARSET_ENCODING "2"
CAP_HEIGHT 19
X_HEIGHT 14
FONT_ASCENT 22
FONT_DESCENT 5
FACE_NAME "Helvetica Bold"
COPYRIGHT "Copyright (c) 1984, 1987 Adobe Systems Incorporated. All Rights Reserved. Copyright (c) 1988, 1991 Digital Equipment Corporation. All Rights Reserved., Copyright 1996 Cub Soft"
NOTICE "Helvetica is a trademark of Linotype-Hell AG and/or its subsidiaries.  "
_DEC_DEVICE_FONTNAMES "PS=Helvetica-Bold"
_DEC_PRODUCTINFO "DECwindows Fonts V2.2, 07-Nov-1991"
DEFAULT_CHAR 32
RELATIVE_SETWIDTH 50
RELATIVE_WEIGHT 70
CHARSET_COLLECTIONS "ASCII ISO8859-2 ADOBE-STANDARD"
FULL_NAME "Helvetica Bold"
ENDPROPERTIES
CHARS 191
STARTCHAR space
ENCODING 32
SWIDTH 278 0
DWIDTH 6 0
BBX 1 1 0 0
BITMAP
00
ENDCHAR
STARTCHAR exclam
ENCODING 33
SWIDTH 333 0
DWIDTH 7 0
BBX 3 19 2 0
BITMAP
e0
e0
e0
e0
e0
e0
e0
e0
e0
e0
e0
c0
c0
c0
00
00
e0
e0
e0
ENDCHAR
STARTCHAR quotedbl
ENCODING 34
SWIDTH 474 0
DWIDTH 9 0
BBX 5 6 2 13
BITMAP
d8
d8
d8
d8
d8
90
ENDCHAR
STARTCHAR numbersign
ENCODING 35
SWIDTH 556 0
DWIDTH 14 0
BBX 12 18 1 0
BITMAP
0cc0
0cc0
0cc0
0cc0
0cc0
7ff0
7ff0
1980
1980
1980
1980
ffe0
ffe0
3300
3300
3300
3300
3300
ENDCHAR
STARTCHAR dollar
ENCODING 36
SWIDTH 556 0
DWIDTH 13 0
BBX 12 21 0 -2
BITMAP
0600
3f80
7fe0
f6e0
e670
e670
f600
7e00
3e00
0f00
07c0
07e0
06f0
e670
e670
e670
f6f0
7fe0
1fc0
0600
0600
ENDCHAR
STARTCHAR percent
ENCODING 37
SWIDTH 889 0
DWIDTH 22 0
BBX 21 18 0 0
BITMAP
000700
3e0700
7f0e00
e38e00
c19c00
c19c00
e3b800
7f3800
3e7000
007000
00e3e0
00e7f0
01ce38
01cc18
038c18
038e38
0707f0
0703e0
ENDCHAR
STARTCHAR ampersand
ENCODING 38
SWIDTH 722 0
DWIDTH 18 0
BBX 16 18 1 0
BITMAP
0f80
1fc0
3de0
38e0
38e0
38e0
1dc0
0f80
1f00
3f9c
7bdc
71fc
e0f8
e070
e0f8
f1fc
7fce
1f87
ENDCHAR
STARTCHAR apostrophe
ENCODING 39
SWIDTH 278 0
DWIDTH 7 0
BBX 3 6 2 13
BITMAP
e0
e0
e0
60
60
c0
ENDCHAR
STARTCHAR parenleft
ENCODING 40
SWIDTH 333 0
DWIDTH 8 0
BBX 6 24 1 -5
BITMAP
0c
1c
38
38
70
70
60
e0
e0
e0
e0
e0
e0
e0
e0
e0
e0
60
70
70
38
38
1c
0c
ENDCHAR
STARTCHAR parenright
ENCODING 41
SWIDTH 333 0
DWIDTH 8 0
BBX 6 24 1 -5
BITMAP
c0
e0
70
70
38
38
18
1c
1c
1c
1c
1c
1c
1c
1c
1c
1c
18
38
38
70
70
e0
c0
ENDCHAR
STARTCHAR asterisk
ENCODING 42
SWIDTH 389 0
DWIDTH 10 0
BBX 8 7 1 12
BITMAP
18
18
db
ff
3c
66
66
ENDCHAR
STARTCHAR plus
ENCODING 43
SWIDTH 584 0
DWIDTH 15 0
BBX 12 12 1 1
BITMAP
0600
0600
0600
0600
0600
fff0
fff0
0600
0600
0600
0600
0600
ENDCHAR
STARTCHAR comma
ENCODING 44
SWIDTH 278 0
DWIDTH 7 0
BBX 3 6 2 -3
BITMAP
e0
e0
e0
60
60
c0
ENDCHAR
STARTCHAR minus
ENCODING 45
SWIDTH 584 0
DWIDTH 15 0
BBX 12 2 1 6
BITMAP
fff0
fff0
ENDCHAR
STARTCHAR period
ENCODING 46
SWIDTH 278 0
DWIDTH 7 0
BBX 3 3 2 0
BITMAP
e0
e0
e0
ENDCHAR
STARTCHAR slash
ENCODING 47
SWIDTH 278 0
DWIDTH 8 0
BBX 7 19 1 0
BITMAP
06
06
06
0c
0c
0c
18
18
18
18
30
30
30
60
60
60
c0
c0
c0
ENDCHAR
STARTCHAR zero
ENCODING 48
SWIDTH 556 0
DWIDTH 13 0
BBX 12 18 0 0
BITMAP
1f80
3fc0
79e0
70e0
70e0
e070
e070
e070
e070
e070
e070
e070
e070
70e0
70e0
79e0
3fc0
1f80
ENDCHAR
STARTCHAR one
ENCODING 49
SWIDTH 556 0
DWIDTH 13 0
BBX 7 18 2 0
BITMAP
0e
0e
1e
fe
fe
0e
0e
0e
0e
0e
0e
0e
0e
0e
0e
0e
0e
0e
ENDCHAR
STARTCHAR two
ENCODING 50
SWIDTH 556 0
DWIDTH 13 0
BBX 12 18 0 0
BITMAP
1f00
7fc0
71e0
e0e0
e070
e070
0070
00e0
01e0
03c0
0780
1f00
3c00
7800
f000
e000
fff0
fff0
ENDCHAR
STARTCHAR three
ENCODING 51
SWIDTH 556 0
DWIDTH 13 0
BBX 12 18 0 0
BITMAP
1f00
7fc0
71c0
e0e0
e0e0
e0e0
00e0
01c0
0f80
0fe0
00e0
0070
0070
e070
e0f0
71e0
7fe0
1f80
ENDCHAR
STARTCHAR four
ENCODING 52
SWIDTH 556 0
DWIDTH 13 0
BBX 12 18 0 0
BITMAP
01c0
03c0
03c0
07c0
07c0
0dc0
1dc0
19c0
31c0
71c0
61c0
e1c0
fff0
fff0
01c0
01c0
01c0
01c0
ENDCHAR
STARTCHAR five
ENCODING 53
SWIDTH 556 0
DWIDTH 13 0
BBX 12 18 0 0
BITMAP
7fe0
7fe0
7000
7000
7000
7000
7f80
7fc0
71e0
00e0
0070
0070
0070
e070
e0f0
f1e0
7fc0
1f80
ENDCHAR
STARTCHAR six
ENCODING 54
SWIDTH 556 0
DWIDTH 13 0
BBX 12 18 0 0
BITMAP
0f80
3fe0
78e0
7070
e070
e000
e000
ef00
ffc0
f9e0
f0e0
e070
e070
e070
70e0
79e0
3fc0
1f80
ENDCHAR
STARTCHAR seven
ENCODING 55
SWIDTH 556 0
DWIDTH 13 0
BBX 12 18 0 0
BITMAP
fff0
fff0
00f0
00e0
01c0
01c0
0380
0380
0700
0700
0e00
0e00
1e00
1c00
1c00
3c00
3800
3800
ENDCHAR
STARTCHAR eight
ENCODING 56
SWIDTH 556 0
DWIDTH 13 0
BBX 12 18 0 0
BITMAP
0f00
3fc0
39c0
70e0
70e0
70e0
70e0
39c0
1f80
3fc0
70e0
e070
e070
e070
e070
70e0
7fe0
1f80
ENDCHAR
STARTCHAR nine
ENCODING 57
SWIDTH 556 0
DWIDTH 13 0
BBX 12 18 0 0
BITMAP
1f80
7fc0
79e0
f0e0
e070
e070
e070
e070
f0f0
79f0
7ff0
1f70
0070
0070
e0e0
f3e0
7fc0
1f00
ENDCHAR
STARTCHAR colon
ENCODING 58
SWIDTH 333 0
DWIDTH 7 0
BBX 3 14 2 0
BITMAP
e0
e0
e0
00
00
00
00
00
00
00
00
e0
e0
e0
ENDCHAR
STARTCHAR semicolon
ENCODING 59
SWIDTH 333 0
DWIDTH 7 0
BBX 3 17 2 -3
BITMAP
e0
e0
e0
00
00
00
00
00
00
00
00
e0
e0
e0
60
60
c0
ENDCHAR
STARTCHAR less
ENCODING 60
SWIDTH 584 0
DWIDTH 15 0
BBX 13 12 0 1
BITMAP
0038
00f8
03e0
0f80
3e00
f000
f000
3e00
0f80
03e0
00f8
0038
ENDCHAR
STARTCHAR equal
ENCODING 61
SWIDTH 584 0
DWIDTH 14 0
BBX 10 5 2 5
BITMAP
ffc0
ffc0
0000
ffc0
ffc0
ENDCHAR
STARTCHAR greater
ENCODING 62
SWIDTH 584 0
DWIDTH 14 0
BBX 13 12 1 1
BITMAP
e000
f800
3e00
0f80
03e0
0078
0078
03e0
0f80
3e00
f800
e000
ENDCHAR
STARTCHAR question
ENCODING 63
SWIDTH 611 0
DWIDTH 15 0
BBX 11 19 2 0
BITMAP
1f80
7fc0
79e0
f0e0
e0e0
e1e0
01c0
03c0
0780
0700
0e00
0e00
0e00
0e00
0000
0000
0e00
0e00
0e00
ENDCHAR
STARTCHAR at
ENCODING 64
SWIDTH 975 0
DWIDTH 24 0
BBX 22 22 1 -4
BITMAP
01ff00
07ffc0
0f81f0
1e0078
3c0038
787d9c
70ff9c
f1c71c
e3871c
e30e1c
e70e38
e70c38
e71c70
e71c70
e39de0
f3ffc0
71f700
780000
3c0000
1f0700
0fff00
03fc00
ENDCHAR
STARTCHAR A
ENCODING 65
SWIDTH 722 0
DWIDTH 18 0
BBX 16 19 1 0
BITMAP
03c0
03c0
07e0
07e0
0e60
0e70
0e70
1c38
1c38
1c38
381c
381c
3ffc
7ffe
700e
700e
e007
e007
e007
ENDCHAR
STARTCHAR B
ENCODING 66
SWIDTH 722 0
DWIDTH 18 0
BBX 15 19 2 0
BITMAP
ffe0
fff8
e078
e01c
e01c
e01c
e01c
e038
fff0
fff8
e01c
e00e
e00e
e00e
e00e
e01e
e07c
fff8
ffe0
ENDCHAR
STARTCHAR C
ENCODING 67
SWIDTH 722 0
DWIDTH 18 0
BBX 16 19 1 0
BITMAP
07f0
1ffc
3e3e
780f
7007
f000
e000
e000
e000
e000
e000
e000
e000
f007
7007
780f
3e3e
1ffc
07f0
ENDCHAR
STARTCHAR D
ENCODING 68
SWIDTH 722 0
DWIDTH 19 0
BBX 16 19 2 0
BITMAP
ffe0
fff8
e07c
e01e
e00e
e00f
e007
e007
e007
e007
e007
e007
e007
e00f
e00e
e01e
e07c
fff8
ffe0
ENDCHAR
STARTCHAR E
ENCODING 69
SWIDTH 667 0
DWIDTH 16 0
BBX 13 19 2 0
BITMAP
fff0
fff0
e000
e000
e000
e000
e000
e000
ffe0
ffe0
e000
e000
e000
e000
e000
e000
e000
fff8
fff8
ENDCHAR
STARTCHAR F
ENCODING 70
SWIDTH 611 0
DWIDTH 15 0
BBX 12 19 2 0
BITMAP
fff0
fff0
e000
e000
e000
e000
e000
e000
ffe0
ffe0
e000
e000
e000
e000
e000
e000
e000
e000
e000
ENDCHAR
STARTCHAR G
ENCODING 71
SWIDTH 778 0
DWIDTH 19 0
BBX 17 19 1 0
BITMAP
07f000
1ffc00
3e3e00
780f00
700700
f00000
e00000
e00000
e00000
e07f80
e07f80
e00380
e00380
f00380
700780
780f80
3e3f80
1ffb80
07f380
ENDCHAR
STARTCHAR H
ENCODING 72
SWIDTH 722 0
DWIDTH 19 0
BBX 15 19 2 0
BITMAP
e00e
e00e
e00e
e00e
e00e
e00e
e00e
e00e
fffe
fffe
e00e
e00e
e00e
e00e
e00e
e00e
e00e
e00e
e00e
ENDCHAR
STARTCHAR I
ENCODING 73
SWIDTH 278 0
DWIDTH 7 0
BBX 3 19 2 0
BITMAP
e0
e0
e0
e0
e0
e0
e0
e0
e0
e0
e0
e0
e0
e0
e0
e0
e0
e0
e0
ENDCHAR
STARTCHAR J
ENCODING 74
SWIDTH 556 0
DWIDTH 14 0
BBX 11 19 1 0
BITMAP
00e0
00e0
00e0
00e0
00e0
00e0
00e0
00e0
00e0
00e0
00e0
00e0
e0e0
e0e0
e0e0
e0e0
71e0
7fc0
3f80
ENDCHAR
STARTCHAR K
ENCODING 75
SWIDTH 722 0
DWIDTH 18 0
BBX 14 19 2 0
BITMAP
e03c
e078
e0f0
e1e0
e3c0
e780
ef00
fe00
fe00
ff00
f780
e380
e1c0
e1e0
e0e0
e070
e078
e038
e03c
ENDCHAR
STARTCHAR L
ENCODING 76
SWIDTH 611 0
DWIDTH 15 0
BBX 12 19 2 0
BITMAP
e000
e000
e000
e000
e000
e000
e000
e000
e000
e000
e000
e000
e000
e000
e000
e000
e000
fff0
fff0
ENDCHAR
STARTCHAR M
ENCODING 77
SWIDTH 833 0
DWIDTH 23 0
BBX 19 19 2 0
BITMAP
e000e0
f001e0
f001e0
f803e0
f803e0
fc07e0
ec06e0
ee0ee0
e60ce0
e71ce0
e71ce0
e318e0
e3b8e0
e3b8e0
e1f0e0
e1f0e0
e0e0e0
e0e0e0
e0e0e0
ENDCHAR
STARTCHAR N
ENCODING 78
SWIDTH 722 0
DWIDTH 19 0
BBX 15 19 2 0
BITMAP
e00e
f00e
f00e
f80e
f80e
fc0e
ee0e
ee0e
e70e
e38e
e38e
e1ce
e0ce
e0ee
e07e
e03e
e03e
e01e
e00e
ENDCHAR
STARTCHAR O
ENCODING 79
SWIDTH 778 0
DWIDTH 19 0
BBX 17 19 1 0
BITMAP
07f000
1ffc00
3e3e00
780f00
700700
f00780
e00380
e00380
e00380
e00380
e00380
e00380
e00380
f00780
700700
780f00
3e3e00
1ffc00
07f000
ENDCHAR
STARTCHAR P
ENCODING 80
SWIDTH 667 0
DWIDTH 17 0
BBX 14 19 2 0
BITMAP
ffe0
fff8
e038
e01c
e01c
e01c
e01c
e038
fff8
fff0
e000
e000
e000
e000
e000
e000
e000
e000
e000
ENDCHAR
STARTCHAR Q
ENCODING 81
SWIDTH 778 0
DWIDTH 19 0
BBX 17 20 1 -1
BITMAP
07f000
1ffc00
3e3e00
780f00
700700
f00780
e00380
e00380
e00380
e00380
e00380
e00380
e00380
f02780
707700
783f00
3e1e00
1ffe00
07f700
000200
ENDCHAR
STARTCHAR R
ENCODING 82
SWIDTH 722 0
DWIDTH 17 0
BBX 14 19 2 0
BITMAP
ffe0
fff8
e038
e01c
e01c
e01c
e01c
e038
fff8
fff0
e078
e038
e01c
e01c
e01c
e01c
e01c
e01c
e01c
ENDCHAR
STARTCHAR S
ENCODING 83
SWIDTH 667 0
DWIDTH 17 0
BBX 14 19 2 0
BITMAP
0fc0
3ff0
78f8
f038
e038
e000
f000
7c00
3fc0
07f0
00f8
003c
001c
e01c
e01c
e03c
f8f8
7ff0
1fc0
ENDCHAR
STARTCHAR T
ENCODING 84
SWIDTH 611 0
DWIDTH 15 0
BBX 15 19 0 0
BITMAP
fffe
fffe
0380
0380
0380
0380
0380
0380
0380
0380
0380
0380
0380
0380
0380
0380
0380
0380
0380
ENDCHAR
STARTCHAR U
ENCODING 85
SWIDTH 722 0
DWIDTH 19 0
BBX 15 19 2 0
BITMAP
e00e
e00e
e00e
e00e
e00e
e00e
e00e
e00e
e00e
e00e
e00e
e00e
e00e
e00e
f01e
701c
7c7c
3ff8
0fe0
ENDCHAR
STARTCHAR V
ENCODING 86
SWIDTH 667 0
DWIDTH 18 0
BBX 16 19 1 0
BITMAP
e007
e007
f00f
700e
781e
381c
381c
3c3c
1c38
1c38
1e78
0e70
0e70
0e70
07e0
07e0
03c0
03c0
03c0
ENDCHAR
STARTCHAR W
ENCODING 87
SWIDTH 944 0
DWIDTH 23 0
BBX 21 19 1 0
BITMAP
e07038
e07038
e07038
e07038
70f870
70f870
70d870
71dc70
31dc60
39dce0
398ce0
3b8ee0
1b8ec0
1b8ec0
1f07c0
1f07c0
0e0380
0e0380
0e0380
ENDCHAR
STARTCHAR X
ENCODING 88
SWIDTH 667 0
DWIDTH 18 0
BBX 16 19 1 0
BITMAP
e007
f00f
781e
381c
1c38
0e70
0ff0
07e0
03c0
03c0
07e0
0ff0
0e70
1c38
3c3c
381c
700e
f00f
e007
ENDCHAR
STARTCHAR Y
ENCODING 89
SWIDTH 667 0
DWIDTH 17 0
BBX 15 19 1 0
BITMAP
e00e
f00e
701c
781c
3838
3c38
1c70
1c70
0ee0
0ee0
07c0
07c0
0380
0380
0380
0380
0380
0380
0380
ENDCHAR
STARTCHAR Z
ENCODING 90
SWIDTH 611 0
DWIDTH 16 0
BBX 14 19 1 0
BITMAP
fffc
fffc
003c
0078
00f0
01e0
01e0
03c0
0780
0780
0f00
1e00
1e00
3c00
3800
7800
f000
fffc
fffc
ENDCHAR
STARTCHAR bracketleft
ENCODING 91
SWIDTH 333 0
DWIDTH 8 0
BBX 5 24 1 -5
BITMAP
f8
f8
e0
e0
e0
e0
e0
e0
e0
e0
e0
e0
e0
e0
e0
e0
e0
e0
e0
e0
e0
e0
f8
f8
ENDCHAR
STARTCHAR backslash
ENCODING 92
SWIDTH 278 0
DWIDTH 8 0
BBX 7 19 0 0
BITMAP
c0
c0
c0
60
60
60
30
30
30
30
18
18
18
0c
0c
0c
06
06
06
ENDCHAR
STARTCHAR bracketright
ENCODING 93
SWIDTH 333 0
DWIDTH 8 0
BBX 5 24 2 -5
BITMAP
f8
f8
38
38
38
38
38
38
38
38
38
38
38
38
38
38
38
38
38
38
38
38
f8
f8
ENDCHAR
STARTCHAR asciicircum
ENCODING 94
SWIDTH 584 0
DWIDTH 14 0
BBX 11 9 1 10
BITMAP
0e00
0e00
1f00
1b00
3b80
71c0
71c0
e0e0
e0e0
ENDCHAR
STARTCHAR underscore
ENCODING 95
SWIDTH 556 0
DWIDTH 14 0
BBX 14 2 0 -5
BITMAP
fffc
fffc
ENDCHAR
STARTCHAR grave
ENCODING 96
SWIDTH 333 0
DWIDTH 8 0
BBX 6 4 1 15
BITMAP
e0
70
38
1c
ENDCHAR
STARTCHAR a
ENCODING 97
SWIDTH 556 0
DWIDTH 14 0
BBX 12 14 1 0
BITMAP
1f80
3fc0
71e0
70e0
00e0
07e0
3fe0
7ce0
f0e0
e0e0
e1e0
f3e0
7ff0
3e70
ENDCHAR
STARTCHAR b
ENCODING 98
SWIDTH 611 0
DWIDTH 15 0
BBX 12 19 2 0
BITMAP
e000
e000
e000
e000
e000
ef80
ffc0
f9e0
f0e0
e070
e070
e070
e070
e070
e070
f0e0
f9e0
ffc0
ef80
ENDCHAR
STARTCHAR c
ENCODING 99
SWIDTH 556 0
DWIDTH 13 0
BBX 11 14 1 0
BITMAP
1f80
3fc0
79e0
70e0
e000
e000
e000
e000
e000
e000
70e0
79e0
3fc0
1f80
ENDCHAR
STARTCHAR d
ENCODING 100
SWIDTH 611 0
DWIDTH 15 0
BBX 12 19 1 0
BITMAP
0070
0070
0070
0070
0070
1f70
3ff0
79f0
70f0
e070
e070
e070
e070
e070
e070
70f0
79f0
3ff0
1f70
ENDCHAR
STARTCHAR e
ENCODING 101
SWIDTH 556 0
DWIDTH 14 0
BBX 12 14 1 0
BITMAP
0f00
3fc0
79e0
70e0
e070
e070
fff0
fff0
e000
e000
7070
78f0
3fe0
0f80
ENDCHAR
STARTCHAR f
ENCODING 102
SWIDTH 333 0
DWIDTH 9 0
BBX 7 19 1 0
BITMAP
1e
3e
38
38
38
fe
fe
38
38
38
38
38
38
38
38
38
38
38
38
ENDCHAR
STARTCHAR g
ENCODING 103
SWIDTH 611 0
DWIDTH 15 0
BBX 12 19 1 -5
BITMAP
1f70
3ff0
79f0
70f0
e070
e070
e070
e070
e070
e070
70f0
79f0
3ff0
1f70
0070
e070
f0e0
7fe0
1f80
ENDCHAR
STARTCHAR h
ENCODING 104
SWIDTH 611 0
DWIDTH 15 0
BBX 11 19 2 0
BITMAP
e000
e000
e000
e000
e000
ef00
ffc0
f1c0
e0e0
e0e0
e0e0
e0e0
e0e0
e0e0
e0e0
e0e0
e0e0
e0e0
e0e0
ENDCHAR
STARTCHAR i
ENCODING 105
SWIDTH 278 0
DWIDTH 7 0
BBX 3 19 2 0
BITMAP
e0
e0
e0
00
00
e0
e0
e0
e0
e0
e0
e0
e0
e0
e0
e0
e0
e0
e0
ENDCHAR
STARTCHAR j
ENCODING 106
SWIDTH 278 0
DWIDTH 7 0
BBX 5 24 0 -5
BITMAP
38
38
38
00
00
38
38
38
38
38
38
38
38
38
38
38
38
38
38
38
38
38
f8
f0
ENDCHAR
STARTCHAR k
ENCODING 107
SWIDTH 556 0
DWIDTH 14 0
BBX 11 19 2 0
BITMAP
e000
e000
e000
e000
e000
e1c0
e3c0
e780
ef00
fe00
fc00
fe00
ef00
e700
e780
e3c0
e1c0
e1e0
e0e0
ENDCHAR
STARTCHAR l
ENCODING 108
SWIDTH 278 0
DWIDTH 7 0
BBX 3 19 2 0
BITMAP
e0
e0
e0
e0
e0
e0
e0
e0
e0
e0
e0
e0
e0
e0
e0
e0
e0
e0
e0
ENDCHAR
STARTCHAR m
ENCODING 109
SWIDTH 889 0
DWIDTH 21 0
BBX 17 14 2 0
BITMAP
ef3e00
ffff00
f3e780
e1c380
e1c380
e1c380
e1c380
e1c380
e1c380
e1c380
e1c380
e1c380
e1c380
e1c380
ENDCHAR
STARTCHAR n
ENCODING 110
SWIDTH 611 0
DWIDTH 15 0
BBX 11 14 2 0
BITMAP
ef80
ffc0
f1c0
e0e0
e0e0
e0e0
e0e0
e0e0
e0e0
e0e0
e0e0
e0e0
e0e0
e0e0
ENDCHAR
STARTCHAR o
ENCODING 111
SWIDTH 611 0
DWIDTH 14 0
BBX 12 14 1 0
BITMAP
0f00
3fc0
79e0
70e0
e070
e070
e070
e070
e070
e070
70e0
79e0
3fc0
0f00
ENDCHAR
STARTCHAR p
ENCODING 112
SWIDTH 611 0
DWIDTH 15 0
BBX 12 19 2 -5
BITMAP
ef80
ffc0
f9e0
f0e0
e070
e070
e070
e070
e070
e070
f0e0
f9e0
ffc0
ef80
e000
e000
e000
e000
e000
ENDCHAR
STARTCHAR q
ENCODING 113
SWIDTH 611 0
DWIDTH 15 0
BBX 12 19 1 -5
BITMAP
1f70
3ff0
79f0
70f0
e070
e070
e070
e070
e070
e070
70f0
79f0
3ff0
1f70
0070
0070
0070
0070
0070
ENDCHAR
STARTCHAR r
ENCODING 114
SWIDTH 389 0
DWIDTH 10 0
BBX 7 14 2 0
BITMAP
ee
fe
fe
f0
e0
e0
e0
e0
e0
e0
e0
e0
e0
e0
ENDCHAR
STARTCHAR s
ENCODING 115
SWIDTH 556 0
DWIDTH 13 0
BBX 11 14 1 0
BITMAP
3f00
7f80
f3c0
e1c0
e000
fc00
7f80
0fc0
01e0
e0e0
e0e0
f1e0
7fc0
3f80
ENDCHAR
STARTCHAR t
ENCODING 116
SWIDTH 333 0
DWIDTH 9 0
BBX 7 18 1 0
BITMAP
38
38
38
38
fe
fe
38
38
38
38
38
38
38
38
38
38
3e
1e
ENDCHAR
STARTCHAR u
ENCODING 117
SWIDTH 611 0
DWIDTH 15 0
BBX 11 14 2 0
BITMAP
e0e0
e0e0
e0e0
e0e0
e0e0
e0e0
e0e0
e0e0
e0e0
e0e0
e1e0
73e0
7ee0
1ce0
ENDCHAR
STARTCHAR v
ENCODING 118
SWIDTH 556 0
DWIDTH 14 0
BBX 12 14 1 0
BITMAP
e070
e070
e070
70e0
70e0
70e0
39c0
39c0
39c0
1f80
1f80
0f00
0f00
0f00
ENDCHAR
STARTCHAR w
ENCODING 119
SWIDTH 778 0
DWIDTH 19 0
BBX 19 14 0 0
BITMAP
e0e0e0
e0e0e0
60e0c0
71f1c0
71f1c0
31b180
33b980
3bbb80
1b1b00
1f1f00
1f1f00
0e0e00
0e0e00
0e0e00
ENDCHAR
STARTCHAR x
ENCODING 120
SWIDTH 556 0
DWIDTH 13 0
BBX 11 14 1 0
BITMAP
e0e0
f1e0
71c0
3b80
3f80
1f00
0e00
1f00
1f00
3b80
7bc0
71c0
f1e0
e0e0
ENDCHAR
STARTCHAR y
ENCODING 121
SWIDTH 556 0
DWIDTH 15 0
BBX 13 19 1 -5
BITMAP
e038
e038
7038
7870
3870
3cf0
1ce0
1ce0
0fc0
0fc0
07c0
0780
0380
0380
0700
0700
0e00
3e00
3c00
ENDCHAR
STARTCHAR z
ENCODING 122
SWIDTH 500 0
DWIDTH 13 0
BBX 11 14 1 0
BITMAP
ffe0
ffe0
01c0
0380
0780
0f00
0e00
1e00
3c00
3800
7000
f000
ffe0
ffe0
ENDCHAR
STARTCHAR braceleft
ENCODING 123
SWIDTH 389 0
DWIDTH 10 0
BBX 7 24 1 -5
BITMAP
0e
1c
38
38
38
38
38
38
38
38
70
e0
e0
70
38
38
38
38
38
38
38
38
1c
0e
ENDCHAR
STARTCHAR bar
ENCODING 124
SWIDTH 280 0
DWIDTH 7 0
BBX 2 24 3 -5
BITMAP
c0
c0
c0
c0
c0
c0
c0
c0
c0
c0
c0
c0
c0
c0
c0
c0
c0
c0
c0
c0
c0
c0
c0
c0
ENDCHAR
STARTCHAR braceright
ENCODING 125
SWIDTH 389 0
DWIDTH 10 0
BBX 7 24 2 -5
BITMAP
e0
70
38
38
38
38
38
38
38
38
1c
0e
0e
1c
38
38
38
38
38
38
38
38
70
e0
ENDCHAR
STARTCHAR asciitilde
ENCODING 126
SWIDTH 584 0
DWIDTH 14 0
BBX 11 4 1 5
BITMAP
78e0
fee0
efe0
e3c0
ENDCHAR
STARTCHAR nobreakspace
ENCODING 160
SWIDTH 278 0
DWIDTH 6 0
BBX 1 1 0 0
BITMAP
00
ENDCHAR
STARTCHAR Aogonek
ENCODING 161
SWIDTH 722 0
DWIDTH 18 0
BBX 16 25 1 -6
BITMAP
03c0
03c0
07e0
07e0
0e60
0e70
0e70
1c38
1c38
1c38
381c
381c
3ffc
7ffe
700e
700e
e007
e007
e007
01e0
0380
0700
0700
07e0
03c0
ENDCHAR
STARTCHAR breve
ENCODING 162
SWIDTH 333 0
DWIDTH 9 0
BBX 9 4 0 15
BITMAP
c180
e380
7f00
3e00
ENDCHAR
STARTCHAR Lstroke
ENCODING 163
SWIDTH 611 0
DWIDTH 15 0
BBX 14 19 0 0
BITMAP
3800
3800
3800
3800
3800
3800
3b00
3e00
3c00
7800
f800
3800
3800
3800
3800
3800
3800
3ffc
3ffc
ENDCHAR
STARTCHAR currency
ENCODING 164
SWIDTH 556 0
DWIDTH 14 0
BBX 12 12 1 3
BITMAP
c030
ef70
7fe0
39c0
70e0
70e0
70e0
70e0
39c0
7fe0
ef70
c030
ENDCHAR
STARTCHAR Lcaron
ENCODING 165
SWIDTH 611 0
DWIDTH 15 0
BBX 12 21 2 0
BITMAP
0e00
0e00
ee00
e600
e600
ec00
e000
e000
e000
e000
e000
e000
e000
e000
e000
e000
e000
e000
e000
fff0
fff0
ENDCHAR
STARTCHAR Sacute
ENCODING 166
SWIDTH 667 0
DWIDTH 17 0
BBX 14 24 2 0
BITMAP
00e0
01c0
0380
0700
0000
0fc0
3ff0
78f8
f038
e038
e000
f000
7c00
3fc0
07f0
00f8
003c
001c
e01c
e01c
e03c
f8f8
7ff0
1fc0
ENDCHAR
STARTCHAR section
ENCODING 167
SWIDTH 556 0
DWIDTH 14 0
BBX 12 24 1 -5
BITMAP
1f80
3fc0
79e0
70e0
78e0
3c00
1e00
7f00
f780
e3c0
e1e0
e0e0
7070
7870
3c70
1ee0
0fc0
0780
03c0
71e0
70e0
79e0
3fc0
1f80
ENDCHAR
STARTCHAR diaeresis
ENCODING 168
SWIDTH 333 0
DWIDTH 9 0
BBX 7 2 1 16
BITMAP
ee
ee
ENDCHAR
STARTCHAR Scaron
ENCODING 169
SWIDTH 667 0
DWIDTH 17 0
BBX 14 24 2 0
BITMAP
38e0
1dc0
0f80
0700
0000
0fc0
3ff0
78f8
f038
e038
e000
f000
7c00
3fc0
07f0
00f8
003c
001c
e01c
e01c
e03c
f8f8
7ff0
1fc0
ENDCHAR
STARTCHAR Scedilla
ENCODING 170
SWIDTH 667 0
DWIDTH 17 0
BBX 14 25 2 -6
BITMAP
0fc0
3ff0
78f8
f038
e038
e000
f000
7c00
3fc0
07f0
00f8
003c
001c
e01c
e01c
e03c
f8f8
7ff0
1fc0
0700
0780
01c0
01c0
0fc0
0780
ENDCHAR
STARTCHAR Tcaron
ENCODING 171
SWIDTH 611 0
DWIDTH 15 0
BBX 15 24 0 0
BITMAP
1c70
0ee0
07c0
0380
0000
fffe
fffe
0380
0380
0380
0380
0380
0380
0380
0380
0380
0380
0380
0380
0380
0380
0380
0380
0380
ENDCHAR
STARTCHAR Zacute
ENCODING 172
SWIDTH 611 0
DWIDTH 16 0
BBX 14 24 1 0
BITMAP
00e0
01c0
0380
0700
0000
fffc
fffc
003c
0078
00f0
01e0
01e0
03c0
0780
0780
0f00
1e00
1e00
3c00
3800
7800
f000
fffc
fffc
ENDCHAR
STARTCHAR hyphen
ENCODING 173
SWIDTH 333 0
DWIDTH 8 0
BBX 7 3 0 6
BITMAP
fe
fe
fe
ENDCHAR
STARTCHAR Zcaron
ENCODING 174
SWIDTH 611 0
DWIDTH 16 0
BBX 14 24 1 0
BITMAP
38e0
1dc0
0f80
0700
0000
fffc
fffc
003c
0078
00f0
01e0
01e0
03c0
0780
0780
0f00
1e00
1e00
3c00
3800
7800
f000
fffc
fffc
ENDCHAR
STARTCHAR Zabovedot
ENCODING 175
SWIDTH 611 0
DWIDTH 16 0
BBX 14 22 1 0
BITMAP
0700
0700
0000
fffc
fffc
003c
0078
00f0
01e0
01e0
03c0
0780
0780
0f00
1e00
1e00
3c00
3800
7800
f000
fffc
fffc
ENDCHAR
STARTCHAR degree
ENCODING 176
SWIDTH 400 0
DWIDTH 9 0
BBX 8 7 0 11
BITMAP
3c
66
c3
c3
c3
66
3c
ENDCHAR
STARTCHAR aogonek
ENCODING 177
SWIDTH 556 0
DWIDTH 14 0
BBX 12 20 1 -6
BITMAP
1f80
3fc0
71e0
70e0
00e0
07e0
3fe0
7ce0
f0e0
e0e0
e1e0
f3e0
7ff0
3e70
0780
0e00
1c00
1c00
1f80
0f00
ENDCHAR
STARTCHAR ogonek
ENCODING 178
SWIDTH 333 0
DWIDTH 8 0
BBX 6 6 1 -5
BITMAP
3c
70
e0
e0
fc
78
ENDCHAR
STARTCHAR lstroke
ENCODING 179
SWIDTH 278 0
DWIDTH 7 0
BBX 7 19 0 0
BITMAP
38
38
38
38
38
38
38
3e
3c
78
f8
38
38
38
38
38
38
38
38
ENDCHAR
STARTCHAR acute
ENCODING 180
SWIDTH 333 0
DWIDTH 8 0
BBX 6 4 1 15
BITMAP
1c
38
70
e0
ENDCHAR
STARTCHAR lcaron
ENCODING 181
SWIDTH 440 0
DWIDTH 11 0
BBX 7 21 2 0
BITMAP
0e
0e
ee
e6
e6
ec
e0
e0
e0
e0
e0
e0
e0
e0
e0
e0
e0
e0
e0
e0
e0
ENDCHAR
STARTCHAR sacute
ENCODING 182
SWIDTH 556 0
DWIDTH 13 0
BBX 11 19 1 0
BITMAP
0380
0700
0e00
1c00
0000
3f00
7f80
f3c0
e1c0
e000
fc00
7f80
0fc0
01e0
e0e0
e0e0
f1e0
7fc0
3f80
ENDCHAR
STARTCHAR caron
ENCODING 183
SWIDTH 333 0
DWIDTH 9 0
BBX 9 4 0 15
BITMAP
e380
7700
3e00
1c00
ENDCHAR
STARTCHAR cedilla
ENCODING 184
SWIDTH 333 0
DWIDTH 8 0
BBX 6 6 1 -5
BITMAP
70
78
1c
1c
fc
78
ENDCHAR
STARTCHAR scaron
ENCODING 185
SWIDTH 556 0
DWIDTH 13 0
BBX 11 19 1 0
BITMAP
e380
7700
3e00
1c00
0000
3f00
7f80
f3c0
e1c0
e000
fc00
7f80
0fc0
01e0
e0e0
e0e0
f1e0
7fc0
3f80
ENDCHAR
STARTCHAR scedilla
ENCODING 186
SWIDTH 556 0
DWIDTH 13 0
BBX 11 20 1 -6
BITMAP
3f00
7f80
f3c0
e1c0
e000
fc00
7f80
0fc0
01e0
e0e0
e0e0
f1e0
7fc0
3f80
0e00
0f00
0380
0380
1f80
0f00
ENDCHAR
STARTCHAR tcaron
ENCODING 187
SWIDTH 440 0
DWIDTH 11 0
BBX 9 21 1 0
BITMAP
0380
0380
0380
3980
3980
3b00
3800
fe00
fe00
3800
3800
3800
3800
3800
3800
3800
3800
3800
3800
3e00
1e00
ENDCHAR
STARTCHAR zacute
ENCODING 188
SWIDTH 500 0
DWIDTH 13 0
BBX 11 19 1 0
BITMAP
01c0
0380
0700
0e00
0000
ffe0
ffe0
01c0
0380
0780
0f00
0e00
1e00
3c00
3800
7000
f000
ffe0
ffe0
ENDCHAR
STARTCHAR doubleacute
ENCODING 189
SWIDTH 333 0
DWIDTH 9 0
BBX 9 3 0 16
BITMAP
3b80
7700
ee00
ENDCHAR
STARTCHAR zcaron
ENCODING 190
SWIDTH 500 0
DWIDTH 13 0
BBX 11 19 1 0
BITMAP
71c0
3b80
1f00
0e00
0000
ffe0
ffe0
01c0
0380
0780
0f00
0e00
1e00
3c00
3800
7000
f000
ffe0
ffe0
ENDCHAR
STARTCHAR zabovedot
ENCODING 191
SWIDTH 500 0
DWIDTH 13 0
BBX 11 17 1 0
BITMAP
0e00
0e00
0000
ffe0
ffe0
01c0
0380
0780
0f00
0e00
1e00
3c00
3800
7000
f000
ffe0
ffe0
ENDCHAR
STARTCHAR Racute
ENCODING 192
SWIDTH 722 0
DWIDTH 17 0
BBX 14 24 2 0
BITMAP
00e0
01c0
0380
0700
0000
ffe0
fff8
e038
e01c
e01c
e01c
e01c
e038
fff8
fff0
e078
e038
e01c
e01c
e01c
e01c
e01c
e01c
e01c
ENDCHAR
STARTCHAR Aacute
ENCODING 193
SWIDTH 722 0
DWIDTH 18 0
BBX 16 24 1 0
BITMAP
0070
00e0
01c0
0380
0000
03c0
03c0
07e0
07e0
0e60
0e70
0e70
1c38
1c38
1c38
381c
381c
3ffc
7ffe
700e
700e
e007
e007
e007
ENDCHAR
STARTCHAR Acircumflex
ENCODING 194
SWIDTH 722 0
DWIDTH 18 0
BBX 16 24 1 0
BITMAP
01c0
03e0
0770
0e38
0000
03c0
03c0
07e0
07e0
0e60
0e70
0e70
1c38
1c38
1c38
381c
381c
3ffc
7ffe
700e
700e
e007
e007
e007
ENDCHAR
STARTCHAR Abreve
ENCODING 195
SWIDTH 722 0
DWIDTH 18 0
BBX 16 24 1 0
BITMAP
1830
1c70
0fe0
07c0
0000
03c0
03c0
07e0
07e0
0e60
0e70
0e70
1c38
1c38
1c38
381c
381c
3ffc
7ffe
700e
700e
e007
e007
e007
ENDCHAR
STARTCHAR Adiaeresis
ENCODING 196
SWIDTH 722 0
DWIDTH 18 0
BBX 16 23 1 0
BITMAP
0e70
0e70
0000
0000
03c0
03c0
07e0
07e0
0e60
0e70
0e70
1c38
1c38
1c38
381c
381c
3ffc
7ffe
700e
700e
e007
e007
e007
ENDCHAR
STARTCHAR Lacute
ENCODING 197
SWIDTH 611 0
DWIDTH 15 0
BBX 12 24 2 0
BITMAP
1c00
3800
7000
e000
0000
e000
e000
e000
e000
e000
e000
e000
e000
e000
e000
e000
e000
e000
e000
e000
e000
e000
fff0
fff0
ENDCHAR
STARTCHAR Cacute
ENCODING 198
SWIDTH 722 0
DWIDTH 18 0
BBX 16 24 1 0
BITMAP
0038
0070
00e0
01c0
0000
07f0
1ffc
3e3e
780f
7007
f000
e000
e000
e000
e000
e000
e000
e000
f007
7007
780f
3e3e
1ffc
07f0
ENDCHAR
STARTCHAR Ccedilla
ENCODING 199
SWIDTH 722 0
DWIDTH 18 0
BBX 16 24 1 -5
BITMAP
07f0
1ffc
3e3e
780f
7007
f000
e000
e000
e000
e000
e000
e000
e000
f007
7007
780f
3e3e
1ffc
07f0
03c0
00e0
00e0
07e0
03c0
ENDCHAR
STARTCHAR Ccaron
ENCODING 200
SWIDTH 722 0
DWIDTH 18 0
BBX 16 24 1 0
BITMAP
0e38
0770
03e0
01c0
0000
07f0
1ffc
3e3e
780f
7007
f000
e000
e000
e000
e000
e000
e000
e000
f007
7007
780f
3e3e
1ffc
07f0
ENDCHAR
STARTCHAR Eacute
ENCODING 201
SWIDTH 667 0
DWIDTH 16 0
BBX 13 24 2 0
BITMAP
01c0
0380
0700
0e00
0000
fff0
fff0
e000
e000
e000
e000
e000
e000
ffe0
ffe0
e000
e000
e000
e000
e000
e000
e000
fff8
fff8
ENDCHAR
STARTCHAR Eogonek
ENCODING 202
SWIDTH 667 0
DWIDTH 16 0
BBX 13 25 2 -6
BITMAP
fff0
fff0
e000
e000
e000
e000
e000
e000
ffe0
ffe0
e000
e000
e000
e000
e000
e000
e000
fff8
fff8
03c0
0700
0e00
0e00
0fc0
0780
ENDCHAR
STARTCHAR Ediaeresis
ENCODING 203
SWIDTH 667 0
DWIDTH 16 0
BBX 13 23 2 0
BITMAP
38e0
38e0
0000
0000
fff0
fff0
e000
e000
e000
e000
e000
e000
ffe0
ffe0
e000
e000
e000
e000
e000
e000
e000
fff8
fff8
ENDCHAR
STARTCHAR Ecaron
ENCODING 204
SWIDTH 667 0
DWIDTH 16 0
BBX 13 24 2 0
BITMAP
71c0
3b80
1f00
0e00
0000
fff0
fff0
e000
e000
e000
e000
e000
e000
ffe0
ffe0
e000
e000
e000
e000
e000
e000
e000
fff8
fff8
ENDCHAR
STARTCHAR Iacute
ENCODING 205
SWIDTH 278 0
DWIDTH 7 0
BBX 6 24 1 0
BITMAP
1c
38
70
e0
00
70
70
70
70
70
70
70
70
70
70
70
70
70
70
70
70
70
70
70
ENDCHAR
STARTCHAR Icircumflex
ENCODING 206
SWIDTH 278 0
DWIDTH 7 0
BBX 9 24 -1 0
BITMAP
1c00
3e00
7700
e380
0000
1c00
1c00
1c00
1c00
1c00
1c00
1c00
1c00
1c00
1c00
1c00
1c00
1c00
1c00
1c00
1c00
1c00
1c00
1c00
ENDCHAR
STARTCHAR Dcaron
ENCODING 207
SWIDTH 722 0
DWIDTH 19 0
BBX 16 24 2 0
BITMAP
38e0
1dc0
0f80
0700
0000
ffe0
fff8
e07c
e01e
e00e
e00f
e007
e007
e007
e007
e007
e007
e007
e00f
e00e
e01e
e07c
fff8
ffe0
ENDCHAR
STARTCHAR Dstroke
ENCODING 208
SWIDTH 722 0
DWIDTH 19 0
BBX 19 19 -1 0
BITMAP
1ffc00
1fff00
1c0f80
1c03c0
1c01c0
1c01e0
1c00e0
1c00e0
ffc0e0
ffc0e0
1c00e0
1c00e0
1c00e0
1c01e0
1c01c0
1c03c0
1c0f80
1fff00
1ffc00
ENDCHAR
STARTCHAR Nacute
ENCODING 209
SWIDTH 722 0
DWIDTH 19 0
BBX 15 24 2 0
BITMAP
0070
00e0
01c0
0380
0000
e00e
f00e
f00e
f80e
f80e
fc0e
ee0e
ee0e
e70e
e38e
e38e
e1ce
e0ce
e0ee
e07e
e03e
e03e
e01e
e00e
ENDCHAR
STARTCHAR Ncaron
ENCODING 210
SWIDTH 722 0
DWIDTH 19 0
BBX 15 24 2 0
BITMAP
1c70
0ee0
07c0
0380
0000
e00e
f00e
f00e
f80e
f80e
fc0e
ee0e
ee0e
e70e
e38e
e38e
e1ce
e0ce
e0ee
e07e
e03e
e03e
e01e
e00e
ENDCHAR
STARTCHAR Oacute
ENCODING 211
SWIDTH 778 0
DWIDTH 19 0
BBX 17 24 1 0
BITMAP
003800
007000
00e000
01c000
000000
07f000
1ffc00
3e3e00
780f00
700700
f00780
e00380
e00380
e00380
e00380
e00380
e00380
e00380
f00780
700700
780f00
3e3e00
1ffc00
07f000
ENDCHAR
STARTCHAR Ocircumflex
ENCODING 212
SWIDTH 778 0
DWIDTH 19 0
BBX 17 24 1 0
BITMAP
01c000
03e000
077000
0e3800
000000
07f000
1ffc00
3e3e00
780f00
700700
f00780
e00380
e00380
e00380
e00380
e00380
e00380
e00380
f00780
700700
780f00
3e3e00
1ffc00
07f000
ENDCHAR
STARTCHAR Odoubleacute
ENCODING 213
SWIDTH 778 0
DWIDTH 19 0
BBX 17 23 1 0
BITMAP
01dc00
03b800
077000
000000
07f000
1ffc00
3e3e00
780f00
700700
f00780
e00380
e00380
e00380
e00380
e00380
e00380
e00380
f00780
700700
780f00
3e3e00
1ffc00
07f000
ENDCHAR
STARTCHAR Odiaeresis
ENCODING 214
SWIDTH 778 0
DWIDTH 19 0
BBX 17 23 1 0
BITMAP
0e3800
0e3800
000000
000000
07f000
1ffc00
3e3e00
780f00
700700
f00780
e00380
e00380
e00380
e00380
e00380
e00380
e00380
f00780
700700
780f00
3e3e00
1ffc00
07f000
ENDCHAR
STARTCHAR multiply
ENCODING 215
SWIDTH 584 0
DWIDTH 15 0
BBX 12 12 1 1
BITMAP
4020
e070
70e0
39c0
1f80
0f00
0f00
1f80
39c0
70e0
e070
4020
ENDCHAR
STARTCHAR Rcaron
ENCODING 216
SWIDTH 722 0
DWIDTH 17 0
BBX 14 24 2 0
BITMAP
38e0
1dc0
0f80
0700
0000
ffe0
fff8
e038
e01c
e01c
e01c
e01c
e038
fff8
fff0
e078
e038
e01c
e01c
e01c
e01c
e01c
e01c
e01c
ENDCHAR
STARTCHAR Uring
ENCODING 217
SWIDTH 722 0
DWIDTH 19 0
BBX 15 25 2 0
BITMAP
0380
07c0
06c0
07c0
0380
0000
e00e
e00e
e00e
e00e
e00e
e00e
e00e
e00e
e00e
e00e
e00e
e00e
e00e
e00e
f01e
701c
7c7c
3ff8
0fe0
ENDCHAR
STARTCHAR Uacute
ENCODING 218
SWIDTH 722 0
DWIDTH 19 0
BBX 15 24 2 0
BITMAP
0070
00e0
01c0
0380
0000
e00e
e00e
e00e
e00e
e00e
e00e
e00e
e00e
e00e
e00e
e00e
e00e
e00e
e00e
f01e
701c
7c7c
3ff8
0fe0
ENDCHAR
STARTCHAR Udoubleacute
ENCODING 219
SWIDTH 722 0
DWIDTH 19 0
BBX 15 23 2 0
BITMAP
03b8
0770
0ee0
0000
e00e
e00e
e00e
e00e
e00e
e00e
e00e
e00e
e00e
e00e
e00e
e00e
e00e
e00e
f01e
701c
7c7c
3ff8
0fe0
ENDCHAR
STARTCHAR Udiaeresis
ENCODING 220
SWIDTH 722 0
DWIDTH 19 0
BBX 15 23 2 0
BITMAP
1c70
1c70
0000
0000
e00e
e00e
e00e
e00e
e00e
e00e
e00e
e00e
e00e
e00e
e00e
e00e
e00e
e00e
f01e
701c
7c7c
3ff8
0fe0
ENDCHAR
STARTCHAR Yacute
ENCODING 221
SWIDTH 667 0
DWIDTH 17 0
BBX 15 24 1 0
BITMAP
0070
00e0
01c0
0380
0000
e00e
f01e
701c
783c
3838
3c78
1c70
1ef0
0ee0
0fe0
07c0
07c0
0380
0380
0380
0380
0380
0380
0380
ENDCHAR
STARTCHAR Tcedilla
ENCODING 222
SWIDTH 611 0
DWIDTH 15 0
BBX 15 25 0 -6
BITMAP
fffe
fffe
0380
0380
0380
0380
0380
0380
0380
0380
0380
0380
0380
0380
0380
0380
0380
0380
0380
0380
03c0
00e0
00e0
07e0
03c0
ENDCHAR
STARTCHAR ssharp
ENCODING 223
SWIDTH 611 0
DWIDTH 14 0
BBX 11 19 2 0
BITMAP
1e00
7f80
f380
e1c0
e1c0
e1c0
e1c0
e380
ef00
ef80
e3c0
e1c0
e0e0
e0e0
e0e0
e0e0
e1c0
efc0
ef80
ENDCHAR
STARTCHAR racute
ENCODING 224
SWIDTH 389 0
DWIDTH 10 0
BBX 8 19 2 0
BITMAP
07
0e
1c
38
00
ee
fe
fe
f0
e0
e0
e0
e0
e0
e0
e0
e0
e0
e0
ENDCHAR
STARTCHAR aacute
ENCODING 225
SWIDTH 556 0
DWIDTH 14 0
BBX 12 19 1 0
BITMAP
01c0
0380
0700
0e00
0000
1f80
3fc0
71e0
70e0
00e0
07e0
3fe0
7ce0
f0e0
e0e0
e1e0
f3e0
7ff0
3e70
ENDCHAR
STARTCHAR acircumflex
ENCODING 226
SWIDTH 556 0
DWIDTH 14 0
BBX 12 19 1 0
BITMAP
0700
0f80
1dc0
38e0
0000
1f80
3fc0
71e0
70e0
00e0
07e0
3fe0
7ce0
f0e0
e0e0
e1e0
f3e0
7ff0
3e70
ENDCHAR
STARTCHAR abreve
ENCODING 227
SWIDTH 556 0
DWIDTH 14 0
BBX 12 19 1 0
BITMAP
60c0
71c0
3f80
1f00
0000
1f80
3fc0
71e0
70e0
00e0
07e0
3fe0
7ce0
f0e0
e0e0
e1e0
f3e0
7ff0
3e70
ENDCHAR
STARTCHAR adiaeresis
ENCODING 228
SWIDTH 556 0
DWIDTH 14 0
BBX 12 18 1 0
BITMAP
39c0
39c0
0000
0000
1f80
3fc0
71e0
70e0
00e0
07e0
3fe0
7ce0
f0e0
e0e0
e1e0
f3e0
7ff0
3e70
ENDCHAR
STARTCHAR lacute
ENCODING 229
SWIDTH 278 0
DWIDTH 7 0
BBX 6 24 2 0
BITMAP
1c
38
70
e0
00
e0
e0
e0
e0
e0
e0
e0
e0
e0
e0
e0
e0
e0
e0
e0
e0
e0
e0
e0
ENDCHAR
STARTCHAR cacute
ENCODING 230
SWIDTH 556 0
DWIDTH 13 0
BBX 11 19 1 0
BITMAP
01c0
0380
0700
0e00
0000
1f80
3fc0
79e0
70e0
e000
e000
e000
e000
e000
e000
70e0
79e0
3fc0
1f80
ENDCHAR
STARTCHAR ccedilla
ENCODING 231
SWIDTH 556 0
DWIDTH 13 0
BBX 11 19 1 -5
BITMAP
1f80
3fc0
79e0
70e0
e000
e000
e000
e000
e000
e000
70e0
79e0
3fc0
1f80
1e00
0700
0700
3f00
1e00
ENDCHAR
STARTCHAR ccaron
ENCODING 232
SWIDTH 556 0
DWIDTH 13 0
BBX 11 19 1 0
BITMAP
71c0
3b80
1f00
0e00
0000
1f80
3fc0
79e0
70e0
e000
e000
e000
e000
e000
e000
70e0
79e0
3fc0
1f80
ENDCHAR
STARTCHAR eacute
ENCODING 233
SWIDTH 556 0
DWIDTH 14 0
BBX 12 19 1 0
BITMAP
0380
0700
0e00
1c00
0000
0f00
3fc0
79e0
70e0
e070
e070
fff0
fff0
e000
e000
7070
78f0
3fe0
0f80
ENDCHAR
STARTCHAR eogonek
ENCODING 234
SWIDTH 556 0
DWIDTH 14 0
BBX 12 20 1 -6
BITMAP
0f00
3fc0
79e0
70e0
e070
e070
fff0
fff0
e000
e000
7070
78f0
3fe0
0f80
0780
0e00
1c00
1c00
1f80
0f00
ENDCHAR
STARTCHAR ediaeresis
ENCODING 235
SWIDTH 556 0
DWIDTH 14 0
BBX 12 18 1 0
BITMAP
39c0
39c0
0000
0000
0f00
3fc0
79e0
70e0
e070
e070
fff0
fff0
e000
e000
7070
78f0
3fe0
0f80
ENDCHAR
STARTCHAR ecaron
ENCODING 236
SWIDTH 556 0
DWIDTH 14 0
BBX 12 19 1 0
BITMAP
71c0
3b80
1f00
0e00
0000
0f00
3fc0
79e0
70e0
e070
e070
fff0
fff0
e000
e000
7070
78f0
3fe0
0f80
ENDCHAR
STARTCHAR iacute
ENCODING 237
SWIDTH 278 0
DWIDTH 7 0
BBX 6 19 1 0
BITMAP
1c
38
70
e0
00
70
70
70
70
70
70
70
70
70
70
70
70
70
70
ENDCHAR
STARTCHAR icircumflex
ENCODING 238
SWIDTH 278 0
DWIDTH 7 0
BBX 9 19 -1 0
BITMAP
1c00
3e00
7700
e380
0000
1c00
1c00
1c00
1c00
1c00
1c00
1c00
1c00
1c00
1c00
1c00
1c00
1c00
1c00
ENDCHAR
STARTCHAR dcaron
ENCODING 239
SWIDTH 760 0
DWIDTH 19 0
BBX 16 21 1 0
BITMAP
0007
0007
0077
0073
0073
0076
0070
1f70
3ff0
79f0
70f0
e070
e070
e070
e070
e070
e070
70f0
79f0
3ff0
1f70
ENDCHAR
STARTCHAR dstroke
ENCODING 240
SWIDTH 720 0
DWIDTH 18 0
BBX 15 19 1 0
BITMAP
0070
0070
03fe
03fe
0070
1f70
3ff0
79f0
70f0
e070
e070
e070
e070
e070
e070
70f0
79f0
3ff0
1f70
ENDCHAR
STARTCHAR nacute
ENCODING 241
SWIDTH 611 0
DWIDTH 15 0
BBX 11 19 2 0
BITMAP
0380
0700
0e00
1c00
0000
ef80
ffc0
f1c0
e0e0
e0e0
e0e0
e0e0
e0e0
e0e0
e0e0
e0e0
e0e0
e0e0
e0e0
ENDCHAR
STARTCHAR ncaron
ENCODING 242
SWIDTH 611 0
DWIDTH 15 0
BBX 11 19 2 0
BITMAP
e380
7700
3e00
1c00
0000
ef80
ffc0
f1c0
e0e0
e0e0
e0e0
e0e0
e0e0
e0e0
e0e0
e0e0
e0e0
e0e0
e0e0
ENDCHAR
STARTCHAR oacute
ENCODING 243
SWIDTH 611 0
DWIDTH 14 0
BBX 12 19 1 0
BITMAP
0380
0700
0e00
1c00
0000
0f00
3fc0
79e0
70e0
e070
e070
e070
e070
e070
e070
70e0
79e0
3fc0
0f00
ENDCHAR
STARTCHAR ocircumflex
ENCODING 244
SWIDTH 611 0
DWIDTH 14 0
BBX 12 19 1 0
BITMAP
0e00
1f00
3b80
71c0
0000
0f00
3fc0
79e0
70e0
e070
e070
e070
e070
e070
e070
70e0
79e0
3fc0
0f00
ENDCHAR
STARTCHAR odoubleacute
ENCODING 245
SWIDTH 611 0
DWIDTH 14 0
BBX 12 18 1 0
BITMAP
0ee0
1dc0
3b80
0000
0f00
3fc0
79e0
70e0
e070
e070
e070
e070
e070
e070
70e0
79e0
3fc0
0f00
ENDCHAR
STARTCHAR odiaeresis
ENCODING 246
SWIDTH 611 0
DWIDTH 14 0
BBX 12 18 1 0
BITMAP
39c0
39c0
0000
0000
0f00
3fc0
79e0
70e0
e070
e070
e070
e070
e070
e070
70e0
79e0
3fc0
0f00
ENDCHAR
STARTCHAR division
ENCODING 247
SWIDTH 584 0
DWIDTH 15 0
BBX 11 12 2 1
BITMAP
0e00
0e00
0e00
0000
0000
ffe0
ffe0
0000
0000
0e00
0e00
0e00
ENDCHAR
STARTCHAR rcaron
ENCODING 248
SWIDTH 389 0
DWIDTH 10 0
BBX 9 19 1 0
BITMAP
e380
7700
3e00
1c00
0000
7700
7f00
7f00
7800
7000
7000
7000
7000
7000
7000
7000
7000
7000
7000
ENDCHAR
STARTCHAR uring
ENCODING 249
SWIDTH 611 0
DWIDTH 15 0
BBX 11 20 2 0
BITMAP
0e00
1f00
1b00
1f00
0e00
0000
e0e0
e0e0
e0e0
e0e0
e0e0
e0e0
e0e0
e0e0
e0e0
e0e0
e1e0
73e0
7ee0
1ce0
ENDCHAR
STARTCHAR uacute
ENCODING 250
SWIDTH 611 0
DWIDTH 15 0
BBX 11 19 2 0
BITMAP
0380
0700
0e00
1c00
0000
e0e0
e0e0
e0e0
e0e0
e0e0
e0e0
e0e0
e0e0
e0e0
e0e0
e1e0
73e0
7ee0
1ce0
ENDCHAR
STARTCHAR udoubleacute
ENCODING 251
SWIDTH 611 0
DWIDTH 15 0
BBX 11 18 2 0
BITMAP
0ee0
1dc0
3b80
0000
e0e0
e0e0
e0e0
e0e0
e0e0
e0e0
e0e0
e0e0
e0e0
e0e0
e1e0
73e0
7ee0
1ce0
ENDCHAR
STARTCHAR udiaeresis
ENCODING 252
SWIDTH 611 0
DWIDTH 15 0
BBX 11 18 2 0
BITMAP
39c0
39c0
0000
0000
e0e0
e0e0
e0e0
e0e0
e0e0
e0e0
e0e0
e0e0
e0e0
e0e0
e1e0
73e0
7ee0
1ce0
ENDCHAR
STARTCHAR yacute
ENCODING 253
SWIDTH 556 0
DWIDTH 15 0
BBX 13 24 1 -5
BITMAP
00e0
01c0
0380
0700
0000
e038
e038
7038
7870
3870
3cf0
1ce0
1ce0
0fc0
0fc0
07c0
0780
0380
0380
0700
0700
0e00
3e00
3c00
ENDCHAR
STARTCHAR tcedilla
ENCODING 254
SWIDTH 333 0
DWIDTH 9 0
BBX 7 24 1 -6
BITMAP
38
38
38
38
fe
fe
38
38
38
38
38
38
38
38
38
38
3e
1e
38
3c
0e
0e
7e
3c
ENDCHAR
STARTCHAR abovedot
ENCODING 255
SWIDTH 333 0
DWIDTH 7 0
BBX 3 2 2 16
BITMAP
e0
e0
ENDCHAR
ENDFONT
