STARTFONT 2.1
FONT -Adobe-Helvetica-Medium-O-Normal--34-240-100-100-P-176-ISO8859-2
SIZE 24 100 100
FONTBOUNDINGBOX 42 38 -5 -7
COMMENT $XConsortium: helvO24.bdf,v 1.7 95/01/26 17:55:08 gildea Exp $
COMMENT 
COMMENT +
COMMENT  Copyright 1984-1989, 1994 Adobe Systems Incorporated.
COMMENT  Copyright 1988, 1994 Digital Equipment Corporation.
COMMENT
COMMENT  Adobe is a trademark of Adobe Systems Incorporated which may be
COMMENT  registered in certain jurisdictions.
COMMENT  Permission to use these trademarks is hereby granted only in
COMMENT  association with the images described in this file.
COMMENT
COMMENT  Permission to use, copy, modify, distribute and sell this software
COMMENT  and its documentation for any purpose and without fee is hereby
COMMENT  granted, provided that the above copyright notices appear in all
COMMENT  copies and that both those copyright notices and this permission
COMMENT  notice appear in supporting documentation, and that the names of
COMMENT  Adobe Systems and Digital Equipment Corporation not be used in
COMMENT  advertising or publicity pertaining to distribution of the software
COMMENT  without specific, written prior permission.  Adobe Systems and
COMMENT  Digital Equipment Corporation make no representations about the
COMMENT  suitability of this software for any purpose.  It is provided "as
COMMENT  is" without express or implied warranty.
COMMENT -
COMMENT  
COMMENT  Translation to ISO8859-2 by Cub Soft;  Petr.Kolar@vslib.cz
COMMENT  
STARTPROPERTIES 28
FOUNDRY "Adobe"
FAMILY_NAME "Helvetica"
WEIGHT_NAME "Medium"
SLANT "O"
SETWIDTH_NAME "Normal"
ADD_STYLE_NAME ""
PIXEL_SIZE 34
POINT_SIZE 240
RESOLUTION_X 100
RESOLUTION_Y 100
SPACING "P"
AVERAGE_WIDTH 176
CHARSET_REGISTRY "ISO8859"
CHARSET_ENCODING "2"
CAP_HEIGHT 25
X_HEIGHT 18
FONT_ASCENT 28
FONT_DESCENT 7
FACE_NAME "Helvetica Oblique"
COPYRIGHT "Copyright (c) 1984, 1987 Adobe Systems Incorporated. All Rights Reserved. Copyright (c) 1988, 1991 Digital Equipment Corporation. All Rights Reserved., Copyright 1996 Cub Soft"
NOTICE "Helvetica is a trademark of Linotype-Hell AG and/or its subsidiaries.  "
_DEC_DEVICE_FONTNAMES "PS=Helvetica-Oblique"
_DEC_PRODUCTINFO "DECwindows Fonts V2.2, 07-Nov-1991"
DEFAULT_CHAR 32
RELATIVE_SETWIDTH 50
RELATIVE_WEIGHT 50
CHARSET_COLLECTIONS "ASCII ISO8859-2 ADOBE-STANDARD"
FULL_NAME "Helvetica Oblique"
ENDPROPERTIES
CHARS 191
STARTCHAR space
ENCODING 32
SWIDTH 278 0
DWIDTH 9 0
BBX 1 1 0 0
BITMAP
00
ENDCHAR
STARTCHAR exclam
ENCODING 33
SWIDTH 278 0
DWIDTH 9 0
BBX 9 25 3 0
BITMAP
0380
0380
0380
0380
0700
0700
0700
0700
0600
0e00
0e00
0e00
0e00
0c00
1c00
1c00
1800
3800
3000
3000
0000
0000
f000
f000
f000
ENDCHAR
STARTCHAR quotedbl
ENCODING 34
SWIDTH 355 0
DWIDTH 12 0
BBX 9 8 6 17
BITMAP
7380
7380
f780
e700
e700
e700
c600
c600
ENDCHAR
STARTCHAR numbersign
ENCODING 35
SWIDTH 556 0
DWIDTH 19 0
BBX 19 23 2 0
BITMAP
0030c0
0071c0
006180
00e180
00e380
00c300
1fffe0
1fffe0
1fffe0
038e00
030c00
071c00
071c00
0e3800
ffff00
ffff00
ffff00
1c7000
38e000
38e000
30c000
71c000
618000
ENDCHAR
STARTCHAR dollar
ENCODING 36
SWIDTH 556 0
DWIDTH 18 0
BBX 18 30 2 -4
BITMAP
001800
001800
00ff00
03ff80
07b3c0
0e31c0
0e31c0
1c31c0
1c3000
1c7000
1e6000
1f6000
0fe000
07f800
01fe00
00ff00
00c780
00c780
01c380
e18380
e18700
e18f00
f19e00
7ffc00
7ff800
1fe000
030000
030000
070000
060000
ENDCHAR
STARTCHAR percent
ENCODING 37
SWIDTH 889 0
DWIDTH 29 0
BBX 25 24 4 0
BITMAP
00000600
07c00c00
1fe01c00
3cf03800
70703000
60706000
e070c000
e061c000
e0e18000
71c30000
7f860000
3f0e0000
000c0000
00183e00
0030ff00
0071e700
00638380
00c30380
01870380
03870380
03070700
06038f00
0e03fe00
1c01f800
ENDCHAR
STARTCHAR ampersand
ENCODING 38
SWIDTH 667 0
DWIDTH 22 0
BBX 18 23 3 0
BITMAP
007c00
01fe00
03c700
038700
070700
070700
078f00
039e00
03fc00
01f000
03e000
0ff000
1e71c0
3839c0
703b80
701f00
e01f00
e00e00
f01e00
f07f00
7ff780
3fe3c0
0f0000
ENDCHAR
STARTCHAR apostrophe
ENCODING 39
SWIDTH 222 0
DWIDTH 7 0
BBX 4 7 6 18
BITMAP
70
70
70
30
30
60
c0
ENDCHAR
STARTCHAR parenleft
ENCODING 40
SWIDTH 333 0
DWIDTH 11 0
BBX 11 31 3 -6
BITMAP
0060
00c0
01c0
0380
0300
0700
0e00
0e00
1c00
1c00
3800
3800
3800
7000
7000
7000
f000
e000
e000
e000
e000
e000
e000
e000
e000
7000
7000
7000
3000
3000
1800
ENDCHAR
STARTCHAR parenright
ENCODING 41
SWIDTH 333 0
DWIDTH 11 0
BBX 10 31 1 -6
BITMAP
0300
0300
0380
0180
0180
01c0
01c0
01c0
01c0
01c0
01c0
01c0
01c0
01c0
01c0
01c0
0180
0380
0380
0380
0700
0700
0e00
0e00
1c00
1800
3800
3000
6000
c000
c000
ENDCHAR
STARTCHAR asterisk
ENCODING 42
SWIDTH 389 0
DWIDTH 13 0
BBX 9 10 6 15
BITMAP
0c00
0c00
0c00
cd80
ff80
7e00
3c00
6e00
c700
c300
ENDCHAR
STARTCHAR plus
ENCODING 43
SWIDTH 584 0
DWIDTH 19 0
BBX 16 17 4 -1
BITMAP
00e0
00e0
00e0
01c0
01c0
01c0
01c0
7fff
ffff
fffe
0380
0380
0380
0700
0700
0700
0700
ENDCHAR
STARTCHAR comma
ENCODING 44
SWIDTH 278 0
DWIDTH 9 0
BBX 5 8 2 -5
BITMAP
78
78
78
30
30
60
c0
80
ENDCHAR
STARTCHAR minus
ENCODING 45
SWIDTH 584 0
DWIDTH 19 0
BBX 16 3 4 6
BITMAP
7fff
ffff
fffe
ENDCHAR
STARTCHAR period
ENCODING 46
SWIDTH 278 0
DWIDTH 9 0
BBX 4 3 3 0
BITMAP
f0
f0
f0
ENDCHAR
STARTCHAR slash
ENCODING 47
SWIDTH 278 0
DWIDTH 9 0
BBX 14 24 0 0
BITMAP
000c
000c
0018
0018
0030
0030
0060
0060
00c0
00c0
0180
0300
0300
0600
0600
0c00
0c00
1800
1800
3000
3000
6000
c000
c000
ENDCHAR
STARTCHAR zero
ENCODING 48
SWIDTH 556 0
DWIDTH 18 0
BBX 17 24 3 0
BITMAP
00fc00
03fe00
07ff00
0f0f80
1e0780
1c0380
3c0380
380380
380380
700380
700380
700380
f00700
e00700
e00700
e00e00
e00e00
e00e00
e01c00
f03c00
f87800
7ff000
3fe000
0f8000
ENDCHAR
STARTCHAR one
ENCODING 49
SWIDTH 556 0
DWIDTH 18 0
BBX 10 24 7 0
BITMAP
00c0
01c0
03c0
0780
1f80
ff80
ff80
0300
0700
0700
0700
0700
0e00
0e00
0e00
0e00
0e00
1c00
1c00
1c00
1c00
1c00
3800
3800
ENDCHAR
STARTCHAR two
ENCODING 50
SWIDTH 556 0
DWIDTH 18 0
BBX 18 24 3 0
BITMAP
007c00
01ff00
07ff80
0f8780
0e03c0
1e01c0
1c01c0
1c0380
000380
000780
000f00
001e00
007c00
01f800
03e000
0f8000
1e0000
3c0000
700000
600000
e00000
fffc00
fffc00
fffc00
ENDCHAR
STARTCHAR three
ENCODING 51
SWIDTH 556 0
DWIDTH 18 0
BBX 17 24 3 0
BITMAP
00fc00
03ff00
07ff80
0f0780
1e0380
1c0380
380380
380780
000700
001f00
01fc00
01fc00
01fe00
001f00
000f00
000700
000700
e00f00
e00e00
e01e00
f07c00
7ff800
7fe000
1f0000
ENDCHAR
STARTCHAR four
ENCODING 52
SWIDTH 556 0
DWIDTH 18 0
BBX 17 24 2 0
BITMAP
000380
000780
000f80
001f00
001f00
003f00
007700
00e600
01ce00
038e00
070e00
0e0e00
1e1c00
3c1c00
381c00
701c00
ffff80
ffff80
ffff00
003800
003800
007000
007000
007000
ENDCHAR
STARTCHAR five
ENCODING 53
SWIDTH 556 0
DWIDTH 18 0
BBX 19 24 2 0
BITMAP
01ffe0
01ffe0
03ffc0
038000
070000
070000
060000
0e0000
0ef800
1ffe00
1fff00
1e0f80
1c0780
000780
000380
000380
000380
f00780
f00700
f00f00
783e00
7ffc00
3ff000
0fc000
ENDCHAR
STARTCHAR six
ENCODING 54
SWIDTH 556 0
DWIDTH 18 0
BBX 17 24 3 0
BITMAP
007c00
01ff00
03ff00
078780
0e0380
1c0380
1c0000
380000
380000
71f000
77fc00
7ffe00
fc0e00
f80f00
f00700
e00700
e00700
e00f00
e00e00
e01c00
707c00
7ff800
3fe000
0f8000
ENDCHAR
STARTCHAR seven
ENCODING 55
SWIDTH 556 0
DWIDTH 18 0
BBX 17 24 6 0
BITMAP
3fff80
7fff80
7fff80
000700
000e00
001c00
003800
007000
00e000
00c000
01c000
038000
070000
070000
0e0000
1c0000
1c0000
380000
780000
700000
700000
e00000
e00000
e00000
ENDCHAR
STARTCHAR eight
ENCODING 56
SWIDTH 556 0
DWIDTH 18 0
BBX 19 24 2 0
BITMAP
007c00
01ff80
03ffc0
07c3c0
0f01e0
0e00e0
1e00e0
1c01c0
1c01c0
1e0780
0f9f00
07fc00
1ffe00
3e1f00
780700
700780
f00380
e00380
e00700
f00f00
783e00
7ffc00
3ff000
0fc000
ENDCHAR
STARTCHAR nine
ENCODING 57
SWIDTH 556 0
DWIDTH 18 0
BBX 17 24 3 0
BITMAP
00f800
03fe00
07ff00
0f0f00
1e0780
3c0380
380380
380380
700380
700380
700780
780f80
783f80
3fff00
3ff700
0fc700
000e00
000e00
e01c00
e03c00
f07800
fff000
7fc000
3f0000
ENDCHAR
STARTCHAR colon
ENCODING 58
SWIDTH 278 0
DWIDTH 9 0
BBX 7 17 4 0
BITMAP
1e
1e
1e
00
00
00
00
00
00
00
00
00
00
00
f0
f0
f0
ENDCHAR
STARTCHAR semicolon
ENCODING 59
SWIDTH 278 0
DWIDTH 9 0
BBX 8 21 3 -4
BITMAP
0f
0f
0f
00
00
00
00
00
00
00
00
00
00
00
78
78
78
30
30
60
c0
ENDCHAR
STARTCHAR less
ENCODING 60
SWIDTH 584 0
DWIDTH 19 0
BBX 17 16 4 0
BITMAP
000180
000780
001f80
00fe00
03f000
1fc000
7e0000
f00000
f00000
3c0000
1f0000
07e000
01f800
007e00
001e00
000600
ENDCHAR
STARTCHAR equal
ENCODING 61
SWIDTH 584 0
DWIDTH 19 0
BBX 17 9 3 4
BITMAP
3fff80
7fff80
7fff00
000000
000000
000000
7fff00
ffff00
fffe00
ENDCHAR
STARTCHAR greater
ENCODING 62
SWIDTH 584 0
DWIDTH 19 0
BBX 18 16 2 0
BITMAP
180000
1e0000
1f8000
0fe000
01f800
007e00
001f80
0007c0
0007c0
003f80
00fc00
07f000
3f8000
fe0000
f00000
c00000
ENDCHAR
STARTCHAR question
ENCODING 63
SWIDTH 556 0
DWIDTH 18 0
BBX 14 25 7 0
BITMAP
07e0
0ff8
3ff8
783c
701c
e01c
e01c
e03c
0038
0078
00f0
01e0
03c0
0780
0f00
1e00
1c00
1c00
1c00
0000
0000
0000
7800
7800
7800
ENDCHAR
STARTCHAR at
ENCODING 64
SWIDTH 1015 0
DWIDTH 34 0
BBX 32 30 3 -5
BITMAP
00007c00
0007ff80
001fffe0
007e03f0
00f800f8
01e0007c
03c0001e
0780001e
0f01f38e
1e07fb8e
3c0f3f0f
381c1f07
70381e07
70701e07
e0701c0f
e0e0380e
e0e0381c
e1e07038
e1e07078
e1e0e0f0
e0f3f3e0
e0ff7fc0
f07c7f00
f0000000
78000000
3c000000
1f000000
0fe0f000
07fff000
01ffc000
ENDCHAR
STARTCHAR A
ENCODING 65
SWIDTH 667 0
DWIDTH 22 0
BBX 20 25 1 0
BITMAP
000780
000f80
000f80
001fc0
001dc0
003dc0
0039c0
0079c0
00f1c0
00e1c0
01e0e0
01c0e0
03c0e0
0380e0
0780e0
0fffe0
0ffff0
1ffff0
1c0070
3c0070
380070
780070
700070
f00070
e00070
ENDCHAR
STARTCHAR B
ENCODING 66
SWIDTH 667 0
DWIDTH 22 0
BBX 21 25 3 0
BITMAP
07ffc0
07fff0
07fff0
0f0078
0e0038
0e0038
0e0038
0e0078
1c0070
1c00f0
1c01e0
1fffc0
1fff80
3fffc0
3801c0
3800e0
3800e0
7800e0
7000e0
7000e0
7001c0
7003c0
ffff80
ffff00
fffc00
ENDCHAR
STARTCHAR C
ENCODING 67
SWIDTH 722 0
DWIDTH 24 0
BBX 21 25 4 0
BITMAP
003f00
00ffc0
03ffe0
07c1f0
0f8070
0e0078
1e0038
3c0038
380000
780000
700000
700000
f00000
e00000
e00000
e00070
e000f0
e000e0
f001e0
7003c0
780780
3c1f00
3ffe00
1ff800
07e000
ENDCHAR
STARTCHAR D
ENCODING 68
SWIDTH 722 0
DWIDTH 24 0
BBX 22 25 3 0
BITMAP
07ff80
07ffe0
07fff0
0f00f8
0e0038
0e003c
0e001c
0e001c
1c001c
1c001c
1c001c
1c001c
1c001c
38001c
380038
380038
380078
780070
7000e0
7001e0
7003c0
700f80
ffff00
fffe00
fff000
ENDCHAR
STARTCHAR E
ENCODING 69
SWIDTH 667 0
DWIDTH 22 0
BBX 22 25 3 0
BITMAP
07fffc
07fffc
07fff8
070000
0f0000
0e0000
0e0000
0e0000
1c0000
1c0000
1c0000
1fffe0
1fffe0
3fffc0
380000
380000
380000
780000
700000
700000
700000
700000
ffffc0
ffffc0
ffff80
ENDCHAR
STARTCHAR F
ENCODING 70
SWIDTH 611 0
DWIDTH 20 0
BBX 21 25 3 0
BITMAP
07fff8
07fff8
07fff0
070000
0f0000
0e0000
0e0000
0e0000
0e0000
1c0000
1c0000
1fff80
1fff80
3fff00
380000
380000
380000
380000
700000
700000
700000
700000
e00000
e00000
e00000
ENDCHAR
STARTCHAR G
ENCODING 71
SWIDTH 778 0
DWIDTH 25 0
BBX 23 25 4 0
BITMAP
001fc0
007ff0
01fffc
03e07c
07801e
0f001e
1e000e
1c000e
380000
380000
700000
700000
700ffe
e00ffe
e00ffc
e0001c
e0001c
f0003c
f00038
700078
7800f8
3e03f8
3fffb0
0ffe30
03f800
ENDCHAR
STARTCHAR H
ENCODING 72
SWIDTH 722 0
DWIDTH 24 0
BBX 23 25 3 0
BITMAP
07000e
07000e
07000e
07000e
0e001e
0e001c
0e001c
0e001c
0e003c
1c0038
1c0038
1ffff8
1ffff8
3ffff8
380070
380070
380070
780070
7000f0
7000e0
7000e0
7000e0
e001c0
e001c0
e001c0
ENDCHAR
STARTCHAR I
ENCODING 73
SWIDTH 278 0
DWIDTH 9 0
BBX 8 25 3 0
BITMAP
07
07
07
07
0f
0e
0e
0e
1e
1c
1c
1c
1c
3c
38
38
38
38
78
70
70
70
f0
e0
e0
ENDCHAR
STARTCHAR J
ENCODING 74
SWIDTH 500 0
DWIDTH 16 0
BBX 17 25 2 0
BITMAP
000380
000380
000380
000380
000780
000700
000700
000700
000700
000e00
000e00
000e00
000e00
001e00
001c00
001c00
e01c00
e03c00
e03c00
e03800
e07800
f0f000
7fe000
7fc000
1f0000
ENDCHAR
STARTCHAR K
ENCODING 75
SWIDTH 667 0
DWIDTH 22 0
BBX 23 25 3 0
BITMAP
07001e
07003c
070078
0f00f0
0f01e0
0e03c0
0e0780
0e0f00
1e1e00
1c3c00
1cf800
1df800
1ff800
3f3c00
3e1c00
3c1e00
380e00
780f00
780f00
700780
700780
7003c0
f003c0
e001e0
e001e0
ENDCHAR
STARTCHAR L
ENCODING 76
SWIDTH 556 0
DWIDTH 18 0
BBX 15 25 3 0
BITMAP
0700
0700
0700
0700
0f00
0e00
0e00
0e00
1e00
1c00
1c00
1c00
1c00
3c00
3800
3800
3800
7800
7800
7000
7000
7000
fffe
fffe
fffc
ENDCHAR
STARTCHAR M
ENCODING 77
SWIDTH 833 0
DWIDTH 27 0
BBX 29 25 2 0
BITMAP
07c000f8
07c001f8
07c001f8
07c003f0
0fc003f0
0fc007f0
0ee00ee0
0ee00ee0
1ee01ce0
1ce01ce0
1ce039c0
1ce039c0
1ce071c0
3ce0e3c0
3870e380
3871c380
3871c380
38738380
78738700
70770700
70770700
707e0700
f03e0f00
e03c0e00
e0380e00
ENDCHAR
STARTCHAR N
ENCODING 78
SWIDTH 722 0
DWIDTH 24 0
BBX 23 25 3 0
BITMAP
07800e
07800e
07c00e
0fc00e
0fc01e
0ee01c
0ee01c
0ef01c
1e701c
1c7038
1c7838
1c3838
1c3838
3c3c38
381c70
381c70
381e70
780e70
700e60
700760
7007e0
7007e0
f003c0
e003c0
e003c0
ENDCHAR
STARTCHAR O
ENCODING 79
SWIDTH 778 0
DWIDTH 25 0
BBX 25 25 3 0
BITMAP
000fc000
007ff800
01fffc00
03e03e00
07801f00
0f000f00
1e000780
3c000780
38000380
78000380
70000380
f0000380
f0000780
e0000780
e0000700
e0000f00
e0000e00
f0001e00
70003c00
78007800
7c00f800
3e03e000
1fffc000
0fff0000
01f80000
ENDCHAR
STARTCHAR P
ENCODING 80
SWIDTH 667 0
DWIDTH 22 0
BBX 21 25 3 0
BITMAP
07ff80
07ffe0
07fff0
0700f8
0e0078
0e0038
0e0038
0e0038
0e0078
1c0070
1c00f0
1c01e0
1fffc0
3fff80
3ffe00
380000
380000
380000
700000
700000
700000
700000
e00000
e00000
e00000
ENDCHAR
STARTCHAR Q
ENCODING 81
SWIDTH 778 0
DWIDTH 26 0
BBX 25 26 3 -1
BITMAP
000fc000
007ff800
01fffe00
03e03e00
07801f00
0f000f00
1e000780
3c000780
38000380
78000380
70000380
f0000380
f0000780
e0000780
e0000700
e0000f00
e0000e00
f0021e00
70073c00
7807bc00
7c03f800
3e01f000
1ffff000
0fff7800
01fc3c00
00001800
ENDCHAR
STARTCHAR R
ENCODING 82
SWIDTH 722 0
DWIDTH 24 0
BBX 23 25 3 0
BITMAP
07ffe0
07fff8
07fffc
0f003e
0e001e
0e000e
0e000e
0e001e
1c001e
1c001c
1c003c
1c00f8
1ffff0
3fffe0
3ffff0
3800f0
380078
780078
700078
700078
700070
e000f0
e000f0
e000f0
e000f8
ENDCHAR
STARTCHAR S
ENCODING 83
SWIDTH 667 0
DWIDTH 22 0
BBX 21 25 3 0
BITMAP
003f00
01ffe0
03fff0
0780f8
0e0078
0e0038
1c0038
1c0038
1c0000
1f0000
0fe000
0ffe00
03ff80
007fe0
0007e0
0001f0
0000f0
e000f0
e000e0
e001e0
f003c0
fc07c0
7fff00
3ffe00
07f000
ENDCHAR
STARTCHAR T
ENCODING 84
SWIDTH 611 0
DWIDTH 20 0
BBX 19 25 6 0
BITMAP
7fffe0
ffffe0
ffffc0
01e000
01e000
01c000
01c000
01c000
03c000
038000
038000
038000
038000
078000
070000
070000
070000
0f0000
0f0000
0e0000
0e0000
0e0000
1e0000
1c0000
1c0000
ENDCHAR
STARTCHAR U
ENCODING 85
SWIDTH 722 0
DWIDTH 24 0
BBX 22 25 4 0
BITMAP
0e001c
0e001c
0e001c
1e003c
1c003c
1c0038
1c0038
1c0038
3c0078
380070
380070
380070
380070
7800f0
7000e0
7000e0
f000e0
f001e0
f001c0
7003c0
780780
7c0f00
3ffe00
1ffc00
07e000
ENDCHAR
STARTCHAR V
ENCODING 86
SWIDTH 667 0
DWIDTH 22 0
BBX 20 25 7 0
BITMAP
e000f0
e000e0
e001e0
e001c0
e003c0
f00380
f00780
f00700
700e00
700e00
701c00
703c00
703800
787800
787000
38f000
38e000
39c000
39c000
3b8000
3b8000
3f0000
3f0000
1e0000
1e0000
ENDCHAR
STARTCHAR W
ENCODING 87
SWIDTH 944 0
DWIDTH 31 0
BBX 31 25 6 0
BITMAP
e007801e
e007801c
e00f803c
e00f8038
e01f8078
e01f8070
e03bc0f0
f03bc0e0
f073c1e0
f071c1c0
f0f1c1c0
f0e1c3c0
71e1c380
71c1c780
73c1c700
7381cf00
7781ce00
7701de00
7f01dc00
7e01dc00
7e01f800
7c01f800
7c00f000
7800f000
7800f000
ENDCHAR
STARTCHAR X
ENCODING 88
SWIDTH 667 0
DWIDTH 22 0
BBX 25 25 1 0
BITMAP
07800780
07800f00
03c01e00
03c03c00
01e03c00
00e07800
00f0f000
00f1e000
007bc000
007f8000
003f0000
001e0000
001e0000
003e0000
007f0000
00f70000
01e78000
03c78000
07838000
0f03c000
1e01c000
1c01e000
3c00e000
7800f000
f000f000
ENDCHAR
STARTCHAR Y
ENCODING 89
SWIDTH 667 0
DWIDTH 22 0
BBX 22 25 6 0
BITMAP
f0007c
f000f8
7800f0
7801e0
3803c0
3c0780
3c0700
1e0f00
1e1e00
0e3c00
0f7800
0f7000
07e000
07e000
03c000
038000
038000
078000
078000
070000
070000
070000
0f0000
0e0000
0e0000
ENDCHAR
STARTCHAR Z
ENCODING 90
SWIDTH 611 0
DWIDTH 20 0
BBX 23 25 1 0
BITMAP
01fffe
03fffe
03fffe
00001e
00003c
000078
0000f0
0001e0
0003c0
000780
000f00
001e00
003c00
007800
00f000
01e000
03c000
078000
0f0000
1e0000
3c0000
780000
ffffe0
ffffe0
ffffc0
ENDCHAR
STARTCHAR bracketleft
ENCODING 91
SWIDTH 278 0
DWIDTH 9 0
BBX 12 32 1 -6
BITMAP
03f0
03f0
0380
0380
0700
0700
0700
0700
0700
0e00
0e00
0e00
0e00
1c00
1c00
1c00
1c00
1c00
3800
3800
3800
3800
3800
7000
7000
7000
7000
e000
e000
e000
fc00
fc00
ENDCHAR
STARTCHAR backslash
ENCODING 92
SWIDTH 278 0
DWIDTH 9 0
BBX 4 24 5 0
BITMAP
c0
c0
c0
c0
60
60
60
60
60
60
60
60
60
60
60
30
30
30
30
30
30
30
30
30
ENDCHAR
STARTCHAR bracketright
ENCODING 93
SWIDTH 278 0
DWIDTH 9 0
BBX 13 32 -1 -6
BITMAP
01f8
01f8
0038
0038
0070
0070
0070
0070
0070
00e0
00e0
00e0
00e0
01c0
01c0
01c0
01c0
01c0
0380
0380
0380
0380
0380
0700
0700
0700
0700
0e00
0e00
0e00
fe00
fe00
ENDCHAR
STARTCHAR asciicircum
ENCODING 94
SWIDTH 469 0
DWIDTH 16 0
BBX 12 13 4 11
BITMAP
01c0
03c0
03c0
07e0
0ee0
0ce0
1c60
1860
3870
7070
6070
e030
c030
ENDCHAR
STARTCHAR underscore
ENCODING 95
SWIDTH 556 0
DWIDTH 19 0
BBX 20 2 -2 -6
BITMAP
fffff0
fffff0
ENDCHAR
STARTCHAR grave
ENCODING 96
SWIDTH 333 0
DWIDTH 11 0
BBX 5 5 7 20
BITMAP
e0
f0
70
38
18
ENDCHAR
STARTCHAR a
ENCODING 97
SWIDTH 556 0
DWIDTH 18 0
BBX 17 18 2 0
BITMAP
01fe00
07ff00
0f9f80
1c0380
1c0380
000380
000700
007f00
0fff00
3fc700
7c0700
700e00
e00e00
e01e00
e03e00
f1fe00
7fcf00
3f8f00
ENDCHAR
STARTCHAR b
ENCODING 98
SWIDTH 556 0
DWIDTH 18 0
BBX 17 25 2 0
BITMAP
070000
070000
070000
060000
0e0000
0e0000
0e0000
0c7c00
0dff00
1fff00
1f0780
1e0380
1c0380
3c0380
380380
380380
380380
380780
780700
780f00
780e00
7c3c00
fff800
eff000
03c000
ENDCHAR
STARTCHAR c
ENCODING 99
SWIDTH 500 0
DWIDTH 17 0
BBX 15 18 3 0
BITMAP
00f0
07fc
0ffe
1e1e
380e
780e
7000
f000
e000
e000
e000
e01c
e01c
e03c
f078
7ff0
7fe0
1f00
ENDCHAR
STARTCHAR d
ENCODING 100
SWIDTH 556 0
DWIDTH 18 0
BBX 19 25 3 0
BITMAP
0000e0
0000e0
0000e0
0000e0
0001c0
0001c0
0001c0
03f1c0
07f980
1fff80
3e1f80
380780
780780
700700
f00700
e00700
e00700
e00f00
e00e00
e01e00
e03e00
f0fe00
7fee00
3fce00
1f8e00
ENDCHAR
STARTCHAR e
ENCODING 101
SWIDTH 556 0
DWIDTH 18 0
BBX 16 18 3 0
BITMAP
01f8
07fe
1ffe
3e0f
3807
7007
7007
ffff
ffff
ffff
e000
e000
e00e
f01e
787c
7ff8
3ff0
0fc0
ENDCHAR
STARTCHAR f
ENCODING 102
SWIDTH 278 0
DWIDTH 9 0
BBX 11 25 3 0
BITMAP
01e0
03e0
07c0
0700
0e00
0e00
0e00
3f80
7f80
7f00
1c00
1c00
1c00
3800
3800
3800
3800
3800
7000
7000
7000
7000
7000
e000
e000
ENDCHAR
STARTCHAR g
ENCODING 103
SWIDTH 556 0
DWIDTH 18 0
BBX 19 25 1 -7
BITMAP
00f8e0
01fee0
07ffc0
0f87c0
0e03c0
1c03c0
1c0380
380380
380380
380380
380780
380700
380f00
380f00
3c3f00
1ff700
0fe600
078e00
000e00
e01c00
e01c00
f07800
7ff000
7fe000
1fc000
ENDCHAR
STARTCHAR h
ENCODING 104
SWIDTH 556 0
DWIDTH 18 0
BBX 17 25 2 0
BITMAP
070000
070000
070000
070000
0e0000
0e0000
0e0000
0e3c00
0cff00
1fff80
1f0780
1e0380
1c0380
380700
380700
380700
380700
380700
700e00
700e00
700e00
700e00
e01c00
e01c00
e01c00
ENDCHAR
STARTCHAR i
ENCODING 105
SWIDTH 222 0
DWIDTH 7 0
BBX 8 25 2 0
BITMAP
07
07
07
07
00
00
00
0e
0e
0c
1c
1c
1c
1c
38
38
38
38
70
70
70
70
70
e0
e0
ENDCHAR
STARTCHAR j
ENCODING 106
SWIDTH 222 0
DWIDTH 7 0
BBX 12 32 -2 -7
BITMAP
0070
0070
0070
0070
0000
0000
0000
00e0
00e0
01c0
01c0
01c0
01c0
0180
0180
0380
0380
0380
0380
0700
0700
0700
0700
0700
0e00
0e00
0e00
0c00
1c00
3c00
f800
f000
ENDCHAR
STARTCHAR k
ENCODING 107
SWIDTH 500 0
DWIDTH 17 0
BBX 17 25 2 0
BITMAP
070000
070000
070000
070000
0e0000
0e0000
0e0000
0e0780
0c0f00
1c1e00
1c3c00
1c7000
19e000
3bc000
3fe000
3fe000
3cf000
387000
707000
703800
703800
703c00
703c00
e01c00
e01e00
ENDCHAR
STARTCHAR l
ENCODING 108
SWIDTH 222 0
DWIDTH 7 0
BBX 8 25 2 0
BITMAP
07
07
07
07
0e
0e
0e
0e
0c
1c
1c
1c
1c
38
38
38
38
38
70
70
70
70
f0
e0
e0
ENDCHAR
STARTCHAR m
ENCODING 109
SWIDTH 833 0
DWIDTH 28 0
BBX 26 18 2 0
BITMAP
1c7c1f00
1dfe7f80
1fffffc0
1f0fc3c0
1e0781c0
1c0701c0
3c0e0380
380e0380
380e0380
380e0380
380e0380
701c0700
701c0700
701c0700
701c0700
60180700
e0380e00
e0380e00
ENDCHAR
STARTCHAR n
ENCODING 110
SWIDTH 556 0
DWIDTH 18 0
BBX 17 18 2 0
BITMAP
1c3c00
1cff00
1fff00
1f0780
1e0380
1c0380
3c0380
380700
380700
380700
380700
700e00
700e00
700e00
700e00
600e00
e01c00
e01c00
ENDCHAR
STARTCHAR o
ENCODING 111
SWIDTH 556 0
DWIDTH 19 0
BBX 16 18 3 0
BITMAP
01f0
07fc
1ffe
3e1f
380f
7007
7007
f007
e007
e007
e00e
e00e
e01e
e03c
f078
7ff0
7fe0
1f80
ENDCHAR
STARTCHAR p
ENCODING 112
SWIDTH 556 0
DWIDTH 19 0
BBX 18 25 1 -7
BITMAP
003e00
0eff00
0fff80
0f83c0
0f01c0
0e01c0
1e01c0
1c01c0
1c01c0
1c01c0
1c03c0
3c0380
3c0780
3c0700
3e1f00
3ffe00
77f800
73f000
700000
700000
600000
e00000
e00000
e00000
e00000
ENDCHAR
STARTCHAR q
ENCODING 113
SWIDTH 556 0
DWIDTH 19 0
BBX 18 25 3 -7
BITMAP
01f000
07f9c0
1ffdc0
3e0fc0
380780
780780
700780
f00700
e00700
e00700
e00f00
e00f00
e01e00
f01e00
f07e00
7ffe00
7ffc00
1f9c00
001c00
001c00
003800
003800
003800
003800
003800
ENDCHAR
STARTCHAR r
ENCODING 114
SWIDTH 333 0
DWIDTH 11 0
BBX 12 18 2 0
BITMAP
1c70
1cf0
1df0
1fc0
1f00
1e00
3c00
3800
3800
3800
7000
7000
7000
7000
7000
e000
e000
e000
ENDCHAR
STARTCHAR s
ENCODING 115
SWIDTH 500 0
DWIDTH 17 0
BBX 15 18 2 0
BITMAP
03f0
0ffc
1ffe
1c1e
380e
3800
3c00
3f00
1fe0
0ff8
01fc
003c
e01c
e01c
f038
fff8
7ff0
1fc0
ENDCHAR
STARTCHAR t
ENCODING 116
SWIDTH 278 0
DWIDTH 9 0
BBX 8 22 4 0
BITMAP
1c
1c
1c
1c
7f
ff
fe
38
38
38
70
70
70
70
70
e0
e0
e0
e0
f8
f8
70
ENDCHAR
STARTCHAR u
ENCODING 117
SWIDTH 556 0
DWIDTH 19 0
BBX 17 18 3 0
BITMAP
1c0380
1c0380
380700
380700
380700
380700
700f00
700e00
700e00
700e00
700e00
e01e00
e01c00
e03c00
f0fc00
fffc00
7f9c00
3e1c00
ENDCHAR
STARTCHAR v
ENCODING 118
SWIDTH 500 0
DWIDTH 17 0
BBX 15 18 4 0
BITMAP
e00e
e00e
e01c
e01c
e038
e070
e070
60e0
70e0
71c0
7380
7380
7700
7700
7e00
3e00
3c00
3800
ENDCHAR
STARTCHAR w
ENCODING 119
SWIDTH 722 0
DWIDTH 24 0
BBX 23 18 4 0
BITMAP
e0380e
e0781e
e0781c
e0f838
e0f838
e1f870
e1b870
e3b8e0
e3b8e0
e739c0
e719c0
ee1b80
6e1b80
7c1f00
7c1f00
781e00
781e00
701c00
ENDCHAR
STARTCHAR x
ENCODING 120
SWIDTH 500 0
DWIDTH 17 0
BBX 18 18 2 0
BITMAP
0e01c0
0f03c0
070780
078f00
039e00
03fc00
01f800
01f000
00e000
01e000
03f000
07f000
0f7800
1e3800
3c3c00
781c00
f01e00
e00e00
ENDCHAR
STARTCHAR y
ENCODING 121
SWIDTH 500 0
DWIDTH 17 0
BBX 19 25 0 -7
BITMAP
0e00e0
0e01e0
0e01c0
0f0380
0f0380
070700
070700
070e00
071e00
071c00
073800
07b800
07f000
07f000
03e000
03c000
03c000
038000
038000
070000
0f0000
0e0000
fc0000
f80000
f00000
ENDCHAR
STARTCHAR z
ENCODING 122
SWIDTH 500 0
DWIDTH 17 0
BBX 16 18 2 0
BITMAP
1fff
1fff
1fff
000f
001e
003c
0078
00f0
01e0
03c0
0780
0f00
1e00
3c00
7800
fffc
fffc
fffc
ENDCHAR
STARTCHAR braceleft
ENCODING 123
SWIDTH 334 0
DWIDTH 11 0
BBX 12 32 3 -7
BITMAP
00f0
01c0
0380
0380
0300
0700
0700
0700
0600
0e00
0e00
0e00
1c00
1c00
3800
7000
f000
7000
3800
3800
3800
3800
3000
7000
7000
7000
7000
6000
6000
6000
7000
3800
ENDCHAR
STARTCHAR bar
ENCODING 124
SWIDTH 260 0
DWIDTH 9 0
BBX 8 30 2 -6
BITMAP
03
03
07
06
06
06
06
0e
0c
0c
0c
0c
1c
18
18
18
18
30
30
30
30
70
60
60
60
60
e0
c0
c0
c0
ENDCHAR
STARTCHAR braceright
ENCODING 125
SWIDTH 334 0
DWIDTH 11 0
BBX 11 32 0 -7
BITMAP
03c0
00e0
0060
0060
00e0
00c0
00c0
01c0
01c0
01c0
0180
0180
0180
0180
01c0
00e0
01c0
03c0
0300
0700
0600
0e00
0e00
0e00
0c00
1c00
1c00
1c00
1800
3800
7000
e000
ENDCHAR
STARTCHAR asciitilde
ENCODING 126
SWIDTH 584 0
DWIDTH 19 0
BBX 16 6 4 9
BITMAP
0e03
3f03
7fc3
e3e7
c1fe
c078
ENDCHAR
STARTCHAR nobreakspace
ENCODING 160
SWIDTH 278 0
DWIDTH 9 0
BBX 1 1 0 0
BITMAP
00
ENDCHAR
STARTCHAR Aogonek
ENCODING 161
SWIDTH 667 0
DWIDTH 22 0
BBX 20 32 1 -7
BITMAP
000780
000f80
000f80
001fc0
001dc0
003dc0
0039c0
0079c0
00f1c0
00e1c0
01e0e0
01c0e0
03c0e0
0380e0
0780e0
0fffe0
0ffff0
1ffff0
1c0070
3c0070
380070
780070
700070
f00070
e00070
00c000
01c000
018000
038000
038800
03f800
01f000
ENDCHAR
STARTCHAR breve
ENCODING 162
SWIDTH 333 0
DWIDTH 11 0
BBX 9 4 6 20
BITMAP
8080
e380
7f00
3e00
ENDCHAR
STARTCHAR Lstroke
ENCODING 163
SWIDTH 556 0
DWIDTH 19 0
BBX 17 25 2 0
BITMAP
038000
038000
038000
078000
078000
070000
070000
070000
0f7000
0fc000
0f0000
1e0000
7e0000
fe0000
9c0000
1c0000
1c0000
3c0000
3c0000
380000
380000
380000
7fff80
7fff80
7fff00
ENDCHAR
STARTCHAR currency
ENCODING 164
SWIDTH 556 0
DWIDTH 18 0
BBX 15 14 4 5
BITMAP
3806
39ee
3ffe
1ffc
3c38
3818
3818
3018
3038
3038
3878
7ff0
fff8
efb8
ENDCHAR
STARTCHAR Lcaron
ENCODING 165
SWIDTH 556 0
DWIDTH 18 0
BBX 15 27 3 0
BITMAP
0038
0038
0738
0718
0718
0730
0f60
0e00
0e00
0e00
1e00
1c00
1c00
1c00
1c00
3c00
3800
3800
3800
7800
7800
7000
7000
7000
fffe
fffe
fffc
ENDCHAR
STARTCHAR Sacute
ENCODING 166
SWIDTH 667 0
DWIDTH 22 0
BBX 21 31 3 0
BITMAP
0001e0
0003c0
000780
000700
000e00
000000
003f00
01ffe0
03fff0
0780f8
0e0078
0e0038
1c0038
1c0038
1c0000
1f0000
0fe000
0ffe00
03ff80
007fe0
0007e0
0001f0
0000f0
e000f0
e000e0
e001e0
f003c0
fc07c0
7fff00
3ffe00
07f000
ENDCHAR
STARTCHAR section
ENCODING 167
SWIDTH 556 0
DWIDTH 18 0
BBX 18 32 2 -7
BITMAP
003e00
00ff80
01ff80
03c3c0
0381c0
0701c0
0701c0
078000
03c000
07f000
0ff800
1e7c00
1c3e00
3c1e00
380f00
380700
380700
1c0700
1e0e00
1f9e00
0ffc00
03f800
01f000
00f000
007800
e03800
e07800
e07000
f0f000
ffe000
7fc000
1f0000
ENDCHAR
STARTCHAR diaeresis
ENCODING 168
SWIDTH 333 0
DWIDTH 11 0
BBX 10 3 5 22
BITMAP
f3c0
f3c0
f3c0
ENDCHAR
STARTCHAR Scaron
ENCODING 169
SWIDTH 667 0
DWIDTH 22 0
BBX 21 31 3 0
BITMAP
003860
0018e0
001dc0
000f80
000f00
000000
003f00
01ffe0
03fff0
0780f8
0e0078
0e0038
1c0038
1c0038
1c0000
1f0000
0fe000
0ffe00
03ff80
007fe0
0007e0
0001f0
0000f0
e000f0
e000e0
e001e0
f003c0
fc07c0
7fff00
3ffe00
07f000
ENDCHAR
STARTCHAR Scedilla
ENCODING 170
SWIDTH 667 0
DWIDTH 22 0
BBX 21 32 3 -7
BITMAP
003f00
01ffe0
03fff0
0780f8
0e0078
0e0038
1c0038
1c0038
1c0000
1f0000
0fe000
0ffe00
03ff80
007fe0
0007e0
0001f0
0000f0
e000f0
e000e0
e001e0
f003c0
fc07c0
7fff00
3ffe00
07f000
003000
003000
003800
001c00
000c00
019c00
00f800
ENDCHAR
STARTCHAR Tcaron
ENCODING 171
SWIDTH 611 0
DWIDTH 20 0
BBX 19 31 6 0
BITMAP
01c300
00c700
00ee00
007c00
007800
000000
7fffe0
ffffe0
ffffc0
01e000
01e000
01c000
01c000
01c000
03c000
038000
038000
038000
038000
078000
070000
070000
070000
0f0000
0f0000
0e0000
0e0000
0e0000
1e0000
1c0000
1c0000
ENDCHAR
STARTCHAR Zacute
ENCODING 172
SWIDTH 611 0
DWIDTH 20 0
BBX 23 31 1 0
BITMAP
000078
0000f0
0001e0
0001c0
000380
000000
01fffe
03fffe
03fffe
00001e
00003c
000078
0000f0
0001e0
0003c0
000780
000f00
001e00
003c00
007800
00f000
01e000
03c000
078000
0f0000
1e0000
3c0000
780000
ffffe0
ffffe0
ffffc0
ENDCHAR
STARTCHAR hyphen
ENCODING 173
SWIDTH 333 0
DWIDTH 11 0
BBX 9 2 3 8
BITMAP
ff80
ff80
ENDCHAR
STARTCHAR Zcaron
ENCODING 174
SWIDTH 611 0
DWIDTH 20 0
BBX 23 31 1 0
BITMAP
000e18
000638
000770
0003e0
0003c0
000000
01fffe
03fffe
03fffe
00001e
00003c
000078
0000f0
0001e0
0003c0
000780
000f00
001e00
003c00
007800
00f000
01e000
03c000
078000
0f0000
1e0000
3c0000
780000
ffffe0
ffffe0
ffffc0
ENDCHAR
STARTCHAR Zabovedot
ENCODING 175
SWIDTH 611 0
DWIDTH 20 0
BBX 23 29 1 0
BITMAP
0003c0
0003c0
0003c0
000000
01fffe
03fffe
03fffe
00001e
00003c
000078
0000f0
0001e0
0003c0
000780
000f00
001e00
003c00
007800
00f000
01e000
03c000
078000
0f0000
1e0000
3c0000
780000
ffffe0
ffffe0
ffffc0
ENDCHAR
STARTCHAR degree
ENCODING 176
SWIDTH 400 0
DWIDTH 13 0
BBX 9 9 6 14
BITMAP
1f00
7f80
6180
c180
c180
c180
c300
ff00
7c00
ENDCHAR
STARTCHAR aogonek
ENCODING 177
SWIDTH 556 0
DWIDTH 18 0
BBX 17 25 2 -7
BITMAP
01fe00
07ff00
0f9f80
1c0380
1c0380
000380
000700
007f00
0fff00
3fc700
7c0700
700e00
e00e00
e01e00
e03e00
f1fe00
7fcf00
3f8f00
018000
038000
030000
070000
071000
07f000
03e000
ENDCHAR
STARTCHAR ogonek
ENCODING 178
SWIDTH 333 0
DWIDTH 11 0
BBX 7 7 1 -6
BITMAP
30
70
60
e0
e2
fe
7c
ENDCHAR
STARTCHAR lstroke
ENCODING 179
SWIDTH 222 0
DWIDTH 7 0
BBX 8 25 2 0
BITMAP
07
07
07
07
0e
0e
0e
0e
0c
1d
1f
1e
3c
f8
38
38
38
38
70
70
70
70
70
e0
e0
ENDCHAR
STARTCHAR acute
ENCODING 180
SWIDTH 333 0
DWIDTH 11 0
BBX 7 5 8 22
BITMAP
1e
3c
78
70
e0
ENDCHAR
STARTCHAR lcaron
ENCODING 181
SWIDTH 360 0
DWIDTH 12 0
BBX 13 27 2 0
BITMAP
0038
0038
0738
0718
0718
0730
0e60
0e00
0e00
0e00
0c00
1c00
1c00
1c00
1c00
3800
3800
3800
3800
3800
7000
7000
7000
7000
f000
e000
e000
ENDCHAR
STARTCHAR sacute
ENCODING 182
SWIDTH 500 0
DWIDTH 17 0
BBX 15 24 2 0
BITMAP
001e
003c
0078
0070
00e0
0000
03f0
0ffc
1ffe
1c1e
380e
3800
3c00
3f00
1fe0
0ff8
01fc
003c
e01c
e01c
f038
fff8
7ff0
1fc0
ENDCHAR
STARTCHAR caron
ENCODING 183
SWIDTH 333 0
DWIDTH 11 0
BBX 9 5 6 20
BITMAP
e180
6380
7700
3e00
3c00
ENDCHAR
STARTCHAR cedilla
ENCODING 184
SWIDTH 333 0
DWIDTH 11 0
BBX 7 7 1 -7
BITMAP
18
18
1c
0e
06
ce
7c
ENDCHAR
STARTCHAR scaron
ENCODING 185
SWIDTH 500 0
DWIDTH 17 0
BBX 15 24 2 0
BITMAP
0386
018e
01dc
00f8
00f0
0000
03f0
0ffc
1ffe
1c1e
380e
3800
3c00
3f00
1fe0
0ff8
01fc
003c
e01c
e01c
f038
fff8
7ff0
1fc0
ENDCHAR
STARTCHAR scedilla
ENCODING 186
SWIDTH 500 0
DWIDTH 17 0
BBX 15 25 2 -7
BITMAP
03f0
0ffc
1ffe
1c1e
380e
3800
3c00
3f00
1fe0
0ff8
01fc
003c
e01c
e01c
f038
fff8
7ff0
1fc0
0180
0180
01c0
00e0
0060
0ce0
07c0
ENDCHAR
STARTCHAR tcaron
ENCODING 187
SWIDTH 360 0
DWIDTH 12 0
BBX 11 26 4 0
BITMAP
00e0
00e0
00e0
0060
1c60
1cc0
1d80
1c00
7f00
ff00
fe00
3800
3800
3800
7000
7000
7000
7000
7000
e000
e000
e000
e000
f800
f800
7000
ENDCHAR
STARTCHAR zacute
ENCODING 188
SWIDTH 500 0
DWIDTH 17 0
BBX 16 24 2 0
BITMAP
001e
003c
0078
0070
00e0
0000
1fff
1fff
1fff
000f
001e
003c
0078
00f0
01e0
03c0
0780
0f00
1e00
3c00
7800
fffc
fffc
fffc
ENDCHAR
STARTCHAR doubleacute
ENCODING 189
SWIDTH 333 0
DWIDTH 11 0
BBX 12 5 4 20
BITMAP
1c70
3cf0
71c0
e380
c300
ENDCHAR
STARTCHAR zcaron
ENCODING 190
SWIDTH 500 0
DWIDTH 17 0
BBX 16 24 2 0
BITMAP
0386
018e
01dc
00f8
00f0
0000
1fff
1fff
1fff
000f
001e
003c
0078
00f0
01e0
03c0
0780
0f00
1e00
3c00
7800
fffc
fffc
fffc
ENDCHAR
STARTCHAR zabovedot
ENCODING 191
SWIDTH 500 0
DWIDTH 17 0
BBX 16 22 2 0
BITMAP
00f0
00f0
00f0
0000
1fff
1fff
1fff
000f
001e
003c
0078
00f0
01e0
03c0
0780
0f00
1e00
3c00
7800
fffc
fffc
fffc
ENDCHAR
STARTCHAR Racute
ENCODING 192
SWIDTH 722 0
DWIDTH 24 0
BBX 23 31 3 0
BITMAP
0000f0
0001e0
0003c0
000380
000700
000000
07ffe0
07fff8
07fffc
0f003e
0e001e
0e000e
0e000e
0e001e
1c001e
1c001c
1c003c
1c00f8
1ffff0
3fffe0
3ffff0
3800f0
380078
780078
700078
700078
700070
e000f0
e000f0
e000f0
e000f8
ENDCHAR
STARTCHAR Aacute
ENCODING 193
SWIDTH 667 0
DWIDTH 22 0
BBX 20 31 1 0
BITMAP
0000f0
0001e0
0003c0
000700
000e00
000000
000780
000f80
000f80
001fc0
001dc0
003dc0
0039c0
0079c0
00f1c0
00e1c0
01e0e0
01c0e0
03c0e0
0380e0
0780e0
0fffe0
0ffff0
1ffff0
1c0070
3c0070
380070
780070
700070
f00070
e00070
ENDCHAR
STARTCHAR Acircumflex
ENCODING 194
SWIDTH 667 0
DWIDTH 22 0
BBX 20 31 1 0
BITMAP
0003c0
0007c0
000ee0
001ce0
003870
000000
000780
000f80
000f80
001fc0
001dc0
003dc0
0039c0
0079c0
00f1c0
00e1c0
01e0e0
01c0e0
03c0e0
0380e0
0780e0
0fffe0
0ffff0
1ffff0
1c0070
3c0070
380070
780070
700070
f00070
e00070
ENDCHAR
STARTCHAR Abreve
ENCODING 195
SWIDTH 667 0
DWIDTH 22 0
BBX 20 30 1 0
BITMAP
001010
001c70
000fe0
0007c0
000000
000780
000f80
000f80
001fc0
001dc0
003dc0
0039c0
0079c0
00f1c0
00e1c0
01e0e0
01c0e0
03c0e0
0380e0
0780e0
0fffe0
0ffff0
1ffff0
1c0070
3c0070
380070
780070
700070
f00070
e00070
ENDCHAR
STARTCHAR Adiaeresis
ENCODING 196
SWIDTH 667 0
DWIDTH 22 0
BBX 20 30 1 0
BITMAP
003cf0
003cf0
003cf0
000000
000000
000780
000f80
000f80
001fc0
001dc0
003dc0
0039c0
0079c0
00f1c0
00e1c0
01e0e0
01c0e0
03c0e0
0380e0
0780e0
0fffe0
0ffff0
1ffff0
1c0070
3c0070
380070
780070
700070
f00070
e00070
ENDCHAR
STARTCHAR Lacute
ENCODING 197
SWIDTH 556 0
DWIDTH 18 0
BBX 15 31 3 0
BITMAP
0078
00f0
01e0
01c0
0380
0000
0700
0700
0700
0700
0f00
0e00
0e00
0e00
1e00
1c00
1c00
1c00
1c00
3c00
3800
3800
3800
7800
7800
7000
7000
7000
fffe
fffe
fffc
ENDCHAR
STARTCHAR Cacute
ENCODING 198
SWIDTH 722 0
DWIDTH 24 0
BBX 21 31 4 0
BITMAP
0001e0
0003c0
000780
000700
000e00
000000
003f00
00ffc0
03ffe0
07c1f0
0f8070
0e0078
1e0038
3c0038
380000
780000
700000
700000
f00000
e00000
e00000
e00070
e000f0
e000e0
f001e0
7003c0
780780
3c1f00
3ffe00
1ff800
07e000
ENDCHAR
STARTCHAR Ccedilla
ENCODING 199
SWIDTH 722 0
DWIDTH 24 0
BBX 21 32 4 -7
BITMAP
001f00
00ffc0
03ffe0
07c1f0
0f8078
0e0078
1e0038
3c0038
380000
780000
780000
700000
f00000
f00000
f00000
e00070
e000f0
f000e0
f001e0
7003c0
780780
3c1f00
3ffe00
1ff800
07e000
018000
030000
03c000
00e000
106000
18e000
0fc000
ENDCHAR
STARTCHAR Ccaron
ENCODING 200
SWIDTH 722 0
DWIDTH 24 0
BBX 21 31 4 0
BITMAP
003860
0018e0
001dc0
000f80
000f00
000000
003f00
00ffc0
03ffe0
07c1f0
0f8070
0e0078
1e0038
3c0038
380000
780000
700000
700000
f00000
e00000
e00000
e00070
e000f0
e000e0
f001e0
7003c0
780780
3c1f00
3ffe00
1ff800
07e000
ENDCHAR
STARTCHAR Eacute
ENCODING 201
SWIDTH 667 0
DWIDTH 22 0
BBX 22 31 3 0
BITMAP
0003c0
000780
000f00
001c00
003800
000000
07fffc
07fffc
07fff8
070000
0f0000
0e0000
0e0000
0e0000
1c0000
1c0000
1c0000
1fffe0
1fffe0
3fffc0
380000
380000
380000
780000
700000
700000
700000
700000
ffffc0
ffffc0
ffff80
ENDCHAR
STARTCHAR Eogonek
ENCODING 202
SWIDTH 667 0
DWIDTH 22 0
BBX 22 32 3 -7
BITMAP
07fffc
07fffc
07fff8
070000
0f0000
0e0000
0e0000
0e0000
1c0000
1c0000
1c0000
1fffe0
1fffe0
3fffc0
380000
380000
380000
780000
700000
700000
700000
700000
ffffc0
ffffc0
ffff80
006000
00e000
00c000
01c000
01c400
01fc00
00f800
ENDCHAR
STARTCHAR Ediaeresis
ENCODING 203
SWIDTH 667 0
DWIDTH 22 0
BBX 22 30 3 0
BITMAP
00f1e0
00f1e0
00f1e0
000000
000000
07fffc
07fffc
07fff8
070000
0f0000
0e0000
0e0000
0e0000
1c0000
1c0000
1c0000
1fffe0
1fffe0
3fffc0
380000
380000
380000
780000
700000
700000
700000
700000
ffffc0
ffffc0
ffff80
ENDCHAR
STARTCHAR Ecaron
ENCODING 204
SWIDTH 667 0
DWIDTH 22 0
BBX 22 31 3 0
BITMAP
001c30
000c70
000ee0
0007c0
000780
000000
07fffc
07fffc
07fff8
070000
0f0000
0e0000
0e0000
0e0000
1c0000
1c0000
1c0000
1fffe0
1fffe0
3fffc0
380000
380000
380000
780000
700000
700000
700000
700000
ffffc0
ffffc0
ffff80
ENDCHAR
STARTCHAR Iacute
ENCODING 205
SWIDTH 278 0
DWIDTH 9 0
BBX 11 31 3 0
BITMAP
01e0
03c0
0780
0e00
1c00
0000
0700
0700
0700
0700
0f00
0e00
0e00
0e00
1e00
1c00
1c00
1c00
1c00
3c00
3800
3800
3800
3800
7800
7000
7000
7000
f000
e000
e000
ENDCHAR
STARTCHAR Icircumflex
ENCODING 206
SWIDTH 278 0
DWIDTH 9 0
BBX 12 31 3 0
BITMAP
0380
07c0
0ee0
1ce0
3870
0000
0700
0700
0700
0700
0f00
0e00
0e00
0e00
1e00
1c00
1c00
1c00
1c00
3c00
3800
3800
3800
3800
7800
7000
7000
7000
f000
e000
e000
ENDCHAR
STARTCHAR Dcaron
ENCODING 207
SWIDTH 722 0
DWIDTH 24 0
BBX 22 31 3 0
BITMAP
003860
0018e0
001dc0
000f80
000f00
000000
07ff80
07ffe0
07fff0
0f00f8
0e0038
0e003c
0e001c
0e001c
1c001c
1c001c
1c001c
1c001c
1c001c
38001c
380038
380038
380078
780070
7000e0
7001e0
7003c0
700f80
ffff00
fffe00
fff000
ENDCHAR
STARTCHAR Dstroke
ENCODING 208
SWIDTH 722 0
DWIDTH 24 0
BBX 22 25 3 0
BITMAP
07ff80
07ffe0
07fff0
0f00f8
0e003c
0e003c
0e001c
0e001c
1e001c
1c001c
1c001c
ffc01c
ffc01c
3c003c
380038
380078
380078
780070
7800f0
7001e0
7003c0
700f80
ffff00
fffe00
fff000
ENDCHAR
STARTCHAR Nacute
ENCODING 209
SWIDTH 722 0
DWIDTH 24 0
BBX 23 31 3 0
BITMAP
0000f0
0001e0
0003c0
000380
000700
000000
07800e
07800e
07c00e
0fc00e
0fc01e
0ee01c
0ee01c
0ef01c
1e701c
1c7038
1c7838
1c3838
1c3838
3c3c38
381c70
381c70
381e70
780e70
700e60
700760
7007e0
7007e0
f003c0
e003c0
e003c0
ENDCHAR
STARTCHAR Ncaron
ENCODING 210
SWIDTH 722 0
DWIDTH 24 0
BBX 23 31 3 0
BITMAP
001c30
000c70
000ee0
0007c0
000780
000000
07800e
07800e
07c00e
0fc00e
0fc01e
0ee01c
0ee01c
0ef01c
1e701c
1c7038
1c7838
1c3838
1c3838
3c3c38
381c70
381c70
381e70
780e70
700e60
700760
7007e0
7007e0
f003c0
e003c0
e003c0
ENDCHAR
STARTCHAR Oacute
ENCODING 211
SWIDTH 778 0
DWIDTH 25 0
BBX 25 31 3 0
BITMAP
00001e00
00003c00
00007800
0000e000
0001c000
00000000
000f8000
007ff000
01fffc00
03e07e00
07801f00
0f000f00
1e000780
3c000780
38000380
78000380
70000380
f0000380
e0000380
e0000780
e0000700
e0000f00
e0000e00
f0001e00
f0003c00
78007800
7c00f800
3e03e000
1fffc000
0fff0000
03f80000
ENDCHAR
STARTCHAR Ocircumflex
ENCODING 212
SWIDTH 778 0
DWIDTH 25 0
BBX 25 31 3 0
BITMAP
0001e000
0003e000
00077000
000e7000
001c3800
00000000
000fc000
007ff800
01fffc00
03e03e00
07801f00
0f000f00
1e000780
3c000780
38000380
78000380
70000380
f0000380
f0000780
e0000780
e0000700
e0000f00
e0000e00
f0001e00
70003c00
78007800
7c00f800
3e03e000
1fffc000
0fff0000
01f80000
ENDCHAR
STARTCHAR Odoubleacute
ENCODING 213
SWIDTH 778 0
DWIDTH 25 0
BBX 25 31 3 0
BITMAP
0001c700
0003cf00
00071c00
000e3800
000c3000
00000000
000fc000
007ff800
01fffc00
03e03e00
07801f00
0f000f00
1e000780
3c000780
38000380
78000380
70000380
f0000380
f0000780
e0000780
e0000700
e0000f00
e0000e00
f0001e00
70003c00
78007800
7c00f800
3e03e000
1fffc000
0fff0000
01f80000
ENDCHAR
STARTCHAR Odiaeresis
ENCODING 214
SWIDTH 778 0
DWIDTH 25 0
BBX 25 30 3 0
BITMAP
00787800
00787800
00787800
00000000
00000000
000fc000
007ff800
01fffc00
03e03e00
07801f00
0f000f00
1e000780
3c000780
38000380
78000380
70000380
f0000380
f0000780
e0000780
e0000700
e0000f00
e0000e00
f0001e00
70003c00
78007800
7c00f800
3e03e000
1fffc000
0fff0000
01f80000
ENDCHAR
STARTCHAR multiply
ENCODING 215
SWIDTH 584 0
DWIDTH 19 0
BBX 18 15 3 1
BITMAP
180180
3c03c0
1c0780
0e0f00
0f1c00
07b800
03f000
01e000
03e000
07f000
0e7800
3c3c00
781e00
f00e00
600400
ENDCHAR
STARTCHAR Rcaron
ENCODING 216
SWIDTH 722 0
DWIDTH 24 0
BBX 23 31 3 0
BITMAP
001c30
000c70
000ee0
0007c0
000780
000000
07ffe0
07fff8
07fffc
0f003e
0e001e
0e000e
0e000e
0e001e
1c001e
1c001c
1c003c
1c00f8
1ffff0
3fffe0
3ffff0
3800f0
380078
780078
700078
700078
700070
e000f0
e000f0
e000f0
e000f8
ENDCHAR
STARTCHAR Uring
ENCODING 217
SWIDTH 722 0
DWIDTH 24 0
BBX 22 32 4 0
BITMAP
000700
000d80
000880
001980
000b00
000e00
000000
0e001c
0e001c
0e001c
1e003c
1c003c
1c0038
1c0038
1c0038
3c0078
380070
380070
380070
380070
7800f0
7000e0
7000e0
f000e0
f001e0
f001c0
7003c0
780780
7c0f00
3ffe00
1ffc00
07e000
ENDCHAR
STARTCHAR Uacute
ENCODING 218
SWIDTH 722 0
DWIDTH 24 0
BBX 22 31 4 0
BITMAP
0003c0
000780
000f00
001c00
003800
000000
0e001c
0e001c
0e001c
1e003c
1c003c
1c0038
1c0038
1c0038
3c0078
380070
380070
380070
380070
7800f0
7000e0
7000e0
f000e0
f001e0
f001c0
7003c0
780780
7c0f00
3ffe00
1ffc00
07e000
ENDCHAR
STARTCHAR Udoubleacute
ENCODING 219
SWIDTH 722 0
DWIDTH 24 0
BBX 22 31 4 0
BITMAP
00071c
000f3c
001c70
0038e0
0030c0
000000
0e001c
0e001c
0e001c
1e003c
1c003c
1c0038
1c0038
1c0038
3c0078
380070
380070
380070
380070
7800f0
7000e0
7000e0
f000e0
f001e0
f001c0
7003c0
780780
7c0f00
3ffe00
1ffc00
07e000
ENDCHAR
STARTCHAR Udiaeresis
ENCODING 220
SWIDTH 722 0
DWIDTH 24 0
BBX 22 30 4 0
BITMAP
00f1e0
00f1e0
00f1e0
000000
000000
0e001c
0e001c
0e001c
1e003c
1c003c
1c0038
1c0038
1c0038
3c0078
380070
380070
380070
380070
7800f0
7000e0
7000e0
f000e0
f001e0
f001c0
7003c0
780780
7c0f00
3ffe00
1ffc00
07e000
ENDCHAR
STARTCHAR Yacute
ENCODING 221
SWIDTH 667 0
DWIDTH 22 0
BBX 22 31 6 0
BITMAP
001e00
003c00
007800
00e000
01c000
000000
f0007c
f000f8
7800f0
7801e0
3803c0
3c0780
3c0700
1e0f00
1e1e00
0e3c00
0f7800
0f7000
07e000
07e000
03c000
038000
038000
078000
078000
070000
070000
070000
0f0000
0e0000
0e0000
ENDCHAR
STARTCHAR Tcedilla
ENCODING 222
SWIDTH 611 0
DWIDTH 20 0
BBX 19 32 6 -7
BITMAP
7fffe0
ffffe0
ffffc0
01e000
01e000
01c000
01c000
01c000
03c000
038000
038000
038000
038000
078000
070000
070000
070000
0f0000
0f0000
0e0000
0e0000
0e0000
1e0000
1c0000
1c0000
006000
006000
007000
003800
001800
033800
01f000
ENDCHAR
STARTCHAR ssharp
ENCODING 223
SWIDTH 611 0
DWIDTH 20 0
BBX 18 25 4 0
BITMAP
003e00
01ff80
03ff80
0783c0
0701c0
0e01c0
0e01c0
0e03c0
1e0380
1c0f00
1c7e00
1c7e00
1c7f00
3c0f00
380780
380380
380380
380380
700700
700700
700e00
703e00
f3fc00
e3f000
e3c000
ENDCHAR
STARTCHAR racute
ENCODING 224
SWIDTH 333 0
DWIDTH 11 0
BBX 13 24 2 0
BITMAP
0078
00f0
01e0
01c0
0380
0000
1c70
1cf0
1df0
1fc0
1f00
1e00
3c00
3800
3800
3800
7000
7000
7000
7000
7000
e000
e000
e000
ENDCHAR
STARTCHAR aacute
ENCODING 225
SWIDTH 556 0
DWIDTH 18 0
BBX 17 25 2 0
BITMAP
000f00
001e00
003c00
007000
00e000
000000
000000
01fe00
07ff80
0f9f80
1c0380
1c0380
000380
000700
003f00
0fff00
3fe700
7c0700
700e00
e00e00
e01e00
e03e00
f1fe00
7fcf00
3f8f00
ENDCHAR
STARTCHAR acircumflex
ENCODING 226
SWIDTH 556 0
DWIDTH 18 0
BBX 17 25 2 0
BITMAP
003c00
007c00
00ee00
01ce00
038700
000000
000000
01fe00
07ff80
0f9f80
1c0380
1c0380
000380
000700
003f00
0fff00
3fe700
7c0700
700e00
e00e00
e01e00
e03e00
f1fe00
7fcf00
3f8f00
ENDCHAR
STARTCHAR abreve
ENCODING 227
SWIDTH 556 0
DWIDTH 18 0
BBX 17 23 2 0
BITMAP
020200
038e00
01fc00
00f800
000000
01fe00
07ff00
0f9f80
1c0380
1c0380
000380
000700
007f00
0fff00
3fc700
7c0700
700e00
e00e00
e01e00
e03e00
f1fe00
7fcf00
3f8f00
ENDCHAR
STARTCHAR adiaeresis
ENCODING 228
SWIDTH 556 0
DWIDTH 18 0
BBX 17 23 2 0
BITMAP
078f00
078f00
078f00
000000
000000
01fe00
07ff80
0f9f80
1c0380
1c0380
000380
000700
003f00
0fff00
3fe700
7c0700
700e00
e00e00
e01e00
e03e00
f1fe00
7fcf00
3f8f00
ENDCHAR
STARTCHAR lacute
ENCODING 229
SWIDTH 222 0
DWIDTH 7 0
BBX 13 31 2 0
BITMAP
0078
00f0
01e0
01c0
0380
0000
0700
0700
0700
0700
0e00
0e00
0e00
0e00
0c00
1c00
1c00
1c00
1c00
3800
3800
3800
3800
3800
7000
7000
7000
7000
f000
e000
e000
ENDCHAR
STARTCHAR cacute
ENCODING 230
SWIDTH 500 0
DWIDTH 17 0
BBX 15 24 3 0
BITMAP
001e
003c
0078
0070
00e0
0000
00f0
07fc
0ffe
1e1e
380e
780e
7000
f000
e000
e000
e000
e01c
e01c
e03c
f078
7ff0
7fe0
1f00
ENDCHAR
STARTCHAR ccedilla
ENCODING 231
SWIDTH 500 0
DWIDTH 17 0
BBX 15 25 3 -7
BITMAP
00f0
07fc
0ffe
1e0e
380e
780e
7000
f000
e000
e000
e000
e01e
e01c
e03c
f078
7ff0
7fe0
1f00
0600
0600
0700
0380
0180
3380
1f00
ENDCHAR
STARTCHAR ccaron
ENCODING 232
SWIDTH 500 0
DWIDTH 17 0
BBX 15 24 3 0
BITMAP
0386
018e
01dc
00f8
00f0
0000
00f0
07fc
0ffe
1e1e
380e
780e
7000
f000
e000
e000
e000
e01c
e01c
e03c
f078
7ff0
7fe0
1f00
ENDCHAR
STARTCHAR eacute
ENCODING 233
SWIDTH 556 0
DWIDTH 18 0
BBX 16 24 3 0
BITMAP
000f
001e
003c
0070
00e0
0000
01f8
07fe
1ffe
3e0f
3807
7007
7007
ffff
ffff
ffff
e000
e000
e00e
f01e
787c
7ff8
3ff0
0fc0
ENDCHAR
STARTCHAR eogonek
ENCODING 234
SWIDTH 556 0
DWIDTH 18 0
BBX 16 25 3 -7
BITMAP
01f8
07fe
1ffe
3e0f
3807
7007
7007
ffff
ffff
ffff
e000
e000
e00e
f01e
787c
7ff8
3ff0
0fc0
0300
0700
0600
0e00
0e20
0fe0
07c0
ENDCHAR
STARTCHAR ediaeresis
ENCODING 235
SWIDTH 556 0
DWIDTH 18 0
BBX 17 23 3 0
BITMAP
03c780
03c780
03c780
000000
000000
01f800
07fe00
1ffe00
3e0f00
380700
700700
700700
ffff00
ffff00
ffff00
e00000
e00000
e00e00
f01e00
787c00
7ff800
3ff000
0fc000
ENDCHAR
STARTCHAR ecaron
ENCODING 236
SWIDTH 556 0
DWIDTH 18 0
BBX 16 24 3 0
BITMAP
0386
018e
01dc
00f8
00f0
0000
01f8
07fe
1ffe
3e0f
3807
7007
7007
ffff
ffff
ffff
e000
e000
e00e
f01e
787c
7ff8
3ff0
0fc0
ENDCHAR
STARTCHAR iacute
ENCODING 237
SWIDTH 278 0
DWIDTH 9 0
BBX 12 25 3 0
BITMAP
00f0
01e0
03c0
0700
0e00
0000
0000
0e00
0e00
1c00
1c00
1c00
1c00
3800
3800
3800
3800
3800
7000
7000
7000
7000
7000
e000
e000
ENDCHAR
STARTCHAR icircumflex
ENCODING 238
SWIDTH 278 0
DWIDTH 9 0
BBX 11 25 3 0
BITMAP
0780
0f80
1dc0
39c0
70e0
0000
0000
0e00
0c00
1c00
1c00
1c00
1c00
3800
3800
3800
3800
3800
7000
7000
7000
7000
7000
e000
e000
ENDCHAR
STARTCHAR dcaron
ENCODING 239
SWIDTH 690 0
DWIDTH 23 0
BBX 24 27 3 0
BITMAP
000007
000007
0000e7
0000e3
0000e3
0000e6
0001cc
0001c0
0001c0
03f1c0
07f980
1fff80
3e1f80
380780
780780
700700
f00700
e00700
e00700
e00f00
e00e00
e01e00
e03e00
f0fe00
7fee00
3fce00
1f8e00
ENDCHAR
STARTCHAR dstroke
ENCODING 240
SWIDTH 630 0
DWIDTH 21 0
BBX 22 25 3 0
BITMAP
0000e0
0000e0
0000e0
000ffc
000ffc
0001c0
0001c0
03f1c0
07f980
1fff80
3e1f80
380780
780780
700700
f00700
e00700
e00700
e00f00
e00e00
e01e00
e03e00
f0fe00
7fee00
3fce00
1f8e00
ENDCHAR
STARTCHAR nacute
ENCODING 241
SWIDTH 556 0
DWIDTH 18 0
BBX 17 24 2 0
BITMAP
001e00
003c00
007800
007000
00e000
000000
1c3c00
1cff00
1fff00
1f0780
1e0380
1c0380
3c0380
380700
380700
380700
380700
700e00
700e00
700e00
700e00
600e00
e01c00
e01c00
ENDCHAR
STARTCHAR ncaron
ENCODING 242
SWIDTH 556 0
DWIDTH 18 0
BBX 17 24 2 0
BITMAP
038600
018e00
01dc00
00f800
00f000
000000
1c3c00
1cff00
1fff00
1f0780
1e0380
1c0380
3c0380
380700
380700
380700
380700
700e00
700e00
700e00
700e00
600e00
e01c00
e01c00
ENDCHAR
STARTCHAR oacute
ENCODING 243
SWIDTH 556 0
DWIDTH 19 0
BBX 16 25 3 0
BITMAP
000f
001e
003c
0070
00e0
0000
0000
01f0
07fc
1ffe
3e1f
380f
7007
7007
f007
e007
e007
e00e
e00e
e01e
e03c
f078
7ff0
7fe0
1f80
ENDCHAR
STARTCHAR ocircumflex
ENCODING 244
SWIDTH 556 0
DWIDTH 19 0
BBX 16 24 3 0
BITMAP
003c
007c
00ee
01ce
0387
0000
01f0
07fc
1ffe
3e1f
380f
7007
7007
f007
e007
e007
e00e
e00e
e01e
e03c
f078
7ff0
7fe0
1f80
ENDCHAR
STARTCHAR odoubleacute
ENCODING 245
SWIDTH 556 0
DWIDTH 19 0
BBX 18 24 3 0
BITMAP
0071c0
00f3c0
01c700
038e00
030c00
000000
01f000
07fc00
1ffe00
3e1f00
380f00
700700
700700
f00700
e00700
e00700
e00e00
e00e00
e01e00
e03c00
f07800
7ff000
7fe000
1f8000
ENDCHAR
STARTCHAR odiaeresis
ENCODING 246
SWIDTH 556 0
DWIDTH 19 0
BBX 17 22 3 0
BITMAP
078780
078780
078780
000000
01f000
07fc00
1ffe00
3e1f00
380f00
700700
700700
f00700
e00700
e00700
e00e00
e00e00
e01e00
e03c00
f07800
7ff000
7fe000
1f8000
ENDCHAR
STARTCHAR division
ENCODING 247
SWIDTH 584 0
DWIDTH 19 0
BBX 15 15 4 1
BITMAP
00e0
01e0
01c0
0000
0000
0000
7ffe
fffe
fffc
0000
0000
0000
0700
0f00
0e00
ENDCHAR
STARTCHAR rcaron
ENCODING 248
SWIDTH 333 0
DWIDTH 11 0
BBX 13 24 2 0
BITMAP
0e18
0638
0770
03e0
03c0
0000
1c70
1cf0
1df0
1fc0
1f00
1e00
3c00
3800
3800
3800
7000
7000
7000
7000
7000
e000
e000
e000
ENDCHAR
STARTCHAR uring
ENCODING 249
SWIDTH 556 0
DWIDTH 19 0
BBX 17 25 3 0
BITMAP
007000
00d800
008800
019800
00b000
00e000
000000
1c0380
1c0380
380700
380700
380700
380700
700f00
700e00
700e00
700e00
700e00
e01e00
e01c00
e03c00
f0fc00
fffc00
7f9c00
3e1c00
ENDCHAR
STARTCHAR uacute
ENCODING 250
SWIDTH 556 0
DWIDTH 18 0
BBX 17 25 3 0
BITMAP
000780
000f00
001e00
003800
007000
000000
000000
1c0380
1c0380
380700
380700
380700
380700
700e00
700e00
700e00
700e00
700e00
e01c00
e01c00
e03c00
f0fc00
fff800
7fb800
3e3800
ENDCHAR
STARTCHAR udoubleacute
ENCODING 251
SWIDTH 556 0
DWIDTH 19 0
BBX 18 24 3 0
BITMAP
0071c0
00f3c0
01c700
038e00
030c00
000000
1c0380
1c0380
380700
380700
380700
380700
700f00
700e00
700e00
700e00
700e00
e01e00
e01c00
e03c00
f0fc00
fffc00
7f9c00
3e1c00
ENDCHAR
STARTCHAR udiaeresis
ENCODING 252
SWIDTH 556 0
DWIDTH 18 0
BBX 17 23 3 0
BITMAP
078f00
078f00
078f00
000000
000000
1c0380
1c0380
380700
380700
380700
380700
700e00
700e00
700e00
700e00
700e00
e01c00
e01c00
e03c00
f0fc00
fff800
7fb800
3e3800
ENDCHAR
STARTCHAR yacute
ENCODING 253
SWIDTH 500 0
DWIDTH 17 0
BBX 19 32 0 -7
BITMAP
0003c0
000780
000f00
001c00
003800
000000
000000
0e00e0
0e01e0
0e01c0
0f0380
0f0380
070700
070700
070e00
071e00
071c00
073800
07b800
07f000
07f000
03e000
03c000
03c000
038000
038000
070000
0f0000
0e0000
fc0000
f80000
f00000
ENDCHAR
STARTCHAR tcedilla
ENCODING 254
SWIDTH 278 0
DWIDTH 9 0
BBX 8 29 4 -7
BITMAP
1c
1c
1c
1c
7f
ff
fe
38
38
38
70
70
70
70
70
e0
e0
e0
e0
f8
f8
70
18
18
1c
0e
06
ce
7c
ENDCHAR
STARTCHAR abovedot
ENCODING 255
SWIDTH 333 0
DWIDTH 11 0
BBX 4 3 8 20
BITMAP
f0
f0
f0
ENDCHAR
ENDFONT
