STARTFONT 2.1
FONT -Adobe-Helvetica-Bold-O-Normal--25-180-100-100-P-138-ISO8859-2
SIZE 18 100 100
FONTBOUNDINGBOX 28 29 -1 -5
COMMENT $XConsortium: helvBO18.bdf,v 1.7 95/01/26 17:54:35 gildea Exp $
COMMENT 
COMMENT +
COMMENT  Copyright 1984-1989, 1994 Adobe Systems Incorporated.
COMMENT  Copyright 1988, 1994 Digital Equipment Corporation.
COMMENT
COMMENT  Adobe is a trademark of Adobe Systems Incorporated which may be
COMMENT  registered in certain jurisdictions.
COMMENT  Permission to use these trademarks is hereby granted only in
COMMENT  association with the images described in this file.
COMMENT
COMMENT  Permission to use, copy, modify, distribute and sell this software
COMMENT  and its documentation for any purpose and without fee is hereby
COMMENT  granted, provided that the above copyright notices appear in all
COMMENT  copies and that both those copyright notices and this permission
COMMENT  notice appear in supporting documentation, and that the names of
COMMENT  Adobe Systems and Digital Equipment Corporation not be used in
COMMENT  advertising or publicity pertaining to distribution of the software
COMMENT  without specific, written prior permission.  Adobe Systems and
COMMENT  Digital Equipment Corporation make no representations about the
COMMENT  suitability of this software for any purpose.  It is provided "as
COMMENT  is" without express or implied warranty.
COMMENT -
COMMENT  
COMMENT  Translation to ISO8859-2 by Cub Soft;  Petr.Kolar@vslib.cz
COMMENT  
STARTPROPERTIES 28
FOUNDRY "Adobe"
FAMILY_NAME "Helvetica"
WEIGHT_NAME "Bold"
SLANT "O"
SETWIDTH_NAME "Normal"
ADD_STYLE_NAME ""
PIXEL_SIZE 25
POINT_SIZE 180
RESOLUTION_X 100
RESOLUTION_Y 100
SPACING "P"
AVERAGE_WIDTH 138
CHARSET_REGISTRY "ISO8859"
CHARSET_ENCODING "2"
CAP_HEIGHT 19
X_HEIGHT 14
FONT_ASCENT 22
FONT_DESCENT 5
FACE_NAME "Helvetica Bold Oblique"
COPYRIGHT "Copyright (c) 1984, 1987 Adobe Systems Incorporated. All Rights Reserved. Copyright (c) 1988, 1991 Digital Equipment Corporation. All Rights Reserved., Copyright 1996 Cub Soft"
NOTICE "Helvetica is a trademark of Linotype-Hell AG and/or its subsidiaries.  "
_DEC_DEVICE_FONTNAMES "PS=Helvetica-BoldOblique"
_DEC_PRODUCTINFO "DECwindows Fonts V2.2, 07-Nov-1991"
DEFAULT_CHAR 32
RELATIVE_SETWIDTH 50
RELATIVE_WEIGHT 70
CHARSET_COLLECTIONS "ASCII ISO8859-2 ADOBE-STANDARD"
FULL_NAME "Helvetica Bold Oblique"
ENDPROPERTIES
CHARS 191
STARTCHAR space
ENCODING 32
SWIDTH 278 0
DWIDTH 6 0
BBX 1 1 0 0
BITMAP
00
ENDCHAR
STARTCHAR exclam
ENCODING 33
SWIDTH 333 0
DWIDTH 8 0
BBX 8 19 2 0
BITMAP
07
07
07
0e
0e
0e
1c
1c
1c
18
18
38
30
30
00
00
e0
e0
e0
ENDCHAR
STARTCHAR quotedbl
ENCODING 34
SWIDTH 474 0
DWIDTH 9 0
BBX 7 5 5 14
BITMAP
66
ee
ee
cc
88
ENDCHAR
STARTCHAR numbersign
ENCODING 35
SWIDTH 556 0
DWIDTH 14 0
BBX 14 18 1 0
BITMAP
0198
0198
0198
0330
0330
1ffc
1ffc
0660
0cc0
0cc0
1980
ffe0
ffe0
3300
3300
6600
6600
6600
ENDCHAR
STARTCHAR dollar
ENCODING 36
SWIDTH 556 0
DWIDTH 13 0
BBX 16 22 0 -3
BITMAP
0018
03f8
0ffe
0e27
1c67
1c67
1c40
1ec0
0fc0
03e0
01f8
013c
011c
031c
e21c
e638
f478
7ff0
3fc0
0800
1800
1000
ENDCHAR
STARTCHAR percent
ENCODING 37
SWIDTH 889 0
DWIDTH 22 0
BBX 18 18 3 0
BITMAP
0001c0
0f0380
1f8700
318e00
619c00
61b800
633000
7e7000
3ce000
01c000
038f00
039f80
073180
0e6180
1c6180
386300
707e00
e03c00
ENDCHAR
STARTCHAR ampersand
ENCODING 38
SWIDTH 722 0
DWIDTH 18 0
BBX 15 18 2 0
BITMAP
01e0
07f0
0738
0e38
0e38
0e70
07e0
07c0
0f80
1f9c
39dc
70f8
e070
e070
e0f0
f1f8
7fdc
3f0e
ENDCHAR
STARTCHAR apostrophe
ENCODING 39
SWIDTH 278 0
DWIDTH 7 0
BBX 5 6 4 13
BITMAP
38
38
38
18
70
c0
ENDCHAR
STARTCHAR parenleft
ENCODING 40
SWIDTH 333 0
DWIDTH 8 0
BBX 10 24 2 -5
BITMAP
01c0
0380
0700
0e00
1c00
1800
3800
3000
7000
7000
e000
e000
e000
e000
e000
e000
e000
e000
e000
e000
7000
7000
3800
1c00
ENDCHAR
STARTCHAR parenright
ENCODING 41
SWIDTH 333 0
DWIDTH 8 0
BBX 10 24 0 -5
BITMAP
0e00
0700
0380
0380
01c0
01c0
01c0
01c0
01c0
01c0
01c0
01c0
01c0
01c0
0380
0380
0300
0700
0600
0e00
1c00
3800
7000
e000
ENDCHAR
STARTCHAR asterisk
ENCODING 42
SWIDTH 389 0
DWIDTH 10 0
BBX 8 7 5 12
BITMAP
18
db
ff
3c
78
ec
cc
ENDCHAR
STARTCHAR plus
ENCODING 43
SWIDTH 584 0
DWIDTH 15 0
BBX 12 12 3 1
BITMAP
0380
0380
0300
0700
0700
fff0
fff0
0e00
0e00
0c00
1c00
1c00
ENDCHAR
STARTCHAR comma
ENCODING 44
SWIDTH 278 0
DWIDTH 7 0
BBX 4 6 1 -3
BITMAP
70
70
70
30
60
c0
ENDCHAR
STARTCHAR minus
ENCODING 45
SWIDTH 584 0
DWIDTH 15 0
BBX 12 2 3 6
BITMAP
fff0
fff0
ENDCHAR
STARTCHAR period
ENCODING 46
SWIDTH 278 0
DWIDTH 7 0
BBX 3 3 2 0
BITMAP
e0
e0
e0
ENDCHAR
STARTCHAR slash
ENCODING 47
SWIDTH 278 0
DWIDTH 8 0
BBX 11 19 1 0
BITMAP
0060
0060
00c0
00c0
0180
0180
0300
0600
0600
0c00
0c00
1800
1800
3000
3000
6000
6000
c000
c000
ENDCHAR
STARTCHAR zero
ENCODING 48
SWIDTH 556 0
DWIDTH 13 0
BBX 14 18 1 0
BITMAP
03f0
07f8
0f3c
1c1c
1c1c
381c
381c
7038
7038
7038
e038
e070
e070
e0e0
e0e0
73c0
7f80
3f00
ENDCHAR
STARTCHAR one
ENCODING 49
SWIDTH 556 0
DWIDTH 13 0
BBX 7 18 6 0
BITMAP
0e
0e
1e
fc
fc
1c
1c
38
38
38
38
70
70
70
70
e0
e0
e0
ENDCHAR
STARTCHAR two
ENCODING 50
SWIDTH 556 0
DWIDTH 13 0
BBX 15 18 0 0
BITMAP
01f8
07fc
0f1e
1e0e
1c0e
000e
001c
003c
00f8
03e0
0780
0f00
1c00
3800
7000
e000
fff0
fff0
ENDCHAR
STARTCHAR three
ENCODING 51
SWIDTH 556 0
DWIDTH 13 0
BBX 13 18 1 0
BITMAP
07e0
0ff0
1c78
3838
3838
3838
0070
00e0
03c0
03e0
00e0
0070
0070
0070
e0f0
f1e0
7fc0
3f00
ENDCHAR
STARTCHAR four
ENCODING 52
SWIDTH 556 0
DWIDTH 13 0
BBX 13 18 1 0
BITMAP
0038
0078
00f8
01f0
03f0
0770
0e70
1c60
38e0
30e0
70e0
e1c0
fff0
fff0
01c0
0380
0380
0380
ENDCHAR
STARTCHAR five
ENCODING 53
SWIDTH 556 0
DWIDTH 13 0
BBX 14 18 1 0
BITMAP
0ffc
0ffc
0e00
1c00
1c00
1c00
3fc0
3fe0
38f0
0070
0070
0070
0070
e0f0
e0e0
f3c0
7f80
3f00
ENDCHAR
STARTCHAR six
ENCODING 54
SWIDTH 556 0
DWIDTH 13 0
BBX 14 18 1 0
BITMAP
01f0
07f8
0f3c
1c1c
3800
3800
7000
77c0
7fe0
78f0
f070
e070
e070
e0e0
e1e0
73c0
7f80
3e00
ENDCHAR
STARTCHAR seven
ENCODING 55
SWIDTH 556 0
DWIDTH 13 0
BBX 14 18 2 0
BITMAP
3ffc
3ffc
0038
0070
00e0
01c0
01c0
0380
0700
0700
0e00
1c00
1c00
3800
7000
7000
e000
e000
ENDCHAR
STARTCHAR eight
ENCODING 56
SWIDTH 556 0
DWIDTH 13 0
BBX 13 18 1 0
BITMAP
03e0
07f0
0e78
1c38
1c38
1c38
1e70
0fe0
0fc0
3fe0
78f0
7070
e070
e070
e0e0
71e0
7fc0
1f80
ENDCHAR
STARTCHAR nine
ENCODING 57
SWIDTH 556 0
DWIDTH 13 0
BBX 14 18 1 0
BITMAP
03f0
07f8
0f3c
1c1c
1c1c
381c
383c
3838
3878
3cf8
1ff8
0ff0
0070
00e0
e0e0
f3c0
7f80
3f00
ENDCHAR
STARTCHAR colon
ENCODING 58
SWIDTH 333 0
DWIDTH 8 0
BBX 6 14 3 0
BITMAP
1c
1c
1c
00
00
00
00
00
00
00
00
e0
e0
e0
ENDCHAR
STARTCHAR semicolon
ENCODING 59
SWIDTH 333 0
DWIDTH 8 0
BBX 7 17 2 -3
BITMAP
0e
0e
0e
00
00
00
00
00
00
00
00
70
70
70
30
60
c0
ENDCHAR
STARTCHAR less
ENCODING 60
SWIDTH 584 0
DWIDTH 15 0
BBX 14 11 3 2
BITMAP
001c
0078
01e0
0780
1e00
7800
e000
7800
1e00
0780
01c0
ENDCHAR
STARTCHAR equal
ENCODING 61
SWIDTH 584 0
DWIDTH 14 0
BBX 11 5 3 5
BITMAP
7fe0
7fe0
0000
ffc0
ffc0
ENDCHAR
STARTCHAR greater
ENCODING 62
SWIDTH 584 0
DWIDTH 15 0
BBX 14 11 1 2
BITMAP
0e00
0780
01e0
0078
001c
0078
01e0
0780
1e00
7800
e000
ENDCHAR
STARTCHAR question
ENCODING 63
SWIDTH 611 0
DWIDTH 15 0
BBX 12 19 5 0
BITMAP
0fc0
3fe0
78f0
7070
e070
e0f0
01e0
07c0
0f00
1c00
3800
7000
7000
7000
0000
0000
7000
7000
7000
ENDCHAR
STARTCHAR at
ENCODING 64
SWIDTH 975 0
DWIDTH 24 0
BBX 23 23 2 -4
BITMAP
003fc0
00fff0
03e078
07801c
0f000c
1e1cce
1c7fce
38e78e
71c38e
73830e
e3870e
e7061c
e70e1c
e70c38
e71c38
e39e70
e3ffe0
71e3c0
700000
780000
3e1c00
0ffc00
03f000
ENDCHAR
STARTCHAR A
ENCODING 65
SWIDTH 722 0
DWIDTH 18 0
BBX 16 19 1 0
BITMAP
001c
003c
007c
007c
00ee
01ce
01ce
038e
070e
070e
0e0e
0e0e
1ffe
3fff
3807
7007
7007
e007
e007
ENDCHAR
STARTCHAR B
ENCODING 66
SWIDTH 722 0
DWIDTH 18 0
BBX 17 19 2 0
BITMAP
0ffe00
0fff00
0e0780
0e0380
1c0380
1c0380
1c0780
1c0f00
3ffe00
3ffe00
380700
380700
700700
700700
700f00
e01e00
e07c00
fff800
ffe000
ENDCHAR
STARTCHAR C
ENCODING 67
SWIDTH 722 0
DWIDTH 18 0
BBX 16 19 3 0
BITMAP
01fc
07fe
0f8f
1e07
3807
7800
7000
f000
e000
e000
e000
e000
e000
e00e
f01e
703c
78f8
3ff0
1fc0
ENDCHAR
STARTCHAR D
ENCODING 68
SWIDTH 722 0
DWIDTH 19 0
BBX 18 19 2 0
BITMAP
0ffc00
0fff00
0e0f80
0e0380
1c01c0
1c01c0
1c01c0
1c01c0
3801c0
3801c0
3801c0
380380
700380
700780
700f00
701e00
e07c00
fff800
ffe000
ENDCHAR
STARTCHAR E
ENCODING 69
SWIDTH 667 0
DWIDTH 16 0
BBX 16 19 2 0
BITMAP
0fff
0fff
0e00
0e00
1c00
1c00
1c00
1c00
3ff8
3ff8
3800
3800
7000
7000
7000
7000
e000
fff8
fff8
ENDCHAR
STARTCHAR F
ENCODING 70
SWIDTH 611 0
DWIDTH 15 0
BBX 16 19 2 0
BITMAP
0fff
0fff
0e00
0e00
1c00
1c00
1c00
1c00
3ff8
3ff8
3800
3800
7000
7000
7000
7000
e000
e000
e000
ENDCHAR
STARTCHAR G
ENCODING 71
SWIDTH 778 0
DWIDTH 19 0
BBX 17 19 3 0
BITMAP
01fc00
07ff00
0f8700
1e0380
380380
780000
700000
f00000
e00000
e03f80
e03f80
e03f00
e00700
e00f00
f00e00
701e00
787e00
3fec00
1fcc00
ENDCHAR
STARTCHAR H
ENCODING 72
SWIDTH 722 0
DWIDTH 19 0
BBX 19 19 2 0
BITMAP
0e00e0
0e00e0
0e00e0
0e00e0
1c01c0
1c01c0
1c01c0
1c01c0
3fff80
3fff80
380380
380380
700700
700700
700700
700700
e00e00
e00e00
e00e00
ENDCHAR
STARTCHAR I
ENCODING 73
SWIDTH 278 0
DWIDTH 7 0
BBX 7 19 2 0
BITMAP
0e
0e
0e
0e
1c
1c
1c
1c
38
38
38
38
70
70
70
70
e0
e0
e0
ENDCHAR
STARTCHAR J
ENCODING 74
SWIDTH 556 0
DWIDTH 14 0
BBX 14 19 2 0
BITMAP
001c
001c
001c
001c
0038
0038
0038
0038
0070
0070
0070
0070
00e0
e0e0
e0e0
e1c0
f3c0
7f80
3e00
ENDCHAR
STARTCHAR K
ENCODING 75
SWIDTH 722 0
DWIDTH 18 0
BBX 18 19 2 0
BITMAP
0e03c0
0e0780
0e0f00
0e1e00
1c3c00
1c7800
1cf000
1de000
3fc000
3fc000
3fc000
3ce000
787000
707000
703800
701c00
e01c00
e00e00
e00e00
ENDCHAR
STARTCHAR L
ENCODING 76
SWIDTH 611 0
DWIDTH 15 0
BBX 12 19 2 0
BITMAP
0e00
0e00
0e00
0e00
1c00
1c00
1c00
1c00
3800
3800
3800
3800
7000
7000
7000
7000
e000
fff0
fff0
ENDCHAR
STARTCHAR M
ENCODING 77
SWIDTH 833 0
DWIDTH 23 0
BBX 23 19 2 0
BITMAP
0e000e
0f001e
0f003e
0f003e
1f807c
1f80fc
1d81dc
1981dc
3983b8
39c738
39c738
39ce38
71dc70
71dc70
70f870
70f070
e0f0e0
e0e0e0
e0e0e0
ENDCHAR
STARTCHAR N
ENCODING 78
SWIDTH 722 0
DWIDTH 19 0
BBX 19 19 2 0
BITMAP
0e00e0
0e00e0
0f00e0
0f00e0
1f81c0
1d81c0
1dc1c0
19c1c0
39c380
38e380
38e380
386380
707300
707700
703700
703f00
e01e00
e01e00
e00e00
ENDCHAR
STARTCHAR O
ENCODING 79
SWIDTH 778 0
DWIDTH 19 0
BBX 17 19 3 0
BITMAP
01fc00
07fe00
0f8f00
1e0700
380780
780380
700380
f00380
e00380
e00380
e00380
e00780
e00700
e00f00
f01e00
703c00
78f800
3ff000
1fc000
ENDCHAR
STARTCHAR P
ENCODING 80
SWIDTH 667 0
DWIDTH 17 0
BBX 17 19 2 0
BITMAP
0ffe00
0fff00
0e0780
0e0380
1c0380
1c0380
1c0700
1c0f00
3ffe00
3ff800
380000
380000
700000
700000
700000
700000
e00000
e00000
e00000
ENDCHAR
STARTCHAR Q
ENCODING 81
SWIDTH 778 0
DWIDTH 19 0
BBX 17 19 3 0
BITMAP
01fc00
07fe00
0f8f00
1e0700
380780
780380
700380
f00380
e00380
e00380
e00380
e00780
e00700
e00f00
f1ee00
70fc00
787800
3ffc00
1fde00
ENDCHAR
STARTCHAR R
ENCODING 82
SWIDTH 722 0
DWIDTH 17 0
BBX 17 19 2 0
BITMAP
0ffe00
0fff00
0e0780
0e0380
1c0380
1c0380
1c0700
1c0f00
3ffe00
3ffc00
381e00
380e00
700e00
700e00
700e00
700e00
e01c00
e01c00
e01c00
ENDCHAR
STARTCHAR S
ENCODING 83
SWIDTH 667 0
DWIDTH 17 0
BBX 15 19 3 0
BITMAP
03f0
0ffc
1e1e
1c0e
380e
3800
3800
1c00
1fc0
07f0
00f8
003c
001c
e01c
e01c
e038
7078
7ff0
1fc0
ENDCHAR
STARTCHAR T
ENCODING 84
SWIDTH 611 0
DWIDTH 15 0
BBX 15 19 4 0
BITMAP
fffe
fffe
0380
0380
0700
0700
0700
0700
0e00
0e00
0e00
0e00
1c00
1c00
1c00
1c00
3800
3800
3800
ENDCHAR
STARTCHAR U
ENCODING 85
SWIDTH 722 0
DWIDTH 19 0
BBX 18 19 3 0
BITMAP
1c01c0
1c01c0
1c01c0
1c01c0
380380
380380
380380
380380
700700
700700
700700
700f00
e00e00
e01e00
e01c00
f03c00
78f800
7ff000
1fc000
ENDCHAR
STARTCHAR V
ENCODING 86
SWIDTH 667 0
DWIDTH 18 0
BBX 16 19 5 0
BITMAP
e007
e007
e00e
e00e
e01c
701c
7038
7070
7070
70e0
70e0
71c0
7180
3380
3700
3f00
3e00
3c00
3c00
ENDCHAR
STARTCHAR W
ENCODING 87
SWIDTH 944 0
DWIDTH 23 0
BBX 21 19 5 0
BITMAP
e07038
e07038
e07070
e0f070
e0f0e0
e0f0e0
e1f0e0
e1f1c0
e3f1c0
e37380
e77380
e67380
ee7700
7c3700
7c3e00
783e00
783c00
703800
703800
ENDCHAR
STARTCHAR X
ENCODING 88
SWIDTH 667 0
DWIDTH 18 0
BBX 20 19 1 0
BITMAP
0e0070
0f00f0
0701e0
0783c0
038780
01cf00
01fc00
00f800
00f000
00f000
01f800
03b800
073c00
0e1c00
1e1e00
3c0e00
780f00
f00700
e00700
ENDCHAR
STARTCHAR Y
ENCODING 89
SWIDTH 667 0
DWIDTH 17 0
BBX 15 19 5 0
BITMAP
e00e
e01e
e03c
7078
7070
70e0
39c0
39c0
3b80
3f00
1f00
1e00
1c00
1c00
1c00
3800
3800
3800
3800
ENDCHAR
STARTCHAR Z
ENCODING 90
SWIDTH 611 0
DWIDTH 16 0
BBX 18 19 1 0
BITMAP
0fffc0
0fffc0
000780
000f00
001e00
003c00
007800
00f000
01e000
01c000
03c000
078000
0f0000
1e0000
3c0000
780000
f00000
fffc00
fffc00
ENDCHAR
STARTCHAR bracketleft
ENCODING 91
SWIDTH 333 0
DWIDTH 8 0
BBX 10 24 0 -5
BITMAP
07c0
07c0
0700
0700
0e00
0e00
0e00
0e00
1c00
1c00
1c00
1c00
3800
3800
3800
3800
7000
7000
7000
7000
e000
e000
f800
f800
ENDCHAR
STARTCHAR backslash
ENCODING 92
SWIDTH 278 0
DWIDTH 8 0
BBX 3 19 5 0
BITMAP
c0
c0
c0
c0
c0
c0
c0
c0
c0
c0
60
60
60
60
60
60
60
60
60
ENDCHAR
STARTCHAR bracketright
ENCODING 93
SWIDTH 333 0
DWIDTH 8 0
BBX 10 24 1 -5
BITMAP
07c0
07c0
01c0
01c0
0380
0380
0380
0380
0700
0700
0700
0700
0e00
0e00
0e00
0e00
1c00
1c00
1c00
1c00
3800
3800
f800
f800
ENDCHAR
STARTCHAR asciicircum
ENCODING 94
SWIDTH 584 0
DWIDTH 14 0
BBX 12 9 3 10
BITMAP
0180
0380
07c0
0ec0
1ce0
1860
3870
7030
e030
ENDCHAR
STARTCHAR underscore
ENCODING 95
SWIDTH 556 0
DWIDTH 14 0
BBX 14 2 -1 -5
BITMAP
fffc
fffc
ENDCHAR
STARTCHAR grave
ENCODING 96
SWIDTH 333 0
DWIDTH 8 0
BBX 6 4 5 15
BITMAP
e0
70
38
1c
ENDCHAR
STARTCHAR a
ENCODING 97
SWIDTH 556 0
DWIDTH 14 0
BBX 12 14 2 0
BITMAP
07e0
1ff0
3c70
3870
00f0
07e0
1fe0
3ce0
70e0
e0e0
e1c0
e7c0
ffc0
7dc0
ENDCHAR
STARTCHAR b
ENCODING 98
SWIDTH 611 0
DWIDTH 15 0
BBX 14 19 2 0
BITMAP
0e00
0e00
0e00
0e00
1c00
1df0
1ff8
1f38
3c1c
381c
381c
381c
7038
7038
7070
7070
f9e0
ffc0
ef80
ENDCHAR
STARTCHAR c
ENCODING 99
SWIDTH 556 0
DWIDTH 13 0
BBX 12 14 2 0
BITMAP
03c0
0fe0
1e70
3830
7000
7000
e000
e000
e000
e000
e0e0
73c0
7f80
1e00
ENDCHAR
STARTCHAR d
ENCODING 100
SWIDTH 611 0
DWIDTH 15 0
BBX 15 19 2 0
BITMAP
000e
000e
000e
000e
001c
03dc
0ffc
1e7c
3838
7038
7038
e038
e038
e070
e070
e0f0
73e0
7fe0
1ee0
ENDCHAR
STARTCHAR e
ENCODING 101
SWIDTH 556 0
DWIDTH 14 0
BBX 13 14 2 0
BITMAP
03e0
0ff0
1e70
3838
7038
7038
fff8
fff0
e000
e000
e0e0
73c0
7f80
1e00
ENDCHAR
STARTCHAR f
ENCODING 102
SWIDTH 333 0
DWIDTH 9 0
BBX 9 19 3 0
BITMAP
0780
0f80
0e00
1c00
1c00
7f00
7f00
1c00
3800
3800
3800
3800
7000
7000
7000
7000
e000
e000
e000
ENDCHAR
STARTCHAR g
ENCODING 103
SWIDTH 611 0
DWIDTH 15 0
BBX 16 19 0 -5
BITMAP
00f7
03ff
079f
0e0e
1c0e
1c0e
380e
381c
381c
381c
383c
1cf8
1ff8
07b8
0038
e070
f0e0
7fe0
1f80
ENDCHAR
STARTCHAR h
ENCODING 104
SWIDTH 611 0
DWIDTH 15 0
BBX 13 19 2 0
BITMAP
0e00
0e00
0e00
0e00
1c00
1de0
1ff0
1e38
3c38
3838
3838
3838
7070
7070
7070
7070
e0e0
e0e0
e0e0
ENDCHAR
STARTCHAR i
ENCODING 105
SWIDTH 278 0
DWIDTH 7 0
BBX 7 19 2 0
BITMAP
0e
0e
0e
00
00
1c
1c
1c
38
38
38
38
70
70
70
70
e0
e0
e0
ENDCHAR
STARTCHAR j
ENCODING 106
SWIDTH 278 0
DWIDTH 7 0
BBX 10 24 -1 -5
BITMAP
01c0
01c0
01c0
0000
0000
0380
0380
0380
0700
0700
0700
0700
0e00
0e00
0e00
0e00
1c00
1c00
1c00
3800
3800
3800
f000
f000
ENDCHAR
STARTCHAR k
ENCODING 107
SWIDTH 556 0
DWIDTH 14 0
BBX 13 19 2 0
BITMAP
0e00
0e00
0e00
0e00
1c00
1c38
1c70
1ce0
39c0
3f80
3f00
3f80
7380
71c0
71c0
70e0
e0e0
e070
e070
ENDCHAR
STARTCHAR l
ENCODING 108
SWIDTH 278 0
DWIDTH 7 0
BBX 7 19 2 0
BITMAP
0e
0e
0e
0e
1c
1c
1c
1c
38
38
38
38
70
70
70
70
e0
e0
e0
ENDCHAR
STARTCHAR m
ENCODING 109
SWIDTH 889 0
DWIDTH 21 0
BBX 19 14 2 0
BITMAP
1de7c0
1fffe0
1e7ce0
3c78e0
3870e0
3870e0
3870e0
70e1c0
70e1c0
70e1c0
70e1c0
e1c380
e1c380
e1c380
ENDCHAR
STARTCHAR n
ENCODING 110
SWIDTH 611 0
DWIDTH 15 0
BBX 13 14 2 0
BITMAP
1de0
1ff0
1e38
3c38
3838
3838
3838
7070
7070
7070
7070
e0e0
e0e0
e0e0
ENDCHAR
STARTCHAR o
ENCODING 111
SWIDTH 611 0
DWIDTH 14 0
BBX 13 14 2 0
BITMAP
03c0
0ff0
1e70
3838
7038
7038
e038
e038
e070
e070
e0e0
73c0
7f80
1e00
ENDCHAR
STARTCHAR p
ENCODING 112
SWIDTH 611 0
DWIDTH 15 0
BBX 15 19 1 -5
BITMAP
0ef0
0ffc
0f9c
1e0e
1c0e
1c0e
380e
380e
381c
381c
3838
7cf0
7fe0
7780
7000
e000
e000
e000
e000
ENDCHAR
STARTCHAR q
ENCODING 113
SWIDTH 611 0
DWIDTH 15 0
BBX 14 19 2 -5
BITMAP
03dc
0ffc
1e7c
3838
7038
7038
e038
e038
e070
e070
e0f0
73e0
7fe0
1ee0
00e0
01c0
01c0
01c0
01c0
ENDCHAR
STARTCHAR r
ENCODING 114
SWIDTH 389 0
DWIDTH 10 0
BBX 10 14 2 0
BITMAP
1dc0
1fc0
1fc0
3c00
3800
3800
3800
7000
7000
7000
7000
e000
e000
e000
ENDCHAR
STARTCHAR s
ENCODING 115
SWIDTH 556 0
DWIDTH 13 0
BBX 11 14 2 0
BITMAP
07c0
1fe0
3ce0
70e0
7000
7c00
3f00
0fc0
01e0
e0e0
e0e0
f1e0
7fc0
3f00
ENDCHAR
STARTCHAR t
ENCODING 116
SWIDTH 333 0
DWIDTH 9 0
BBX 8 18 3 0
BITMAP
0e
0e
0e
1c
7f
7f
1c
38
38
38
38
70
70
70
e0
e0
f8
78
ENDCHAR
STARTCHAR u
ENCODING 117
SWIDTH 611 0
DWIDTH 15 0
BBX 13 14 3 0
BITMAP
3838
3838
3838
7070
7070
7070
7070
e0e0
e0e0
e1e0
e3e0
e7c0
7fc0
3dc0
ENDCHAR
STARTCHAR v
ENCODING 118
SWIDTH 556 0
DWIDTH 14 0
BBX 12 14 4 0
BITMAP
e070
e0f0
e0e0
e1c0
e1c0
e380
e380
e700
e700
ee00
7c00
7c00
7800
7000
ENDCHAR
STARTCHAR w
ENCODING 119
SWIDTH 778 0
DWIDTH 19 0
BBX 19 14 3 0
BITMAP
e0e0e0
e1e0e0
e1e1c0
e3e380
e36380
e76700
e66700
ee6e00
ec6c00
7c7c00
787800
787800
707000
707000
ENDCHAR
STARTCHAR x
ENCODING 120
SWIDTH 556 0
DWIDTH 13 0
BBX 14 14 1 0
BITMAP
1c1c
1c38
0e70
0ee0
07c0
0780
0380
0780
0fc0
1cc0
38e0
70e0
e070
c070
ENDCHAR
STARTCHAR y
ENCODING 121
SWIDTH 556 0
DWIDTH 14 0
BBX 14 19 2 -5
BITMAP
701c
701c
7038
7038
3870
3870
38e0
38e0
1dc0
1dc0
1f80
0f00
0f00
0e00
0e00
1c00
3800
f800
f000
ENDCHAR
STARTCHAR z
ENCODING 122
SWIDTH 500 0
DWIDTH 13 0
BBX 13 14 1 0
BITMAP
1ff8
1ff8
0070
00e0
01c0
0380
0700
0e00
1c00
3800
7000
e000
ffe0
ffe0
ENDCHAR
STARTCHAR braceleft
ENCODING 123
SWIDTH 389 0
DWIDTH 10 0
BBX 10 24 3 -5
BITMAP
03c0
07c0
0e00
0c00
1c00
1c00
1800
1800
3800
3800
f000
e000
3000
3000
3000
3000
7000
6000
6000
e000
c000
c000
f800
7800
ENDCHAR
STARTCHAR bar
ENCODING 124
SWIDTH 280 0
DWIDTH 7 0
BBX 7 24 2 -5
BITMAP
06
06
06
06
0c
0c
0c
0c
18
18
18
18
30
30
30
30
60
60
60
60
c0
c0
c0
c0
ENDCHAR
STARTCHAR braceright
ENCODING 125
SWIDTH 389 0
DWIDTH 10 0
BBX 10 24 1 -5
BITMAP
0780
07c0
00c0
00c0
01c0
0180
0180
0380
0380
0300
03c0
01c0
0300
0300
0700
0700
0600
0600
0e00
0e00
0c00
1c00
f800
f000
ENDCHAR
STARTCHAR asciitilde
ENCODING 126
SWIDTH 584 0
DWIDTH 14 0
BBX 12 4 2 5
BITMAP
3c30
7e70
e7e0
c3c0
ENDCHAR
STARTCHAR nobreakspace
ENCODING 160
SWIDTH 278 0
DWIDTH 6 0
BBX 1 1 0 0
BITMAP
00
ENDCHAR
STARTCHAR Aogonek
ENCODING 161
SWIDTH 722 0
DWIDTH 18 0
BBX 16 25 1 -6
BITMAP
001c
003c
007c
007c
00ee
01ce
01ce
038e
070e
070e
0e0e
0e0e
1ffe
3fff
3807
7007
7007
e007
e007
01e0
0380
0700
0620
07e0
03c0
ENDCHAR
STARTCHAR breve
ENCODING 162
SWIDTH 333 0
DWIDTH 9 0
BBX 9 4 4 15
BITMAP
c180
e380
7f00
3e00
ENDCHAR
STARTCHAR Lstroke
ENCODING 163
SWIDTH 611 0
DWIDTH 15 0
BBX 12 19 2 0
BITMAP
0e00
0e00
0e00
0e00
1c00
1c00
1cc0
1f80
1e00
7c00
f800
3800
7000
7000
7000
7000
e000
fff0
fff0
ENDCHAR
STARTCHAR currency
ENCODING 164
SWIDTH 556 0
DWIDTH 14 0
BBX 14 12 2 3
BITMAP
300c
3bdc
1ff8
0e70
1c70
3870
3870
38e0
39c0
7fe0
ef70
c030
ENDCHAR
STARTCHAR Lcaron
ENCODING 165
SWIDTH 640 0
DWIDTH 16 0
BBX 13 21 2 0
BITMAP
0038
0038
0e38
0e18
0e70
0ec0
1c00
1c00
1c00
1c00
3800
3800
3800
3800
7000
7000
7000
7000
e000
fff0
fff0
ENDCHAR
STARTCHAR Sacute
ENCODING 166
SWIDTH 667 0
DWIDTH 17 0
BBX 15 24 3 0
BITMAP
001c
0038
0070
00e0
0000
03f0
0ffc
1e1e
1c0e
380e
3800
3800
1c00
1fc0
07f0
00f8
003c
001c
e01c
e01c
e038
7078
7ff0
1fc0
ENDCHAR
STARTCHAR section
ENCODING 167
SWIDTH 556 0
DWIDTH 14 0
BBX 15 24 1 -5
BITMAP
01f8
03fc
079c
070e
070e
0700
0380
0fc0
1fe0
3cf0
3870
3838
3838
1c38
1e78
0ff0
07e0
03c0
01c0
e1c0
e1c0
7380
7f80
3f00
ENDCHAR
STARTCHAR diaeresis
ENCODING 168
SWIDTH 333 0
DWIDTH 10 0
BBX 8 2 5 16
BITMAP
e7
e7
ENDCHAR
STARTCHAR Scaron
ENCODING 169
SWIDTH 667 0
DWIDTH 17 0
BBX 15 24 3 0
BITMAP
071c
03b8
01f0
00e0
0000
03f0
0ffc
1e1e
1c0e
380e
3800
3800
1c00
1fc0
07f0
00f8
003c
001c
e01c
e01c
e038
7078
7ff0
1fc0
ENDCHAR
STARTCHAR Scedilla
ENCODING 170
SWIDTH 667 0
DWIDTH 17 0
BBX 15 25 3 -6
BITMAP
03f0
0ffc
1e1e
1c0e
380e
3800
3800
1c00
1fc0
07f0
00f8
003c
001c
e01c
e01c
e038
7078
7ff0
1fc0
0380
01c0
00e0
0660
07c0
0380
ENDCHAR
STARTCHAR Tcaron
ENCODING 171
SWIDTH 611 0
DWIDTH 15 0
BBX 15 24 4 0
BITMAP
1c70
0ee0
07c0
0380
0000
fffe
fffe
0380
0380
0700
0700
0700
0700
0e00
0e00
0e00
0e00
1c00
1c00
1c00
1c00
3800
3800
3800
ENDCHAR
STARTCHAR Zacute
ENCODING 172
SWIDTH 611 0
DWIDTH 16 0
BBX 18 24 1 0
BITMAP
000700
000e00
001c00
003800
000000
0fffc0
0fffc0
000780
000f00
001e00
003c00
007800
00f000
01e000
01c000
03c000
078000
0f0000
1e0000
3c0000
780000
f00000
fffc00
fffc00
ENDCHAR
STARTCHAR hyphen
ENCODING 173
SWIDTH 333 0
DWIDTH 8 0
BBX 6 3 2 5
BITMAP
fc
fc
fc
ENDCHAR
STARTCHAR Zcaron
ENCODING 174
SWIDTH 611 0
DWIDTH 16 0
BBX 18 24 1 0
BITMAP
01c700
00ee00
007c00
003800
000000
0fffc0
0fffc0
000780
000f00
001e00
003c00
007800
00f000
01e000
01c000
03c000
078000
0f0000
1e0000
3c0000
780000
f00000
fffc00
fffc00
ENDCHAR
STARTCHAR Zabovedot
ENCODING 175
SWIDTH 611 0
DWIDTH 16 0
BBX 18 22 1 0
BITMAP
003800
003800
000000
0fffc0
0fffc0
000780
000f00
001e00
003c00
007800
00f000
01e000
01c000
03c000
078000
0f0000
1e0000
3c0000
780000
f00000
fffc00
fffc00
ENDCHAR
STARTCHAR degree
ENCODING 176
SWIDTH 400 0
DWIDTH 9 0
BBX 8 7 3 11
BITMAP
3c
66
c3
c3
c3
66
3c
ENDCHAR
STARTCHAR aogonek
ENCODING 177
SWIDTH 556 0
DWIDTH 14 0
BBX 12 20 2 -6
BITMAP
07e0
1ff0
3c70
3870
00f0
07e0
1fe0
3ce0
70e0
e0e0
e1c0
e7c0
ffc0
7dc0
0780
0e00
1c00
1880
1f80
0f00
ENDCHAR
STARTCHAR ogonek
ENCODING 178
SWIDTH 333 0
DWIDTH 8 0
BBX 6 6 0 -5
BITMAP
3c
70
e0
c4
fc
78
ENDCHAR
STARTCHAR lstroke
ENCODING 179
SWIDTH 278 0
DWIDTH 7 0
BBX 8 19 2 0
BITMAP
0e
0e
0e
0e
1c
1c
1f
1e
3c
78
f8
38
70
70
70
70
e0
e0
e0
ENDCHAR
STARTCHAR acute
ENCODING 180
SWIDTH 333 0
DWIDTH 8 0
BBX 6 4 5 15
BITMAP
1c
38
70
e0
ENDCHAR
STARTCHAR lcaron
ENCODING 181
SWIDTH 520 0
DWIDTH 13 0
BBX 13 21 2 0
BITMAP
0038
0038
0e38
0e18
0e70
0ec0
1c00
1c00
1c00
1c00
3800
3800
3800
3800
7000
7000
7000
7000
e000
e000
e000
ENDCHAR
STARTCHAR sacute
ENCODING 182
SWIDTH 556 0
DWIDTH 13 0
BBX 11 19 2 0
BITMAP
00e0
01c0
0380
0700
0000
07c0
1fe0
3ce0
70e0
7000
7c00
3f00
0fc0
01e0
e0e0
e0e0
f1e0
7fc0
3f00
ENDCHAR
STARTCHAR caron
ENCODING 183
SWIDTH 333 0
DWIDTH 9 0
BBX 9 4 4 15
BITMAP
e380
7700
3e00
1c00
ENDCHAR
STARTCHAR cedilla
ENCODING 184
SWIDTH 333 0
DWIDTH 9 0
BBX 6 6 3 -5
BITMAP
70
38
1c
cc
f8
70
ENDCHAR
STARTCHAR scaron
ENCODING 185
SWIDTH 556 0
DWIDTH 13 0
BBX 11 19 2 0
BITMAP
38e0
1dc0
0f80
0700
0000
07c0
1fe0
3ce0
70e0
7000
7c00
3f00
0fc0
01e0
e0e0
e0e0
f1e0
7fc0
3f00
ENDCHAR
STARTCHAR scedilla
ENCODING 186
SWIDTH 556 0
DWIDTH 13 0
BBX 11 20 2 -6
BITMAP
07c0
1fe0
3ce0
70e0
7000
7c00
3f00
0fc0
01e0
e0e0
e0e0
f1e0
7fc0
3f00
0e00
0700
0380
1980
1f00
0e00
ENDCHAR
STARTCHAR tcaron
ENCODING 187
SWIDTH 560 0
DWIDTH 14 0
BBX 13 21 3 0
BITMAP
0038
0038
0038
0e18
0e70
0ec0
1c00
7f00
7f00
1c00
3800
3800
3800
3800
7000
7000
7000
e000
e000
f800
7800
ENDCHAR
STARTCHAR zacute
ENCODING 188
SWIDTH 500 0
DWIDTH 13 0
BBX 13 19 1 0
BITMAP
0038
0070
00e0
01c0
0000
1ff8
1ff8
0070
00e0
01c0
0380
0700
0e00
1c00
3800
7000
e000
ffe0
ffe0
ENDCHAR
STARTCHAR doubleacute
ENCODING 189
SWIDTH 333 0
DWIDTH 10 0
BBX 10 3 4 16
BITMAP
39c0
7380
e700
ENDCHAR
STARTCHAR zcaron
ENCODING 190
SWIDTH 500 0
DWIDTH 13 0
BBX 13 19 1 0
BITMAP
0e38
0770
03e0
01c0
0000
1ff8
1ff8
0070
00e0
01c0
0380
0700
0e00
1c00
3800
7000
e000
ffe0
ffe0
ENDCHAR
STARTCHAR zabovedot
ENCODING 191
SWIDTH 500 0
DWIDTH 13 0
BBX 13 17 1 0
BITMAP
01c0
01c0
0000
1ff8
1ff8
0070
00e0
01c0
0380
0700
0e00
1c00
3800
7000
e000
ffe0
ffe0
ENDCHAR
STARTCHAR Racute
ENCODING 192
SWIDTH 722 0
DWIDTH 17 0
BBX 17 24 2 0
BITMAP
000e00
001c00
003800
007000
000000
0ffe00
0fff00
0e0780
0e0380
1c0380
1c0380
1c0700
1c0f00
3ffe00
3ffc00
381e00
380e00
700e00
700e00
700e00
700e00
e01c00
e01c00
e01c00
ENDCHAR
STARTCHAR Aacute
ENCODING 193
SWIDTH 722 0
DWIDTH 18 0
BBX 17 24 1 0
BITMAP
000380
000700
000e00
001c00
000000
001c00
003c00
007c00
007c00
00ee00
01ce00
01ce00
038e00
070e00
070e00
0e0e00
0e0e00
1ffe00
3fff00
380700
700700
700700
e00700
e00700
ENDCHAR
STARTCHAR Acircumflex
ENCODING 194
SWIDTH 722 0
DWIDTH 18 0
BBX 17 24 1 0
BITMAP
000700
001f00
003b80
007380
000000
001c00
003c00
007c00
007c00
00ee00
01ce00
01ce00
038e00
070e00
070e00
0e0e00
0e0e00
1ffe00
3fff00
380700
700700
700700
e00700
e00700
ENDCHAR
STARTCHAR Abreve
ENCODING 195
SWIDTH 722 0
DWIDTH 18 0
BBX 16 24 1 0
BITMAP
0183
01c7
00fe
007c
0000
001c
003c
007c
007c
00ee
01ce
01ce
038e
070e
070e
0e0e
0e0e
1ffe
3fff
3807
7007
7007
e007
e007
ENDCHAR
STARTCHAR Adiaeresis
ENCODING 196
SWIDTH 722 0
DWIDTH 18 0
BBX 16 23 1 0
BITMAP
0063
0063
0063
0000
001c
003c
007c
007c
00ee
01ce
01ce
038e
070e
070e
0e0e
0e0e
1ffe
3fff
3807
7007
7007
e007
e007
ENDCHAR
STARTCHAR Lacute
ENCODING 197
SWIDTH 611 0
DWIDTH 15 0
BBX 12 24 2 0
BITMAP
01c0
0380
0700
0e00
0000
0e00
0e00
0e00
0e00
1c00
1c00
1c00
1c00
3800
3800
3800
3800
7000
7000
7000
7000
e000
fff0
fff0
ENDCHAR
STARTCHAR Cacute
ENCODING 198
SWIDTH 722 0
DWIDTH 18 0
BBX 16 24 3 0
BITMAP
000e
001c
0038
0070
0000
01fc
07fe
0f8f
1e07
3807
7800
7000
f000
e000
e000
e000
e000
e000
e00e
f01e
703c
78f8
3ff0
1fc0
ENDCHAR
STARTCHAR Ccedilla
ENCODING 199
SWIDTH 722 0
DWIDTH 18 0
BBX 16 24 3 -5
BITMAP
01fc
07fe
0f8f
1e07
3807
7800
7000
f000
e000
e000
e000
e000
e000
e00e
f01e
703c
78f8
3ff0
1fc0
0700
0380
1980
1f00
0e00
ENDCHAR
STARTCHAR Ccaron
ENCODING 200
SWIDTH 722 0
DWIDTH 18 0
BBX 16 24 3 0
BITMAP
038e
01dc
00f8
0070
0000
01fc
07fe
0f8f
1e07
3807
7800
7000
f000
e000
e000
e000
e000
e000
e00e
f01e
703c
78f8
3ff0
1fc0
ENDCHAR
STARTCHAR Eacute
ENCODING 201
SWIDTH 667 0
DWIDTH 16 0
BBX 16 24 2 0
BITMAP
000e
001c
0038
0070
0000
0fff
0fff
0e00
0e00
1c00
1c00
1c00
1c00
3ff8
3ff8
3800
3800
7000
7000
7000
7000
e000
fff8
fff8
ENDCHAR
STARTCHAR Eogonek
ENCODING 202
SWIDTH 667 0
DWIDTH 16 0
BBX 16 25 2 -6
BITMAP
0fff
0fff
0e00
0e00
1c00
1c00
1c00
1c00
3ff8
3ff8
3800
3800
7000
7000
7000
7000
e000
fff8
fff8
01e0
0380
0700
0620
07e0
03c0
ENDCHAR
STARTCHAR Ediaeresis
ENCODING 203
SWIDTH 667 0
DWIDTH 16 0
BBX 16 23 2 0
BITMAP
018c
018c
018c
0000
0fff
0fff
0e00
0e00
1c00
1c00
1c00
1c00
3ff8
3ff8
3800
3800
7000
7000
7000
7000
e000
fff8
fff8
ENDCHAR
STARTCHAR Ecaron
ENCODING 204
SWIDTH 667 0
DWIDTH 16 0
BBX 16 24 2 0
BITMAP
038e
01dc
00f8
0070
0000
0fff
0fff
0e00
0e00
1c00
1c00
1c00
1c00
3ff8
3ff8
3800
3800
7000
7000
7000
7000
e000
fff8
fff8
ENDCHAR
STARTCHAR Iacute
ENCODING 205
SWIDTH 278 0
DWIDTH 7 0
BBX 10 24 2 0
BITMAP
01c0
0380
0700
0e00
0000
0e00
0e00
0e00
0e00
1c00
1c00
1c00
1c00
3800
3800
3800
3800
7000
7000
7000
7000
e000
e000
e000
ENDCHAR
STARTCHAR Icircumflex
ENCODING 206
SWIDTH 278 0
DWIDTH 7 0
BBX 10 24 2 0
BITMAP
0780
0f80
1dc0
39c0
0000
0e00
0e00
0e00
0e00
1c00
1c00
1c00
1c00
3800
3800
3800
3800
7000
7000
7000
7000
e000
e000
e000
ENDCHAR
STARTCHAR Dcaron
ENCODING 207
SWIDTH 722 0
DWIDTH 19 0
BBX 18 24 2 0
BITMAP
038e00
01dc00
00f800
007000
000000
0ffc00
0fff00
0e0f80
0e0380
1c01c0
1c01c0
1c01c0
1c01c0
3801c0
3801c0
3801c0
380380
700380
700780
700f00
701e00
e07c00
fff800
ffe000
ENDCHAR
STARTCHAR Dstroke
ENCODING 208
SWIDTH 722 0
DWIDTH 19 0
BBX 18 19 2 0
BITMAP
0ffc00
0fff00
0e0f80
0e0380
1c01c0
1c01c0
1c01c0
1c01c0
ff81c0
ff81c0
3801c0
380380
700380
700780
700f00
701e00
e07c00
fff800
ffe000
ENDCHAR
STARTCHAR Nacute
ENCODING 209
SWIDTH 722 0
DWIDTH 19 0
BBX 19 24 2 0
BITMAP
000700
000e00
001c00
003800
000000
0e00e0
0e00e0
0f00e0
0f00e0
1f81c0
1d81c0
1dc1c0
19c1c0
39c380
38e380
38e380
386380
707300
707700
703700
703f00
e01e00
e01e00
e00e00
ENDCHAR
STARTCHAR Ncaron
ENCODING 210
SWIDTH 722 0
DWIDTH 19 0
BBX 19 24 2 0
BITMAP
01c700
00ee00
007c00
003800
000000
0e00e0
0e00e0
0f00e0
0f00e0
1f81c0
1d81c0
1dc1c0
19c1c0
39c380
38e380
38e380
386380
707300
707700
703700
703f00
e01e00
e01e00
e00e00
ENDCHAR
STARTCHAR Oacute
ENCODING 211
SWIDTH 778 0
DWIDTH 19 0
BBX 17 24 3 0
BITMAP
000e00
001c00
003800
007000
000000
01fc00
07fe00
0f8f00
1e0700
380780
780380
700380
f00380
e00380
e00380
e00380
e00780
e00700
e00f00
f01e00
703c00
78f800
3ff000
1fc000
ENDCHAR
STARTCHAR Ocircumflex
ENCODING 212
SWIDTH 778 0
DWIDTH 19 0
BBX 17 24 3 0
BITMAP
003c00
007c00
00ee00
01ce00
000000
01fc00
07fe00
0f8f00
1e0700
380780
780380
700380
f00380
e00380
e00380
e00380
e00780
e00700
e00f00
f01e00
703c00
78f800
3ff000
1fc000
ENDCHAR
STARTCHAR Odoubleacute
ENCODING 213
SWIDTH 778 0
DWIDTH 19 0
BBX 17 23 3 0
BITMAP
007380
00e700
01ce00
000000
01fc00
07fe00
0f8f00
1e0700
380780
780380
700380
f00380
e00380
e00380
e00380
e00780
e00700
e00f00
f01e00
703c00
78f800
3ff000
1fc000
ENDCHAR
STARTCHAR Odiaeresis
ENCODING 214
SWIDTH 778 0
DWIDTH 19 0
BBX 17 23 3 0
BITMAP
018600
018600
018600
000000
01fc00
07fe00
0f8f00
1e0700
380780
780380
700380
f00380
e00380
e00380
e00380
e00780
e00700
e00f00
f01e00
703c00
78f800
3ff000
1fc000
ENDCHAR
STARTCHAR multiply
ENCODING 215
SWIDTH 584 0
DWIDTH 15 0
BBX 13 12 2 1
BITMAP
6018
7038
3870
1ce0
0fc0
0780
0f00
1f80
39c0
70e0
e070
c030
ENDCHAR
STARTCHAR Rcaron
ENCODING 216
SWIDTH 722 0
DWIDTH 17 0
BBX 17 24 2 0
BITMAP
038e00
01dc00
00f800
007000
000000
0ffe00
0fff00
0e0780
0e0380
1c0380
1c0380
1c0700
1c0f00
3ffe00
3ffc00
381e00
380e00
700e00
700e00
700e00
700e00
e01c00
e01c00
e01c00
ENDCHAR
STARTCHAR Uring
ENCODING 217
SWIDTH 722 0
DWIDTH 19 0
BBX 18 25 3 0
BITMAP
007800
00fc00
00cc00
00fc00
007800
000000
1c01c0
1c01c0
1c01c0
1c01c0
380380
380380
380380
380380
700700
700700
700700
700f00
e00e00
e01e00
e01c00
f03c00
78f800
7ff000
1fc000
ENDCHAR
STARTCHAR Uacute
ENCODING 218
SWIDTH 722 0
DWIDTH 19 0
BBX 18 24 3 0
BITMAP
000e00
001c00
003800
007000
000000
1c01c0
1c01c0
1c01c0
1c01c0
380380
380380
380380
380380
700700
700700
700700
700f00
e00e00
e01e00
e01c00
f03c00
78f800
7ff000
1fc000
ENDCHAR
STARTCHAR Udoubleacute
ENCODING 219
SWIDTH 722 0
DWIDTH 19 0
BBX 18 23 3 0
BITMAP
007380
00e700
01ce00
000000
1c01c0
1c01c0
1c01c0
1c01c0
380380
380380
380380
380380
700700
700700
700700
700f00
e00e00
e01e00
e01c00
f03c00
78f800
7ff000
1fc000
ENDCHAR
STARTCHAR Udiaeresis
ENCODING 220
SWIDTH 722 0
DWIDTH 19 0
BBX 18 23 3 0
BITMAP
018600
018600
018600
000000
1c01c0
1c01c0
1c01c0
1c01c0
380380
380380
380380
380380
700700
700700
700700
700f00
e00e00
e01e00
e01c00
f03c00
78f800
7ff000
1fc000
ENDCHAR
STARTCHAR Yacute
ENCODING 221
SWIDTH 667 0
DWIDTH 17 0
BBX 15 24 5 0
BITMAP
0070
00e0
01c0
0380
0000
e00e
e01e
e03c
7078
7070
70e0
39c0
39c0
3b80
3f00
1f00
1e00
1c00
1c00
1c00
3800
3800
3800
3800
ENDCHAR
STARTCHAR Tcedilla
ENCODING 222
SWIDTH 611 0
DWIDTH 15 0
BBX 15 25 4 -6
BITMAP
fffe
fffe
0380
0380
0700
0700
0700
0700
0e00
0e00
0e00
0e00
1c00
1c00
1c00
1c00
3800
3800
3800
0380
01c0
00e0
0660
07c0
0380
ENDCHAR
STARTCHAR ssharp
ENCODING 223
SWIDTH 611 0
DWIDTH 14 0
BBX 13 19 2 0
BITMAP
01e0
07f0
0770
0e38
0c38
1c38
1c70
1cf0
39c0
39e0
38e0
3870
7070
7070
7070
70e0
e1e0
e7c0
e700
ENDCHAR
STARTCHAR racute
ENCODING 224
SWIDTH 389 0
DWIDTH 10 0
BBX 11 19 2 0
BITMAP
00e0
01c0
0380
0700
0000
1dc0
1fc0
1fc0
3c00
3800
3800
3800
7000
7000
7000
7000
e000
e000
e000
ENDCHAR
STARTCHAR aacute
ENCODING 225
SWIDTH 556 0
DWIDTH 14 0
BBX 12 19 2 0
BITMAP
0070
00e0
01c0
0380
0000
07e0
1ff0
3c70
3870
00f0
07e0
1fe0
3ce0
70e0
e0e0
e1c0
e7c0
ffc0
7dc0
ENDCHAR
STARTCHAR acircumflex
ENCODING 226
SWIDTH 556 0
DWIDTH 14 0
BBX 12 19 2 0
BITMAP
01e0
03e0
0770
0e70
0000
07e0
1ff0
3c70
3870
00f0
07e0
1fe0
3ce0
70e0
e0e0
e1c0
e7c0
ffc0
7dc0
ENDCHAR
STARTCHAR abreve
ENCODING 227
SWIDTH 556 0
DWIDTH 14 0
BBX 12 19 2 0
BITMAP
1830
1c70
0fe0
07c0
0000
07e0
1ff0
3c70
3870
00f0
07e0
1fe0
3ce0
70e0
e0e0
e1c0
e7c0
ffc0
7dc0
ENDCHAR
STARTCHAR adiaeresis
ENCODING 228
SWIDTH 556 0
DWIDTH 14 0
BBX 12 18 2 0
BITMAP
0630
0630
0630
0000
07e0
1ff0
3c70
3870
00f0
07e0
1fe0
3ce0
70e0
e0e0
e1c0
e7c0
ffc0
7dc0
ENDCHAR
STARTCHAR lacute
ENCODING 229
SWIDTH 278 0
DWIDTH 7 0
BBX 10 24 2 0
BITMAP
01c0
0380
0700
0e00
0000
0e00
0e00
0e00
0e00
1c00
1c00
1c00
1c00
3800
3800
3800
3800
7000
7000
7000
7000
e000
e000
e000
ENDCHAR
STARTCHAR cacute
ENCODING 230
SWIDTH 556 0
DWIDTH 13 0
BBX 12 19 2 0
BITMAP
0070
00e0
01c0
0380
0000
03c0
0fe0
1e70
3830
7000
7000
e000
e000
e000
e000
e0e0
73c0
7f80
1e00
ENDCHAR
STARTCHAR ccedilla
ENCODING 231
SWIDTH 556 0
DWIDTH 13 0
BBX 12 19 2 -5
BITMAP
03c0
0fe0
1e70
3830
7000
7000
e000
e000
e000
e000
e0e0
73c0
7f80
3f00
1c00
0e00
6600
7c00
3800
ENDCHAR
STARTCHAR ccaron
ENCODING 232
SWIDTH 556 0
DWIDTH 13 0
BBX 12 19 2 0
BITMAP
1c70
0ee0
07c0
0380
0000
03c0
0fe0
1e70
3830
7000
7000
e000
e000
e000
e000
e0e0
73c0
7f80
1e00
ENDCHAR
STARTCHAR eacute
ENCODING 233
SWIDTH 556 0
DWIDTH 14 0
BBX 13 19 2 0
BITMAP
0070
00e0
01c0
0380
0000
03e0
0ff0
1e70
3838
7038
7038
fff8
fff0
e000
e000
e0e0
73c0
7f80
1e00
ENDCHAR
STARTCHAR eogonek
ENCODING 234
SWIDTH 556 0
DWIDTH 14 0
BBX 13 20 2 -6
BITMAP
03e0
0ff0
1e70
3838
7038
7038
fff8
fff0
e000
e000
e0e0
73c0
7f80
1e00
03c0
0700
0e00
0c40
0fc0
0780
ENDCHAR
STARTCHAR ediaeresis
ENCODING 235
SWIDTH 556 0
DWIDTH 14 0
BBX 13 18 2 0
BITMAP
0630
0630
0630
0000
03e0
0ff0
1e70
3838
7038
7038
fff8
fff0
e000
e000
e0e0
73c0
7f80
1e00
ENDCHAR
STARTCHAR ecaron
ENCODING 236
SWIDTH 556 0
DWIDTH 14 0
BBX 13 19 2 0
BITMAP
1c70
0ee0
07c0
0380
0000
03e0
0ff0
1e70
3838
7038
7038
fff8
fff0
e000
e000
e0e0
73c0
7f80
1e00
ENDCHAR
STARTCHAR iacute
ENCODING 237
SWIDTH 278 0
DWIDTH 7 0
BBX 9 19 2 0
BITMAP
0380
0700
0e00
1c00
0000
1c00
1c00
1c00
3800
3800
3800
3800
7000
7000
7000
7000
e000
e000
e000
ENDCHAR
STARTCHAR icircumflex
ENCODING 238
SWIDTH 278 0
DWIDTH 7 0
BBX 9 19 2 0
BITMAP
0f00
1f00
3380
6380
0000
1c00
1c00
3800
3800
3800
3800
7000
7000
7000
7000
e000
e000
e000
e000
ENDCHAR
STARTCHAR dcaron
ENCODING 239
SWIDTH 840 0
DWIDTH 21 0
BBX 21 21 2 0
BITMAP
000038
000038
000e38
000e18
000e70
000ec0
001c00
03dc00
0ffc00
1e7c00
383800
703800
703800
e03800
e03800
e07000
e07000
e0f000
73e000
7fe000
1ee000
ENDCHAR
STARTCHAR dstroke
ENCODING 240
SWIDTH 720 0
DWIDTH 18 0
BBX 18 19 2 0
BITMAP
000e00
000e00
007fc0
007fc0
001c00
03dc00
0ffc00
1e7c00
383800
703800
703800
e03800
e03800
e07000
e07000
e0f000
73e000
7fe000
1ee000
ENDCHAR
STARTCHAR nacute
ENCODING 241
SWIDTH 611 0
DWIDTH 15 0
BBX 13 19 2 0
BITMAP
0038
0070
00e0
01c0
0000
1de0
1ff0
1e38
3c38
3838
3838
3838
7070
7070
7070
7070
e0e0
e0e0
e0e0
ENDCHAR
STARTCHAR ncaron
ENCODING 242
SWIDTH 611 0
DWIDTH 15 0
BBX 13 19 2 0
BITMAP
0e38
0770
03e0
01c0
0000
1de0
1ff0
1e38
3c38
3838
3838
3838
7070
7070
7070
7070
e0e0
e0e0
e0e0
ENDCHAR
STARTCHAR oacute
ENCODING 243
SWIDTH 611 0
DWIDTH 14 0
BBX 13 19 2 0
BITMAP
0070
00e0
01c0
0380
0000
03c0
0ff0
1e70
3838
7038
7038
e038
e038
e070
e070
e0e0
73c0
7f80
1e00
ENDCHAR
STARTCHAR ocircumflex
ENCODING 244
SWIDTH 611 0
DWIDTH 14 0
BBX 13 19 2 0
BITMAP
01c0
03e0
0770
0e70
0000
03c0
0ff0
1e70
3838
7038
7038
e038
e038
e070
e070
e0e0
73c0
7f80
1e00
ENDCHAR
STARTCHAR odoubleacute
ENCODING 245
SWIDTH 611 0
DWIDTH 14 0
BBX 14 18 2 0
BITMAP
039c
0738
0e70
0000
03c0
0ff0
1e70
3838
7038
7038
e038
e038
e070
e070
e0e0
73c0
7f80
1e00
ENDCHAR
STARTCHAR odiaeresis
ENCODING 246
SWIDTH 611 0
DWIDTH 14 0
BBX 13 18 2 0
BITMAP
0630
0630
0630
0000
03c0
0ff0
1e70
3838
7038
7038
e038
e038
e070
e070
e0e0
73c0
7f80
1e00
ENDCHAR
STARTCHAR division
ENCODING 247
SWIDTH 584 0
DWIDTH 15 0
BBX 10 12 4 1
BITMAP
0700
0f00
0e00
0000
0000
ffc0
ffc0
0000
0000
1c00
3c00
3800
ENDCHAR
STARTCHAR rcaron
ENCODING 248
SWIDTH 389 0
DWIDTH 10 0
BBX 11 19 2 0
BITMAP
38e0
1dc0
0f80
0700
0000
1dc0
1fc0
1fc0
3c00
3800
3800
3800
7000
7000
7000
7000
e000
e000
e000
ENDCHAR
STARTCHAR uring
ENCODING 249
SWIDTH 611 0
DWIDTH 15 0
BBX 13 20 3 0
BITMAP
03c0
07e0
0660
07e0
03c0
0000
3838
3838
3838
7070
7070
7070
7070
e0e0
e0e0
e1e0
e3e0
e7c0
7fc0
3dc0
ENDCHAR
STARTCHAR uacute
ENCODING 250
SWIDTH 611 0
DWIDTH 15 0
BBX 13 19 3 0
BITMAP
0070
00e0
01c0
0380
0000
3838
3838
3838
7070
7070
7070
7070
e0e0
e0e0
e1e0
e3e0
e7c0
7fc0
3dc0
ENDCHAR
STARTCHAR udoubleacute
ENCODING 251
SWIDTH 611 0
DWIDTH 15 0
BBX 14 18 3 0
BITMAP
039c
0738
0e70
0000
3838
3838
3838
7070
7070
7070
7070
e0e0
e0e0
e1e0
e3e0
e7c0
7fc0
3dc0
ENDCHAR
STARTCHAR udiaeresis
ENCODING 252
SWIDTH 611 0
DWIDTH 15 0
BBX 13 18 3 0
BITMAP
0630
0630
0630
0000
3838
3838
3838
7070
7070
7070
7070
e0e0
e0e0
e1e0
e3e0
e7c0
7fc0
3dc0
ENDCHAR
STARTCHAR yacute
ENCODING 253
SWIDTH 556 0
DWIDTH 14 0
BBX 14 24 2 -5
BITMAP
0070
00e0
01c0
0380
0000
701c
701c
7038
7038
3870
3870
38e0
38e0
1dc0
1dc0
1f80
0f00
0f00
0e00
0e00
1c00
3800
f800
f000
ENDCHAR
STARTCHAR tcedilla
ENCODING 254
SWIDTH 333 0
DWIDTH 9 0
BBX 8 24 3 -6
BITMAP
0e
0e
0e
1c
7f
7f
1c
38
38
38
38
70
70
70
e0
e0
f8
78
38
1c
0e
66
7c
38
ENDCHAR
STARTCHAR abovedot
ENCODING 255
SWIDTH 333 0
DWIDTH 7 0
BBX 3 2 6 16
BITMAP
e0
e0
ENDCHAR
ENDFONT
