STARTFONT 2.1
FONT -Adobe-New Century Schoolbook-Bold-I-Normal--17-120-100-100-P-99-ISO8859-2
SIZE 12 100 100
FONTBOUNDINGBOX 22 19 -3 -3
COMMENT $XConsortium: ncenBI12.bdf,v 1.7 95/01/26 17:56:15 gildea Exp $
COMMENT 
COMMENT +
COMMENT  Copyright 1984-1989, 1994 Adobe Systems Incorporated.
COMMENT  Copyright 1988, 1994 Digital Equipment Corporation.
COMMENT
COMMENT  Adobe is a trademark of Adobe Systems Incorporated which may be
COMMENT  registered in certain jurisdictions.
COMMENT  Permission to use these trademarks is hereby granted only in
COMMENT  association with the images described in this file.
COMMENT
COMMENT  Permission to use, copy, modify, distribute and sell this software
COMMENT  and its documentation for any purpose and without fee is hereby
COMMENT  granted, provided that the above copyright notices appear in all
COMMENT  copies and that both those copyright notices and this permission
COMMENT  notice appear in supporting documentation, and that the names of
COMMENT  Adobe Systems and Digital Equipment Corporation not be used in
COMMENT  advertising or publicity pertaining to distribution of the software
COMMENT  without specific, written prior permission.  Adobe Systems and
COMMENT  Digital Equipment Corporation make no representations about the
COMMENT  suitability of this software for any purpose.  It is provided "as
COMMENT  is" without express or implied warranty.
COMMENT -
COMMENT  
COMMENT  Translation to ISO8859-2 by Cub Soft;  Petr.Kolar@vslib.cz
COMMENT  
STARTPROPERTIES 28
FOUNDRY "Adobe"
FAMILY_NAME "New Century Schoolbook"
WEIGHT_NAME "Bold"
SLANT "I"
SETWIDTH_NAME "Normal"
ADD_STYLE_NAME ""
PIXEL_SIZE 17
POINT_SIZE 120
RESOLUTION_X 100
RESOLUTION_Y 100
SPACING "P"
AVERAGE_WIDTH 99
CHARSET_REGISTRY "ISO8859"
CHARSET_ENCODING "2"
CAP_HEIGHT 12
X_HEIGHT 8
FONT_ASCENT 14
FONT_DESCENT 3
FACE_NAME "New Century Schoolbook Bold Italic"
COPYRIGHT "Copyright (c) 1984, 1987 Adobe Systems Incorporated. All Rights Reserved. Copyright (c) 1988, 1991 Digital Equipment Corporation. All Rights Reserved., Copyright 1996 Cub Soft"
NOTICE "New Century Schoolbook is a trademark of Linotype-Hell AG and/or its subsidiaries."
_DEC_DEVICE_FONTNAMES "PS=NewCenturySchlbk-BoldItalic"
_DEC_PRODUCTINFO "DECwindows Fonts V2.2-1, 04-Dec-1991"
DEFAULT_CHAR 32
RELATIVE_SETWIDTH 50
RELATIVE_WEIGHT 70
CHARSET_COLLECTIONS "ASCII ISO8859-2 ADOBE-STANDARD"
FULL_NAME "New Century Schoolbook Bold Italic"
ENDPROPERTIES
CHARS 191
STARTCHAR space
ENCODING 32
SWIDTH 287 0
DWIDTH 4 0
BBX 1 1 1 0
BITMAP
00
ENDCHAR
STARTCHAR exclam
ENCODING 33
SWIDTH 333 0
DWIDTH 6 0
BBX 6 12 0 0
BITMAP
18
3c
38
38
30
30
20
20
00
60
f0
60
ENDCHAR
STARTCHAR quotedbl
ENCODING 34
SWIDTH 400 0
DWIDTH 7 0
BBX 7 5 1 7
BITMAP
cc
ee
cc
88
88
ENDCHAR
STARTCHAR numbersign
ENCODING 35
SWIDTH 606 0
DWIDTH 10 0
BBX 10 12 0 0
BITMAP
0900
0900
0900
0900
7fc0
1200
1200
ff80
2400
2400
2400
2400
ENDCHAR
STARTCHAR dollar
ENCODING 36
SWIDTH 574 0
DWIDTH 9 0
BBX 9 15 0 -1
BITMAP
0200
0200
1f00
2480
6580
6580
7800
3e00
0f00
0b00
d300
d300
9600
7800
2000
ENDCHAR
STARTCHAR percent
ENCODING 37
SWIDTH 889 0
DWIDTH 15 0
BBX 12 12 2 0
BITMAP
3880
7780
6500
c500
ca00
cae0
75d0
0590
0b10
0b20
1320
11c0
ENDCHAR
STARTCHAR ampersand
ENCODING 38
SWIDTH 889 0
DWIDTH 15 0
BBX 14 12 0 0
BITMAP
03c0
0660
0e60
0ec0
0700
1e7c
7730
63a0
e3a0
f1c4
7bf8
3cf0
ENDCHAR
STARTCHAR apostrophe
ENCODING 39
SWIDTH 259 0
DWIDTH 4 0
BBX 4 6 1 6
BITMAP
60
f0
70
20
40
80
ENDCHAR
STARTCHAR parenleft
ENCODING 40
SWIDTH 407 0
DWIDTH 7 0
BBX 6 14 1 -2
BITMAP
04
18
30
30
60
60
e0
c0
c0
c0
c0
40
40
20
ENDCHAR
STARTCHAR parenright
ENCODING 41
SWIDTH 407 0
DWIDTH 7 0
BBX 6 14 -1 -2
BITMAP
10
08
08
0c
0c
0c
0c
1c
18
18
30
30
60
80
ENDCHAR
STARTCHAR asterisk
ENCODING 42
SWIDTH 500 0
DWIDTH 8 0
BBX 7 7 1 5
BITMAP
10
54
d6
38
d6
54
10
ENDCHAR
STARTCHAR plus
ENCODING 43
SWIDTH 606 0
DWIDTH 10 0
BBX 8 8 1 0
BITMAP
18
18
18
ff
ff
18
18
18
ENDCHAR
STARTCHAR comma
ENCODING 44
SWIDTH 287 0
DWIDTH 5 0
BBX 4 6 0 -3
BITMAP
60
f0
70
20
40
80
ENDCHAR
STARTCHAR minus
ENCODING 45
SWIDTH 606 0
DWIDTH 10 0
BBX 8 2 1 3
BITMAP
ff
ff
ENDCHAR
STARTCHAR period
ENCODING 46
SWIDTH 287 0
DWIDTH 5 0
BBX 4 3 0 0
BITMAP
60
f0
60
ENDCHAR
STARTCHAR slash
ENCODING 47
SWIDTH 278 0
DWIDTH 5 0
BBX 5 12 0 0
BITMAP
08
18
10
10
30
20
20
60
40
40
c0
80
ENDCHAR
STARTCHAR zero
ENCODING 48
SWIDTH 574 0
DWIDTH 9 0
BBX 8 12 1 0
BITMAP
1e
37
63
63
e3
c3
c3
c7
c6
c6
ec
78
ENDCHAR
STARTCHAR one
ENCODING 49
SWIDTH 574 0
DWIDTH 9 0
BBX 8 12 0 0
BITMAP
03
3f
06
0e
0c
0c
1c
1c
18
38
38
fe
ENDCHAR
STARTCHAR two
ENCODING 50
SWIDTH 574 0
DWIDTH 9 0
BBX 10 12 -1 0
BITMAP
0f00
1180
21c0
38c0
39c0
1380
0700
0e00
1880
2100
7f00
fe00
ENDCHAR
STARTCHAR three
ENCODING 51
SWIDTH 574 0
DWIDTH 9 0
BBX 9 12 0 0
BITMAP
1f00
3380
7980
3380
0700
1c00
0600
4700
e300
c700
ce00
7c00
ENDCHAR
STARTCHAR four
ENCODING 52
SWIDTH 574 0
DWIDTH 9 0
BBX 9 12 0 0
BITMAP
0180
0380
0700
0b00
1700
2600
4600
8e00
ff00
0c00
0c00
3e00
ENDCHAR
STARTCHAR five
ENCODING 53
SWIDTH 574 0
DWIDTH 9 0
BBX 11 12 0 0
BITMAP
1fe0
1fc0
3000
3000
2000
3e00
0700
0380
6380
e300
c700
7c00
ENDCHAR
STARTCHAR six
ENCODING 54
SWIDTH 574 0
DWIDTH 9 0
BBX 9 12 1 0
BITMAP
0f00
3380
3300
6000
6e00
f700
e300
c300
c700
c600
ce00
7800
ENDCHAR
STARTCHAR seven
ENCODING 55
SWIDTH 574 0
DWIDTH 9 0
BBX 9 12 1 0
BITMAP
7f80
7f00
c200
8600
0400
0c00
1800
3800
3000
7000
7000
6000
ENDCHAR
STARTCHAR eight
ENCODING 56
SWIDTH 574 0
DWIDTH 9 0
BBX 9 12 0 0
BITMAP
0f00
1180
3180
3100
3b00
1e00
3e00
6300
c300
c300
c600
7c00
ENDCHAR
STARTCHAR nine
ENCODING 57
SWIDTH 574 0
DWIDTH 9 0
BBX 9 12 0 0
BITMAP
0f00
1b80
3180
7180
6180
6380
7780
3b00
0300
6600
e600
7800
ENDCHAR
STARTCHAR colon
ENCODING 58
SWIDTH 287 0
DWIDTH 5 0
BBX 5 8 0 0
BITMAP
30
78
30
00
00
60
f0
60
ENDCHAR
STARTCHAR semicolon
ENCODING 59
SWIDTH 287 0
DWIDTH 5 0
BBX 5 11 0 -3
BITMAP
30
78
30
00
00
60
f0
70
20
40
80
ENDCHAR
STARTCHAR less
ENCODING 60
SWIDTH 606 0
DWIDTH 10 0
BBX 8 8 1 0
BITMAP
03
0e
38
e0
e0
38
0e
03
ENDCHAR
STARTCHAR equal
ENCODING 61
SWIDTH 606 0
DWIDTH 10 0
BBX 8 5 1 2
BITMAP
ff
ff
00
ff
ff
ENDCHAR
STARTCHAR greater
ENCODING 62
SWIDTH 606 0
DWIDTH 10 0
BBX 8 8 1 0
BITMAP
c0
70
1c
07
07
1c
70
c0
ENDCHAR
STARTCHAR question
ENCODING 63
SWIDTH 481 0
DWIDTH 8 0
BBX 7 12 1 0
BITMAP
3c
46
8e
9e
3c
70
44
38
00
60
f0
60
ENDCHAR
STARTCHAR at
ENCODING 64
SWIDTH 747 0
DWIDTH 12 0
BBX 12 12 0 0
BITMAP
0f80
38e0
2020
66b0
cd90
9990
9990
9130
db60
6c90
7060
1fc0
ENDCHAR
STARTCHAR A
ENCODING 65
SWIDTH 741 0
DWIDTH 12 0
BBX 13 12 -1 0
BITMAP
0180
0180
0380
0380
05c0
0dc0
09c0
1fc0
30e0
20e0
60e0
fbf8
ENDCHAR
STARTCHAR B
ENCODING 66
SWIDTH 759 0
DWIDTH 13 0
BBX 13 12 -1 0
BITMAP
3ff0
0e38
0e38
0e38
1c70
1fc0
1ce0
1c70
3870
3870
38e0
ffc0
ENDCHAR
STARTCHAR C
ENCODING 67
SWIDTH 759 0
DWIDTH 13 0
BBX 12 12 1 0
BITMAP
07d0
1c70
3820
7020
7020
e000
e000
e000
e020
6040
7080
1f00
ENDCHAR
STARTCHAR D
ENCODING 68
SWIDTH 833 0
DWIDTH 14 0
BBX 14 12 -1 0
BITMAP
3fe0
0e38
0e18
0e1c
1c1c
1c1c
1c1c
1c38
3838
3870
38e0
ff80
ENDCHAR
STARTCHAR E
ENCODING 69
SWIDTH 741 0
DWIDTH 12 0
BBX 13 12 -1 0
BITMAP
3ff8
0e18
0e10
0e50
1cc0
1f80
1d80
1c90
3830
3820
3860
ffe0
ENDCHAR
STARTCHAR F
ENCODING 70
SWIDTH 704 0
DWIDTH 12 0
BBX 13 12 -1 0
BITMAP
3ff8
0e18
0e10
0e50
1cc0
1f80
1d80
1c80
3800
3800
3800
fe00
ENDCHAR
STARTCHAR G
ENCODING 71
SWIDTH 815 0
DWIDTH 14 0
BBX 13 12 1 0
BITMAP
07d0
1c70
3820
7020
7000
e000
e3f8
e0e0
e0e0
61c0
71c0
1e40
ENDCHAR
STARTCHAR H
ENCODING 72
SWIDTH 870 0
DWIDTH 14 0
BBX 16 12 -1 0
BITMAP
3fbf
0e1c
0e1c
0e1c
1c38
1ff8
1c38
1c38
3870
3870
3870
fdfc
ENDCHAR
STARTCHAR I
ENCODING 73
SWIDTH 444 0
DWIDTH 7 0
BBX 9 12 -1 0
BITMAP
3f80
0e00
0e00
0e00
1c00
1c00
1c00
1c00
3800
3800
3800
fe00
ENDCHAR
STARTCHAR J
ENCODING 74
SWIDTH 667 0
DWIDTH 11 0
BBX 12 12 0 0
BITMAP
07f0
01c0
01c0
01c0
0380
0380
0380
6380
f700
e700
8600
7c00
ENDCHAR
STARTCHAR K
ENCODING 75
SWIDTH 778 0
DWIDTH 13 0
BBX 15 12 -1 0
BITMAP
3fbe
0e18
0e30
0e60
1cc0
1fc0
1fc0
1ce0
38e0
3870
3870
fdfc
ENDCHAR
STARTCHAR L
ENCODING 76
SWIDTH 704 0
DWIDTH 12 0
BBX 12 12 -1 0
BITMAP
3f80
0e00
0e00
0e00
1c00
1c00
1c00
1c10
3830
3820
38e0
ffe0
ENDCHAR
STARTCHAR M
ENCODING 77
SWIDTH 944 0
DWIDTH 16 0
BBX 19 12 -2 0
BITMAP
1f07e0
070780
070f80
070f80
0f9700
0b9700
0ba700
19e700
11ce00
118e00
318e00
fd3f80
ENDCHAR
STARTCHAR N
ENCODING 78
SWIDTH 852 0
DWIDTH 14 0
BBX 16 12 -1 0
BITMAP
3e1f
0f04
0f04
0b8c
1b88
11c8
11d8
10f0
30f0
2070
2060
f820
ENDCHAR
STARTCHAR O
ENCODING 79
SWIDTH 833 0
DWIDTH 14 0
BBX 13 12 1 0
BITMAP
07c0
1c70
3830
7038
7038
e038
e038
e070
e070
60e0
71c0
1f00
ENDCHAR
STARTCHAR P
ENCODING 80
SWIDTH 741 0
DWIDTH 12 0
BBX 13 12 -1 0
BITMAP
3ff0
0e38
0e18
0e38
1c38
1c70
1fc0
1c00
3800
3800
3800
fe00
ENDCHAR
STARTCHAR Q
ENCODING 81
SWIDTH 833 0
DWIDTH 14 0
BBX 13 15 1 -3
BITMAP
07c0
1c70
3830
7038
7038
e038
e038
e630
e970
71e0
71c0
1fc0
01d0
01d0
00e0
ENDCHAR
STARTCHAR R
ENCODING 82
SWIDTH 796 0
DWIDTH 14 0
BBX 14 12 -1 0
BITMAP
3ff8
0e1c
0e1c
0e3c
1c78
1fe0
1c60
1c70
38f0
38f4
38e4
fe78
ENDCHAR
STARTCHAR S
ENCODING 83
SWIDTH 685 0
DWIDTH 11 0
BBX 11 12 0 0
BITMAP
0fa0
18c0
30c0
3040
3c00
3f80
1fc0
43c0
40c0
60c0
f180
9f00
ENDCHAR
STARTCHAR T
ENCODING 84
SWIDTH 722 0
DWIDTH 12 0
BBX 13 12 0 0
BITMAP
7ff8
6738
c710
8710
8e10
0e00
0e00
0e00
1c00
1c00
1c00
7f00
ENDCHAR
STARTCHAR U
ENCODING 85
SWIDTH 833 0
DWIDTH 14 0
BBX 14 12 1 0
BITMAP
fefc
3830
3830
7020
7020
7060
7040
e040
e040
e0c0
7180
3e00
ENDCHAR
STARTCHAR V
ENCODING 86
SWIDTH 741 0
DWIDTH 12 0
BBX 14 12 0 0
BITMAP
fefc
3830
3860
3840
1cc0
1c80
1d80
1d00
0e00
0e00
0c00
0c00
ENDCHAR
STARTCHAR W
ENCODING 87
SWIDTH 944 0
DWIDTH 16 0
BBX 18 12 0 0
BITMAP
fdf7c0
38e300
38e200
38e600
39e400
39ec00
1a6800
1e7800
1c7000
1c7000
186000
186000
ENDCHAR
STARTCHAR X
ENCODING 88
SWIDTH 741 0
DWIDTH 12 0
BBX 15 12 -2 0
BITMAP
3fbe
0e18
0e30
0760
07c0
0380
0380
07c0
0dc0
18e0
30e0
fbf8
ENDCHAR
STARTCHAR Y
ENCODING 89
SWIDTH 704 0
DWIDTH 12 0
BBX 13 12 0 0
BITMAP
fef8
3830
3860
1cc0
1d80
1f00
0e00
0e00
1c00
1c00
1c00
7f00
ENDCHAR
STARTCHAR Z
ENCODING 90
SWIDTH 704 0
DWIDTH 12 0
BBX 13 12 -1 0
BITMAP
1ff8
1cf0
30e0
21c0
0380
0700
0f00
1e10
1c30
3860
71e0
ffe0
ENDCHAR
STARTCHAR bracketleft
ENCODING 91
SWIDTH 407 0
DWIDTH 7 0
BBX 7 14 0 -2
BITMAP
1e
18
18
30
30
30
30
60
60
60
60
c0
c0
f0
ENDCHAR
STARTCHAR backslash
ENCODING 92
SWIDTH 606 0
DWIDTH 10 0
BBX 8 12 1 0
BITMAP
c0
40
60
20
30
10
18
0c
04
06
02
03
ENDCHAR
STARTCHAR bracketright
ENCODING 93
SWIDTH 407 0
DWIDTH 7 0
BBX 7 14 -1 -2
BITMAP
1e
06
06
0c
0c
0c
0c
18
18
18
18
30
30
f0
ENDCHAR
STARTCHAR asciicircum
ENCODING 94
SWIDTH 606 0
DWIDTH 10 0
BBX 8 7 1 5
BITMAP
18
18
3c
24
66
42
c3
ENDCHAR
STARTCHAR underscore
ENCODING 95
SWIDTH 500 0
DWIDTH 8 0
BBX 8 2 -1 -3
BITMAP
ff
ff
ENDCHAR
STARTCHAR grave
ENCODING 96
SWIDTH 333 0
DWIDTH 6 0
BBX 4 3 1 9
BITMAP
c0
60
10
ENDCHAR
STARTCHAR a
ENCODING 97
SWIDTH 667 0
DWIDTH 11 0
BBX 10 8 0 0
BITMAP
1dc0
7780
6380
e380
c300
c700
ef40
7b80
ENDCHAR
STARTCHAR b
ENCODING 98
SWIDTH 611 0
DWIDTH 10 0
BBX 9 12 0 0
BITMAP
7800
3800
3000
3000
7700
7b80
7180
e180
e380
c300
ce00
7800
ENDCHAR
STARTCHAR c
ENCODING 99
SWIDTH 537 0
DWIDTH 9 0
BBX 8 8 1 0
BITMAP
1e
73
67
e2
c0
c0
e4
78
ENDCHAR
STARTCHAR d
ENCODING 100
SWIDTH 667 0
DWIDTH 11 0
BBX 11 12 0 0
BITMAP
01e0
00e0
00c0
01c0
1d80
7780
6380
e380
c300
c700
e740
7b80
ENDCHAR
STARTCHAR e
ENCODING 101
SWIDTH 519 0
DWIDTH 9 0
BBX 8 8 1 0
BITMAP
1e
77
63
ce
fc
c0
e2
7c
ENDCHAR
STARTCHAR f
ENCODING 102
SWIDTH 389 0
DWIDTH 6 0
BBX 10 15 -1 -3
BITMAP
0380
06c0
0cc0
0c00
3f00
1c00
1800
1800
3800
3000
3000
7000
6000
6000
e000
ENDCHAR
STARTCHAR g
ENCODING 103
SWIDTH 611 0
DWIDTH 10 0
BBX 11 12 -1 -3
BITMAP
0060
07a0
1cc0
38e0
38e0
19c0
3f00
6000
3f00
7f80
c180
7f00
ENDCHAR
STARTCHAR h
ENCODING 104
SWIDTH 685 0
DWIDTH 11 0
BBX 10 12 0 0
BITMAP
3c00
1c00
1800
3800
3380
35c0
39c0
7980
7380
6300
e740
e380
ENDCHAR
STARTCHAR i
ENCODING 105
SWIDTH 389 0
DWIDTH 6 0
BBX 6 12 0 0
BITMAP
18
3c
18
00
78
38
30
70
70
e0
e8
70
ENDCHAR
STARTCHAR j
ENCODING 106
SWIDTH 370 0
DWIDTH 6 0
BBX 9 15 -3 -3
BITMAP
0300
0780
0300
0000
0f00
0700
0600
0600
0e00
0e00
0c00
0c00
cc00
d800
7000
ENDCHAR
STARTCHAR k
ENCODING 107
SWIDTH 648 0
DWIDTH 11 0
BBX 10 12 0 0
BITMAP
1e00
0e00
0c00
1c00
1b80
1cc0
39c0
3180
7e00
7700
6340
e380
ENDCHAR
STARTCHAR l
ENCODING 108
SWIDTH 389 0
DWIDTH 6 0
BBX 6 12 0 0
BITMAP
3c
1c
18
38
30
30
70
70
60
e0
e8
70
ENDCHAR
STARTCHAR m
ENCODING 109
SWIDTH 944 0
DWIDTH 15 0
BBX 15 8 -1 0
BITMAP
739c
35ee
39ce
318c
739c
6318
633a
e71c
ENDCHAR
STARTCHAR n
ENCODING 110
SWIDTH 685 0
DWIDTH 11 0
BBX 10 8 0 0
BITMAP
7380
35c0
39c0
7180
7380
6300
e740
e380
ENDCHAR
STARTCHAR o
ENCODING 111
SWIDTH 574 0
DWIDTH 10 0
BBX 9 8 0 0
BITMAP
1e00
7300
6380
e180
c380
e300
6700
3c00
ENDCHAR
STARTCHAR p
ENCODING 112
SWIDTH 648 0
DWIDTH 11 0
BBX 11 11 -1 -3
BITMAP
3dc0
1ee0
1c60
1860
38e0
38c0
3dc0
7700
6000
6000
f000
ENDCHAR
STARTCHAR q
ENCODING 113
SWIDTH 630 0
DWIDTH 10 0
BBX 10 11 0 -3
BITMAP
1ec0
7380
6180
e380
c300
c700
ef00
7a00
0600
0600
0f00
ENDCHAR
STARTCHAR r
ENCODING 114
SWIDTH 519 0
DWIDTH 9 0
BBX 9 8 0 0
BITMAP
3b80
1d80
3980
3800
3000
7000
6000
e000
ENDCHAR
STARTCHAR s
ENCODING 115
SWIDTH 481 0
DWIDTH 8 0
BBX 8 8 0 0
BITMAP
1e
73
63
7c
3e
c6
ce
78
ENDCHAR
STARTCHAR t
ENCODING 116
SWIDTH 407 0
DWIDTH 7 0
BBX 6 11 1 0
BITMAP
18
18
30
fc
70
60
60
e0
c8
d0
e0
ENDCHAR
STARTCHAR u
ENCODING 117
SWIDTH 685 0
DWIDTH 11 0
BBX 10 8 0 0
BITMAP
79c0
39c0
3180
7380
6300
e700
eb40
7380
ENDCHAR
STARTCHAR v
ENCODING 118
SWIDTH 556 0
DWIDTH 9 0
BBX 7 8 1 0
BITMAP
f6
66
62
e6
c6
c4
cc
78
ENDCHAR
STARTCHAR w
ENCODING 119
SWIDTH 833 0
DWIDTH 14 0
BBX 13 8 0 0
BITMAP
79d8
39d8
3188
7398
6710
e730
eb60
73c0
ENDCHAR
STARTCHAR x
ENCODING 120
SWIDTH 574 0
DWIDTH 9 0
BBX 10 8 -1 0
BITMAP
39c0
5ac0
1e00
0c00
0c00
1e00
d680
e700
ENDCHAR
STARTCHAR y
ENCODING 121
SWIDTH 519 0
DWIDTH 9 0
BBX 9 11 -1 -3
BITMAP
3180
7980
b880
1d80
1d00
0e00
0c00
0c00
c800
d000
6000
ENDCHAR
STARTCHAR z
ENCODING 122
SWIDTH 519 0
DWIDTH 9 0
BBX 8 8 0 0
BITMAP
39
7f
46
0c
38
61
fe
9c
ENDCHAR
STARTCHAR braceleft
ENCODING 123
SWIDTH 407 0
DWIDTH 7 0
BBX 6 14 1 -2
BITMAP
0c
10
18
38
30
20
c0
20
60
60
60
c0
80
60
ENDCHAR
STARTCHAR bar
ENCODING 124
SWIDTH 606 0
DWIDTH 10 0
BBX 1 12 5 0
BITMAP
80
80
80
80
80
80
80
80
80
80
80
80
ENDCHAR
STARTCHAR braceright
ENCODING 125
SWIDTH 407 0
DWIDTH 7 0
BBX 6 14 0 -2
BITMAP
18
04
0c
18
18
18
10
0c
30
30
30
20
20
c0
ENDCHAR
STARTCHAR asciitilde
ENCODING 126
SWIDTH 606 0
DWIDTH 10 0
BBX 8 3 1 3
BITMAP
71
ff
8e
ENDCHAR
STARTCHAR nobreakspace
ENCODING 160
SWIDTH 287 0
DWIDTH 4 0
BBX 1 1 1 0
BITMAP
00
ENDCHAR
STARTCHAR Aogonek
ENCODING 161
SWIDTH 741 0
DWIDTH 12 0
BBX 13 15 -1 -3
BITMAP
0180
0180
0380
0380
05c0
0dc0
09c0
1fc0
30e0
20e0
60e0
fbf8
0200
0400
0700
ENDCHAR
STARTCHAR breve
ENCODING 162
SWIDTH 333 0
DWIDTH 5 0
BBX 5 3 0 9
BITMAP
88
88
70
ENDCHAR
STARTCHAR Lstroke
ENCODING 163
SWIDTH 704 0
DWIDTH 12 0
BBX 12 12 -1 0
BITMAP
3f80
0e00
0e00
0e00
1c80
1f00
7c00
9c10
3830
3860
38e0
ffe0
ENDCHAR
STARTCHAR currency
ENCODING 164
SWIDTH 574 0
DWIDTH 10 0
BBX 8 8 1 2
BITMAP
5a
ff
66
c3
c3
66
ff
5a
ENDCHAR
STARTCHAR Lcaron
ENCODING 165
SWIDTH 840 0
DWIDTH 14 0
BBX 14 14 -1 0
BITMAP
0018
003c
3f9c
0e08
0e10
0e20
1c00
1c00
1c00
1c10
3830
3820
38e0
ffe0
ENDCHAR
STARTCHAR Sacute
ENCODING 166
SWIDTH 685 0
DWIDTH 11 0
BBX 11 16 0 0
BITMAP
0060
00c0
0100
0000
0fa0
18c0
30c0
3040
3c00
3f80
1fc0
43c0
40c0
60c0
f180
9f00
ENDCHAR
STARTCHAR section
ENCODING 167
SWIDTH 500 0
DWIDTH 9 0
BBX 10 15 -1 -3
BITMAP
0780
08c0
19c0
1c80
0e00
3f00
6380
6180
7180
3f00
1c00
4e00
e600
c400
7800
ENDCHAR
STARTCHAR diaeresis
ENCODING 168
SWIDTH 333 0
DWIDTH 6 0
BBX 5 2 1 9
BITMAP
d8
d8
ENDCHAR
STARTCHAR Scaron
ENCODING 169
SWIDTH 685 0
DWIDTH 11 0
BBX 11 16 0 0
BITMAP
0660
03c0
0180
0000
0fa0
18c0
30c0
3040
3c00
3f80
1fc0
43c0
40c0
60c0
f180
9f00
ENDCHAR
STARTCHAR Scedilla
ENCODING 170
SWIDTH 685 0
DWIDTH 11 0
BBX 11 16 0 -4
BITMAP
0fa0
18c0
30c0
3040
3c00
3f80
1fc0
43c0
40c0
60c0
f180
9f00
0600
0600
0300
0e00
ENDCHAR
STARTCHAR Tcaron
ENCODING 171
SWIDTH 722 0
DWIDTH 12 0
BBX 13 16 0 0
BITMAP
0660
03c0
0180
0000
7ff8
6738
c710
8710
8e10
0e00
0e00
0e00
1c00
1c00
1c00
7f00
ENDCHAR
STARTCHAR Zacute
ENCODING 172
SWIDTH 704 0
DWIDTH 12 0
BBX 13 16 -1 0
BITMAP
0030
0060
0080
0000
1ff8
1cf0
30e0
21c0
0380
0700
0f00
1e10
1c30
3860
71e0
ffe0
ENDCHAR
STARTCHAR hyphen
ENCODING 173
SWIDTH 333 0
DWIDTH 5 0
BBX 4 2 0 3
BITMAP
f0
f0
ENDCHAR
STARTCHAR Zcaron
ENCODING 174
SWIDTH 704 0
DWIDTH 12 0
BBX 13 16 -1 0
BITMAP
0330
01e0
00c0
0000
1ff8
1cf0
30e0
21c0
0380
0700
0f00
1e10
1c30
3860
71e0
ffe0
ENDCHAR
STARTCHAR Zabovedot
ENCODING 175
SWIDTH 704 0
DWIDTH 12 0
BBX 13 15 -1 0
BITMAP
00c0
00c0
0000
1ff8
1cf0
30e0
21c0
0380
0700
0f00
1e10
1c30
3860
71e0
ffe0
ENDCHAR
STARTCHAR degree
ENCODING 176
SWIDTH 400 0
DWIDTH 7 0
BBX 5 5 2 7
BITMAP
70
d8
88
d8
70
ENDCHAR
STARTCHAR aogonek
ENCODING 177
SWIDTH 667 0
DWIDTH 11 0
BBX 10 11 0 -3
BITMAP
1dc0
7780
6380
e380
c300
c700
ef40
7b80
0800
1000
1c00
ENDCHAR
STARTCHAR ogonek
ENCODING 178
SWIDTH 333 0
DWIDTH 6 0
BBX 3 3 1 -3
BITMAP
40
80
e0
ENDCHAR
STARTCHAR lstroke
ENCODING 179
SWIDTH 389 0
DWIDTH 6 0
BBX 8 12 -1 0
BITMAP
3e
0e
0c
1c
1f
f8
38
38
30
72
74
38
ENDCHAR
STARTCHAR acute
ENCODING 180
SWIDTH 333 0
DWIDTH 6 0
BBX 4 3 2 9
BITMAP
30
60
80
ENDCHAR
STARTCHAR lcaron
ENCODING 181
SWIDTH 660 0
DWIDTH 11 0
BBX 11 14 0 0
BITMAP
00c0
01e0
3ce0
1c40
1880
3900
3000
3000
7000
7000
6000
e000
e800
7000
ENDCHAR
STARTCHAR sacute
ENCODING 182
SWIDTH 481 0
DWIDTH 8 0
BBX 8 12 0 0
BITMAP
03
06
08
00
1e
73
63
7c
3e
c6
ce
78
ENDCHAR
STARTCHAR caron
ENCODING 183
SWIDTH 333 0
DWIDTH 6 0
BBX 6 3 0 9
BITMAP
cc
78
30
ENDCHAR
STARTCHAR cedilla
ENCODING 184
SWIDTH 333 0
DWIDTH 5 0
BBX 4 4 -1 -3
BITMAP
60
60
30
e0
ENDCHAR
STARTCHAR scaron
ENCODING 185
SWIDTH 481 0
DWIDTH 8 0
BBX 8 12 0 0
BITMAP
33
1e
0c
00
1e
73
63
7c
3e
c6
ce
78
ENDCHAR
STARTCHAR scedilla
ENCODING 186
SWIDTH 481 0
DWIDTH 8 0
BBX 8 12 0 -4
BITMAP
1e
73
63
7c
3e
c6
ce
78
18
18
0c
38
ENDCHAR
STARTCHAR tcaron
ENCODING 187
SWIDTH 660 0
DWIDTH 11 0
BBX 10 15 1 0
BITMAP
0180
03c0
01c0
0080
1900
1a00
3000
fc00
7000
6000
6000
e000
c800
d000
e000
ENDCHAR
STARTCHAR zacute
ENCODING 188
SWIDTH 519 0
DWIDTH 9 0
BBX 8 12 0 0
BITMAP
03
06
08
00
39
7f
46
0c
38
61
fe
9c
ENDCHAR
STARTCHAR doubleacute
ENCODING 189
SWIDTH 333 0
DWIDTH 6 0
BBX 7 3 1 9
BITMAP
36
6c
90
ENDCHAR
STARTCHAR zcaron
ENCODING 190
SWIDTH 519 0
DWIDTH 9 0
BBX 8 12 0 0
BITMAP
33
1e
0c
00
39
7f
46
0c
38
61
fe
9c
ENDCHAR
STARTCHAR zabovedot
ENCODING 191
SWIDTH 519 0
DWIDTH 9 0
BBX 8 11 0 0
BITMAP
0c
0c
00
39
7f
46
0c
38
61
fe
9c
ENDCHAR
STARTCHAR Racute
ENCODING 192
SWIDTH 796 0
DWIDTH 14 0
BBX 14 16 -1 0
BITMAP
0030
0060
0080
0000
3ff8
0e1c
0e1c
0e3c
1c78
1fe0
1c60
1c70
38f0
38f4
38e4
fe78
ENDCHAR
STARTCHAR Aacute
ENCODING 193
SWIDTH 741 0
DWIDTH 12 0
BBX 13 16 -1 0
BITMAP
0060
00c0
0100
0000
0180
0180
0380
0380
05c0
0dc0
09c0
1fc0
30e0
20e0
60e0
fbf8
ENDCHAR
STARTCHAR Acircumflex
ENCODING 194
SWIDTH 741 0
DWIDTH 12 0
BBX 13 16 -1 0
BITMAP
0180
03c0
0660
0000
0180
0180
0380
0380
05c0
0dc0
09c0
1fc0
30e0
20e0
60e0
fbf8
ENDCHAR
STARTCHAR Abreve
ENCODING 195
SWIDTH 741 0
DWIDTH 12 0
BBX 13 16 -1 0
BITMAP
0220
0220
01c0
0000
0180
0180
0380
0380
05c0
0dc0
09c0
1fc0
30e0
20e0
60e0
fbf8
ENDCHAR
STARTCHAR Adiaeresis
ENCODING 196
SWIDTH 741 0
DWIDTH 12 0
BBX 13 15 -1 0
BITMAP
0660
0660
0000
0180
0180
0380
0380
05c0
0dc0
09c0
1fc0
30e0
20e0
60e0
fbf8
ENDCHAR
STARTCHAR Lacute
ENCODING 197
SWIDTH 704 0
DWIDTH 12 0
BBX 12 16 -1 0
BITMAP
0180
0300
0400
0000
3f80
0e00
0e00
0e00
1c00
1c00
1c00
1c10
3830
3820
38e0
ffe0
ENDCHAR
STARTCHAR Cacute
ENCODING 198
SWIDTH 759 0
DWIDTH 13 0
BBX 12 16 1 0
BITMAP
0060
00c0
0100
0000
07d0
1c70
3820
7020
7020
e000
e000
e000
e020
6040
7080
1f00
ENDCHAR
STARTCHAR Ccedilla
ENCODING 199
SWIDTH 759 0
DWIDTH 13 0
BBX 12 15 1 -3
BITMAP
07d0
1c70
3820
7020
7020
e000
e000
e000
e020
6040
7080
1f00
0c00
0600
1c00
ENDCHAR
STARTCHAR Ccaron
ENCODING 200
SWIDTH 759 0
DWIDTH 13 0
BBX 12 16 1 0
BITMAP
0660
03c0
0180
0000
07d0
1c70
3820
7020
7020
e000
e000
e000
e020
6040
7080
1f00
ENDCHAR
STARTCHAR Eacute
ENCODING 201
SWIDTH 741 0
DWIDTH 12 0
BBX 13 16 -1 0
BITMAP
0060
00c0
0100
0000
3ff8
0e18
0e10
0e50
1cc0
1f80
1d80
1c90
3830
3820
3860
ffe0
ENDCHAR
STARTCHAR Eogonek
ENCODING 202
SWIDTH 741 0
DWIDTH 12 0
BBX 13 15 -1 -3
BITMAP
3ff8
0e18
0e10
0e50
1cc0
1f80
1d80
1c90
3830
3820
3860
ffe0
0200
0400
0700
ENDCHAR
STARTCHAR Ediaeresis
ENCODING 203
SWIDTH 741 0
DWIDTH 12 0
BBX 13 15 -1 0
BITMAP
0660
0660
0000
3ff8
0e18
0e10
0e50
1cc0
1f80
1d80
1c90
3830
3820
3860
ffe0
ENDCHAR
STARTCHAR Ecaron
ENCODING 204
SWIDTH 741 0
DWIDTH 12 0
BBX 13 16 -1 0
BITMAP
0660
03c0
0180
0000
3ff8
0e18
0e10
0e50
1cc0
1f80
1d80
1c90
3830
3820
3860
ffe0
ENDCHAR
STARTCHAR Iacute
ENCODING 205
SWIDTH 444 0
DWIDTH 7 0
BBX 9 16 -1 0
BITMAP
0180
0300
0400
0000
3f80
0e00
0e00
0e00
1c00
1c00
1c00
1c00
3800
3800
3800
fe00
ENDCHAR
STARTCHAR Icircumflex
ENCODING 206
SWIDTH 444 0
DWIDTH 7 0
BBX 9 16 -1 0
BITMAP
0600
0f00
1980
0000
3f80
0e00
0e00
0e00
1c00
1c00
1c00
1c00
3800
3800
3800
fe00
ENDCHAR
STARTCHAR Dcaron
ENCODING 207
SWIDTH 833 0
DWIDTH 14 0
BBX 14 16 -1 0
BITMAP
0660
03c0
0180
0000
3fe0
0e38
0e18
0e1c
1c1c
1c1c
1c1c
1c38
3838
3870
38e0
ff80
ENDCHAR
STARTCHAR Dstroke
ENCODING 208
SWIDTH 833 0
DWIDTH 14 0
BBX 14 12 -1 0
BITMAP
3fe0
0e38
0e18
0e1c
1c1c
7f1c
1c1c
1c38
3838
3870
38e0
ff80
ENDCHAR
STARTCHAR Nacute
ENCODING 209
SWIDTH 852 0
DWIDTH 14 0
BBX 16 16 -1 0
BITMAP
0018
0030
0040
0000
3e1f
0f04
0f04
0b8c
1b88
11c8
11d8
10f0
30f0
2070
2060
f820
ENDCHAR
STARTCHAR Ncaron
ENCODING 210
SWIDTH 852 0
DWIDTH 14 0
BBX 16 16 -1 0
BITMAP
0198
00f0
0060
0000
3e1f
0f04
0f04
0b8c
1b88
11c8
11d8
10f0
30f0
2070
2060
f820
ENDCHAR
STARTCHAR Oacute
ENCODING 211
SWIDTH 833 0
DWIDTH 14 0
BBX 13 16 1 0
BITMAP
0060
00c0
0100
0000
07c0
1c70
3830
7038
7038
e038
e038
e070
e070
60e0
71c0
1f00
ENDCHAR
STARTCHAR Ocircumflex
ENCODING 212
SWIDTH 833 0
DWIDTH 14 0
BBX 13 16 1 0
BITMAP
0180
03c0
0660
0000
07c0
1c70
3830
7038
7038
e038
e038
e070
e070
60e0
71c0
1f00
ENDCHAR
STARTCHAR Odoubleacute
ENCODING 213
SWIDTH 833 0
DWIDTH 14 0
BBX 13 16 1 0
BITMAP
00d8
01b0
0240
0000
07c0
1c70
3830
7038
7038
e038
e038
e070
e070
60e0
71c0
1f00
ENDCHAR
STARTCHAR Odiaeresis
ENCODING 214
SWIDTH 833 0
DWIDTH 14 0
BBX 13 15 1 0
BITMAP
0660
0660
0000
07c0
1c70
3830
7038
7038
e038
e038
e070
e070
60e0
71c0
1f00
ENDCHAR
STARTCHAR multiply
ENCODING 215
SWIDTH 606 0
DWIDTH 10 0
BBX 8 8 1 0
BITMAP
42
e7
7e
1c
38
7e
e7
42
ENDCHAR
STARTCHAR Rcaron
ENCODING 216
SWIDTH 796 0
DWIDTH 14 0
BBX 14 16 -1 0
BITMAP
0330
01e0
00c0
0000
3ff8
0e1c
0e1c
0e3c
1c78
1fe0
1c60
1c70
38f0
38f4
38e4
fe78
ENDCHAR
STARTCHAR Uring
ENCODING 217
SWIDTH 833 0
DWIDTH 14 0
BBX 14 17 1 0
BITMAP
0180
0240
0240
0180
0000
fefc
3830
3830
7020
7020
7060
7040
e040
e040
e0c0
7180
3e00
ENDCHAR
STARTCHAR Uacute
ENCODING 218
SWIDTH 833 0
DWIDTH 14 0
BBX 14 16 1 0
BITMAP
0060
00c0
0100
0000
fefc
3830
3830
7020
7020
7060
7040
e040
e040
e0c0
7180
3e00
ENDCHAR
STARTCHAR Udoubleacute
ENCODING 219
SWIDTH 833 0
DWIDTH 14 0
BBX 14 16 1 0
BITMAP
00d8
01b0
0240
0000
fefc
3830
3830
7020
7020
7060
7040
e040
e040
e0c0
7180
3e00
ENDCHAR
STARTCHAR Udiaeresis
ENCODING 220
SWIDTH 833 0
DWIDTH 14 0
BBX 14 15 1 0
BITMAP
0660
0660
0000
fefc
3830
3830
7020
7020
7060
7040
e040
e040
e0c0
7180
3e00
ENDCHAR
STARTCHAR Yacute
ENCODING 221
SWIDTH 704 0
DWIDTH 12 0
BBX 13 16 0 0
BITMAP
0060
00c0
0100
0000
fef8
3830
3860
1cc0
1d80
1f00
0e00
0e00
1c00
1c00
1c00
7f00
ENDCHAR
STARTCHAR Tcedilla
ENCODING 222
SWIDTH 722 0
DWIDTH 12 0
BBX 13 16 0 -4
BITMAP
7ff8
6738
c710
8710
8e10
0e00
0e00
0e00
1c00
1c00
1c00
7f00
0300
0300
0180
0700
ENDCHAR
STARTCHAR ssharp
ENCODING 223
SWIDTH 574 0
DWIDTH 10 0
BBX 10 15 -1 -3
BITMAP
0780
0cc0
0cc0
18c0
1980
1b00
1980
39c0
31c0
31c0
3180
7700
7000
6000
e000
ENDCHAR
STARTCHAR racute
ENCODING 224
SWIDTH 519 0
DWIDTH 9 0
BBX 9 12 0 0
BITMAP
0180
0300
0400
0000
3b80
1d80
3980
3800
3000
7000
6000
e000
ENDCHAR
STARTCHAR aacute
ENCODING 225
SWIDTH 667 0
DWIDTH 11 0
BBX 11 12 0 0
BITMAP
0180
0300
0400
0000
1dc0
7780
6380
e380
c300
c720
ef40
7b80
ENDCHAR
STARTCHAR acircumflex
ENCODING 226
SWIDTH 667 0
DWIDTH 11 0
BBX 11 12 0 0
BITMAP
0600
0f00
1980
0000
1dc0
7780
6380
e380
c300
c720
ef40
7b80
ENDCHAR
STARTCHAR abreve
ENCODING 227
SWIDTH 667 0
DWIDTH 11 0
BBX 10 12 0 0
BITMAP
1100
1100
0e00
0000
1dc0
7780
6380
e380
c300
c700
ef40
7b80
ENDCHAR
STARTCHAR adiaeresis
ENCODING 228
SWIDTH 667 0
DWIDTH 11 0
BBX 11 11 0 0
BITMAP
1b00
1b00
0000
1dc0
7780
6380
e380
c300
c720
ef40
7b80
ENDCHAR
STARTCHAR lacute
ENCODING 229
SWIDTH 389 0
DWIDTH 6 0
BBX 8 16 0 0
BITMAP
03
06
08
00
3c
1c
18
38
30
30
70
70
60
e0
e8
70
ENDCHAR
STARTCHAR cacute
ENCODING 230
SWIDTH 537 0
DWIDTH 9 0
BBX 8 12 1 0
BITMAP
03
06
08
00
1e
73
67
e2
c0
c0
e4
78
ENDCHAR
STARTCHAR ccedilla
ENCODING 231
SWIDTH 537 0
DWIDTH 9 0
BBX 8 11 0 -3
BITMAP
1e
73
67
e2
c0
c2
e4
78
30
18
70
ENDCHAR
STARTCHAR ccaron
ENCODING 232
SWIDTH 537 0
DWIDTH 9 0
BBX 8 12 1 0
BITMAP
33
1e
0c
00
1e
73
67
e2
c0
c0
e4
78
ENDCHAR
STARTCHAR eacute
ENCODING 233
SWIDTH 519 0
DWIDTH 9 0
BBX 8 12 1 0
BITMAP
03
06
08
00
1e
77
63
ce
fc
c0
e2
7c
ENDCHAR
STARTCHAR eogonek
ENCODING 234
SWIDTH 519 0
DWIDTH 9 0
BBX 8 11 1 -3
BITMAP
1e
77
63
ce
fc
c0
e2
7c
10
20
38
ENDCHAR
STARTCHAR ediaeresis
ENCODING 235
SWIDTH 519 0
DWIDTH 9 0
BBX 8 11 1 0
BITMAP
1b
1b
00
1e
77
63
ce
f8
c0
e2
7c
ENDCHAR
STARTCHAR ecaron
ENCODING 236
SWIDTH 519 0
DWIDTH 9 0
BBX 8 12 1 0
BITMAP
33
1e
0c
00
1e
77
63
ce
fc
c0
e2
7c
ENDCHAR
STARTCHAR iacute
ENCODING 237
SWIDTH 389 0
DWIDTH 6 0
BBX 6 12 0 0
BITMAP
0c
18
20
00
78
38
30
70
60
ec
e8
70
ENDCHAR
STARTCHAR icircumflex
ENCODING 238
SWIDTH 389 0
DWIDTH 6 0
BBX 6 12 0 0
BITMAP
30
78
cc
00
78
38
30
70
60
ec
e8
70
ENDCHAR
STARTCHAR dcaron
ENCODING 239
SWIDTH 960 0
DWIDTH 16 0
BBX 16 14 0 0
BITMAP
0006
000f
01e7
00e2
00c4
01c8
1d80
7780
6380
e380
c300
c700
e740
7b80
ENDCHAR
STARTCHAR dstroke
ENCODING 240
SWIDTH 900 0
DWIDTH 15 0
BBX 15 12 0 0
BITMAP
01e0
00e0
1ffe
01c0
1d80
7780
6380
e380
c300
c700
e740
7b80
ENDCHAR
STARTCHAR nacute
ENCODING 241
SWIDTH 685 0
DWIDTH 11 0
BBX 10 12 0 0
BITMAP
0180
0300
0400
0000
7380
35c0
39c0
7180
7380
6300
e740
e380
ENDCHAR
STARTCHAR ncaron
ENCODING 242
SWIDTH 685 0
DWIDTH 11 0
BBX 10 12 0 0
BITMAP
1980
0f00
0600
0000
7380
35c0
39c0
7180
7380
6300
e740
e380
ENDCHAR
STARTCHAR oacute
ENCODING 243
SWIDTH 574 0
DWIDTH 10 0
BBX 9 12 0 0
BITMAP
0300
0600
0800
0000
1e00
7300
6380
e180
c380
e300
6700
3c00
ENDCHAR
STARTCHAR ocircumflex
ENCODING 244
SWIDTH 574 0
DWIDTH 10 0
BBX 9 12 0 0
BITMAP
0c00
1e00
3300
0000
1e00
7300
6380
e180
c380
e300
6700
3c00
ENDCHAR
STARTCHAR odoubleacute
ENCODING 245
SWIDTH 574 0
DWIDTH 10 0
BBX 10 12 0 0
BITMAP
06c0
0d80
1200
0000
1e00
7300
6380
e180
c380
e300
6700
3c00
ENDCHAR
STARTCHAR odiaeresis
ENCODING 246
SWIDTH 574 0
DWIDTH 10 0
BBX 9 11 0 0
BITMAP
3300
3300
0000
1e00
7300
6380
e180
c380
e300
6700
3c00
ENDCHAR
STARTCHAR division
ENCODING 247
SWIDTH 606 0
DWIDTH 10 0
BBX 8 8 1 0
BITMAP
18
18
00
ff
ff
00
18
18
ENDCHAR
STARTCHAR rcaron
ENCODING 248
SWIDTH 519 0
DWIDTH 9 0
BBX 9 12 0 0
BITMAP
1980
0f00
0600
0000
3b80
1d80
3980
3800
3000
7000
6000
e000
ENDCHAR
STARTCHAR uring
ENCODING 249
SWIDTH 685 0
DWIDTH 11 0
BBX 10 13 0 0
BITMAP
0600
0900
0900
0600
0000
79c0
39c0
3180
7380
6300
e700
eb40
7380
ENDCHAR
STARTCHAR uacute
ENCODING 250
SWIDTH 685 0
DWIDTH 11 0
BBX 11 12 0 0
BITMAP
0180
0300
0400
0000
79c0
39c0
3180
7380
6300
e720
eb40
7380
ENDCHAR
STARTCHAR udoubleacute
ENCODING 251
SWIDTH 685 0
DWIDTH 11 0
BBX 11 12 0 0
BITMAP
0360
06c0
0900
0000
79c0
39c0
3180
7380
6300
e700
eb40
7380
ENDCHAR
STARTCHAR udiaeresis
ENCODING 252
SWIDTH 685 0
DWIDTH 11 0
BBX 11 11 0 0
BITMAP
1980
1980
0000
79c0
39c0
3180
7380
6300
e720
eb40
7380
ENDCHAR
STARTCHAR yacute
ENCODING 253
SWIDTH 519 0
DWIDTH 9 0
BBX 9 15 0 -3
BITMAP
0180
0300
0400
0000
3180
7980
b880
1d80
1d00
0e00
0c00
0c00
c800
d000
6000
ENDCHAR
STARTCHAR tcedilla
ENCODING 254
SWIDTH 407 0
DWIDTH 7 0
BBX 6 15 1 -4
BITMAP
18
18
30
fc
70
60
60
e0
c8
d0
e0
30
30
18
70
ENDCHAR
STARTCHAR abovedot
ENCODING 255
SWIDTH 333 0
DWIDTH 5 0
BBX 2 2 2 9
BITMAP
c0
c0
ENDCHAR
ENDFONT
