STARTFONT 2.1
FONT -Adobe-New Century Schoolbook-Medium-R-Normal--25-180-100-100-P-136-ISO8859-2
SIZE 18 100 100
FONTBOUNDINGBOX 31 29 -3 -5
COMMENT $XConsortium: ncenR18.bdf,v 1.7 95/01/26 17:57:15 gildea Exp $
COMMENT 
COMMENT +
COMMENT  Copyright 1984-1989, 1994 Adobe Systems Incorporated.
COMMENT  Copyright 1988, 1994 Digital Equipment Corporation.
COMMENT
COMMENT  Adobe is a trademark of Adobe Systems Incorporated which may be
COMMENT  registered in certain jurisdictions.
COMMENT  Permission to use these trademarks is hereby granted only in
COMMENT  association with the images described in this file.
COMMENT
COMMENT  Permission to use, copy, modify, distribute and sell this software
COMMENT  and its documentation for any purpose and without fee is hereby
COMMENT  granted, provided that the above copyright notices appear in all
COMMENT  copies and that both those copyright notices and this permission
COMMENT  notice appear in supporting documentation, and that the names of
COMMENT  Adobe Systems and Digital Equipment Corporation not be used in
COMMENT  advertising or publicity pertaining to distribution of the software
COMMENT  without specific, written prior permission.  Adobe Systems and
COMMENT  Digital Equipment Corporation make no representations about the
COMMENT  suitability of this software for any purpose.  It is provided "as
COMMENT  is" without express or implied warranty.
COMMENT -
COMMENT  
COMMENT  Translation to ISO8859-2 by Cub Soft;  Petr.Kolar@vslib.cz
COMMENT  
STARTPROPERTIES 28
FOUNDRY "Adobe"
FAMILY_NAME "New Century Schoolbook"
WEIGHT_NAME "Medium"
SLANT "R"
SETWIDTH_NAME "Normal"
ADD_STYLE_NAME ""
PIXEL_SIZE 25
POINT_SIZE 180
RESOLUTION_X 100
RESOLUTION_Y 100
SPACING "P"
AVERAGE_WIDTH 136
CHARSET_REGISTRY "ISO8859"
CHARSET_ENCODING "2"
CAP_HEIGHT 18
X_HEIGHT 12
FONT_ASCENT 21
FONT_DESCENT 5
FACE_NAME "New Century Schoolbook Roman"
COPYRIGHT "Copyright (c) 1984, 1987 Adobe Systems Incorporated. All Rights Reserved. Copyright (c) 1988, 1991 Digital Equipment Corporation. All Rights Reserved., Copyright 1996 Cub Soft"
NOTICE "New Century Schoolbook is a trademark of Linotype-Hell AG and/or its subsidiaries."
_DEC_DEVICE_FONTNAMES "PS=NewCenturySchlbk-Roman"
_DEC_PRODUCTINFO "DECwindows Fonts V2.2, 07-Nov-1991"
DEFAULT_CHAR 32
RELATIVE_SETWIDTH 50
RELATIVE_WEIGHT 50
CHARSET_COLLECTIONS "ASCII ISO8859-2 ADOBE-STANDARD"
FULL_NAME "New Century Schoolbook Roman"
ENDPROPERTIES
CHARS 191
STARTCHAR space
ENCODING 32
SWIDTH 278 0
DWIDTH 7 0
BBX 1 1 0 0
BITMAP
00
ENDCHAR
STARTCHAR exclam
ENCODING 33
SWIDTH 296 0
DWIDTH 7 0
BBX 3 18 2 0
BITMAP
40
e0
e0
e0
e0
e0
e0
e0
e0
e0
e0
40
40
40
00
e0
e0
e0
ENDCHAR
STARTCHAR quotedbl
ENCODING 34
SWIDTH 389 0
DWIDTH 10 0
BBX 6 6 2 12
BITMAP
cc
cc
cc
cc
cc
cc
ENDCHAR
STARTCHAR numbersign
ENCODING 35
SWIDTH 556 0
DWIDTH 15 0
BBX 13 16 1 1
BITMAP
0c60
0c60
0c60
0c60
0c60
7ff8
18c0
18c0
18c0
18c0
fff0
3180
3180
3180
3180
3180
ENDCHAR
STARTCHAR dollar
ENCODING 36
SWIDTH 556 0
DWIDTH 13 0
BBX 11 22 1 -2
BITMAP
0400
0400
1f00
6580
44c0
c4c0
c5c0
c580
e400
fc00
7f00
1fc0
07c0
04e0
6460
e460
c460
c440
64c0
3f00
0400
0400
ENDCHAR
STARTCHAR percent
ENCODING 37
SWIDTH 833 0
DWIDTH 20 0
BBX 18 19 1 -1
BITMAP
1e1800
332800
61d800
611000
c13000
c12000
c26000
c24000
c4c780
788cc0
019840
011840
033040
023040
063080
043080
0c3100
081e00
080000
ENDCHAR
STARTCHAR ampersand
ENCODING 38
SWIDTH 815 0
DWIDTH 20 0
BBX 18 18 1 0
BITMAP
07c000
0ce000
186000
186000
186000
18c000
0d8000
0e0000
1e3f80
671e00
638c00
c1c800
c0e800
c07000
e03840
707c40
7fcf80
1f0700
ENDCHAR
STARTCHAR apostrophe
ENCODING 39
SWIDTH 204 0
DWIDTH 6 0
BBX 4 7 1 11
BITMAP
60
f0
f0
30
20
40
80
ENDCHAR
STARTCHAR parenleft
ENCODING 40
SWIDTH 333 0
DWIDTH 9 0
BBX 7 21 1 -3
BITMAP
02
0c
18
30
30
60
60
c0
c0
c0
c0
c0
c0
c0
60
60
30
30
18
0c
02
ENDCHAR
STARTCHAR parenright
ENCODING 41
SWIDTH 333 0
DWIDTH 8 0
BBX 7 21 0 -3
BITMAP
80
60
30
18
18
0c
0c
06
06
06
06
06
06
06
0c
0c
18
18
30
60
80
ENDCHAR
STARTCHAR asterisk
ENCODING 42
SWIDTH 500 0
DWIDTH 9 0
BBX 7 9 1 9
BITMAP
10
38
92
d6
38
d6
92
38
10
ENDCHAR
STARTCHAR plus
ENCODING 43
SWIDTH 606 0
DWIDTH 14 0
BBX 12 12 1 1
BITMAP
0600
0600
0600
0600
0600
fff0
fff0
0600
0600
0600
0600
0600
ENDCHAR
STARTCHAR comma
ENCODING 44
SWIDTH 278 0
DWIDTH 6 0
BBX 4 7 1 -4
BITMAP
60
f0
f0
30
20
40
80
ENDCHAR
STARTCHAR minus
ENCODING 45
SWIDTH 606 0
DWIDTH 15 0
BBX 12 2 1 6
BITMAP
fff0
fff0
ENDCHAR
STARTCHAR period
ENCODING 46
SWIDTH 278 0
DWIDTH 7 0
BBX 3 3 2 0
BITMAP
e0
e0
e0
ENDCHAR
STARTCHAR slash
ENCODING 47
SWIDTH 278 0
DWIDTH 8 0
BBX 7 18 0 0
BITMAP
06
06
06
0c
0c
0c
18
18
18
30
30
30
60
60
60
c0
c0
c0
ENDCHAR
STARTCHAR zero
ENCODING 48
SWIDTH 556 0
DWIDTH 13 0
BBX 11 18 1 0
BITMAP
0e00
1100
3180
2080
60c0
60c0
e0e0
e0e0
e0e0
e0e0
e0e0
e0e0
60c0
60c0
2080
3180
1100
0e00
ENDCHAR
STARTCHAR one
ENCODING 49
SWIDTH 556 0
DWIDTH 13 0
BBX 8 18 3 0
BITMAP
08
38
f8
18
18
18
18
18
18
18
18
18
18
18
18
18
18
ff
ENDCHAR
STARTCHAR two
ENCODING 50
SWIDTH 556 0
DWIDTH 13 0
BBX 11 18 1 0
BITMAP
1f00
71c0
40c0
e0e0
e0e0
40e0
00c0
01c0
0180
0300
0600
0c00
1800
3020
6020
c060
ffe0
ffe0
ENDCHAR
STARTCHAR three
ENCODING 51
SWIDTH 556 0
DWIDTH 13 0
BBX 11 18 1 0
BITMAP
1f00
6380
c1c0
e1c0
e1c0
4180
0180
0300
1f00
0180
00c0
00e0
40e0
e0e0
e0c0
c1c0
6180
1e00
ENDCHAR
STARTCHAR four
ENCODING 52
SWIDTH 556 0
DWIDTH 13 0
BBX 12 18 0 0
BITMAP
0040
00c0
01c0
03c0
06c0
0cc0
08c0
18c0
30c0
60c0
40c0
c0c0
80c0
fff0
00c0
00c0
00c0
03f0
ENDCHAR
STARTCHAR five
ENCODING 53
SWIDTH 556 0
DWIDTH 13 0
BBX 11 18 1 0
BITMAP
7fc0
7f80
4000
4000
4000
4000
4000
5f00
6380
00c0
00c0
00e0
60e0
e0e0
e0c0
40c0
6180
1f00
ENDCHAR
STARTCHAR six
ENCODING 54
SWIDTH 556 0
DWIDTH 13 0
BBX 11 18 1 0
BITMAP
0f80
38e0
20e0
6060
6000
6000
e000
ef00
f180
e0c0
e0c0
e0e0
e0e0
60e0
60c0
60c0
3180
1f00
ENDCHAR
STARTCHAR seven
ENCODING 55
SWIDTH 556 0
DWIDTH 13 0
BBX 10 18 2 0
BITMAP
ffc0
ffc0
8080
8180
0100
0300
0300
0200
0600
0600
0400
0c00
0c00
0c00
1c00
1c00
1c00
0800
ENDCHAR
STARTCHAR eight
ENCODING 56
SWIDTH 556 0
DWIDTH 13 0
BBX 11 18 1 0
BITMAP
1f00
3180
2080
60c0
60c0
70c0
3980
3f00
1f00
3780
61c0
c0e0
c060
c060
c060
60c0
71c0
1f00
ENDCHAR
STARTCHAR nine
ENCODING 57
SWIDTH 556 0
DWIDTH 13 0
BBX 11 18 1 0
BITMAP
1f00
3180
70c0
60c0
e0e0
e0e0
e0e0
60e0
70e0
31e0
1ee0
00e0
00c0
00c0
c1c0
e180
e380
3e00
ENDCHAR
STARTCHAR colon
ENCODING 58
SWIDTH 278 0
DWIDTH 7 0
BBX 3 12 2 0
BITMAP
e0
e0
e0
00
00
00
00
00
00
e0
e0
e0
ENDCHAR
STARTCHAR semicolon
ENCODING 59
SWIDTH 278 0
DWIDTH 7 0
BBX 4 16 2 -4
BITMAP
e0
e0
e0
00
00
00
00
00
00
60
f0
f0
30
20
40
80
ENDCHAR
STARTCHAR less
ENCODING 60
SWIDTH 606 0
DWIDTH 14 0
BBX 12 12 1 1
BITMAP
0030
00f0
03c0
0f00
3c00
f000
f000
3c00
0f00
03c0
00f0
0030
ENDCHAR
STARTCHAR equal
ENCODING 61
SWIDTH 606 0
DWIDTH 15 0
BBX 12 6 1 4
BITMAP
fff0
fff0
0000
0000
fff0
fff0
ENDCHAR
STARTCHAR greater
ENCODING 62
SWIDTH 606 0
DWIDTH 14 0
BBX 12 12 1 1
BITMAP
c000
f000
3c00
0f00
03c0
00f0
00f0
03c0
0f00
3c00
f000
c000
ENDCHAR
STARTCHAR question
ENCODING 63
SWIDTH 444 0
DWIDTH 12 0
BBX 10 18 1 0
BITMAP
1e00
6380
c1c0
e1c0
e1c0
01c0
0380
0700
0e00
0c00
1800
1000
1000
0000
0000
3800
3800
3800
ENDCHAR
STARTCHAR at
ENCODING 64
SWIDTH 737 0
DWIDTH 19 0
BBX 17 18 1 0
BITMAP
01f800
060600
180300
100180
60d880
633880
c61880
c61880
cc1880
cc3100
cc3100
cc7200
c4b400
c33800
600100
600200
180c00
1ff800
ENDCHAR
STARTCHAR A
ENCODING 65
SWIDTH 722 0
DWIDTH 19 0
BBX 19 18 0 0
BITMAP
004000
006000
00e000
00f000
013000
013800
021800
021c00
040c00
040c00
080e00
0ffe00
100600
100700
200300
200380
600380
f80fe0
ENDCHAR
STARTCHAR B
ENCODING 66
SWIDTH 722 0
DWIDTH 18 0
BBX 14 18 2 0
BITMAP
ffc0
3070
3030
3038
3038
3038
3030
3060
3ff0
3038
3018
301c
301c
301c
301c
3018
3038
ffe0
ENDCHAR
STARTCHAR C
ENCODING 67
SWIDTH 722 0
DWIDTH 17 0
BBX 15 18 1 0
BITMAP
07f2
1c1e
3806
3002
7002
6002
e000
e000
e000
e000
e000
e000
6002
7002
3006
3804
1c1c
07f0
ENDCHAR
STARTCHAR D
ENCODING 68
SWIDTH 778 0
DWIDTH 20 0
BBX 16 18 2 0
BITMAP
ffe0
3038
300c
300c
3006
3006
3007
3007
3007
3007
3007
3007
3006
3006
300c
300c
3038
ffe0
ENDCHAR
STARTCHAR E
ENCODING 69
SWIDTH 722 0
DWIDTH 16 0
BBX 13 18 1 0
BITMAP
fff8
3038
3018
3008
3008
3088
3080
3180
3f80
3180
3080
3080
3008
3008
3008
3018
3038
fff8
ENDCHAR
STARTCHAR F
ENCODING 70
SWIDTH 667 0
DWIDTH 16 0
BBX 13 18 1 0
BITMAP
fff8
3038
3018
3008
3008
3088
3080
3180
3f80
3180
3080
3080
3000
3000
3000
3000
3000
fc00
ENDCHAR
STARTCHAR G
ENCODING 71
SWIDTH 778 0
DWIDTH 18 0
BBX 17 18 1 0
BITMAP
07fa00
1c1e00
300600
300600
700200
600200
e00000
e00000
e00000
e00000
e03f80
e00600
600600
700600
300600
300e00
1c1e00
07f200
ENDCHAR
STARTCHAR H
ENCODING 72
SWIDTH 833 0
DWIDTH 21 0
BBX 17 18 2 0
BITMAP
fc1f80
300600
300600
300600
300600
300600
300600
300600
3ffe00
300600
300600
300600
300600
300600
300600
300600
300600
fc1f80
ENDCHAR
STARTCHAR I
ENCODING 73
SWIDTH 407 0
DWIDTH 9 0
BBX 6 18 2 0
BITMAP
fc
30
30
30
30
30
30
30
30
30
30
30
30
30
30
30
30
fc
ENDCHAR
STARTCHAR J
ENCODING 74
SWIDTH 556 0
DWIDTH 14 0
BBX 11 18 1 0
BITMAP
07e0
0180
0180
0180
0180
0180
0180
0180
0180
0180
0180
6180
f180
e180
c180
c180
6300
3e00
ENDCHAR
STARTCHAR K
ENCODING 75
SWIDTH 778 0
DWIDTH 20 0
BBX 18 18 2 0
BITMAP
fc7f00
301c00
301800
303000
306000
30c000
318000
330000
370000
3f8000
39c000
30e000
307000
303800
301c00
300e00
300700
fc1fc0
ENDCHAR
STARTCHAR L
ENCODING 76
SWIDTH 667 0
DWIDTH 16 0
BBX 13 18 2 0
BITMAP
fe00
3000
3000
3000
3000
3000
3000
3000
3000
3000
3000
3000
3008
3008
3008
3018
3038
fff8
ENDCHAR
STARTCHAR M
ENCODING 77
SWIDTH 944 0
DWIDTH 23 0
BBX 20 18 1 0
BITMAP
fc01f0
3c01c0
1e03c0
1602c0
1702c0
1302c0
1304c0
1384c0
1184c0
1188c0
11c8c0
10c8c0
10d0c0
10f0c0
1070c0
1060c0
3860c0
fe23f0
ENDCHAR
STARTCHAR N
ENCODING 78
SWIDTH 815 0
DWIDTH 21 0
BBX 19 18 1 0
BITMAP
f80fe0
3c0380
1c0100
1e0100
170100
138100
118100
10c100
10e100
106100
103100
103900
101d00
100f00
100700
100700
380300
fe0100
ENDCHAR
STARTCHAR O
ENCODING 79
SWIDTH 778 0
DWIDTH 19 0
BBX 17 18 1 0
BITMAP
07f000
1c1c00
300600
300600
700700
600300
e00380
e00380
e00380
e00380
e00380
e00380
600300
700700
300600
300600
1c1c00
07f000
ENDCHAR
STARTCHAR P
ENCODING 80
SWIDTH 667 0
DWIDTH 16 0
BBX 13 18 2 0
BITMAP
ffc0
3070
3030
3038
3038
3038
3038
3030
3070
3fc0
3000
3000
3000
3000
3000
3000
3000
fc00
ENDCHAR
STARTCHAR Q
ENCODING 81
SWIDTH 778 0
DWIDTH 19 0
BBX 17 22 1 -4
BITMAP
07f000
1c1c00
300600
300600
700700
600300
e00380
e00380
e00380
e00380
e00380
e3c380
646300
682700
383600
381600
1c1c00
07f800
001880
000c80
000f00
000600
ENDCHAR
STARTCHAR R
ENCODING 82
SWIDTH 722 0
DWIDTH 18 0
BBX 15 18 2 0
BITMAP
ffc0
3070
3030
3038
3038
3038
3030
3060
3f80
31c0
30e0
3060
3070
3070
3032
3032
303c
fc1c
ENDCHAR
STARTCHAR S
ENCODING 83
SWIDTH 630 0
DWIDTH 15 0
BBX 13 18 1 0
BITMAP
1f90
70f0
4030
c030
c010
e010
7800
3e00
0f80
03e0
00f0
0038
8018
8018
c018
c030
f070
9fc0
ENDCHAR
STARTCHAR T
ENCODING 84
SWIDTH 667 0
DWIDTH 17 0
BBX 14 18 1 0
BITMAP
fffc
e31c
c30c
8304
8304
8304
0300
0300
0300
0300
0300
0300
0300
0300
0300
0300
0300
1fe0
ENDCHAR
STARTCHAR U
ENCODING 85
SWIDTH 815 0
DWIDTH 19 0
BBX 16 18 2 0
BITMAP
fc1f
300e
3004
3004
3004
3004
3004
3004
3004
3004
3004
3004
3004
3004
380c
1808
1e38
07e0
ENDCHAR
STARTCHAR V
ENCODING 86
SWIDTH 722 0
DWIDTH 18 0
BBX 18 18 0 0
BITMAP
fe07c0
380100
180100
1c0200
1c0200
0c0200
0e0400
060400
070800
070800
030800
039000
019000
01a000
01e000
00e000
00c000
004000
ENDCHAR
STARTCHAR W
ENCODING 87
SWIDTH 981 0
DWIDTH 25 0
BBX 25 18 0 0
BITMAP
fe3f8f80
380e0200
380e0200
180e0200
18160400
1c170400
0c130400
0c130400
0e238800
06218800
06218800
0741d000
0340d000
03c0f000
0380f000
01806000
01806000
00802000
ENDCHAR
STARTCHAR X
ENCODING 88
SWIDTH 704 0
DWIDTH 19 0
BBX 19 18 0 0
BITMAP
7f8f80
1e0600
0e0400
070800
071000
039000
01a000
01c000
00e000
00e000
017000
013800
021c00
041c00
040e00
080700
180780
fc1fe0
ENDCHAR
STARTCHAR Y
ENCODING 89
SWIDTH 704 0
DWIDTH 17 0
BBX 16 18 0 0
BITMAP
fc3f
380c
1808
1c18
0c10
0e30
0620
0760
0340
03c0
0180
0180
0180
0180
0180
0180
0180
07e0
ENDCHAR
STARTCHAR Z
ENCODING 90
SWIDTH 611 0
DWIDTH 16 0
BBX 14 18 1 0
BITMAP
7ffc
7018
6038
4030
4060
00e0
00c0
0180
0380
0300
0600
0e00
1c00
1804
3004
700c
601c
fffc
ENDCHAR
STARTCHAR bracketleft
ENCODING 91
SWIDTH 333 0
DWIDTH 7 0
BBX 5 21 2 -3
BITMAP
f8
c0
c0
c0
c0
c0
c0
c0
c0
c0
c0
c0
c0
c0
c0
c0
c0
c0
c0
c0
f8
ENDCHAR
STARTCHAR backslash
ENCODING 92
SWIDTH 606 0
DWIDTH 11 0
BBX 10 18 0 0
BITMAP
c000
c000
6000
6000
3000
3000
1800
1800
0c00
0c00
0600
0600
0300
0300
0180
0180
00c0
00c0
ENDCHAR
STARTCHAR bracketright
ENCODING 93
SWIDTH 333 0
DWIDTH 7 0
BBX 5 21 0 -3
BITMAP
f8
18
18
18
18
18
18
18
18
18
18
18
18
18
18
18
18
18
18
18
f8
ENDCHAR
STARTCHAR asciicircum
ENCODING 94
SWIDTH 606 0
DWIDTH 12 0
BBX 10 10 1 8
BITMAP
0c00
0c00
1e00
1e00
3300
3300
6180
6180
c0c0
c0c0
ENDCHAR
STARTCHAR underscore
ENCODING 95
SWIDTH 500 0
DWIDTH 12 0
BBX 12 2 0 -3
BITMAP
fff0
fff0
ENDCHAR
STARTCHAR grave
ENCODING 96
SWIDTH 333 0
DWIDTH 8 0
BBX 5 4 1 14
BITMAP
c0
e0
30
08
ENDCHAR
STARTCHAR a
ENCODING 97
SWIDTH 556 0
DWIDTH 13 0
BBX 12 12 1 0
BITMAP
1f00
7180
70c0
60c0
00c0
07c0
38c0
60c0
c0c0
c0c0
e1f0
7e60
ENDCHAR
STARTCHAR b
ENCODING 98
SWIDTH 556 0
DWIDTH 14 0
BBX 13 18 0 0
BITMAP
f000
3000
3000
3000
3000
3000
37c0
3c70
3830
3038
3018
3018
3018
3018
3038
3830
3c70
27c0
ENDCHAR
STARTCHAR c
ENCODING 99
SWIDTH 444 0
DWIDTH 12 0
BBX 10 12 1 0
BITMAP
1f00
71c0
61c0
e0c0
c000
c000
c000
c000
e000
6040
70c0
1f80
ENDCHAR
STARTCHAR d
ENCODING 100
SWIDTH 574 0
DWIDTH 14 0
BBX 13 18 1 0
BITMAP
01e0
0060
0060
0060
0060
0060
1e60
71e0
60e0
e060
c060
c060
c060
c060
e060
60e0
71e0
1f78
ENDCHAR
STARTCHAR e
ENCODING 101
SWIDTH 500 0
DWIDTH 13 0
BBX 11 12 1 0
BITMAP
1f00
71c0
60c0
e0e0
c060
ffe0
c000
c000
e000
6040
70c0
1f80
ENDCHAR
STARTCHAR f
ENCODING 102
SWIDTH 333 0
DWIDTH 8 0
BBX 9 18 1 0
BITMAP
0f00
1980
3180
3000
3000
3000
fc00
3000
3000
3000
3000
3000
3000
3000
3000
3000
3000
fc00
ENDCHAR
STARTCHAR g
ENCODING 103
SWIDTH 537 0
DWIDTH 12 0
BBX 13 17 0 -5
BITMAP
1f38
31d8
60c0
60c0
60c0
60c0
3180
1f00
3000
6000
3f00
1fc0
60e0
c060
c060
e0c0
7f80
ENDCHAR
STARTCHAR h
ENCODING 104
SWIDTH 611 0
DWIDTH 14 0
BBX 14 18 0 0
BITMAP
f000
3000
3000
3000
3000
3000
31c0
37e0
3870
3030
3030
3030
3030
3030
3030
3030
3030
fcfc
ENDCHAR
STARTCHAR i
ENCODING 105
SWIDTH 315 0
DWIDTH 8 0
BBX 6 18 1 0
BITMAP
30
30
30
00
00
00
f0
30
30
30
30
30
30
30
30
30
30
fc
ENDCHAR
STARTCHAR j
ENCODING 106
SWIDTH 296 0
DWIDTH 8 0
BBX 7 23 -2 -5
BITMAP
06
06
06
00
00
00
1e
06
06
06
06
06
06
06
06
06
06
06
06
06
c6
cc
78
ENDCHAR
STARTCHAR k
ENCODING 107
SWIDTH 593 0
DWIDTH 15 0
BBX 14 18 1 0
BITMAP
f000
3000
3000
3000
3000
3000
33f0
30c0
3180
3300
3600
3e00
3700
3380
31c0
30e0
3070
fcfc
ENDCHAR
STARTCHAR l
ENCODING 108
SWIDTH 315 0
DWIDTH 8 0
BBX 6 18 1 0
BITMAP
f0
30
30
30
30
30
30
30
30
30
30
30
30
30
30
30
30
fc
ENDCHAR
STARTCHAR m
ENCODING 109
SWIDTH 889 0
DWIDTH 22 0
BBX 22 12 0 0
BITMAP
f1c1c0
37e7e0
387870
303030
303030
303030
303030
303030
303030
303030
303030
fcfcfc
ENDCHAR
STARTCHAR n
ENCODING 110
SWIDTH 611 0
DWIDTH 14 0
BBX 14 12 0 0
BITMAP
f1c0
37e0
3870
3030
3030
3030
3030
3030
3030
3030
3030
fcfc
ENDCHAR
STARTCHAR o
ENCODING 111
SWIDTH 500 0
DWIDTH 13 0
BBX 11 12 1 0
BITMAP
1f00
71c0
60c0
e0e0
c060
c060
c060
c060
e0e0
60c0
71c0
1f00
ENDCHAR
STARTCHAR p
ENCODING 112
SWIDTH 574 0
DWIDTH 14 0
BBX 13 17 0 -5
BITMAP
f7c0
3c70
3830
3038
3018
3018
3018
3018
3038
3830
3c70
37c0
3000
3000
3000
3000
fc00
ENDCHAR
STARTCHAR q
ENCODING 113
SWIDTH 556 0
DWIDTH 14 0
BBX 13 17 1 -5
BITMAP
1e20
71e0
60e0
e060
c060
c060
c060
c060
e060
60e0
71e0
1f60
0060
0060
0060
0060
01f8
ENDCHAR
STARTCHAR r
ENCODING 114
SWIDTH 444 0
DWIDTH 10 0
BBX 10 12 0 0
BITMAP
f380
35c0
38c0
3000
3000
3000
3000
3000
3000
3000
3000
fc00
ENDCHAR
STARTCHAR s
ENCODING 115
SWIDTH 463 0
DWIDTH 11 0
BBX 9 12 1 0
BITMAP
3d00
6700
c300
c100
e000
7c00
1f00
0380
8180
c180
e300
be00
ENDCHAR
STARTCHAR t
ENCODING 116
SWIDTH 389 0
DWIDTH 10 0
BBX 8 16 1 0
BITMAP
10
10
30
70
ff
30
30
30
30
30
30
30
31
31
39
1e
ENDCHAR
STARTCHAR u
ENCODING 117
SWIDTH 611 0
DWIDTH 14 0
BBX 14 12 0 0
BITMAP
f0f0
3030
3030
3030
3030
3030
3030
3030
3030
3870
1fb0
0e3c
ENDCHAR
STARTCHAR v
ENCODING 118
SWIDTH 537 0
DWIDTH 13 0
BBX 15 12 -1 0
BITMAP
fc7e
3018
3010
3830
1820
1c60
0c40
0ec0
0680
0780
0300
0300
ENDCHAR
STARTCHAR w
ENCODING 119
SWIDTH 778 0
DWIDTH 17 0
BBX 19 12 -1 0
BITMAP
fcf3e0
306080
306080
307080
38b100
18b100
18b100
1d3a00
0d1a00
0d1a00
0e1c00
060c00
ENDCHAR
STARTCHAR x
ENCODING 120
SWIDTH 537 0
DWIDTH 12 0
BBX 13 12 0 0
BITMAP
f8f0
7060
38c0
1980
0f00
0700
0700
0d80
18c0
30e0
6070
f0f8
ENDCHAR
STARTCHAR y
ENCODING 121
SWIDTH 537 0
DWIDTH 12 0
BBX 13 17 -1 -5
BITMAP
7838
3010
3820
1820
1860
1c40
0cc0
0e80
0680
0780
0300
0300
0200
0200
c400
ec00
7800
ENDCHAR
STARTCHAR z
ENCODING 122
SWIDTH 481 0
DWIDTH 11 0
BBX 9 12 1 0
BITMAP
ff80
c380
8700
8600
0c00
1c00
1800
3000
7080
e080
c180
ff80
ENDCHAR
STARTCHAR braceleft
ENCODING 123
SWIDTH 333 0
DWIDTH 8 0
BBX 6 21 1 -3
BITMAP
0c
10
30
30
30
30
30
30
30
20
c0
20
30
30
30
30
30
30
30
10
0c
ENDCHAR
STARTCHAR bar
ENCODING 124
SWIDTH 606 0
DWIDTH 15 0
BBX 2 18 6 0
BITMAP
c0
c0
c0
c0
c0
c0
c0
c0
c0
c0
c0
c0
c0
c0
c0
c0
c0
c0
ENDCHAR
STARTCHAR braceright
ENCODING 125
SWIDTH 333 0
DWIDTH 7 0
BBX 6 21 1 -3
BITMAP
c0
20
30
30
30
30
30
30
30
10
0c
10
30
30
30
30
30
30
30
20
c0
ENDCHAR
STARTCHAR asciitilde
ENCODING 126
SWIDTH 606 0
DWIDTH 14 0
BBX 12 4 1 6
BITMAP
3c30
7e70
e7e0
c3c0
ENDCHAR
STARTCHAR nobreakspace
ENCODING 160
SWIDTH 278 0
DWIDTH 7 0
BBX 1 1 0 0
BITMAP
00
ENDCHAR
STARTCHAR Aogonek
ENCODING 161
SWIDTH 722 0
DWIDTH 19 0
BBX 19 22 0 -4
BITMAP
004000
006000
00e000
00f000
013000
013800
021800
021c00
040c00
040c00
080e00
0ffe00
100600
100700
200300
200380
600380
f80fe0
006000
00c000
00d000
006000
ENDCHAR
STARTCHAR breve
ENCODING 162
SWIDTH 333 0
DWIDTH 8 0
BBX 6 3 1 14
BITMAP
84
cc
78
ENDCHAR
STARTCHAR Lstroke
ENCODING 163
SWIDTH 667 0
DWIDTH 16 0
BBX 14 18 1 0
BITMAP
ff00
3800
3800
3800
3800
3800
3a00
3e00
3c00
3800
7800
f800
b804
3804
3804
380c
381c
fffc
ENDCHAR
STARTCHAR currency
ENCODING 164
SWIDTH 606 0
DWIDTH 15 0
BBX 13 12 1 4
BITMAP
4710
fff8
7070
2020
6030
6030
6030
6030
2020
7070
fff8
4710
ENDCHAR
STARTCHAR Lcaron
ENCODING 165
SWIDTH 667 0
DWIDTH 16 0
BBX 13 20 2 0
BITMAP
0060
00f0
fef0
3030
3020
3040
3080
3000
3000
3000
3000
3000
3000
3000
3008
3008
3008
3018
3038
fff8
ENDCHAR
STARTCHAR Sacute
ENCODING 166
SWIDTH 630 0
DWIDTH 15 0
BBX 13 23 1 0
BITMAP
0060
00e0
0180
0200
0000
1f90
70f0
4030
c030
c010
e010
7800
3e00
0f80
03e0
00f0
0038
8018
8018
c018
c030
f070
9fc0
ENDCHAR
STARTCHAR section
ENCODING 167
SWIDTH 500 0
DWIDTH 12 0
BBX 10 22 1 -4
BITMAP
1f00
2380
6180
6180
7800
3c00
1f00
2f80
43c0
c1c0
c0c0
e0c0
f0c0
7c80
3f00
0f00
0380
0180
6180
6180
7100
3e00
ENDCHAR
STARTCHAR diaeresis
ENCODING 168
SWIDTH 333 0
DWIDTH 8 0
BBX 6 2 1 15
BITMAP
cc
cc
ENDCHAR
STARTCHAR Scaron
ENCODING 169
SWIDTH 630 0
DWIDTH 15 0
BBX 13 23 1 0
BITMAP
1020
0cc0
0780
0300
0000
1f90
70f0
4030
c030
c010
e010
7800
3e00
0f80
03e0
00f0
0038
8018
8018
c018
c030
f070
9fc0
ENDCHAR
STARTCHAR Scedilla
ENCODING 170
SWIDTH 630 0
DWIDTH 15 0
BBX 13 22 1 -4
BITMAP
1f90
70f0
4030
c030
c010
e010
7800
3e00
0f80
03e0
00f0
0038
8018
8018
c018
c030
f070
9fc0
0200
0380
0080
0700
ENDCHAR
STARTCHAR Tcaron
ENCODING 171
SWIDTH 667 0
DWIDTH 17 0
BBX 14 23 1 0
BITMAP
1020
0cc0
0780
0300
0000
fffc
e31c
c30c
8304
8304
8304
0300
0300
0300
0300
0300
0300
0300
0300
0300
0300
0300
1fe0
ENDCHAR
STARTCHAR Zacute
ENCODING 172
SWIDTH 611 0
DWIDTH 16 0
BBX 14 23 1 0
BITMAP
0030
0070
00c0
0100
0000
7ffc
7018
6038
4030
4060
00e0
00c0
0180
0380
0300
0600
0e00
1c00
1804
3004
700c
601c
fffc
ENDCHAR
STARTCHAR hyphen
ENCODING 173
SWIDTH 333 0
DWIDTH 8 0
BBX 6 2 1 6
BITMAP
fc
fc
ENDCHAR
STARTCHAR Zcaron
ENCODING 174
SWIDTH 611 0
DWIDTH 16 0
BBX 14 23 1 0
BITMAP
0810
0660
03c0
0180
0000
7ffc
7018
6038
4030
4060
00e0
00c0
0180
0380
0300
0600
0e00
1c00
1804
3004
700c
601c
fffc
ENDCHAR
STARTCHAR Zabovedot
ENCODING 175
SWIDTH 611 0
DWIDTH 16 0
BBX 14 21 1 0
BITMAP
0180
0180
0000
7ffc
7018
6038
4030
4060
00e0
00c0
0180
0380
0300
0600
0e00
1c00
1804
3004
700c
601c
fffc
ENDCHAR
STARTCHAR degree
ENCODING 176
SWIDTH 400 0
DWIDTH 9 0
BBX 8 7 0 11
BITMAP
3c
66
c3
c3
c3
66
3c
ENDCHAR
STARTCHAR aogonek
ENCODING 177
SWIDTH 556 0
DWIDTH 13 0
BBX 12 16 1 -4
BITMAP
1f00
7180
70c0
60c0
00c0
07c0
38c0
60c0
c0c0
c0c0
e1f0
7e60
0600
0c00
0d00
0600
ENDCHAR
STARTCHAR ogonek
ENCODING 178
SWIDTH 333 0
DWIDTH 8 0
BBX 4 4 2 -4
BITMAP
60
c0
d0
60
ENDCHAR
STARTCHAR lstroke
ENCODING 179
SWIDTH 315 0
DWIDTH 8 0
BBX 6 18 1 0
BITMAP
f0
30
30
30
30
34
38
30
70
b0
30
30
30
30
30
30
30
fc
ENDCHAR
STARTCHAR acute
ENCODING 180
SWIDTH 333 0
DWIDTH 8 0
BBX 5 4 2 15
BITMAP
18
38
60
80
ENDCHAR
STARTCHAR lcaron
ENCODING 181
SWIDTH 440 0
DWIDTH 11 0
BBX 9 20 1 0
BITMAP
0300
0780
f780
3180
3100
3200
3400
3000
3000
3000
3000
3000
3000
3000
3000
3000
3000
3000
3000
fc00
ENDCHAR
STARTCHAR sacute
ENCODING 182
SWIDTH 463 0
DWIDTH 11 0
BBX 9 17 1 0
BITMAP
0180
0380
0600
0800
0000
3d00
6700
c300
c100
e000
7c00
1f00
0380
8180
c180
e300
be00
ENDCHAR
STARTCHAR caron
ENCODING 183
SWIDTH 333 0
DWIDTH 8 0
BBX 8 4 0 14
BITMAP
81
66
3c
18
ENDCHAR
STARTCHAR cedilla
ENCODING 184
SWIDTH 333 0
DWIDTH 7 0
BBX 4 4 1 -4
BITMAP
40
70
10
e0
ENDCHAR
STARTCHAR scaron
ENCODING 185
SWIDTH 463 0
DWIDTH 11 0
BBX 9 17 1 0
BITMAP
4080
3300
1e00
0c00
0000
3d00
6700
c300
c100
e000
7c00
1f00
0380
8180
c180
e300
be00
ENDCHAR
STARTCHAR scedilla
ENCODING 186
SWIDTH 463 0
DWIDTH 11 0
BBX 9 16 1 -4
BITMAP
3d00
6700
c300
c100
e000
7c00
1f00
0380
8180
c180
e300
be00
0800
0e00
0200
1c00
ENDCHAR
STARTCHAR tcaron
ENCODING 187
SWIDTH 440 0
DWIDTH 11 0
BBX 9 20 1 0
BITMAP
0300
0780
0780
0180
1100
1200
3400
7000
ff00
3000
3000
3000
3000
3000
3000
3000
3100
3100
3900
1e00
ENDCHAR
STARTCHAR zacute
ENCODING 188
SWIDTH 481 0
DWIDTH 11 0
BBX 9 17 1 0
BITMAP
0180
0380
0600
0800
0000
ff80
c380
8700
8600
0c00
1c00
1800
3000
7080
e080
c180
ff80
ENDCHAR
STARTCHAR doubleacute
ENCODING 189
SWIDTH 333 0
DWIDTH 12 0
BBX 10 4 1 14
BITMAP
18c0
39c0
6300
8400
ENDCHAR
STARTCHAR zcaron
ENCODING 190
SWIDTH 481 0
DWIDTH 11 0
BBX 9 17 1 0
BITMAP
4080
3300
1e00
0c00
0000
ff80
c380
8700
8600
0c00
1c00
1800
3000
7080
e080
c180
ff80
ENDCHAR
STARTCHAR zabovedot
ENCODING 191
SWIDTH 481 0
DWIDTH 11 0
BBX 9 15 1 0
BITMAP
0c00
0c00
0000
ff80
c380
8700
8600
0c00
1c00
1800
3000
7080
e080
c180
ff80
ENDCHAR
STARTCHAR Racute
ENCODING 192
SWIDTH 722 0
DWIDTH 18 0
BBX 15 23 2 0
BITMAP
00c0
01c0
0300
0400
0000
ffc0
3070
3030
3038
3038
3038
3030
3060
3f80
31c0
30e0
3060
3070
3070
3032
3032
303c
fc1c
ENDCHAR
STARTCHAR Aacute
ENCODING 193
SWIDTH 722 0
DWIDTH 19 0
BBX 19 23 0 0
BITMAP
001800
003800
006000
008000
000000
004000
006000
00e000
00f000
013000
013800
021800
021c00
040c00
040c00
080e00
0ffe00
100600
100700
200300
200380
600380
f80fe0
ENDCHAR
STARTCHAR Acircumflex
ENCODING 194
SWIDTH 722 0
DWIDTH 19 0
BBX 19 23 0 0
BITMAP
006000
00f000
019800
020400
000000
004000
006000
00e000
00f000
013000
013800
021800
021c00
040c00
040c00
080e00
0ffe00
100600
100700
200300
200380
600380
f80fe0
ENDCHAR
STARTCHAR Abreve
ENCODING 195
SWIDTH 722 0
DWIDTH 19 0
BBX 19 22 0 0
BITMAP
010800
019800
00f000
000000
004000
006000
00e000
00f000
013000
013800
021800
021c00
040c00
040c00
080e00
0ffe00
100600
100700
200300
200380
600380
f80fe0
ENDCHAR
STARTCHAR Adiaeresis
ENCODING 196
SWIDTH 722 0
DWIDTH 19 0
BBX 19 22 0 0
BITMAP
031800
031800
000000
000000
004000
006000
00e000
00f000
013000
013800
021800
021c00
040c00
040c00
080e00
0ffe00
100600
100700
200300
200380
600380
f80fe0
ENDCHAR
STARTCHAR Lacute
ENCODING 197
SWIDTH 667 0
DWIDTH 16 0
BBX 13 23 2 0
BITMAP
0300
0700
0c00
1000
0000
fe00
3000
3000
3000
3000
3000
3000
3000
3000
3000
3000
3000
3008
3008
3008
3018
3038
fff8
ENDCHAR
STARTCHAR Cacute
ENCODING 198
SWIDTH 722 0
DWIDTH 17 0
BBX 15 23 1 0
BITMAP
0018
0038
0060
0080
0000
07f2
1c1e
3806
3002
7002
6002
e000
e000
e000
e000
e000
e000
6002
7002
3006
3804
1c1c
07f0
ENDCHAR
STARTCHAR Ccedilla
ENCODING 199
SWIDTH 722 0
DWIDTH 17 0
BBX 15 23 1 -5
BITMAP
07f2
1c1e
3806
3002
7002
6002
e000
e000
e000
e000
e000
e000
6002
7002
3006
3804
1c1c
07f0
03e0
0100
01c0
0040
0380
ENDCHAR
STARTCHAR Ccaron
ENCODING 200
SWIDTH 722 0
DWIDTH 17 0
BBX 15 23 1 0
BITMAP
0408
0330
01e0
00c0
0000
07f2
1c1e
3806
3002
7002
6002
e000
e000
e000
e000
e000
e000
6002
7002
3006
3804
1c1c
07f0
ENDCHAR
STARTCHAR Eacute
ENCODING 201
SWIDTH 722 0
DWIDTH 16 0
BBX 13 23 1 0
BITMAP
0060
00e0
0180
0200
0000
fff8
3038
3018
3008
3008
3088
3080
3180
3f80
3180
3080
3080
3008
3008
3008
3018
3038
fff8
ENDCHAR
STARTCHAR Eogonek
ENCODING 202
SWIDTH 722 0
DWIDTH 16 0
BBX 13 22 1 -4
BITMAP
fff8
3038
3018
3008
3008
3088
3080
3180
3f80
3180
3080
3080
3008
3008
3008
3018
3038
fff8
0300
0600
0680
0300
ENDCHAR
STARTCHAR Ediaeresis
ENCODING 203
SWIDTH 722 0
DWIDTH 16 0
BBX 13 22 1 0
BITMAP
0c60
0c60
0000
0000
fff8
3038
3018
3008
3008
3088
3080
3180
3f80
3180
3080
3080
3008
3008
3008
3018
3038
fff8
ENDCHAR
STARTCHAR Ecaron
ENCODING 204
SWIDTH 722 0
DWIDTH 16 0
BBX 13 23 1 0
BITMAP
1020
0cc0
0780
0300
0000
fff8
3038
3018
3008
3008
3088
3080
3180
3f80
3180
3080
3080
3008
3008
3008
3018
3038
fff8
ENDCHAR
STARTCHAR Iacute
ENCODING 205
SWIDTH 407 0
DWIDTH 9 0
BBX 7 23 2 0
BITMAP
06
0e
18
20
00
fc
30
30
30
30
30
30
30
30
30
30
30
30
30
30
30
30
fc
ENDCHAR
STARTCHAR Icircumflex
ENCODING 206
SWIDTH 407 0
DWIDTH 9 0
BBX 8 23 1 0
BITMAP
18
3c
66
81
00
7e
18
18
18
18
18
18
18
18
18
18
18
18
18
18
18
18
7e
ENDCHAR
STARTCHAR Dcaron
ENCODING 207
SWIDTH 778 0
DWIDTH 20 0
BBX 16 23 2 0
BITMAP
1020
0cc0
0780
0300
0000
ffe0
3038
300c
300c
3006
3006
3007
3007
3007
3007
3007
3007
3006
3006
300c
300c
3038
ffe0
ENDCHAR
STARTCHAR Dstroke
ENCODING 208
SWIDTH 778 0
DWIDTH 20 0
BBX 16 18 2 0
BITMAP
ffe0
3038
300c
300c
3006
3006
3007
3007
fe07
3007
3007
3007
3006
3006
300c
300c
3038
ffe0
ENDCHAR
STARTCHAR Nacute
ENCODING 209
SWIDTH 815 0
DWIDTH 21 0
BBX 19 23 1 0
BITMAP
000c00
001c00
003000
004000
000000
f80fe0
3c0380
1c0100
1e0100
170100
138100
118100
10c100
10e100
106100
103100
103900
101d00
100f00
100700
100700
380300
fe0100
ENDCHAR
STARTCHAR Ncaron
ENCODING 210
SWIDTH 815 0
DWIDTH 21 0
BBX 19 23 1 0
BITMAP
020400
019800
00f000
006000
000000
f80fe0
3c0380
1c0100
1e0100
170100
138100
118100
10c100
10e100
106100
103100
103900
101d00
100f00
100700
100700
380300
fe0100
ENDCHAR
STARTCHAR Oacute
ENCODING 211
SWIDTH 778 0
DWIDTH 19 0
BBX 17 23 1 0
BITMAP
001800
003800
006000
008000
000000
07f000
1c1c00
300600
300600
700700
600300
e00380
e00380
e00380
e00380
e00380
e00380
600300
700700
300600
300600
1c1c00
07f000
ENDCHAR
STARTCHAR Ocircumflex
ENCODING 212
SWIDTH 778 0
DWIDTH 19 0
BBX 17 23 1 0
BITMAP
00c000
01e000
033000
040800
000000
07f000
1c1c00
300600
300600
700700
600300
e00380
e00380
e00380
e00380
e00380
e00380
600300
700700
300600
300600
1c1c00
07f000
ENDCHAR
STARTCHAR Odoubleacute
ENCODING 213
SWIDTH 778 0
DWIDTH 19 0
BBX 17 23 1 0
BITMAP
006300
00e700
018c00
021000
000000
07f000
1c1c00
300600
300600
700700
600300
e00380
e00380
e00380
e00380
e00380
e00380
600300
700700
300600
300600
1c1c00
07f000
ENDCHAR
STARTCHAR Odiaeresis
ENCODING 214
SWIDTH 778 0
DWIDTH 19 0
BBX 17 22 1 0
BITMAP
063000
063000
000000
000000
07f000
1c1c00
300600
300600
700700
600300
e00380
e00380
e00380
e00380
e00380
e00380
600300
700700
300600
300600
1c1c00
07f000
ENDCHAR
STARTCHAR multiply
ENCODING 215
SWIDTH 606 0
DWIDTH 14 0
BBX 13 12 1 1
BITMAP
c018
6030
3060
18c0
0d80
0700
0700
0d80
18c0
3060
6030
c018
ENDCHAR
STARTCHAR Rcaron
ENCODING 216
SWIDTH 722 0
DWIDTH 18 0
BBX 15 23 2 0
BITMAP
2040
1980
0f00
0600
0000
ffc0
3070
3030
3038
3038
3038
3030
3060
3f80
31c0
30e0
3060
3070
3070
3032
3032
303c
fc1c
ENDCHAR
STARTCHAR Uring
ENCODING 217
SWIDTH 815 0
DWIDTH 19 0
BBX 16 24 2 0
BITMAP
0380
0440
0440
0440
0380
0000
fc1f
300e
3004
3004
3004
3004
3004
3004
3004
3004
3004
3004
3004
3004
380c
1808
1e38
07e0
ENDCHAR
STARTCHAR Uacute
ENCODING 218
SWIDTH 815 0
DWIDTH 19 0
BBX 16 23 2 0
BITMAP
0030
0070
00c0
0100
0000
fc1f
300e
3004
3004
3004
3004
3004
3004
3004
3004
3004
3004
3004
3004
380c
1808
1e38
07e0
ENDCHAR
STARTCHAR Udoubleacute
ENCODING 219
SWIDTH 815 0
DWIDTH 19 0
BBX 16 23 2 0
BITMAP
00c6
01ce
0318
0420
0000
fc1f
300e
3004
3004
3004
3004
3004
3004
3004
3004
3004
3004
3004
3004
380c
1808
1e38
07e0
ENDCHAR
STARTCHAR Udiaeresis
ENCODING 220
SWIDTH 815 0
DWIDTH 19 0
BBX 16 22 2 0
BITMAP
0630
0630
0000
0000
fc1f
300e
3004
3004
3004
3004
3004
3004
3004
3004
3004
3004
3004
3004
380c
1808
1e38
07e0
ENDCHAR
STARTCHAR Yacute
ENCODING 221
SWIDTH 704 0
DWIDTH 17 0
BBX 16 23 0 0
BITMAP
0030
0070
00c0
0100
0000
fc3f
380c
1808
1c18
0c10
0e30
0620
0760
0340
03c0
0180
0180
0180
0180
0180
0180
0180
07e0
ENDCHAR
STARTCHAR Tcedilla
ENCODING 222
SWIDTH 667 0
DWIDTH 17 0
BBX 14 22 1 -4
BITMAP
fffc
e31c
c30c
8304
8304
8304
0300
0300
0300
0300
0300
0300
0300
0300
0300
0300
0300
1fe0
0200
0380
0080
0700
ENDCHAR
STARTCHAR ssharp
ENCODING 223
SWIDTH 574 0
DWIDTH 14 0
BBX 12 18 1 0
BITMAP
0f80
18c0
3060
3060
3060
3060
30c0
33c0
3060
3030
3030
3030
3030
3030
3630
3630
3660
f3c0
ENDCHAR
STARTCHAR racute
ENCODING 224
SWIDTH 444 0
DWIDTH 10 0
BBX 10 17 0 0
BITMAP
0180
0380
0600
0800
0000
f380
35c0
38c0
3000
3000
3000
3000
3000
3000
3000
3000
fc00
ENDCHAR
STARTCHAR aacute
ENCODING 225
SWIDTH 556 0
DWIDTH 13 0
BBX 12 18 1 0
BITMAP
0180
0380
0600
0800
0000
0000
1f00
7180
70c0
60c0
00c0
07c0
38c0
60c0
c0c0
c0c0
e1f0
7e60
ENDCHAR
STARTCHAR acircumflex
ENCODING 226
SWIDTH 556 0
DWIDTH 13 0
BBX 12 18 1 0
BITMAP
0600
0f00
1980
2040
0000
0000
1f00
7180
70c0
60c0
00c0
07c0
38c0
60c0
c0c0
c0c0
e1f0
7e60
ENDCHAR
STARTCHAR abreve
ENCODING 227
SWIDTH 556 0
DWIDTH 13 0
BBX 12 16 1 0
BITMAP
2100
3300
1e00
0000
1f00
7180
70c0
60c0
00c0
07c0
38c0
60c0
c0c0
c0c0
e1f0
7e60
ENDCHAR
STARTCHAR adiaeresis
ENCODING 228
SWIDTH 556 0
DWIDTH 13 0
BBX 12 16 1 0
BITMAP
1980
1980
0000
0000
1f00
7180
70c0
60c0
00c0
07c0
38c0
60c0
c0c0
c0c0
e1f0
7e60
ENDCHAR
STARTCHAR lacute
ENCODING 229
SWIDTH 315 0
DWIDTH 8 0
BBX 6 23 1 0
BITMAP
0c
1c
30
40
00
f0
30
30
30
30
30
30
30
30
30
30
30
30
30
30
30
30
fc
ENDCHAR
STARTCHAR cacute
ENCODING 230
SWIDTH 444 0
DWIDTH 12 0
BBX 10 17 1 0
BITMAP
00c0
01c0
0300
0400
0000
1f00
71c0
61c0
e0c0
c000
c000
c000
c000
e000
6040
70c0
1f80
ENDCHAR
STARTCHAR ccedilla
ENCODING 231
SWIDTH 444 0
DWIDTH 12 0
BBX 10 16 1 -4
BITMAP
1f00
71c0
61c0
e0c0
c000
c000
c000
c000
e000
6040
70c0
1f80
0800
0e00
0200
1c00
ENDCHAR
STARTCHAR ccaron
ENCODING 232
SWIDTH 444 0
DWIDTH 12 0
BBX 10 17 1 0
BITMAP
2040
1980
0f00
0600
0000
1f00
71c0
61c0
e0c0
c000
c000
c000
c000
e000
6040
70c0
1f80
ENDCHAR
STARTCHAR eacute
ENCODING 233
SWIDTH 500 0
DWIDTH 13 0
BBX 11 18 1 0
BITMAP
0180
0380
0600
0800
0000
0000
1f00
71c0
60c0
e0e0
c060
ffe0
c000
c000
e000
6040
70c0
1f80
ENDCHAR
STARTCHAR eogonek
ENCODING 234
SWIDTH 500 0
DWIDTH 13 0
BBX 11 16 1 -4
BITMAP
1f00
71c0
60c0
e0e0
c060
ffe0
c000
c000
e000
6040
70c0
1f80
0600
0c00
0d00
0600
ENDCHAR
STARTCHAR ediaeresis
ENCODING 235
SWIDTH 500 0
DWIDTH 13 0
BBX 11 16 1 0
BITMAP
3180
3180
0000
0000
1f00
71c0
60c0
e0e0
c060
ffe0
c000
c000
e000
6040
70c0
1f80
ENDCHAR
STARTCHAR ecaron
ENCODING 236
SWIDTH 500 0
DWIDTH 13 0
BBX 11 17 1 0
BITMAP
2040
1980
0f00
0600
0000
1f00
71c0
60c0
e0e0
c060
ffe0
c000
c000
e000
6040
70c0
1f80
ENDCHAR
STARTCHAR iacute
ENCODING 237
SWIDTH 315 0
DWIDTH 8 0
BBX 6 18 1 0
BITMAP
18
38
60
80
00
00
f0
30
30
30
30
30
30
30
30
30
30
fc
ENDCHAR
STARTCHAR icircumflex
ENCODING 238
SWIDTH 315 0
DWIDTH 8 0
BBX 8 18 0 0
BITMAP
18
3c
66
81
00
00
78
18
18
18
18
18
18
18
18
18
18
7e
ENDCHAR
STARTCHAR dcaron
ENCODING 239
SWIDTH 680 0
DWIDTH 17 0
BBX 16 20 1 0
BITMAP
0006
000f
01ef
0063
0062
0064
0068
0060
1e60
71e0
60e0
e060
c060
c060
c060
c060
e060
60e0
71e0
1f78
ENDCHAR
STARTCHAR dstroke
ENCODING 240
SWIDTH 600 0
DWIDTH 15 0
BBX 14 18 1 0
BITMAP
01e0
0060
0060
03fc
03fc
0060
1e60
71e0
60e0
e060
c060
c060
c060
c060
e060
60e0
71e0
1f78
ENDCHAR
STARTCHAR nacute
ENCODING 241
SWIDTH 611 0
DWIDTH 14 0
BBX 14 17 0 0
BITMAP
00c0
01c0
0300
0400
0000
f1c0
37e0
3870
3030
3030
3030
3030
3030
3030
3030
3030
fcfc
ENDCHAR
STARTCHAR ncaron
ENCODING 242
SWIDTH 611 0
DWIDTH 14 0
BBX 14 17 0 0
BITMAP
2040
1980
0f00
0600
0000
f1c0
37e0
3870
3030
3030
3030
3030
3030
3030
3030
3030
fcfc
ENDCHAR
STARTCHAR oacute
ENCODING 243
SWIDTH 500 0
DWIDTH 13 0
BBX 11 18 1 0
BITMAP
0180
0380
0600
0800
0000
0000
1f00
71c0
60c0
e0e0
c060
c060
c060
c060
e0e0
60c0
71c0
1f00
ENDCHAR
STARTCHAR ocircumflex
ENCODING 244
SWIDTH 500 0
DWIDTH 13 0
BBX 11 18 1 0
BITMAP
0e00
1f00
3180
4040
0000
0000
1f00
71c0
60c0
e0e0
c060
c060
c060
c060
e0e0
60c0
71c0
1f00
ENDCHAR
STARTCHAR odoubleacute
ENCODING 245
SWIDTH 500 0
DWIDTH 13 0
BBX 13 17 1 0
BITMAP
0318
0738
0c60
1080
0000
1f00
71c0
60c0
e0e0
c060
c060
c060
c060
e0e0
60c0
71c0
1f00
ENDCHAR
STARTCHAR odiaeresis
ENCODING 246
SWIDTH 500 0
DWIDTH 13 0
BBX 11 16 1 0
BITMAP
3180
3180
0000
0000
1f00
71c0
60c0
e0e0
c060
c060
c060
c060
e0e0
60c0
71c0
1f00
ENDCHAR
STARTCHAR division
ENCODING 247
SWIDTH 606 0
DWIDTH 14 0
BBX 12 10 1 2
BITMAP
0600
0600
0000
0000
fff0
fff0
0000
0000
0600
0600
ENDCHAR
STARTCHAR rcaron
ENCODING 248
SWIDTH 444 0
DWIDTH 10 0
BBX 10 17 0 0
BITMAP
4080
3300
1e00
0c00
0000
f380
35c0
38c0
3000
3000
3000
3000
3000
3000
3000
3000
fc00
ENDCHAR
STARTCHAR uring
ENCODING 249
SWIDTH 611 0
DWIDTH 14 0
BBX 14 18 0 0
BITMAP
0e00
1100
1100
1100
0e00
0000
f0f0
3030
3030
3030
3030
3030
3030
3030
3030
3870
1fb0
0e3c
ENDCHAR
STARTCHAR uacute
ENCODING 250
SWIDTH 611 0
DWIDTH 14 0
BBX 14 18 0 0
BITMAP
00c0
01c0
0300
0400
0000
0000
f0f0
3030
3030
3030
3030
3030
3030
3030
3030
3870
1fb0
0e3c
ENDCHAR
STARTCHAR udoubleacute
ENCODING 251
SWIDTH 611 0
DWIDTH 14 0
BBX 14 17 0 0
BITMAP
0318
0738
0c60
1080
0000
f0f0
3030
3030
3030
3030
3030
3030
3030
3030
3870
1fb0
0e3c
ENDCHAR
STARTCHAR udiaeresis
ENCODING 252
SWIDTH 611 0
DWIDTH 14 0
BBX 14 16 0 0
BITMAP
0cc0
0cc0
0000
0000
f0f0
3030
3030
3030
3030
3030
3030
3030
3030
3870
1fb0
0e3c
ENDCHAR
STARTCHAR yacute
ENCODING 253
SWIDTH 537 0
DWIDTH 12 0
BBX 13 23 -1 -5
BITMAP
0060
00e0
0180
0200
0000
0000
7838
3010
3830
1820
1820
0c60
0c40
06c0
0680
0780
0300
0300
0200
0200
c400
ec00
7800
ENDCHAR
STARTCHAR tcedilla
ENCODING 254
SWIDTH 389 0
DWIDTH 10 0
BBX 8 20 1 -4
BITMAP
10
10
30
70
ff
30
30
30
30
30
30
30
31
31
39
1e
10
1c
04
38
ENDCHAR
STARTCHAR abovedot
ENCODING 255
SWIDTH 333 0
DWIDTH 6 0
BBX 2 2 2 14
BITMAP
c0
c0
ENDCHAR
ENDFONT
