STARTFONT 2.1
FONT -Adobe-New Century Schoolbook-Medium-I-Normal--34-240-100-100-P-182-ISO8859-2
SIZE 24 100 100
FONTBOUNDINGBOX 40 39 -7 -7
COMMENT $XConsortium: ncenI24.bdf,v 1.7 95/01/26 17:56:55 gildea Exp $
COMMENT 
COMMENT +
COMMENT  Copyright 1984-1989, 1994 Adobe Systems Incorporated.
COMMENT  Copyright 1988, 1994 Digital Equipment Corporation.
COMMENT
COMMENT  Adobe is a trademark of Adobe Systems Incorporated which may be
COMMENT  registered in certain jurisdictions.
COMMENT  Permission to use these trademarks is hereby granted only in
COMMENT  association with the images described in this file.
COMMENT
COMMENT  Permission to use, copy, modify, distribute and sell this software
COMMENT  and its documentation for any purpose and without fee is hereby
COMMENT  granted, provided that the above copyright notices appear in all
COMMENT  copies and that both those copyright notices and this permission
COMMENT  notice appear in supporting documentation, and that the names of
COMMENT  Adobe Systems and Digital Equipment Corporation not be used in
COMMENT  advertising or publicity pertaining to distribution of the software
COMMENT  without specific, written prior permission.  Adobe Systems and
COMMENT  Digital Equipment Corporation make no representations about the
COMMENT  suitability of this software for any purpose.  It is provided "as
COMMENT  is" without express or implied warranty.
COMMENT -
COMMENT  
COMMENT  Translation to ISO8859-2 by Cub Soft;  Petr.Kolar@vslib.cz
COMMENT  
STARTPROPERTIES 28
FOUNDRY "Adobe"
FAMILY_NAME "New Century Schoolbook"
WEIGHT_NAME "Medium"
SLANT "I"
SETWIDTH_NAME "Normal"
ADD_STYLE_NAME ""
PIXEL_SIZE 34
POINT_SIZE 240
RESOLUTION_X 100
RESOLUTION_Y 100
SPACING "P"
AVERAGE_WIDTH 182
CHARSET_REGISTRY "ISO8859"
CHARSET_ENCODING "2"
CAP_HEIGHT 25
X_HEIGHT 16
FONT_ASCENT 29
FONT_DESCENT 7
FACE_NAME "New Century Schoolbook Italic"
COPYRIGHT "Copyright (c) 1984, 1987 Adobe Systems Incorporated. All Rights Reserved. Copyright (c) 1988, 1991 Digital Equipment Corporation. All Rights Reserved., Copyright 1996 Cub Soft"
NOTICE "New Century Schoolbook is a trademark of Linotype-Hell AG and/or its subsidiaries."
_DEC_DEVICE_FONTNAMES "PS=NewCenturySchlbk-Italic"
_DEC_PRODUCTINFO "DECwindows Fonts V2.2, 07-Nov-1991"
DEFAULT_CHAR 32
RELATIVE_SETWIDTH 50
RELATIVE_WEIGHT 50
CHARSET_COLLECTIONS "ASCII ISO8859-2 ADOBE-STANDARD"
FULL_NAME "New Century Schoolbook Italic"
ENDPROPERTIES
CHARS 191
STARTCHAR space
ENCODING 32
SWIDTH 278 0
DWIDTH 9 0
BBX 1 1 1 0
BITMAP
00
ENDCHAR
STARTCHAR exclam
ENCODING 33
SWIDTH 333 0
DWIDTH 11 0
BBX 9 25 1 0
BITMAP
0380
0780
0780
0780
0780
0700
0700
0600
0e00
0e00
0c00
0c00
0800
1800
1800
1800
1000
1000
0000
0000
0000
6000
f000
f000
6000
ENDCHAR
STARTCHAR quotedbl
ENCODING 34
SWIDTH 400 0
DWIDTH 13 0
BBX 11 8 3 17
BITMAP
30c0
38e0
79e0
71c0
6180
e380
c300
8200
ENDCHAR
STARTCHAR numbersign
ENCODING 35
SWIDTH 606 0
DWIDTH 19 0
BBX 16 23 2 0
BITMAP
030c
030c
030c
030c
0618
0618
0618
7fff
7fff
0618
0c30
0c30
0c30
fffe
fffe
1860
1860
1860
1860
30c0
30c0
30c0
30c0
ENDCHAR
STARTCHAR dollar
ENCODING 36
SWIDTH 556 0
DWIDTH 18 0
BBX 18 31 0 -4
BITMAP
000400
000c00
000c00
000800
00fe00
039f80
061980
0c11c0
0c33c0
1c33c0
1c2380
1e2000
1f6000
0fe000
07f000
03f800
00fe00
00be00
008f00
718f00
f18700
f10700
e30600
c30e00
621c00
3a7800
1fe000
060000
040000
0c0000
0c0000
ENDCHAR
STARTCHAR percent
ENCODING 37
SWIDTH 833 0
DWIDTH 27 0
BBX 25 23 1 0
BITMAP
03c03000
0e70e000
1c3fe000
3c10c000
7810c000
70318000
f0310000
e0230000
e0620000
e0660000
e0cc0000
738c1f00
3f187980
0010e080
0031e080
0063c180
00638180
00c78100
00870300
01870300
03070600
03039c00
0600f800
ENDCHAR
STARTCHAR ampersand
ENCODING 38
SWIDTH 852 0
DWIDTH 28 0
BBX 25 25 1 0
BITMAP
001f8000
003dc000
0070e000
00706000
00e06000
00e0e000
00e0e000
00e1c000
00e38000
00ff0000
00fc0000
01f00000
07f0ff80
1e783f00
38781c00
78781800
703c3000
f03c3000
f03e6000
f01ec000
f01f8100
f80f8300
7c1fc600
3ffbfc00
0fe1f800
ENDCHAR
STARTCHAR apostrophe
ENCODING 39
SWIDTH 204 0
DWIDTH 7 0
BBX 6 9 1 16
BITMAP
18
3c
3c
3c
08
18
30
60
c0
ENDCHAR
STARTCHAR parenleft
ENCODING 40
SWIDTH 333 0
DWIDTH 11 0
BBX 12 29 1 -4
BITMAP
0030
00f0
01c0
0300
0600
0c00
0c00
1800
3800
3000
7000
7000
6000
e000
e000
e000
c000
c000
c000
c000
c000
c000
4000
4000
6000
2000
3000
3000
1800
ENDCHAR
STARTCHAR parenright
ENCODING 41
SWIDTH 333 0
DWIDTH 11 0
BBX 12 29 -3 -4
BITMAP
0180
0080
00c0
0040
0060
0020
0020
0030
0030
0030
0030
0030
0030
0070
0070
0070
0060
00e0
00e0
00c0
01c0
0180
0380
0300
0600
0c00
1800
7000
c000
ENDCHAR
STARTCHAR asterisk
ENCODING 42
SWIDTH 500 0
DWIDTH 17 0
BBX 14 14 1 9
BITMAP
01c0
31c0
71c0
7980
1d0c
0f3c
07fc
ff80
f3c0
e2e0
0678
0e38
0e30
0400
ENDCHAR
STARTCHAR plus
ENCODING 43
SWIDTH 606 0
DWIDTH 20 0
BBX 16 16 2 0
BITMAP
0180
0180
0180
0180
0180
0180
0180
ffff
ffff
0180
0180
0180
0180
0180
0180
0180
ENDCHAR
STARTCHAR comma
ENCODING 44
SWIDTH 278 0
DWIDTH 9 0
BBX 6 9 -1 -5
BITMAP
18
3c
3c
3c
08
18
30
60
c0
ENDCHAR
STARTCHAR minus
ENCODING 45
SWIDTH 606 0
DWIDTH 20 0
BBX 17 2 1 7
BITMAP
ffff80
ffff80
ENDCHAR
STARTCHAR period
ENCODING 46
SWIDTH 278 0
DWIDTH 9 0
BBX 4 4 1 0
BITMAP
60
f0
f0
60
ENDCHAR
STARTCHAR slash
ENCODING 47
SWIDTH 606 0
DWIDTH 20 0
BBX 11 28 5 -3
BITMAP
0060
00e0
00c0
00c0
01c0
0180
0180
0180
0300
0300
0300
0600
0600
0600
0c00
0c00
0c00
1800
1800
1800
3000
3000
3000
7000
6000
6000
6000
c000
ENDCHAR
STARTCHAR zero
ENCODING 48
SWIDTH 556 0
DWIDTH 18 0
BBX 16 24 2 0
BITMAP
00f8
03dc
070e
0e06
1c07
1c07
3807
7807
7807
7007
f00f
f00f
f00f
e00e
e01e
e01e
e01c
e03c
e038
e078
6070
70e0
3f80
1f00
ENDCHAR
STARTCHAR one
ENCODING 49
SWIDTH 556 0
DWIDTH 18 0
BBX 13 24 2 0
BITMAP
0018
0078
0ff8
0ff8
0070
0070
00f0
00f0
00e0
00e0
01e0
01c0
01c0
03c0
03c0
0380
0380
0780
0700
0700
0f00
0f00
1f80
fff0
ENDCHAR
STARTCHAR two
ENCODING 50
SWIDTH 556 0
DWIDTH 18 0
BBX 18 24 0 0
BITMAP
007c00
01ff00
070780
0c03c0
0c03c0
1e01c0
1f03c0
1f03c0
1f03c0
0e0780
000f00
001e00
003c00
007800
00e000
038000
070000
0c0180
180300
300300
700600
fffe00
fffc00
fffc00
ENDCHAR
STARTCHAR three
ENCODING 51
SWIDTH 556 0
DWIDTH 18 0
BBX 17 24 0 0
BITMAP
00f800
038e00
070700
0e0780
0f0780
0f0380
0f0780
060780
000700
000e00
003c00
03e000
003800
001c00
001e00
001e00
600e00
f01e00
f01e00
f01e00
e03c00
e07800
78f000
1fc000
ENDCHAR
STARTCHAR four
ENCODING 52
SWIDTH 556 0
DWIDTH 18 0
BBX 18 25 0 0
BITMAP
0000c0
0001c0
0003c0
000780
000f80
001b80
003700
006700
00c700
018f00
030e00
060e00
0c1e00
181e00
301c00
601c00
c03c00
ffff80
ffff80
003800
003800
007800
007000
01f800
07fe00
ENDCHAR
STARTCHAR five
ENCODING 53
SWIDTH 556 0
DWIDTH 18 0
BBX 19 25 1 0
BITMAP
018020
03ffe0
03ffc0
03ff00
030000
060000
060000
060000
0c0000
0cf000
0dfc00
0ffe00
1c1e00
380f00
300f00
000700
000700
000f00
600f00
f00e00
f01e00
f01c00
e07800
79f000
1fc000
ENDCHAR
STARTCHAR six
ENCODING 54
SWIDTH 556 0
DWIDTH 18 0
BBX 17 24 2 0
BITMAP
003c00
01e700
038380
070380
0f0780
0e0780
1c0300
3c0000
380000
780000
79f000
77fc00
fc3c00
f81e00
f00e00
f00e00
e00e00
e00e00
e01e00
e01c00
603c00
707800
3de000
1f8000
ENDCHAR
STARTCHAR seven
ENCODING 55
SWIDTH 556 0
DWIDTH 18 0
BBX 17 24 3 0
BITMAP
1fff80
3fff00
3fff00
700600
600c00
c00c00
801800
003000
007000
006000
00c000
01c000
038000
038000
070000
0f0000
0e0000
1e0000
3c0000
3c0000
7c0000
780000
780000
700000
ENDCHAR
STARTCHAR eight
ENCODING 56
SWIDTH 556 0
DWIDTH 18 0
BBX 18 24 1 0
BITMAP
00fc00
038f00
070380
0e0380
0e01c0
1c01c0
1e0380
1e0380
0f0700
0fce00
07f800
03f800
0efc00
383e00
701e00
700f00
e00f00
e00700
e00700
e00e00
700e00
701c00
3c7800
0fe000
ENDCHAR
STARTCHAR nine
ENCODING 57
SWIDTH 556 0
DWIDTH 18 0
BBX 17 24 1 0
BITMAP
01fc00
038e00
0f0700
0e0300
1c0380
3c0380
3c0380
380380
380780
380780
3c0f80
1e1f80
1ff700
07cf00
000f00
000e00
001e00
601e00
f01c00
f03c00
f07800
e07000
79e000
3f8000
ENDCHAR
STARTCHAR colon
ENCODING 58
SWIDTH 278 0
DWIDTH 9 0
BBX 7 16 1 0
BITMAP
0c
1e
1e
0c
00
00
00
00
00
00
00
00
60
f0
f0
60
ENDCHAR
STARTCHAR semicolon
ENCODING 59
SWIDTH 278 0
DWIDTH 9 0
BBX 9 21 -1 -5
BITMAP
0300
0780
0780
0300
0000
0000
0000
0000
0000
0000
0000
0000
1800
3c00
3c00
3c00
0800
1800
3000
6000
c000
ENDCHAR
STARTCHAR less
ENCODING 60
SWIDTH 606 0
DWIDTH 20 0
BBX 17 17 1 0
BITMAP
000180
000780
001f00
007c00
01f000
07c000
1f0000
7c0000
e00000
f00000
7c0000
1f0000
03e000
00f800
001f00
000780
000180
ENDCHAR
STARTCHAR equal
ENCODING 61
SWIDTH 606 0
DWIDTH 20 0
BBX 17 9 1 4
BITMAP
ffff80
ffff80
000000
000000
000000
000000
000000
ffff80
ffff80
ENDCHAR
STARTCHAR greater
ENCODING 62
SWIDTH 606 0
DWIDTH 20 0
BBX 17 17 2 0
BITMAP
c00000
f00000
7c0000
1f0000
07c000
01f000
007c00
001f00
000380
000780
001f00
007c00
03e000
0f8000
7c0000
f00000
c00000
ENDCHAR
STARTCHAR question
ENCODING 63
SWIDTH 444 0
DWIDTH 14 0
BBX 11 25 3 0
BITMAP
1f80
39c0
6060
4060
c060
c0e0
81e0
03c0
0fc0
1f00
3e00
3c00
7000
6000
c300
c300
6600
3c00
0000
0000
0000
6000
f000
f000
6000
ENDCHAR
STARTCHAR at
ENCODING 64
SWIDTH 747 0
DWIDTH 25 0
BBX 23 25 1 0
BITMAP
007e00
01ffc0
07e1e0
0e0070
1c0038
38001c
30000c
607dce
61e7c6
e3c7c6
c3c386
c78386
c78386
c7078c
c7070c
c70f1c
e71f18
639f70
71f3e2
300186
38000c
1c0038
0f81f0
03ffc0
00ff00
ENDCHAR
STARTCHAR A
ENCODING 65
SWIDTH 704 0
DWIDTH 22 0
BBX 25 25 -3 0
BITMAP
0000c000
0001c000
0001c000
0003c000
0007c000
0007e000
000de000
000de000
0018e000
0018e000
0030f000
0070f000
0060f000
00c0f000
00c07000
01fff800
01fff800
03007800
03007800
06003800
0e003c00
0c003c00
1c003c00
3e007e00
ff81ff80
ENDCHAR
STARTCHAR B
ENCODING 66
SWIDTH 722 0
DWIDTH 23 0
BBX 23 25 -1 0
BITMAP
07fff0
01f8f8
00f03c
00f01e
00e01e
01e01e
01e01e
01e01e
01c01e
03c03c
03c0f8
03fff0
03ff80
0781e0
0780f8
078078
07003c
0f003c
0f003c
0f003c
0e007c
1e0078
1e00f0
3e07e0
ffff80
ENDCHAR
STARTCHAR C
ENCODING 67
SWIDTH 722 0
DWIDTH 23 0
BBX 22 25 1 0
BITMAP
003f04
01f3cc
03c0fc
07803c
0f003c
1e0038
1e0018
3c0018
7c0010
780010
780000
f80000
f80000
f00000
f00000
f00000
f00000
f00000
f00020
780060
780040
3c01c0
3f0380
0fcf00
03fc00
ENDCHAR
STARTCHAR D
ENCODING 68
SWIDTH 778 0
DWIDTH 26 0
BBX 26 25 -1 0
BITMAP
07fff000
00fc7c00
00781f00
00780700
00f00780
00f00380
00f003c0
00f003c0
01e003c0
01e003c0
01e003c0
01e003c0
03c007c0
03c007c0
03c00780
03c00f80
07800f80
07800f00
07801f00
07801e00
0f003c00
0f007800
0f01f000
1f1fe000
ffff0000
ENDCHAR
STARTCHAR E
ENCODING 69
SWIDTH 722 0
DWIDTH 23 0
BBX 24 25 -1 0
BITMAP
07ffff
00f83f
00f00f
00f007
00f007
00f003
01e042
01e0c2
01e0c0
01e1c0
03c380
03ff80
03ff80
038700
078700
078300
078200
070204
0f000c
0f0018
0f0018
1e0038
1e00f8
3f07f0
fffff0
ENDCHAR
STARTCHAR F
ENCODING 70
SWIDTH 667 0
DWIDTH 22 0
BBX 24 25 -1 0
BITMAP
07ffff
01f83f
00f00f
00f007
00f006
01e002
01e042
01e0c2
01e0c0
03c1c0
03c380
03ff80
03ff80
078700
078300
078300
078200
0f0200
0f0000
0f0000
0f0000
1e0000
1e0000
3f0000
ffc000
ENDCHAR
STARTCHAR G
ENCODING 71
SWIDTH 778 0
DWIDTH 25 0
BBX 24 25 1 0
BITMAP
003fc2
00f9e6
03c07e
07803e
0f001e
1f001c
1e000c
3c000c
3c0008
7c0008
780000
780000
f80000
f007ff
f007ff
f00078
f00078
f00070
f000f0
7000f0
7801e0
3801e0
3c03e0
1f9e60
07fc40
ENDCHAR
STARTCHAR H
ENCODING 72
SWIDTH 833 0
DWIDTH 27 0
BBX 31 25 -1 0
BITMAP
07ff0ffe
01fc03f8
00f001e0
00f001e0
00f001c0
01e003c0
01e003c0
01e003c0
01e003c0
03c00780
03c00780
03ffff80
03ffff80
07800f00
07800f00
07800f00
07800f00
0f001e00
0f001e00
0f001e00
0f001e00
1e003c00
1e003c00
3f007e00
ffc1ff80
ENDCHAR
STARTCHAR I
ENCODING 73
SWIDTH 407 0
DWIDTH 13 0
BBX 15 25 -1 0
BITMAP
07fe
01f8
00f0
00f0
00e0
01e0
01e0
01e0
01c0
03c0
03c0
03c0
0380
0780
0780
0780
0700
0f00
0f00
0f00
0e00
1e00
1e00
3f00
ffc0
ENDCHAR
STARTCHAR J
ENCODING 74
SWIDTH 611 0
DWIDTH 20 0
BBX 23 25 -1 0
BITMAP
000ffe
0001f8
0000f0
0000f0
0001e0
0001e0
0001e0
0003c0
0003c0
0003c0
0003c0
000780
000780
000780
000780
3c0f00
7e0f00
7e0f00
fe0e00
cc1e00
c01e00
c03c00
607c00
39f000
1fe000
ENDCHAR
STARTCHAR K
ENCODING 75
SWIDTH 741 0
DWIDTH 24 0
BBX 28 25 -1 0
BITMAP
07ff3ff0
00f80fc0
00f00700
00f00e00
00f01c00
00e03800
01e07000
01e0e000
01e18000
01c30000
03ce0000
03df0000
03ff0000
03f78000
07e78000
07c3c000
0783c000
0701c000
0f01e000
0f01e000
0f00f000
1e00f000
1e007800
3f007c00
ffc3ff00
ENDCHAR
STARTCHAR L
ENCODING 76
SWIDTH 667 0
DWIDTH 21 0
BBX 22 25 -1 0
BITMAP
07ff00
01fc00
00f000
00f000
00f000
00e000
01e000
01e000
01e000
01c000
03c000
03c000
03c000
038000
078000
078000
07800c
07000c
0f001c
0f0018
0f0038
0e0078
1f00f0
3f87f0
fffff0
ENDCHAR
STARTCHAR M
ENCODING 77
SWIDTH 944 0
DWIDTH 31 0
BBX 34 25 -1 0
BITMAP
07f8003fc0
00f8007e00
00f8007c00
00f800fc00
00fc00fc00
01bc01bc00
01bc03b800
01bc037800
01bc067800
033c067800
033c0c7000
031c18f000
031c18f000
061c30f000
061c30e000
061e61e000
041ec1e000
0c1ec1e000
0c1f81c000
0c1f83c000
1c1f03c000
180e038000
380e078000
7c0c0fc000
ff0c3ff800
ENDCHAR
STARTCHAR N
ENCODING 78
SWIDTH 815 0
DWIDTH 27 0
BBX 30 26 -2 -1
BITMAP
07f807fc
00f801f0
007800e0
007c00e0
00fc00c0
00de00c0
00de00c0
009f0080
018f0180
018f0180
01878180
03078100
0303c300
0303c300
0301e300
0601e200
0601e600
0600f600
0600f600
0c007c00
0c007c00
0c003c00
1c003c00
3e003800
ff801800
00001800
ENDCHAR
STARTCHAR O
ENCODING 79
SWIDTH 778 0
DWIDTH 26 0
BBX 24 25 1 0
BITMAP
001fc0
00fcf0
03e038
07c01c
0f801e
1f000e
1e000f
3e000f
3c000f
7c000f
78000f
78001f
f8001f
f8001e
f0001e
f0003e
f0003c
f0007c
f00078
7000f8
7801f0
3803e0
3c0780
0f3f00
03f800
ENDCHAR
STARTCHAR P
ENCODING 80
SWIDTH 667 0
DWIDTH 22 0
BBX 23 25 0 0
BITMAP
07ffe0
01f1f8
00f03c
00e01c
01e01e
01e01e
01e01e
01c01e
03c03c
03c03c
03c078
0381f0
078fc0
07ff00
078000
070000
0f0000
0f0000
0f0000
0e0000
1e0000
1e0000
1e0000
3e0000
ffc000
ENDCHAR
STARTCHAR Q
ENCODING 81
SWIDTH 778 0
DWIDTH 26 0
BBX 24 31 1 -6
BITMAP
001fc0
00fcf0
03f038
07c01c
0f801e
1f000e
1e000f
3e000f
3c000f
7c000f
78000f
78001f
f8001f
f8001e
f0001e
f0003e
f0f83c
f3bc7c
f30e78
760ef8
7406f0
3c07e0
3e0fc0
0f3f00
07ff00
000f00
000f08
000f18
000ff0
0007f0
0003c0
ENDCHAR
STARTCHAR R
ENCODING 82
SWIDTH 741 0
DWIDTH 24 0
BBX 24 26 -1 -1
BITMAP
07fff0
01f8fc
00f81e
00f00e
00f00f
00e00f
01e00f
01e00f
01e01e
01c01e
03c07c
03c7f8
03ffc0
038380
0781c0
0781c0
0781e0
0701e0
0f01e0
0f01e0
0f01e0
0e01e2
1e01e6
3f01fc
ffc0fc
000078
ENDCHAR
STARTCHAR S
ENCODING 83
SWIDTH 667 0
DWIDTH 22 0
BBX 21 25 0 0
BITMAP
007f18
01e398
0380f8
070078
060070
0e0030
0e0030
0f0020
0f8020
0fe000
07f800
07fe00
01ff80
007fc0
001fc0
2007e0
2001e0
6000e0
6000e0
7000e0
7000c0
7801c0
fe0380
cf8f00
c1fc00
ENDCHAR
STARTCHAR T
ENCODING 84
SWIDTH 685 0
DWIDTH 22 0
BBX 23 25 1 0
BITMAP
3ffffe
3f3e7e
3c3c1c
783c1c
703c1c
603818
607818
807810
807810
007000
00f000
00f000
00f000
01e000
01e000
01e000
01e000
03c000
03c000
03c000
038000
078000
078000
0fc000
7ff800
ENDCHAR
STARTCHAR U
ENCODING 85
SWIDTH 815 0
DWIDTH 27 0
BBX 26 25 3 0
BITMAP
7fe07fc0
1f801f00
0f000e00
0f000c00
1e000c00
1e000c00
1e001800
1e001800
3c001800
3c001800
3c003000
3c003000
78003000
78002000
78006000
78006000
f0006000
f0004000
f000c000
f000c000
f0018000
78038000
78070000
3e3e0000
07f80000
ENDCHAR
STARTCHAR V
ENCODING 86
SWIDTH 704 0
DWIDTH 23 0
BBX 25 25 1 0
BITMAP
ffc0ff80
3f003e00
1e001c00
1e003800
1e003000
0f003000
0f006000
0f00e000
0f00c000
07018000
07018000
07830000
07830000
07860000
03860000
038c0000
03cc0000
03d80000
03d80000
01f00000
01e00000
01e00000
01c00000
01c00000
01800000
ENDCHAR
STARTCHAR W
ENCODING 87
SWIDTH 926 0
DWIDTH 29 0
BBX 31 25 1 0
BITMAP
ff9ff3fe
3e07c0f8
1c078070
1c0380e0
1c0380c0
1e07c0c0
1e07c180
1e07c180
0e0fc100
0e0bc300
0e1bc300
0e19c600
0e31c600
0f31e400
0f21e400
0f61ec00
07e1f800
07c1f800
07c0f000
0780f000
0780f000
0700e000
0700e000
0600c000
0600c000
ENDCHAR
STARTCHAR X
ENCODING 88
SWIDTH 704 0
DWIDTH 23 0
BBX 29 25 -3 0
BITMAP
07ff1ff8
01fc07e0
00f803c0
00780700
003c0e00
003c0c00
003e1800
001e3000
001e6000
000fc000
000f8000
00078000
00078000
000f8000
001fc000
003bc000
0071e000
00e1e000
01c1f000
0380f000
0700f800
0e007800
1e007c00
3f00fe00
ffc3ff80
ENDCHAR
STARTCHAR Y
ENCODING 89
SWIDTH 685 0
DWIDTH 23 0
BBX 25 25 1 0
BITMAP
ffe1ff80
3f807e00
1f003800
0f003000
0f006000
0780e000
0780c000
03c18000
03c30000
03c70000
01e60000
01ec0000
00fc0000
00f80000
00f00000
00f00000
00f00000
01e00000
01e00000
01e00000
01e00000
03c00000
03c00000
0fe00000
3ff80000
ENDCHAR
STARTCHAR Z
ENCODING 90
SWIDTH 667 0
DWIDTH 22 0
BBX 23 25 -1 0
BITMAP
03fffe
03f03e
07c07c
0700f8
0601f0
0e01e0
0c03e0
0807c0
000f80
000f00
001e00
003e00
007c00
00f800
00f000
01f000
03e008
07c018
0f8038
0f0030
1f0070
3e00f0
7c01e0
f807e0
ffffe0
ENDCHAR
STARTCHAR bracketleft
ENCODING 91
SWIDTH 333 0
DWIDTH 11 0
BBX 14 29 -1 -4
BITMAP
01fc
0380
0380
0300
0300
0700
0700
0600
0600
0e00
0e00
0c00
0c00
1c00
1c00
1800
1800
3800
3000
3000
7000
7000
6000
6000
e000
e000
c000
c000
fe00
ENDCHAR
STARTCHAR backslash
ENCODING 92
SWIDTH 606 0
DWIDTH 20 0
BBX 14 25 3 0
BITMAP
c000
6000
6000
3000
3000
1800
1800
0c00
0c00
0e00
0600
0700
0300
0380
0180
01c0
00c0
00c0
0060
0060
0030
0030
0018
0018
000c
ENDCHAR
STARTCHAR bracketright
ENCODING 93
SWIDTH 333 0
DWIDTH 11 0
BBX 14 29 -2 -4
BITMAP
03fc
001c
0018
0018
0038
0038
0030
0030
0070
0070
0060
0060
00e0
00e0
00c0
00c0
01c0
01c0
0180
0180
0380
0380
0300
0300
0700
0700
0600
0600
fe00
ENDCHAR
STARTCHAR asciicircum
ENCODING 94
SWIDTH 606 0
DWIDTH 20 0
BBX 16 13 2 12
BITMAP
01c0
03e0
0360
0770
0630
0e38
1c18
1c18
380c
300c
700e
6006
e007
ENDCHAR
STARTCHAR underscore
ENCODING 95
SWIDTH 500 0
DWIDTH 16 0
BBX 16 2 0 -5
BITMAP
ffff
ffff
ENDCHAR
STARTCHAR grave
ENCODING 96
SWIDTH 333 0
DWIDTH 11 0
BBX 7 6 2 17
BITMAP
c0
e0
f0
38
0c
06
ENDCHAR
STARTCHAR a
ENCODING 97
SWIDTH 574 0
DWIDTH 18 0
BBX 17 16 0 0
BITMAP
03c300
0fe700
1e3700
3c1e00
381e00
781e00
701c00
f01c00
e01c00
e03800
e03800
e03800
e07880
f0f980
7bbf00
3e1c00
ENDCHAR
STARTCHAR b
ENCODING 98
SWIDTH 556 0
DWIDTH 18 0
BBX 15 25 1 0
BITMAP
0380
1f00
0700
0700
0e00
0e00
0e00
1e00
1c00
1cf8
1ffc
3e1c
3c1e
380e
780e
700e
700e
601e
e01c
e01c
e038
e038
e0f0
79e0
1f80
ENDCHAR
STARTCHAR c
ENCODING 99
SWIDTH 444 0
DWIDTH 14 0
BBX 13 16 0 0
BITMAP
03e0
0e30
1c18
3878
7878
7030
f000
e000
e000
e000
e000
e000
e030
7060
7dc0
1f00
ENDCHAR
STARTCHAR d
ENCODING 100
SWIDTH 611 0
DWIDTH 20 0
BBX 19 25 0 0
BITMAP
0000e0
0003e0
0000e0
0000e0
0001c0
0001c0
0001c0
0003c0
000380
01f380
0f1b80
1e0f00
3c0f00
380f00
780e00
700e00
f00e00
f00e00
e01c00
e01c00
e03c00
e03c40
7078c0
79df80
3f8e00
ENDCHAR
STARTCHAR e
ENCODING 101
SWIDTH 444 0
DWIDTH 14 0
BBX 13 16 0 0
BITMAP
03e0
0e70
1c38
3838
3838
7070
70e0
f1c0
e700
fc00
e000
e000
e030
7060
7bc0
1f00
ENDCHAR
STARTCHAR f
ENCODING 102
SWIDTH 333 0
DWIDTH 10 0
BBX 17 31 -2 -6
BITMAP
001f00
003380
006380
00e380
00c100
01c000
01c000
018000
038000
1ff800
038000
030000
070000
070000
070000
0e0000
0e0000
0e0000
0e0000
1c0000
1c0000
1c0000
1c0000
380000
380000
380000
700000
700000
f00000
e00000
800000
ENDCHAR
STARTCHAR g
ENCODING 103
SWIDTH 537 0
DWIDTH 17 0
BBX 20 24 -3 -7
BITMAP
0000f0
007ff0
01e730
038380
0701c0
0701c0
0701c0
070380
070380
030700
018f00
0ffc00
180000
180000
1ff000
1ffe00
1fff00
780f00
600700
e00300
e00700
e00e00
7c3c00
1ff000
ENDCHAR
STARTCHAR h
ENCODING 104
SWIDTH 611 0
DWIDTH 19 0
BBX 18 25 0 0
BITMAP
01c000
0fc000
03c000
038000
038000
038000
038000
070000
070000
071c00
0e7e00
0ec700
0f8700
1f0700
1e0700
1c0e00
3c0e00
380e00
381c00
381c00
701c40
7038c0
703980
e01f00
e01c00
ENDCHAR
STARTCHAR i
ENCODING 105
SWIDTH 333 0
DWIDTH 10 0
BBX 8 24 1 0
BITMAP
06
0f
0f
06
00
00
00
00
1c
7c
1c
38
38
38
70
70
70
f0
e1
e3
e6
cc
f8
60
ENDCHAR
STARTCHAR j
ENCODING 106
SWIDTH 315 0
DWIDTH 9 0
BBX 16 31 -7 -7
BITMAP
0006
000f
000f
0006
0000
0000
0000
0000
001c
007c
001c
001c
0038
0038
0038
0038
0070
0070
0070
0070
00e0
00e0
00e0
01c0
01c0
01c0
4180
e380
e300
e600
7c00
ENDCHAR
STARTCHAR k
ENCODING 107
SWIDTH 556 0
DWIDTH 17 0
BBX 16 25 0 0
BITMAP
01c0
0fc0
03c0
0380
0380
0380
0700
0700
0700
0f1e
0e7f
0ec7
1f87
1f07
1e0e
1c1c
3c70
3bc0
3860
7060
7061
7073
e076
e07c
e038
ENDCHAR
STARTCHAR l
ENCODING 108
SWIDTH 333 0
DWIDTH 9 0
BBX 9 25 0 0
BITMAP
0380
1f80
0780
0700
0700
0700
0700
0e00
0e00
0e00
1c00
1c00
1c00
3800
3800
3800
3000
7000
7000
7000
e100
e300
e600
fc00
7000
ENDCHAR
STARTCHAR m
ENCODING 109
SWIDTH 889 0
DWIDTH 29 0
BBX 26 16 1 0
BITMAP
0e3c1e00
7e7e7f00
1ccee700
1d8ec700
1f0f8700
1e0f0e00
1c0e0e00
3c1e0e00
381c1c00
38381c00
70381c00
70383840
707038c0
e0703980
e0703f00
e0e01c00
ENDCHAR
STARTCHAR n
ENCODING 110
SWIDTH 611 0
DWIDTH 20 0
BBX 17 16 1 0
BITMAP
1c3800
7cfc00
1d8e00
1f0e00
1e0e00
3c1c00
381c00
381c00
783800
703800
703800
703080
e07180
e07300
e07e00
e03800
ENDCHAR
STARTCHAR o
ENCODING 111
SWIDTH 500 0
DWIDTH 16 0
BBX 15 16 0 0
BITMAP
03f0
0e38
1c1c
380c
780e
700e
700e
f00e
e01e
e01c
e01c
e038
e038
7070
38e0
1f80
ENDCHAR
STARTCHAR p
ENCODING 112
SWIDTH 574 0
DWIDTH 19 0
BBX 20 22 -3 -6
BITMAP
01c780
0fdfe0
01d8e0
01b070
01e070
01c070
038070
0380f0
0380f0
0700e0
0700e0
0701c0
0703c0
0f8780
0edf00
0e7c00
0c0000
1c0000
1c0000
1c0000
380000
ff0000
ENDCHAR
STARTCHAR q
ENCODING 113
SWIDTH 556 0
DWIDTH 17 0
BBX 17 22 0 -6
BITMAP
03f180
0f1b00
1c0f00
3c0f00
380e00
700e00
700e00
f01e00
e01c00
e01c00
e03c00
e03800
e07800
70f800
7ff800
1e7000
007000
007000
00e000
00e000
01e000
07f800
ENDCHAR
STARTCHAR r
ENCODING 114
SWIDTH 444 0
DWIDTH 14 0
BBX 14 16 0 0
BITMAP
0e78
7efc
0d9c
0d1c
1f08
1e00
1c00
1c00
3800
3800
3800
7000
7000
7000
f000
e000
ENDCHAR
STARTCHAR s
ENCODING 115
SWIDTH 444 0
DWIDTH 14 0
BBX 13 16 0 0
BITMAP
07e0
1c78
3838
3038
3818
3c00
1f00
1fc0
07e0
01f0
6070
e070
e070
e060
71c0
3f80
ENDCHAR
STARTCHAR t
ENCODING 116
SWIDTH 352 0
DWIDTH 11 0
BBX 10 22 1 0
BITMAP
0380
0300
0700
0700
0e00
0e00
7fc0
1c00
1c00
1c00
3800
3800
3800
7000
7000
7000
7080
e180
e300
f600
fc00
7000
ENDCHAR
STARTCHAR u
ENCODING 117
SWIDTH 611 0
DWIDTH 20 0
BBX 17 16 1 0
BITMAP
1e0700
7c0f00
1c0e00
1c0e00
381e00
381c00
381c00
703c00
703800
707800
e07800
e0f180
e1f300
e77700
fe7c00
783800
ENDCHAR
STARTCHAR v
ENCODING 118
SWIDTH 519 0
DWIDTH 17 0
BBX 14 16 1 0
BITMAP
1c38
fc7c
383c
381c
380c
700c
7008
7018
e018
e010
e030
e060
e060
71c0
7f80
1e00
ENDCHAR
STARTCHAR w
ENCODING 119
SWIDTH 778 0
DWIDTH 26 0
BBX 23 16 1 0
BITMAP
1c0e1c
7c0e1e
1c1e1e
181c0e
381c06
381c06
383c06
703804
70780c
707818
e0f818
e0b830
e1b860
e338c0
7e3f80
380f00
ENDCHAR
STARTCHAR x
ENCODING 120
SWIDTH 500 0
DWIDTH 16 0
BBX 17 16 -1 0
BITMAP
070700
0f8f80
1b9b00
339000
21f000
01e000
01e000
01c000
01c000
01e000
03e000
06e100
66e300
ec7600
f87c00
703800
ENDCHAR
STARTCHAR y
ENCODING 121
SWIDTH 500 0
DWIDTH 16 0
BBX 18 23 -3 -7
BITMAP
070180
0f83c0
0f83c0
1bc3c0
11c180
11c180
01c100
00e300
00e200
00e600
00e400
007c00
007800
007800
007000
006000
006000
00c000
60c000
e18000
e30000
e60000
7c0000
ENDCHAR
STARTCHAR z
ENCODING 122
SWIDTH 463 0
DWIDTH 15 0
BBX 16 16 -1 0
BITMAP
07c3
0fff
19f6
300c
3018
0030
00e0
01c0
0780
0e00
1c00
3004
6c0c
7f98
dff0
c3e0
ENDCHAR
STARTCHAR braceleft
ENCODING 123
SWIDTH 333 0
DWIDTH 11 0
BBX 10 31 2 -5
BITMAP
0080
01c0
0300
0300
0600
0600
0600
0e00
0c00
0c00
0c00
1c00
1800
1800
7000
e000
6000
3000
3000
3000
7000
6000
6000
6000
e000
c000
c000
c000
c000
e000
2000
ENDCHAR
STARTCHAR bar
ENCODING 124
SWIDTH 606 0
DWIDTH 20 0
BBX 2 25 9 0
BITMAP
c0
c0
c0
c0
c0
c0
c0
c0
c0
c0
c0
c0
c0
c0
c0
c0
c0
c0
c0
c0
c0
c0
c0
c0
c0
ENDCHAR
STARTCHAR braceright
ENCODING 125
SWIDTH 333 0
DWIDTH 11 0
BBX 10 31 -1 -5
BITMAP
0100
01c0
00c0
00c0
00c0
00c0
00c0
01c0
0180
0180
0180
0180
0380
0380
0180
01c0
0380
0700
0600
0600
0e00
0c00
0c00
0c00
1c00
1800
1800
3800
3000
f000
4000
ENDCHAR
STARTCHAR asciitilde
ENCODING 126
SWIDTH 606 0
DWIDTH 20 0
BBX 17 5 1 6
BITMAP
1e0100
3fc380
7fff00
e1fe00
403c00
ENDCHAR
STARTCHAR nobreakspace
ENCODING 160
SWIDTH 278 0
DWIDTH 9 0
BBX 1 1 1 0
BITMAP
00
ENDCHAR
STARTCHAR Aogonek
ENCODING 161
SWIDTH 704 0
DWIDTH 22 0
BBX 25 30 -3 -5
BITMAP
0000c000
0001c000
0001c000
0003c000
0007c000
0007e000
000de000
000de000
0018e000
0018e000
0030f000
0070f000
0060f000
00c0f000
00c07000
01fff800
01fff800
03007800
03007800
06003800
0e003c00
0c003c00
1c003c00
3e007e00
ff81ff80
000c0000
00180000
00300000
003b0000
001e0000
ENDCHAR
STARTCHAR breve
ENCODING 162
SWIDTH 333 0
DWIDTH 12 0
BBX 10 4 1 17
BITMAP
c0c0
c180
7f00
1c00
ENDCHAR
STARTCHAR Lstroke
ENCODING 163
SWIDTH 667 0
DWIDTH 21 0
BBX 22 25 -1 0
BITMAP
07ff00
00fc00
00f000
00f000
00f000
00e000
01e000
01e1c0
01e700
01dc00
03f000
03c000
07c000
1f8000
778000
478000
07800c
07000c
0f001c
0f0018
0f0038
0e0078
1e00f0
3f07f0
fffff0
ENDCHAR
STARTCHAR currency
ENCODING 164
SWIDTH 606 0
DWIDTH 19 0
BBX 16 16 1 4
BITMAP
c7e3
ffff
7c3e
700e
6006
e007
c003
c003
c003
c003
e007
6006
700e
7c3e
ffff
c7e3
ENDCHAR
STARTCHAR Lcaron
ENCODING 165
SWIDTH 660 0
DWIDTH 22 0
BBX 23 28 -1 0
BITMAP
00000c
00001e
00001e
07ff1e
01fc04
00f00c
00f018
00f030
00e060
01e000
01e000
01e000
01c000
03c000
03c000
03c000
038000
078000
078000
07800c
07000c
0f001c
0f0018
0f0038
0e0078
1f00f0
3f87f0
fffff0
ENDCHAR
STARTCHAR Sacute
ENCODING 166
SWIDTH 667 0
DWIDTH 22 0
BBX 21 32 0 0
BITMAP
000018
000038
000078
0000e0
000180
000300
000000
007f18
01e398
0380f8
070078
060070
0e0030
0e0030
0f0020
0f8020
0fe000
07f800
07fe00
01ff80
007fc0
001fc0
2007e0
2001e0
6000e0
6000e0
7000e0
7000c0
7801c0
fe0380
cf8f00
c1fc00
ENDCHAR
STARTCHAR section
ENCODING 167
SWIDTH 500 0
DWIDTH 17 0
BBX 17 30 -1 -5
BITMAP
007e00
01c700
018380
038780
038780
038300
01c000
01e000
00e000
0ff000
1cf800
383c00
303c00
381e00
380e00
380e00
3c0600
1e0600
0f0e00
0f9c00
07f800
03c000
03c000
01e000
60e000
70e000
f0e000
60c000
71c000
3f0000
ENDCHAR
STARTCHAR diaeresis
ENCODING 168
SWIDTH 333 0
DWIDTH 11 0
BBX 9 3 3 19
BITMAP
6300
f780
6300
ENDCHAR
STARTCHAR Scaron
ENCODING 169
SWIDTH 667 0
DWIDTH 22 0
BBX 21 32 0 0
BITMAP
000818
000c30
000460
0007c0
000380
000300
000000
007f18
01e398
0380f8
070078
060070
0e0030
0e0030
0f0020
0f8020
0fe000
07f800
07fe00
01ff80
007fc0
001fc0
2007e0
2001e0
6000e0
6000e0
7000e0
7000c0
7801c0
fe0380
cf8f00
c1fc00
ENDCHAR
STARTCHAR Scedilla
ENCODING 170
SWIDTH 667 0
DWIDTH 22 0
BBX 21 32 0 -7
BITMAP
007f18
01e398
0380f8
070078
060070
0e0030
0e0030
0f0020
0f8020
0fe000
07f800
07fe00
01ff80
007fc0
001fc0
2007e0
2001e0
6000e0
6000e0
7000e0
7000c0
7801c0
fe0380
cf8f00
c1fc00
001000
002000
007800
000c00
000c00
009c00
007800
ENDCHAR
STARTCHAR Tcaron
ENCODING 171
SWIDTH 685 0
DWIDTH 22 0
BBX 23 32 1 0
BITMAP
001030
001860
0008c0
000f80
000700
000600
000000
3ffffe
3f3e7e
3c3c1c
783c1c
703c1c
603818
607818
807810
807810
007000
00f000
00f000
00f000
01e000
01e000
01e000
01e000
03c000
03c000
03c000
038000
078000
078000
0fc000
7ff800
ENDCHAR
STARTCHAR Zacute
ENCODING 172
SWIDTH 667 0
DWIDTH 22 0
BBX 23 32 -1 0
BITMAP
000018
000038
000078
0000e0
000180
000300
000000
03fffe
03f03e
07c07c
0700f8
0601f0
0e01e0
0c03e0
0807c0
000f80
000f00
001e00
003e00
007c00
00f800
00f000
01f000
03e008
07c018
0f8038
0f0030
1f0070
3e00f0
7c01e0
f807e0
ffffe0
ENDCHAR
STARTCHAR hyphen
ENCODING 173
SWIDTH 333 0
DWIDTH 11 0
BBX 8 3 1 7
BITMAP
ff
ff
ff
ENDCHAR
STARTCHAR Zcaron
ENCODING 174
SWIDTH 667 0
DWIDTH 22 0
BBX 23 32 -1 0
BITMAP
000818
000c30
000460
0007c0
000380
000300
000000
03fffe
03f03e
07c07c
0700f8
0601f0
0e01e0
0c03e0
0807c0
000f80
000f00
001e00
003e00
007c00
00f800
00f000
01f000
03e008
07c018
0f8038
0f0030
1f0070
3e00f0
7c01e0
f807e0
ffffe0
ENDCHAR
STARTCHAR Zabovedot
ENCODING 175
SWIDTH 667 0
DWIDTH 22 0
BBX 23 29 -1 0
BITMAP
000300
000780
000300
000000
03fffe
03f03e
07c07c
0700f8
0601f0
0e01e0
0c03e0
0807c0
000f80
000f00
001e00
003e00
007c00
00f800
00f000
01f000
03e008
07c018
0f8038
0f0030
1f0070
3e00f0
7c01e0
f807e0
ffffe0
ENDCHAR
STARTCHAR degree
ENCODING 176
SWIDTH 400 0
DWIDTH 13 0
BBX 10 9 4 15
BITMAP
3f00
7380
c0c0
c0c0
8040
c0c0
c0c0
7380
3f00
ENDCHAR
STARTCHAR aogonek
ENCODING 177
SWIDTH 574 0
DWIDTH 18 0
BBX 17 21 0 -5
BITMAP
03c300
0fe700
1e3700
3c1e00
381e00
781e00
701c00
f01c00
e01c00
e03800
e03800
e03800
e07880
f0f980
7bbf00
3e1c00
00c000
018000
030000
03b000
01e000
ENDCHAR
STARTCHAR ogonek
ENCODING 178
SWIDTH 333 0
DWIDTH 11 0
BBX 6 5 2 -5
BITMAP
30
60
c0
ec
78
ENDCHAR
STARTCHAR lstroke
ENCODING 179
SWIDTH 333 0
DWIDTH 10 0
BBX 10 25 0 0
BITMAP
0380
0f80
0380
0700
0700
0700
0700
0e00
0ec0
0fc0
3f00
fc00
dc00
3800
3800
3800
3000
7000
7000
7100
e100
e300
e600
fc00
7000
ENDCHAR
STARTCHAR acute
ENCODING 180
SWIDTH 333 0
DWIDTH 11 0
BBX 7 6 4 17
BITMAP
06
0e
1e
38
60
c0
ENDCHAR
STARTCHAR lcaron
ENCODING 181
SWIDTH 480 0
DWIDTH 16 0
BBX 16 28 0 0
BITMAP
0006
000f
000f
038f
1f82
0786
070c
0718
0730
0700
0e00
0e00
0e00
1c00
1c00
1c00
3800
3800
3800
3000
7000
7000
7000
e100
e300
e600
fc00
7000
ENDCHAR
STARTCHAR sacute
ENCODING 182
SWIDTH 444 0
DWIDTH 14 0
BBX 14 23 0 0
BITMAP
000c
001c
003c
0070
00c0
0180
0000
07e0
1c78
3838
3038
3818
3c00
1f00
1fc0
07e0
01f0
6070
e070
e070
e060
71c0
3f80
ENDCHAR
STARTCHAR caron
ENCODING 183
SWIDTH 333 0
DWIDTH 11 0
BBX 9 6 1 17
BITMAP
8180
c300
4600
7c00
3800
3000
ENDCHAR
STARTCHAR cedilla
ENCODING 184
SWIDTH 333 0
DWIDTH 11 0
BBX 6 7 1 -7
BITMAP
10
20
78
0c
0c
9c
78
ENDCHAR
STARTCHAR scaron
ENCODING 185
SWIDTH 444 0
DWIDTH 14 0
BBX 14 23 0 0
BITMAP
040c
0618
0230
03e0
01c0
0180
0000
07e0
1c78
3838
3038
3818
3c00
1f00
1fc0
07e0
01f0
6070
e070
e070
e060
71c0
3f80
ENDCHAR
STARTCHAR scedilla
ENCODING 186
SWIDTH 444 0
DWIDTH 14 0
BBX 13 23 0 -7
BITMAP
07e0
1c78
3838
3038
3818
3c00
1f00
1fc0
07e0
01f0
6070
e070
e070
e060
71c0
3f80
0100
0200
0780
00c0
00c0
09c0
0780
ENDCHAR
STARTCHAR tcaron
ENCODING 187
SWIDTH 352 0
DWIDTH 11 0
BBX 10 32 1 0
BITMAP
0c00
1e00
1e00
1e00
0400
0c00
1800
3000
6000
0000
0380
0300
0700
0700
0e00
0e00
7fc0
1c00
1c00
1c00
3800
3800
3800
7000
7000
7000
7080
e180
e300
f600
fc00
7000
ENDCHAR
STARTCHAR zacute
ENCODING 188
SWIDTH 463 0
DWIDTH 15 0
BBX 16 23 -1 0
BITMAP
0003
0007
000f
001c
0030
0060
0000
07c3
0fff
19f6
300c
3018
0030
00e0
01c0
0780
0e00
1c00
3004
6c0c
7f98
dff0
c3e0
ENDCHAR
STARTCHAR doubleacute
ENCODING 189
SWIDTH 333 0
DWIDTH 13 0
BBX 13 6 0 17
BITMAP
0618
0e38
1c70
38e0
6180
c300
ENDCHAR
STARTCHAR zcaron
ENCODING 190
SWIDTH 463 0
DWIDTH 15 0
BBX 16 23 -1 0
BITMAP
0103
0186
008c
00f8
0070
0060
0000
07c3
0fff
19f6
300c
3018
0030
00e0
01c0
0780
0e00
1c00
3004
6c0c
7f98
dff0
c3e0
ENDCHAR
STARTCHAR zabovedot
ENCODING 191
SWIDTH 463 0
DWIDTH 15 0
BBX 16 20 -1 0
BITMAP
0060
00f0
0060
0000
07c3
0fff
19f6
300c
3018
0030
00e0
01c0
0780
0e00
1c00
3004
6c0c
7f98
dff0
c3e0
ENDCHAR
STARTCHAR Racute
ENCODING 192
SWIDTH 741 0
DWIDTH 24 0
BBX 24 33 -1 -1
BITMAP
000018
000038
000078
0000e0
000180
000300
000000
07fff0
01f8fc
00f81e
00f00e
00f00f
00e00f
01e00f
01e00f
01e01e
01c01e
03c07c
03c7f8
03ffc0
038380
0781c0
0781c0
0781e0
0701e0
0f01e0
0f01e0
0f01e0
0e01e2
1e01e6
3f01fc
ffc0fc
000078
ENDCHAR
STARTCHAR Aacute
ENCODING 193
SWIDTH 704 0
DWIDTH 22 0
BBX 25 32 -3 0
BITMAP
00000c00
00001c00
00003c00
00007000
0000c000
00018000
00000000
0000c000
0001c000
0001c000
0003c000
0007c000
0007e000
000de000
000de000
0018e000
0018e000
0030f000
0070f000
0060f000
00c0f000
00c07000
01fff800
01fff800
03007800
03007800
06003800
0e003c00
0c003c00
1c003c00
3e007e00
ff81ff80
ENDCHAR
STARTCHAR Acircumflex
ENCODING 194
SWIDTH 704 0
DWIDTH 22 0
BBX 25 32 -3 0
BITMAP
00004000
0000e000
0001f000
00031000
00061800
000c0800
00000000
0000c000
0001c000
0001c000
0003c000
0007c000
0007e000
000de000
000de000
0018e000
0018e000
0030f000
0070f000
0060f000
00c0f000
00c07000
01fff800
01fff800
03007800
03007800
06003800
0e003c00
0c003c00
1c003c00
3e007e00
ff81ff80
ENDCHAR
STARTCHAR Abreve
ENCODING 195
SWIDTH 704 0
DWIDTH 22 0
BBX 25 30 -3 0
BITMAP
00060600
00060c00
0003f800
0000e000
00000000
0000c000
0001c000
0001c000
0003c000
0007c000
0007e000
000de000
000de000
0018e000
0018e000
0030f000
0070f000
0060f000
00c0f000
00c07000
01fff800
01fff800
03007800
03007800
06003800
0e003c00
0c003c00
1c003c00
3e007e00
ff81ff80
ENDCHAR
STARTCHAR Adiaeresis
ENCODING 196
SWIDTH 704 0
DWIDTH 22 0
BBX 25 30 -3 0
BITMAP
00031800
0007bc00
00031800
00000000
00000000
0000c000
0001c000
0001c000
0003c000
0007c000
0007e000
000de000
000de000
0018e000
0018e000
0030f000
0070f000
0060f000
00c0f000
00c07000
01fff800
01fff800
03007800
03007800
06003800
0e003c00
0c003c00
1c003c00
3e007e00
ff81ff80
ENDCHAR
STARTCHAR Lacute
ENCODING 197
SWIDTH 667 0
DWIDTH 21 0
BBX 22 32 -1 0
BITMAP
0000c0
0001c0
0003c0
000700
000c00
001800
000000
07ff00
01fc00
00f000
00f000
00f000
00e000
01e000
01e000
01e000
01c000
03c000
03c000
03c000
038000
078000
078000
07800c
07000c
0f001c
0f0018
0f0038
0e0078
1f00f0
3f87f0
fffff0
ENDCHAR
STARTCHAR Cacute
ENCODING 198
SWIDTH 722 0
DWIDTH 23 0
BBX 22 32 1 0
BITMAP
000018
000038
000078
0000e0
000180
000300
000000
003f04
01f3cc
03c0fc
07803c
0f003c
1e0038
1e0018
3c0018
7c0010
780010
780000
f80000
f80000
f00000
f00000
f00000
f00000
f00000
f00020
780060
780040
3c01c0
3f0380
0fcf00
03fc00
ENDCHAR
STARTCHAR Ccedilla
ENCODING 199
SWIDTH 722 0
DWIDTH 23 0
BBX 22 32 1 -7
BITMAP
007f80
01f1cc
03c07c
07803c
0f003c
1e0038
1e0018
3c0018
7c0010
780010
780000
f80000
f80000
f00000
f00000
f00000
f00000
f00000
f00020
780060
780040
3c00c0
3e0380
0f9f00
07f800
004000
008000
01e000
003000
003000
067000
03e000
ENDCHAR
STARTCHAR Ccaron
ENCODING 200
SWIDTH 722 0
DWIDTH 23 0
BBX 22 32 1 0
BITMAP
000818
000c30
000460
0007c0
000380
000300
000000
003f04
01f3cc
03c0fc
07803c
0f003c
1e0038
1e0018
3c0018
7c0010
780010
780000
f80000
f80000
f00000
f00000
f00000
f00000
f00000
f00020
780060
780040
3c01c0
3f0380
0fcf00
03fc00
ENDCHAR
STARTCHAR Eacute
ENCODING 201
SWIDTH 722 0
DWIDTH 23 0
BBX 24 32 -1 0
BITMAP
000018
000038
000078
0000e0
000180
000300
000000
07ffff
00f83f
00f00f
00f007
00f007
00f003
01e002
01e0c2
01e0c2
01e1c0
03c180
03c780
03ff80
03cf80
078700
078300
078300
078304
0f020c
0f001c
0f0018
1e0038
1e00f8
3f03f0
fffff0
ENDCHAR
STARTCHAR Eogonek
ENCODING 202
SWIDTH 722 0
DWIDTH 23 0
BBX 24 30 -1 -5
BITMAP
07ffff
00f83f
00f00f
00f007
00f007
00f003
01e042
01e0c2
01e0c0
01e1c0
03c380
03ff80
03ff80
038700
078700
078300
078200
070204
0f000c
0f0018
0f0018
1e0038
1e00f8
3f07f0
fffff0
001800
003000
006000
007600
003c00
ENDCHAR
STARTCHAR Ediaeresis
ENCODING 203
SWIDTH 722 0
DWIDTH 23 0
BBX 24 30 -1 0
BITMAP
000630
000f78
000630
000000
000000
07ffff
00f83f
00f00f
00f007
00f007
00f003
01e002
01e0c2
01e0c2
01e1c0
03c180
03c780
03ff80
03cf80
078700
078300
078300
078304
0f020c
0f001c
0f0018
1e0038
1e00f8
3f03f0
fffff0
ENDCHAR
STARTCHAR Ecaron
ENCODING 204
SWIDTH 722 0
DWIDTH 23 0
BBX 24 32 -1 0
BITMAP
00040c
000618
000230
0003e0
0001c0
000180
000000
07ffff
00f83f
00f00f
00f007
00f007
00f003
01e042
01e0c2
01e0c0
01e1c0
03c380
03ff80
03ff80
038700
078700
078300
078200
070204
0f000c
0f0018
0f0018
1e0038
1e00f8
3f07f0
fffff0
ENDCHAR
STARTCHAR Iacute
ENCODING 205
SWIDTH 407 0
DWIDTH 13 0
BBX 15 32 -1 0
BITMAP
0006
000e
001e
0038
0060
00c0
0000
07fe
01f8
00f0
00f0
00e0
01e0
01e0
01e0
01c0
03c0
03c0
03c0
0380
0780
0780
0780
0700
0f00
0f00
0f00
0e00
1e00
1e00
3f00
ffc0
ENDCHAR
STARTCHAR Icircumflex
ENCODING 206
SWIDTH 407 0
DWIDTH 13 0
BBX 15 32 -1 0
BITMAP
0018
0038
007c
00c4
0186
0302
0000
07fe
01f8
00f0
00f0
00e0
01e0
01e0
01e0
01c0
03c0
03c0
03c0
0380
0780
0780
0780
0700
0f00
0f00
0f00
0e00
1e00
1e00
3f00
ffc0
ENDCHAR
STARTCHAR Dcaron
ENCODING 207
SWIDTH 778 0
DWIDTH 26 0
BBX 26 32 -1 0
BITMAP
00040c00
00061800
00023000
0003e000
0001c000
00018000
00000000
07fff000
00fc7c00
00781f00
00780700
00f00780
00f00380
00f003c0
00f003c0
01e003c0
01e003c0
01e003c0
01e003c0
03c007c0
03c007c0
03c00780
03c00f80
07800f80
07800f00
07801f00
07801e00
0f003c00
0f007800
0f01f000
1f1fe000
ffff0000
ENDCHAR
STARTCHAR Dstroke
ENCODING 208
SWIDTH 778 0
DWIDTH 26 0
BBX 26 25 -1 0
BITMAP
07fff000
00fc3c00
00780e00
00f00700
00f00780
00f00380
00f00380
00e003c0
01e003c0
01e003c0
01e003c0
3fff03c0
3fff07c0
03c007c0
03c007c0
03800780
07800f80
07800f00
07801f00
0f001e00
0f003c00
0f007c00
0f00f000
1f07e000
ffff0000
ENDCHAR
STARTCHAR Nacute
ENCODING 209
SWIDTH 815 0
DWIDTH 27 0
BBX 30 33 -2 -1
BITMAP
00000180
00000380
00000780
00000e00
00001800
00003000
00000000
07f807fc
00f801f0
007800e0
007c00e0
00fc00c0
00de00c0
00de00c0
009f0080
018f0180
018f0180
01878180
03078100
0303c300
0303c300
0301e300
0601e200
0601e600
0600f600
0600f600
0c007c00
0c007c00
0c003c00
1c003c00
3e003800
ff801800
00001800
ENDCHAR
STARTCHAR Ncaron
ENCODING 210
SWIDTH 815 0
DWIDTH 27 0
BBX 30 33 -2 -1
BITMAP
00008180
0000c300
00004600
00007c00
00003800
00003000
00000000
07f807fc
00f801f0
007800e0
007c00e0
00fc00c0
00de00c0
00de00c0
009f0080
018f0180
018f0180
01878180
03078100
0303c300
0303c300
0301e300
0601e200
0601e600
0600f600
0600f600
0c007c00
0c007c00
0c003c00
1c003c00
3e003800
ff801800
00001800
ENDCHAR
STARTCHAR Oacute
ENCODING 211
SWIDTH 778 0
DWIDTH 26 0
BBX 24 32 1 0
BITMAP
000018
000038
000078
0000e0
000180
000300
000000
003fc0
00f8f0
03e038
07c01c
0f801e
1f000e
1e000f
3e000f
3c000f
7c000f
78000f
78001f
f8001f
f8001e
f0001e
f0003e
f0003c
f0007c
f00078
7000f8
7801f0
3803e0
3c0780
0f1f00
07fc00
ENDCHAR
STARTCHAR Ocircumflex
ENCODING 212
SWIDTH 778 0
DWIDTH 26 0
BBX 24 32 1 0
BITMAP
000180
000380
0007c0
000c40
001860
003020
000000
003fc0
00f8f0
03e038
07c01c
0f801e
1f000e
1e000f
3e000f
3c000f
7c000f
78000f
78001f
f8001f
f8001e
f0001e
f0003e
f0003c
f0007c
f00078
7000f8
7801f0
3803e0
3c0780
0f1f00
07fc00
ENDCHAR
STARTCHAR Odoubleacute
ENCODING 213
SWIDTH 778 0
DWIDTH 26 0
BBX 24 32 1 0
BITMAP
0000c3
0001c7
00038e
00071c
000c30
001860
000000
001fc0
00fcf0
03e038
07c01c
0f801e
1f000e
1e000f
3e000f
3c000f
7c000f
78000f
78001f
f8001f
f8001e
f0001e
f0003e
f0003c
f0007c
f00078
7000f8
7801f0
3803e0
3c0780
0f3f00
03f800
ENDCHAR
STARTCHAR Odiaeresis
ENCODING 214
SWIDTH 778 0
DWIDTH 26 0
BBX 24 30 1 0
BITMAP
001860
003cf0
001860
000000
000000
003fc0
00f8f0
03e038
07c01c
0f801e
1f000e
1e000f
3e000f
3c000f
7c000f
78000f
78001f
f8001f
f8001e
f0001e
f0003e
f0003c
f0007c
f00078
7000f8
7801f0
3803e0
3c0780
0f1f00
07fc00
ENDCHAR
STARTCHAR multiply
ENCODING 215
SWIDTH 606 0
DWIDTH 20 0
BBX 17 17 1 0
BITMAP
400100
e00380
700700
380e00
1c1c00
0e3800
077000
03e000
01c000
03e000
077000
0e3800
1c1c00
380e00
700700
e00380
400100
ENDCHAR
STARTCHAR Rcaron
ENCODING 216
SWIDTH 741 0
DWIDTH 24 0
BBX 24 33 -1 -1
BITMAP
000818
000c30
000460
0007c0
000380
000300
000000
07fff0
01f8fc
00f81e
00f00e
00f00f
00e00f
01e00f
01e00f
01e01e
01c01e
03c07c
03c7f8
03ffc0
038380
0781c0
0781c0
0781e0
0701e0
0f01e0
0f01e0
0f01e0
0e01e2
1e01e6
3f01fc
ffc0fc
000078
ENDCHAR
STARTCHAR Uring
ENCODING 217
SWIDTH 815 0
DWIDTH 27 0
BBX 26 32 3 0
BITMAP
00078000
000cc000
00084000
00084000
000cc000
00078000
00000000
7fe07fc0
1f801f00
0f000e00
0f000c00
1e000c00
1e000c00
1e001800
1e001800
3c001800
3c001800
3c003000
3c003000
78003000
78002000
78006000
78006000
f0006000
f0004000
f000c000
f000c000
f0018000
78038000
78070000
3e3e0000
07f80000
ENDCHAR
STARTCHAR Uacute
ENCODING 218
SWIDTH 815 0
DWIDTH 27 0
BBX 26 32 3 0
BITMAP
00003000
00007000
0000f000
0001c000
00030000
00060000
00000000
7fe07fc0
1f801f00
0f000e00
0f000c00
1e000c00
1e000c00
1e001800
1e001800
3c001800
3c001800
3c003000
3c003000
78003000
78002000
78006000
78006000
f0006000
f0004000
f000c000
f000c000
f0018000
78038000
78070000
3e1e0000
0ff80000
ENDCHAR
STARTCHAR Udoubleacute
ENCODING 219
SWIDTH 815 0
DWIDTH 27 0
BBX 26 32 3 0
BITMAP
0000c300
0001c700
00038e00
00071c00
000c3000
00186000
00000000
7fe07fc0
1f801f00
0f000e00
0f000c00
1e000c00
1e000c00
1e001800
1e001800
3c001800
3c001800
3c003000
3c003000
78003000
78002000
78006000
78006000
f0006000
f0004000
f000c000
f000c000
f0018000
78038000
78070000
3e3e0000
07f80000
ENDCHAR
STARTCHAR Udiaeresis
ENCODING 220
SWIDTH 815 0
DWIDTH 27 0
BBX 26 30 3 0
BITMAP
00186000
003cf000
00186000
00000000
00000000
7fe07fc0
1f801f00
0f000e00
0f000c00
1e000c00
1e000c00
1e001800
1e001800
3c001800
3c001800
3c003000
3c003000
78003000
78002000
78006000
78006000
f0006000
f0004000
f000c000
f000c000
f0018000
78038000
78070000
3e1e0000
0ff80000
ENDCHAR
STARTCHAR Yacute
ENCODING 221
SWIDTH 685 0
DWIDTH 23 0
BBX 25 32 1 0
BITMAP
00006000
0000e000
0001e000
00038000
00060000
000c0000
00000000
ffe1ff80
3f807e00
1f003800
0f003000
0f006000
0780e000
0780c000
03c18000
03c30000
03c70000
01e60000
01ec0000
00fc0000
00f80000
00f00000
00f00000
00f00000
01e00000
01e00000
01e00000
01e00000
03c00000
03c00000
0fe00000
3ffc0000
ENDCHAR
STARTCHAR Tcedilla
ENCODING 222
SWIDTH 685 0
DWIDTH 22 0
BBX 23 32 1 -7
BITMAP
3ffffe
3f3e7e
3c3c1c
783c1c
703c1c
603818
607818
807810
807810
007000
00f000
00f000
00f000
01e000
01e000
01e000
01e000
03c000
03c000
03c000
038000
078000
078000
0fc000
7ff800
000800
001000
003c00
000600
000600
004e00
003c00
ENDCHAR
STARTCHAR ssharp
ENCODING 223
SWIDTH 556 0
DWIDTH 19 0
BBX 20 31 -2 -6
BITMAP
000f80
0038e0
007060
00e070
00c070
01c070
018070
0380e0
0380e0
0383c0
031f00
070600
070380
070180
0e01c0
0e01c0
0e01c0
0e03c0
1c03c0
1c03c0
1cc380
1de780
39e700
39ce00
38f800
700000
700000
700000
e00000
e00000
e00000
ENDCHAR
STARTCHAR racute
ENCODING 224
SWIDTH 444 0
DWIDTH 14 0
BBX 14 23 0 0
BITMAP
000c
001c
003c
0070
00c0
0180
0000
0e78
7efc
0d9c
0d1c
1f08
1e00
1c00
1c00
3800
3800
3800
7000
7000
7000
f000
e000
ENDCHAR
STARTCHAR aacute
ENCODING 225
SWIDTH 574 0
DWIDTH 18 0
BBX 17 23 0 0
BITMAP
000300
000700
000f00
001c00
003000
006000
000000
03c300
0fe700
1e3700
3c1e00
381e00
781e00
701c00
f01c00
e01c00
e03800
e03800
e03880
e07980
f0fb00
7bbf00
3e1c00
ENDCHAR
STARTCHAR acircumflex
ENCODING 226
SWIDTH 574 0
DWIDTH 18 0
BBX 17 23 0 0
BITMAP
003000
007000
00f800
018800
030c00
060400
000000
03c300
0fe700
1e3700
3c1e00
381e00
781e00
701c00
f01c00
e01c00
e03800
e03800
e03880
e07980
f0fb00
7bbf00
3e1c00
ENDCHAR
STARTCHAR abreve
ENCODING 227
SWIDTH 574 0
DWIDTH 18 0
BBX 17 21 0 0
BITMAP
060600
060c00
03f800
00e000
000000
03c300
0fe700
1e3700
3c1e00
381e00
781e00
701c00
f01c00
e01c00
e03800
e03800
e03800
e07880
f0f980
7bbf00
3e1c00
ENDCHAR
STARTCHAR adiaeresis
ENCODING 228
SWIDTH 574 0
DWIDTH 18 0
BBX 17 21 0 0
BITMAP
018c00
03de00
018c00
000000
000000
03c300
0fe700
1e3700
3c1e00
381e00
781e00
701c00
f01c00
e01c00
e03800
e03800
e03880
e07980
f0fb00
7bbf00
3e1c00
ENDCHAR
STARTCHAR lacute
ENCODING 229
SWIDTH 333 0
DWIDTH 9 0
BBX 13 32 0 0
BITMAP
0018
0038
0078
00e0
0180
0300
0000
0380
1f80
0780
0700
0700
0700
0700
0e00
0e00
0e00
1c00
1c00
1c00
3800
3800
3800
3000
7000
7000
7000
e100
e300
e600
fc00
7000
ENDCHAR
STARTCHAR cacute
ENCODING 230
SWIDTH 444 0
DWIDTH 14 0
BBX 15 23 0 0
BITMAP
0006
000e
001e
0038
0060
00c0
0000
03e0
0e30
1c18
3878
7878
7030
f000
e000
e000
e000
e000
e000
e030
7060
7dc0
1f00
ENDCHAR
STARTCHAR ccedilla
ENCODING 231
SWIDTH 444 0
DWIDTH 14 0
BBX 13 23 0 -7
BITMAP
03e0
0e30
1c18
3878
7878
7030
f000
f000
e000
e000
e000
e000
e030
7060
7dc0
1f00
0200
0400
0f00
0180
0180
1380
0f00
ENDCHAR
STARTCHAR ccaron
ENCODING 232
SWIDTH 444 0
DWIDTH 14 0
BBX 15 23 0 0
BITMAP
0206
030c
0118
01f0
00e0
00c0
0000
03e0
0e30
1c18
3878
7878
7030
f000
e000
e000
e000
e000
e000
e030
7060
7dc0
1f00
ENDCHAR
STARTCHAR eacute
ENCODING 233
SWIDTH 444 0
DWIDTH 14 0
BBX 13 23 0 0
BITMAP
0018
0038
0078
00e0
0180
0300
0000
03e0
0e70
1c38
3838
3838
7070
70e0
f1c0
e700
fc00
e000
e000
e030
7060
7bc0
1f00
ENDCHAR
STARTCHAR eogonek
ENCODING 234
SWIDTH 444 0
DWIDTH 14 0
BBX 13 21 0 -5
BITMAP
03e0
0e70
1c38
3838
3838
7070
70e0
f1c0
e700
fc00
e000
e000
e030
7060
7bc0
1f00
0300
0600
0c00
0ec0
0780
ENDCHAR
STARTCHAR ediaeresis
ENCODING 235
SWIDTH 444 0
DWIDTH 14 0
BBX 13 21 0 0
BITMAP
0630
0f78
0630
0000
0000
03e0
0e70
1c38
3838
3838
7070
70e0
f1c0
e700
fc00
e000
e000
e030
7060
7bc0
1f00
ENDCHAR
STARTCHAR ecaron
ENCODING 236
SWIDTH 444 0
DWIDTH 14 0
BBX 15 23 0 0
BITMAP
0206
030c
0118
01f0
00e0
00c0
0000
03e0
0e70
1c38
3838
3838
7070
70e0
f1c0
e700
fc00
e000
e000
e030
7060
7bc0
1f00
ENDCHAR
STARTCHAR iacute
ENCODING 237
SWIDTH 333 0
DWIDTH 11 0
BBX 11 23 1 0
BITMAP
0060
00e0
01e0
0380
0600
0c00
0000
0e00
7e00
1c00
1c00
1c00
3800
3800
3800
7000
7000
7100
e300
e200
e600
fc00
7000
ENDCHAR
STARTCHAR icircumflex
ENCODING 238
SWIDTH 333 0
DWIDTH 11 0
BBX 10 23 1 0
BITMAP
0300
0700
0f80
1880
30c0
6040
0000
0e00
7e00
1c00
1c00
1c00
3800
3800
3800
7000
7000
7100
e300
e200
e600
fc00
7000
ENDCHAR
STARTCHAR dcaron
ENCODING 239
SWIDTH 810 0
DWIDTH 27 0
BBX 26 28 0 0
BITMAP
00000180
000003c0
000003c0
0000e3c0
0003e080
0000e180
0000e300
0001c600
0001cc00
0001c000
0003c000
00038000
01f38000
0f1b8000
1e0f0000
3c0f0000
380f0000
780e0000
700e0000
f00e0000
f00e0000
e01c0000
e01c0000
e03c0000
e03c4000
7078c000
79df8000
3f8e0000
ENDCHAR
STARTCHAR dstroke
ENCODING 240
SWIDTH 660 0
DWIDTH 22 0
BBX 21 25 0 0
BITMAP
0000e0
0003e0
0000e0
0000e0
0001c0
000ff8
000ff8
0003c0
000380
01f380
0f1b80
1e0f00
3c0f00
380f00
780e00
700e00
f00e00
f00e00
e01c00
e01c00
e03c00
e03c40
7078c0
79df80
3f8e00
ENDCHAR
STARTCHAR nacute
ENCODING 241
SWIDTH 611 0
DWIDTH 20 0
BBX 17 23 1 0
BITMAP
000600
000e00
001e00
003800
006000
00c000
000000
1c3800
7cfc00
1d8e00
1f0e00
1e0e00
3c1c00
381c00
381c00
783800
703800
703800
703080
e07180
e07300
e07e00
e03800
ENDCHAR
STARTCHAR ncaron
ENCODING 242
SWIDTH 611 0
DWIDTH 20 0
BBX 17 23 1 0
BITMAP
020600
030c00
011800
01f000
00e000
00c000
000000
1c3800
7cfc00
1d8e00
1f0e00
1e0e00
3c1c00
381c00
381c00
783800
703800
703800
703080
e07180
e07300
e07e00
e03800
ENDCHAR
STARTCHAR oacute
ENCODING 243
SWIDTH 500 0
DWIDTH 16 0
BBX 15 23 0 0
BITMAP
000c
001c
003c
0070
00c0
0180
0000
03f0
0e38
1c1c
380c
780e
700e
700e
f00e
e01e
e01c
e01c
e038
e038
7070
38e0
1f80
ENDCHAR
STARTCHAR ocircumflex
ENCODING 244
SWIDTH 500 0
DWIDTH 16 0
BBX 15 23 0 0
BITMAP
0020
0070
00f8
0188
030c
0604
0000
03f0
0e38
1c1c
380c
780e
700e
700e
f00e
e01e
e01c
e01c
e038
e038
7070
38e0
1f80
ENDCHAR
STARTCHAR odoubleacute
ENCODING 245
SWIDTH 500 0
DWIDTH 16 0
BBX 18 23 0 0
BITMAP
0030c0
0071c0
00e380
01c700
030c00
061800
000000
03f000
0e3800
1c1c00
380c00
780e00
700e00
700e00
f00e00
e01e00
e01c00
e01c00
e03800
e03800
707000
38e000
1f8000
ENDCHAR
STARTCHAR odiaeresis
ENCODING 246
SWIDTH 500 0
DWIDTH 16 0
BBX 15 21 0 0
BITMAP
0318
07bc
0318
0000
0000
03f0
0e38
1c1c
380c
780e
700e
700e
f00e
e01e
e01c
e01c
e038
e038
7070
38e0
1f80
ENDCHAR
STARTCHAR division
ENCODING 247
SWIDTH 606 0
DWIDTH 20 0
BBX 18 14 1 1
BITMAP
00c000
01e000
01e000
00c000
000000
000000
ffffc0
ffffc0
000000
000000
00c000
01e000
01e000
00c000
ENDCHAR
STARTCHAR rcaron
ENCODING 248
SWIDTH 444 0
DWIDTH 14 0
BBX 14 23 0 0
BITMAP
040c
0618
0230
03e0
01c0
0180
0000
0e78
7efc
0d9c
0d1c
1f08
1e00
1c00
1c00
3800
3800
3800
7000
7000
7000
f000
e000
ENDCHAR
STARTCHAR uring
ENCODING 249
SWIDTH 611 0
DWIDTH 20 0
BBX 17 23 1 0
BITMAP
01e000
033000
021000
021000
033000
01e000
000000
1e0700
7c0f00
1c0e00
1c0e00
381e00
381c00
381c00
703c00
703800
707800
e07800
e0f180
e1f300
e77700
fe7c00
783800
ENDCHAR
STARTCHAR uacute
ENCODING 250
SWIDTH 611 0
DWIDTH 20 0
BBX 17 23 1 0
BITMAP
000c00
001c00
003c00
007000
00c000
018000
000000
1c0700
7c0f00
1c0e00
1c0e00
381e00
381c00
381c00
703c00
703800
707800
e07800
e0f180
e1f300
e37700
fe7c00
783800
ENDCHAR
STARTCHAR udoubleacute
ENCODING 251
SWIDTH 611 0
DWIDTH 20 0
BBX 18 23 1 0
BITMAP
0030c0
0071c0
00e380
01c700
030c00
061800
000000
1e0700
7c0f00
1c0e00
1c0e00
381e00
381c00
381c00
703c00
703800
707800
e07800
e0f180
e1f300
e77700
fe7c00
783800
ENDCHAR
STARTCHAR udiaeresis
ENCODING 252
SWIDTH 611 0
DWIDTH 20 0
BBX 17 21 1 0
BITMAP
031800
07bc00
031800
000000
000000
1c0700
7c0f00
1c0e00
1c0e00
381e00
381c00
381c00
703c00
703800
707800
e07800
e0f180
e1f300
e37700
fe7c00
783800
ENDCHAR
STARTCHAR yacute
ENCODING 253
SWIDTH 500 0
DWIDTH 16 0
BBX 18 30 -3 -7
BITMAP
000300
000700
000f00
001c00
003000
006000
000000
0701c0
0f81c0
0f81c0
1bc1c0
11c180
11c180
01c100
00e300
00e200
00e600
00e400
007c00
007800
007800
007000
006000
006000
00c000
00c000
e18000
e30000
e60000
7c0000
ENDCHAR
STARTCHAR tcedilla
ENCODING 254
SWIDTH 352 0
DWIDTH 11 0
BBX 10 29 1 -7
BITMAP
0380
0300
0700
0700
0e00
0e00
7fc0
1c00
1c00
1c00
3800
3800
3800
7000
7000
7000
7080
e180
e300
f600
fc00
7000
0400
0800
1e00
0300
0300
2700
1e00
ENDCHAR
STARTCHAR abovedot
ENCODING 255
SWIDTH 333 0
DWIDTH 11 0
BBX 4 3 3 17
BITMAP
60
f0
60
ENDCHAR
ENDFONT
