STARTFONT 2.1
FONT -Adobe-Times-Bold-I-Normal--25-180-100-100-P-128-ISO8859-2
SIZE 18 100 100
FONTBOUNDINGBOX 31 28 -5 -6
COMMENT $XConsortium: timBI18.bdf,v 1.7 95/01/26 17:58:44 gildea Exp $
COMMENT 
COMMENT +
COMMENT  Copyright 1984-1989, 1994 Adobe Systems Incorporated.
COMMENT  Copyright 1988, 1994 Digital Equipment Corporation.
COMMENT
COMMENT  Adobe is a trademark of Adobe Systems Incorporated which may be
COMMENT  registered in certain jurisdictions.
COMMENT  Permission to use these trademarks is hereby granted only in
COMMENT  association with the images described in this file.
COMMENT
COMMENT  Permission to use, copy, modify, distribute and sell this software
COMMENT  and its documentation for any purpose and without fee is hereby
COMMENT  granted, provided that the above copyright notices appear in all
COMMENT  copies and that both those copyright notices and this permission
COMMENT  notice appear in supporting documentation, and that the names of
COMMENT  Adobe Systems and Digital Equipment Corporation not be used in
COMMENT  advertising or publicity pertaining to distribution of the software
COMMENT  without specific, written prior permission.  Adobe Systems and
COMMENT  Digital Equipment Corporation make no representations about the
COMMENT  suitability of this software for any purpose.  It is provided "as
COMMENT  is" without express or implied warranty.
COMMENT -
COMMENT  
COMMENT  Translation to ISO8859-2 by Cub Soft;  Petr.Kolar@vslib.cz
COMMENT  
STARTPROPERTIES 28
FOUNDRY "Adobe"
FAMILY_NAME "Times"
WEIGHT_NAME "Bold"
SLANT "I"
SETWIDTH_NAME "Normal"
ADD_STYLE_NAME ""
PIXEL_SIZE 25
POINT_SIZE 180
RESOLUTION_X 100
RESOLUTION_Y 100
SPACING "P"
AVERAGE_WIDTH 128
CHARSET_REGISTRY "ISO8859"
CHARSET_ENCODING "2"
CAP_HEIGHT 17
X_HEIGHT 12
FONT_ASCENT 20
FONT_DESCENT 6
FACE_NAME "Times Bold Italic"
COPYRIGHT "Copyright (c) 1984, 1987 Adobe Systems Incorporated. All Rights Reserved. Copyright (c) 1988, 1991 Digital Equipment Corporation. All Rights Reserved., Copyright 1996 Cub Soft"
NOTICE "Times is a trademark of Linotype-Hell AG and/or its subsidiaries."
_DEC_DEVICE_FONTNAMES "PS=Times-BoldItalic"
_DEC_PRODUCTINFO "DECwindows Fonts V2.2-1, 08-Jan-1992"
DEFAULT_CHAR 32
RELATIVE_SETWIDTH 50
RELATIVE_WEIGHT 70
CHARSET_COLLECTIONS "ASCII ISO8859-2 ADOBE-STANDARD"
FULL_NAME "Times Bold Italic"
ENDPROPERTIES
CHARS 191
STARTCHAR space
ENCODING 32
SWIDTH 250 0
DWIDTH 6 0
BBX 1 1 0 0
BITMAP
00
ENDCHAR
STARTCHAR exclam
ENCODING 33
SWIDTH 389 0
DWIDTH 10 0
BBX 8 17 1 0
BITMAP
06
0f
0f
0e
1e
1c
1c
1c
18
38
30
30
00
00
e0
e0
e0
ENDCHAR
STARTCHAR quotedbl
ENCODING 34
SWIDTH 555 0
DWIDTH 14 0
BBX 8 6 4 11
BITMAP
63
e7
e7
c6
c6
84
ENDCHAR
STARTCHAR numbersign
ENCODING 35
SWIDTH 500 0
DWIDTH 15 0
BBX 15 17 0 0
BITMAP
0318
0318
0318
0630
0630
3ffe
3ffe
0630
0c60
0c60
fff8
fff8
18c0
18c0
3180
3180
3180
ENDCHAR
STARTCHAR dollar
ENCODING 36
SWIDTH 500 0
DWIDTH 12 0
BBX 13 21 0 -3
BITMAP
0080
0080
07e8
0cb8
1890
1910
1d00
1f00
0f80
07c0
03c0
05e0
04e0
44e0
c8e0
c9c0
f380
7e00
1000
2000
2000
ENDCHAR
STARTCHAR percent
ENCODING 37
SWIDTH 833 0
DWIDTH 20 0
BBX 17 17 1 0
BITMAP
0e0c00
3ff800
791800
713000
f13000
e36000
e26000
c6c700
ecdf80
79bc80
01b880
037880
037180
067100
066300
0c7600
0c3c00
ENDCHAR
STARTCHAR ampersand
ENCODING 38
SWIDTH 778 0
DWIDTH 19 0
BBX 17 17 1 0
BITMAP
01f000
039800
071800
071800
073000
07e000
03c000
078000
1f8f00
3dc600
79c400
f1ec00
f0f800
f0f000
f87180
7fff00
3f1e00
ENDCHAR
STARTCHAR apostrophe
ENCODING 39
SWIDTH 333 0
DWIDTH 8 0
BBX 4 6 3 11
BITMAP
70
70
70
30
60
c0
ENDCHAR
STARTCHAR parenleft
ENCODING 40
SWIDTH 333 0
DWIDTH 8 0
BBX 9 22 0 -5
BITMAP
0180
0300
0600
0c00
1800
3800
3000
7000
7000
6000
e000
e000
e000
e000
e000
e000
e000
6000
6000
3000
3000
1800
ENDCHAR
STARTCHAR parenright
ENCODING 41
SWIDTH 333 0
DWIDTH 8 0
BBX 9 22 -1 -5
BITMAP
0c00
0600
0600
0300
0300
0380
0380
0380
0380
0380
0380
0380
0300
0700
0700
0600
0e00
0c00
1800
3000
6000
c000
ENDCHAR
STARTCHAR asterisk
ENCODING 42
SWIDTH 500 0
DWIDTH 10 0
BBX 8 9 2 9
BITMAP
18
18
cb
db
3c
db
cb
18
18
ENDCHAR
STARTCHAR plus
ENCODING 43
SWIDTH 570 0
DWIDTH 13 0
BBX 12 12 0 0
BITMAP
0600
0600
0600
0600
0600
fff0
fff0
0600
0600
0600
0600
0600
ENDCHAR
STARTCHAR comma
ENCODING 44
SWIDTH 250 0
DWIDTH 7 0
BBX 4 6 0 -3
BITMAP
70
70
70
30
60
c0
ENDCHAR
STARTCHAR minus
ENCODING 45
SWIDTH 606 0
DWIDTH 15 0
BBX 11 2 1 5
BITMAP
ffe0
ffe0
ENDCHAR
STARTCHAR period
ENCODING 46
SWIDTH 250 0
DWIDTH 6 0
BBX 3 3 0 0
BITMAP
e0
e0
e0
ENDCHAR
STARTCHAR slash
ENCODING 47
SWIDTH 278 0
DWIDTH 8 0
BBX 8 17 0 0
BITMAP
03
06
06
06
0c
0c
0c
18
18
18
30
30
30
60
60
60
c0
ENDCHAR
STARTCHAR zero
ENCODING 48
SWIDTH 500 0
DWIDTH 12 0
BBX 12 17 0 0
BITMAP
03c0
0f60
1c60
3c70
3870
7870
7070
70f0
70e0
f0e0
e0e0
e1e0
e1c0
e3c0
6380
6f00
3e00
ENDCHAR
STARTCHAR one
ENCODING 49
SWIDTH 500 0
DWIDTH 12 0
BBX 10 17 0 0
BITMAP
01c0
0fc0
07c0
0380
0380
0780
0700
0700
0f00
0f00
0e00
0e00
1e00
1c00
1c00
3e00
ff00
ENDCHAR
STARTCHAR two
ENCODING 50
SWIDTH 500 0
DWIDTH 12 0
BBX 12 17 -1 0
BITMAP
03e0
0ff0
18f0
1070
0070
0070
0060
00e0
00c0
0180
0300
0600
0c00
1820
3fe0
7fc0
ff80
ENDCHAR
STARTCHAR three
ENCODING 51
SWIDTH 500 0
DWIDTH 12 0
BBX 12 17 0 0
BITMAP
07c0
1de0
10e0
00f0
00e0
01e0
0780
1f00
1fc0
03e0
01e0
01e0
00e0
41c0
e1c0
f380
7e00
ENDCHAR
STARTCHAR four
ENCODING 52
SWIDTH 500 0
DWIDTH 12 0
BBX 12 17 0 0
BITMAP
0030
0070
00e0
01e0
03e0
06e0
0dc0
19c0
33c0
6380
7fe0
ffc0
ffc0
0700
0700
0f00
0f00
ENDCHAR
STARTCHAR five
ENCODING 53
SWIDTH 500 0
DWIDTH 12 0
BBX 13 17 0 0
BITMAP
03f8
07f0
07f0
0c00
1800
1f00
3fc0
3fc0
07e0
01e0
00e0
00e0
00e0
c1c0
e180
e380
3e00
ENDCHAR
STARTCHAR six
ENCODING 54
SWIDTH 500 0
DWIDTH 12 0
BBX 12 17 1 0
BITMAP
0070
01c0
0780
0f00
1e00
3c00
3f00
7d80
71c0
f0c0
e1c0
e1c0
e1c0
e3c0
6780
7f00
1e00
ENDCHAR
STARTCHAR seven
ENCODING 55
SWIDTH 500 0
DWIDTH 12 0
BBX 12 17 1 0
BITMAP
1ff0
3ff0
7fe0
6060
00c0
0180
0380
0300
0600
0e00
0c00
1800
3800
3000
6000
e000
c000
ENDCHAR
STARTCHAR eight
ENCODING 56
SWIDTH 500 0
DWIDTH 12 0
BBX 11 17 1 0
BITMAP
0f80
1cc0
3860
3860
3860
38c0
1f80
0f00
1f00
3780
6380
c3c0
c1c0
c1c0
e380
7780
3e00
ENDCHAR
STARTCHAR nine
ENCODING 57
SWIDTH 500 0
DWIDTH 12 0
BBX 12 17 0 0
BITMAP
07c0
1ee0
1c70
3870
3870
3870
3870
3870
18f0
0fe0
03e0
01c0
03c0
0780
0f00
3c00
e000
ENDCHAR
STARTCHAR colon
ENCODING 58
SWIDTH 333 0
DWIDTH 8 0
BBX 5 11 1 0
BITMAP
38
38
38
00
00
00
00
00
e0
e0
e0
ENDCHAR
STARTCHAR semicolon
ENCODING 59
SWIDTH 333 0
DWIDTH 8 0
BBX 6 14 0 -3
BITMAP
1c
1c
1c
00
00
00
00
00
70
70
70
30
60
c0
ENDCHAR
STARTCHAR less
ENCODING 60
SWIDTH 570 0
DWIDTH 12 0
BBX 10 10 1 1
BITMAP
01c0
0780
1e00
7800
e000
e000
7800
1e00
0780
01c0
ENDCHAR
STARTCHAR equal
ENCODING 61
SWIDTH 570 0
DWIDTH 13 0
BBX 10 6 1 3
BITMAP
ffc0
ffc0
0000
0000
ffc0
ffc0
ENDCHAR
STARTCHAR greater
ENCODING 62
SWIDTH 570 0
DWIDTH 12 0
BBX 10 10 1 1
BITMAP
e000
7800
1e00
0780
01c0
01c0
0780
1e00
7800
e000
ENDCHAR
STARTCHAR question
ENCODING 63
SWIDTH 500 0
DWIDTH 12 0
BBX 10 17 2 0
BITMAP
1f00
3380
71c0
71c0
01c0
01c0
0380
0700
0e00
1800
3000
2000
0000
0000
e000
e000
e000
ENDCHAR
STARTCHAR at
ENCODING 64
SWIDTH 832 0
DWIDTH 23 0
BBX 21 21 1 -4
BITMAP
007f00
01c1c0
070060
0e0030
1c1d90
387f98
70f388
71c708
e38708
e38708
e70e18
e70e10
e70e30
e79c60
e3fec0
61e700
700000
380000
1e0000
0f8300
03fc00
ENDCHAR
STARTCHAR A
ENCODING 65
SWIDTH 667 0
DWIDTH 16 0
BBX 17 17 -2 0
BITMAP
000200
000600
000e00
001e00
003e00
006e00
00ce00
018e00
030e00
060e00
0ffe00
0ffe00
180e00
300e00
600e00
e00f00
f01f80
ENDCHAR
STARTCHAR B
ENCODING 66
SWIDTH 667 0
DWIDTH 16 0
BBX 15 17 0 0
BITMAP
0ff8
079c
078e
070e
0f0e
0f0e
0e1c
1ff8
1e60
1c38
3c1c
3c1c
381c
783c
7878
71f0
ffc0
ENDCHAR
STARTCHAR C
ENCODING 67
SWIDTH 667 0
DWIDTH 16 0
BBX 16 17 0 0
BITMAP
03fb
0f8f
1e06
3c02
3802
7800
7000
f000
f000
f000
f000
f000
f000
7800
7c0c
3ff8
0fc0
ENDCHAR
STARTCHAR D
ENCODING 68
SWIDTH 722 0
DWIDTH 19 0
BBX 18 17 0 0
BITMAP
0ff800
079f00
078780
070780
0f03c0
0f03c0
0e03c0
1e03c0
1e03c0
1c03c0
3c0780
3c0780
380f00
781e00
783c00
70f800
ffc000
ENDCHAR
STARTCHAR E
ENCODING 69
SWIDTH 667 0
DWIDTH 16 0
BBX 17 17 0 0
BITMAP
0fff80
078380
078100
070100
0f0000
0f0800
0e1800
1e3000
1ff000
1c7000
3c2000
3c2000
380200
780600
780e00
703c00
fffc00
ENDCHAR
STARTCHAR F
ENCODING 70
SWIDTH 667 0
DWIDTH 16 0
BBX 17 17 0 0
BITMAP
0fff80
078380
078100
070100
0f0000
0f0800
0e1800
1e3000
1ff000
1c7000
3c2000
3c2000
380000
780000
780000
700000
f80000
ENDCHAR
STARTCHAR G
ENCODING 71
SWIDTH 722 0
DWIDTH 18 0
BBX 17 17 1 0
BITMAP
03fd80
0f8780
1e0300
3c0100
380100
780000
700000
f00000
f00000
f01f80
f00f00
f00e00
f00e00
781e00
7c1c00
3e3c00
0ff000
ENDCHAR
STARTCHAR H
ENCODING 72
SWIDTH 778 0
DWIDTH 19 0
BBX 21 17 -1 0
BITMAP
07e3f8
03c0e0
03c1e0
0381e0
0781c0
0783c0
0703c0
0f0380
0fff80
0e0780
1e0700
1e0f00
1c0f00
3c0e00
3c0e00
381e00
fc3f00
ENDCHAR
STARTCHAR I
ENCODING 73
SWIDTH 389 0
DWIDTH 10 0
BBX 10 17 0 0
BITMAP
0fc0
0780
0780
0700
0f00
0f00
0e00
1e00
1e00
1c00
3c00
3c00
3800
7800
7800
7000
f800
ENDCHAR
STARTCHAR J
ENCODING 74
SWIDTH 500 0
DWIDTH 13 0
BBX 14 19 -1 -2
BITMAP
00fc
0078
0078
0070
00f0
00f0
00e0
01e0
01e0
01c0
03c0
03c0
0380
0780
e780
e700
ef00
7e00
3c00
ENDCHAR
STARTCHAR K
ENCODING 75
SWIDTH 667 0
DWIDTH 17 0
BBX 18 17 0 0
BITMAP
0fcfc0
078780
078e00
071c00
0f3800
0f6000
0ec000
1f8000
1fc000
1fc000
3de000
3de000
38f000
78f000
787800
707c00
f8ff00
ENDCHAR
STARTCHAR L
ENCODING 76
SWIDTH 611 0
DWIDTH 15 0
BBX 14 17 0 0
BITMAP
0fc0
0780
0780
0700
0f00
0f00
0e00
1e00
1e00
1c00
3c00
3c00
3804
780c
781c
7c78
fff8
ENDCHAR
STARTCHAR M
ENCODING 77
SWIDTH 889 0
DWIDTH 22 0
BBX 22 17 0 0
BITMAP
0f807c
0780f8
0780f8
0781f0
0f83f0
0fc3f0
0bc6e0
0bcce0
1bc9e0
13d9e0
11f1c0
11f3c0
31e3c0
31c3c0
21c380
7087c0
fc9fe0
ENDCHAR
STARTCHAR N
ENCODING 78
SWIDTH 722 0
DWIDTH 18 0
BBX 21 17 -1 0
BITMAP
0fc0f8
03c070
03c060
03e060
07e040
05f040
04f0c0
04f880
0c7880
0c7d80
083d00
183f00
181f00
101f00
300e00
700600
fc0600
ENDCHAR
STARTCHAR O
ENCODING 79
SWIDTH 722 0
DWIDTH 18 0
BBX 17 17 1 0
BITMAP
00fc00
03de00
0f0700
1e0780
1c0780
3c0380
780780
780780
f00780
f00f00
f00f00
e01e00
f01e00
f03c00
707800
3df000
1fc000
ENDCHAR
STARTCHAR P
ENCODING 80
SWIDTH 611 0
DWIDTH 15 0
BBX 16 17 0 0
BITMAP
0ff8
079e
078f
070f
0f0f
0f0f
0e1e
1e3c
1ff0
1c00
3c00
3c00
3800
7800
7800
7000
f800
ENDCHAR
STARTCHAR Q
ENCODING 81
SWIDTH 722 0
DWIDTH 18 0
BBX 17 22 0 -5
BITMAP
00fc00
03de00
0f0700
1e0780
1c0780
3c0780
780780
780780
f00780
f00f00
f00f00
f01e00
f01e00
f03c00
707800
3df000
1fc000
0c0000
1c0000
3fc300
7ffe00
e1f800
ENDCHAR
STARTCHAR R
ENCODING 82
SWIDTH 667 0
DWIDTH 17 0
BBX 16 17 0 0
BITMAP
0ff8
079e
078f
070f
0f0f
0f0f
0e1e
1e3c
1ff0
1ce0
3cf0
3cf0
3870
7878
7838
703c
f83e
ENDCHAR
STARTCHAR S
ENCODING 83
SWIDTH 556 0
DWIDTH 14 0
BBX 15 17 -1 0
BITMAP
03f6
071e
0e0c
0e04
0e04
0f00
0f80
07c0
03e0
01f0
00f8
10f8
3078
3078
78f0
7de0
efc0
ENDCHAR
STARTCHAR T
ENCODING 84
SWIDTH 611 0
DWIDTH 16 0
BBX 15 17 2 0
BITMAP
7ffe
e3ce
c3c6
8384
0780
0780
0700
0f00
0f00
0e00
1e00
1e00
1c00
3c00
3c00
3800
ff00
ENDCHAR
STARTCHAR U
ENCODING 85
SWIDTH 722 0
DWIDTH 18 0
BBX 19 17 1 0
BITMAP
3f07e0
1e0180
1e0180
1c0300
3c0300
3c0200
380600
780600
780600
700c00
f00c00
f00c00
f01800
f01800
703000
7cf000
1fc000
ENDCHAR
STARTCHAR V
ENCODING 86
SWIDTH 667 0
DWIDTH 17 0
BBX 17 17 1 0
BITMAP
fc0f80
780700
380600
380c00
380c00
3c1800
1c3000
1c3000
1c6000
1ce000
1cc000
1d8000
1f8000
0f0000
0e0000
0e0000
0c0000
ENDCHAR
STARTCHAR W
ENCODING 87
SWIDTH 889 0
DWIDTH 21 0
BBX 23 17 1 0
BITMAP
fc7c7e
78381c
383818
383830
387830
3c7c60
1cdc60
1cdcc0
1c9c80
1d9d80
1d1d00
1f1f00
1e1e00
0e0e00
0e0e00
0c0c00
0c0c00
ENDCHAR
STARTCHAR X
ENCODING 88
SWIDTH 667 0
DWIDTH 17 0
BBX 18 17 0 0
BITMAP
3fc7c0
0f0380
070700
070e00
079c00
03b800
03f000
01e000
01e000
01e000
03f000
077000
0e7800
1c7800
383c00
783c00
fcff00
ENDCHAR
STARTCHAR Y
ENCODING 89
SWIDTH 611 0
DWIDTH 14 0
BBX 15 17 2 0
BITMAP
fc3e
781c
7818
3830
3c20
3c60
1cc0
1d80
1f00
0e00
1e00
1c00
1c00
1c00
3800
3c00
ff00
ENDCHAR
STARTCHAR Z
ENCODING 90
SWIDTH 611 0
DWIDTH 15 0
BBX 16 17 -1 0
BITMAP
0fff
1e1f
181e
303c
0078
00f0
01e0
01e0
03c0
0780
0f00
1e00
3e06
3c0c
781c
f0f8
fff8
ENDCHAR
STARTCHAR bracketleft
ENCODING 91
SWIDTH 333 0
DWIDTH 10 0
BBX 13 21 -1 -4
BITMAP
01f8
01c0
0380
0380
0380
0700
0700
0700
0e00
0e00
0e00
1c00
1c00
1c00
3800
3800
3800
7000
7000
7000
fe00
ENDCHAR
STARTCHAR backslash
ENCODING 92
SWIDTH 278 0
DWIDTH 9 0
BBX 7 17 1 0
BITMAP
c0
c0
c0
60
60
60
30
30
30
18
18
18
0c
0c
0c
06
06
ENDCHAR
STARTCHAR bracketright
ENCODING 93
SWIDTH 333 0
DWIDTH 11 0
BBX 13 21 -3 -4
BITMAP
03f8
0078
0070
0070
00e0
00e0
00e0
01c0
01c0
01c0
0380
0380
0380
0700
0700
0700
0e00
0e00
1e00
1c00
fc00
ENDCHAR
STARTCHAR asciicircum
ENCODING 94
SWIDTH 570 0
DWIDTH 14 0
BBX 10 9 2 8
BITMAP
0e00
0e00
1f00
1b00
3300
7380
6180
e1c0
c1c0
ENDCHAR
STARTCHAR underscore
ENCODING 95
SWIDTH 500 0
DWIDTH 12 0
BBX 12 2 0 -4
BITMAP
fff0
fff0
ENDCHAR
STARTCHAR grave
ENCODING 96
SWIDTH 333 0
DWIDTH 7 0
BBX 6 5 2 12
BITMAP
e0
f0
78
1c
04
ENDCHAR
STARTCHAR a
ENCODING 97
SWIDTH 500 0
DWIDTH 13 0
BBX 13 12 0 0
BITMAP
07b0
1ef0
3c70
38f0
70e0
70e0
e1c0
e1c0
e3c0
e7c8
fdf0
79e0
ENDCHAR
STARTCHAR b
ENCODING 98
SWIDTH 500 0
DWIDTH 12 0
BBX 12 18 0 0
BITMAP
1e00
0e00
0c00
1c00
1c00
1800
39e0
3bf0
3e70
7870
7070
7070
f0f0
e0e0
e1e0
e1c0
e780
7e00
ENDCHAR
STARTCHAR c
ENCODING 99
SWIDTH 444 0
DWIDTH 10 0
BBX 10 12 0 0
BITMAP
0f80
3dc0
79c0
7000
f000
e000
e000
e000
e000
e180
7700
3e00
ENDCHAR
STARTCHAR d
ENCODING 100
SWIDTH 500 0
DWIDTH 13 0
BBX 14 18 0 0
BITMAP
003c
001c
001c
0038
0038
0038
07b0
1ef0
3870
7070
70e0
e0e0
e1e0
e1c0
e3c0
f6e4
fef8
7870
ENDCHAR
STARTCHAR e
ENCODING 101
SWIDTH 444 0
DWIDTH 10 0
BBX 10 12 0 0
BITMAP
0780
1fc0
39c0
7180
7700
fc00
f000
e000
e000
f180
7f00
3c00
ENDCHAR
STARTCHAR f
ENCODING 102
SWIDTH 333 0
DWIDTH 8 0
BBX 16 23 -4 -5
BITMAP
001e
0077
0067
00e0
00e0
00e0
07f8
07f8
01c0
01c0
01c0
0180
0380
0380
0380
0300
0700
0700
0700
0e00
ee00
ec00
7800
ENDCHAR
STARTCHAR g
ENCODING 103
SWIDTH 500 0
DWIDTH 11 0
BBX 13 17 -1 -5
BITMAP
07c0
1ef8
1c60
3870
3870
38e0
1cc0
1f80
0c00
3800
3e00
1f80
77c0
e1e0
e0e0
f1e0
3f80
ENDCHAR
STARTCHAR h
ENCODING 104
SWIDTH 556 0
DWIDTH 13 0
BBX 12 18 0 0
BITMAP
1e00
0e00
0e00
1c00
1c00
1c00
19c0
3be0
3ee0
38e0
70e0
70c0
71c0
71c0
e180
e390
e3e0
e1c0
ENDCHAR
STARTCHAR i
ENCODING 105
SWIDTH 278 0
DWIDTH 7 0
BBX 7 18 0 0
BITMAP
0e
0e
0c
00
00
00
3c
1c
1c
38
38
38
70
70
70
f4
f8
70
ENDCHAR
STARTCHAR j
ENCODING 106
SWIDTH 278 0
DWIDTH 7 0
BBX 10 23 -3 -5
BITMAP
01c0
01c0
0180
0000
0000
0000
0780
0380
0380
0300
0700
0700
0700
0700
0700
0600
0e00
0e00
0e00
0c00
dc00
f800
7000
ENDCHAR
STARTCHAR k
ENCODING 107
SWIDTH 500 0
DWIDTH 13 0
BBX 13 18 0 0
BITMAP
0f00
0700
0700
0e00
0e00
0e00
1cf8
1c60
38c0
3b80
3f00
7f00
7380
7380
7190
e1f0
e1e0
e0c0
ENDCHAR
STARTCHAR l
ENCODING 108
SWIDTH 278 0
DWIDTH 7 0
BBX 7 18 1 0
BITMAP
1e
0e
0e
1c
1c
1c
38
38
38
70
70
70
70
70
e0
e4
f8
70
ENDCHAR
STARTCHAR m
ENCODING 109
SWIDTH 778 0
DWIDTH 19 0
BBX 19 12 0 0
BITMAP
79c700
3bef80
3aeb80
3cf380
38e380
70c380
70c300
70c300
71c700
e1c720
e1c7c0
e1c380
ENDCHAR
STARTCHAR n
ENCODING 110
SWIDTH 556 0
DWIDTH 13 0
BBX 12 12 0 0
BITMAP
79c0
3be0
3ae0
3ce0
38e0
71c0
71c0
71c0
71c0
e390
e3e0
e1c0
ENDCHAR
STARTCHAR o
ENCODING 111
SWIDTH 500 0
DWIDTH 12 0
BBX 11 12 0 0
BITMAP
0f80
3dc0
78e0
70e0
e0e0
e0e0
e0e0
e1e0
e1c0
e3c0
7780
3e00
ENDCHAR
STARTCHAR p
ENCODING 112
SWIDTH 500 0
DWIDTH 13 0
BBX 15 17 -2 -5
BITMAP
0f38
077c
07fe
071e
0e0e
0e0e
0e0c
1c0c
1c1c
1e18
1ff0
39c0
3800
3800
7000
7000
f800
ENDCHAR
STARTCHAR q
ENCODING 113
SWIDTH 500 0
DWIDTH 12 0
BBX 11 17 0 -5
BITMAP
0ee0
1fe0
38e0
71c0
71c0
e1c0
e180
e380
e380
e780
fb80
7300
0700
0700
0600
0e00
1f00
ENDCHAR
STARTCHAR r
ENCODING 114
SWIDTH 389 0
DWIDTH 10 0
BBX 10 12 0 0
BITMAP
7980
3bc0
37c0
3cc0
3800
7800
7000
7000
7000
e000
e000
e000
ENDCHAR
STARTCHAR s
ENCODING 115
SWIDTH 389 0
DWIDTH 10 0
BBX 9 12 0 0
BITMAP
1f80
3980
3180
3800
3c00
1e00
0f00
0f00
c700
c700
ee00
bc00
ENDCHAR
STARTCHAR t
ENCODING 116
SWIDTH 278 0
DWIDTH 8 0
BBX 7 15 1 0
BITMAP
0e
0e
1c
7e
fe
38
38
70
70
70
70
e0
e4
f8
70
ENDCHAR
STARTCHAR u
ENCODING 117
SWIDTH 556 0
DWIDTH 13 0
BBX 12 12 0 0
BITMAP
3c70
1c70
38e0
38e0
71e0
71c0
73c0
73c0
e780
ed90
f9e0
71c0
ENDCHAR
STARTCHAR v
ENCODING 118
SWIDTH 444 0
DWIDTH 11 0
BBX 10 12 0 0
BITMAP
f180
73c0
71c0
70c0
3880
3980
3900
3b00
3e00
3c00
3800
3000
ENDCHAR
STARTCHAR w
ENCODING 119
SWIDTH 667 0
DWIDTH 16 0
BBX 16 12 0 0
BITMAP
f18e
718f
7183
71c3
3bc6
3bc4
3eec
3ee8
3cf8
38f0
38e0
30c0
ENDCHAR
STARTCHAR x
ENCODING 120
SWIDTH 500 0
DWIDTH 12 0
BBX 12 12 -1 0
BITMAP
1e70
0e70
0e60
06c0
0780
0700
0700
0f00
0b80
db90
f3e0
e1c0
ENDCHAR
STARTCHAR y
ENCODING 121
SWIDTH 444 0
DWIDTH 11 0
BBX 12 17 -2 -5
BITMAP
3c70
1c70
1c70
1c60
0c60
0ec0
0ec0
0780
0780
0700
0300
0200
0600
0400
cc00
f800
7000
ENDCHAR
STARTCHAR z
ENCODING 122
SWIDTH 389 0
DWIDTH 9 0
BBX 10 14 -1 -2
BITMAP
3fc0
3fc0
6180
4300
0600
0c00
0c00
1800
3000
6000
f000
f980
0d80
0700
ENDCHAR
STARTCHAR braceleft
ENCODING 123
SWIDTH 348 0
DWIDTH 7 0
BBX 9 22 0 -4
BITMAP
0380
0600
0c00
1c00
1c00
1c00
1800
3800
7000
c000
6000
7000
7000
7000
7000
7000
e000
e000
e000
6000
3000
1c00
ENDCHAR
STARTCHAR bar
ENCODING 124
SWIDTH 220 0
DWIDTH 6 0
BBX 2 18 2 0
BITMAP
c0
c0
c0
c0
c0
c0
c0
c0
c0
c0
c0
c0
c0
c0
c0
c0
c0
c0
ENDCHAR
STARTCHAR braceright
ENCODING 125
SWIDTH 348 0
DWIDTH 7 0
BBX 10 22 -2 -4
BITMAP
0e00
0300
0380
0380
0380
0700
0700
0700
0380
00c0
0380
0700
0e00
0e00
0e00
0e00
0e00
0c00
1c00
1800
3000
e000
ENDCHAR
STARTCHAR asciitilde
ENCODING 126
SWIDTH 570 0
DWIDTH 14 0
BBX 12 4 1 6
BITMAP
3c30
7e70
e7e0
c3c0
ENDCHAR
STARTCHAR nobreakspace
ENCODING 160
SWIDTH 250 0
DWIDTH 6 0
BBX 1 1 0 0
BITMAP
00
ENDCHAR
STARTCHAR Aogonek
ENCODING 161
SWIDTH 667 0
DWIDTH 16 0
BBX 17 22 -2 -5
BITMAP
000200
000600
000e00
001e00
003e00
006e00
00ce00
018e00
030e00
060e00
0ffe00
0ffe00
180e00
300e00
600e00
e00f00
f01f80
018000
070000
070000
07f000
03c000
ENDCHAR
STARTCHAR breve
ENCODING 162
SWIDTH 333 0
DWIDTH 9 0
BBX 8 4 2 13
BITMAP
c3
c3
7e
3c
ENDCHAR
STARTCHAR Lstroke
ENCODING 163
SWIDTH 611 0
DWIDTH 15 0
BBX 14 17 0 0
BITMAP
0fc0
0780
0780
0700
0f00
0f60
0fc0
1f00
3e00
fc00
3c00
3c00
3804
780c
781c
7c78
fff8
ENDCHAR
STARTCHAR currency
ENCODING 164
SWIDTH 500 0
DWIDTH 12 0
BBX 11 12 0 2
BITMAP
ce60
ffe0
3f80
71c0
60c0
e0e0
60c0
60c0
3180
7fc0
ffe0
ce60
ENDCHAR
STARTCHAR Lcaron
ENCODING 165
SWIDTH 640 0
DWIDTH 16 0
BBX 15 19 0 0
BITMAP
000e
000e
0fce
0786
078c
0718
0f00
0f00
0e00
1e00
1e00
1c00
3c00
3c00
3804
780c
781c
7c78
fff8
ENDCHAR
STARTCHAR Sacute
ENCODING 166
SWIDTH 556 0
DWIDTH 14 0
BBX 15 23 -1 0
BITMAP
000e
001e
003c
0070
0040
0000
03f6
071e
0e0c
0e04
0e04
0f00
0f80
07c0
03e0
01f0
00f8
10f8
3078
3078
78f0
7de0
efc0
ENDCHAR
STARTCHAR section
ENCODING 167
SWIDTH 500 0
DWIDTH 12 0
BBX 12 21 0 -4
BITMAP
07c0
0ce0
1c70
1c70
1e00
0f00
1f80
23c0
61c0
60e0
7060
3860
3c60
1e40
0f80
0780
0380
e180
e180
7300
3e00
ENDCHAR
STARTCHAR diaeresis
ENCODING 168
SWIDTH 333 0
DWIDTH 9 0
BBX 7 2 3 14
BITMAP
c6
c6
ENDCHAR
STARTCHAR Scaron
ENCODING 169
SWIDTH 556 0
DWIDTH 14 0
BBX 15 22 -1 0
BITMAP
018e
01dc
00f0
0060
0000
03f6
071e
0e0c
0e04
0e04
0f00
0f80
07c0
03e0
01f0
00f8
10f8
3078
3078
78f0
7de0
efc0
ENDCHAR
STARTCHAR Scedilla
ENCODING 170
SWIDTH 556 0
DWIDTH 14 0
BBX 15 22 -1 -5
BITMAP
03f6
071e
0e0c
0e04
0e04
0f00
0f80
07c0
03e0
01f0
00f8
10f8
3078
3078
78f0
7de0
efc0
0180
01c0
08e0
0ce0
07c0
ENDCHAR
STARTCHAR Tcaron
ENCODING 171
SWIDTH 611 0
DWIDTH 16 0
BBX 15 22 2 0
BITMAP
0638
0770
03c0
0180
0000
7ffe
e3ce
c3c6
8384
0780
0780
0700
0f00
0f00
0e00
1e00
1e00
1c00
3c00
3c00
3800
ff00
ENDCHAR
STARTCHAR Zacute
ENCODING 172
SWIDTH 611 0
DWIDTH 15 0
BBX 16 23 -1 0
BITMAP
000e
001e
003c
0070
0040
0000
0fff
1e1f
181e
303c
0078
00f0
01e0
01e0
03c0
0780
0f00
1e00
3e06
3c0c
781c
f0f8
fff8
ENDCHAR
STARTCHAR hyphen
ENCODING 173
SWIDTH 333 0
DWIDTH 8 0
BBX 6 3 0 4
BITMAP
fc
fc
fc
ENDCHAR
STARTCHAR Zcaron
ENCODING 174
SWIDTH 611 0
DWIDTH 15 0
BBX 16 22 -1 0
BITMAP
018e
01dc
00f0
0060
0000
0fff
1e1f
181e
303c
0078
00f0
01e0
01e0
03c0
0780
0f00
1e00
3e06
3c0c
781c
f0f8
fff8
ENDCHAR
STARTCHAR Zabovedot
ENCODING 175
SWIDTH 611 0
DWIDTH 15 0
BBX 16 20 -1 0
BITMAP
0060
0060
0000
0fff
1e1f
181e
303c
0078
00f0
01e0
01e0
03c0
0780
0f00
1e00
3e06
3c0c
781c
f0f8
fff8
ENDCHAR
STARTCHAR degree
ENCODING 176
SWIDTH 400 0
DWIDTH 9 0
BBX 8 7 1 10
BITMAP
3c
66
c3
c3
c3
66
3c
ENDCHAR
STARTCHAR aogonek
ENCODING 177
SWIDTH 500 0
DWIDTH 13 0
BBX 13 17 0 -5
BITMAP
07b0
1ef0
3c70
38f0
70e0
70e0
e1c0
e1c0
e3c0
e7c8
fdf0
79e0
0600
1c00
1c00
1fc0
0f00
ENDCHAR
STARTCHAR ogonek
ENCODING 178
SWIDTH 333 0
DWIDTH 9 0
BBX 7 5 0 -5
BITMAP
30
e0
e0
fe
78
ENDCHAR
STARTCHAR lstroke
ENCODING 179
SWIDTH 278 0
DWIDTH 7 0
BBX 9 17 0 0
BITMAP
0f00
0700
0700
0e00
0e00
0f80
1f00
1c00
7c00
f800
3800
3800
3800
7000
7200
7c00
3800
ENDCHAR
STARTCHAR acute
ENCODING 180
SWIDTH 333 0
DWIDTH 7 0
BBX 6 5 2 12
BITMAP
1c
3c
78
e0
80
ENDCHAR
STARTCHAR lcaron
ENCODING 181
SWIDTH 480 0
DWIDTH 12 0
BBX 12 20 1 0
BITMAP
0070
0070
1e70
0e30
0e60
1cc0
1c00
1c00
3800
3800
3800
7000
7000
7000
7000
7000
e000
e400
f800
7000
ENDCHAR
STARTCHAR sacute
ENCODING 182
SWIDTH 389 0
DWIDTH 10 0
BBX 11 18 0 0
BITMAP
00e0
01e0
03c0
0700
0400
0000
1f80
3980
3180
3800
3c00
1e00
0f00
0f00
c700
c700
ee00
bc00
ENDCHAR
STARTCHAR caron
ENCODING 183
SWIDTH 333 0
DWIDTH 9 0
BBX 8 4 2 13
BITMAP
c7
ee
78
30
ENDCHAR
STARTCHAR cedilla
ENCODING 184
SWIDTH 333 0
DWIDTH 8 0
BBX 7 5 -1 -5
BITMAP
18
1c
8e
ce
7c
ENDCHAR
STARTCHAR scaron
ENCODING 185
SWIDTH 389 0
DWIDTH 10 0
BBX 11 17 0 0
BITMAP
18e0
1dc0
0f00
0600
0000
1f80
3980
3180
3800
3c00
1e00
0f00
0f00
c700
c700
ee00
bc00
ENDCHAR
STARTCHAR scedilla
ENCODING 186
SWIDTH 389 0
DWIDTH 10 0
BBX 9 17 0 -5
BITMAP
1f80
3980
3180
3800
3c00
1e00
0f00
0f00
c700
c700
ee00
bc00
0c00
0e00
4700
6700
3e00
ENDCHAR
STARTCHAR tcaron
ENCODING 187
SWIDTH 520 0
DWIDTH 13 0
BBX 12 19 1 0
BITMAP
0070
0070
0070
0030
0e60
0ec0
1c00
7e00
fe00
3800
3800
7000
7000
7000
7000
e000
e400
f800
7000
ENDCHAR
STARTCHAR zacute
ENCODING 188
SWIDTH 389 0
DWIDTH 9 0
BBX 11 20 -1 -2
BITMAP
00e0
01e0
03c0
0700
0400
0000
3fc0
3fc0
6180
4300
0600
0c00
0c00
1800
3000
6000
f000
f980
0d80
0700
ENDCHAR
STARTCHAR doubleacute
ENCODING 189
SWIDTH 333 0
DWIDTH 9 0
BBX 7 4 2 13
BITMAP
66
66
cc
cc
ENDCHAR
STARTCHAR zcaron
ENCODING 190
SWIDTH 389 0
DWIDTH 9 0
BBX 11 19 -1 -2
BITMAP
18e0
1dc0
0f00
0600
0000
3fc0
3fc0
6180
4300
0600
0c00
0c00
1800
3000
6000
f000
f980
0d80
0700
ENDCHAR
STARTCHAR zabovedot
ENCODING 191
SWIDTH 389 0
DWIDTH 9 0
BBX 10 17 -1 -2
BITMAP
0600
0600
0000
3fc0
3fc0
6180
4300
0600
0c00
0c00
1800
3000
6000
f000
f980
0d80
0700
ENDCHAR
STARTCHAR Racute
ENCODING 192
SWIDTH 667 0
DWIDTH 17 0
BBX 16 23 0 0
BITMAP
0007
000f
001e
0038
0020
0000
0ff8
079e
078f
070f
0f0f
0f0f
0e1e
1e3c
1ff0
1ce0
3cf0
3cf0
3870
7878
7838
703c
f83e
ENDCHAR
STARTCHAR Aacute
ENCODING 193
SWIDTH 667 0
DWIDTH 16 0
BBX 20 22 -2 0
BITMAP
000070
0000f0
0001c0
000300
000000
000200
000600
000e00
001e00
003e00
006e00
00ce00
018e00
030e00
060e00
0ffe00
0ffe00
180e00
300e00
600e00
e00f00
f01f80
ENDCHAR
STARTCHAR Acircumflex
ENCODING 194
SWIDTH 667 0
DWIDTH 16 0
BBX 19 22 -2 0
BITMAP
000180
0003c0
000ee0
001c60
000000
000200
000600
000e00
001e00
003e00
006e00
00ce00
018e00
030e00
060e00
0ffe00
0ffe00
180e00
300e00
600e00
e00f00
f01f80
ENDCHAR
STARTCHAR Abreve
ENCODING 195
SWIDTH 667 0
DWIDTH 16 0
BBX 18 22 -2 0
BITMAP
0030c0
0030c0
001f80
000f00
000000
000200
000600
000e00
001e00
003e00
006e00
00ce00
018e00
030e00
060e00
0ffe00
0ffe00
180e00
300e00
600e00
e00f00
f01f80
ENDCHAR
STARTCHAR Adiaeresis
ENCODING 196
SWIDTH 667 0
DWIDTH 16 0
BBX 20 21 -2 0
BITMAP
000c30
001c70
001860
000000
000200
000600
000e00
001e00
003e00
006e00
00ce00
018e00
030e00
060e00
0ffe00
0ffe00
180e00
300e00
600e00
e00f00
f01f80
ENDCHAR
STARTCHAR Lacute
ENCODING 197
SWIDTH 611 0
DWIDTH 15 0
BBX 14 23 0 0
BITMAP
0038
0078
00f0
01c0
0100
0000
0fc0
0780
0780
0700
0f00
0f00
0e00
1e00
1e00
1c00
3c00
3c00
3804
780c
781c
7c78
fff8
ENDCHAR
STARTCHAR Cacute
ENCODING 198
SWIDTH 667 0
DWIDTH 16 0
BBX 16 23 0 0
BITMAP
000e
001e
003c
0070
0040
0000
03fb
0f8f
1e06
3c02
3802
7800
7000
f000
f000
f000
f000
f000
f000
7800
7c0c
3ff8
0fc0
ENDCHAR
STARTCHAR Ccedilla
ENCODING 199
SWIDTH 667 0
DWIDTH 16 0
BBX 16 22 0 -5
BITMAP
03fb
0f8f
1e06
3c02
3802
7800
7000
f000
f000
f000
f000
f000
f000
7806
7c1c
3ff8
0fe0
0180
01c0
08e0
0ce0
07c0
ENDCHAR
STARTCHAR Ccaron
ENCODING 200
SWIDTH 667 0
DWIDTH 16 0
BBX 16 22 0 0
BITMAP
018e
01dc
00f0
0060
0000
03fb
0f8f
1e06
3c02
3802
7800
7000
f000
f000
f000
f000
f000
f000
7800
7c0c
3ff8
0fc0
ENDCHAR
STARTCHAR Eacute
ENCODING 201
SWIDTH 667 0
DWIDTH 16 0
BBX 17 22 0 0
BITMAP
000e00
001e00
003c00
007000
000000
0fff80
078380
078100
070100
0f0000
0f0800
0e1800
1e3000
1ff000
1c7000
3c2000
3c2000
380200
780600
780e00
703c00
fffc00
ENDCHAR
STARTCHAR Eogonek
ENCODING 202
SWIDTH 667 0
DWIDTH 16 0
BBX 17 22 0 -5
BITMAP
0fff80
078380
078100
070100
0f0000
0f0800
0e1800
1e3000
1ff000
1c7000
3c2000
3c2000
380200
780600
780e00
703c00
fffc00
018000
070000
070000
07f000
03c000
ENDCHAR
STARTCHAR Ediaeresis
ENCODING 203
SWIDTH 667 0
DWIDTH 16 0
BBX 17 21 0 0
BITMAP
006300
00e700
00c600
000000
0fff80
078380
078100
070100
0f0000
0f0800
0e1800
1e3000
1ff000
1c7000
3c2000
3c2000
380200
780600
780e00
703c00
fffc00
ENDCHAR
STARTCHAR Ecaron
ENCODING 204
SWIDTH 667 0
DWIDTH 16 0
BBX 17 22 0 0
BITMAP
00c700
00ee00
007800
003000
000000
0fff80
078380
078100
070100
0f0000
0f0800
0e1800
1e3000
1ff000
1c7000
3c2000
3c2000
380200
780600
780e00
703c00
fffc00
ENDCHAR
STARTCHAR Iacute
ENCODING 205
SWIDTH 389 0
DWIDTH 10 0
BBX 12 22 0 0
BITMAP
0070
00f0
01e0
0380
0000
0fc0
0780
0780
0700
0f00
0f00
0e00
1e00
1e00
1c00
3c00
3c00
3800
7800
7800
7000
f800
ENDCHAR
STARTCHAR Icircumflex
ENCODING 206
SWIDTH 389 0
DWIDTH 10 0
BBX 11 22 0 0
BITMAP
0180
03c0
0ee0
1c60
0000
0fc0
0780
0780
0700
0f00
0f00
0e00
1e00
1e00
1c00
3c00
3c00
3800
7800
7800
7000
f800
ENDCHAR
STARTCHAR Dcaron
ENCODING 207
SWIDTH 722 0
DWIDTH 19 0
BBX 18 22 0 0
BITMAP
00c700
00ee00
007800
003000
000000
0ff800
079f00
078780
070780
0f03c0
0f03c0
0e03c0
1e03c0
1e03c0
1c03c0
3c0780
3c0780
380f00
781e00
783c00
70f800
ffc000
ENDCHAR
STARTCHAR Dstroke
ENCODING 208
SWIDTH 722 0
DWIDTH 19 0
BBX 18 17 0 0
BITMAP
0ff800
07bf00
078780
070780
0f03c0
0f03c0
0e03c0
ffc3c0
ffc3c0
1c03c0
3c0780
3c0780
380f00
781e00
783c00
70f800
ffc000
ENDCHAR
STARTCHAR Nacute
ENCODING 209
SWIDTH 722 0
DWIDTH 18 0
BBX 21 23 -1 0
BITMAP
0001c0
0003c0
000780
000e00
000800
000000
0fc0f8
03c070
03c060
03e060
07e040
05f040
04f0c0
04f880
0c7880
0c7d80
083d00
183f00
181f00
101f00
300e00
700600
fc0600
ENDCHAR
STARTCHAR Ncaron
ENCODING 210
SWIDTH 722 0
DWIDTH 18 0
BBX 21 22 -1 0
BITMAP
0031c0
003b80
001e00
000c00
000000
0fc0f8
03c070
03c060
03e060
07e040
05f040
04f0c0
04f880
0c7880
0c7d80
083d00
183f00
181f00
101f00
300e00
700600
fc0600
ENDCHAR
STARTCHAR Oacute
ENCODING 211
SWIDTH 722 0
DWIDTH 18 0
BBX 17 22 1 0
BITMAP
000380
000780
000f00
001c00
000000
00fc00
03de00
0f0700
1e0780
1c0780
3c0380
780780
780780
f00780
f00f00
f00f00
e01e00
f01e00
f03c00
707800
3df000
1fc000
ENDCHAR
STARTCHAR Ocircumflex
ENCODING 212
SWIDTH 722 0
DWIDTH 18 0
BBX 17 22 1 0
BITMAP
001800
003c00
00ee00
01c600
000000
00fc00
03de00
0f0700
1e0780
1c0780
3c0380
780780
780780
f00780
f00f00
f00f00
e01e00
f01e00
f03c00
707800
3df000
1fc000
ENDCHAR
STARTCHAR Odoubleacute
ENCODING 213
SWIDTH 722 0
DWIDTH 18 0
BBX 17 22 1 0
BITMAP
006600
006600
00cc00
00cc00
000000
00fc00
03de00
0f0700
1e0780
1c0780
3c0380
780780
780780
f00780
f00f00
f00f00
e01e00
f01e00
f03c00
707800
3df000
1fc000
ENDCHAR
STARTCHAR Odiaeresis
ENCODING 214
SWIDTH 722 0
DWIDTH 18 0
BBX 17 21 1 0
BITMAP
006300
00e700
00c600
000000
00fc00
03de00
0f0700
1e0780
1c0780
3c0380
780780
780780
f00780
f00f00
f00f00
e01e00
f01e00
f03c00
707800
3df000
1fc000
ENDCHAR
STARTCHAR multiply
ENCODING 215
SWIDTH 570 0
DWIDTH 13 0
BBX 11 11 1 0
BITMAP
c060
e0e0
71c0
3b80
1f00
0e00
1f00
3b80
71c0
e0e0
c060
ENDCHAR
STARTCHAR Rcaron
ENCODING 216
SWIDTH 667 0
DWIDTH 17 0
BBX 16 22 0 0
BITMAP
00c7
00ee
0078
0030
0000
0ff8
079e
078f
070f
0f0f
0f0f
0e1e
1e3c
1ff0
1ce0
3cf0
3cf0
3870
7878
7838
703c
f83e
ENDCHAR
STARTCHAR Uring
ENCODING 217
SWIDTH 722 0
DWIDTH 18 0
BBX 19 23 1 0
BITMAP
007000
00d800
008800
00d800
007000
000000
3f07e0
1e0180
1e0180
1c0300
3c0300
3c0200
380600
780600
780600
700c00
f00c00
f00c00
f01800
f01800
703000
7cf000
1fc000
ENDCHAR
STARTCHAR Uacute
ENCODING 218
SWIDTH 722 0
DWIDTH 18 0
BBX 19 22 1 0
BITMAP
000e00
001e00
003c00
007000
000000
3f07e0
1e0180
1e0180
1c0300
3c0300
3c0200
380600
780600
780600
700c00
f00c00
f00c00
f01800
f01800
703000
7cf000
1fc000
ENDCHAR
STARTCHAR Udoubleacute
ENCODING 219
SWIDTH 722 0
DWIDTH 18 0
BBX 19 22 1 0
BITMAP
006600
006600
00cc00
00cc00
000000
3f07e0
1e0180
1e0180
1c0300
3c0300
3c0200
380600
780600
780600
700c00
f00c00
f00c00
f01800
f01800
703000
7cf000
1fc000
ENDCHAR
STARTCHAR Udiaeresis
ENCODING 220
SWIDTH 722 0
DWIDTH 18 0
BBX 19 21 1 0
BITMAP
00c300
01c700
018600
000000
3f07e0
1e0180
1e0180
1c0300
3c0300
3c0200
380600
780600
780600
700c00
f00c00
f00c00
f01800
f01800
703000
7cf000
1fc000
ENDCHAR
STARTCHAR Yacute
ENCODING 221
SWIDTH 611 0
DWIDTH 14 0
BBX 15 22 2 0
BITMAP
0038
0078
00f0
01c0
0000
fc3e
781c
7818
3830
3c20
3c60
1cc0
1d80
1f00
0e00
1e00
1c00
1c00
1c00
3800
3c00
ff00
ENDCHAR
STARTCHAR Tcedilla
ENCODING 222
SWIDTH 611 0
DWIDTH 16 0
BBX 15 22 2 -5
BITMAP
7ffe
e3ce
c3c6
8384
0780
0780
0700
0f00
0f00
0e00
1e00
1e00
1c00
3c00
3c00
3800
ff00
0180
01c0
08e0
0ce0
07c0
ENDCHAR
STARTCHAR ssharp
ENCODING 223
SWIDTH 500 0
DWIDTH 13 0
BBX 18 22 -5 -5
BITMAP
000f00
003980
0071c0
0061c0
00e1c0
00e3c0
00e380
01ce00
01c700
01c380
038380
038380
038380
038780
030700
071e00
077c00
070000
060000
e60000
ec0000
780000
ENDCHAR
STARTCHAR racute
ENCODING 224
SWIDTH 389 0
DWIDTH 10 0
BBX 11 18 0 0
BITMAP
00e0
01e0
03c0
0700
0400
0000
7980
3bc0
37c0
3cc0
3800
7800
7000
7000
7000
e000
e000
e000
ENDCHAR
STARTCHAR aacute
ENCODING 225
SWIDTH 500 0
DWIDTH 13 0
BBX 13 18 0 0
BITMAP
0070
00f0
01e0
0380
0000
0000
07b8
1ef0
3c70
38e0
70e0
70e0
e1e0
e1c0
e3c0
e7c8
fdf0
79e0
ENDCHAR
STARTCHAR acircumflex
ENCODING 226
SWIDTH 500 0
DWIDTH 13 0
BBX 13 17 0 0
BITMAP
00c0
01e0
0770
0e30
0000
07b8
1ef8
3c70
3870
70e0
70e0
e1e0
e1c0
e3c0
e7c8
fdf0
79e0
ENDCHAR
STARTCHAR abreve
ENCODING 227
SWIDTH 500 0
DWIDTH 13 0
BBX 13 17 0 0
BITMAP
0c30
0c30
07e0
03c0
0000
07b0
1ef0
3c70
38f0
70e0
70e0
e1c0
e1c0
e3c0
e7c8
fdf0
79e0
ENDCHAR
STARTCHAR adiaeresis
ENCODING 228
SWIDTH 500 0
DWIDTH 13 0
BBX 13 16 0 0
BITMAP
0630
0630
0000
0000
07b8
1ef8
3c70
3870
70e0
70e0
e1e0
e1c0
e3c0
e7c8
fdf0
79e0
ENDCHAR
STARTCHAR lacute
ENCODING 229
SWIDTH 278 0
DWIDTH 7 0
BBX 11 24 1 0
BITMAP
00e0
01e0
03c0
0700
0400
0000
1e00
0e00
0e00
1c00
1c00
1c00
3800
3800
3800
7000
7000
7000
7000
7000
e000
e400
f800
7000
ENDCHAR
STARTCHAR cacute
ENCODING 230
SWIDTH 444 0
DWIDTH 10 0
BBX 12 18 0 0
BITMAP
0070
00f0
01e0
0380
0200
0000
0f80
3dc0
79c0
7000
f000
e000
e000
e000
e000
e180
7700
3e00
ENDCHAR
STARTCHAR ccedilla
ENCODING 231
SWIDTH 444 0
DWIDTH 11 0
BBX 10 17 0 -5
BITMAP
0f80
3dc0
79c0
7000
f000
e000
e000
e000
e000
e180
7700
3e00
0c00
0e00
4700
6700
3e00
ENDCHAR
STARTCHAR ccaron
ENCODING 232
SWIDTH 444 0
DWIDTH 10 0
BBX 12 17 0 0
BITMAP
0c70
0ee0
0780
0300
0000
0f80
3dc0
79c0
7000
f000
e000
e000
e000
e000
e180
7700
3e00
ENDCHAR
STARTCHAR eacute
ENCODING 233
SWIDTH 444 0
DWIDTH 11 0
BBX 11 18 1 0
BITMAP
00e0
01e0
03c0
0700
0400
0000
0780
1fc0
39c0
7180
7300
fe00
f000
e000
e000
f180
7f00
3c00
ENDCHAR
STARTCHAR eogonek
ENCODING 234
SWIDTH 444 0
DWIDTH 10 0
BBX 10 17 0 -5
BITMAP
0780
1fc0
39c0
7180
7700
fc00
f000
e000
e000
f180
7f00
3c00
1800
7000
7000
7f00
3c00
ENDCHAR
STARTCHAR ediaeresis
ENCODING 235
SWIDTH 444 0
DWIDTH 11 0
BBX 10 16 1 0
BITMAP
18c0
18c0
0000
0000
0780
1fc0
39c0
7180
7300
fe00
f000
e000
e000
f180
7f00
3c00
ENDCHAR
STARTCHAR ecaron
ENCODING 236
SWIDTH 444 0
DWIDTH 10 0
BBX 12 17 0 0
BITMAP
0c70
0ee0
0780
0300
0000
0780
1fc0
39c0
7180
7700
fc00
f000
e000
e000
f180
7f00
3c00
ENDCHAR
STARTCHAR iacute
ENCODING 237
SWIDTH 278 0
DWIDTH 7 0
BBX 9 18 0 0
BITMAP
0380
0780
0f00
1c00
1000
0000
3c00
1c00
1c00
3800
3800
3800
7000
7000
7000
f400
f800
7000
ENDCHAR
STARTCHAR icircumflex
ENCODING 238
SWIDTH 278 0
DWIDTH 7 0
BBX 8 17 0 0
BITMAP
0c
1e
77
63
00
3c
1c
1c
38
38
38
70
70
70
f4
f8
70
ENDCHAR
STARTCHAR dcaron
ENCODING 239
SWIDTH 720 0
DWIDTH 18 0
BBX 19 20 0 0
BITMAP
0000e0
0000e0
003ce0
001c60
001cc0
003980
003800
003800
07b000
1ef000
387000
707000
70e000
e0e000
e1e000
e1c000
e3c000
f6e400
fef800
787000
ENDCHAR
STARTCHAR dstroke
ENCODING 240
SWIDTH 640 0
DWIDTH 16 0
BBX 17 18 0 0
BITMAP
003c00
001c00
001c00
01ff80
01ff80
003800
07b000
1ef000
387000
707000
70e000
e0e000
e1e000
e1c000
e3c000
f6e400
fef800
787000
ENDCHAR
STARTCHAR nacute
ENCODING 241
SWIDTH 556 0
DWIDTH 13 0
BBX 12 18 0 0
BITMAP
0070
00f0
01e0
0380
0200
0000
79c0
3be0
3ae0
3ce0
38e0
71c0
71c0
71c0
71c0
e390
e3e0
e1c0
ENDCHAR
STARTCHAR ncaron
ENCODING 242
SWIDTH 556 0
DWIDTH 13 0
BBX 12 17 0 0
BITMAP
0c70
0ee0
0780
0300
0000
79c0
3be0
3ae0
3ce0
38e0
71c0
71c0
71c0
71c0
e390
e3e0
e1c0
ENDCHAR
STARTCHAR oacute
ENCODING 243
SWIDTH 500 0
DWIDTH 12 0
BBX 11 18 0 0
BITMAP
01c0
03c0
0780
0e00
0800
0000
0f80
3dc0
78e0
70e0
e0e0
e0e0
e0e0
e0e0
e1c0
e3c0
7780
3e00
ENDCHAR
STARTCHAR ocircumflex
ENCODING 244
SWIDTH 500 0
DWIDTH 12 0
BBX 11 17 0 0
BITMAP
0180
03c0
0ee0
1c60
0000
0f80
3dc0
78e0
70e0
e0e0
e0e0
e0e0
e0e0
e1c0
e3c0
7780
3e00
ENDCHAR
STARTCHAR odoubleacute
ENCODING 245
SWIDTH 500 0
DWIDTH 12 0
BBX 11 17 0 0
BITMAP
0660
0660
0cc0
0cc0
0000
0f80
3dc0
78e0
70e0
e0e0
e0e0
e0e0
e1e0
e1c0
e3c0
7780
3e00
ENDCHAR
STARTCHAR odiaeresis
ENCODING 246
SWIDTH 500 0
DWIDTH 12 0
BBX 11 16 0 0
BITMAP
0c60
0c60
0000
0000
0f80
3dc0
78e0
70e0
e0e0
e0e0
e0e0
e0e0
e1c0
e3c0
7780
3e00
ENDCHAR
STARTCHAR division
ENCODING 247
SWIDTH 570 0
DWIDTH 13 0
BBX 11 11 1 1
BITMAP
0e00
0e00
0e00
0000
ffe0
ffe0
0000
0000
0e00
0e00
0e00
ENDCHAR
STARTCHAR rcaron
ENCODING 248
SWIDTH 389 0
DWIDTH 10 0
BBX 11 17 0 0
BITMAP
18e0
1dc0
0f00
0600
0000
7980
3bc0
37c0
3cc0
3800
7800
7000
7000
7000
e000
e000
e000
ENDCHAR
STARTCHAR uring
ENCODING 249
SWIDTH 556 0
DWIDTH 13 0
BBX 12 18 0 0
BITMAP
0380
06c0
0440
06c0
0380
0000
3c70
1c70
38e0
38e0
71e0
71c0
73c0
73c0
e780
ed90
f9e0
71c0
ENDCHAR
STARTCHAR uacute
ENCODING 250
SWIDTH 556 0
DWIDTH 14 0
BBX 12 18 1 0
BITMAP
0070
00f0
01e0
0380
0200
0000
3c70
1c70
38e0
38e0
71e0
71c0
73c0
73c0
e780
edb0
f9e0
71c0
ENDCHAR
STARTCHAR udoubleacute
ENCODING 251
SWIDTH 556 0
DWIDTH 13 0
BBX 12 17 0 0
BITMAP
0330
0330
0660
0660
0000
3c70
1c70
38e0
38e0
71e0
71c0
73c0
73c0
e780
ed90
f9e0
71c0
ENDCHAR
STARTCHAR udiaeresis
ENCODING 252
SWIDTH 556 0
DWIDTH 14 0
BBX 12 16 1 0
BITMAP
0c60
0c60
0000
0000
3c70
1c70
38e0
38e0
71e0
71c0
73c0
73c0
e7c0
edb0
f9e0
71c0
ENDCHAR
STARTCHAR yacute
ENCODING 253
SWIDTH 444 0
DWIDTH 11 0
BBX 13 23 -2 -5
BITMAP
0038
0078
00f0
01c0
0100
0000
3c70
1c70
1c70
1c60
0c60
0ec0
0ec0
0780
0780
0700
0700
0600
0e00
0c00
dc00
f800
7000
ENDCHAR
STARTCHAR tcedilla
ENCODING 254
SWIDTH 278 0
DWIDTH 8 0
BBX 7 20 1 -5
BITMAP
0e
0e
1c
7e
fe
38
38
70
70
70
70
e0
e4
f8
70
18
1c
8e
ce
7c
ENDCHAR
STARTCHAR abovedot
ENCODING 255
SWIDTH 333 0
DWIDTH 6 0
BBX 2 2 4 14
BITMAP
c0
c0
ENDCHAR
ENDFONT
