STARTFONT 2.1
FONT -Adobe-Times-Medium-R-Normal--20-140-100-100-P-96-ISO8859-2
SIZE 14 100 100
FONTBOUNDINGBOX 21 22 -2 -4
COMMENT $XConsortium: timR14.bdf,v 1.7 95/01/26 17:59:32 gildea Exp $
COMMENT 
COMMENT +
COMMENT  Copyright 1984-1989, 1994 Adobe Systems Incorporated.
COMMENT  Copyright 1988, 1994 Digital Equipment Corporation.
COMMENT
COMMENT  Adobe is a trademark of Adobe Systems Incorporated which may be
COMMENT  registered in certain jurisdictions.
COMMENT  Permission to use these trademarks is hereby granted only in
COMMENT  association with the images described in this file.
COMMENT
COMMENT  Permission to use, copy, modify, distribute and sell this software
COMMENT  and its documentation for any purpose and without fee is hereby
COMMENT  granted, provided that the above copyright notices appear in all
COMMENT  copies and that both those copyright notices and this permission
COMMENT  notice appear in supporting documentation, and that the names of
COMMENT  Adobe Systems and Digital Equipment Corporation not be used in
COMMENT  advertising or publicity pertaining to distribution of the software
COMMENT  without specific, written prior permission.  Adobe Systems and
COMMENT  Digital Equipment Corporation make no representations about the
COMMENT  suitability of this software for any purpose.  It is provided "as
COMMENT  is" without express or implied warranty.
COMMENT -
COMMENT  
COMMENT  Translation to ISO8859-2 by Cub Soft;  Petr.Kolar@vslib.cz
COMMENT  
STARTPROPERTIES 28
FOUNDRY "Adobe"
FAMILY_NAME "Times"
WEIGHT_NAME "Medium"
SLANT "R"
SETWIDTH_NAME "Normal"
ADD_STYLE_NAME ""
PIXEL_SIZE 20
POINT_SIZE 140
RESOLUTION_X 100
RESOLUTION_Y 100
SPACING "P"
AVERAGE_WIDTH 96
CHARSET_REGISTRY "ISO8859"
CHARSET_ENCODING "2"
CAP_HEIGHT 13
X_HEIGHT 9
FONT_ASCENT 16
FONT_DESCENT 4
FACE_NAME "Times Roman"
COPYRIGHT "Copyright (c) 1984, 1987 Adobe Systems Incorporated. All Rights Reserved. Copyright (c) 1988, 1991 Digital Equipment Corporation. All Rights Reserved., Copyright 1996 Cub Soft"
NOTICE "Times is a trademark of Linotype-Hell AG and/or its subsidiaries."
_DEC_DEVICE_FONTNAMES "PS=Times-Roman"
_DEC_PRODUCTINFO "DECwindows Fonts V2.2, 07-Nov-1991"
DEFAULT_CHAR 32
RELATIVE_SETWIDTH 50
RELATIVE_WEIGHT 50
CHARSET_COLLECTIONS "ASCII ISO8859-2 ADOBE-STANDARD"
FULL_NAME "Times Roman"
ENDPROPERTIES
CHARS 191
STARTCHAR space
ENCODING 32
SWIDTH 250 0
DWIDTH 5 0
BBX 1 1 0 0
BITMAP
00
ENDCHAR
STARTCHAR exclam
ENCODING 33
SWIDTH 333 0
DWIDTH 4 0
BBX 2 13 1 0
BITMAP
c0
c0
c0
c0
c0
c0
40
40
40
00
00
c0
c0
ENDCHAR
STARTCHAR quotedbl
ENCODING 34
SWIDTH 408 0
DWIDTH 8 0
BBX 6 4 1 9
BITMAP
cc
cc
cc
88
ENDCHAR
STARTCHAR numbersign
ENCODING 35
SWIDTH 500 0
DWIDTH 10 0
BBX 12 11 -1 1
BITMAP
0cc0
0cc0
0cc0
7ff0
1980
1980
1980
ffe0
3300
3300
3300
ENDCHAR
STARTCHAR dollar
ENCODING 36
SWIDTH 500 0
DWIDTH 9 0
BBX 7 16 1 -2
BITMAP
10
7c
d6
d2
d0
f0
78
3c
1c
16
16
96
d6
7c
10
10
ENDCHAR
STARTCHAR percent
ENCODING 37
SWIDTH 833 0
DWIDTH 15 0
BBX 13 13 1 0
BITMAP
3830
6fe0
c440
c480
cd80
fb00
7270
06d8
0d88
0988
1998
31f0
20e0
ENDCHAR
STARTCHAR ampersand
ENCODING 38
SWIDTH 778 0
DWIDTH 14 0
BBX 12 13 1 0
BITMAP
1c00
3200
3200
3200
3400
19e0
38c0
6d80
cf00
c700
c780
edf0
78e0
ENDCHAR
STARTCHAR apostrophe
ENCODING 39
SWIDTH 333 0
DWIDTH 5 0
BBX 3 4 1 9
BITMAP
c0
e0
20
40
ENDCHAR
STARTCHAR parenleft
ENCODING 40
SWIDTH 333 0
DWIDTH 7 0
BBX 5 17 1 -4
BITMAP
18
30
60
60
40
c0
c0
c0
c0
c0
c0
c0
40
60
60
30
18
ENDCHAR
STARTCHAR parenright
ENCODING 41
SWIDTH 333 0
DWIDTH 7 0
BBX 5 17 1 -4
BITMAP
c0
60
30
30
10
18
18
18
18
18
18
18
10
30
30
60
c0
ENDCHAR
STARTCHAR asterisk
ENCODING 42
SWIDTH 500 0
DWIDTH 9 0
BBX 7 7 1 6
BITMAP
10
d6
54
38
d6
92
10
ENDCHAR
STARTCHAR plus
ENCODING 43
SWIDTH 564 0
DWIDTH 10 0
BBX 8 8 1 1
BITMAP
18
18
18
ff
ff
18
18
18
ENDCHAR
STARTCHAR comma
ENCODING 44
SWIDTH 250 0
DWIDTH 4 0
BBX 3 5 0 -3
BITMAP
60
60
20
60
c0
ENDCHAR
STARTCHAR minus
ENCODING 45
SWIDTH 564 0
DWIDTH 11 0
BBX 9 2 1 4
BITMAP
ff80
ff80
ENDCHAR
STARTCHAR period
ENCODING 46
SWIDTH 250 0
DWIDTH 4 0
BBX 2 2 1 0
BITMAP
c0
c0
ENDCHAR
STARTCHAR slash
ENCODING 47
SWIDTH 278 0
DWIDTH 5 0
BBX 7 17 -1 -4
BITMAP
02
02
06
04
0c
0c
08
18
18
10
30
30
20
60
60
40
c0
ENDCHAR
STARTCHAR zero
ENCODING 48
SWIDTH 500 0
DWIDTH 9 0
BBX 8 13 1 0
BITMAP
3c
66
66
c3
c3
c3
c3
c3
c3
c3
66
66
3c
ENDCHAR
STARTCHAR one
ENCODING 49
SWIDTH 500 0
DWIDTH 9 0
BBX 6 13 2 0
BITMAP
30
70
f0
30
30
30
30
30
30
30
30
78
fc
ENDCHAR
STARTCHAR two
ENCODING 50
SWIDTH 500 0
DWIDTH 9 0
BBX 7 13 1 0
BITMAP
3c
7e
ce
86
06
06
0c
0c
18
30
62
fe
fe
ENDCHAR
STARTCHAR three
ENCODING 51
SWIDTH 500 0
DWIDTH 9 0
BBX 7 13 1 0
BITMAP
7c
ce
86
06
0c
38
3c
0e
06
06
06
cc
f8
ENDCHAR
STARTCHAR four
ENCODING 52
SWIDTH 500 0
DWIDTH 9 0
BBX 8 13 0 0
BITMAP
02
06
0e
0e
16
26
46
46
ff
ff
06
06
06
ENDCHAR
STARTCHAR five
ENCODING 53
SWIDTH 500 0
DWIDTH 9 0
BBX 7 13 1 0
BITMAP
7e
7c
c0
c0
f0
3c
0c
0e
06
06
0c
dc
f0
ENDCHAR
STARTCHAR six
ENCODING 54
SWIDTH 500 0
DWIDTH 9 0
BBX 8 13 1 0
BITMAP
07
1c
30
60
60
fc
c6
c3
c3
c3
e3
76
3c
ENDCHAR
STARTCHAR seven
ENCODING 55
SWIDTH 500 0
DWIDTH 9 0
BBX 8 13 1 0
BITMAP
7f
ff
82
06
04
0c
0c
08
18
18
10
30
30
ENDCHAR
STARTCHAR eight
ENCODING 56
SWIDTH 500 0
DWIDTH 9 0
BBX 8 13 1 0
BITMAP
3c
66
c2
e6
7c
38
3c
6e
c7
c3
c3
66
3c
ENDCHAR
STARTCHAR nine
ENCODING 57
SWIDTH 500 0
DWIDTH 9 0
BBX 8 13 1 0
BITMAP
3c
6e
c6
c3
c3
c3
e3
7f
36
06
0c
38
e0
ENDCHAR
STARTCHAR colon
ENCODING 58
SWIDTH 278 0
DWIDTH 5 0
BBX 2 9 1 0
BITMAP
c0
c0
00
00
00
00
00
c0
c0
ENDCHAR
STARTCHAR semicolon
ENCODING 59
SWIDTH 278 0
DWIDTH 5 0
BBX 3 12 0 -3
BITMAP
60
60
00
00
00
00
00
60
60
20
60
c0
ENDCHAR
STARTCHAR less
ENCODING 60
SWIDTH 564 0
DWIDTH 11 0
BBX 9 9 1 0
BITMAP
0180
0700
1c00
7000
c000
7000
1c00
0700
0180
ENDCHAR
STARTCHAR equal
ENCODING 61
SWIDTH 564 0
DWIDTH 11 0
BBX 9 5 1 2
BITMAP
ff80
ff80
0000
ff80
ff80
ENDCHAR
STARTCHAR greater
ENCODING 62
SWIDTH 564 0
DWIDTH 11 0
BBX 9 9 1 0
BITMAP
c000
7000
1c00
0700
0180
0700
1c00
7000
c000
ENDCHAR
STARTCHAR question
ENCODING 63
SWIDTH 444 0
DWIDTH 8 0
BBX 6 13 1 0
BITMAP
78
8c
c4
cc
0c
18
18
30
20
20
00
30
30
ENDCHAR
STARTCHAR at
ENCODING 64
SWIDTH 921 0
DWIDTH 17 0
BBX 14 16 1 -3
BITMAP
07e0
0e30
3818
3008
63ec
67e4
c664
cc64
cccc
ccc8
cdd8
6770
6000
3000
1c30
07e0
ENDCHAR
STARTCHAR A
ENCODING 65
SWIDTH 722 0
DWIDTH 14 0
BBX 13 13 1 0
BITMAP
0200
0700
0700
0500
0d80
0980
19c0
10c0
1fc0
30e0
2060
6070
f0f8
ENDCHAR
STARTCHAR B
ENCODING 66
SWIDTH 667 0
DWIDTH 13 0
BBX 10 13 2 0
BITMAP
ff00
6380
6180
6180
6180
6300
7f80
61c0
60c0
60c0
60c0
6180
ff00
ENDCHAR
STARTCHAR C
ENCODING 67
SWIDTH 667 0
DWIDTH 13 0
BBX 11 13 1 0
BITMAP
0f20
30e0
6060
6020
c000
c000
c000
c000
c000
6000
6060
38c0
0f00
ENDCHAR
STARTCHAR D
ENCODING 68
SWIDTH 722 0
DWIDTH 14 0
BBX 11 13 2 0
BITMAP
ff00
6380
60c0
60c0
6060
6060
6060
6060
6060
60c0
60c0
6380
ff00
ENDCHAR
STARTCHAR E
ENCODING 69
SWIDTH 611 0
DWIDTH 12 0
BBX 9 13 1 0
BITMAP
ff80
6180
6080
6000
6000
6100
7f00
6100
6000
6000
6080
6180
ff80
ENDCHAR
STARTCHAR F
ENCODING 70
SWIDTH 556 0
DWIDTH 11 0
BBX 9 13 1 0
BITMAP
ff80
6180
6080
6000
6000
6100
7f00
6100
6000
6000
6000
6000
f000
ENDCHAR
STARTCHAR G
ENCODING 71
SWIDTH 722 0
DWIDTH 14 0
BBX 12 13 1 0
BITMAP
0f20
30e0
6060
6020
c000
c000
c0f0
c060
c060
6060
6060
39c0
0f00
ENDCHAR
STARTCHAR H
ENCODING 72
SWIDTH 722 0
DWIDTH 14 0
BBX 12 13 1 0
BITMAP
f0f0
6060
6060
6060
6060
6060
7fe0
6060
6060
6060
6060
6060
f0f0
ENDCHAR
STARTCHAR I
ENCODING 73
SWIDTH 333 0
DWIDTH 6 0
BBX 4 13 1 0
BITMAP
f0
60
60
60
60
60
60
60
60
60
60
60
f0
ENDCHAR
STARTCHAR J
ENCODING 74
SWIDTH 389 0
DWIDTH 7 0
BBX 6 13 0 0
BITMAP
3c
18
18
18
18
18
18
18
18
18
18
d8
f0
ENDCHAR
STARTCHAR K
ENCODING 75
SWIDTH 722 0
DWIDTH 14 0
BBX 12 13 1 0
BITMAP
f3e0
6180
6300
6600
6c00
7800
7800
7c00
6e00
6700
6380
61c0
f0f0
ENDCHAR
STARTCHAR L
ENCODING 76
SWIDTH 611 0
DWIDTH 12 0
BBX 10 13 1 0
BITMAP
f000
6000
6000
6000
6000
6000
6000
6000
6000
6000
6040
60c0
ffc0
ENDCHAR
STARTCHAR M
ENCODING 77
SWIDTH 889 0
DWIDTH 17 0
BBX 14 13 1 0
BITMAP
e01c
7038
7038
7878
5858
58d8
5cd8
4c98
4d98
4718
4718
4218
e23c
ENDCHAR
STARTCHAR N
ENCODING 78
SWIDTH 722 0
DWIDTH 14 0
BBX 12 13 1 0
BITMAP
e070
6020
7020
7820
5c20
4c20
4e20
4720
43a0
41e0
40e0
4060
e020
ENDCHAR
STARTCHAR O
ENCODING 79
SWIDTH 722 0
DWIDTH 14 0
BBX 12 13 1 0
BITMAP
0f00
30c0
6060
6060
c030
c030
c030
c030
c030
6060
6060
30c0
0f00
ENDCHAR
STARTCHAR P
ENCODING 80
SWIDTH 556 0
DWIDTH 11 0
BBX 9 13 1 0
BITMAP
ff00
6380
6180
6180
6180
6300
7e00
6000
6000
6000
6000
6000
f000
ENDCHAR
STARTCHAR Q
ENCODING 81
SWIDTH 722 0
DWIDTH 14 0
BBX 12 17 1 -4
BITMAP
0f00
30c0
6060
6060
c030
c030
c030
c030
c030
6060
6060
30c0
0f00
0600
0300
01c0
00f0
ENDCHAR
STARTCHAR R
ENCODING 82
SWIDTH 667 0
DWIDTH 13 0
BBX 11 13 1 0
BITMAP
ff00
6380
6180
6180
6180
6300
7e00
6e00
6600
6300
6180
60c0
f0e0
ENDCHAR
STARTCHAR S
ENCODING 83
SWIDTH 556 0
DWIDTH 11 0
BBX 8 13 2 0
BITMAP
3a
46
c2
c0
e0
78
3c
0e
07
03
83
c6
b8
ENDCHAR
STARTCHAR T
ENCODING 84
SWIDTH 611 0
DWIDTH 12 0
BBX 10 13 1 0
BITMAP
ffc0
ccc0
8c40
0c00
0c00
0c00
0c00
0c00
0c00
0c00
0c00
0c00
1e00
ENDCHAR
STARTCHAR U
ENCODING 85
SWIDTH 722 0
DWIDTH 14 0
BBX 11 13 2 0
BITMAP
f0e0
6040
6040
6040
6040
6040
6040
6040
6040
6040
70c0
3980
1f00
ENDCHAR
STARTCHAR V
ENCODING 86
SWIDTH 722 0
DWIDTH 14 0
BBX 13 13 0 0
BITMAP
f878
7030
3020
3820
1860
1840
1c40
0cc0
0e80
0680
0780
0300
0300
ENDCHAR
STARTCHAR W
ENCODING 87
SWIDTH 944 0
DWIDTH 18 0
BBX 18 13 0 0
BITMAP
f9e3c0
70c180
30c100
38e100
186300
18e200
18e200
1da600
0d3400
0f3c00
0e3800
061800
061800
ENDCHAR
STARTCHAR X
ENCODING 88
SWIDTH 722 0
DWIDTH 14 0
BBX 12 13 1 0
BITMAP
f070
7060
38c0
1980
0d00
0e00
0600
0f00
1b00
1180
31c0
60e0
f0f0
ENDCHAR
STARTCHAR Y
ENCODING 89
SWIDTH 722 0
DWIDTH 14 0
BBX 12 13 1 0
BITMAP
f0f0
7060
30c0
1880
1900
0f00
0600
0600
0600
0600
0600
0600
0f00
ENDCHAR
STARTCHAR Z
ENCODING 90
SWIDTH 611 0
DWIDTH 12 0
BBX 10 13 1 0
BITMAP
7fc0
61c0
4180
0380
0700
0600
0e00
1c00
3800
3000
7040
e0c0
ffc0
ENDCHAR
STARTCHAR bracketleft
ENCODING 91
SWIDTH 333 0
DWIDTH 6 0
BBX 4 16 2 -3
BITMAP
f0
c0
c0
c0
c0
c0
c0
c0
c0
c0
c0
c0
c0
c0
c0
f0
ENDCHAR
STARTCHAR backslash
ENCODING 92
SWIDTH 278 0
DWIDTH 5 0
BBX 5 13 0 0
BITMAP
80
80
c0
40
60
60
20
30
30
10
18
08
08
ENDCHAR
STARTCHAR bracketright
ENCODING 93
SWIDTH 333 0
DWIDTH 6 0
BBX 4 16 0 -3
BITMAP
f0
30
30
30
30
30
30
30
30
30
30
30
30
30
30
f0
ENDCHAR
STARTCHAR asciicircum
ENCODING 94
SWIDTH 469 0
DWIDTH 9 0
BBX 7 7 1 6
BITMAP
10
38
28
6c
44
c6
82
ENDCHAR
STARTCHAR underscore
ENCODING 95
SWIDTH 500 0
DWIDTH 9 0
BBX 9 2 0 -4
BITMAP
ff80
ff80
ENDCHAR
STARTCHAR grave
ENCODING 96
SWIDTH 333 0
DWIDTH 4 0
BBX 4 3 0 10
BITMAP
c0
60
10
ENDCHAR
STARTCHAR a
ENCODING 97
SWIDTH 444 0
DWIDTH 9 0
BBX 7 9 1 0
BITMAP
78
c8
cc
1c
6c
cc
cc
fc
66
ENDCHAR
STARTCHAR b
ENCODING 98
SWIDTH 500 0
DWIDTH 9 0
BBX 8 13 0 0
BITMAP
60
e0
60
60
6e
77
63
63
63
63
63
66
5c
ENDCHAR
STARTCHAR c
ENCODING 99
SWIDTH 444 0
DWIDTH 8 0
BBX 7 9 0 0
BITMAP
3c
66
c0
c0
c0
c0
c0
66
3c
ENDCHAR
STARTCHAR d
ENCODING 100
SWIDTH 500 0
DWIDTH 9 0
BBX 8 13 0 0
BITMAP
06
0e
06
06
3e
66
c6
c6
c6
c6
c6
66
3f
ENDCHAR
STARTCHAR e
ENCODING 101
SWIDTH 444 0
DWIDTH 8 0
BBX 7 9 0 0
BITMAP
3c
66
c2
fe
c0
c0
c0
66
3c
ENDCHAR
STARTCHAR f
ENCODING 102
SWIDTH 333 0
DWIDTH 6 0
BBX 6 13 0 0
BITMAP
1c
34
20
60
f8
60
60
60
60
60
60
60
f0
ENDCHAR
STARTCHAR g
ENCODING 103
SWIDTH 500 0
DWIDTH 9 0
BBX 8 13 0 -4
BITMAP
3e
cc
c4
c4
cc
78
40
7c
7f
83
c1
e2
7c
ENDCHAR
STARTCHAR h
ENCODING 104
SWIDTH 500 0
DWIDTH 10 0
BBX 9 13 0 0
BITMAP
6000
e000
6000
6000
6600
6f00
7300
6300
6300
6300
6300
6300
f380
ENDCHAR
STARTCHAR i
ENCODING 105
SWIDTH 278 0
DWIDTH 5 0
BBX 4 13 0 0
BITMAP
60
60
00
00
60
e0
60
60
60
60
60
60
f0
ENDCHAR
STARTCHAR j
ENCODING 106
SWIDTH 278 0
DWIDTH 5 0
BBX 4 17 -1 -4
BITMAP
30
30
00
00
30
70
30
30
30
30
30
30
30
30
30
e0
c0
ENDCHAR
STARTCHAR k
ENCODING 107
SWIDTH 500 0
DWIDTH 9 0
BBX 10 13 0 0
BITMAP
6000
e000
6000
6000
6700
6200
6400
6800
7800
6c00
6e00
6700
e3c0
ENDCHAR
STARTCHAR l
ENCODING 108
SWIDTH 278 0
DWIDTH 5 0
BBX 4 13 0 0
BITMAP
60
e0
60
60
60
60
60
60
60
60
60
60
f0
ENDCHAR
STARTCHAR m
ENCODING 109
SWIDTH 778 0
DWIDTH 15 0
BBX 14 9 0 0
BITMAP
6630
ef78
7398
6318
6318
6318
6318
6318
f7bc
ENDCHAR
STARTCHAR n
ENCODING 110
SWIDTH 500 0
DWIDTH 10 0
BBX 9 9 0 0
BITMAP
6600
ef00
7300
6300
6300
6300
6300
6300
f380
ENDCHAR
STARTCHAR o
ENCODING 111
SWIDTH 500 0
DWIDTH 9 0
BBX 8 9 0 0
BITMAP
3c
66
c3
c3
c3
c3
c3
66
3c
ENDCHAR
STARTCHAR p
ENCODING 112
SWIDTH 500 0
DWIDTH 9 0
BBX 8 13 0 -4
BITMAP
6e
f7
63
63
63
63
63
76
7c
60
60
60
f0
ENDCHAR
STARTCHAR q
ENCODING 113
SWIDTH 500 0
DWIDTH 9 0
BBX 8 13 0 -4
BITMAP
3e
66
c6
c6
c6
c6
c6
66
3e
06
06
06
0f
ENDCHAR
STARTCHAR r
ENCODING 114
SWIDTH 333 0
DWIDTH 7 0
BBX 6 9 0 0
BITMAP
6c
ec
70
60
60
60
60
60
f0
ENDCHAR
STARTCHAR s
ENCODING 115
SWIDTH 389 0
DWIDTH 7 0
BBX 5 9 1 0
BITMAP
68
98
c8
e0
70
38
98
c8
b0
ENDCHAR
STARTCHAR t
ENCODING 116
SWIDTH 278 0
DWIDTH 6 0
BBX 6 11 0 0
BITMAP
20
60
f8
60
60
60
60
60
60
74
38
ENDCHAR
STARTCHAR u
ENCODING 117
SWIDTH 500 0
DWIDTH 10 0
BBX 9 9 0 0
BITMAP
e700
6300
6300
6300
6300
6300
6300
7700
3b80
ENDCHAR
STARTCHAR v
ENCODING 118
SWIDTH 500 0
DWIDTH 9 0
BBX 9 9 -1 0
BITMAP
f380
6300
6200
3200
3600
1400
1c00
0800
0800
ENDCHAR
STARTCHAR w
ENCODING 119
SWIDTH 722 0
DWIDTH 14 0
BBX 13 9 0 0
BITMAP
e738
6630
6260
3660
3760
1d40
1dc0
0880
0880
ENDCHAR
STARTCHAR x
ENCODING 120
SWIDTH 500 0
DWIDTH 9 0
BBX 9 9 0 0
BITMAP
e180
6300
3600
1c00
1c00
1c00
3600
6300
c380
ENDCHAR
STARTCHAR y
ENCODING 121
SWIDTH 500 0
DWIDTH 9 0
BBX 8 13 0 -4
BITMAP
f3
63
72
32
36
1c
1c
0c
08
18
10
f0
e0
ENDCHAR
STARTCHAR z
ENCODING 122
SWIDTH 444 0
DWIDTH 8 0
BBX 7 9 0 0
BITMAP
fe
ce
8c
18
30
30
62
e6
fe
ENDCHAR
STARTCHAR braceleft
ENCODING 123
SWIDTH 480 0
DWIDTH 9 0
BBX 7 17 1 -4
BITMAP
0e
18
30
30
30
30
30
60
c0
60
30
30
30
30
30
18
0e
ENDCHAR
STARTCHAR bar
ENCODING 124
SWIDTH 200 0
DWIDTH 3 0
BBX 1 13 1 0
BITMAP
80
80
80
80
80
80
80
80
80
80
80
80
80
ENDCHAR
STARTCHAR braceright
ENCODING 125
SWIDTH 480 0
DWIDTH 9 0
BBX 7 17 1 -4
BITMAP
e0
30
18
18
18
18
18
0c
06
0c
18
18
18
18
18
30
e0
ENDCHAR
STARTCHAR asciitilde
ENCODING 126
SWIDTH 541 0
DWIDTH 11 0
BBX 9 4 1 3
BITMAP
3000
7980
cf00
0600
ENDCHAR
STARTCHAR nobreakspace
ENCODING 160
SWIDTH 250 0
DWIDTH 5 0
BBX 1 1 0 0
BITMAP
00
ENDCHAR
STARTCHAR Aogonek
ENCODING 161
SWIDTH 722 0
DWIDTH 14 0
BBX 13 18 1 -5
BITMAP
0200
0700
0700
0500
0d80
0980
19c0
10c0
1fc0
30e0
2060
6070
f0f8
0200
0600
0400
0780
0300
ENDCHAR
STARTCHAR breve
ENCODING 162
SWIDTH 333 0
DWIDTH 6 0
BBX 5 3 0 10
BITMAP
88
d8
70
ENDCHAR
STARTCHAR Lstroke
ENCODING 163
SWIDTH 611 0
DWIDTH 11 0
BBX 11 13 0 0
BITMAP
7800
3000
3000
3400
3800
3000
7000
b000
3000
3000
3020
3060
7fe0
ENDCHAR
STARTCHAR currency
ENCODING 164
SWIDTH 500 0
DWIDTH 11 0
BBX 9 7 1 3
BITMAP
dd80
f780
6300
4100
6300
f780
dd80
ENDCHAR
STARTCHAR Lcaron
ENCODING 165
SWIDTH 611 0
DWIDTH 12 0
BBX 10 14 1 0
BITMAP
0600
f700
6100
6200
6000
6000
6000
6000
6000
6000
6000
6040
60c0
ffc0
ENDCHAR
STARTCHAR Sacute
ENCODING 166
SWIDTH 556 0
DWIDTH 11 0
BBX 8 17 2 0
BITMAP
06
0c
10
00
3a
46
c2
c0
e0
78
3c
0e
07
03
83
c6
b8
ENDCHAR
STARTCHAR section
ENCODING 167
SWIDTH 500 0
DWIDTH 10 0
BBX 8 16 1 -3
BITMAP
3c
66
66
70
38
7c
8e
c7
e3
71
3e
1c
0e
66
66
3c
ENDCHAR
STARTCHAR diaeresis
ENCODING 168
SWIDTH 333 0
DWIDTH 5 0
BBX 5 2 0 10
BITMAP
d8
d8
ENDCHAR
STARTCHAR Scaron
ENCODING 169
SWIDTH 556 0
DWIDTH 11 0
BBX 8 17 2 0
BITMAP
6c
38
10
00
3a
46
c2
c0
e0
78
3c
0e
07
03
83
c6
b8
ENDCHAR
STARTCHAR Scedilla
ENCODING 170
SWIDTH 556 0
DWIDTH 11 0
BBX 8 18 2 -5
BITMAP
3a
46
c2
c0
e0
78
3c
0e
07
03
83
c6
b8
08
08
04
2c
1c
ENDCHAR
STARTCHAR Tcaron
ENCODING 171
SWIDTH 611 0
DWIDTH 12 0
BBX 10 17 1 0
BITMAP
3600
1c00
0800
0000
ffc0
ccc0
8c40
0c00
0c00
0c00
0c00
0c00
0c00
0c00
0c00
0c00
1e00
ENDCHAR
STARTCHAR Zacute
ENCODING 172
SWIDTH 611 0
DWIDTH 12 0
BBX 10 17 1 0
BITMAP
0180
0300
0400
0000
7fc0
61c0
4180
0380
0700
0600
0e00
1c00
3800
3000
7040
e0c0
ffc0
ENDCHAR
STARTCHAR hyphen
ENCODING 173
SWIDTH 333 0
DWIDTH 6 0
BBX 5 2 0 3
BITMAP
f8
f8
ENDCHAR
STARTCHAR Zcaron
ENCODING 174
SWIDTH 611 0
DWIDTH 12 0
BBX 10 17 1 0
BITMAP
1b00
0e00
0400
0000
7fc0
61c0
4180
0380
0700
0600
0e00
1c00
3800
3000
7040
e0c0
ffc0
ENDCHAR
STARTCHAR Zabovedot
ENCODING 175
SWIDTH 611 0
DWIDTH 12 0
BBX 10 16 1 0
BITMAP
0600
0600
0000
7fc0
61c0
4180
0380
0700
0600
0e00
1c00
3800
3000
7040
e0c0
ffc0
ENDCHAR
STARTCHAR degree
ENCODING 176
SWIDTH 400 0
DWIDTH 7 0
BBX 5 5 1 8
BITMAP
70
88
88
88
70
ENDCHAR
STARTCHAR aogonek
ENCODING 177
SWIDTH 444 0
DWIDTH 9 0
BBX 7 14 1 -5
BITMAP
78
c8
cc
1c
6c
cc
cc
fc
66
10
30
20
3c
18
ENDCHAR
STARTCHAR ogonek
ENCODING 178
SWIDTH 333 0
DWIDTH 6 0
BBX 4 5 1 -4
BITMAP
40
c0
80
f0
60
ENDCHAR
STARTCHAR lstroke
ENCODING 179
SWIDTH 278 0
DWIDTH 5 0
BBX 6 13 -1 0
BITMAP
70
30
30
34
38
30
30
70
b0
30
30
30
78
ENDCHAR
STARTCHAR acute
ENCODING 180
SWIDTH 333 0
DWIDTH 4 0
BBX 4 3 0 10
BITMAP
30
60
80
ENDCHAR
STARTCHAR lcaron
ENCODING 181
SWIDTH 411 0
DWIDTH 8 0
BBX 7 14 0 0
BITMAP
0c
6e
e2
64
60
60
60
60
60
60
60
60
60
f0
ENDCHAR
STARTCHAR sacute
ENCODING 182
SWIDTH 389 0
DWIDTH 7 0
BBX 6 13 1 0
BITMAP
0c
18
20
00
68
98
c8
e0
70
38
98
c8
b0
ENDCHAR
STARTCHAR caron
ENCODING 183
SWIDTH 333 0
DWIDTH 6 0
BBX 5 3 0 10
BITMAP
d8
70
20
ENDCHAR
STARTCHAR cedilla
ENCODING 184
SWIDTH 333 0
DWIDTH 6 0
BBX 4 5 1 -4
BITMAP
20
20
10
b0
70
ENDCHAR
STARTCHAR scaron
ENCODING 185
SWIDTH 389 0
DWIDTH 7 0
BBX 5 13 1 0
BITMAP
d8
70
20
00
68
98
c8
e0
70
38
98
c8
b0
ENDCHAR
STARTCHAR scedilla
ENCODING 186
SWIDTH 389 0
DWIDTH 7 0
BBX 5 14 1 -5
BITMAP
68
98
c8
e0
70
38
98
c8
b0
10
10
08
58
38
ENDCHAR
STARTCHAR tcaron
ENCODING 187
SWIDTH 360 0
DWIDTH 7 0
BBX 7 14 0 0
BITMAP
0c
0e
02
24
60
f8
60
60
60
60
60
60
74
38
ENDCHAR
STARTCHAR zacute
ENCODING 188
SWIDTH 444 0
DWIDTH 8 0
BBX 7 13 0 0
BITMAP
06
0c
10
00
fe
ce
8c
18
30
30
62
e6
fe
ENDCHAR
STARTCHAR doubleacute
ENCODING 189
SWIDTH 333 0
DWIDTH 6 0
BBX 6 3 0 10
BITMAP
6c
48
90
ENDCHAR
STARTCHAR zcaron
ENCODING 190
SWIDTH 444 0
DWIDTH 8 0
BBX 7 13 0 0
BITMAP
6c
38
10
00
fe
ce
8c
18
30
30
62
e6
fe
ENDCHAR
STARTCHAR zabovedot
ENCODING 191
SWIDTH 444 0
DWIDTH 8 0
BBX 7 12 0 0
BITMAP
18
18
00
fe
ce
8c
18
30
30
62
e6
fe
ENDCHAR
STARTCHAR Racute
ENCODING 192
SWIDTH 667 0
DWIDTH 13 0
BBX 11 17 1 0
BITMAP
0300
0600
0800
0000
ff00
6380
6180
6180
6180
6300
7e00
6e00
6600
6300
6180
60c0
f0e0
ENDCHAR
STARTCHAR Aacute
ENCODING 193
SWIDTH 722 0
DWIDTH 14 0
BBX 13 17 1 0
BITMAP
00c0
0180
0200
0000
0200
0700
0700
0500
0d80
0980
19c0
10c0
1fc0
30e0
2060
6070
f0f8
ENDCHAR
STARTCHAR Acircumflex
ENCODING 194
SWIDTH 722 0
DWIDTH 14 0
BBX 13 17 1 0
BITMAP
0200
0700
0d80
0000
0200
0700
0700
0500
0d80
0980
19c0
10c0
1fc0
30e0
2060
6070
f0f8
ENDCHAR
STARTCHAR Abreve
ENCODING 195
SWIDTH 722 0
DWIDTH 14 0
BBX 13 17 1 0
BITMAP
0880
0d80
0700
0000
0200
0700
0700
0500
0d80
0980
19c0
10c0
1fc0
30e0
2060
6070
f0f8
ENDCHAR
STARTCHAR Adiaeresis
ENCODING 196
SWIDTH 722 0
DWIDTH 14 0
BBX 13 16 1 0
BITMAP
0d80
0d80
0000
0200
0700
0700
0500
0d80
0980
19c0
10c0
1fc0
30e0
2060
6070
f0f8
ENDCHAR
STARTCHAR Lacute
ENCODING 197
SWIDTH 611 0
DWIDTH 12 0
BBX 10 17 1 0
BITMAP
1800
3000
4000
0000
f000
6000
6000
6000
6000
6000
6000
6000
6000
6000
6040
60c0
ffc0
ENDCHAR
STARTCHAR Cacute
ENCODING 198
SWIDTH 667 0
DWIDTH 13 0
BBX 11 17 1 0
BITMAP
0180
0300
0400
0000
0f20
30e0
6060
6020
c000
c000
c000
c000
c000
6000
6060
38c0
0f00
ENDCHAR
STARTCHAR Ccedilla
ENCODING 199
SWIDTH 667 0
DWIDTH 13 0
BBX 11 17 1 -4
BITMAP
0f20
30e0
6060
6020
c000
c000
c000
c000
c000
6000
6060
38c0
0f00
0400
0200
1600
0e00
ENDCHAR
STARTCHAR Ccaron
ENCODING 200
SWIDTH 667 0
DWIDTH 13 0
BBX 11 17 1 0
BITMAP
1b00
0e00
0400
0000
0f20
30e0
6060
6020
c000
c000
c000
c000
c000
6000
6060
38c0
0f00
ENDCHAR
STARTCHAR Eacute
ENCODING 201
SWIDTH 611 0
DWIDTH 12 0
BBX 9 17 1 0
BITMAP
0300
0600
0800
0000
ff80
6180
6080
6000
6000
6100
7f00
6100
6000
6000
6080
6180
ff80
ENDCHAR
STARTCHAR Eogonek
ENCODING 202
SWIDTH 611 0
DWIDTH 12 0
BBX 9 18 1 -5
BITMAP
ff80
6180
6080
6000
6000
6100
7f00
6100
6000
6000
6080
6180
ff80
0800
1800
1000
1e00
0c00
ENDCHAR
STARTCHAR Ediaeresis
ENCODING 203
SWIDTH 611 0
DWIDTH 12 0
BBX 9 16 1 0
BITMAP
3600
3600
0000
ff80
6180
6080
6000
6000
6100
7f00
6100
6000
6000
6080
6180
ff80
ENDCHAR
STARTCHAR Ecaron
ENCODING 204
SWIDTH 611 0
DWIDTH 12 0
BBX 9 17 1 0
BITMAP
3600
1c00
0800
0000
ff80
6180
6080
6000
6000
6100
7f00
6100
6000
6000
6080
6180
ff80
ENDCHAR
STARTCHAR Iacute
ENCODING 205
SWIDTH 333 0
DWIDTH 6 0
BBX 6 17 1 0
BITMAP
0c
18
20
00
f0
60
60
60
60
60
60
60
60
60
60
60
f0
ENDCHAR
STARTCHAR Icircumflex
ENCODING 206
SWIDTH 333 0
DWIDTH 6 0
BBX 5 17 1 0
BITMAP
20
70
d8
00
f0
60
60
60
60
60
60
60
60
60
60
60
f0
ENDCHAR
STARTCHAR Dcaron
ENCODING 207
SWIDTH 722 0
DWIDTH 14 0
BBX 11 17 2 0
BITMAP
3600
1c00
0800
0000
ff00
6380
60c0
60c0
6060
6060
6060
6060
6060
60c0
60c0
6380
ff00
ENDCHAR
STARTCHAR Dstroke
ENCODING 208
SWIDTH 722 0
DWIDTH 13 0
BBX 12 13 0 0
BITMAP
7f80
31c0
3060
3060
3030
3030
fc30
3030
3030
3060
3060
31c0
7f80
ENDCHAR
STARTCHAR Nacute
ENCODING 209
SWIDTH 722 0
DWIDTH 14 0
BBX 12 17 1 0
BITMAP
0180
0300
0400
0000
e070
6020
7020
7820
5c20
4c20
4e20
4720
43a0
41e0
40e0
4060
e020
ENDCHAR
STARTCHAR Ncaron
ENCODING 210
SWIDTH 722 0
DWIDTH 14 0
BBX 12 17 1 0
BITMAP
1b00
0e00
0400
0000
e070
6020
7020
7820
5c20
4c20
4e20
4720
43a0
41e0
40e0
4060
e020
ENDCHAR
STARTCHAR Oacute
ENCODING 211
SWIDTH 722 0
DWIDTH 14 0
BBX 12 17 1 0
BITMAP
00c0
0180
0200
0000
0f00
30c0
6060
6060
c030
c030
c030
c030
c030
6060
6060
30c0
0f00
ENDCHAR
STARTCHAR Ocircumflex
ENCODING 212
SWIDTH 722 0
DWIDTH 14 0
BBX 12 17 1 0
BITMAP
0400
0e00
1b00
0000
0f00
30c0
6060
6060
c030
c030
c030
c030
c030
6060
6060
30c0
0f00
ENDCHAR
STARTCHAR Odoubleacute
ENCODING 213
SWIDTH 722 0
DWIDTH 14 0
BBX 12 17 1 0
BITMAP
06c0
0480
0900
0000
0f00
30c0
6060
6060
c030
c030
c030
c030
c030
6060
6060
30c0
0f00
ENDCHAR
STARTCHAR Odiaeresis
ENCODING 214
SWIDTH 722 0
DWIDTH 14 0
BBX 12 16 1 0
BITMAP
1b00
1b00
0000
0f00
30c0
6060
6060
c030
c030
c030
c030
c030
6060
6060
30c0
0f00
ENDCHAR
STARTCHAR multiply
ENCODING 215
SWIDTH 564 0
DWIDTH 10 0
BBX 8 7 1 1
BITMAP
c3
66
3c
18
3c
66
c3
ENDCHAR
STARTCHAR Rcaron
ENCODING 216
SWIDTH 667 0
DWIDTH 13 0
BBX 11 17 1 0
BITMAP
3600
1c00
0800
0000
ff00
6380
6180
6180
6180
6300
7e00
6e00
6600
6300
6180
60c0
f0e0
ENDCHAR
STARTCHAR Uring
ENCODING 217
SWIDTH 722 0
DWIDTH 14 0
BBX 11 18 2 0
BITMAP
0600
0900
0900
0600
0000
f0e0
6040
6040
6040
6040
6040
6040
6040
6040
6040
70c0
3980
1f00
ENDCHAR
STARTCHAR Uacute
ENCODING 218
SWIDTH 722 0
DWIDTH 14 0
BBX 11 17 2 0
BITMAP
00c0
0180
0200
0000
f0e0
6040
6040
6040
6040
6040
6040
6040
6040
6040
70c0
3980
1f00
ENDCHAR
STARTCHAR Udoubleacute
ENCODING 219
SWIDTH 722 0
DWIDTH 14 0
BBX 11 17 2 0
BITMAP
06c0
0480
0900
0000
f0e0
6040
6040
6040
6040
6040
6040
6040
6040
6040
70c0
3980
1f00
ENDCHAR
STARTCHAR Udiaeresis
ENCODING 220
SWIDTH 722 0
DWIDTH 14 0
BBX 11 16 2 0
BITMAP
1b00
1b00
0000
f0e0
6040
6040
6040
6040
6040
6040
6040
6040
6040
70c0
3980
1f00
ENDCHAR
STARTCHAR Yacute
ENCODING 221
SWIDTH 722 0
DWIDTH 14 0
BBX 12 17 1 0
BITMAP
00c0
0180
0200
0000
f0f0
7060
30c0
1880
1900
0f00
0600
0600
0600
0600
0600
0600
0f00
ENDCHAR
STARTCHAR Tcedilla
ENCODING 222
SWIDTH 611 0
DWIDTH 12 0
BBX 10 18 1 -5
BITMAP
ffc0
ccc0
8c40
0c00
0c00
0c00
0c00
0c00
0c00
0c00
0c00
0c00
1e00
0400
0400
0200
1600
0e00
ENDCHAR
STARTCHAR ssharp
ENCODING 223
SWIDTH 500 0
DWIDTH 9 0
BBX 8 13 0 0
BITMAP
1c
32
63
63
66
6e
7c
66
63
63
6b
6f
ee
ENDCHAR
STARTCHAR racute
ENCODING 224
SWIDTH 333 0
DWIDTH 7 0
BBX 6 13 0 0
BITMAP
0c
18
20
00
6c
ec
70
60
60
60
60
60
f0
ENDCHAR
STARTCHAR aacute
ENCODING 225
SWIDTH 444 0
DWIDTH 9 0
BBX 7 13 1 0
BITMAP
0c
18
20
00
78
c8
cc
1c
6c
cc
cc
fc
66
ENDCHAR
STARTCHAR acircumflex
ENCODING 226
SWIDTH 444 0
DWIDTH 9 0
BBX 7 13 1 0
BITMAP
10
38
6c
00
78
c8
cc
1c
6c
cc
cc
fc
66
ENDCHAR
STARTCHAR abreve
ENCODING 227
SWIDTH 444 0
DWIDTH 9 0
BBX 7 13 1 0
BITMAP
88
d8
70
00
78
c8
cc
1c
6c
cc
cc
fc
66
ENDCHAR
STARTCHAR adiaeresis
ENCODING 228
SWIDTH 444 0
DWIDTH 9 0
BBX 7 12 1 0
BITMAP
6c
6c
00
78
c8
cc
1c
6c
cc
cc
fc
66
ENDCHAR
STARTCHAR lacute
ENCODING 229
SWIDTH 278 0
DWIDTH 5 0
BBX 5 17 0 0
BITMAP
18
30
40
00
60
e0
60
60
60
60
60
60
60
60
60
60
f0
ENDCHAR
STARTCHAR cacute
ENCODING 230
SWIDTH 444 0
DWIDTH 8 0
BBX 7 13 0 0
BITMAP
06
0c
10
00
3c
66
c0
c0
c0
c0
c0
66
3c
ENDCHAR
STARTCHAR ccedilla
ENCODING 231
SWIDTH 444 0
DWIDTH 8 0
BBX 7 13 0 -4
BITMAP
3c
66
c0
c0
c0
c0
c0
66
3c
10
08
58
38
ENDCHAR
STARTCHAR ccaron
ENCODING 232
SWIDTH 444 0
DWIDTH 8 0
BBX 7 13 0 0
BITMAP
6c
38
10
00
3c
66
c0
c0
c0
c0
c0
66
3c
ENDCHAR
STARTCHAR eacute
ENCODING 233
SWIDTH 444 0
DWIDTH 8 0
BBX 7 13 0 0
BITMAP
06
0c
10
00
3c
66
c2
fe
c0
c0
c0
66
3c
ENDCHAR
STARTCHAR eogonek
ENCODING 234
SWIDTH 444 0
DWIDTH 8 0
BBX 7 14 0 -5
BITMAP
3c
66
c2
fe
c0
c0
c0
66
3c
10
30
20
3c
18
ENDCHAR
STARTCHAR ediaeresis
ENCODING 235
SWIDTH 444 0
DWIDTH 8 0
BBX 7 12 0 0
BITMAP
6c
6c
00
3c
66
c2
fe
c0
c0
c0
66
3c
ENDCHAR
STARTCHAR ecaron
ENCODING 236
SWIDTH 444 0
DWIDTH 8 0
BBX 7 13 0 0
BITMAP
6c
38
10
00
3c
66
c2
fe
c0
c0
c0
66
3c
ENDCHAR
STARTCHAR iacute
ENCODING 237
SWIDTH 278 0
DWIDTH 5 0
BBX 6 13 0 0
BITMAP
0c
18
20
00
60
e0
60
60
60
60
60
60
f0
ENDCHAR
STARTCHAR icircumflex
ENCODING 238
SWIDTH 278 0
DWIDTH 5 0
BBX 5 13 0 0
BITMAP
20
70
d8
00
60
e0
60
60
60
60
60
60
f0
ENDCHAR
STARTCHAR dcaron
ENCODING 239
SWIDTH 617 0
DWIDTH 12 0
BBX 11 14 0 0
BITMAP
00c0
06e0
0e20
0640
0600
3e00
6600
c600
c600
c600
c600
c600
6600
3f00
ENDCHAR
STARTCHAR dstroke
ENCODING 240
SWIDTH 565 0
DWIDTH 11 0
BBX 10 13 0 0
BITMAP
0600
0600
3fc0
0600
3e00
6600
c600
c600
c600
c600
c600
6600
3f00
ENDCHAR
STARTCHAR nacute
ENCODING 241
SWIDTH 500 0
DWIDTH 10 0
BBX 9 13 0 0
BITMAP
0600
0c00
1000
0000
6600
ef00
7300
6300
6300
6300
6300
6300
f380
ENDCHAR
STARTCHAR ncaron
ENCODING 242
SWIDTH 500 0
DWIDTH 10 0
BBX 9 13 0 0
BITMAP
6c00
3800
1000
0000
6600
ef00
7300
6300
6300
6300
6300
6300
f380
ENDCHAR
STARTCHAR oacute
ENCODING 243
SWIDTH 500 0
DWIDTH 9 0
BBX 8 13 0 0
BITMAP
06
0c
10
00
3c
66
c3
c3
c3
c3
c3
66
3c
ENDCHAR
STARTCHAR ocircumflex
ENCODING 244
SWIDTH 500 0
DWIDTH 9 0
BBX 8 13 0 0
BITMAP
10
38
6c
00
3c
66
c3
c3
c3
c3
c3
66
3c
ENDCHAR
STARTCHAR odoubleacute
ENCODING 245
SWIDTH 500 0
DWIDTH 9 0
BBX 8 13 0 0
BITMAP
1b
12
24
00
3c
66
c3
c3
c3
c3
c3
66
3c
ENDCHAR
STARTCHAR odiaeresis
ENCODING 246
SWIDTH 500 0
DWIDTH 9 0
BBX 8 12 0 0
BITMAP
6c
6c
00
3c
66
c3
c3
c3
c3
c3
66
3c
ENDCHAR
STARTCHAR division
ENCODING 247
SWIDTH 564 0
DWIDTH 10 0
BBX 8 8 1 1
BITMAP
18
18
00
ff
ff
00
18
18
ENDCHAR
STARTCHAR rcaron
ENCODING 248
SWIDTH 333 0
DWIDTH 7 0
BBX 6 13 0 0
BITMAP
d8
70
20
00
6c
ec
70
60
60
60
60
60
f0
ENDCHAR
STARTCHAR uring
ENCODING 249
SWIDTH 500 0
DWIDTH 10 0
BBX 9 14 0 0
BITMAP
1800
2400
2400
1800
0000
e700
6300
6300
6300
6300
6300
6300
7700
3b80
ENDCHAR
STARTCHAR uacute
ENCODING 250
SWIDTH 500 0
DWIDTH 10 0
BBX 9 13 0 0
BITMAP
0600
0c00
1000
0000
e700
6300
6300
6300
6300
6300
6300
7700
3b80
ENDCHAR
STARTCHAR udoubleacute
ENCODING 251
SWIDTH 500 0
DWIDTH 10 0
BBX 9 13 0 0
BITMAP
1b00
1200
2400
0000
e700
6300
6300
6300
6300
6300
6300
7700
3b80
ENDCHAR
STARTCHAR udiaeresis
ENCODING 252
SWIDTH 500 0
DWIDTH 10 0
BBX 9 12 0 0
BITMAP
3600
3600
0000
e700
6300
6300
6300
6300
6300
6300
7700
3b80
ENDCHAR
STARTCHAR yacute
ENCODING 253
SWIDTH 500 0
DWIDTH 8 0
BBX 8 17 -1 -4
BITMAP
03
06
08
00
f3
63
72
32
36
1c
1c
0c
08
18
10
f0
e0
ENDCHAR
STARTCHAR tcedilla
ENCODING 254
SWIDTH 278 0
DWIDTH 6 0
BBX 6 16 0 -5
BITMAP
20
60
f8
60
60
60
60
60
60
74
38
10
10
08
58
38
ENDCHAR
STARTCHAR abovedot
ENCODING 255
SWIDTH 333 0
DWIDTH 6 0
BBX 2 2 2 10
BITMAP
c0
c0
ENDCHAR
ENDFONT
