STARTFONT 2.1
COMMENT $XConsortium: xtfont0.bdf,v 1.2 92/06/30 17:23:42 rws Exp $
COMMENT xtfont0 - font to test special cases.
FONT xtfont0
SIZE 13 100 100
FONTBOUNDINGBOX 30 23 -4 -3
STARTPROPERTIES 8
DEFAULT_CHAR 0
FONT_DESCENT 3
FONT_ASCENT 20
COPYRIGHT "Public domain font.  Share and enjoy."
MIN_SPACE 3
NORM_SPACE 5
RESOLUTION 100
UNDERLINE_POSITION 2
ENDPROPERTIES
CHARS 4
COMMENT The character 0 is reserved to be non-existant.
COMMENT STARTCHAR nonexistant
COMMENT ENCODING 0
COMMENT SWIDTH 0 0
COMMENT DWIDTH 0 0
COMMENT BBX 0 0 0 0
COMMENT BITMAP
COMMENT ENDCHAR
COMMENT This is a 10x10 block
STARTCHAR C001
ENCODING 1
SWIDTH 570 0
DWIDTH 10 0
BBX 10 10 0 0
BITMAP
ffc0
ffc0
ffc0
ffc0
ffc0
ffc0
ffc0
ffc0
ffc0
ffc0
ENDCHAR
COMMENT This is a 10x10 empty block
STARTCHAR C002
ENCODING 2
SWIDTH 123 0
DWIDTH 2 0
BBX 10 10 0 0
BITMAP
0000
0000
0000
0000
0000
0000
0000
0000
0000
0000
ENDCHAR
STARTCHAR C004
ENCODING 4
SWIDTH 123 0
DWIDTH 4 0
BBX 20 11 5 2
BITMAP
d5f000
000000
000000
000180
03fe00
003000
003ff0
3ff040
000000
3ffc00
3f8000
ENDCHAR
STARTCHAR C068
ENCODING 68
SWIDTH 123 0
DWIDTH 10 0
BBX 9 11 1 -3
BITMAP
f000
fc00
c600
c300
c180
c080
c080
c100
c200
c400
f800
ENDCHAR
ENDFONT
