STARTFONT 2.1
COMMENT $XConsortium: xtfont5.bdf,v 1.2 92/06/30 17:24:32 rws Exp $
COMMENT  xtfont5 - font with large characters, chars 0-3
COMMENT Based on t7 font tf_big3:
COMMENT        This font describes a few fairly big characters.
FONT xtfont5
SIZE 14 78 78
FONTBOUNDINGBOX 129 67 -1 -1
STARTPROPERTIES 4
COPYRIGHT "These glyphs are unencumbered"
FONT_ASCENT 66
FONT_DESCENT 1
DEFAULT_CHAR 1234
ENDPROPERTIES
CHARS 4
STARTCHAR ascii001
ENCODING 0
SWIDTH 571 0
DWIDTH 129 0
BBX 128 63 0 3
BITMAP
801ff003001ff002001ff002801ff002
c0038004801ff006801ff00640038006
60038004c003800ec003800e4003800c
300380106003801c6003801c10038018
18038020300380383003803808038030
0c038040180380701803807004038060
060380800c0380e00c0380e0020380c0
03038100060381c0060381c001038180
01838200030383800303838000838300
00c38400018387000183870000438600
00638c0000c38e0000c38e0000638c00
1033900800639c0000639c0020139810
101820081033b8081033b80820083010
100c4008101870081018700820046010
10068008100ce008100ce0082002c010
fffd7ffe1006c0081006c008fffd7ffe
1006c008fffd7ffefffd7ffe2006c010
100ce0081006800810068008200e6010
10187008100c4008100c4008201c3010
1033b8081018200810182008203b9810
00639c00103390081033900800738c00
00c38e0000638c0000638c0000e38600
0183870000c3840000c3840001c38300
03038380018382000183820003838180
060381c00303810003038100070380c0
0c0380e006038080060380800e038060
180380700c0380400c0380401c038030
30038038180380201803802038038018
6003801c30038010300380107003800c
c003800e6003800460038004e0038006
801ff006c0038004c0038004c01ff002
001ff002801ff002001ff002801ff002
001ff002801ff002801ff002801ff000
801ff0064003800640038006c01ff002
c003800e4003800c4003800ce0038006
6003801c10038018100380187003800c
30038038080380300803803038038018
1803807004038060040380601c038030
0c0380e0020380c0020380c00e038060
060381c00103818001038180070380c0
03038380008383000083830003838180
01838700004386000043860001c38300
00c38e0000638c0000638c0000e38600
00639c00201398102013981000738c00
1033b8082008301020083010203b9810
101870082004601020046010201c3010
100ce0082002c0102002c010200e6010
1006c008fffd7ffefffd7ffe2006c010
fffd7ffe2006c0102006c010fffd7ffe
10068008200e6010200e60102002c010
100c4008201c3010201c301020046010
10182008203b9810203b981020083010
1033900800738c0000738c0020139810
00638c0000e3860000e3860000638c00
00c3840001c3830001c3830000438600
01838200038381800383818000838300
03038100070380c0070380c001038180
060380800e0380600e038060020380c0
0c0380401c0380301c03803004038060
18038020380380183803801808038030
300380107003800c7003800c10038018
60038004e0038006e00380064003800c
c0038004c01ff002c01ff00240038006
ENDCHAR
STARTCHAR ascii001b
ENCODING 1
SWIDTH 571 0
DWIDTH 128 0
BBX 127 64 0 -1
BITMAP
001ff002801ff002801ff002801ff000
801ff0064003800640038006c01ff002
c003800e4003800c4003800ce0038006
6003801c10038018100380187003800c
30038038080380300803803038038018
1803807004038060040380601c038030
0c0380e0020380c0020380c00e038060
060381c00103818001038180070380c0
03038380008383000083830003838180
01838700004386000043860001c38300
00c38e0000638c0000638c0000e38600
00639c00201398102013981000738c00
1033b8082008301020083010203b9810
101870082004601020046010201c3010
100ce0082002c0102002c010200e6010
1006c008fffd7ffefffd7ffe2006c010
fffd7ffe2006c0102006c010fffd7ffe
10068008200e6010200e60102002c010
100c4008201c3010201c301020046010
10182008203b9810203b981020083010
1033900800738c0000738c0020139810
00638c0000e3860000e3860000638c00
00c3840001c3830001c3830000438600
01838200038381800383818000838300
03038100070380c0070380c001038180
060380800e0380600e038060020380c0
0c0380401c0380301c03803004038060
18038020380380183803801808038030
300380107003800c7003800c10038018
60038004e0038006e00380064003800c
c0038004c01ff002c01ff00240038006
001ff002801ff002801ff000801ff002
40038006c01ff002c01ff002c01ff002
4003800ce0038006e0038006e0038006
100380187003800c7003800c7003800c
08038030380380183803801838038018
040380601c0380301c0380301c038030
020380c00e0380600e0380600e038060
01038180070380c0070380c0070380c0
00838300038381800383818003838180
0043860001c3830001c3830001c38300
00638c0000e3860000e3860000e38600
2013981000738c0000738c0000738c00
20083010203b9810203b9810203b9810
20046010201c3010201c3010201c3010
2002c010200e6010200e6010200e6010
fffd7ffe2006c0102006c0102006c010
2006c010fffd7ffefffd7ffefffd7ffe
200e60102002c0102002c0102002c010
201c3010200460102004601020046010
203b9810200830102008301020083010
00738c00201398102013981020139810
00e3860000638c0000638c0000638c00
01c38300004386000043860000438600
03838180008383000083830000838300
070380c0010381800103818001038180
0e038060020380c0020380c0020380c0
1c038030040380600403806004038060
38038018080380300803803008038030
7003800c100380181003801810038018
e00380064003800c4003800c4003800c
c01ff002400380064003800640038006
801ff000801ff002801ff002801ff002
801ff000801ff000001ff002801ff002
ENDCHAR
STARTCHAR ascii001c
ENCODING 2
SWIDTH 571 0
DWIDTH 63 0
BBX 126 64 -1 0
BITMAP
801ff002801ff000801ff000801ff000
40038006c01ff002c01ff002c01ff002
4003800ce0038006e0038006e0038006
100380187003800c7003800c7003800c
08038030380380183803801838038018
040380601c0380301c0380301c038030
020380c00e0380600e0380600e038060
01038180070380c0070380c0070380c0
00838300038381800383818003838180
0043860001c3830001c3830001c38300
00638c0000e3860000e3860000e38600
2013981000738c0000738c0000738c00
20083010203b9810203b9810203b9810
20046010201c3010201c3010201c3010
2002c010200e6010200e6010200e6010
fffd7ffe2006c0102006c0102006c010
2006c010fffd7ffefffd7ffefffd7ffe
200e60102002c0102002c0102002c010
201c3010200460102004601020046010
203b9810200830102008301020083010
00738c00201398102013981020139810
00e3860000638c0000638c0000638c00
01c38300004386000043860000438600
03838180008383000083830000838300
070380c0010381800103818001038180
0e038060020380c0020380c0020380c0
1c038030040380600403806004038060
38038018080380300803803008038030
7003800c100380181003801810038018
e00380064003800c4003800c4003800c
c01ff002400380064003800640038006
801ff000801ff002801ff002801ff002
801ff000801ff000001ff002801ff002
c01ff002c01ff002801ff00640038006
e0038006e0038006c003800e4003800c
7003800c7003800c6003801c10038018
38038018380380183003803808038030
1c0380301c0380301803807004038060
0e0380600e0380600c0380e0020380c0
070380c0070380c0060381c001038180
03838180038381800303838000838300
01c3830001c383000183870000438600
00e3860000e3860000c38e0000638c00
00738c0000738c0000639c0020139810
203b9810203b98101033b80820083010
201c3010201c30101018700820046010
200e6010200e6010100ce0082002c010
2006c0102006c0101006c008fffd7ffe
fffd7ffefffd7ffefffd7ffe2006c010
2002c0102002c01010068008200e6010
2004601020046010100c4008201c3010
200830102008301010182008203b9810
20139810201398101033900800738c00
00638c0000638c0000638c0000e38600
004386000043860000c3840001c38300
00838300008383000183820003838180
010381800103818003038100070380c0
020380c0020380c0060380800e038060
04038060040380600c0380401c038030
08038030080380301803802038038018
1003801810038018300380107003800c
4003800c4003800c60038004e0038006
4003800640038006c0038004c01ff002
801ff002801ff002001ff002801ff002
ENDCHAR
STARTCHAR ascii001d
ENCODING 3
SWIDTH 571 0
DWIDTH 63 0
BBX 125 64 1 0
BITMAP
801ff000801ff000001ff002801ff002
c01ff002c01ff002801ff00640038006
e0038006e0038006c003800e4003800c
7003800c7003800c6003801c10038018
38038018380380183003803808038030
1c0380301c0380301803807004038060
0e0380600e0380600c0380e0020380c0
070380c0070380c0060381c001038180
03838180038381800303838000838300
01c3830001c383000183870000438600
00e3860000e3860000c38e0000638c00
00738c0000738c0000639c0020139810
203b9810203b98101033b80820083010
201c3010201c30101018700820046010
200e6010200e6010100ce0082002c010
2006c0102006c0101006c008fffd7ffe
fffd7ffefffd7ffefffd7ffe2006c010
2002c0102002c01010068008200e6010
2004601020046010100c4008201c3010
200830102008301010182008203b9810
20139810201398101033900800738c00
00638c0000638c0000638c0000e38600
004386000043860000c3840001c38300
00838300008383000183820003838180
010381800103818003038100070380c0
020380c0020380c0060380800e038060
04038060040380600c0380401c038030
08038030080380301803802038038018
1003801810038018300380107003800c
4003800c4003800c60038004e0038006
4003800640038006c0038004c01ff002
801ff002801ff002001ff002801ff002
801ff003001ff002001ff002801ff002
c0038004801ff006801ff00640038006
60038004c003800ec003800e4003800c
300380106003801c6003801c10038018
18038020300380383003803808038030
0c038040180380701803807004038060
060380800c0380e00c0380e0020380c0
03038100060381c0060381c001038180
01838200030383800303838000838300
00c38400018387000183870000438600
00638c0000c38e0000c38e0000638c00
1033900800639c0000639c0020139810
101820081033b8081033b80820083010
100c4008101870081018700820046010
10068008100ce008100ce0082002c010
fffd7ffe1006c0081006c008fffd7ffe
1006c008fffd7ffefffd7ffe2006c010
100ce0081006800810068008200e6010
10187008100c4008100c4008201c3010
1033b8081018200810182008203b9810
00639c00103390081033900800738c00
00c38e0000638c0000638c0000e38600
0183870000c3840000c3840001c38300
03038380018382000183820003838180
060381c00303810003038100070380c0
0c0380e006038080060380800e038060
180380700c0380400c0380401c038030
30038038180380201803802038038018
6003801c30038010300380107003800c
c003800e6003800460038004e0038006
801ff006c0038004c0038004c01ff002
001ff002801ff002001ff002801ff002
ENDCHAR
ENDFONT
