STARTFONT 2.1
FONT -Adobe-Courier-Bold-R-Normal--8-80-75-75-M-50-ISO8859-2
SIZE 8 75 75
FONTBOUNDINGBOX 7 11 -1 -1
COMMENT $XConsortium: courB08.bdf,v 1.13 95/01/26 17:59:47 gildea Exp $
COMMENT 
COMMENT +
COMMENT  Copyright 1984-1989, 1994 Adobe Systems Incorporated.
COMMENT  Copyright 1988, 1994 Digital Equipment Corporation.
COMMENT
COMMENT  Adobe is a trademark of Adobe Systems Incorporated which may be
COMMENT  registered in certain jurisdictions.
COMMENT  Permission to use these trademarks is hereby granted only in
COMMENT  association with the images described in this file.
COMMENT
COMMENT  Permission to use, copy, modify, distribute and sell this software
COMMENT  and its documentation for any purpose and without fee is hereby
COMMENT  granted, provided that the above copyright notices appear in all
COMMENT  copies and that both those copyright notices and this permission
COMMENT  notice appear in supporting documentation, and that the names of
COMMENT  Adobe Systems and Digital Equipment Corporation not be used in
COMMENT  advertising or publicity pertaining to distribution of the software
COMMENT  without specific, written prior permission.  Adobe Systems and
COMMENT  Digital Equipment Corporation make no representations about the
COMMENT  suitability of this software for any purpose.  It is provided "as
COMMENT  is" without express or implied warranty.
COMMENT -
COMMENT  
COMMENT  Translation to ISO8859-2 by Cub Soft;  Petr.Kolar@vslib.cz
COMMENT  
STARTPROPERTIES 28
FOUNDRY "Adobe"
FAMILY_NAME "Courier"
WEIGHT_NAME "Bold"
SLANT "R"
SETWIDTH_NAME "Normal"
ADD_STYLE_NAME ""
PIXEL_SIZE 8
POINT_SIZE 80
RESOLUTION_X 75
RESOLUTION_Y 75
SPACING "M"
AVERAGE_WIDTH 50
CHARSET_REGISTRY "ISO8859"
CHARSET_ENCODING "2"
CAP_HEIGHT 5
X_HEIGHT 4
FONT_ASCENT 7
FONT_DESCENT 2
FACE_NAME "Courier Bold"
COPYRIGHT "Copyright (c) 1984, 1987 Adobe Systems Incorporated. All Rights Reserved. Copyright (c) 1988, 1991 Digital Equipment Corporation. All Rights Reserved., Copyright 1996 Cub Soft"
NOTICE "No mark"
_DEC_DEVICE_FONTNAMES "PS=Courier-Bold"
_DEC_PRODUCTINFO "DECwindows Fonts V2.2, 07-Nov-1991"
DEFAULT_CHAR 32
RELATIVE_SETWIDTH 50
RELATIVE_WEIGHT 70
CHARSET_COLLECTIONS "ASCII ISO8859-2 ADOBE-STANDARD"
FULL_NAME "Courier Bold"
ENDPROPERTIES
CHARS 191
STARTCHAR space
ENCODING 32
SWIDTH 600 0
DWIDTH 5 0
BBX 1 1 0 0
BITMAP
00
ENDCHAR
STARTCHAR exclam
ENCODING 33
SWIDTH 600 0
DWIDTH 5 0
BBX 2 6 1 0
BITMAP
c0
c0
c0
c0
00
c0
ENDCHAR
STARTCHAR quotedbl
ENCODING 34
SWIDTH 600 0
DWIDTH 5 0
BBX 3 2 1 3
BITMAP
a0
a0
ENDCHAR
STARTCHAR numbersign
ENCODING 35
SWIDTH 600 0
DWIDTH 5 0
BBX 4 7 0 -1
BITMAP
50
50
f0
50
f0
50
50
ENDCHAR
STARTCHAR dollar
ENCODING 36
SWIDTH 600 0
DWIDTH 5 0
BBX 4 7 0 -1
BITMAP
20
70
c0
70
90
e0
40
ENDCHAR
STARTCHAR percent
ENCODING 37
SWIDTH 600 0
DWIDTH 5 0
BBX 5 6 0 0
BITMAP
c0
c8
30
60
98
18
ENDCHAR
STARTCHAR ampersand
ENCODING 38
SWIDTH 600 0
DWIDTH 5 0
BBX 4 5 0 0
BITMAP
60
80
f0
a0
d0
ENDCHAR
STARTCHAR apostrophe
ENCODING 39
SWIDTH 600 0
DWIDTH 5 0
BBX 2 3 2 3
BITMAP
40
40
80
ENDCHAR
STARTCHAR parenleft
ENCODING 40
SWIDTH 600 0
DWIDTH 5 0
BBX 2 7 1 -1
BITMAP
40
80
80
80
80
40
40
ENDCHAR
STARTCHAR parenright
ENCODING 41
SWIDTH 600 0
DWIDTH 5 0
BBX 2 7 1 -1
BITMAP
80
40
40
40
40
80
80
ENDCHAR
STARTCHAR asterisk
ENCODING 42
SWIDTH 600 0
DWIDTH 5 0
BBX 3 3 0 3
BITMAP
40
e0
a0
ENDCHAR
STARTCHAR plus
ENCODING 43
SWIDTH 600 0
DWIDTH 5 0
BBX 4 5 0 0
BITMAP
40
40
f0
40
40
ENDCHAR
STARTCHAR comma
ENCODING 44
SWIDTH 600 0
DWIDTH 5 0
BBX 2 2 1 -1
BITMAP
40
c0
ENDCHAR
STARTCHAR minus
ENCODING 45
SWIDTH 600 0
DWIDTH 5 0
BBX 4 1 0 2
BITMAP
f0
ENDCHAR
STARTCHAR period
ENCODING 46
SWIDTH 600 0
DWIDTH 5 0
BBX 2 1 1 0
BITMAP
c0
ENDCHAR
STARTCHAR slash
ENCODING 47
SWIDTH 600 0
DWIDTH 5 0
BBX 4 7 0 0
BITMAP
10
20
20
40
40
80
80
ENDCHAR
STARTCHAR zero
ENCODING 48
SWIDTH 600 0
DWIDTH 5 0
BBX 4 6 0 0
BITMAP
60
d0
d0
d0
d0
60
ENDCHAR
STARTCHAR one
ENCODING 49
SWIDTH 600 0
DWIDTH 5 0
BBX 4 6 0 0
BITMAP
20
e0
20
20
20
f0
ENDCHAR
STARTCHAR two
ENCODING 50
SWIDTH 600 0
DWIDTH 5 0
BBX 4 6 0 0
BITMAP
f0
90
30
60
c0
f0
ENDCHAR
STARTCHAR three
ENCODING 51
SWIDTH 600 0
DWIDTH 5 0
BBX 4 6 0 0
BITMAP
f0
10
70
10
d0
e0
ENDCHAR
STARTCHAR four
ENCODING 52
SWIDTH 600 0
DWIDTH 5 0
BBX 5 6 0 0
BITMAP
30
70
d0
f8
10
10
ENDCHAR
STARTCHAR five
ENCODING 53
SWIDTH 600 0
DWIDTH 5 0
BBX 4 6 0 0
BITMAP
f0
c0
f0
10
d0
e0
ENDCHAR
STARTCHAR six
ENCODING 54
SWIDTH 600 0
DWIDTH 5 0
BBX 4 6 0 0
BITMAP
70
c0
e0
d0
d0
60
ENDCHAR
STARTCHAR seven
ENCODING 55
SWIDTH 600 0
DWIDTH 5 0
BBX 4 6 0 0
BITMAP
f0
90
30
60
40
40
ENDCHAR
STARTCHAR eight
ENCODING 56
SWIDTH 600 0
DWIDTH 5 0
BBX 4 6 0 0
BITMAP
60
d0
60
d0
d0
60
ENDCHAR
STARTCHAR nine
ENCODING 57
SWIDTH 600 0
DWIDTH 5 0
BBX 4 6 0 0
BITMAP
60
d0
d0
70
10
e0
ENDCHAR
STARTCHAR colon
ENCODING 58
SWIDTH 600 0
DWIDTH 5 0
BBX 2 4 1 0
BITMAP
c0
00
00
c0
ENDCHAR
STARTCHAR semicolon
ENCODING 59
SWIDTH 600 0
DWIDTH 5 0
BBX 2 5 0 -1
BITMAP
c0
00
00
40
c0
ENDCHAR
STARTCHAR less
ENCODING 60
SWIDTH 600 0
DWIDTH 5 0
BBX 3 5 0 0
BITMAP
20
40
80
40
20
ENDCHAR
STARTCHAR equal
ENCODING 61
SWIDTH 600 0
DWIDTH 5 0
BBX 4 3 0 1
BITMAP
f0
00
f0
ENDCHAR
STARTCHAR greater
ENCODING 62
SWIDTH 600 0
DWIDTH 5 0
BBX 3 5 1 0
BITMAP
80
40
20
40
80
ENDCHAR
STARTCHAR question
ENCODING 63
SWIDTH 600 0
DWIDTH 5 0
BBX 4 6 0 0
BITMAP
60
b0
30
60
00
60
ENDCHAR
STARTCHAR at
ENCODING 64
SWIDTH 600 0
DWIDTH 5 0
BBX 5 6 0 0
BITMAP
70
90
b0
b8
80
70
ENDCHAR
STARTCHAR A
ENCODING 65
SWIDTH 600 0
DWIDTH 5 0
BBX 4 5 0 0
BITMAP
f0
50
70
50
d0
ENDCHAR
STARTCHAR B
ENCODING 66
SWIDTH 600 0
DWIDTH 5 0
BBX 4 5 0 0
BITMAP
f0
50
70
50
f0
ENDCHAR
STARTCHAR C
ENCODING 67
SWIDTH 600 0
DWIDTH 5 0
BBX 4 5 0 0
BITMAP
70
d0
c0
d0
60
ENDCHAR
STARTCHAR D
ENCODING 68
SWIDTH 600 0
DWIDTH 5 0
BBX 4 5 0 0
BITMAP
f0
50
50
50
f0
ENDCHAR
STARTCHAR E
ENCODING 69
SWIDTH 600 0
DWIDTH 5 0
BBX 4 5 0 0
BITMAP
f0
50
60
50
f0
ENDCHAR
STARTCHAR F
ENCODING 70
SWIDTH 600 0
DWIDTH 5 0
BBX 4 5 0 0
BITMAP
f0
50
60
40
e0
ENDCHAR
STARTCHAR G
ENCODING 71
SWIDTH 600 0
DWIDTH 5 0
BBX 4 5 0 0
BITMAP
70
c0
d0
d0
70
ENDCHAR
STARTCHAR H
ENCODING 72
SWIDTH 600 0
DWIDTH 5 0
BBX 4 5 0 0
BITMAP
d0
50
70
50
d0
ENDCHAR
STARTCHAR I
ENCODING 73
SWIDTH 600 0
DWIDTH 5 0
BBX 3 5 1 0
BITMAP
e0
40
40
40
e0
ENDCHAR
STARTCHAR J
ENCODING 74
SWIDTH 600 0
DWIDTH 5 0
BBX 4 5 0 0
BITMAP
30
10
10
90
60
ENDCHAR
STARTCHAR K
ENCODING 75
SWIDTH 600 0
DWIDTH 5 0
BBX 4 5 0 0
BITMAP
d0
70
60
50
d0
ENDCHAR
STARTCHAR L
ENCODING 76
SWIDTH 600 0
DWIDTH 5 0
BBX 4 5 0 0
BITMAP
e0
40
40
50
f0
ENDCHAR
STARTCHAR M
ENCODING 77
SWIDTH 600 0
DWIDTH 5 0
BBX 5 5 0 0
BITMAP
c8
78
78
68
c8
ENDCHAR
STARTCHAR N
ENCODING 78
SWIDTH 600 0
DWIDTH 5 0
BBX 4 5 0 0
BITMAP
d0
70
70
50
d0
ENDCHAR
STARTCHAR O
ENCODING 79
SWIDTH 600 0
DWIDTH 5 0
BBX 4 5 0 0
BITMAP
60
d0
d0
d0
60
ENDCHAR
STARTCHAR P
ENCODING 80
SWIDTH 600 0
DWIDTH 5 0
BBX 4 5 0 0
BITMAP
f0
50
70
40
e0
ENDCHAR
STARTCHAR Q
ENCODING 81
SWIDTH 600 0
DWIDTH 5 0
BBX 5 5 0 0
BITMAP
60
d0
d0
d0
78
ENDCHAR
STARTCHAR R
ENCODING 82
SWIDTH 600 0
DWIDTH 5 0
BBX 5 5 0 0
BITMAP
f0
50
70
50
c8
ENDCHAR
STARTCHAR S
ENCODING 83
SWIDTH 600 0
DWIDTH 5 0
BBX 4 5 0 0
BITMAP
70
d0
60
b0
e0
ENDCHAR
STARTCHAR T
ENCODING 84
SWIDTH 600 0
DWIDTH 5 0
BBX 5 5 0 0
BITMAP
f8
a8
20
20
70
ENDCHAR
STARTCHAR U
ENCODING 85
SWIDTH 600 0
DWIDTH 5 0
BBX 4 5 0 0
BITMAP
d0
50
50
50
70
ENDCHAR
STARTCHAR V
ENCODING 86
SWIDTH 600 0
DWIDTH 5 0
BBX 4 5 0 0
BITMAP
d0
50
50
70
20
ENDCHAR
STARTCHAR W
ENCODING 87
SWIDTH 600 0
DWIDTH 5 0
BBX 5 5 0 0
BITMAP
88
a8
a8
a8
50
ENDCHAR
STARTCHAR X
ENCODING 88
SWIDTH 600 0
DWIDTH 5 0
BBX 5 5 0 0
BITMAP
d0
70
20
70
d8
ENDCHAR
STARTCHAR Y
ENCODING 89
SWIDTH 600 0
DWIDTH 5 0
BBX 5 5 0 0
BITMAP
d8
70
20
20
70
ENDCHAR
STARTCHAR Z
ENCODING 90
SWIDTH 600 0
DWIDTH 5 0
BBX 4 5 0 0
BITMAP
f0
b0
60
d0
f0
ENDCHAR
STARTCHAR bracketleft
ENCODING 91
SWIDTH 600 0
DWIDTH 5 0
BBX 2 7 1 -1
BITMAP
c0
80
80
80
80
80
c0
ENDCHAR
STARTCHAR backslash
ENCODING 92
SWIDTH 600 0
DWIDTH 5 0
BBX 3 7 0 0
BITMAP
80
80
40
40
40
20
20
ENDCHAR
STARTCHAR bracketright
ENCODING 93
SWIDTH 600 0
DWIDTH 5 0
BBX 2 7 1 -1
BITMAP
c0
40
40
40
40
40
c0
ENDCHAR
STARTCHAR asciicircum
ENCODING 94
SWIDTH 600 0
DWIDTH 5 0
BBX 5 3 0 3
BITMAP
20
70
d8
ENDCHAR
STARTCHAR underscore
ENCODING 95
SWIDTH 600 0
DWIDTH 5 0
BBX 5 1 0 -1
BITMAP
f8
ENDCHAR
STARTCHAR grave
ENCODING 96
SWIDTH 600 0
DWIDTH 6 0
BBX 2 2 2 7
BITMAP
80
40
ENDCHAR
STARTCHAR a
ENCODING 97
SWIDTH 600 0
DWIDTH 5 0
BBX 4 4 0 0
BITMAP
e0
70
b0
d0
ENDCHAR
STARTCHAR b
ENCODING 98
SWIDTH 600 0
DWIDTH 5 0
BBX 4 6 0 0
BITMAP
c0
40
70
50
50
f0
ENDCHAR
STARTCHAR c
ENCODING 99
SWIDTH 600 0
DWIDTH 5 0
BBX 4 4 0 0
BITMAP
70
c0
d0
60
ENDCHAR
STARTCHAR d
ENCODING 100
SWIDTH 600 0
DWIDTH 5 0
BBX 5 6 0 0
BITMAP
30
10
70
d0
d0
78
ENDCHAR
STARTCHAR e
ENCODING 101
SWIDTH 600 0
DWIDTH 5 0
BBX 4 4 0 0
BITMAP
70
f0
c0
70
ENDCHAR
STARTCHAR f
ENCODING 102
SWIDTH 600 0
DWIDTH 5 0
BBX 4 6 1 0
BITMAP
70
40
e0
40
40
e0
ENDCHAR
STARTCHAR g
ENCODING 103
SWIDTH 600 0
DWIDTH 5 0
BBX 4 5 0 -1
BITMAP
70
d0
50
30
e0
ENDCHAR
STARTCHAR h
ENCODING 104
SWIDTH 600 0
DWIDTH 5 0
BBX 4 6 0 0
BITMAP
c0
40
70
50
50
d0
ENDCHAR
STARTCHAR i
ENCODING 105
SWIDTH 600 0
DWIDTH 5 0
BBX 3 6 1 0
BITMAP
c0
00
c0
40
40
e0
ENDCHAR
STARTCHAR j
ENCODING 106
SWIDTH 600 0
DWIDTH 5 0
BBX 3 7 0 -1
BITMAP
60
00
e0
20
20
60
c0
ENDCHAR
STARTCHAR k
ENCODING 107
SWIDTH 600 0
DWIDTH 5 0
BBX 5 6 0 0
BITMAP
c0
40
50
60
70
48
ENDCHAR
STARTCHAR l
ENCODING 108
SWIDTH 600 0
DWIDTH 5 0
BBX 3 6 1 0
BITMAP
c0
40
40
40
40
e0
ENDCHAR
STARTCHAR m
ENCODING 109
SWIDTH 600 0
DWIDTH 5 0
BBX 5 4 0 0
BITMAP
f0
a8
a8
a8
ENDCHAR
STARTCHAR n
ENCODING 110
SWIDTH 600 0
DWIDTH 5 0
BBX 4 4 0 0
BITMAP
f0
50
50
d0
ENDCHAR
STARTCHAR o
ENCODING 111
SWIDTH 600 0
DWIDTH 5 0
BBX 4 4 0 0
BITMAP
60
d0
d0
60
ENDCHAR
STARTCHAR p
ENCODING 112
SWIDTH 600 0
DWIDTH 5 0
BBX 4 5 0 -1
BITMAP
e0
50
50
60
e0
ENDCHAR
STARTCHAR q
ENCODING 113
SWIDTH 600 0
DWIDTH 5 0
BBX 5 5 0 -1
BITMAP
70
d0
50
30
78
ENDCHAR
STARTCHAR r
ENCODING 114
SWIDTH 600 0
DWIDTH 5 0
BBX 4 4 0 0
BITMAP
f0
50
40
e0
ENDCHAR
STARTCHAR s
ENCODING 115
SWIDTH 600 0
DWIDTH 5 0
BBX 4 4 0 0
BITMAP
70
e0
10
e0
ENDCHAR
STARTCHAR t
ENCODING 116
SWIDTH 600 0
DWIDTH 5 0
BBX 4 6 0 0
BITMAP
40
40
f0
40
40
70
ENDCHAR
STARTCHAR u
ENCODING 117
SWIDTH 600 0
DWIDTH 5 0
BBX 5 4 0 0
BITMAP
d0
50
50
78
ENDCHAR
STARTCHAR v
ENCODING 118
SWIDTH 600 0
DWIDTH 5 0
BBX 4 4 0 0
BITMAP
d0
50
70
20
ENDCHAR
STARTCHAR w
ENCODING 119
SWIDTH 600 0
DWIDTH 5 0
BBX 5 4 0 0
BITMAP
88
a8
f8
50
ENDCHAR
STARTCHAR x
ENCODING 120
SWIDTH 600 0
DWIDTH 5 0
BBX 4 4 0 0
BITMAP
d0
60
60
d0
ENDCHAR
STARTCHAR y
ENCODING 121
SWIDTH 600 0
DWIDTH 5 0
BBX 4 5 0 -1
BITMAP
d0
50
70
30
e0
ENDCHAR
STARTCHAR z
ENCODING 122
SWIDTH 600 0
DWIDTH 5 0
BBX 4 4 0 0
BITMAP
f0
a0
50
f0
ENDCHAR
STARTCHAR braceleft
ENCODING 123
SWIDTH 600 0
DWIDTH 5 0
BBX 3 7 1 -1
BITMAP
60
40
40
80
40
40
60
ENDCHAR
STARTCHAR bar
ENCODING 124
SWIDTH 600 0
DWIDTH 5 0
BBX 2 7 1 -1
BITMAP
c0
c0
c0
c0
c0
c0
c0
ENDCHAR
STARTCHAR braceright
ENCODING 125
SWIDTH 600 0
DWIDTH 5 0
BBX 3 7 1 -1
BITMAP
c0
40
40
20
40
40
c0
ENDCHAR
STARTCHAR asciitilde
ENCODING 126
SWIDTH 600 0
DWIDTH 5 0
BBX 4 2 0 3
BITMAP
50
a0
ENDCHAR
STARTCHAR nobreakspace
ENCODING 160
SWIDTH 600 0
DWIDTH 5 0
BBX 1 1 0 0
BITMAP
00
ENDCHAR
STARTCHAR Aogonek
ENCODING 161
SWIDTH 600 0
DWIDTH 5 0
BBX 4 8 0 -3
BITMAP
f0
50
70
50
d0
40
80
60
ENDCHAR
STARTCHAR breve
ENCODING 162
SWIDTH 600 0
DWIDTH 6 0
BBX 4 2 1 7
BITMAP
90
60
ENDCHAR
STARTCHAR Lstroke
ENCODING 163
SWIDTH 600 0
DWIDTH 6 0
BBX 5 6 0 0
BITMAP
f0
60
70
e0
68
f8
ENDCHAR
STARTCHAR currency
ENCODING 164
SWIDTH 600 0
DWIDTH 5 0
BBX 4 4 0 1
BITMAP
90
60
60
90
ENDCHAR
STARTCHAR Lcaron
ENCODING 165
SWIDTH 840 0
DWIDTH 7 0
BBX 6 6 0 0
BITMAP
04
e4
48
40
50
f0
ENDCHAR
STARTCHAR Sacute
ENCODING 166
SWIDTH 600 0
DWIDTH 5 0
BBX 4 8 0 0
BITMAP
20
40
00
70
d0
60
b0
e0
ENDCHAR
STARTCHAR section
ENCODING 167
SWIDTH 600 0
DWIDTH 5 0
BBX 3 7 1 -1
BITMAP
60
80
c0
a0
60
20
c0
ENDCHAR
STARTCHAR diaeresis
ENCODING 168
SWIDTH 600 0
DWIDTH 5 0
BBX 3 1 1 5
BITMAP
a0
ENDCHAR
STARTCHAR Scaron
ENCODING 169
SWIDTH 600 0
DWIDTH 5 0
BBX 4 8 0 0
BITMAP
90
60
00
70
d0
60
b0
e0
ENDCHAR
STARTCHAR Scedilla
ENCODING 170
SWIDTH 600 0
DWIDTH 5 0
BBX 4 7 0 -2
BITMAP
70
d0
60
b0
e0
20
60
ENDCHAR
STARTCHAR Tcaron
ENCODING 171
SWIDTH 600 0
DWIDTH 5 0
BBX 5 8 0 0
BITMAP
48
30
00
f8
a8
20
20
70
ENDCHAR
STARTCHAR Zacute
ENCODING 172
SWIDTH 600 0
DWIDTH 5 0
BBX 4 8 0 0
BITMAP
20
40
00
f0
b0
60
d0
f0
ENDCHAR
STARTCHAR hyphen
ENCODING 173
SWIDTH 600 0
DWIDTH 5 0
BBX 4 1 0 2
BITMAP
f0
ENDCHAR
STARTCHAR Zcaron
ENCODING 174
SWIDTH 600 0
DWIDTH 5 0
BBX 4 8 0 0
BITMAP
90
60
00
f0
b0
60
d0
f0
ENDCHAR
STARTCHAR Zabovedot
ENCODING 175
SWIDTH 600 0
DWIDTH 5 0
BBX 4 7 0 0
BITMAP
40
00
f0
b0
60
d0
f0
ENDCHAR
STARTCHAR degree
ENCODING 176
SWIDTH 600 0
DWIDTH 5 0
BBX 3 3 0 3
BITMAP
40
a0
40
ENDCHAR
STARTCHAR aogonek
ENCODING 177
SWIDTH 600 0
DWIDTH 5 0
BBX 4 7 0 -3
BITMAP
e0
70
b0
d0
40
80
60
ENDCHAR
STARTCHAR ogonek
ENCODING 178
SWIDTH 600 0
DWIDTH 6 0
BBX 3 3 1 -1
BITMAP
40
80
60
ENDCHAR
STARTCHAR lstroke
ENCODING 179
SWIDTH 600 0
DWIDTH 6 0
BBX 5 7 0 0
BITMAP
70
30
38
70
30
30
f8
ENDCHAR
STARTCHAR acute
ENCODING 180
SWIDTH 600 0
DWIDTH 5 0
BBX 2 2 3 5
BITMAP
40
80
ENDCHAR
STARTCHAR lcaron
ENCODING 181
SWIDTH 840 0
DWIDTH 7 0
BBX 5 7 1 0
BITMAP
08
c8
50
40
40
40
e0
ENDCHAR
STARTCHAR sacute
ENCODING 182
SWIDTH 600 0
DWIDTH 5 0
BBX 4 7 0 0
BITMAP
20
40
00
70
e0
10
e0
ENDCHAR
STARTCHAR caron
ENCODING 183
SWIDTH 600 0
DWIDTH 6 0
BBX 4 2 1 7
BITMAP
90
60
ENDCHAR
STARTCHAR cedilla
ENCODING 184
SWIDTH 600 0
DWIDTH 5 0
BBX 2 2 1 -1
BITMAP
40
c0
ENDCHAR
STARTCHAR scaron
ENCODING 185
SWIDTH 600 0
DWIDTH 5 0
BBX 4 7 0 0
BITMAP
90
60
00
70
e0
10
e0
ENDCHAR
STARTCHAR scedilla
ENCODING 186
SWIDTH 600 0
DWIDTH 5 0
BBX 4 6 0 -2
BITMAP
70
e0
10
e0
20
60
ENDCHAR
STARTCHAR tcaron
ENCODING 187
SWIDTH 720 0
DWIDTH 6 0
BBX 5 8 0 0
BITMAP
08
08
50
40
f0
40
40
70
ENDCHAR
STARTCHAR zacute
ENCODING 188
SWIDTH 600 0
DWIDTH 5 0
BBX 4 7 0 0
BITMAP
20
40
00
f0
a0
50
f0
ENDCHAR
STARTCHAR doubleacute
ENCODING 189
SWIDTH 600 0
DWIDTH 6 0
BBX 4 2 1 7
BITMAP
50
a0
ENDCHAR
STARTCHAR zcaron
ENCODING 190
SWIDTH 600 0
DWIDTH 5 0
BBX 4 7 0 0
BITMAP
90
60
00
f0
a0
50
f0
ENDCHAR
STARTCHAR zabovedot
ENCODING 191
SWIDTH 600 0
DWIDTH 5 0
BBX 4 6 0 0
BITMAP
40
00
f0
a0
50
f0
ENDCHAR
STARTCHAR Racute
ENCODING 192
SWIDTH 600 0
DWIDTH 5 0
BBX 5 8 0 0
BITMAP
20
40
00
f0
50
70
50
c8
ENDCHAR
STARTCHAR Aacute
ENCODING 193
SWIDTH 600 0
DWIDTH 5 0
BBX 4 8 0 0
BITMAP
10
20
00
f0
50
70
50
d0
ENDCHAR
STARTCHAR Acircumflex
ENCODING 194
SWIDTH 600 0
DWIDTH 5 0
BBX 4 8 0 0
BITMAP
20
50
00
f0
50
70
50
d0
ENDCHAR
STARTCHAR Abreve
ENCODING 195
SWIDTH 600 0
DWIDTH 5 0
BBX 4 8 0 0
BITMAP
90
60
00
f0
50
70
50
d0
ENDCHAR
STARTCHAR Adiaeresis
ENCODING 196
SWIDTH 600 0
DWIDTH 5 0
BBX 4 7 0 0
BITMAP
50
00
f0
50
70
50
d0
ENDCHAR
STARTCHAR Lacute
ENCODING 197
SWIDTH 600 0
DWIDTH 5 0
BBX 4 8 0 0
BITMAP
20
40
00
e0
40
40
50
f0
ENDCHAR
STARTCHAR Cacute
ENCODING 198
SWIDTH 600 0
DWIDTH 5 0
BBX 4 8 0 0
BITMAP
20
40
00
70
d0
c0
d0
60
ENDCHAR
STARTCHAR Ccedilla
ENCODING 199
SWIDTH 600 0
DWIDTH 5 0
BBX 4 6 0 -1
BITMAP
70
d0
c0
d0
60
c0
ENDCHAR
STARTCHAR Ccaron
ENCODING 200
SWIDTH 600 0
DWIDTH 5 0
BBX 4 8 0 0
BITMAP
90
60
00
70
d0
c0
d0
60
ENDCHAR
STARTCHAR Eacute
ENCODING 201
SWIDTH 600 0
DWIDTH 5 0
BBX 4 8 0 0
BITMAP
10
20
00
f0
50
60
50
f0
ENDCHAR
STARTCHAR Eogonek
ENCODING 202
SWIDTH 600 0
DWIDTH 5 0
BBX 4 8 0 -3
BITMAP
f0
50
60
50
f0
40
80
60
ENDCHAR
STARTCHAR Ediaeresis
ENCODING 203
SWIDTH 600 0
DWIDTH 5 0
BBX 4 7 0 0
BITMAP
50
00
f0
50
60
50
f0
ENDCHAR
STARTCHAR Ecaron
ENCODING 204
SWIDTH 600 0
DWIDTH 5 0
BBX 4 8 0 0
BITMAP
90
60
00
f0
50
60
50
f0
ENDCHAR
STARTCHAR Iacute
ENCODING 205
SWIDTH 600 0
DWIDTH 5 0
BBX 3 8 1 0
BITMAP
20
40
00
e0
40
40
40
e0
ENDCHAR
STARTCHAR Icircumflex
ENCODING 206
SWIDTH 600 0
DWIDTH 5 0
BBX 3 8 1 0
BITMAP
40
a0
00
e0
40
40
40
e0
ENDCHAR
STARTCHAR Dcaron
ENCODING 207
SWIDTH 600 0
DWIDTH 5 0
BBX 4 8 0 0
BITMAP
90
60
00
f0
50
50
50
f0
ENDCHAR
STARTCHAR Dstroke
ENCODING 208
SWIDTH 600 0
DWIDTH 5 0
BBX 4 5 0 0
BITMAP
f0
50
d0
50
f0
ENDCHAR
STARTCHAR Nacute
ENCODING 209
SWIDTH 600 0
DWIDTH 5 0
BBX 4 8 0 0
BITMAP
20
40
00
d0
70
70
50
d0
ENDCHAR
STARTCHAR Ncaron
ENCODING 210
SWIDTH 600 0
DWIDTH 5 0
BBX 4 8 0 0
BITMAP
90
60
00
d0
70
70
50
d0
ENDCHAR
STARTCHAR Oacute
ENCODING 211
SWIDTH 600 0
DWIDTH 5 0
BBX 4 8 0 0
BITMAP
10
20
00
60
d0
d0
d0
60
ENDCHAR
STARTCHAR Ocircumflex
ENCODING 212
SWIDTH 600 0
DWIDTH 5 0
BBX 4 8 0 0
BITMAP
20
50
00
60
d0
d0
d0
60
ENDCHAR
STARTCHAR Odoubleacute
ENCODING 213
SWIDTH 600 0
DWIDTH 5 0
BBX 4 8 0 0
BITMAP
50
a0
00
60
d0
d0
d0
60
ENDCHAR
STARTCHAR Odiaeresis
ENCODING 214
SWIDTH 600 0
DWIDTH 5 0
BBX 4 7 0 0
BITMAP
50
00
60
d0
d0
d0
60
ENDCHAR
STARTCHAR multiply
ENCODING 215
SWIDTH 600 0
DWIDTH 5 0
BBX 4 4 0 1
BITMAP
90
60
60
90
ENDCHAR
STARTCHAR Rcaron
ENCODING 216
SWIDTH 600 0
DWIDTH 5 0
BBX 5 8 0 0
BITMAP
90
60
00
f0
50
70
50
c8
ENDCHAR
STARTCHAR Uring
ENCODING 217
SWIDTH 600 0
DWIDTH 5 0
BBX 4 9 0 0
BITMAP
60
90
60
00
d0
50
50
50
70
ENDCHAR
STARTCHAR Uacute
ENCODING 218
SWIDTH 600 0
DWIDTH 5 0
BBX 4 8 0 0
BITMAP
10
20
00
d0
50
50
50
70
ENDCHAR
STARTCHAR Udoubleacute
ENCODING 219
SWIDTH 600 0
DWIDTH 5 0
BBX 4 8 0 0
BITMAP
50
a0
00
d0
50
50
50
70
ENDCHAR
STARTCHAR Udiaeresis
ENCODING 220
SWIDTH 600 0
DWIDTH 5 0
BBX 4 7 0 0
BITMAP
50
00
d0
50
50
50
70
ENDCHAR
STARTCHAR Yacute
ENCODING 221
SWIDTH 600 0
DWIDTH 5 0
BBX 5 8 0 0
BITMAP
10
20
00
d8
70
20
20
70
ENDCHAR
STARTCHAR Tcedilla
ENCODING 222
SWIDTH 600 0
DWIDTH 5 0
BBX 5 7 0 -2
BITMAP
f8
a8
20
20
70
10
30
ENDCHAR
STARTCHAR ssharp
ENCODING 223
SWIDTH 600 0
DWIDTH 5 0
BBX 4 5 0 0
BITMAP
e0
90
e0
90
b0
ENDCHAR
STARTCHAR racute
ENCODING 224
SWIDTH 600 0
DWIDTH 5 0
BBX 4 7 0 0
BITMAP
20
40
00
f0
50
40
e0
ENDCHAR
STARTCHAR aacute
ENCODING 225
SWIDTH 600 0
DWIDTH 5 0
BBX 4 7 0 0
BITMAP
20
40
00
e0
70
b0
d0
ENDCHAR
STARTCHAR acircumflex
ENCODING 226
SWIDTH 600 0
DWIDTH 5 0
BBX 4 7 0 0
BITMAP
40
a0
00
e0
70
b0
d0
ENDCHAR
STARTCHAR abreve
ENCODING 227
SWIDTH 600 0
DWIDTH 5 0
BBX 4 7 0 0
BITMAP
90
60
00
e0
70
b0
d0
ENDCHAR
STARTCHAR adiaeresis
ENCODING 228
SWIDTH 600 0
DWIDTH 5 0
BBX 4 6 0 0
BITMAP
a0
00
e0
70
b0
d0
ENDCHAR
STARTCHAR lacute
ENCODING 229
SWIDTH 600 0
DWIDTH 5 0
BBX 3 9 1 0
BITMAP
40
80
00
c0
40
40
40
40
e0
ENDCHAR
STARTCHAR cacute
ENCODING 230
SWIDTH 600 0
DWIDTH 5 0
BBX 4 7 0 0
BITMAP
20
40
00
70
c0
d0
60
ENDCHAR
STARTCHAR ccedilla
ENCODING 231
SWIDTH 600 0
DWIDTH 5 0
BBX 4 5 0 -1
BITMAP
70
c0
d0
60
40
ENDCHAR
STARTCHAR ccaron
ENCODING 232
SWIDTH 600 0
DWIDTH 5 0
BBX 4 7 0 0
BITMAP
90
60
00
70
c0
d0
60
ENDCHAR
STARTCHAR eacute
ENCODING 233
SWIDTH 600 0
DWIDTH 5 0
BBX 4 7 0 0
BITMAP
10
20
00
70
f0
c0
70
ENDCHAR
STARTCHAR eogonek
ENCODING 234
SWIDTH 600 0
DWIDTH 5 0
BBX 4 7 0 -3
BITMAP
70
f0
c0
70
40
80
60
ENDCHAR
STARTCHAR ediaeresis
ENCODING 235
SWIDTH 600 0
DWIDTH 5 0
BBX 4 6 0 0
BITMAP
50
00
70
f0
c0
70
ENDCHAR
STARTCHAR ecaron
ENCODING 236
SWIDTH 600 0
DWIDTH 5 0
BBX 4 7 0 0
BITMAP
90
60
00
70
f0
c0
70
ENDCHAR
STARTCHAR iacute
ENCODING 237
SWIDTH 600 0
DWIDTH 5 0
BBX 3 7 1 0
BITMAP
20
40
00
c0
40
40
e0
ENDCHAR
STARTCHAR icircumflex
ENCODING 238
SWIDTH 600 0
DWIDTH 5 0
BBX 3 7 1 0
BITMAP
40
a0
00
c0
40
40
e0
ENDCHAR
STARTCHAR dcaron
ENCODING 239
SWIDTH 840 0
DWIDTH 7 0
BBX 7 7 0 0
BITMAP
02
32
14
70
d0
d0
78
ENDCHAR
STARTCHAR dstroke
ENCODING 240
SWIDTH 600 0
DWIDTH 5 0
BBX 5 6 0 0
BITMAP
38
10
70
d0
d0
78
ENDCHAR
STARTCHAR nacute
ENCODING 241
SWIDTH 600 0
DWIDTH 5 0
BBX 4 7 0 0
BITMAP
20
40
00
f0
50
50
d0
ENDCHAR
STARTCHAR ncaron
ENCODING 242
SWIDTH 600 0
DWIDTH 5 0
BBX 4 7 0 0
BITMAP
90
60
00
f0
50
50
d0
ENDCHAR
STARTCHAR oacute
ENCODING 243
SWIDTH 600 0
DWIDTH 5 0
BBX 4 7 0 0
BITMAP
10
20
00
60
d0
d0
60
ENDCHAR
STARTCHAR ocircumflex
ENCODING 244
SWIDTH 600 0
DWIDTH 5 0
BBX 4 7 0 0
BITMAP
20
50
00
60
d0
d0
60
ENDCHAR
STARTCHAR odoubleacute
ENCODING 245
SWIDTH 600 0
DWIDTH 5 0
BBX 4 7 0 0
BITMAP
50
a0
00
60
d0
d0
60
ENDCHAR
STARTCHAR odiaeresis
ENCODING 246
SWIDTH 600 0
DWIDTH 5 0
BBX 4 6 0 0
BITMAP
50
00
60
d0
d0
60
ENDCHAR
STARTCHAR division
ENCODING 247
SWIDTH 600 0
DWIDTH 5 0
BBX 4 5 0 0
BITMAP
40
00
f0
00
40
ENDCHAR
STARTCHAR rcaron
ENCODING 248
SWIDTH 600 0
DWIDTH 5 0
BBX 4 7 0 0
BITMAP
90
60
00
f0
50
40
e0
ENDCHAR
STARTCHAR uring
ENCODING 249
SWIDTH 600 0
DWIDTH 5 0
BBX 5 8 0 0
BITMAP
60
90
60
00
d0
50
50
78
ENDCHAR
STARTCHAR uacute
ENCODING 250
SWIDTH 600 0
DWIDTH 5 0
BBX 5 7 0 0
BITMAP
10
20
00
d0
50
50
78
ENDCHAR
STARTCHAR udoubleacute
ENCODING 251
SWIDTH 600 0
DWIDTH 5 0
BBX 5 7 0 0
BITMAP
50
a0
00
d0
50
50
78
ENDCHAR
STARTCHAR udiaeresis
ENCODING 252
SWIDTH 600 0
DWIDTH 5 0
BBX 5 6 0 0
BITMAP
50
00
d0
50
50
78
ENDCHAR
STARTCHAR yacute
ENCODING 253
SWIDTH 600 0
DWIDTH 5 0
BBX 4 8 0 -1
BITMAP
10
20
00
d0
50
50
30
60
ENDCHAR
STARTCHAR tcedilla
ENCODING 254
SWIDTH 600 0
DWIDTH 5 0
BBX 4 8 0 -2
BITMAP
40
40
f0
40
40
70
20
60
ENDCHAR
STARTCHAR abovedot
ENCODING 255
SWIDTH 600 0
DWIDTH 6 0
BBX 1 1 2 7
BITMAP
80
ENDCHAR
ENDFONT
