STARTFONT 2.1
FONT -Adobe-New Century Schoolbook-Bold-I-Normal--24-240-75-75-P-148-ISO8859-2
SIZE 24 75 75
FONTBOUNDINGBOX 34 29 -5 -5
COMMENT $XConsortium: ncenBI24.bdf,v 1.13 95/01/26 18:04:07 gildea Exp $
COMMENT 
COMMENT +
COMMENT  Copyright 1984-1989, 1994 Adobe Systems Incorporated.
COMMENT  Copyright 1988, 1994 Digital Equipment Corporation.
COMMENT
COMMENT  Adobe is a trademark of Adobe Systems Incorporated which may be
COMMENT  registered in certain jurisdictions.
COMMENT  Permission to use these trademarks is hereby granted only in
COMMENT  association with the images described in this file.
COMMENT
COMMENT  Permission to use, copy, modify, distribute and sell this software
COMMENT  and its documentation for any purpose and without fee is hereby
COMMENT  granted, provided that the above copyright notices appear in all
COMMENT  copies and that both those copyright notices and this permission
COMMENT  notice appear in supporting documentation, and that the names of
COMMENT  Adobe Systems and Digital Equipment Corporation not be used in
COMMENT  advertising or publicity pertaining to distribution of the software
COMMENT  without specific, written prior permission.  Adobe Systems and
COMMENT  Digital Equipment Corporation make no representations about the
COMMENT  suitability of this software for any purpose.  It is provided "as
COMMENT  is" without express or implied warranty.
COMMENT -
COMMENT  
COMMENT  Translation to ISO8859-2 by Cub Soft;  Petr.Kolar@vslib.cz
COMMENT  
STARTPROPERTIES 28
FOUNDRY "Adobe"
FAMILY_NAME "New Century Schoolbook"
WEIGHT_NAME "Bold"
SLANT "I"
SETWIDTH_NAME "Normal"
ADD_STYLE_NAME ""
PIXEL_SIZE 24
POINT_SIZE 240
RESOLUTION_X 75
RESOLUTION_Y 75
SPACING "P"
AVERAGE_WIDTH 148
CHARSET_REGISTRY "ISO8859"
CHARSET_ENCODING "2"
CAP_HEIGHT 18
X_HEIGHT 12
FONT_ASCENT 21
FONT_DESCENT 5
FACE_NAME "New Century Schoolbook Bold Italic"
COPYRIGHT "Copyright (c) 1984, 1987 Adobe Systems Incorporated. All Rights Reserved. Copyright (c) 1988, 1991 Digital Equipment Corporation. All Rights Reserved., Copyright 1996 Cub Soft"
NOTICE "New Century Schoolbook is a trademark of Linotype-Hell AG and/or its subsidiaries."
_DEC_DEVICE_FONTNAMES "PS=NewCenturySchlbk-BoldItalic"
_DEC_PRODUCTINFO "DECwindows Fonts V2.2-1, 18-Nov-1991"
DEFAULT_CHAR 32
RELATIVE_SETWIDTH 50
RELATIVE_WEIGHT 70
CHARSET_COLLECTIONS "ASCII ISO8859-2 ADOBE-STANDARD"
FULL_NAME "New Century Schoolbook Bold Italic"
ENDPROPERTIES
CHARS 191
STARTCHAR space
ENCODING 32
SWIDTH 287 0
DWIDTH 7 0
BBX 1 1 0 0
BITMAP
00
ENDCHAR
STARTCHAR exclam
ENCODING 33
SWIDTH 333 0
DWIDTH 8 0
BBX 7 18 0 0
BITMAP
1c
3e
3e
3e
3c
3c
38
38
38
30
30
30
30
00
70
f8
f8
70
ENDCHAR
STARTCHAR quotedbl
ENCODING 34
SWIDTH 400 0
DWIDTH 9 0
BBX 6 6 1 12
BITMAP
cc
cc
cc
88
88
88
ENDCHAR
STARTCHAR numbersign
ENCODING 35
SWIDTH 606 0
DWIDTH 14 0
BBX 13 18 0 0
BITMAP
0c60
0c60
0c60
0c60
0c60
7ff8
7ff8
18c0
18c0
18c0
18c0
fff0
fff0
3180
3180
3180
3180
3180
ENDCHAR
STARTCHAR dollar
ENCODING 36
SWIDTH 574 0
DWIDTH 14 0
BBX 13 22 0 -2
BITMAP
0080
0080
07e0
1d30
3938
3178
7278
7a30
7e00
7f00
3fc0
1fe0
07f0
03f0
62f0
f270
f460
e4e0
65c0
3f00
0800
0800
ENDCHAR
STARTCHAR percent
ENCODING 37
SWIDTH 889 0
DWIDTH 21 0
BBX 20 19 0 -1
BITMAP
0f0400
3c9c00
38ec00
708800
709800
e11000
e13000
e22000
e461e0
784790
00c710
008e10
018e10
011c20
031c20
021c40
061c80
040f00
040000
ENDCHAR
STARTCHAR ampersand
ENCODING 38
SWIDTH 889 0
DWIDTH 21 0
BBX 21 18 0 0
BITMAP
00fc00
03ce00
038600
078600
078c00
07dc00
03f000
07c000
1fe000
39e1f8
71f0e0
70f0c0
f0f980
f07900
f07e00
f83e10
7c7f20
1f8fc0
ENDCHAR
STARTCHAR apostrophe
ENCODING 39
SWIDTH 259 0
DWIDTH 6 0
BBX 5 8 0 10
BITMAP
70
f8
f8
78
10
20
40
80
ENDCHAR
STARTCHAR parenleft
ENCODING 40
SWIDTH 407 0
DWIDTH 9 0
BBX 8 21 0 -3
BITMAP
01
06
0c
18
38
30
70
60
e0
e0
e0
e0
e0
e0
e0
e0
60
70
30
18
04
ENDCHAR
STARTCHAR parenright
ENCODING 41
SWIDTH 407 0
DWIDTH 9 0
BBX 8 21 0 -3
BITMAP
20
18
0c
0e
06
07
07
07
07
07
07
07
07
06
0e
0c
1c
18
30
60
80
ENDCHAR
STARTCHAR asterisk
ENCODING 42
SWIDTH 500 0
DWIDTH 12 0
BBX 11 10 0 8
BITMAP
0700
6600
7620
34e0
0fe0
fe00
e580
8dc0
0cc0
1c00
ENDCHAR
STARTCHAR plus
ENCODING 43
SWIDTH 606 0
DWIDTH 15 0
BBX 12 12 1 1
BITMAP
0600
0600
0600
0600
0600
fff0
fff0
0600
0600
0600
0600
0600
ENDCHAR
STARTCHAR comma
ENCODING 44
SWIDTH 287 0
DWIDTH 7 0
BBX 5 8 0 -4
BITMAP
70
f8
f8
78
10
20
40
80
ENDCHAR
STARTCHAR minus
ENCODING 45
SWIDTH 606 0
DWIDTH 15 0
BBX 11 2 2 6
BITMAP
ffe0
ffe0
ENDCHAR
STARTCHAR period
ENCODING 46
SWIDTH 287 0
DWIDTH 7 0
BBX 5 4 0 0
BITMAP
70
f8
f8
70
ENDCHAR
STARTCHAR slash
ENCODING 47
SWIDTH 278 0
DWIDTH 8 0
BBX 7 18 0 0
BITMAP
06
06
06
0c
0c
0c
18
18
18
30
30
30
60
60
60
c0
c0
c0
ENDCHAR
STARTCHAR zero
ENCODING 48
SWIDTH 574 0
DWIDTH 14 0
BBX 13 18 0 0
BITMAP
07c0
1ee0
3c70
3c70
7878
7878
7878
f078
f078
f078
f078
f0f0
f0f0
f0f0
71e0
71e0
7bc0
1f00
ENDCHAR
STARTCHAR one
ENCODING 49
SWIDTH 574 0
DWIDTH 14 0
BBX 10 18 1 0
BITMAP
0180
0780
3f80
0780
0780
0780
0f00
0f00
0f00
0f00
0f00
0f00
1e00
1e00
1e00
1e00
1e00
ffc0
ENDCHAR
STARTCHAR two
ENCODING 50
SWIDTH 574 0
DWIDTH 14 0
BBX 13 18 0 0
BITMAP
03c0
0ff0
18f0
3078
3878
3c78
3c78
1870
00f0
01e0
0380
0700
0c10
1810
3030
7fe0
ffe0
ffe0
ENDCHAR
STARTCHAR three
ENCODING 51
SWIDTH 574 0
DWIDTH 14 0
BBX 13 18 0 0
BITMAP
07c0
1cf0
3c78
3c78
1878
0078
00f0
01e0
0780
01e0
00e0
00f0
60f0
f0f0
f1e0
e1e0
63c0
3f00
ENDCHAR
STARTCHAR four
ENCODING 52
SWIDTH 574 0
DWIDTH 14 0
BBX 12 18 0 0
BITMAP
0070
00f0
00f0
01f0
03f0
06f0
05e0
0de0
19e0
31e0
21e0
61e0
c3c0
fff0
03c0
03c0
03c0
1ff0
ENDCHAR
STARTCHAR five
ENCODING 53
SWIDTH 574 0
DWIDTH 14 0
BBX 13 18 0 0
BITMAP
1ff8
1ff0
1fe0
1800
1800
3000
3780
3fe0
21f0
00f0
00f0
00f0
60f0
f0f0
f1e0
e1e0
63c0
3f00
ENDCHAR
STARTCHAR six
ENCODING 54
SWIDTH 574 0
DWIDTH 14 0
BBX 13 18 0 0
BITMAP
07e0
1e30
3c78
3c78
7830
7800
7800
f380
f7e0
f8f0
f0f0
f0f0
f0f0
f0f0
70e0
71e0
79c0
1f00
ENDCHAR
STARTCHAR seven
ENCODING 55
SWIDTH 574 0
DWIDTH 14 0
BBX 13 18 1 0
BITMAP
7ff8
7ff8
7ff0
c0e0
80e0
81c0
01c0
0380
0380
0700
0700
0e00
0e00
1e00
1e00
3e00
3e00
1c00
ENDCHAR
STARTCHAR eight
ENCODING 56
SWIDTH 574 0
DWIDTH 14 0
BBX 13 18 0 0
BITMAP
07e0
1c70
1838
3838
3838
3c30
3e70
1fc0
1fc0
1fe0
73e0
61f0
e0f0
e0f0
e0f0
e0e0
f1e0
3f80
ENDCHAR
STARTCHAR nine
ENCODING 57
SWIDTH 574 0
DWIDTH 14 0
BBX 13 18 0 0
BITMAP
07c0
1cf0
3c70
3878
7878
7878
7878
7878
78f8
3f78
0e78
00f0
00f0
60f0
f1e0
f1e0
63c0
3f00
ENDCHAR
STARTCHAR colon
ENCODING 58
SWIDTH 287 0
DWIDTH 9 0
BBX 7 12 0 0
BITMAP
1c
3e
3e
1c
00
00
00
00
70
f8
f8
70
ENDCHAR
STARTCHAR semicolon
ENCODING 59
SWIDTH 287 0
DWIDTH 9 0
BBX 7 16 0 -4
BITMAP
1c
3e
3e
1c
00
00
00
00
70
f8
f8
78
10
20
40
80
ENDCHAR
STARTCHAR less
ENCODING 60
SWIDTH 606 0
DWIDTH 16 0
BBX 13 15 1 0
BITMAP
0008
0038
00f8
03e0
0f80
3e00
f800
e000
f800
3e00
0f80
03e0
00f8
0038
0008
ENDCHAR
STARTCHAR equal
ENCODING 61
SWIDTH 606 0
DWIDTH 15 0
BBX 12 6 1 4
BITMAP
fff0
fff0
0000
0000
fff0
fff0
ENDCHAR
STARTCHAR greater
ENCODING 62
SWIDTH 606 0
DWIDTH 16 0
BBX 13 15 1 0
BITMAP
8000
e000
f800
3e00
0f80
03e0
00f8
0038
00f8
03e0
0f80
3e00
f800
e000
8000
ENDCHAR
STARTCHAR question
ENCODING 63
SWIDTH 481 0
DWIDTH 12 0
BBX 10 18 1 0
BITMAP
3e00
4780
83c0
83c0
07c0
0f80
3f00
7e00
f800
f000
e000
c400
7800
0000
7000
f800
f800
7000
ENDCHAR
STARTCHAR at
ENCODING 64
SWIDTH 747 0
DWIDTH 21 0
BBX 18 18 1 0
BITMAP
03fe00
0e0300
180180
300180
61dcc0
673cc0
c71cc0
ce1cc0
ce1cc0
ce38c0
ce3980
ce3980
ce7b00
c79e00
c00000
600600
381c00
0ff000
ENDCHAR
STARTCHAR A
ENCODING 65
SWIDTH 741 0
DWIDTH 20 0
BBX 20 18 -1 0
BITMAP
003000
003800
007800
007c00
00fc00
00bc00
01be00
011e00
031e00
021f00
060f00
07ff00
0c0f80
080780
180780
1007c0
3007c0
fc1ff0
ENDCHAR
STARTCHAR B
ENCODING 66
SWIDTH 759 0
DWIDTH 19 0
BBX 18 18 0 0
BITMAP
3ffe00
078f80
0787c0
0f87c0
0f07c0
0f07c0
0f0780
0f0f00
1ffc00
1f0f00
1e0780
1e07c0
1e07c0
1e07c0
3e07c0
3c0f80
3c1f00
fffc00
ENDCHAR
STARTCHAR C
ENCODING 67
SWIDTH 759 0
DWIDTH 18 0
BBX 17 18 0 0
BITMAP
01fc80
0f8780
1e0380
3e0100
3c0100
7c0100
780000
f80000
f80000
f80000
f80000
f80000
f80000
780100
7c0300
3c0600
1e1c00
07f000
ENDCHAR
STARTCHAR D
ENCODING 68
SWIDTH 833 0
DWIDTH 21 0
BBX 20 18 0 0
BITMAP
3ffe00
078780
0783c0
0f83e0
0f01e0
0f01f0
0f01f0
0f01f0
1f01f0
1f01f0
1e01f0
1e01e0
1e03e0
1e03c0
3e07c0
3c0780
3c1f00
fff800
ENDCHAR
STARTCHAR E
ENCODING 69
SWIDTH 741 0
DWIDTH 18 0
BBX 17 18 0 0
BITMAP
3fff80
078380
078180
0f8100
0f0100
0f0400
0f0400
0f0c00
1ffc00
1f1800
1e0800
1e0800
1e0880
1e0080
3e0180
3c0300
3c0f00
ffff00
ENDCHAR
STARTCHAR F
ENCODING 70
SWIDTH 704 0
DWIDTH 17 0
BBX 17 18 0 0
BITMAP
3fff80
078380
078180
0f8100
0f8100
0f0400
0f0400
0f0c00
1ffc00
1f1800
1e0800
1e0800
1e0800
3e0000
3e0000
3c0000
3c0000
ff8000
ENDCHAR
STARTCHAR G
ENCODING 71
SWIDTH 815 0
DWIDTH 19 0
BBX 18 18 0 0
BITMAP
01fe40
0f83c0
1e01c0
3e0080
3c0080
7c0080
780000
f80000
f80000
f80000
f81fc0
f80780
f80780
780780
7c0f00
3c0f00
1e1f00
07f100
ENDCHAR
STARTCHAR H
ENCODING 72
SWIDTH 870 0
DWIDTH 23 0
BBX 22 18 0 0
BITMAP
3fe7fc
0780f0
0780f0
0f81f0
0f81f0
0f01e0
0f01e0
0f01e0
1fffe0
1f03e0
1e03c0
1e03c0
1e03c0
3e07c0
3e07c0
3c0780
3c0780
ff9ff0
ENDCHAR
STARTCHAR I
ENCODING 73
SWIDTH 444 0
DWIDTH 12 0
BBX 11 18 0 0
BITMAP
3fe0
0780
0780
0f80
0f80
0f00
0f00
0f00
1f00
1f00
1e00
1e00
1e00
3e00
3e00
3c00
3c00
ff80
ENDCHAR
STARTCHAR J
ENCODING 74
SWIDTH 667 0
DWIDTH 17 0
BBX 17 18 -1 0
BITMAP
00ff80
001e00
001e00
003e00
003e00
003c00
003c00
003c00
007c00
007c00
007800
387800
7c7800
fcf800
d8f800
c0f000
61f000
1fc000
ENDCHAR
STARTCHAR K
ENCODING 75
SWIDTH 778 0
DWIDTH 20 0
BBX 20 18 0 0
BITMAP
3fe3f0
0781c0
078180
0f8300
0f8600
0f0c00
0f1800
0f3000
1f7800
1ff800
1fbc00
1f3c00
1e1e00
3e1f00
3e1f00
3c0f80
3c0f80
ff9fe0
ENDCHAR
STARTCHAR L
ENCODING 76
SWIDTH 704 0
DWIDTH 18 0
BBX 17 18 0 0
BITMAP
3fe000
078000
078000
0f8000
0f8000
0f0000
0f0000
0f0000
1f0000
1f0000
1e0000
1e0000
1e0080
3e0080
3e0100
3c0300
3c0f00
ffff00
ENDCHAR
STARTCHAR M
ENCODING 77
SWIDTH 944 0
DWIDTH 26 0
BBX 25 18 0 0
BITMAP
3fc03f80
0fc07e00
0fc07e00
0fc0fe00
0fc0bc00
0be1bc00
0be13c00
0be33c00
1be27c00
13e67c00
11e47800
11ec7800
11f87800
11f8f800
11f0f800
30f0f000
30e0f000
fce3fe00
ENDCHAR
STARTCHAR N
ENCODING 78
SWIDTH 852 0
DWIDTH 22 0
BBX 21 18 0 0
BITMAP
3e01f8
0f0060
0f8060
0fc040
0fc040
0be040
0bf040
09f840
18f840
107cc0
103e80
103f80
101f80
100f80
100780
300780
300380
fc0180
ENDCHAR
STARTCHAR O
ENCODING 79
SWIDTH 833 0
DWIDTH 20 0
BBX 19 18 0 0
BITMAP
01fc00
0f8f00
1e0780
3e07c0
3c03c0
7c03e0
7803e0
f803e0
f803e0
f803e0
f803e0
f803c0
f807c0
780780
7c0f80
3c0f00
1e3e00
07f000
ENDCHAR
STARTCHAR P
ENCODING 80
SWIDTH 741 0
DWIDTH 19 0
BBX 19 18 0 0
BITMAP
3fff00
0787c0
0783e0
0f83e0
0f83e0
0f03e0
0f03e0
0f07c0
1f0f80
1ffe00
1e0000
1e0000
1e0000
3e0000
3e0000
3c0000
3c0000
ff8000
ENDCHAR
STARTCHAR Q
ENCODING 81
SWIDTH 833 0
DWIDTH 20 0
BBX 19 23 0 -5
BITMAP
01fc00
0f8f00
1e0780
3e07c0
3c03c0
7c03e0
7803e0
f803e0
f803e0
f803e0
f803e0
f9c3c0
fbe7c0
7ce780
7c7f80
3c7f00
1e7e00
07f800
003c00
003c00
001e40
001f80
000f00
ENDCHAR
STARTCHAR R
ENCODING 82
SWIDTH 796 0
DWIDTH 20 0
BBX 19 18 0 0
BITMAP
1fff00
0787c0
0783e0
0f83e0
0f83e0
0f03e0
0f03c0
0f0780
1ffc00
1f3c00
1e1e00
1e1e00
1e1f00
3e1f00
3e1f20
3c0fa0
3c0fc0
ff8780
ENDCHAR
STARTCHAR S
ENCODING 83
SWIDTH 685 0
DWIDTH 16 0
BBX 15 18 0 0
BITMAP
03f2
0e1e
180e
3804
3804
3c04
3f00
3fe0
1ff8
1ff8
07fc
00fc
403c
401c
401c
e018
f070
9fc0
ENDCHAR
STARTCHAR T
ENCODING 84
SWIDTH 722 0
DWIDTH 18 0
BBX 17 18 0 0
BITMAP
7fff80
73e780
e3e380
c3e300
83c100
83c100
03c000
07c000
07c000
078000
078000
078000
0f8000
0f8000
0f0000
0f0000
0f0000
3fe000
ENDCHAR
STARTCHAR U
ENCODING 85
SWIDTH 833 0
DWIDTH 20 0
BBX 18 18 2 0
BITMAP
ff0fc0
3c0300
3c0300
7c0200
7c0200
780200
780200
780600
f80400
f80400
f00400
f00400
f00c00
f00800
f00800
f01800
787000
3fc000
ENDCHAR
STARTCHAR V
ENCODING 86
SWIDTH 741 0
DWIDTH 19 0
BBX 20 18 0 0
BITMAP
ff83f0
3e00c0
3e0080
3e0180
1f0100
1f0300
0f0200
0f8600
0f8400
07cc00
07c800
03d800
03f000
03f000
01e000
01e000
00c000
00c000
ENDCHAR
STARTCHAR W
ENCODING 87
SWIDTH 944 0
DWIDTH 25 0
BBX 25 18 0 0
BITMAP
ff9f9f80
3e0f0600
3e0f0400
3e1f0c00
3e1f0800
1e1f0800
1f3f1800
1f2f9000
1f2fa000
1f4fa000
0f4fa000
0f87c000
0f87c000
0f078000
0f078000
06038000
06030000
06030000
ENDCHAR
STARTCHAR X
ENCODING 88
SWIDTH 741 0
DWIDTH 21 0
BBX 22 18 -1 0
BITMAP
1ff1fc
07c070
03c060
03e0c0
01e180
01f300
00f600
00fc00
007800
007c00
00fc00
019e00
031f00
060f00
0c0f80
180780
3807c0
fc1ff0
ENDCHAR
STARTCHAR Y
ENCODING 89
SWIDTH 704 0
DWIDTH 18 0
BBX 19 18 0 0
BITMAP
ff8fe0
3e0380
1e0300
1e0600
1f0c00
1f0c00
0f1800
0f3000
0fb000
0fe000
07c000
07c000
078000
0f8000
0f8000
0f8000
0f8000
3fe000
ENDCHAR
STARTCHAR Z
ENCODING 90
SWIDTH 704 0
DWIDTH 18 0
BBX 17 18 0 0
BITMAP
1fff80
1c0f80
181f00
303e00
207c00
207c00
00f800
01f000
03e000
07e000
07c000
0f8000
1f0100
3f0100
3e0300
7c0600
fc0e00
fffe00
ENDCHAR
STARTCHAR bracketleft
ENCODING 91
SWIDTH 407 0
DWIDTH 9 0
BBX 9 21 0 -3
BITMAP
1f80
1c00
1c00
1c00
1c00
3800
3800
3800
3800
3800
7000
7000
7000
7000
7000
e000
e000
e000
e000
e000
fc00
ENDCHAR
STARTCHAR backslash
ENCODING 92
SWIDTH 606 0
DWIDTH 11 0
BBX 10 18 0 0
BITMAP
c000
c000
6000
6000
3000
3000
1800
1800
0c00
0c00
0600
0600
0300
0300
0180
0180
00c0
00c0
ENDCHAR
STARTCHAR bracketright
ENCODING 93
SWIDTH 407 0
DWIDTH 10 0
BBX 9 21 0 -3
BITMAP
1f80
0380
0380
0380
0380
0700
0700
0700
0700
0700
0e00
0e00
0e00
0e00
0e00
1c00
1c00
1c00
1c00
1c00
fc00
ENDCHAR
STARTCHAR asciicircum
ENCODING 94
SWIDTH 606 0
DWIDTH 15 0
BBX 13 11 1 7
BITMAP
0700
0700
0f80
0d80
1dc0
18c0
38e0
3060
7070
6030
e038
ENDCHAR
STARTCHAR underscore
ENCODING 95
SWIDTH 500 0
DWIDTH 13 0
BBX 13 2 0 -4
BITMAP
fff8
fff8
ENDCHAR
STARTCHAR grave
ENCODING 96
SWIDTH 333 0
DWIDTH 7 0
BBX 6 5 0 13
BITMAP
c0
e0
f0
38
0c
ENDCHAR
STARTCHAR a
ENCODING 97
SWIDTH 667 0
DWIDTH 16 0
BBX 15 12 0 0
BITMAP
0fbc
3c7c
783c
783c
f078
f078
f078
f078
f0f0
70f2
79f4
1e78
ENDCHAR
STARTCHAR b
ENCODING 98
SWIDTH 611 0
DWIDTH 15 0
BBX 13 18 0 0
BITMAP
7e00
1e00
1e00
1e00
3c00
3c00
3dc0
3ef0
7870
7878
7078
7078
f078
f078
f0f0
70f0
79e0
1f80
ENDCHAR
STARTCHAR c
ENCODING 99
SWIDTH 537 0
DWIDTH 14 0
BBX 12 12 0 0
BITMAP
0fe0
3cf0
78f0
7860
f000
f000
f000
f000
f000
7020
78c0
1f00
ENDCHAR
STARTCHAR d
ENCODING 100
SWIDTH 667 0
DWIDTH 16 0
BBX 15 18 0 0
BITMAP
007e
001e
001e
001e
003c
003c
0fbc
3cfc
787c
7878
f078
f078
f078
f078
f0f0
70f2
79f4
1e78
ENDCHAR
STARTCHAR e
ENCODING 101
SWIDTH 519 0
DWIDTH 14 0
BBX 12 12 0 0
BITMAP
0fc0
3cf0
7870
7870
f0f0
f1e0
ff00
f000
f000
7020
78c0
1f00
ENDCHAR
STARTCHAR f
ENCODING 102
SWIDTH 389 0
DWIDTH 10 0
BBX 14 23 -1 -5
BITMAP
01f8
07bc
07bc
0f18
0f00
0f00
3fe0
1e00
1e00
1e00
1e00
3c00
3c00
3c00
3c00
7800
7800
7800
7800
f000
f000
f000
c000
ENDCHAR
STARTCHAR g
ENCODING 103
SWIDTH 611 0
DWIDTH 15 0
BBX 15 20 -2 -5
BITMAP
0006
000e
0018
03f8
0f3c
0e1e
1e1e
1e1e
1e1e
0f3c
07f0
1c00
3800
3fe0
1ff8
307c
e03c
e03c
f078
3fe0
ENDCHAR
STARTCHAR h
ENCODING 104
SWIDTH 685 0
DWIDTH 16 0
BBX 15 18 0 0
BITMAP
7e00
1e00
1e00
1e00
3c00
3c00
3c78
3cfc
3d3c
7e3c
7c78
7878
7878
7878
f0f0
f0f2
f0f4
f078
ENDCHAR
STARTCHAR i
ENCODING 105
SWIDTH 389 0
DWIDTH 8 0
BBX 7 17 0 0
BITMAP
0e
0e
0e
00
00
fc
3c
3c
3c
78
78
78
78
f0
f2
f4
78
ENDCHAR
STARTCHAR j
ENCODING 106
SWIDTH 370 0
DWIDTH 9 0
BBX 13 22 -5 -5
BITMAP
0038
0038
0038
0000
0000
03f0
00f0
00f0
00f0
01e0
01e0
01e0
01e0
03c0
03c0
03c0
03c0
6780
f780
f780
ef00
7c00
ENDCHAR
STARTCHAR k
ENCODING 107
SWIDTH 648 0
DWIDTH 16 0
BBX 15 18 0 0
BITMAP
7e00
1e00
1e00
1e00
1e00
3c00
3cf8
3d3c
3e3c
3c3c
7878
7b80
79e0
78e0
f0f0
f0f2
f0f4
f078
ENDCHAR
STARTCHAR l
ENCODING 108
SWIDTH 389 0
DWIDTH 8 0
BBX 7 18 0 0
BITMAP
7e
1e
1e
1e
3c
3c
3c
3c
3c
78
78
78
78
78
f0
f2
f4
78
ENDCHAR
STARTCHAR m
ENCODING 109
SWIDTH 944 0
DWIDTH 24 0
BBX 23 12 0 0
BITMAP
fc7878
3cfcfc
3d3d3c
3e3e3c
7c7c78
787878
787878
787878
f0f0f0
f0f0f2
f0f0f4
f0f078
ENDCHAR
STARTCHAR n
ENCODING 110
SWIDTH 685 0
DWIDTH 16 0
BBX 15 12 0 0
BITMAP
fc38
3cfc
3d3c
3e3c
7c78
7878
7878
7878
f0f0
f0f2
f0f4
f078
ENDCHAR
STARTCHAR o
ENCODING 111
SWIDTH 574 0
DWIDTH 15 0
BBX 13 12 0 0
BITMAP
0fc0
3cf0
7870
7878
f078
f078
f078
f078
f0f0
70f0
79e0
1f80
ENDCHAR
STARTCHAR p
ENCODING 112
SWIDTH 648 0
DWIDTH 16 0
BBX 17 17 -3 -5
BITMAP
1fbc00
07cf00
078700
078780
078780
0f0780
0f0780
0f0780
0f0f00
1f0f00
1f9e00
1ef800
1e0000
3c0000
3c0000
3c0000
ff0000
ENDCHAR
STARTCHAR q
ENCODING 113
SWIDTH 630 0
DWIDTH 16 0
BBX 14 17 0 -5
BITMAP
0f8c
3cdc
787c
787c
f078
f078
f078
f078
f0f0
70f0
79f0
1ef0
00f0
01e0
01e0
01e0
07f8
ENDCHAR
STARTCHAR r
ENCODING 114
SWIDTH 519 0
DWIDTH 13 0
BBX 12 12 0 0
BITMAP
fce0
3df0
3ef0
3c60
7800
7800
7800
7800
f000
f000
f000
f000
ENDCHAR
STARTCHAR s
ENCODING 115
SWIDTH 481 0
DWIDTH 13 0
BBX 11 12 0 0
BITMAP
0fc0
39e0
71e0
78c0
7e00
3f00
0f80
03c0
61c0
f1c0
f380
7e00
ENDCHAR
STARTCHAR t
ENCODING 116
SWIDTH 407 0
DWIDTH 10 0
BBX 9 16 0 0
BITMAP
0200
0600
1e00
1e00
ff80
3c00
3c00
3c00
7800
7800
7800
7800
f000
f100
f200
7c00
ENDCHAR
STARTCHAR u
ENCODING 117
SWIDTH 685 0
DWIDTH 16 0
BBX 15 12 0 0
BITMAP
fc3c
3c3c
3c3c
3c3c
7878
7878
7878
78f8
f1f0
f2f2
fcf4
7878
ENDCHAR
STARTCHAR v
ENCODING 118
SWIDTH 556 0
DWIDTH 13 0
BBX 12 12 0 0
BITMAP
fc60
3c70
3c30
7810
7810
7810
f020
f020
f040
f040
7980
3e00
ENDCHAR
STARTCHAR w
ENCODING 119
SWIDTH 833 0
DWIDTH 20 0
BBX 19 12 0 0
BITMAP
fc3cc0
3c3ce0
3c3c60
787820
787820
787820
f0f020
f0f040
f0f040
f0f080
797900
3e3e00
ENDCHAR
STARTCHAR x
ENCODING 120
SWIDTH 574 0
DWIDTH 15 0
BBX 15 12 -1 0
BITMAP
1e0e
3e1e
4f3c
0f60
07c0
0780
0380
07c0
0fc0
79e4
f1f8
e0f0
ENDCHAR
STARTCHAR y
ENCODING 121
SWIDTH 519 0
DWIDTH 13 0
BBX 15 17 -3 -5
BITMAP
0e0e
1f0e
2f06
0784
078c
0788
03d8
03d0
03f0
01e0
01e0
01c0
0180
6300
f600
fc00
7000
ENDCHAR
STARTCHAR z
ENCODING 122
SWIDTH 519 0
DWIDTH 14 0
BBX 13 12 0 0
BITMAP
1e18
3ff8
7ff0
41e0
00c0
0180
0600
1c00
3e10
7ff0
ffe0
c7c0
ENDCHAR
STARTCHAR braceleft
ENCODING 123
SWIDTH 407 0
DWIDTH 8 0
BBX 7 21 0 -3
BITMAP
0e
1c
18
38
38
38
30
30
60
c0
60
60
e0
e0
e0
e0
e0
c0
c0
e0
70
ENDCHAR
STARTCHAR bar
ENCODING 124
SWIDTH 606 0
DWIDTH 15 0
BBX 2 18 6 0
BITMAP
c0
c0
c0
c0
c0
c0
c0
c0
c0
c0
c0
c0
c0
c0
c0
c0
c0
c0
ENDCHAR
STARTCHAR braceright
ENCODING 125
SWIDTH 407 0
DWIDTH 8 0
BBX 7 21 0 -3
BITMAP
1c
0e
0e
0e
0e
0e
0c
0c
0c
06
08
18
18
38
38
38
38
30
30
70
e0
ENDCHAR
STARTCHAR asciitilde
ENCODING 126
SWIDTH 606 0
DWIDTH 14 0
BBX 13 4 0 6
BITMAP
3c18
7f18
c7f0
c1e0
ENDCHAR
STARTCHAR nobreakspace
ENCODING 160
SWIDTH 287 0
DWIDTH 7 0
BBX 1 1 0 0
BITMAP
00
ENDCHAR
STARTCHAR Aogonek
ENCODING 161
SWIDTH 741 0
DWIDTH 20 0
BBX 20 23 -1 -5
BITMAP
003000
003800
007800
007c00
00fc00
00bc00
01be00
011e00
031e00
021f00
060f00
07ff00
0c0f80
080780
180780
1007c0
3007c0
fc1ff0
004000
008000
018000
019000
00e000
ENDCHAR
STARTCHAR breve
ENCODING 162
SWIDTH 333 0
DWIDTH 9 0
BBX 8 4 0 13
BITMAP
81
c3
7e
3c
ENDCHAR
STARTCHAR Lstroke
ENCODING 163
SWIDTH 704 0
DWIDTH 18 0
BBX 18 18 -1 0
BITMAP
1ff000
07c000
07c000
07c000
07c000
07c000
0f8000
0f9800
0fe000
0f8000
3f8000
cf8000
1f0040
1f0040
1f0080
1f0180
1f0780
7fff80
ENDCHAR
STARTCHAR currency
ENCODING 164
SWIDTH 574 0
DWIDTH 15 0
BBX 12 12 1 3
BITMAP
cf30
fff0
70e0
6060
c030
c030
c030
c030
6060
70e0
fff0
cf30
ENDCHAR
STARTCHAR Lcaron
ENCODING 165
SWIDTH 704 0
DWIDTH 18 0
BBX 17 20 0 0
BITMAP
000700
000f80
3fef80
078780
078100
0f8200
0f8400
0f0800
0f0000
0f0000
1f0000
1f0000
1e0000
1e0000
1e0080
3e0080
3e0100
3c0300
3c0f00
ffff00
ENDCHAR
STARTCHAR Sacute
ENCODING 166
SWIDTH 685 0
DWIDTH 16 0
BBX 15 24 0 0
BITMAP
0006
000e
001e
0038
0060
0000
03f2
0e1e
180e
3804
3804
3c04
3f00
3fe0
1ff8
1ff8
07fc
00fc
403c
401c
401c
e018
f070
9fc0
ENDCHAR
STARTCHAR section
ENCODING 167
SWIDTH 500 0
DWIDTH 15 0
BBX 13 22 0 -4
BITMAP
01e0
0630
0c78
1c78
1c30
1e00
1f00
0fc0
1ff0
23f8
60f8
7078
7838
7e30
3fa0
1fc0
07e0
61e0
f0e0
f0c0
6180
3e00
ENDCHAR
STARTCHAR diaeresis
ENCODING 168
SWIDTH 333 0
DWIDTH 11 0
BBX 10 4 0 13
BITMAP
6180
f3c0
f3c0
6180
ENDCHAR
STARTCHAR Scaron
ENCODING 169
SWIDTH 685 0
DWIDTH 16 0
BBX 15 24 0 0
BITMAP
00c6
00cc
0078
0070
0060
0000
03f2
0e1e
180e
3804
3804
3c04
3f00
3fe0
1ff8
1ff8
07fc
00fc
403c
401c
401c
e018
f070
9fc0
ENDCHAR
STARTCHAR Scedilla
ENCODING 170
SWIDTH 685 0
DWIDTH 16 0
BBX 15 23 0 -5
BITMAP
03f2
0e1e
180e
3804
3804
3c04
3f00
3fe0
1ff8
1ff8
07fc
00fc
403c
401c
401c
e018
f070
9fc0
0080
01c0
00c0
00c0
0380
ENDCHAR
STARTCHAR Tcaron
ENCODING 171
SWIDTH 722 0
DWIDTH 18 0
BBX 17 24 0 0
BITMAP
018c00
019800
00f000
00e000
00c000
000000
7fff80
73e780
e3e380
c3e300
83c100
83c100
03c000
07c000
07c000
078000
078000
078000
0f8000
0f8000
0f0000
0f0000
0f0000
3fe000
ENDCHAR
STARTCHAR Zacute
ENCODING 172
SWIDTH 704 0
DWIDTH 18 0
BBX 17 24 0 0
BITMAP
000300
000700
000f00
001c00
003000
000000
1fff80
1c0f80
181f00
303e00
207c00
207c00
00f800
01f000
03e000
07e000
07c000
0f8000
1f0100
3f0100
3e0300
7c0600
fc0e00
fffe00
ENDCHAR
STARTCHAR hyphen
ENCODING 173
SWIDTH 333 0
DWIDTH 8 0
BBX 7 3 0 5
BITMAP
7e
fc
fc
ENDCHAR
STARTCHAR Zcaron
ENCODING 174
SWIDTH 704 0
DWIDTH 18 0
BBX 17 24 0 0
BITMAP
006300
006600
003c00
003800
003000
000000
1fff80
1c0f80
181f00
303e00
207c00
207c00
00f800
01f000
03e000
07e000
07c000
0f8000
1f0100
3f0100
3e0300
7c0600
fc0e00
fffe00
ENDCHAR
STARTCHAR Zabovedot
ENCODING 175
SWIDTH 704 0
DWIDTH 18 0
BBX 17 23 0 0
BITMAP
003000
007800
007800
003000
000000
1fff80
1c0f80
181f00
303e00
207c00
207c00
00f800
01f000
03e000
07e000
07c000
0f8000
1f0100
3f0100
3e0300
7c0600
fc0e00
fffe00
ENDCHAR
STARTCHAR degree
ENCODING 176
SWIDTH 400 0
DWIDTH 9 0
BBX 8 7 0 11
BITMAP
3c
66
c3
c3
c3
66
3c
ENDCHAR
STARTCHAR aogonek
ENCODING 177
SWIDTH 667 0
DWIDTH 16 0
BBX 15 17 0 -5
BITMAP
0fbc
3c7c
783c
783c
f078
f078
f078
f078
f0f0
70f2
79f4
1e78
0100
0200
0600
0640
0380
ENDCHAR
STARTCHAR ogonek
ENCODING 178
SWIDTH 333 0
DWIDTH 8 0
BBX 5 5 1 -5
BITMAP
20
40
c0
c8
70
ENDCHAR
STARTCHAR lstroke
ENCODING 179
SWIDTH 389 0
DWIDTH 8 0
BBX 9 18 -1 0
BITMAP
3f00
0f00
0f00
0f00
1e00
1e00
1e80
1f00
1e00
3c00
7c00
bc00
3c00
3c00
7800
7800
7a00
3c00
ENDCHAR
STARTCHAR acute
ENCODING 180
SWIDTH 333 0
DWIDTH 7 0
BBX 6 5 0 13
BITMAP
0c
1c
3c
70
c0
ENDCHAR
STARTCHAR lcaron
ENCODING 181
SWIDTH 560 0
DWIDTH 14 0
BBX 13 20 0 0
BITMAP
0070
00f8
7ef8
1e78
1e10
1e20
3c40
3c80
3c00
3c00
3c00
7800
7800
7800
7800
7800
f000
f200
f400
7800
ENDCHAR
STARTCHAR sacute
ENCODING 182
SWIDTH 481 0
DWIDTH 13 0
BBX 12 18 0 0
BITMAP
0030
0070
00f0
01c0
0300
0000
0fc0
39e0
71e0
78c0
7e00
3f00
0f80
03c0
61c0
f1c0
f380
7e00
ENDCHAR
STARTCHAR caron
ENCODING 183
SWIDTH 333 0
DWIDTH 8 0
BBX 7 5 0 13
BITMAP
c6
cc
78
70
60
ENDCHAR
STARTCHAR cedilla
ENCODING 184
SWIDTH 333 0
DWIDTH 7 0
BBX 4 5 2 -5
BITMAP
20
70
30
30
e0
ENDCHAR
STARTCHAR scaron
ENCODING 185
SWIDTH 481 0
DWIDTH 13 0
BBX 12 18 0 0
BITMAP
0630
0660
03c0
0380
0300
0000
0fc0
39e0
71e0
78c0
7e00
3f00
0f80
03c0
61c0
f1c0
f380
7e00
ENDCHAR
STARTCHAR scedilla
ENCODING 186
SWIDTH 481 0
DWIDTH 13 0
BBX 11 17 0 -5
BITMAP
0fc0
39e0
71e0
78c0
7e00
3f00
0f80
03c0
61c0
f1c0
f380
7e00
0200
0700
0300
0300
0e00
ENDCHAR
STARTCHAR tcaron
ENCODING 187
SWIDTH 560 0
DWIDTH 14 0
BBX 13 21 0 0
BITMAP
0070
00f8
00f8
0078
0010
0220
0640
1e80
1e00
ff80
3c00
3c00
3c00
7800
7800
7800
7800
f000
f100
f200
7c00
ENDCHAR
STARTCHAR zacute
ENCODING 188
SWIDTH 519 0
DWIDTH 14 0
BBX 13 18 0 0
BITMAP
0018
0038
0078
00e0
0180
0000
1e18
3ff8
7ff0
41e0
00c0
0180
0600
1c00
3e10
7ff0
ffe0
c7c0
ENDCHAR
STARTCHAR doubleacute
ENCODING 189
SWIDTH 333 0
DWIDTH 13 0
BBX 12 5 0 13
BITMAP
0c30
1c70
3cf0
71c0
c300
ENDCHAR
STARTCHAR zcaron
ENCODING 190
SWIDTH 519 0
DWIDTH 14 0
BBX 13 18 0 0
BITMAP
0318
0330
01e0
01c0
0180
0000
1e18
3ff8
7ff0
41e0
00c0
0180
0600
1c00
3e10
7ff0
ffe0
c7c0
ENDCHAR
STARTCHAR zabovedot
ENCODING 191
SWIDTH 519 0
DWIDTH 14 0
BBX 13 17 0 0
BITMAP
0180
03c0
03c0
0180
0000
1e18
3ff8
7ff0
41e0
00c0
0180
0600
1c00
3e10
7ff0
ffe0
c7c0
ENDCHAR
STARTCHAR Racute
ENCODING 192
SWIDTH 796 0
DWIDTH 20 0
BBX 19 24 0 0
BITMAP
000180
000380
000780
000e00
001800
000000
1fff00
0787c0
0783e0
0f83e0
0f83e0
0f03e0
0f03c0
0f0780
1ffc00
1f3c00
1e1e00
1e1e00
1e1f00
3e1f00
3e1f20
3c0fa0
3c0fc0
ff8780
ENDCHAR
STARTCHAR Aacute
ENCODING 193
SWIDTH 741 0
DWIDTH 20 0
BBX 20 24 -1 0
BITMAP
000300
000700
000f00
001c00
003000
000000
003000
003800
007800
007c00
00fc00
00bc00
01be00
011e00
031e00
021f00
060f00
07ff00
0c0f80
080780
180780
1007c0
3007c0
fc1ff0
ENDCHAR
STARTCHAR Acircumflex
ENCODING 194
SWIDTH 741 0
DWIDTH 20 0
BBX 20 24 -1 0
BITMAP
001800
003800
007800
00cc00
018c00
000000
003000
003800
007800
007c00
00fc00
00bc00
01be00
011e00
031e00
021f00
060f00
07ff00
0c0f80
080780
180780
1007c0
3007c0
fc1ff0
ENDCHAR
STARTCHAR Abreve
ENCODING 195
SWIDTH 741 0
DWIDTH 20 0
BBX 20 23 -1 0
BITMAP
008100
00c300
007e00
003c00
000000
003000
003800
007800
007c00
00fc00
00bc00
01be00
011e00
031e00
021f00
060f00
07ff00
0c0f80
080780
180780
1007c0
3007c0
fc1ff0
ENDCHAR
STARTCHAR Adiaeresis
ENCODING 196
SWIDTH 741 0
DWIDTH 20 0
BBX 20 24 -1 0
BITMAP
018600
03cf00
03cf00
018600
000000
000000
003000
003800
007800
007c00
00fc00
00bc00
01be00
011e00
031e00
021f00
060f00
07ff00
0c0f80
080780
180780
1007c0
3007c0
fc1ff0
ENDCHAR
STARTCHAR Lacute
ENCODING 197
SWIDTH 704 0
DWIDTH 18 0
BBX 17 24 0 0
BITMAP
003000
007000
00f000
01c000
030000
000000
3fe000
078000
078000
0f8000
0f8000
0f0000
0f0000
0f0000
1f0000
1f0000
1e0000
1e0000
1e0080
3e0080
3e0100
3c0300
3c0f00
ffff00
ENDCHAR
STARTCHAR Cacute
ENCODING 198
SWIDTH 759 0
DWIDTH 18 0
BBX 17 24 0 0
BITMAP
000300
000700
000f00
001c00
003000
000000
01fc80
0f8780
1e0380
3e0100
3c0100
7c0100
780000
f80000
f80000
f80000
f80000
f80000
f80000
780100
7c0300
3c0600
1e1c00
07f000
ENDCHAR
STARTCHAR Ccedilla
ENCODING 199
SWIDTH 759 0
DWIDTH 18 0
BBX 17 23 0 -5
BITMAP
01fc80
0f8780
1e0380
3e0100
3c0100
7c0100
780000
f80000
f80000
f80000
f80000
f80000
f80000
780100
7c0300
3c0600
1e1c00
07f000
008000
01c000
00c000
00c000
038000
ENDCHAR
STARTCHAR Ccaron
ENCODING 200
SWIDTH 759 0
DWIDTH 18 0
BBX 17 24 0 0
BITMAP
006300
006600
003c00
003800
003000
000000
01fc80
0f8780
1e0380
3e0100
3c0100
7c0100
780000
f80000
f80000
f80000
f80000
f80000
f80000
780100
7c0300
3c0600
1e1c00
07f000
ENDCHAR
STARTCHAR Eacute
ENCODING 201
SWIDTH 741 0
DWIDTH 18 0
BBX 17 24 0 0
BITMAP
000600
000e00
001e00
003800
006000
000000
3fff80
078380
078180
0f8100
0f0100
0f0400
0f0400
0f0c00
1ffc00
1f1800
1e0800
1e0800
1e0880
1e0080
3e0180
3c0300
3c0f00
ffff00
ENDCHAR
STARTCHAR Eogonek
ENCODING 202
SWIDTH 741 0
DWIDTH 18 0
BBX 17 23 0 -5
BITMAP
3fff80
078380
078180
0f8100
0f0100
0f0400
0f0400
0f0c00
1ffc00
1f1800
1e0800
1e0800
1e0880
1e0080
3e0180
3c0300
3c0f00
ffff00
008000
010000
030000
032000
01c000
ENDCHAR
STARTCHAR Ediaeresis
ENCODING 203
SWIDTH 741 0
DWIDTH 18 0
BBX 17 24 0 0
BITMAP
030c00
079e00
079e00
030c00
000000
000000
3fff80
078380
078180
0f8100
0f0100
0f0400
0f0400
0f0c00
1ffc00
1f1800
1e0800
1e0800
1e0880
1e0080
3e0180
3c0300
3c0f00
ffff00
ENDCHAR
STARTCHAR Ecaron
ENCODING 204
SWIDTH 741 0
DWIDTH 18 0
BBX 17 24 0 0
BITMAP
00c600
00cc00
007800
007000
006000
000000
3fff80
078380
078180
0f8100
0f0100
0f0400
0f0400
0f0c00
1ffc00
1f1800
1e0800
1e0800
1e0880
1e0080
3e0180
3c0300
3c0f00
ffff00
ENDCHAR
STARTCHAR Iacute
ENCODING 205
SWIDTH 444 0
DWIDTH 12 0
BBX 12 24 0 0
BITMAP
0030
0070
00f0
01c0
0300
0000
3fe0
0780
0780
0f80
0f80
0f00
0f00
0f00
1f00
1f00
1e00
1e00
1e00
3e00
3e00
3c00
3c00
ff80
ENDCHAR
STARTCHAR Icircumflex
ENCODING 206
SWIDTH 444 0
DWIDTH 12 0
BBX 11 24 0 0
BITMAP
00c0
01c0
03c0
0660
0c60
0000
3fe0
0780
0780
0f80
0f80
0f00
0f00
0f00
1f00
1f00
1e00
1e00
1e00
3e00
3e00
3c00
3c00
ff80
ENDCHAR
STARTCHAR Dcaron
ENCODING 207
SWIDTH 833 0
DWIDTH 21 0
BBX 20 24 0 0
BITMAP
006300
006600
003c00
003800
003000
000000
3ffe00
078780
0783c0
0f83e0
0f01e0
0f01f0
0f01f0
0f01f0
1f01f0
1f01f0
1e01f0
1e01e0
1e03e0
1e03c0
3e07c0
3c0780
3c1f00
fff800
ENDCHAR
STARTCHAR Dstroke
ENCODING 208
SWIDTH 833 0
DWIDTH 21 0
BBX 20 18 0 0
BITMAP
3ffe00
078780
0783c0
0f83e0
0f81e0
0f01f0
0f01f0
0f01f0
7fe1f0
1f01f0
1e01f0
1e01e0
1e03e0
3e03c0
3e07c0
3c0780
3c1f00
fff800
ENDCHAR
STARTCHAR Nacute
ENCODING 209
SWIDTH 852 0
DWIDTH 22 0
BBX 21 24 0 0
BITMAP
000180
000380
000780
000e00
001800
000000
3e01f8
0f0060
0f8060
0fc040
0fc040
0be040
0bf040
09f840
18f840
107cc0
103e80
103f80
101f80
100f80
100780
300780
300380
fc0180
ENDCHAR
STARTCHAR Ncaron
ENCODING 210
SWIDTH 852 0
DWIDTH 22 0
BBX 21 24 0 0
BITMAP
003180
003300
001e00
001c00
001800
000000
3e01f8
0f0060
0f8060
0fc040
0fc040
0be040
0bf040
09f840
18f840
107cc0
103e80
103f80
101f80
100f80
100780
300780
300380
fc0180
ENDCHAR
STARTCHAR Oacute
ENCODING 211
SWIDTH 833 0
DWIDTH 20 0
BBX 19 24 0 0
BITMAP
000600
000e00
001e00
003800
006000
000000
01fc00
0f8f00
1e0780
3e07c0
3c03c0
7c03e0
7803e0
f803e0
f803e0
f803e0
f803e0
f803c0
f807c0
780780
7c0f80
3c0f00
1e3e00
07f000
ENDCHAR
STARTCHAR Ocircumflex
ENCODING 212
SWIDTH 833 0
DWIDTH 20 0
BBX 19 24 0 0
BITMAP
001800
003800
007800
00cc00
018c00
000000
01fc00
0f8f00
1e0780
3e07c0
3c03c0
7c03e0
7803e0
f803e0
f803e0
f803e0
f803e0
f803c0
f807c0
780780
7c0f80
3c0f00
1e3e00
07f000
ENDCHAR
STARTCHAR Odoubleacute
ENCODING 213
SWIDTH 833 0
DWIDTH 20 0
BBX 19 24 0 0
BITMAP
001860
0038e0
0079e0
00e380
018600
000000
01fc00
0f8f00
1e0780
3e07c0
3c03c0
7c03e0
7803e0
f803e0
f803e0
f803e0
f803e0
f803c0
f807c0
780780
7c0f80
3c0f00
1e3e00
07f000
ENDCHAR
STARTCHAR Odiaeresis
ENCODING 214
SWIDTH 833 0
DWIDTH 20 0
BBX 19 24 0 0
BITMAP
018600
03cf00
03cf00
018600
000000
000000
01fc00
0f8f00
1e0780
3e07c0
3c03c0
7c03e0
7803e0
f803e0
f803e0
f803e0
f803e0
f803c0
f807c0
780780
7c0f80
3c0f00
1e3e00
07f000
ENDCHAR
STARTCHAR multiply
ENCODING 215
SWIDTH 606 0
DWIDTH 15 0
BBX 12 12 1 1
BITMAP
c030
e070
70e0
39c0
1f80
0f00
0f00
1f80
39c0
70e0
e070
c030
ENDCHAR
STARTCHAR Rcaron
ENCODING 216
SWIDTH 796 0
DWIDTH 20 0
BBX 19 24 0 0
BITMAP
003180
003300
001e00
001c00
001800
000000
1fff00
0787c0
0783e0
0f83e0
0f83e0
0f03e0
0f03c0
0f0780
1ffc00
1f3c00
1e1e00
1e1e00
1e1f00
3e1f00
3e1f20
3c0fa0
3c0fc0
ff8780
ENDCHAR
STARTCHAR Uring
ENCODING 217
SWIDTH 833 0
DWIDTH 20 0
BBX 18 24 2 0
BITMAP
00e000
01b000
011000
01b000
00e000
000000
ff0fc0
3c0300
3c0300
7c0200
7c0200
780200
780200
780600
f80400
f80400
f00400
f00400
f00c00
f00800
f00800
f01800
787000
3fc000
ENDCHAR
STARTCHAR Uacute
ENCODING 218
SWIDTH 833 0
DWIDTH 20 0
BBX 18 24 2 0
BITMAP
000c00
001c00
003c00
007000
00c000
000000
ff0fc0
3c0300
3c0300
7c0200
7c0200
780200
780200
780600
f80400
f80400
f00400
f00400
f00c00
f00800
f00800
f01800
787000
3fc000
ENDCHAR
STARTCHAR Udoubleacute
ENCODING 219
SWIDTH 833 0
DWIDTH 20 0
BBX 18 24 2 0
BITMAP
0030c0
0071c0
00f3c0
01c700
030c00
000000
ff0fc0
3c0300
3c0300
7c0200
7c0200
780200
780200
780600
f80400
f80400
f00400
f00400
f00c00
f00800
f00800
f01800
787000
3fc000
ENDCHAR
STARTCHAR Udiaeresis
ENCODING 220
SWIDTH 833 0
DWIDTH 20 0
BBX 18 24 2 0
BITMAP
030c00
079e00
079e00
030c00
000000
000000
ff0fc0
3c0300
3c0300
7c0200
7c0200
780200
780200
780600
f80400
f80400
f00400
f00400
f00c00
f00800
f00800
f01800
787000
3fc000
ENDCHAR
STARTCHAR Yacute
ENCODING 221
SWIDTH 704 0
DWIDTH 18 0
BBX 19 24 0 0
BITMAP
000600
000e00
001e00
003800
006000
000000
ff8fe0
3e0380
1e0300
1e0600
1f0c00
1f0c00
0f1800
0f3000
0fb000
0fe000
07c000
07c000
078000
0f8000
0f8000
0f8000
0f8000
3fe000
ENDCHAR
STARTCHAR Tcedilla
ENCODING 222
SWIDTH 722 0
DWIDTH 18 0
BBX 17 23 0 -5
BITMAP
7fff80
73e780
e3e380
c3e300
83c100
83c100
03c000
07c000
07c000
078000
078000
078000
0f8000
0f8000
0f0000
0f0000
0f0000
3fe000
004000
00e000
006000
006000
01c000
ENDCHAR
STARTCHAR ssharp
ENCODING 223
SWIDTH 574 0
DWIDTH 15 0
BBX 15 23 -1 -5
BITMAP
01f0
079c
0f1e
0f1e
1e1e
1e3c
1e38
1ee0
1e38
3c3c
3c3c
3c3c
3c3c
3c3c
7878
7878
78f0
7bc0
7800
f000
f000
f000
c000
ENDCHAR
STARTCHAR racute
ENCODING 224
SWIDTH 519 0
DWIDTH 13 0
BBX 12 18 0 0
BITMAP
0030
0070
00f0
01c0
0300
0000
fce0
3df0
3ef0
3c60
7800
7800
7800
7800
f000
f000
f000
f000
ENDCHAR
STARTCHAR aacute
ENCODING 225
SWIDTH 667 0
DWIDTH 16 0
BBX 15 18 0 0
BITMAP
0030
0070
00f0
01c0
0300
0000
0fbc
3cfc
787c
787c
f078
f078
f078
f078
f0f0
70f2
79f4
1e78
ENDCHAR
STARTCHAR acircumflex
ENCODING 226
SWIDTH 667 0
DWIDTH 16 0
BBX 15 18 0 0
BITMAP
0060
00e0
01e0
0330
0630
0000
0fbc
3cfc
787c
787c
f078
f078
f078
f078
f0f0
70f2
79f4
1e78
ENDCHAR
STARTCHAR abreve
ENCODING 227
SWIDTH 667 0
DWIDTH 16 0
BBX 15 17 0 0
BITMAP
0408
0618
03f0
01e0
0000
0fbc
3c7c
783c
783c
f078
f078
f078
f078
f0f0
70f2
79f4
1e78
ENDCHAR
STARTCHAR adiaeresis
ENCODING 228
SWIDTH 667 0
DWIDTH 16 0
BBX 15 17 0 0
BITMAP
0c30
1e78
1e78
0c30
0000
0fbc
3cfc
787c
787c
f078
f078
f078
f078
f0f0
70f2
79f4
1e78
ENDCHAR
STARTCHAR lacute
ENCODING 229
SWIDTH 389 0
DWIDTH 8 0
BBX 10 24 0 0
BITMAP
00c0
01c0
03c0
0700
0c00
0000
7e00
1e00
1e00
1e00
3c00
3c00
3c00
3c00
3c00
7800
7800
7800
7800
7800
f000
f200
f400
7800
ENDCHAR
STARTCHAR cacute
ENCODING 230
SWIDTH 537 0
DWIDTH 14 0
BBX 13 18 0 0
BITMAP
0018
0038
0078
00e0
0180
0000
0fe0
3cf0
78f0
7860
f000
f000
f000
f000
f000
7020
78c0
1f00
ENDCHAR
STARTCHAR ccedilla
ENCODING 231
SWIDTH 537 0
DWIDTH 14 0
BBX 12 17 0 -5
BITMAP
0fe0
3cf0
78f0
7860
f000
f000
f000
f000
f000
7020
78c0
1f00
0400
0e00
0600
0600
1c00
ENDCHAR
STARTCHAR ccaron
ENCODING 232
SWIDTH 537 0
DWIDTH 14 0
BBX 13 18 0 0
BITMAP
0318
0330
01e0
01c0
0180
0000
0fe0
3cf0
78f0
7860
f000
f000
f000
f000
f000
7020
78c0
1f00
ENDCHAR
STARTCHAR eacute
ENCODING 233
SWIDTH 519 0
DWIDTH 14 0
BBX 12 18 0 0
BITMAP
0030
0070
00f0
01c0
0300
0000
0fc0
3cf0
7870
7870
f0f0
f1e0
ff00
f000
f000
7020
78c0
1f00
ENDCHAR
STARTCHAR eogonek
ENCODING 234
SWIDTH 519 0
DWIDTH 14 0
BBX 12 17 0 -5
BITMAP
0fc0
3cf0
7870
7870
f0f0
f1e0
ff00
f000
f000
7020
78c0
1f00
0400
0800
1800
1900
0e00
ENDCHAR
STARTCHAR ediaeresis
ENCODING 235
SWIDTH 519 0
DWIDTH 14 0
BBX 12 17 0 0
BITMAP
1860
3cf0
3cf0
1860
0000
0fc0
3cf0
7870
7870
f0f0
f1e0
ff00
f000
f000
7020
78c0
1f00
ENDCHAR
STARTCHAR ecaron
ENCODING 236
SWIDTH 519 0
DWIDTH 14 0
BBX 13 18 0 0
BITMAP
0318
0330
01e0
01c0
0180
0000
0fc0
3cf0
7870
7870
f0f0
f1e0
ff00
f000
f000
7020
78c0
1f00
ENDCHAR
STARTCHAR iacute
ENCODING 237
SWIDTH 389 0
DWIDTH 8 0
BBX 8 18 0 0
BITMAP
03
07
0f
1c
30
00
fc
3c
3c
3c
78
78
78
78
f0
f2
f4
78
ENDCHAR
STARTCHAR icircumflex
ENCODING 238
SWIDTH 389 0
DWIDTH 8 0
BBX 7 18 0 0
BITMAP
0c
1c
3c
66
c6
00
fc
3c
3c
3c
78
78
78
78
f0
f2
f4
78
ENDCHAR
STARTCHAR dcaron
ENCODING 239
SWIDTH 880 0
DWIDTH 22 0
BBX 21 20 0 0
BITMAP
000070
0000f8
007ef8
001e78
001e10
001e20
003c40
003c80
0fbc00
3cfc00
787c00
787800
f07800
f07800
f07800
f07800
f0f000
70f200
79f400
1e7800
ENDCHAR
STARTCHAR dstroke
ENCODING 240
SWIDTH 840 0
DWIDTH 21 0
BBX 20 18 0 0
BITMAP
007e00
001e00
001e00
07fff0
07fff0
003c00
0fbc00
3cfc00
787c00
787800
f07800
f07800
f07800
f07800
f0f000
70f200
79f400
1e7800
ENDCHAR
STARTCHAR nacute
ENCODING 241
SWIDTH 685 0
DWIDTH 16 0
BBX 15 18 0 0
BITMAP
0018
0038
0078
00e0
0180
0000
fc38
3cfc
3d3c
3e3c
7c78
7878
7878
7878
f0f0
f0f2
f0f4
f078
ENDCHAR
STARTCHAR ncaron
ENCODING 242
SWIDTH 685 0
DWIDTH 16 0
BBX 15 18 0 0
BITMAP
0318
0330
01e0
01c0
0180
0000
fc38
3cfc
3d3c
3e3c
7c78
7878
7878
7878
f0f0
f0f2
f0f4
f078
ENDCHAR
STARTCHAR oacute
ENCODING 243
SWIDTH 574 0
DWIDTH 15 0
BBX 13 18 0 0
BITMAP
0030
0070
00f0
01c0
0300
0000
0fc0
3cf0
7870
7878
f078
f078
f078
f078
f0f0
70f0
79e0
1f80
ENDCHAR
STARTCHAR ocircumflex
ENCODING 244
SWIDTH 574 0
DWIDTH 15 0
BBX 13 18 0 0
BITMAP
00c0
01c0
03c0
0660
0c60
0000
0fc0
3cf0
7870
7878
f078
f078
f078
f078
f0f0
70f0
79e0
1f80
ENDCHAR
STARTCHAR odoubleacute
ENCODING 245
SWIDTH 574 0
DWIDTH 15 0
BBX 16 18 0 0
BITMAP
00c3
01c7
03cf
071c
0c30
0000
0fc0
3cf0
7870
7878
f078
f078
f078
f078
f0f0
70f0
79e0
1f80
ENDCHAR
STARTCHAR odiaeresis
ENCODING 246
SWIDTH 574 0
DWIDTH 15 0
BBX 13 17 0 0
BITMAP
1860
3cf0
3cf0
1860
0000
0fc0
3cf0
7870
7878
f078
f078
f078
f078
f0f0
70f0
79e0
1f80
ENDCHAR
STARTCHAR division
ENCODING 247
SWIDTH 606 0
DWIDTH 15 0
BBX 12 12 1 1
BITMAP
0600
0600
0600
0000
0000
fff0
fff0
0000
0000
0600
0600
0600
ENDCHAR
STARTCHAR rcaron
ENCODING 248
SWIDTH 519 0
DWIDTH 13 0
BBX 12 18 0 0
BITMAP
0630
0660
03c0
0380
0300
0000
fce0
3df0
3ef0
3c60
7800
7800
7800
7800
f000
f000
f000
f000
ENDCHAR
STARTCHAR uring
ENCODING 249
SWIDTH 685 0
DWIDTH 16 0
BBX 15 18 0 0
BITMAP
0380
06c0
0440
06c0
0380
0000
fc3c
3c3c
3c3c
3c3c
7878
7878
7878
78f8
f1f0
f2f2
fcf4
7878
ENDCHAR
STARTCHAR uacute
ENCODING 250
SWIDTH 685 0
DWIDTH 16 0
BBX 15 18 0 0
BITMAP
0018
0038
0078
00e0
0180
0000
fc3c
3c3c
3c3c
3c3c
7878
7878
7878
78f8
f1f0
f2f2
fcf4
7878
ENDCHAR
STARTCHAR udoubleacute
ENCODING 251
SWIDTH 685 0
DWIDTH 16 0
BBX 16 18 0 0
BITMAP
00c3
01c7
03cf
071c
0c30
0000
fc3c
3c3c
3c3c
3c3c
7878
7878
7878
78f8
f1f0
f2f2
fcf4
7878
ENDCHAR
STARTCHAR udiaeresis
ENCODING 252
SWIDTH 685 0
DWIDTH 16 0
BBX 15 17 0 0
BITMAP
0c30
1e78
1e78
0c30
0000
fc3c
3c3c
3c3c
3c3c
7878
7878
7878
78f8
f1f0
f2f2
fcf4
7878
ENDCHAR
STARTCHAR yacute
ENCODING 253
SWIDTH 519 0
DWIDTH 13 0
BBX 15 23 -3 -5
BITMAP
000c
001c
003c
0070
00c0
0000
0e0e
1f0e
2f06
0784
078c
0788
03d8
03d0
03f0
01e0
01e0
01c0
0180
6300
f600
fc00
7000
ENDCHAR
STARTCHAR tcedilla
ENCODING 254
SWIDTH 407 0
DWIDTH 10 0
BBX 9 21 0 -5
BITMAP
0200
0600
1e00
1e00
ff80
3c00
3c00
3c00
7800
7800
7800
7800
f000
f100
f200
7c00
0400
0e00
0600
0600
1c00
ENDCHAR
STARTCHAR abovedot
ENCODING 255
SWIDTH 333 0
DWIDTH 7 0
BBX 4 4 1 13
BITMAP
60
f0
f0
60
ENDCHAR
ENDFONT
