STARTFONT 2.1
FONT -Adobe-New Century Schoolbook-Medium-I-Normal--18-180-75-75-P-104-ISO8859-2
SIZE 18 75 75
FONTBOUNDINGBOX 25 22 -2 -4
COMMENT $XConsortium: ncenI18.bdf,v 1.14 95/01/26 18:04:28 gildea Exp $
COMMENT 
COMMENT +
COMMENT  Copyright 1984-1989, 1994 Adobe Systems Incorporated.
COMMENT  Copyright 1988, 1994 Digital Equipment Corporation.
COMMENT
COMMENT  Adobe is a trademark of Adobe Systems Incorporated which may be
COMMENT  registered in certain jurisdictions.
COMMENT  Permission to use these trademarks is hereby granted only in
COMMENT  association with the images described in this file.
COMMENT
COMMENT  Permission to use, copy, modify, distribute and sell this software
COMMENT  and its documentation for any purpose and without fee is hereby
COMMENT  granted, provided that the above copyright notices appear in all
COMMENT  copies and that both those copyright notices and this permission
COMMENT  notice appear in supporting documentation, and that the names of
COMMENT  Adobe Systems and Digital Equipment Corporation not be used in
COMMENT  advertising or publicity pertaining to distribution of the software
COMMENT  without specific, written prior permission.  Adobe Systems and
COMMENT  Digital Equipment Corporation make no representations about the
COMMENT  suitability of this software for any purpose.  It is provided "as
COMMENT  is" without express or implied warranty.
COMMENT -
COMMENT  
COMMENT  Translation to ISO8859-2 by Cub Soft;  Petr.Kolar@vslib.cz
COMMENT  
STARTPROPERTIES 28
FOUNDRY "Adobe"
FAMILY_NAME "New Century Schoolbook"
WEIGHT_NAME "Medium"
SLANT "I"
SETWIDTH_NAME "Normal"
ADD_STYLE_NAME ""
PIXEL_SIZE 18
POINT_SIZE 180
RESOLUTION_X 75
RESOLUTION_Y 75
SPACING "P"
AVERAGE_WIDTH 104
CHARSET_REGISTRY "ISO8859"
CHARSET_ENCODING "2"
CAP_HEIGHT 14
X_HEIGHT 9
FONT_ASCENT 16
FONT_DESCENT 4
FACE_NAME "New Century Schoolbook Italic"
COPYRIGHT "Copyright (c) 1984, 1987 Adobe Systems Incorporated. All Rights Reserved. Copyright (c) 1988, 1991 Digital Equipment Corporation. All Rights Reserved., Copyright 1996 Cub Soft"
NOTICE "New Century Schoolbook is a trademark of Linotype-Hell AG and/or its subsidiaries."
_DEC_DEVICE_FONTNAMES "PS=NewCenturySchlbk-Italic"
_DEC_PRODUCTINFO "DECwindows Fonts V2.2-1, 18-Nov-1991"
DEFAULT_CHAR 32
RELATIVE_SETWIDTH 50
RELATIVE_WEIGHT 50
CHARSET_COLLECTIONS "ASCII ISO8859-2 ADOBE-STANDARD"
FULL_NAME "New Century Schoolbook Italic"
ENDPROPERTIES
CHARS 191
STARTCHAR space
ENCODING 32
SWIDTH 278 0
DWIDTH 5 0
BBX 1 1 0 0
BITMAP
00
ENDCHAR
STARTCHAR exclam
ENCODING 33
SWIDTH 333 0
DWIDTH 7 0
BBX 4 14 2 0
BITMAP
30
30
30
30
20
60
60
40
40
40
00
00
c0
c0
ENDCHAR
STARTCHAR quotedbl
ENCODING 34
SWIDTH 400 0
DWIDTH 7 0
BBX 5 5 2 9
BITMAP
d8
d8
90
90
90
ENDCHAR
STARTCHAR numbersign
ENCODING 35
SWIDTH 606 0
DWIDTH 11 0
BBX 10 13 1 0
BITMAP
0900
0900
0900
0900
7fc0
1200
1200
1200
ff80
2400
2400
2400
2400
ENDCHAR
STARTCHAR dollar
ENCODING 36
SWIDTH 556 0
DWIDTH 10 0
BBX 9 16 1 -2
BITMAP
0200
0f80
3580
2500
4800
6800
7800
3e00
0f00
0b00
0900
5200
d600
f800
2000
2000
ENDCHAR
STARTCHAR percent
ENCODING 37
SWIDTH 833 0
DWIDTH 16 0
BBX 15 14 1 0
BITMAP
1c60
33a0
6240
6240
c480
c480
c91c
7132
0262
0262
04c4
04c4
08c8
0870
ENDCHAR
STARTCHAR ampersand
ENCODING 38
SWIDTH 852 0
DWIDTH 15 0
BBX 14 14 1 0
BITMAP
0780
08c0
18c0
18c0
1980
0e00
3c3c
6618
c610
c320
c320
c1c0
6188
3ef0
ENDCHAR
STARTCHAR apostrophe
ENCODING 39
SWIDTH 204 0
DWIDTH 5 0
BBX 3 5 1 9
BITMAP
60
60
20
40
80
ENDCHAR
STARTCHAR parenleft
ENCODING 40
SWIDTH 333 0
DWIDTH 7 0
BBX 6 16 1 -2
BITMAP
04
08
10
30
60
60
c0
c0
c0
c0
c0
c0
60
60
20
10
ENDCHAR
STARTCHAR parenright
ENCODING 41
SWIDTH 333 0
DWIDTH 7 0
BBX 6 16 0 -2
BITMAP
20
10
18
18
0c
0c
0c
0c
0c
0c
18
18
30
20
40
80
ENDCHAR
STARTCHAR asterisk
ENCODING 42
SWIDTH 500 0
DWIDTH 9 0
BBX 8 7 1 6
BITMAP
66
24
99
ff
99
24
66
ENDCHAR
STARTCHAR plus
ENCODING 43
SWIDTH 606 0
DWIDTH 10 0
BBX 9 9 1 1
BITMAP
0800
0800
0800
0800
ff80
0800
0800
0800
0800
ENDCHAR
STARTCHAR comma
ENCODING 44
SWIDTH 278 0
DWIDTH 5 0
BBX 3 5 0 -3
BITMAP
60
60
20
40
80
ENDCHAR
STARTCHAR minus
ENCODING 45
SWIDTH 606 0
DWIDTH 11 0
BBX 9 1 1 5
BITMAP
ff80
ENDCHAR
STARTCHAR period
ENCODING 46
SWIDTH 278 0
DWIDTH 5 0
BBX 2 2 1 0
BITMAP
c0
c0
ENDCHAR
STARTCHAR slash
ENCODING 47
SWIDTH 606 0
DWIDTH 10 0
BBX 5 15 2 -1
BITMAP
08
08
08
10
10
10
20
20
20
40
40
40
80
80
80
ENDCHAR
STARTCHAR zero
ENCODING 48
SWIDTH 556 0
DWIDTH 10 0
BBX 9 14 1 0
BITMAP
0e00
1300
2180
6180
6180
6180
c180
c180
c300
c300
c300
c200
6400
3800
ENDCHAR
STARTCHAR one
ENCODING 49
SWIDTH 556 0
DWIDTH 10 0
BBX 6 14 2 0
BITMAP
04
0c
3c
0c
0c
18
18
18
18
30
30
30
30
fc
ENDCHAR
STARTCHAR two
ENCODING 50
SWIDTH 556 0
DWIDTH 10 0
BBX 9 14 1 0
BITMAP
0e00
3180
6180
6180
0180
0300
0300
0600
0c00
1800
3080
6080
ff00
ff00
ENDCHAR
STARTCHAR three
ENCODING 51
SWIDTH 556 0
DWIDTH 10 0
BBX 9 14 1 0
BITMAP
0f00
1180
3180
3180
0100
0200
1c00
0700
0300
0300
0300
c600
c400
7800
ENDCHAR
STARTCHAR four
ENCODING 52
SWIDTH 556 0
DWIDTH 10 0
BBX 9 14 1 0
BITMAP
0180
0380
0580
0980
0980
1300
2300
4300
4300
8600
ff80
0600
0600
1f80
ENDCHAR
STARTCHAR five
ENCODING 53
SWIDTH 556 0
DWIDTH 10 0
BBX 9 14 1 0
BITMAP
1f80
1f00
1000
1000
2000
3e00
2300
0300
0300
0300
0300
c600
c400
7800
ENDCHAR
STARTCHAR six
ENCODING 54
SWIDTH 556 0
DWIDTH 10 0
BBX 9 14 1 0
BITMAP
0f00
1180
2180
6000
6000
6e00
d100
e180
c180
c180
c300
c300
6600
3800
ENDCHAR
STARTCHAR seven
ENCODING 55
SWIDTH 556 0
DWIDTH 10 0
BBX 9 14 2 0
BITMAP
7f80
7f80
8100
8300
0200
0600
0400
0c00
0800
1800
1000
3000
3000
3000
ENDCHAR
STARTCHAR eight
ENCODING 56
SWIDTH 556 0
DWIDTH 10 0
BBX 9 14 1 0
BITMAP
0f00
1980
3080
3080
3080
1900
1e00
2300
6180
c180
c180
c300
4300
3c00
ENDCHAR
STARTCHAR nine
ENCODING 57
SWIDTH 556 0
DWIDTH 10 0
BBX 9 14 1 0
BITMAP
0e00
3300
6180
6180
c180
c180
c380
4580
3b00
0300
0300
c200
c400
7800
ENDCHAR
STARTCHAR colon
ENCODING 58
SWIDTH 278 0
DWIDTH 5 0
BBX 3 9 1 0
BITMAP
60
60
00
00
00
00
00
c0
c0
ENDCHAR
STARTCHAR semicolon
ENCODING 59
SWIDTH 278 0
DWIDTH 5 0
BBX 4 12 0 -3
BITMAP
30
30
00
00
00
00
00
60
60
20
40
80
ENDCHAR
STARTCHAR less
ENCODING 60
SWIDTH 606 0
DWIDTH 11 0
BBX 10 9 0 1
BITMAP
00c0
0380
0e00
3800
e000
3800
0e00
0380
00c0
ENDCHAR
STARTCHAR equal
ENCODING 61
SWIDTH 606 0
DWIDTH 11 0
BBX 9 4 1 4
BITMAP
ff80
0000
0000
ff80
ENDCHAR
STARTCHAR greater
ENCODING 62
SWIDTH 606 0
DWIDTH 11 0
BBX 10 9 1 1
BITMAP
c000
7000
1c00
0700
01c0
0700
1c00
7000
c000
ENDCHAR
STARTCHAR question
ENCODING 63
SWIDTH 444 0
DWIDTH 9 0
BBX 7 14 2 0
BITMAP
3c
46
46
06
0c
18
60
c0
90
60
00
00
c0
c0
ENDCHAR
STARTCHAR at
ENCODING 64
SWIDTH 747 0
DWIDTH 15 0
BBX 14 14 1 0
BITMAP
07c0
1830
2008
4368
4ce4
8c64
9864
98c8
98c8
99d0
4ee0
4000
3020
0fc0
ENDCHAR
STARTCHAR A
ENCODING 65
SWIDTH 704 0
DWIDTH 13 0
BBX 12 14 0 0
BITMAP
0100
0300
0380
0580
0580
08c0
08c0
10c0
1fc0
2060
2060
4060
4060
e0f0
ENDCHAR
STARTCHAR B
ENCODING 66
SWIDTH 722 0
DWIDTH 13 0
BBX 12 14 1 0
BITMAP
3fc0
1830
1830
1830
1830
3060
3f80
30c0
3060
6060
6060
6040
60c0
ff00
ENDCHAR
STARTCHAR C
ENCODING 67
SWIDTH 722 0
DWIDTH 13 0
BBX 12 14 1 0
BITMAP
07d0
1830
3020
6020
6020
c000
c000
c000
c000
c020
c020
6040
60c0
1f00
ENDCHAR
STARTCHAR D
ENCODING 68
SWIDTH 778 0
DWIDTH 15 0
BBX 13 14 1 0
BITMAP
3fe0
1830
1818
1818
1818
3018
3018
3018
3030
6030
6030
6060
60c0
ff00
ENDCHAR
STARTCHAR E
ENCODING 69
SWIDTH 722 0
DWIDTH 13 0
BBX 12 14 1 0
BITMAP
3ff0
1830
1810
1810
1880
3080
3f00
3300
3100
6120
6020
6040
60c0
ffc0
ENDCHAR
STARTCHAR F
ENCODING 70
SWIDTH 667 0
DWIDTH 12 0
BBX 11 14 1 0
BITMAP
3fe0
1860
1820
1820
1880
3080
3f00
3300
3100
6100
6000
6000
6000
f000
ENDCHAR
STARTCHAR G
ENCODING 71
SWIDTH 778 0
DWIDTH 14 0
BBX 13 14 1 0
BITMAP
07c8
1838
3010
6010
6010
c000
c000
c0f8
c030
c030
c060
6060
60e0
1f20
ENDCHAR
STARTCHAR H
ENCODING 72
SWIDTH 833 0
DWIDTH 15 0
BBX 14 14 1 0
BITMAP
3c3c
1818
1818
1818
1818
3030
3ff0
3030
3030
6060
6060
6060
6060
f0f0
ENDCHAR
STARTCHAR I
ENCODING 73
SWIDTH 407 0
DWIDTH 8 0
BBX 6 14 2 0
BITMAP
3c
18
18
18
18
30
30
30
30
60
60
60
60
f0
ENDCHAR
STARTCHAR J
ENCODING 74
SWIDTH 611 0
DWIDTH 10 0
BBX 10 14 0 0
BITMAP
03c0
0180
0180
0180
0300
0300
0300
0300
0600
0600
c600
c400
8c00
7000
ENDCHAR
STARTCHAR K
ENCODING 75
SWIDTH 741 0
DWIDTH 14 0
BBX 13 14 1 0
BITMAP
3c38
1820
1840
1880
1900
3200
3700
3b00
3180
6180
60c0
60c0
6060
f0f8
ENDCHAR
STARTCHAR L
ENCODING 76
SWIDTH 667 0
DWIDTH 12 0
BBX 11 14 1 0
BITMAP
3c00
1800
1800
1800
1800
3000
3000
3000
3000
6020
6020
6040
60c0
ffc0
ENDCHAR
STARTCHAR M
ENCODING 77
SWIDTH 944 0
DWIDTH 18 0
BBX 17 14 1 0
BITMAP
3c0780
1c0700
1c0b00
1c0b00
1c1300
261600
262600
262600
264600
464c00
438c00
438c00
430c00
e31e00
ENDCHAR
STARTCHAR N
ENCODING 78
SWIDTH 815 0
DWIDTH 15 0
BBX 14 14 1 0
BITMAP
3c1c
1c08
1608
1608
1308
3318
2190
2190
20d0
60f0
4060
4060
4020
e020
ENDCHAR
STARTCHAR O
ENCODING 79
SWIDTH 778 0
DWIDTH 14 0
BBX 13 14 1 0
BITMAP
07c0
1830
3030
6018
6018
c018
c018
c018
c018
c030
c030
6060
60c0
1f00
ENDCHAR
STARTCHAR P
ENCODING 80
SWIDTH 667 0
DWIDTH 13 0
BBX 12 14 1 0
BITMAP
3fc0
1830
1830
1830
1830
3060
3f80
3000
3000
6000
6000
6000
6000
f000
ENDCHAR
STARTCHAR Q
ENCODING 81
SWIDTH 778 0
DWIDTH 14 0
BBX 13 17 1 -3
BITMAP
07c0
1830
3030
6018
6018
c018
c018
c018
c018
ce30
d330
6360
61c0
1f80
0190
01e0
00c0
ENDCHAR
STARTCHAR R
ENCODING 82
SWIDTH 741 0
DWIDTH 14 0
BBX 13 14 1 0
BITMAP
3fc0
1830
1830
1830
1830
3060
3f80
3180
30c0
60c0
60c0
60c0
60c8
f070
ENDCHAR
STARTCHAR S
ENCODING 83
SWIDTH 667 0
DWIDTH 12 0
BBX 11 14 1 0
BITMAP
07a0
1860
1040
2040
3000
3800
3f00
0fc0
01c0
00c0
4040
4080
e180
9e00
ENDCHAR
STARTCHAR T
ENCODING 84
SWIDTH 685 0
DWIDTH 12 0
BBX 12 14 1 0
BITMAP
fff0
c630
8610
8610
0600
0c00
0c00
0c00
0c00
1800
1800
1800
1800
3c00
ENDCHAR
STARTCHAR U
ENCODING 85
SWIDTH 815 0
DWIDTH 15 0
BBX 13 14 2 0
BITMAP
7c38
3010
3010
3010
6020
6020
6020
6020
c020
c040
c040
c040
6080
3f00
ENDCHAR
STARTCHAR V
ENCODING 86
SWIDTH 704 0
DWIDTH 12 0
BBX 12 14 1 0
BITMAP
f070
6020
6040
6040
6080
3080
3100
3100
3200
1a00
1c00
1c00
1800
1800
ENDCHAR
STARTCHAR W
ENCODING 87
SWIDTH 926 0
DWIDTH 17 0
BBX 17 14 1 0
BITMAP
f1e380
60c100
60c100
61c200
61c200
316200
326400
326400
326400
1c3800
1c3800
1c3800
183000
183000
ENDCHAR
STARTCHAR X
ENCODING 88
SWIDTH 704 0
DWIDTH 13 0
BBX 14 14 0 0
BITMAP
1e3c
0c18
0c10
0620
0640
0380
0300
0380
0580
08c0
10c0
2060
6060
f0f0
ENDCHAR
STARTCHAR Y
ENCODING 89
SWIDTH 685 0
DWIDTH 14 0
BBX 13 14 2 0
BITMAP
f078
6030
3020
3040
1880
1900
0e00
0c00
0c00
1800
1800
1800
1800
3c00
ENDCHAR
STARTCHAR Z
ENCODING 90
SWIDTH 667 0
DWIDTH 13 0
BBX 12 14 1 0
BITMAP
3ff0
3070
60e0
41c0
0180
0300
0700
0e00
0c00
1800
3820
7060
e0c0
ffc0
ENDCHAR
STARTCHAR bracketleft
ENCODING 91
SWIDTH 333 0
DWIDTH 7 0
BBX 7 16 0 -2
BITMAP
1e
18
18
18
30
30
30
30
60
60
60
60
c0
c0
c0
f0
ENDCHAR
STARTCHAR backslash
ENCODING 92
SWIDTH 606 0
DWIDTH 10 0
BBX 7 14 1 0
BITMAP
80
80
40
40
20
20
10
10
08
08
04
04
02
02
ENDCHAR
STARTCHAR bracketright
ENCODING 93
SWIDTH 333 0
DWIDTH 8 0
BBX 7 16 0 -2
BITMAP
1e
06
06
06
0c
0c
0c
0c
18
18
18
18
30
30
30
f0
ENDCHAR
STARTCHAR asciicircum
ENCODING 94
SWIDTH 606 0
DWIDTH 8 0
BBX 7 8 1 6
BITMAP
10
10
38
28
6c
44
c6
82
ENDCHAR
STARTCHAR underscore
ENCODING 95
SWIDTH 500 0
DWIDTH 10 0
BBX 10 1 0 -3
BITMAP
ffc0
ENDCHAR
STARTCHAR grave
ENCODING 96
SWIDTH 333 0
DWIDTH 5 0
BBX 4 3 1 10
BITMAP
c0
60
10
ENDCHAR
STARTCHAR a
ENCODING 97
SWIDTH 574 0
DWIDTH 11 0
BBX 10 9 1 0
BITMAP
1d80
6380
6180
c180
c300
c300
c300
6740
3980
ENDCHAR
STARTCHAR b
ENCODING 98
SWIDTH 556 0
DWIDTH 11 0
BBX 9 14 1 0
BITMAP
7000
3000
3000
3000
6000
6e00
7300
6180
c180
c180
c180
c300
6300
3c00
ENDCHAR
STARTCHAR c
ENCODING 99
SWIDTH 444 0
DWIDTH 9 0
BBX 8 9 1 0
BITMAP
1e
63
63
c0
c0
c0
c1
62
3c
ENDCHAR
STARTCHAR d
ENCODING 100
SWIDTH 611 0
DWIDTH 11 0
BBX 10 14 1 0
BITMAP
01c0
00c0
00c0
00c0
0180
1d80
6380
6180
c180
c300
c300
c300
6740
3980
ENDCHAR
STARTCHAR e
ENCODING 101
SWIDTH 444 0
DWIDTH 9 0
BBX 8 9 1 0
BITMAP
1e
63
63
c6
cc
f0
c1
62
3c
ENDCHAR
STARTCHAR f
ENCODING 102
SWIDTH 333 0
DWIDTH 7 0
BBX 9 17 1 -3
BITMAP
0300
0d80
0980
1800
1800
fe00
3000
3000
3000
6000
6000
6000
6000
6000
c000
c000
c000
ENDCHAR
STARTCHAR g
ENCODING 103
SWIDTH 537 0
DWIDTH 9 0
BBX 11 15 -1 -4
BITMAP
0060
0080
0780
18c0
30c0
30c0
3180
1e00
2000
3f00
4180
c180
c100
e300
7e00
ENDCHAR
STARTCHAR h
ENCODING 104
SWIDTH 611 0
DWIDTH 11 0
BBX 10 14 1 0
BITMAP
7000
3000
3000
3000
3000
6700
6980
7180
6180
6180
c300
c300
c340
c180
ENDCHAR
STARTCHAR i
ENCODING 105
SWIDTH 333 0
DWIDTH 5 0
BBX 4 13 1 0
BITMAP
30
30
00
00
e0
60
60
60
60
c0
c0
d0
e0
ENDCHAR
STARTCHAR j
ENCODING 106
SWIDTH 315 0
DWIDTH 5 0
BBX 7 17 -2 -4
BITMAP
06
06
00
00
1c
0c
0c
0c
0c
0c
18
18
18
18
10
d0
e0
ENDCHAR
STARTCHAR k
ENCODING 107
SWIDTH 556 0
DWIDTH 11 0
BBX 9 14 1 0
BITMAP
7000
3000
3000
3000
3000
6700
6980
7180
6300
6c00
c600
c600
c680
c300
ENDCHAR
STARTCHAR l
ENCODING 108
SWIDTH 333 0
DWIDTH 5 0
BBX 4 14 1 0
BITMAP
70
30
30
30
30
60
60
60
60
c0
c0
c0
d0
e0
ENDCHAR
STARTCHAR m
ENCODING 109
SWIDTH 889 0
DWIDTH 17 0
BBX 16 9 1 0
BITMAP
e71c
69a6
71c6
6186
6186
c30c
c30c
c30d
c306
ENDCHAR
STARTCHAR n
ENCODING 110
SWIDTH 611 0
DWIDTH 11 0
BBX 10 9 1 0
BITMAP
e700
6980
7180
6180
6180
c300
c300
c340
c180
ENDCHAR
STARTCHAR o
ENCODING 111
SWIDTH 500 0
DWIDTH 11 0
BBX 9 9 1 0
BITMAP
1e00
6300
6180
c180
c180
c180
c300
6300
3c00
ENDCHAR
STARTCHAR p
ENCODING 112
SWIDTH 574 0
DWIDTH 11 0
BBX 11 13 -1 -4
BITMAP
3b80
1cc0
1860
1860
3060
3060
30c0
38c0
3700
6000
6000
6000
f000
ENDCHAR
STARTCHAR q
ENCODING 113
SWIDTH 556 0
DWIDTH 11 0
BBX 9 13 1 -4
BITMAP
1c80
6380
6180
c180
c300
c300
c300
6700
3b00
0600
0600
0600
0f00
ENDCHAR
STARTCHAR r
ENCODING 114
SWIDTH 444 0
DWIDTH 7 0
BBX 7 9 1 0
BITMAP
ee
76
60
60
60
c0
c0
c0
c0
ENDCHAR
STARTCHAR s
ENCODING 115
SWIDTH 444 0
DWIDTH 8 0
BBX 8 9 0 0
BITMAP
1e
23
63
70
3c
0e
c6
c4
78
ENDCHAR
STARTCHAR t
ENCODING 116
SWIDTH 352 0
DWIDTH 6 0
BBX 7 12 0 0
BITMAP
18
18
18
fe
30
30
30
60
60
60
68
70
ENDCHAR
STARTCHAR u
ENCODING 117
SWIDTH 611 0
DWIDTH 11 0
BBX 10 9 1 0
BITMAP
e180
6180
6180
6180
c300
c300
c700
cb40
7180
ENDCHAR
STARTCHAR v
ENCODING 118
SWIDTH 519 0
DWIDTH 10 0
BBX 8 9 1 0
BITMAP
e7
63
61
61
c1
c2
c2
c4
78
ENDCHAR
STARTCHAR w
ENCODING 119
SWIDTH 778 0
DWIDTH 15 0
BBX 13 9 1 0
BITMAP
e338
6318
6308
6308
c608
c610
c610
ca20
71c0
ENDCHAR
STARTCHAR x
ENCODING 120
SWIDTH 500 0
DWIDTH 11 0
BBX 11 9 0 0
BITMAP
1860
38c0
0d00
0e00
0400
0e00
1600
e380
c300
ENDCHAR
STARTCHAR y
ENCODING 121
SWIDTH 500 0
DWIDTH 9 0
BBX 10 12 -1 -3
BITMAP
30c0
7040
1880
1880
0d00
0d00
0600
0600
0400
0800
c800
f000
ENDCHAR
STARTCHAR z
ENCODING 122
SWIDTH 463 0
DWIDTH 9 0
BBX 9 9 0 0
BITMAP
3c80
4f80
0300
0600
0c00
1800
3000
7900
9e00
ENDCHAR
STARTCHAR braceleft
ENCODING 123
SWIDTH 333 0
DWIDTH 6 0
BBX 7 16 0 -2
BITMAP
0e
18
18
18
30
30
20
c0
60
60
60
c0
c0
c0
c0
70
ENDCHAR
STARTCHAR bar
ENCODING 124
SWIDTH 606 0
DWIDTH 10 0
BBX 1 14 4 0
BITMAP
80
80
80
80
80
80
80
80
80
80
80
80
80
80
ENDCHAR
STARTCHAR braceright
ENCODING 125
SWIDTH 333 0
DWIDTH 8 0
BBX 7 16 0 -2
BITMAP
1c
06
06
06
0c
0c
0c
06
08
18
18
18
30
30
30
e0
ENDCHAR
STARTCHAR asciitilde
ENCODING 126
SWIDTH 606 0
DWIDTH 9 0
BBX 8 2 1 5
BITMAP
71
8e
ENDCHAR
STARTCHAR nobreakspace
ENCODING 160
SWIDTH 278 0
DWIDTH 5 0
BBX 1 1 0 0
BITMAP
00
ENDCHAR
STARTCHAR Aogonek
ENCODING 161
SWIDTH 704 0
DWIDTH 13 0
BBX 12 18 0 -4
BITMAP
0100
0300
0380
0580
0580
08c0
08c0
10c0
1fc0
2060
2060
4060
4060
e0f0
0400
0800
0900
0e00
ENDCHAR
STARTCHAR breve
ENCODING 162
SWIDTH 333 0
DWIDTH 6 0
BBX 5 3 1 10
BITMAP
88
d8
70
ENDCHAR
STARTCHAR Lstroke
ENCODING 163
SWIDTH 667 0
DWIDTH 12 0
BBX 12 14 0 0
BITMAP
1e00
0c00
0c00
0c00
0c00
1b00
1c00
3800
d800
3010
3010
3020
3060
7fe0
ENDCHAR
STARTCHAR currency
ENCODING 164
SWIDTH 606 0
DWIDTH 12 0
BBX 9 9 2 3
BITMAP
9c80
ff80
6300
c180
c180
c180
6300
ff80
9c80
ENDCHAR
STARTCHAR Lcaron
ENCODING 165
SWIDTH 667 0
DWIDTH 12 0
BBX 11 15 1 0
BITMAP
00c0
3cc0
1840
1880
1900
1800
3000
3000
3000
3000
6020
6020
6040
60c0
ffc0
ENDCHAR
STARTCHAR Sacute
ENCODING 166
SWIDTH 667 0
DWIDTH 12 0
BBX 11 18 1 0
BITMAP
0060
00c0
0100
0000
07a0
1860
1040
2040
3000
3800
3f00
0fc0
01c0
00c0
4040
4080
e180
9e00
ENDCHAR
STARTCHAR section
ENCODING 167
SWIDTH 500 0
DWIDTH 10 0
BBX 9 17 1 -3
BITMAP
0f00
1180
2180
3000
3800
3c00
4e00
4700
6300
7100
3900
1e00
0e00
0600
c200
c400
7800
ENDCHAR
STARTCHAR diaeresis
ENCODING 168
SWIDTH 333 0
DWIDTH 7 0
BBX 6 2 1 10
BITMAP
cc
cc
ENDCHAR
STARTCHAR Scaron
ENCODING 169
SWIDTH 667 0
DWIDTH 12 0
BBX 11 19 1 0
BITMAP
0220
0240
0180
0100
0000
07a0
1860
1040
2040
3000
3800
3f00
0fc0
01c0
00c0
4040
4080
e180
9e00
ENDCHAR
STARTCHAR Scedilla
ENCODING 170
SWIDTH 667 0
DWIDTH 12 0
BBX 11 18 1 -4
BITMAP
07a0
1860
1040
2040
3000
3800
3f00
0fc0
01c0
00c0
4040
4080
e180
9e00
0400
0600
0200
0c00
ENDCHAR
STARTCHAR Tcaron
ENCODING 171
SWIDTH 685 0
DWIDTH 12 0
BBX 12 19 1 0
BITMAP
0440
0480
0300
0200
0000
fff0
c630
8610
8610
0600
0c00
0c00
0c00
0c00
1800
1800
1800
1800
3c00
ENDCHAR
STARTCHAR Zacute
ENCODING 172
SWIDTH 667 0
DWIDTH 13 0
BBX 12 18 1 0
BITMAP
00c0
0180
0200
0000
3ff0
3070
60e0
41c0
0180
0300
0700
0e00
0c00
1800
3820
7060
e0c0
ffc0
ENDCHAR
STARTCHAR hyphen
ENCODING 173
SWIDTH 333 0
DWIDTH 6 0
BBX 5 1 0 5
BITMAP
f8
ENDCHAR
STARTCHAR Zcaron
ENCODING 174
SWIDTH 667 0
DWIDTH 13 0
BBX 12 19 1 0
BITMAP
0440
0480
0300
0200
0000
3ff0
3070
60e0
41c0
0180
0300
0700
0e00
0c00
1800
3820
7060
e0c0
ffc0
ENDCHAR
STARTCHAR Zabovedot
ENCODING 175
SWIDTH 667 0
DWIDTH 13 0
BBX 12 17 1 0
BITMAP
0300
0300
0000
3ff0
3070
60e0
41c0
0180
0300
0700
0e00
0c00
1800
3820
7060
e0c0
ffc0
ENDCHAR
STARTCHAR degree
ENCODING 176
SWIDTH 400 0
DWIDTH 7 0
BBX 6 6 1 8
BITMAP
78
cc
84
84
cc
78
ENDCHAR
STARTCHAR aogonek
ENCODING 177
SWIDTH 574 0
DWIDTH 11 0
BBX 10 13 1 -4
BITMAP
1d80
6380
6180
c180
c300
c300
c300
6740
3980
0800
1000
1200
1c00
ENDCHAR
STARTCHAR ogonek
ENCODING 178
SWIDTH 333 0
DWIDTH 5 0
BBX 4 4 0 -4
BITMAP
40
80
90
e0
ENDCHAR
STARTCHAR lstroke
ENCODING 179
SWIDTH 333 0
DWIDTH 6 0
BBX 6 14 0 0
BITMAP
38
18
18
18
18
34
38
70
b0
60
60
60
68
70
ENDCHAR
STARTCHAR acute
ENCODING 180
SWIDTH 333 0
DWIDTH 5 0
BBX 4 3 1 11
BITMAP
30
60
80
ENDCHAR
STARTCHAR lcaron
ENCODING 181
SWIDTH 480 0
DWIDTH 9 0
BBX 8 15 1 0
BITMAP
03
73
31
32
34
30
60
60
60
60
c0
c0
c0
d0
e0
ENDCHAR
STARTCHAR sacute
ENCODING 182
SWIDTH 444 0
DWIDTH 8 0
BBX 8 13 0 0
BITMAP
03
06
08
00
1e
23
63
70
3c
0e
c6
c4
78
ENDCHAR
STARTCHAR caron
ENCODING 183
SWIDTH 333 0
DWIDTH 6 0
BBX 5 4 1 10
BITMAP
88
90
60
40
ENDCHAR
STARTCHAR cedilla
ENCODING 184
SWIDTH 333 0
DWIDTH 6 0
BBX 3 4 1 -4
BITMAP
40
60
20
c0
ENDCHAR
STARTCHAR scaron
ENCODING 185
SWIDTH 444 0
DWIDTH 8 0
BBX 8 14 0 0
BITMAP
11
12
0c
08
00
1e
23
63
70
3c
0e
c6
c4
78
ENDCHAR
STARTCHAR scedilla
ENCODING 186
SWIDTH 444 0
DWIDTH 8 0
BBX 8 13 0 -4
BITMAP
1e
23
63
70
3c
0e
c6
c4
78
10
18
08
30
ENDCHAR
STARTCHAR tcaron
ENCODING 187
SWIDTH 426 0
DWIDTH 8 0
BBX 9 15 0 0
BITMAP
0180
0180
0080
1900
1a00
1800
fe00
3000
3000
3000
6000
6000
6000
6800
7000
ENDCHAR
STARTCHAR zacute
ENCODING 188
SWIDTH 463 0
DWIDTH 9 0
BBX 9 13 0 0
BITMAP
0300
0600
0800
0000
3c80
4f80
0300
0600
0c00
1800
3000
7900
9e00
ENDCHAR
STARTCHAR doubleacute
ENCODING 189
SWIDTH 333 0
DWIDTH 9 0
BBX 8 3 1 10
BITMAP
33
66
88
ENDCHAR
STARTCHAR zcaron
ENCODING 190
SWIDTH 463 0
DWIDTH 9 0
BBX 9 14 0 0
BITMAP
1100
1200
0c00
0800
0000
3c80
4f80
0300
0600
0c00
1800
3000
7900
9e00
ENDCHAR
STARTCHAR zabovedot
ENCODING 191
SWIDTH 463 0
DWIDTH 9 0
BBX 9 12 0 0
BITMAP
0c00
0c00
0000
3c80
4f80
0300
0600
0c00
1800
3000
7900
9e00
ENDCHAR
STARTCHAR Racute
ENCODING 192
SWIDTH 741 0
DWIDTH 14 0
BBX 13 18 1 0
BITMAP
0060
00c0
0100
0000
3fc0
1830
1830
1830
1830
3060
3f80
3180
30c0
60c0
60c0
60c0
60c8
f070
ENDCHAR
STARTCHAR Aacute
ENCODING 193
SWIDTH 704 0
DWIDTH 13 0
BBX 12 18 0 0
BITMAP
00c0
0180
0200
0000
0100
0300
0380
0580
0580
08c0
08c0
10c0
1fc0
2060
2060
4060
4060
e0f0
ENDCHAR
STARTCHAR Acircumflex
ENCODING 194
SWIDTH 704 0
DWIDTH 13 0
BBX 12 18 0 0
BITMAP
0180
03c0
0440
0000
0100
0300
0380
0580
0580
08c0
08c0
10c0
1fc0
2060
2060
4060
4060
e0f0
ENDCHAR
STARTCHAR Abreve
ENCODING 195
SWIDTH 704 0
DWIDTH 13 0
BBX 12 18 0 0
BITMAP
0440
06c0
0380
0000
0100
0300
0380
0580
0580
08c0
08c0
10c0
1fc0
2060
2060
4060
4060
e0f0
ENDCHAR
STARTCHAR Adiaeresis
ENCODING 196
SWIDTH 704 0
DWIDTH 13 0
BBX 12 17 0 0
BITMAP
0660
0660
0000
0100
0300
0380
0580
0580
08c0
08c0
10c0
1fc0
2060
2060
4060
4060
e0f0
ENDCHAR
STARTCHAR Lacute
ENCODING 197
SWIDTH 667 0
DWIDTH 12 0
BBX 11 18 1 0
BITMAP
0300
0600
0800
0000
3c00
1800
1800
1800
1800
3000
3000
3000
3000
6020
6020
6040
60c0
ffc0
ENDCHAR
STARTCHAR Cacute
ENCODING 198
SWIDTH 722 0
DWIDTH 13 0
BBX 12 18 1 0
BITMAP
0060
00c0
0100
0000
07d0
1830
3020
6020
6020
c000
c000
c000
c000
c020
c020
6040
60c0
1f00
ENDCHAR
STARTCHAR Ccedilla
ENCODING 199
SWIDTH 722 0
DWIDTH 13 0
BBX 12 18 1 -4
BITMAP
07d0
1830
3020
6020
6020
c000
c000
c000
c000
c000
c000
6020
60c0
1f00
0400
0600
0200
0c00
ENDCHAR
STARTCHAR Ccaron
ENCODING 200
SWIDTH 722 0
DWIDTH 13 0
BBX 12 19 1 0
BITMAP
0220
0240
0180
0100
0000
07d0
1830
3020
6020
6020
c000
c000
c000
c000
c020
c020
6040
60c0
1f00
ENDCHAR
STARTCHAR Eacute
ENCODING 201
SWIDTH 722 0
DWIDTH 13 0
BBX 12 18 1 0
BITMAP
00c0
0180
0200
0000
3ff0
1830
1810
1810
1880
3080
3f00
3300
3100
6120
6020
6040
60c0
ffc0
ENDCHAR
STARTCHAR Eogonek
ENCODING 202
SWIDTH 722 0
DWIDTH 13 0
BBX 12 18 1 -4
BITMAP
3ff0
1830
1810
1810
1880
3080
3f00
3300
3100
6120
6020
6040
60c0
ffc0
0400
0800
0900
0e00
ENDCHAR
STARTCHAR Ediaeresis
ENCODING 203
SWIDTH 722 0
DWIDTH 13 0
BBX 12 17 1 0
BITMAP
0660
0660
0000
3ff0
1830
1810
1810
1880
3080
3f00
3300
3100
6120
6020
6040
60c0
ffc0
ENDCHAR
STARTCHAR Ecaron
ENCODING 204
SWIDTH 722 0
DWIDTH 13 0
BBX 12 19 1 0
BITMAP
0220
0240
0180
0100
0000
3ff0
1830
1810
1810
1880
3080
3f00
3300
3100
6120
6020
6040
60c0
ffc0
ENDCHAR
STARTCHAR Iacute
ENCODING 205
SWIDTH 407 0
DWIDTH 9 0
BBX 7 18 2 0
BITMAP
06
0c
10
00
3c
18
18
18
18
30
30
30
30
60
60
60
60
f0
ENDCHAR
STARTCHAR Icircumflex
ENCODING 206
SWIDTH 407 0
DWIDTH 9 0
BBX 7 18 2 0
BITMAP
0c
1e
22
00
18
18
18
18
18
30
30
30
30
60
60
60
60
f0
ENDCHAR
STARTCHAR Dcaron
ENCODING 207
SWIDTH 778 0
DWIDTH 15 0
BBX 13 19 1 0
BITMAP
0220
0240
0180
0100
0000
3fe0
1830
1818
1818
1818
3018
3018
3018
3030
6030
6030
6060
60c0
ff00
ENDCHAR
STARTCHAR Dstroke
ENCODING 208
SWIDTH 778 0
DWIDTH 15 0
BBX 13 14 1 0
BITMAP
3fe0
1830
1818
1818
1818
3018
fe18
3018
3030
6030
6030
6060
60c0
ff00
ENDCHAR
STARTCHAR Nacute
ENCODING 209
SWIDTH 815 0
DWIDTH 15 0
BBX 14 18 1 0
BITMAP
0030
0060
0080
0000
3c1c
1c08
1608
1608
1308
3318
2190
2190
20d0
60f0
4060
4060
4020
e020
ENDCHAR
STARTCHAR Ncaron
ENCODING 210
SWIDTH 815 0
DWIDTH 15 0
BBX 14 19 1 0
BITMAP
0110
0120
00c0
0080
0000
3c1c
1c08
1608
1608
1308
3318
2190
2190
20d0
60f0
4060
4060
4020
e020
ENDCHAR
STARTCHAR Oacute
ENCODING 211
SWIDTH 778 0
DWIDTH 14 0
BBX 13 18 1 0
BITMAP
00c0
0180
0200
0000
07c0
1830
3030
6018
6018
c018
c018
c018
c018
c030
c030
6060
60c0
1f00
ENDCHAR
STARTCHAR Ocircumflex
ENCODING 212
SWIDTH 778 0
DWIDTH 14 0
BBX 13 18 1 0
BITMAP
0180
03c0
0440
0000
07c0
1830
3030
6018
6018
c018
c018
c018
c018
c030
c030
6060
60c0
1f00
ENDCHAR
STARTCHAR Odoubleacute
ENCODING 213
SWIDTH 778 0
DWIDTH 14 0
BBX 13 18 1 0
BITMAP
0198
0330
0440
0000
07c0
1830
3030
6018
6018
c018
c018
c018
c018
c030
c030
6060
60c0
1f00
ENDCHAR
STARTCHAR Odiaeresis
ENCODING 214
SWIDTH 778 0
DWIDTH 14 0
BBX 13 17 1 0
BITMAP
0660
0660
0000
07c0
1830
3030
6018
6018
c018
c018
c018
c018
c030
c030
6060
60c0
1f00
ENDCHAR
STARTCHAR multiply
ENCODING 215
SWIDTH 606 0
DWIDTH 10 0
BBX 10 9 0 0
BITMAP
c0c0
6180
3300
1e00
0c00
1e00
3300
6180
c0c0
ENDCHAR
STARTCHAR Rcaron
ENCODING 216
SWIDTH 741 0
DWIDTH 14 0
BBX 13 19 1 0
BITMAP
0220
0240
0180
0100
0000
3fc0
1830
1830
1830
1830
3060
3f80
3180
30c0
60c0
60c0
60c0
60c8
f070
ENDCHAR
STARTCHAR Uring
ENCODING 217
SWIDTH 815 0
DWIDTH 15 0
BBX 13 19 2 0
BITMAP
0180
0240
0240
0180
0000
7c38
3010
3010
3010
6020
6020
6020
6020
c020
c040
c040
c040
6080
3f00
ENDCHAR
STARTCHAR Uacute
ENCODING 218
SWIDTH 815 0
DWIDTH 15 0
BBX 13 18 2 0
BITMAP
00c0
0180
0200
0000
7c38
3010
3010
3010
6020
6020
6020
6020
c020
c040
c040
c040
6080
3f00
ENDCHAR
STARTCHAR Udoubleacute
ENCODING 219
SWIDTH 815 0
DWIDTH 15 0
BBX 13 18 2 0
BITMAP
0198
0330
0440
0000
7c38
3010
3010
3010
6020
6020
6020
6020
c020
c040
c040
c040
6080
3f00
ENDCHAR
STARTCHAR Udiaeresis
ENCODING 220
SWIDTH 815 0
DWIDTH 15 0
BBX 13 17 2 0
BITMAP
0660
0660
0000
7c38
3010
3010
3010
6020
6020
6020
6020
c020
c040
c040
c040
6080
3f00
ENDCHAR
STARTCHAR Yacute
ENCODING 221
SWIDTH 685 0
DWIDTH 14 0
BBX 13 18 2 0
BITMAP
00c0
0180
0200
0000
f078
6030
3020
3040
1880
1900
0e00
0c00
0c00
1800
1800
1800
1800
3c00
ENDCHAR
STARTCHAR Tcedilla
ENCODING 222
SWIDTH 685 0
DWIDTH 12 0
BBX 12 18 1 -4
BITMAP
fff0
c630
8610
8610
0600
0c00
0c00
0c00
0c00
1800
1800
1800
1800
3c00
0400
0600
0200
0c00
ENDCHAR
STARTCHAR ssharp
ENCODING 223
SWIDTH 556 0
DWIDTH 10 0
BBX 9 17 0 -3
BITMAP
0e00
1100
3180
3180
3180
3100
3600
6100
6180
6180
6180
6180
6b00
ce00
c000
c000
c000
ENDCHAR
STARTCHAR racute
ENCODING 224
SWIDTH 444 0
DWIDTH 7 0
BBX 7 13 1 0
BITMAP
06
0c
10
00
ee
76
60
60
60
c0
c0
c0
c0
ENDCHAR
STARTCHAR aacute
ENCODING 225
SWIDTH 574 0
DWIDTH 11 0
BBX 10 13 1 0
BITMAP
0300
0600
0800
0000
1d80
6380
6180
c180
c300
c300
c300
6740
3980
ENDCHAR
STARTCHAR acircumflex
ENCODING 226
SWIDTH 574 0
DWIDTH 11 0
BBX 10 13 1 0
BITMAP
0200
0700
0900
0000
1d80
6380
6180
c180
c300
c300
c300
6740
3980
ENDCHAR
STARTCHAR abreve
ENCODING 227
SWIDTH 574 0
DWIDTH 11 0
BBX 10 13 1 0
BITMAP
2200
3600
1c00
0000
1d80
6380
6180
c180
c300
c300
c300
6740
3980
ENDCHAR
STARTCHAR adiaeresis
ENCODING 228
SWIDTH 574 0
DWIDTH 11 0
BBX 10 12 1 0
BITMAP
1980
1980
0000
1d80
6380
6180
c180
c300
c300
c300
6740
3980
ENDCHAR
STARTCHAR lacute
ENCODING 229
SWIDTH 333 0
DWIDTH 5 0
BBX 6 18 1 0
BITMAP
0c
18
20
00
70
30
30
30
30
60
60
60
60
c0
c0
c0
d0
e0
ENDCHAR
STARTCHAR cacute
ENCODING 230
SWIDTH 444 0
DWIDTH 9 0
BBX 8 13 1 0
BITMAP
03
06
08
00
1e
63
63
c0
c0
c0
c1
62
3c
ENDCHAR
STARTCHAR ccedilla
ENCODING 231
SWIDTH 444 0
DWIDTH 9 0
BBX 8 13 1 -4
BITMAP
1e
63
63
c0
c0
c0
c1
62
3c
10
18
08
30
ENDCHAR
STARTCHAR ccaron
ENCODING 232
SWIDTH 444 0
DWIDTH 9 0
BBX 8 14 1 0
BITMAP
11
12
0c
08
00
1e
63
63
c0
c0
c0
c1
62
3c
ENDCHAR
STARTCHAR eacute
ENCODING 233
SWIDTH 444 0
DWIDTH 9 0
BBX 8 13 1 0
BITMAP
06
0c
10
00
1e
63
63
c6
cc
f0
c1
62
3c
ENDCHAR
STARTCHAR eogonek
ENCODING 234
SWIDTH 444 0
DWIDTH 9 0
BBX 8 13 1 -4
BITMAP
1e
63
63
c6
cc
f0
c1
62
3c
10
20
24
38
ENDCHAR
STARTCHAR ediaeresis
ENCODING 235
SWIDTH 444 0
DWIDTH 9 0
BBX 8 12 1 0
BITMAP
33
33
00
1e
63
63
c6
cc
f0
c1
62
3c
ENDCHAR
STARTCHAR ecaron
ENCODING 236
SWIDTH 444 0
DWIDTH 9 0
BBX 8 14 1 0
BITMAP
11
12
0c
08
00
1e
63
63
c6
cc
f0
c1
62
3c
ENDCHAR
STARTCHAR iacute
ENCODING 237
SWIDTH 333 0
DWIDTH 5 0
BBX 5 13 1 0
BITMAP
18
30
40
00
e0
60
60
60
c0
c0
c0
d0
e0
ENDCHAR
STARTCHAR icircumflex
ENCODING 238
SWIDTH 333 0
DWIDTH 5 0
BBX 4 13 1 0
BITMAP
20
70
90
00
e0
60
60
60
c0
c0
c0
d0
e0
ENDCHAR
STARTCHAR dcaron
ENCODING 239
SWIDTH 800 0
DWIDTH 15 0
BBX 14 15 1 0
BITMAP
000c
01cc
00c4
00c8
00d0
0180
1d80
6380
6180
c180
c300
c300
c300
6740
3980
ENDCHAR
STARTCHAR dstroke
ENCODING 240
SWIDTH 746 0
DWIDTH 14 0
BBX 13 14 1 0
BITMAP
01c0
00c0
07f8
00c0
0180
1d80
6380
6180
c180
c300
c300
c300
6740
3980
ENDCHAR
STARTCHAR nacute
ENCODING 241
SWIDTH 611 0
DWIDTH 11 0
BBX 10 13 1 0
BITMAP
0300
0600
0800
0000
e700
6980
7180
6180
6180
c300
c300
c340
c180
ENDCHAR
STARTCHAR ncaron
ENCODING 242
SWIDTH 611 0
DWIDTH 11 0
BBX 10 14 1 0
BITMAP
1100
1200
0c00
0800
0000
e700
6980
7180
6180
6180
c300
c300
c340
c180
ENDCHAR
STARTCHAR oacute
ENCODING 243
SWIDTH 500 0
DWIDTH 11 0
BBX 9 13 1 0
BITMAP
0300
0600
0800
0000
1e00
6300
6180
c180
c180
c180
c300
6300
3c00
ENDCHAR
STARTCHAR ocircumflex
ENCODING 244
SWIDTH 500 0
DWIDTH 11 0
BBX 9 13 1 0
BITMAP
0400
0e00
1200
0000
1e00
6300
6180
c180
c180
c180
c300
6300
3c00
ENDCHAR
STARTCHAR odoubleacute
ENCODING 245
SWIDTH 500 0
DWIDTH 11 0
BBX 10 13 1 0
BITMAP
0cc0
1980
2200
0000
1e00
6300
6180
c180
c180
c180
c300
6300
3c00
ENDCHAR
STARTCHAR odiaeresis
ENCODING 246
SWIDTH 500 0
DWIDTH 11 0
BBX 9 12 1 0
BITMAP
1b00
1b00
0000
1e00
6300
6180
c180
c180
c180
c300
6300
3c00
ENDCHAR
STARTCHAR division
ENCODING 247
SWIDTH 606 0
DWIDTH 10 0
BBX 8 7 1 2
BITMAP
18
18
00
ff
00
18
18
ENDCHAR
STARTCHAR rcaron
ENCODING 248
SWIDTH 444 0
DWIDTH 7 0
BBX 7 14 1 0
BITMAP
22
24
18
10
00
ee
76
60
60
60
c0
c0
c0
c0
ENDCHAR
STARTCHAR uring
ENCODING 249
SWIDTH 611 0
DWIDTH 11 0
BBX 10 14 1 0
BITMAP
0c00
1200
1200
0c00
0000
e180
6180
6180
6180
c300
c300
c700
cb40
7180
ENDCHAR
STARTCHAR uacute
ENCODING 250
SWIDTH 611 0
DWIDTH 11 0
BBX 10 13 1 0
BITMAP
0300
0600
0800
0000
e180
6180
6180
6180
c300
c300
c700
cb40
7180
ENDCHAR
STARTCHAR udoubleacute
ENCODING 251
SWIDTH 611 0
DWIDTH 11 0
BBX 10 13 1 0
BITMAP
0cc0
1980
2200
0000
e180
6180
6180
6180
c300
c300
c700
cb40
7180
ENDCHAR
STARTCHAR udiaeresis
ENCODING 252
SWIDTH 611 0
DWIDTH 11 0
BBX 10 12 1 0
BITMAP
1b00
1b00
0000
e180
6180
6180
6180
c300
c300
c700
cb40
7180
ENDCHAR
STARTCHAR yacute
ENCODING 253
SWIDTH 500 0
DWIDTH 9 0
BBX 10 16 -1 -3
BITMAP
0180
0300
0400
0000
30c0
7040
1880
1880
0d00
0d00
0600
0600
0400
0800
c800
f000
ENDCHAR
STARTCHAR tcedilla
ENCODING 254
SWIDTH 352 0
DWIDTH 6 0
BBX 7 16 0 -4
BITMAP
18
18
18
fe
30
30
30
60
60
60
68
70
10
18
08
30
ENDCHAR
STARTCHAR abovedot
ENCODING 255
SWIDTH 333 0
DWIDTH 3 0
BBX 2 2 1 10
BITMAP
c0
c0
ENDCHAR
ENDFONT
