STARTFONT 2.1
FONT -Adobe-New Century Schoolbook-Medium-R-Normal--14-140-75-75-P-82-ISO8859-2
SIZE 14 75 75
FONTBOUNDINGBOX 20 17 -2 -3
COMMENT $XConsortium: ncenR14.bdf,v 1.14 95/01/26 18:04:50 gildea Exp $
COMMENT 
COMMENT +
COMMENT  Copyright 1984-1989, 1994 Adobe Systems Incorporated.
COMMENT  Copyright 1988, 1994 Digital Equipment Corporation.
COMMENT
COMMENT  Adobe is a trademark of Adobe Systems Incorporated which may be
COMMENT  registered in certain jurisdictions.
COMMENT  Permission to use these trademarks is hereby granted only in
COMMENT  association with the images described in this file.
COMMENT
COMMENT  Permission to use, copy, modify, distribute and sell this software
COMMENT  and its documentation for any purpose and without fee is hereby
COMMENT  granted, provided that the above copyright notices appear in all
COMMENT  copies and that both those copyright notices and this permission
COMMENT  notice appear in supporting documentation, and that the names of
COMMENT  Adobe Systems and Digital Equipment Corporation not be used in
COMMENT  advertising or publicity pertaining to distribution of the software
COMMENT  without specific, written prior permission.  Adobe Systems and
COMMENT  Digital Equipment Corporation make no representations about the
COMMENT  suitability of this software for any purpose.  It is provided "as
COMMENT  is" without express or implied warranty.
COMMENT -
COMMENT  
COMMENT  Translation to ISO8859-2 by Cub Soft;  Petr.Kolar@vslib.cz
COMMENT  
STARTPROPERTIES 23
COMMENT Begin LogicalFontDescription
FONTNAME_REGISTRY ""
FAMILY_NAME "New Century Schoolbook"
FOUNDRY "Adobe"
WEIGHT_NAME "Medium"
SLANT "R"
SETWIDTH_NAME "Normal"
ADD_STYLE_NAME ""
PIXEL_SIZE 14
POINT_SIZE 140
RESOLUTION_X 75
RESOLUTION_Y 75
SPACING "P"
AVERAGE_WIDTH 82
CHARSET_REGISTRY "ISO8859"
CHARSET_ENCODING "2"
COMMENT END LogicalFontDescription
CHARSET_COLLECTIONS "ASCII ISO8859-2 ADOBE-STANDARD"
FULL_NAME "New Century Schoolbook Roman"
COPYRIGHT "Copyright (c) 1984,1987 Adobe Systems, Inc., Portions Copyright 1988 Digital Equipment Corp., Copyright 1996 Cub Soft"
COMMENT ***** end of inserted font propeerties
FONT_ASCENT 13
FONT_DESCENT 3
CAP_HEIGHT 11
X_HEIGHT 7
_DEC_DEVICE_FONTNAMES "PS=NewCenturySchlbk-Roman"
ENDPROPERTIES
CHARS 191
STARTCHAR space
ENCODING 32
SWIDTH 278 0
DWIDTH 3 0
BBX 1 1 0 0
BITMAP
00
ENDCHAR
STARTCHAR exclam
ENCODING 33
SWIDTH 296 0
DWIDTH 3 0
BBX 1 11 1 0
BITMAP
80
80
80
80
80
80
80
80
00
80
80
ENDCHAR
STARTCHAR quotedbl
ENCODING 34
SWIDTH 389 0
DWIDTH 5 0
BBX 3 4 1 7
BITMAP
a0
a0
a0
a0
ENDCHAR
STARTCHAR numbersign
ENCODING 35
SWIDTH 556 0
DWIDTH 10 0
BBX 8 11 1 0
BITMAP
12
12
12
7f
24
24
24
fe
48
48
48
ENDCHAR
STARTCHAR dollar
ENCODING 36
SWIDTH 556 0
DWIDTH 8 0
BBX 6 14 1 -2
BITMAP
20
78
e4
ac
a0
e0
78
2c
24
e4
ac
78
20
20
ENDCHAR
STARTCHAR percent
ENCODING 37
SWIDTH 833 0
DWIDTH 13 0
BBX 11 11 1 0
BITMAP
3300
4d00
8a00
8a00
9400
64c0
0920
0a20
1220
1240
2180
ENDCHAR
STARTCHAR ampersand
ENCODING 38
SWIDTH 815 0
DWIDTH 13 0
BBX 11 11 1 0
BITMAP
1c00
3200
2200
3400
1800
39e0
4c80
8700
8320
c5c0
78c0
ENDCHAR
STARTCHAR apostrophe
ENCODING 39
SWIDTH 204 0
DWIDTH 4 0
BBX 2 4 0 7
BITMAP
c0
40
40
80
ENDCHAR
STARTCHAR parenleft
ENCODING 40
SWIDTH 333 0
DWIDTH 5 0
BBX 4 13 0 -2
BITMAP
10
20
40
40
80
80
80
80
80
40
40
20
10
ENDCHAR
STARTCHAR parenright
ENCODING 41
SWIDTH 333 0
DWIDTH 6 0
BBX 4 13 0 -2
BITMAP
80
40
20
20
10
10
10
10
10
20
20
40
80
ENDCHAR
STARTCHAR asterisk
ENCODING 42
SWIDTH 500 0
DWIDTH 7 0
BBX 5 5 1 6
BITMAP
20
a8
70
a8
20
ENDCHAR
STARTCHAR plus
ENCODING 43
SWIDTH 606 0
DWIDTH 9 0
BBX 7 7 1 0
BITMAP
10
10
10
fe
10
10
10
ENDCHAR
STARTCHAR comma
ENCODING 44
SWIDTH 278 0
DWIDTH 3 0
BBX 2 4 0 -2
BITMAP
c0
40
40
80
ENDCHAR
STARTCHAR minus
ENCODING 45
SWIDTH 606 0
DWIDTH 9 0
BBX 7 1 1 3
BITMAP
fe
ENDCHAR
STARTCHAR period
ENCODING 46
SWIDTH 278 0
DWIDTH 3 0
BBX 1 2 1 0
BITMAP
80
80
ENDCHAR
STARTCHAR slash
ENCODING 47
SWIDTH 278 0
DWIDTH 4 0
BBX 4 11 0 0
BITMAP
10
10
10
20
20
20
40
40
40
80
80
ENDCHAR
STARTCHAR zero
ENCODING 48
SWIDTH 556 0
DWIDTH 8 0
BBX 6 11 1 0
BITMAP
78
cc
84
84
84
84
84
84
84
cc
78
ENDCHAR
STARTCHAR one
ENCODING 49
SWIDTH 556 0
DWIDTH 8 0
BBX 5 11 1 0
BITMAP
20
e0
20
20
20
20
20
20
20
20
f8
ENDCHAR
STARTCHAR two
ENCODING 50
SWIDTH 556 0
DWIDTH 8 0
BBX 6 11 1 0
BITMAP
78
8c
c4
04
04
08
10
20
44
84
fc
ENDCHAR
STARTCHAR three
ENCODING 51
SWIDTH 556 0
DWIDTH 8 0
BBX 6 11 1 0
BITMAP
78
8c
c4
04
08
38
0c
04
c4
8c
78
ENDCHAR
STARTCHAR four
ENCODING 52
SWIDTH 556 0
DWIDTH 8 0
BBX 6 11 1 0
BITMAP
18
18
28
28
48
48
88
88
fc
08
1c
ENDCHAR
STARTCHAR five
ENCODING 53
SWIDTH 556 0
DWIDTH 8 0
BBX 6 11 1 0
BITMAP
fc
80
80
b8
cc
84
04
04
c4
8c
78
ENDCHAR
STARTCHAR six
ENCODING 54
SWIDTH 556 0
DWIDTH 8 0
BBX 6 11 1 0
BITMAP
38
44
8c
80
b8
cc
84
84
84
cc
78
ENDCHAR
STARTCHAR seven
ENCODING 55
SWIDTH 556 0
DWIDTH 8 0
BBX 6 11 1 0
BITMAP
fc
84
88
08
10
10
10
20
20
20
20
ENDCHAR
STARTCHAR eight
ENCODING 56
SWIDTH 556 0
DWIDTH 8 0
BBX 6 11 1 0
BITMAP
78
cc
84
c4
68
78
8c
84
84
cc
78
ENDCHAR
STARTCHAR nine
ENCODING 57
SWIDTH 556 0
DWIDTH 8 0
BBX 6 11 1 0
BITMAP
78
cc
84
84
84
cc
74
04
c4
88
70
ENDCHAR
STARTCHAR colon
ENCODING 58
SWIDTH 278 0
DWIDTH 3 0
BBX 1 7 1 0
BITMAP
80
80
00
00
00
80
80
ENDCHAR
STARTCHAR semicolon
ENCODING 59
SWIDTH 278 0
DWIDTH 3 0
BBX 2 9 0 -2
BITMAP
40
40
00
00
00
c0
40
40
80
ENDCHAR
STARTCHAR less
ENCODING 60
SWIDTH 606 0
DWIDTH 10 0
BBX 8 7 1 0
BITMAP
03
0c
30
c0
30
0c
03
ENDCHAR
STARTCHAR equal
ENCODING 61
SWIDTH 606 0
DWIDTH 9 0
BBX 7 4 1 2
BITMAP
fe
00
00
fe
ENDCHAR
STARTCHAR greater
ENCODING 62
SWIDTH 606 0
DWIDTH 10 0
BBX 8 7 1 0
BITMAP
c0
30
0c
03
0c
30
c0
ENDCHAR
STARTCHAR question
ENCODING 63
SWIDTH 444 0
DWIDTH 6 0
BBX 5 11 0 0
BITMAP
70
98
88
08
10
20
20
20
00
20
20
ENDCHAR
STARTCHAR at
ENCODING 64
SWIDTH 737 0
DWIDTH 13 0
BBX 11 11 1 0
BITMAP
1f80
2040
4d20
9320
a120
a220
a640
9b80
8000
4040
3f80
ENDCHAR
STARTCHAR A
ENCODING 65
SWIDTH 722 0
DWIDTH 10 0
BBX 11 11 -1 0
BITMAP
0400
0400
0e00
0a00
0a00
1300
1100
3f80
2080
2080
fbe0
ENDCHAR
STARTCHAR B
ENCODING 66
SWIDTH 722 0
DWIDTH 10 0
BBX 9 11 0 0
BITMAP
fe00
2300
2100
2100
2200
3f00
2180
2080
2080
2180
ff00
ENDCHAR
STARTCHAR C
ENCODING 67
SWIDTH 722 0
DWIDTH 11 0
BBX 9 11 0 0
BITMAP
1e80
6180
4080
c080
8000
8000
8000
c080
4080
6100
1e00
ENDCHAR
STARTCHAR D
ENCODING 68
SWIDTH 778 0
DWIDTH 11 0
BBX 10 11 0 0
BITMAP
ff00
2080
20c0
2040
2040
2040
2040
2040
20c0
2080
ff00
ENDCHAR
STARTCHAR E
ENCODING 69
SWIDTH 722 0
DWIDTH 10 0
BBX 9 11 0 0
BITMAP
ff80
2080
2080
2400
2400
3c00
2400
2400
2080
2080
ff80
ENDCHAR
STARTCHAR F
ENCODING 70
SWIDTH 667 0
DWIDTH 10 0
BBX 9 11 0 0
BITMAP
ff80
2080
2080
2400
2400
3c00
2400
2400
2000
2000
f800
ENDCHAR
STARTCHAR G
ENCODING 71
SWIDTH 778 0
DWIDTH 11 0
BBX 10 11 0 0
BITMAP
1e80
6180
4080
c080
8000
8000
87c0
c080
4080
6180
1e80
ENDCHAR
STARTCHAR H
ENCODING 72
SWIDTH 833 0
DWIDTH 12 0
BBX 11 11 0 0
BITMAP
fbe0
2080
2080
2080
2080
3f80
2080
2080
2080
2080
fbe0
ENDCHAR
STARTCHAR I
ENCODING 73
SWIDTH 407 0
DWIDTH 6 0
BBX 5 11 0 0
BITMAP
f8
20
20
20
20
20
20
20
20
20
f8
ENDCHAR
STARTCHAR J
ENCODING 74
SWIDTH 556 0
DWIDTH 7 0
BBX 7 11 0 0
BITMAP
3e
08
08
08
08
08
08
c8
88
88
70
ENDCHAR
STARTCHAR K
ENCODING 75
SWIDTH 778 0
DWIDTH 11 0
BBX 11 11 0 0
BITMAP
fbc0
2100
2200
2400
2800
3800
2c00
2600
2300
2180
fbe0
ENDCHAR
STARTCHAR L
ENCODING 76
SWIDTH 667 0
DWIDTH 10 0
BBX 9 11 0 0
BITMAP
f800
2000
2000
2000
2000
2000
2000
2000
2080
2080
ff80
ENDCHAR
STARTCHAR M
ENCODING 77
SWIDTH 944 0
DWIDTH 16 0
BBX 15 11 0 0
BITMAP
f01e
3018
2828
2828
2c48
2448
2688
2288
2388
2108
f93e
ENDCHAR
STARTCHAR N
ENCODING 78
SWIDTH 815 0
DWIDTH 13 0
BBX 12 11 0 0
BITMAP
e1f0
3040
3840
2840
2c40
2640
2340
2140
21c0
20c0
f840
ENDCHAR
STARTCHAR O
ENCODING 79
SWIDTH 778 0
DWIDTH 11 0
BBX 10 11 0 0
BITMAP
1e00
6180
4080
c0c0
8040
8040
8040
c0c0
4080
6180
1e00
ENDCHAR
STARTCHAR P
ENCODING 80
SWIDTH 667 0
DWIDTH 10 0
BBX 9 11 0 0
BITMAP
ff00
2180
2080
2080
2100
3e00
2000
2000
2000
2000
f800
ENDCHAR
STARTCHAR Q
ENCODING 81
SWIDTH 778 0
DWIDTH 11 0
BBX 11 13 0 -2
BITMAP
1e00
6180
4080
c0c0
8040
8040
8040
dcc0
6280
6380
1f00
0120
00c0
ENDCHAR
STARTCHAR R
ENCODING 82
SWIDTH 722 0
DWIDTH 11 0
BBX 11 11 0 0
BITMAP
ff00
2180
2080
2080
2100
3e00
2300
2100
2120
21a0
f8c0
ENDCHAR
STARTCHAR S
ENCODING 83
SWIDTH 630 0
DWIDTH 8 0
BBX 7 11 0 0
BITMAP
7a
c6
82
82
e0
38
0e
82
82
c6
bc
ENDCHAR
STARTCHAR T
ENCODING 84
SWIDTH 667 0
DWIDTH 10 0
BBX 9 11 0 0
BITMAP
ff80
8880
8880
0800
0800
0800
0800
0800
0800
0800
3e00
ENDCHAR
STARTCHAR U
ENCODING 85
SWIDTH 815 0
DWIDTH 13 0
BBX 12 11 0 0
BITMAP
f9f0
2040
2040
2040
2040
2040
2040
2040
2040
3080
1f00
ENDCHAR
STARTCHAR V
ENCODING 86
SWIDTH 722 0
DWIDTH 10 0
BBX 11 11 -1 0
BITMAP
fbe0
2080
3080
1100
1100
1900
0a00
0a00
0e00
0400
0400
ENDCHAR
STARTCHAR W
ENCODING 87
SWIDTH 981 0
DWIDTH 16 0
BBX 17 11 -1 0
BITMAP
fbef80
208200
30c200
114400
114400
196400
0a2800
0a2800
0e3800
041000
041000
ENDCHAR
STARTCHAR X
ENCODING 88
SWIDTH 704 0
DWIDTH 13 0
BBX 12 11 0 0
BITMAP
fdf0
3040
1880
0d00
0500
0600
0b00
0900
1180
20c0
fbf0
ENDCHAR
STARTCHAR Y
ENCODING 89
SWIDTH 704 0
DWIDTH 10 0
BBX 11 11 -1 0
BITMAP
fbe0
3080
1100
1900
0a00
0e00
0400
0400
0400
0400
1f00
ENDCHAR
STARTCHAR Z
ENCODING 90
SWIDTH 611 0
DWIDTH 9 0
BBX 8 11 0 0
BITMAP
ff
83
86
0c
08
18
30
20
61
c1
ff
ENDCHAR
STARTCHAR bracketleft
ENCODING 91
SWIDTH 333 0
DWIDTH 4 0
BBX 3 13 0 -2
BITMAP
e0
80
80
80
80
80
80
80
80
80
80
80
e0
ENDCHAR
STARTCHAR backslash
ENCODING 92
SWIDTH 606 0
DWIDTH 8 0
BBX 6 11 1 0
BITMAP
80
80
40
40
20
20
10
10
08
08
04
ENDCHAR
STARTCHAR bracketright
ENCODING 93
SWIDTH 333 0
DWIDTH 4 0
BBX 3 13 0 -2
BITMAP
e0
20
20
20
20
20
20
20
20
20
20
20
e0
ENDCHAR
STARTCHAR asciicircum
ENCODING 94
SWIDTH 606 0
DWIDTH 7 0
BBX 5 6 1 5
BITMAP
20
20
50
50
88
88
ENDCHAR
STARTCHAR underscore
ENCODING 95
SWIDTH 500 0
DWIDTH 9 0
BBX 9 1 0 -2
BITMAP
ff80
ENDCHAR
STARTCHAR grave
ENCODING 96
SWIDTH 333 0
DWIDTH 5 0
BBX 3 3 1 8
BITMAP
80
40
20
ENDCHAR
STARTCHAR a
ENCODING 97
SWIDTH 556 0
DWIDTH 8 0
BBX 7 7 0 0
BITMAP
38
4c
04
3c
c4
8c
76
ENDCHAR
STARTCHAR b
ENCODING 98
SWIDTH 556 0
DWIDTH 7 0
BBX 7 11 -1 0
BITMAP
c0
40
40
40
5c
66
42
42
42
66
5c
ENDCHAR
STARTCHAR c
ENCODING 99
SWIDTH 444 0
DWIDTH 7 0
BBX 6 7 0 0
BITMAP
78
cc
80
80
80
c4
78
ENDCHAR
STARTCHAR d
ENCODING 100
SWIDTH 574 0
DWIDTH 8 0
BBX 7 11 0 0
BITMAP
0c
04
04
04
74
cc
84
84
84
cc
76
ENDCHAR
STARTCHAR e
ENCODING 101
SWIDTH 500 0
DWIDTH 7 0
BBX 6 7 0 0
BITMAP
78
cc
84
fc
80
c4
78
ENDCHAR
STARTCHAR f
ENCODING 102
SWIDTH 333 0
DWIDTH 5 0
BBX 5 11 0 0
BITMAP
18
68
40
40
f0
40
40
40
40
40
e0
ENDCHAR
STARTCHAR g
ENCODING 103
SWIDTH 537 0
DWIDTH 8 0
BBX 7 10 0 -3
BITMAP
76
cc
84
cc
78
80
7c
c6
82
7c
ENDCHAR
STARTCHAR h
ENCODING 104
SWIDTH 611 0
DWIDTH 9 0
BBX 8 11 0 0
BITMAP
c0
40
40
40
5c
66
42
42
42
42
e7
ENDCHAR
STARTCHAR i
ENCODING 105
SWIDTH 315 0
DWIDTH 4 0
BBX 3 10 0 0
BITMAP
40
40
00
c0
40
40
40
40
40
e0
ENDCHAR
STARTCHAR j
ENCODING 106
SWIDTH 296 0
DWIDTH 4 0
BBX 3 13 -1 -3
BITMAP
20
20
00
60
20
20
20
20
20
20
20
a0
c0
ENDCHAR
STARTCHAR k
ENCODING 107
SWIDTH 593 0
DWIDTH 9 0
BBX 8 11 0 0
BITMAP
c0
40
40
40
5e
48
50
78
4c
46
ef
ENDCHAR
STARTCHAR l
ENCODING 108
SWIDTH 315 0
DWIDTH 4 0
BBX 3 11 0 0
BITMAP
c0
40
40
40
40
40
40
40
40
40
e0
ENDCHAR
STARTCHAR m
ENCODING 109
SWIDTH 889 0
DWIDTH 14 0
BBX 13 7 0 0
BITMAP
dce0
6730
4210
4210
4210
4210
e738
ENDCHAR
STARTCHAR n
ENCODING 110
SWIDTH 611 0
DWIDTH 9 0
BBX 8 7 0 0
BITMAP
dc
66
42
42
42
42
e7
ENDCHAR
STARTCHAR o
ENCODING 111
SWIDTH 500 0
DWIDTH 7 0
BBX 6 7 0 0
BITMAP
78
cc
84
84
84
cc
78
ENDCHAR
STARTCHAR p
ENCODING 112
SWIDTH 574 0
DWIDTH 8 0
BBX 7 10 0 -3
BITMAP
dc
66
42
42
42
66
5c
40
40
e0
ENDCHAR
STARTCHAR q
ENCODING 113
SWIDTH 556 0
DWIDTH 7 0
BBX 7 10 0 -3
BITMAP
74
cc
84
84
84
cc
74
04
04
0e
ENDCHAR
STARTCHAR r
ENCODING 114
SWIDTH 444 0
DWIDTH 7 0
BBX 6 7 0 0
BITMAP
dc
64
40
40
40
40
e0
ENDCHAR
STARTCHAR s
ENCODING 115
SWIDTH 463 0
DWIDTH 6 0
BBX 5 7 0 0
BITMAP
78
88
c0
70
18
88
f0
ENDCHAR
STARTCHAR t
ENCODING 116
SWIDTH 389 0
DWIDTH 5 0
BBX 5 9 0 0
BITMAP
40
40
f0
40
40
40
40
48
30
ENDCHAR
STARTCHAR u
ENCODING 117
SWIDTH 611 0
DWIDTH 9 0
BBX 8 7 0 0
BITMAP
c6
42
42
42
42
66
3b
ENDCHAR
STARTCHAR v
ENCODING 118
SWIDTH 537 0
DWIDTH 8 0
BBX 7 7 0 0
BITMAP
ee
44
64
28
38
10
10
ENDCHAR
STARTCHAR w
ENCODING 119
SWIDTH 778 0
DWIDTH 12 0
BBX 11 7 0 0
BITMAP
eee0
4440
6640
2a80
3b80
1100
1100
ENDCHAR
STARTCHAR x
ENCODING 120
SWIDTH 537 0
DWIDTH 8 0
BBX 7 7 0 0
BITMAP
ce
64
38
10
38
4c
e6
ENDCHAR
STARTCHAR y
ENCODING 121
SWIDTH 537 0
DWIDTH 8 0
BBX 7 10 0 -3
BITMAP
ee
44
64
28
38
10
10
20
a0
c0
ENDCHAR
STARTCHAR z
ENCODING 122
SWIDTH 481 0
DWIDTH 7 0
BBX 6 7 0 0
BITMAP
fc
8c
98
30
64
c4
fc
ENDCHAR
STARTCHAR braceleft
ENCODING 123
SWIDTH 333 0
DWIDTH 4 0
BBX 3 13 0 -2
BITMAP
20
40
40
40
40
40
80
40
40
40
40
40
20
ENDCHAR
STARTCHAR bar
ENCODING 124
SWIDTH 606 0
DWIDTH 9 0
BBX 1 11 4 0
BITMAP
80
80
80
80
80
80
80
80
80
80
80
ENDCHAR
STARTCHAR braceright
ENCODING 125
SWIDTH 333 0
DWIDTH 5 0
BBX 3 13 0 -2
BITMAP
80
40
40
40
40
40
20
40
40
40
40
40
80
ENDCHAR
STARTCHAR asciitilde
ENCODING 126
SWIDTH 606 0
DWIDTH 9 0
BBX 7 2 1 3
BITMAP
72
8c
ENDCHAR
STARTCHAR nobreakspace
ENCODING 160
SWIDTH 278 0
DWIDTH 3 0
BBX 1 1 0 0
BITMAP
00
ENDCHAR
STARTCHAR Aogonek
ENCODING 161
SWIDTH 722 0
DWIDTH 10 0
BBX 11 14 -1 -3
BITMAP
0400
0400
0e00
0a00
0a00
1300
1100
3f80
2080
2080
fbe0
0400
0800
0e00
ENDCHAR
STARTCHAR breve
ENCODING 162
SWIDTH 333 0
DWIDTH 6 0
BBX 4 3 1 8
BITMAP
90
90
60
ENDCHAR
STARTCHAR Lstroke
ENCODING 163
SWIDTH 667 0
DWIDTH 10 0
BBX 9 11 0 0
BITMAP
f800
2000
2000
2800
3000
2000
6000
a000
2080
2080
ff80
ENDCHAR
STARTCHAR currency
ENCODING 164
SWIDTH 606 0
DWIDTH 9 0
BBX 7 7 1 2
BITMAP
ba
44
82
82
82
44
ba
ENDCHAR
STARTCHAR Lcaron
ENCODING 165
SWIDTH 667 0
DWIDTH 10 0
BBX 9 12 0 0
BITMAP
0300
f900
2100
2200
2000
2000
2000
2000
2000
2080
2080
ff80
ENDCHAR
STARTCHAR Sacute
ENCODING 166
SWIDTH 630 0
DWIDTH 8 0
BBX 7 15 0 0
BITMAP
04
08
10
00
7a
c6
82
82
e0
38
0e
82
82
c6
bc
ENDCHAR
STARTCHAR section
ENCODING 167
SWIDTH 500 0
DWIDTH 7 0
BBX 5 13 1 -2
BITMAP
78
88
80
c0
70
98
88
c8
70
18
08
88
f0
ENDCHAR
STARTCHAR diaeresis
ENCODING 168
SWIDTH 333 0
DWIDTH 6 0
BBX 4 2 1 8
BITMAP
90
90
ENDCHAR
STARTCHAR Scaron
ENCODING 169
SWIDTH 630 0
DWIDTH 8 0
BBX 7 15 0 0
BITMAP
44
28
10
00
7a
c6
82
82
e0
38
0e
82
82
c6
bc
ENDCHAR
STARTCHAR Scedilla
ENCODING 170
SWIDTH 630 0
DWIDTH 8 0
BBX 7 15 0 -4
BITMAP
7a
c6
82
82
e0
38
0e
82
82
c6
bc
10
18
08
30
ENDCHAR
STARTCHAR Tcaron
ENCODING 171
SWIDTH 667 0
DWIDTH 10 0
BBX 9 15 0 0
BITMAP
2200
1400
0800
0000
ff80
8880
8880
0800
0800
0800
0800
0800
0800
0800
3e00
ENDCHAR
STARTCHAR Zacute
ENCODING 172
SWIDTH 611 0
DWIDTH 9 0
BBX 8 15 0 0
BITMAP
04
08
10
00
ff
83
86
0c
08
18
30
20
61
c1
ff
ENDCHAR
STARTCHAR hyphen
ENCODING 173
SWIDTH 333 0
DWIDTH 6 0
BBX 4 1 1 3
BITMAP
f0
ENDCHAR
STARTCHAR Zcaron
ENCODING 174
SWIDTH 611 0
DWIDTH 9 0
BBX 8 15 0 0
BITMAP
44
28
10
00
ff
83
86
0c
08
18
30
20
61
c1
ff
ENDCHAR
STARTCHAR Zabovedot
ENCODING 175
SWIDTH 611 0
DWIDTH 9 0
BBX 8 14 0 0
BITMAP
10
10
00
ff
83
86
0c
08
18
30
20
61
c1
ff
ENDCHAR
STARTCHAR degree
ENCODING 176
SWIDTH 400 0
DWIDTH 6 0
BBX 4 4 1 7
BITMAP
60
90
90
60
ENDCHAR
STARTCHAR aogonek
ENCODING 177
SWIDTH 556 0
DWIDTH 8 0
BBX 7 10 0 -3
BITMAP
38
4c
04
3c
c4
8c
76
10
20
38
ENDCHAR
STARTCHAR ogonek
ENCODING 178
SWIDTH 333 0
DWIDTH 5 0
BBX 3 3 1 -3
BITMAP
40
80
e0
ENDCHAR
STARTCHAR lstroke
ENCODING 179
SWIDTH 315 0
DWIDTH 4 0
BBX 3 11 0 0
BITMAP
c0
40
40
40
60
c0
40
40
40
40
e0
ENDCHAR
STARTCHAR acute
ENCODING 180
SWIDTH 333 0
DWIDTH 5 0
BBX 3 3 1 8
BITMAP
20
40
80
ENDCHAR
STARTCHAR lcaron
ENCODING 181
SWIDTH 411 0
DWIDTH 6 0
BBX 5 12 0 0
BITMAP
18
c8
48
50
40
40
40
40
40
40
40
e0
ENDCHAR
STARTCHAR sacute
ENCODING 182
SWIDTH 463 0
DWIDTH 6 0
BBX 5 11 0 0
BITMAP
08
10
20
00
78
88
c0
70
18
88
f0
ENDCHAR
STARTCHAR caron
ENCODING 183
SWIDTH 333 0
DWIDTH 7 0
BBX 5 3 1 8
BITMAP
88
50
20
ENDCHAR
STARTCHAR cedilla
ENCODING 184
SWIDTH 333 0
DWIDTH 5 0
BBX 3 4 0 -3
BITMAP
40
60
20
c0
ENDCHAR
STARTCHAR scaron
ENCODING 185
SWIDTH 463 0
DWIDTH 6 0
BBX 5 11 0 0
BITMAP
88
50
20
00
78
88
c0
70
18
88
f0
ENDCHAR
STARTCHAR scedilla
ENCODING 186
SWIDTH 463 0
DWIDTH 6 0
BBX 5 11 0 -4
BITMAP
78
88
c0
70
18
88
f0
20
30
10
60
ENDCHAR
STARTCHAR tcaron
ENCODING 187
SWIDTH 389 0
DWIDTH 5 0
BBX 5 12 0 0
BITMAP
18
08
08
50
40
f0
40
40
40
40
48
30
ENDCHAR
STARTCHAR zacute
ENCODING 188
SWIDTH 481 0
DWIDTH 7 0
BBX 6 11 0 0
BITMAP
08
10
20
00
fc
8c
98
30
64
c4
fc
ENDCHAR
STARTCHAR doubleacute
ENCODING 189
SWIDTH 333 0
DWIDTH 8 0
BBX 6 3 1 8
BITMAP
24
48
90
ENDCHAR
STARTCHAR zcaron
ENCODING 190
SWIDTH 481 0
DWIDTH 7 0
BBX 6 11 0 0
BITMAP
88
50
20
00
fc
8c
98
30
64
c4
fc
ENDCHAR
STARTCHAR zabovedot
ENCODING 191
SWIDTH 481 0
DWIDTH 7 0
BBX 6 10 0 0
BITMAP
20
20
00
fc
8c
98
30
64
c4
fc
ENDCHAR
STARTCHAR Racute
ENCODING 192
SWIDTH 722 0
DWIDTH 11 0
BBX 11 15 0 0
BITMAP
0200
0400
0800
0000
ff00
2180
2080
2080
2100
3e00
2300
2100
2120
21a0
f8c0
ENDCHAR
STARTCHAR Aacute
ENCODING 193
SWIDTH 722 0
DWIDTH 10 0
BBX 11 14 -1 0
BITMAP
0180
0600
0000
0400
0400
0e00
0a00
0a00
1300
1100
3f80
2080
2080
fbe0
ENDCHAR
STARTCHAR Acircumflex
ENCODING 194
SWIDTH 722 0
DWIDTH 10 0
BBX 11 14 -1 0
BITMAP
0e00
1100
0000
0400
0400
0e00
0a00
0a00
1300
1100
3f80
2080
2080
fbe0
ENDCHAR
STARTCHAR Abreve
ENCODING 195
SWIDTH 722 0
DWIDTH 10 0
BBX 11 15 -1 0
BITMAP
0900
0900
0600
0000
0400
0400
0e00
0a00
0a00
1300
1100
3f80
2080
2080
fbe0
ENDCHAR
STARTCHAR Adiaeresis
ENCODING 196
SWIDTH 722 0
DWIDTH 10 0
BBX 11 13 -1 0
BITMAP
3180
0000
0400
0400
0e00
0a00
0a00
1300
1100
3f80
2080
2080
fbe0
ENDCHAR
STARTCHAR Lacute
ENCODING 197
SWIDTH 667 0
DWIDTH 10 0
BBX 9 15 0 0
BITMAP
0800
1000
2000
0000
f800
2000
2000
2000
2000
2000
2000
2000
2080
2080
ff80
ENDCHAR
STARTCHAR Cacute
ENCODING 198
SWIDTH 722 0
DWIDTH 11 0
BBX 9 15 0 0
BITMAP
0200
0400
0800
0000
1e80
6180
4080
c080
8000
8000
8000
c080
4080
6100
1e00
ENDCHAR
STARTCHAR Ccedilla
ENCODING 199
SWIDTH 722 0
DWIDTH 11 0
BBX 9 14 1 -3
BITMAP
1e80
6180
4080
c080
8000
8000
8000
c080
4080
6100
1e00
0c00
0400
1800
ENDCHAR
STARTCHAR Ccaron
ENCODING 200
SWIDTH 722 0
DWIDTH 11 0
BBX 9 15 0 0
BITMAP
2200
1400
0800
0000
1e80
6180
4080
c080
8000
8000
8000
c080
4080
6100
1e00
ENDCHAR
STARTCHAR Eacute
ENCODING 201
SWIDTH 722 0
DWIDTH 10 0
BBX 9 14 0 0
BITMAP
0300
0c00
0000
ff80
2080
2080
2400
2400
3c00
2400
2400
2080
2080
ff80
ENDCHAR
STARTCHAR Eogonek
ENCODING 202
SWIDTH 722 0
DWIDTH 10 0
BBX 9 14 0 -3
BITMAP
ff80
2080
2080
2400
2400
3c00
2400
2400
2080
2080
ff80
0800
1000
1c00
ENDCHAR
STARTCHAR Ediaeresis
ENCODING 203
SWIDTH 722 0
DWIDTH 10 0
BBX 9 13 0 0
BITMAP
3300
0000
ff80
2080
2080
2400
2400
3c00
2400
2400
2080
2080
ff80
ENDCHAR
STARTCHAR Ecaron
ENCODING 204
SWIDTH 722 0
DWIDTH 10 0
BBX 9 15 0 0
BITMAP
2200
1400
0800
0000
ff80
2080
2080
2400
2400
3c00
2400
2400
2080
2080
ff80
ENDCHAR
STARTCHAR Iacute
ENCODING 205
SWIDTH 407 0
DWIDTH 6 0
BBX 5 14 0 0
BITMAP
18
60
00
f8
20
20
20
20
20
20
20
20
20
f8
ENDCHAR
STARTCHAR Icircumflex
ENCODING 206
SWIDTH 407 0
DWIDTH 6 0
BBX 5 14 0 0
BITMAP
70
88
00
f8
20
20
20
20
20
20
20
20
20
f8
ENDCHAR
STARTCHAR Dcaron
ENCODING 207
SWIDTH 778 0
DWIDTH 11 0
BBX 10 15 0 0
BITMAP
2200
1400
0800
0000
ff00
2080
20c0
2040
2040
2040
2040
2040
20c0
2080
ff00
ENDCHAR
STARTCHAR Dstroke
ENCODING 208
SWIDTH 778 0
DWIDTH 11 0
BBX 10 11 0 0
BITMAP
ff00
2080
20c0
2040
2040
f840
2040
2040
20c0
2080
ff00
ENDCHAR
STARTCHAR Nacute
ENCODING 209
SWIDTH 815 0
DWIDTH 13 0
BBX 12 15 0 0
BITMAP
0100
0200
0400
0000
e1f0
3040
3840
2840
2c40
2640
2340
2140
21c0
20c0
f840
ENDCHAR
STARTCHAR Ncaron
ENCODING 210
SWIDTH 815 0
DWIDTH 13 0
BBX 12 15 0 0
BITMAP
1100
0a00
0400
0000
e1f0
3040
3840
2840
2c40
2640
2340
2140
21c0
20c0
f840
ENDCHAR
STARTCHAR Oacute
ENCODING 211
SWIDTH 778 0
DWIDTH 11 0
BBX 10 14 0 0
BITMAP
0300
0c00
0000
1e00
6180
4080
c0c0
8040
8040
8040
c0c0
4080
6180
1e00
ENDCHAR
STARTCHAR Ocircumflex
ENCODING 212
SWIDTH 778 0
DWIDTH 11 0
BBX 10 14 0 0
BITMAP
0c00
1200
0000
1e00
6180
4080
c0c0
8040
8040
8040
c0c0
4080
6180
1e00
ENDCHAR
STARTCHAR Odoubleacute
ENCODING 213
SWIDTH 778 0
DWIDTH 11 0
BBX 10 15 0 0
BITMAP
0480
0900
1200
0000
1e00
6180
4080
c0c0
8040
8040
8040
c0c0
4080
6180
1e00
ENDCHAR
STARTCHAR Odiaeresis
ENCODING 214
SWIDTH 778 0
DWIDTH 11 0
BBX 10 13 0 0
BITMAP
3300
0000
1e00
6180
4080
c0c0
8040
8040
8040
c0c0
4080
6180
1e00
ENDCHAR
STARTCHAR multiply
ENCODING 215
SWIDTH 606 0
DWIDTH 9 0
BBX 7 7 1 0
BITMAP
82
44
28
10
28
44
82
ENDCHAR
STARTCHAR Rcaron
ENCODING 216
SWIDTH 722 0
DWIDTH 11 0
BBX 11 15 0 0
BITMAP
2200
1400
0800
0000
ff00
2180
2080
2080
2100
3e00
2300
2100
2120
21a0
f8c0
ENDCHAR
STARTCHAR Uring
ENCODING 217
SWIDTH 815 0
DWIDTH 13 0
BBX 12 15 0 0
BITMAP
0600
0900
0600
0000
f9f0
2040
2040
2040
2040
2040
2040
2040
2040
3080
1f00
ENDCHAR
STARTCHAR Uacute
ENCODING 218
SWIDTH 815 0
DWIDTH 13 0
BBX 12 14 0 0
BITMAP
0180
0600
0000
f9f0
2040
2040
2040
2040
2040
2040
2040
2040
3080
1f00
ENDCHAR
STARTCHAR Udoubleacute
ENCODING 219
SWIDTH 815 0
DWIDTH 13 0
BBX 12 15 0 0
BITMAP
0240
0480
0900
0000
f9f0
2040
2040
2040
2040
2040
2040
2040
2040
3080
1f00
ENDCHAR
STARTCHAR Udiaeresis
ENCODING 220
SWIDTH 815 0
DWIDTH 13 0
BBX 12 13 0 0
BITMAP
30c0
0000
f9f0
2040
2040
2040
2040
2040
2040
2040
2040
3080
1f00
ENDCHAR
STARTCHAR Yacute
ENCODING 221
SWIDTH 704 0
DWIDTH 10 0
BBX 11 14 -1 0
BITMAP
0300
0c00
0000
fbe0
3080
1100
1900
0a00
0e00
0400
0400
0400
0400
1f00
ENDCHAR
STARTCHAR Tcedilla
ENCODING 222
SWIDTH 667 0
DWIDTH 10 0
BBX 9 15 0 -4
BITMAP
ff80
8880
8880
0800
0800
0800
0800
0800
0800
0800
3e00
0800
0c00
0400
1800
ENDCHAR
STARTCHAR ssharp
ENCODING 223
SWIDTH 574 0
DWIDTH 8 0
BBX 7 11 0 0
BITMAP
38
64
44
4c
58
44
42
42
42
56
dc
ENDCHAR
STARTCHAR racute
ENCODING 224
SWIDTH 444 0
DWIDTH 7 0
BBX 6 11 0 0
BITMAP
08
10
20
00
dc
64
40
40
40
40
e0
ENDCHAR
STARTCHAR aacute
ENCODING 225
SWIDTH 556 0
DWIDTH 8 0
BBX 7 11 0 0
BITMAP
08
10
20
00
38
4c
04
3c
c4
8c
76
ENDCHAR
STARTCHAR acircumflex
ENCODING 226
SWIDTH 556 0
DWIDTH 8 0
BBX 7 11 0 0
BITMAP
10
28
44
00
38
4c
04
3c
c4
8c
76
ENDCHAR
STARTCHAR abreve
ENCODING 227
SWIDTH 556 0
DWIDTH 8 0
BBX 7 11 0 0
BITMAP
24
24
18
00
38
4c
04
3c
c4
8c
76
ENDCHAR
STARTCHAR adiaeresis
ENCODING 228
SWIDTH 556 0
DWIDTH 8 0
BBX 7 10 0 0
BITMAP
48
48
00
38
4c
04
3c
c4
8c
76
ENDCHAR
STARTCHAR lacute
ENCODING 229
SWIDTH 315 0
DWIDTH 4 0
BBX 3 15 0 0
BITMAP
20
40
80
00
c0
40
40
40
40
40
40
40
40
40
e0
ENDCHAR
STARTCHAR cacute
ENCODING 230
SWIDTH 444 0
DWIDTH 7 0
BBX 6 11 0 0
BITMAP
08
10
20
00
78
cc
80
80
80
c4
78
ENDCHAR
STARTCHAR ccedilla
ENCODING 231
SWIDTH 444 0
DWIDTH 7 0
BBX 6 10 0 -3
BITMAP
78
cc
80
80
80
c4
78
30
10
60
ENDCHAR
STARTCHAR ccaron
ENCODING 232
SWIDTH 444 0
DWIDTH 7 0
BBX 6 11 0 0
BITMAP
88
50
20
00
78
cc
80
80
80
c4
78
ENDCHAR
STARTCHAR eacute
ENCODING 233
SWIDTH 500 0
DWIDTH 7 0
BBX 6 11 0 0
BITMAP
08
10
20
00
78
cc
84
fc
80
c4
78
ENDCHAR
STARTCHAR eogonek
ENCODING 234
SWIDTH 500 0
DWIDTH 7 0
BBX 6 10 0 -3
BITMAP
78
cc
84
fc
80
c4
78
20
40
70
ENDCHAR
STARTCHAR ediaeresis
ENCODING 235
SWIDTH 500 0
DWIDTH 7 0
BBX 6 10 0 0
BITMAP
48
48
00
78
cc
84
fc
80
c4
78
ENDCHAR
STARTCHAR ecaron
ENCODING 236
SWIDTH 500 0
DWIDTH 7 0
BBX 6 11 0 0
BITMAP
88
50
20
00
78
cc
84
fc
80
c4
78
ENDCHAR
STARTCHAR iacute
ENCODING 237
SWIDTH 315 0
DWIDTH 4 0
BBX 3 11 0 0
BITMAP
20
40
80
00
c0
40
40
40
40
40
e0
ENDCHAR
STARTCHAR icircumflex
ENCODING 238
SWIDTH 315 0
DWIDTH 4 0
BBX 5 11 -1 0
BITMAP
20
50
88
00
60
20
20
20
20
20
70
ENDCHAR
STARTCHAR dcaron
ENCODING 239
SWIDTH 685 0
DWIDTH 10 0
BBX 9 12 0 0
BITMAP
0180
0c80
0480
0500
0400
7400
cc00
8400
8400
8400
cc00
7600
ENDCHAR
STARTCHAR dstroke
ENCODING 240
SWIDTH 617 0
DWIDTH 9 0
BBX 8 11 0 0
BITMAP
0c
04
1f
04
74
cc
84
84
84
cc
76
ENDCHAR
STARTCHAR nacute
ENCODING 241
SWIDTH 611 0
DWIDTH 9 0
BBX 8 11 0 0
BITMAP
04
08
10
00
dc
66
42
42
42
42
e7
ENDCHAR
STARTCHAR ncaron
ENCODING 242
SWIDTH 611 0
DWIDTH 9 0
BBX 8 11 0 0
BITMAP
44
28
10
00
dc
66
42
42
42
42
e7
ENDCHAR
STARTCHAR oacute
ENCODING 243
SWIDTH 500 0
DWIDTH 7 0
BBX 6 11 0 0
BITMAP
08
10
20
00
78
cc
84
84
84
cc
78
ENDCHAR
STARTCHAR ocircumflex
ENCODING 244
SWIDTH 500 0
DWIDTH 7 0
BBX 6 11 0 0
BITMAP
20
50
88
00
78
cc
84
84
84
cc
78
ENDCHAR
STARTCHAR odoubleacute
ENCODING 245
SWIDTH 500 0
DWIDTH 7 0
BBX 7 11 0 0
BITMAP
12
24
48
00
78
cc
84
84
84
cc
78
ENDCHAR
STARTCHAR odiaeresis
ENCODING 246
SWIDTH 500 0
DWIDTH 7 0
BBX 6 10 0 0
BITMAP
48
48
00
78
cc
84
84
84
cc
78
ENDCHAR
STARTCHAR division
ENCODING 247
SWIDTH 606 0
DWIDTH 9 0
BBX 7 7 1 0
BITMAP
10
10
00
fe
00
10
10
ENDCHAR
STARTCHAR rcaron
ENCODING 248
SWIDTH 444 0
DWIDTH 7 0
BBX 6 11 0 0
BITMAP
88
50
20
00
dc
64
40
40
40
40
e0
ENDCHAR
STARTCHAR uring
ENCODING 249
SWIDTH 611 0
DWIDTH 9 0
BBX 8 11 0 0
BITMAP
18
24
18
00
c6
42
42
42
42
66
3b
ENDCHAR
STARTCHAR uacute
ENCODING 250
SWIDTH 611 0
DWIDTH 9 0
BBX 8 11 0 0
BITMAP
04
08
10
00
c6
42
42
42
42
66
3b
ENDCHAR
STARTCHAR udoubleacute
ENCODING 251
SWIDTH 611 0
DWIDTH 9 0
BBX 8 11 0 0
BITMAP
09
12
24
00
c6
42
42
42
42
66
3b
ENDCHAR
STARTCHAR udiaeresis
ENCODING 252
SWIDTH 611 0
DWIDTH 9 0
BBX 8 10 0 0
BITMAP
24
24
00
c6
42
42
42
42
66
3b
ENDCHAR
STARTCHAR yacute
ENCODING 253
SWIDTH 537 0
DWIDTH 8 0
BBX 7 14 0 -3
BITMAP
04
08
10
00
ee
44
64
28
38
10
10
20
a0
c0
ENDCHAR
STARTCHAR tcedilla
ENCODING 254
SWIDTH 389 0
DWIDTH 5 0
BBX 5 13 0 -4
BITMAP
40
40
f0
40
40
40
40
48
30
20
30
10
60
ENDCHAR
STARTCHAR abovedot
ENCODING 255
SWIDTH 333 0
DWIDTH 3 0
BBX 1 2 1 8
BITMAP
80
80
ENDCHAR
ENDFONT
