STARTFONT 2.1
COMMENT Copyright (C) 1990-1991 EWT Consulting
COMMENT Portions Copyright (C) 1994-1995 Cronyx Ltd.
COMMENT Changes Copyright (C) 1996-1997 by Andrey A. Chernov, Moscow, Russia.
COMMENT Modified by Serge Vakulenko, <vak@cronyx.ru>
COMMENT This software may be used, modified, copied, distributed, and sold,
COMMENT in both source and binary form provided that the copyright
COMMENT and these terms are retained. Under no circumstances is the author
COMMENT responsible for the proper functioning of this software, nor does
COMMENT the author assume any responsibility for damages incurred with its use.
COMMENT $XFree86: xc/fonts/bdf/cyrillic/crox6tbo.bdf,v 3.2.4.1 1998/02/01 16:04:15 robin Exp $
FONT -Cronyx-Times-Bold-I-Normal--34-240-100-100-P-124-KOI8-R
SIZE 24 96 96
FONTBOUNDINGBOX 45 34 -1 -8
STARTPROPERTIES 20
DEFAULT_CHAR 32
FONT_ASCENT 27
FONT_DESCENT 8
SPACING "P"
FONTNAME_REGISTRY ""
FOUNDRY "Cronyx"
FAMILY_NAME "Times"
WEIGHT_NAME "Bold"
SLANT "I"
SETWIDTH_NAME "Normal"
ADD_STYLE_NAME ""
AVERAGE_WIDTH 124
CHARSET_REGISTRY "KOI8"
CHARSET_ENCODING "R"
PIXEL_SIZE 34
POINT_SIZE 240
RESOLUTION_X 100
RESOLUTION_Y 100
COPYRIGHT "Copyright (C) 1990, 1991 EWT Consulting, Portions Copyright (C) 1994 Cronyx Ltd., Portions Copyright (C) 1996-1997 by Andrey A. Chernov, Moscow, Russia."
_XMBDFED_INFO "Edited with xmbdfed 2.7."
ENDPROPERTIES
CHARS 165
STARTCHAR space
ENCODING 32
SWIDTH 281 0
DWIDTH 9 0
BBX 0 0 -1 0
BITMAP
ENDCHAR
STARTCHAR exclam
ENCODING 33
SWIDTH 435 0
DWIDTH 10 0
BBX 11 23 2 0
BITMAP
00C0
01E0
01E0
03C0
03C0
03C0
0780
0780
0780
0F00
0600
0600
0C00
0C00
0C00
0000
0000
0000
0000
3000
7800
F000
6000
ENDCHAR
STARTCHAR quotedbl
ENCODING 34
SWIDTH 1857 0
DWIDTH 13 0
BBX 11 7 1 16
BITMAP
18C0
3DE0
7BC0
7BC0
3180
6300
6300
ENDCHAR
STARTCHAR numbersign
ENCODING 35
SWIDTH 773 0
DWIDTH 17 0
BBX 24 22 -1 0
BITMAP
000E38
000E38
001C70
001C70
001C70
0038E0
03FFFC
03FFFC
00E380
00E380
00E380
01C700
01C700
01C700
3FFFC0
3FFFC0
071C00
0E3800
0E3800
0E3800
1C7000
1C7000
ENDCHAR
STARTCHAR dollar
ENCODING 36
SWIDTH 607 0
DWIDTH 17 0
BBX 24 28 0 -3
BITMAP
0001C0
0001C0
000380
000FEC
003FFC
00F738
00F718
01F718
03EE00
03EE00
01FE00
03FC00
01FE00
00FF00
007F80
003FC0
003FC0
007FC0
0077C0
1877C0
30EF80
38EF00
3CEF00
7DFC00
6FF000
01C000
038000
038000
ENDCHAR
STARTCHAR percent
ENCODING 37
SWIDTH 1261 0
DWIDTH 29 0
BBX 34 23 0 0
BITMAP
000FC07800
003DF1F000
00787FF000
01E0FFC000
01E0638000
03C0638000
0781CE0000
07819C0000
07839C0000
078E700000
07FCE00000
01F0E1F000
00038F7800
00071E1800
00073C1C00
001C781800
0038F01800
0038F03800
00E1E06000
01C1E0E000
01C0F1C000
0701FF0000
0E007C0000
ENDCHAR
STARTCHAR ampersand
ENCODING 38
SWIDTH 1130 0
DWIDTH 26 0
BBX 28 23 2 0
BITMAP
00078000
001FE000
001CE000
0070E000
0070E000
0070E000
00F38000
007F0000
007E0000
00FC0000
01FC7F80
03DE1E00
0F3C3800
0E1E3800
1E0F7000
3C1EE000
3C0FC000
3C0FC000
7C0F0000
3C0F8C00
3F1FDC00
3FF7F000
0FC3E000
ENDCHAR
STARTCHAR quoteright
ENCODING 39
SWIDTH 1429 0
DWIDTH 10 0
BBX 6 7 2 16
BITMAP
18
3C
78
78
30
60
60
ENDCHAR
STARTCHAR parenleft
ENCODING 40
SWIDTH 414 0
DWIDTH 12 0
BBX 18 29 1 -7
BITMAP
0001C0
000380
000700
000E00
001C00
001C00
007000
007000
00F000
01C000
01C000
03C000
078000
078000
078000
0F0000
0F0000
0F0000
0E0000
0E0000
0F0000
0E0000
0E0000
070000
0E0000
070000
070000
070000
038000
ENDCHAR
STARTCHAR parenright
ENCODING 41
SWIDTH 414 0
DWIDTH 12 0
BBX 18 29 0 -7
BITMAP
007000
003800
001C00
003800
001C00
001C00
001C00
001C00
001E00
001C00
001C00
001E00
003C00
003C00
003C00
007800
007800
007800
00E000
00E000
01E000
038000
038000
070000
0E0000
1C0000
1C0000
700000
E00000
ENDCHAR
STARTCHAR asterisk
ENCODING 42
SWIDTH 1214 0
DWIDTH 17 0
BBX 16 14 1 11
BITMAP
0060
00F0
00F0
1FFE
1EDE
1FFE
03C0
03C0
3FFC
7B78
7FF8
0780
0F00
0600
ENDCHAR
STARTCHAR plus
ENCODING 43
SWIDTH 1188 0
DWIDTH 19 0
BBX 22 16 0 1
BITMAP
000E00
000E00
001C00
001C00
001C00
003800
003800
1FFFF0
3FFFE0
007000
007000
00E000
00E000
00E000
01C000
01C000
ENDCHAR
STARTCHAR comma
ENCODING 44
SWIDTH 1286 0
DWIDTH 9 0
BBX 7 7 1 -3
BITMAP
1C
3E
7C
3C
1C
30
E0
ENDCHAR
STARTCHAR minus
ENCODING 45
SWIDTH 5500 0
DWIDTH 11 0
BBX 9 2 0 8
BITMAP
FF80
FF80
ENDCHAR
STARTCHAR period
ENCODING 46
SWIDTH 2250 0
DWIDTH 9 0
BBX 6 4 1 0
BITMAP
38
7C
F8
70
ENDCHAR
STARTCHAR slash
ENCODING 47
SWIDTH 375 0
DWIDTH 9 0
BBX 17 24 -1 -1
BITMAP
000380
000700
000700
000E00
001C00
001C00
003800
007000
007000
00E000
01C000
01C000
01C000
070000
070000
070000
1C0000
1C0000
1C0000
380000
700000
700000
E00000
E00000
ENDCHAR
STARTCHAR zero
ENCODING 48
SWIDTH 773 0
DWIDTH 17 0
BBX 22 22 0 0
BITMAP
000F80
003DE0
00E0E0
01E0F0
01C070
0780F0
0780F0
0780F0
0F01E0
0F01E0
0F01E0
1E03C0
1E03C0
1E03C0
3C0780
3C0780
3C0780
380E00
3C1E00
1C1C00
1EF000
07C000
ENDCHAR
STARTCHAR one
ENCODING 49
SWIDTH 773 0
DWIDTH 17 0
BBX 16 22 3 0
BITMAP
0018
0038
00F0
01F0
03F0
00E0
00E0
00E0
01C0
01C0
01C0
0380
0380
0380
0700
0700
0700
0E00
0E00
0E00
3E00
FF80
ENDCHAR
STARTCHAR two
ENCODING 50
SWIDTH 773 0
DWIDTH 17 0
BBX 22 22 0 0
BITMAP
001F80
007FE0
01C7E0
0383E0
0301F0
0003E0
0003E0
0003E0
0007C0
000780
000780
001E00
001C00
003800
00E000
01C000
038000
0E0000
1C0300
3FFF00
FFFC00
FFFC00
ENDCHAR
STARTCHAR three
ENCODING 51
SWIDTH 773 0
DWIDTH 17 0
BBX 21 22 1 0
BITMAP
001F80
007FE0
01C7C0
0183E0
0001E0
0003C0
000380
000780
000E00
003C00
01FF00
007F00
001F00
000F80
000F00
000F00
000F00
001E00
001C00
783C00
F8F000
3FC000
ENDCHAR
STARTCHAR four
ENCODING 52
SWIDTH 773 0
DWIDTH 17 0
BBX 22 22 0 0
BITMAP
0000F0
0000F0
0003E0
0007E0
000FE0
001FC0
003BC0
0073C0
01C780
01C780
038780
0E0F00
1C0F00
1FFFC0
3FFF80
3FFF80
001E00
003C00
003C00
003C00
007800
007800
ENDCHAR
STARTCHAR five
ENCODING 53
SWIDTH 773 0
DWIDTH 17 0
BBX 21 22 0 0
BITMAP
001FF0
001FF0
003FC0
006000
006000
018000
01E000
03FC00
07FE00
003F00
000F80
000F00
000780
000780
000700
000700
000700
381C00
7C1C00
3E7800
3FE000
0F8000
ENDCHAR
STARTCHAR six
ENCODING 54
SWIDTH 773 0
DWIDTH 17 0
BBX 22 22 0 0
BITMAP
0003E0
000F00
003800
007000
00F000
01C000
03C000
038000
0F3E00
0FFF80
0FC7C0
1F07C0
1E03C0
1E03C0
3C0780
3C0780
3C0780
3C1E00
3C1E00
1E3C00
1FF000
07C000
ENDCHAR
STARTCHAR seven
ENCODING 55
SWIDTH 773 0
DWIDTH 17 0
BBX 22 22 0 0
BITMAP
00FFFC
00FFF8
03FFF0
030070
0000E0
0001C0
0001C0
000380
000700
000700
000E00
001C00
001C00
003800
007000
007000
00E000
01C000
01C000
038000
070000
070000
ENDCHAR
STARTCHAR eight
ENCODING 56
SWIDTH 773 0
DWIDTH 17 0
BBX 22 22 0 0
BITMAP
001FC0
0078F0
00E0E0
01E070
01E070
03C0E0
01E0E0
01F1C0
01FF00
00FF00
01FF80
073F80
0E0F80
0E07C0
380780
380780
380380
700700
300600
380E00
383800
0FE000
ENDCHAR
STARTCHAR nine
ENCODING 57
SWIDTH 773 0
DWIDTH 17 0
BBX 22 22 0 0
BITMAP
000F80
003FE0
00F1E0
01E0F0
01C070
0780F0
0780F0
0780F0
0F01E0
0F01E0
0F81E0
0F87C0
07FFC0
01F3C0
000700
000F00
000E00
003C00
003800
007000
03C000
1F0000
ENDCHAR
STARTCHAR colon
ENCODING 58
SWIDTH 600 0
DWIDTH 9 0
BBX 10 15 1 0
BITMAP
0380
0F80
0F80
0700
0000
0000
0000
0000
0000
0000
0000
3800
7C00
F800
7000
ENDCHAR
STARTCHAR semicolon
ENCODING 59
SWIDTH 500 0
DWIDTH 9 0
BBX 11 18 1 -3
BITMAP
01C0
07C0
07C0
0380
0000
0000
0000
0000
0000
0000
0000
0000
1C00
7C00
3C00
1C00
3000
E000
ENDCHAR
STARTCHAR less
ENCODING 60
SWIDTH 1188 0
DWIDTH 19 0
BBX 22 16 0 2
BITMAP
00001C
00007C
0003E0
000FC0
003E00
01F000
07C000
1F0000
3E0000
0F8000
03E000
01F000
007C00
001F00
000F80
000380
ENDCHAR
STARTCHAR equal
ENCODING 61
SWIDTH 2375 0
DWIDTH 19 0
BBX 19 8 0 7
BITMAP
3FFFE0
3FFFE0
000000
000000
000000
000000
FFFF80
FFFF80
ENDCHAR
STARTCHAR greater
ENCODING 62
SWIDTH 1188 0
DWIDTH 19 0
BBX 22 16 0 2
BITMAP
070000
07C000
03E000
00F800
003E00
001F00
0007C0
0001F0
0003E0
000F80
003E00
01F000
07C000
1F0000
F80000
E00000
ENDCHAR
STARTCHAR question
ENCODING 63
SWIDTH 652 0
DWIDTH 15 0
BBX 19 23 0 0
BITMAP
007F00
00E3C0
01C3C0
0383C0
03C3C0
03C3C0
030700
000F00
000E00
003800
003800
003000
00E000
00C000
00C000
018000
000000
000000
000000
070000
0F8000
1F0000
0E0000
ENDCHAR
STARTCHAR at
ENCODING 64
SWIDTH 1154 0
DWIDTH 30 0
BBX 36 26 0 -4
BITMAP
00007FE000
0001E07800
0007801E00
001E000E00
003C000700
0078000380
00F0000700
01E01EE380
01E07BE380
03C1C3C700
0783838380
0783838380
0F0E070700
0F0E0E0700
0F0E0E0700
1E1C1C1C00
0F0E3E1C00
0F0F7F7800
1E0787C000
0F00000000
0F00000000
0F00000000
0780000000
03C0070000
01E0380000
007FE00000
ENDCHAR
STARTCHAR A
ENCODING 65
SWIDTH 1045 0
DWIDTH 23 0
BBX 30 22 -1 0
BITMAP
00006000
00006000
0000E000
0001E000
0001F000
0007E000
0007E000
0007F000
001FE000
001DF000
0039F000
0071F000
0071F000
00E1F000
01C1F000
03FFF000
0380F800
0701F000
0E00F800
0E00F800
3C03F800
FF0FFE00
ENDCHAR
STARTCHAR B
ENCODING 66
SWIDTH 1000 0
DWIDTH 22 0
BBX 27 22 0 0
BITMAP
01FFFC00
007E1F00
00781F00
00780F00
00780F80
00F01F00
00F01F00
00F01E00
01E07C00
01E0F800
01FFF000
03C1F000
03C07800
03C07C00
07807800
07807C00
07807C00
0F00F800
0F01F000
0F01F000
3F0FC000
FFFF0000
ENDCHAR
STARTCHAR C
ENCODING 67
SWIDTH 1000 0
DWIDTH 22 0
BBX 27 22 0 0
BITMAP
0003F980
000F8F80
007C0700
00F80300
00F00000
03E00000
03C00000
07C00000
0F800000
0F800000
0F800000
1F000000
1F000000
1F000000
3E000000
1F000000
1F000000
1F001800
1F803000
0FE06000
07FF8000
01FE0000
ENDCHAR
STARTCHAR D
ENCODING 68
SWIDTH 1045 0
DWIDTH 23 0
BBX 28 22 0 0
BITMAP
01FFFC00
007E3F00
00781F00
00780F80
00780780
00F00F80
00F00780
00F007C0
01E00F80
01E00F80
01E00F80
03C01F00
03C01F00
03C01F00
07803E00
07803C00
07807C00
0F00F000
0F01F000
0F03E000
3F1F8000
FFFE0000
ENDCHAR
STARTCHAR E
ENCODING 69
SWIDTH 955 0
DWIDTH 21 0
BBX 26 22 0 0
BITMAP
01FFFF00
007E0700
00780600
00780600
00780000
00F00000
00F00000
00F03000
01E06000
01E0E000
01FFE000
03C1C000
03C0C000
03C0C000
07800000
07800000
07800000
0F000000
0F003000
0F007000
3F03C000
FFFFC000
ENDCHAR
STARTCHAR F
ENCODING 70
SWIDTH 864 0
DWIDTH 19 0
BBX 24 22 0 0
BITMAP
01FFFF
007E07
007806
007806
007800
00F000
00F000
00F030
01E060
01E0E0
01FFE0
03C1C0
03C0C0
03C0C0
078000
078000
078000
0F0000
0F0000
0F0000
3F0000
FFC000
ENDCHAR
STARTCHAR G
ENCODING 71
SWIDTH 1091 0
DWIDTH 24 0
BBX 29 22 1 0
BITMAP
0003F980
000F8F80
007C0700
00F80300
00F00000
03E00000
03C00000
07C00000
0F800000
0F800000
0F800000
1F01FF80
1F007E00
1F003C00
3E007800
1F007800
1F007800
1F00F000
1F80F000
0FE0E000
07FF8000
01FE0000
ENDCHAR
STARTCHAR H
ENCODING 72
SWIDTH 1091 0
DWIDTH 24 0
BBX 29 22 0 0
BITMAP
01FF9FF8
007E07E0
00780780
00780780
00780780
00F00F00
00F00F00
00F00F00
01E01E00
01E01E00
01FFFE00
03C03C00
03C03C00
03C03C00
07807800
07807800
07807800
0F00F000
0F00F000
0F00F000
3F03F000
FFCFFC00
ENDCHAR
STARTCHAR I
ENCODING 73
SWIDTH 545 0
DWIDTH 12 0
BBX 17 22 0 0
BITMAP
01FF80
007E00
007800
007800
007800
00F000
00F000
00F000
01E000
01E000
01E000
03C000
03C000
03C000
078000
078000
078000
0F0000
0F0000
0F0000
3F0000
FFC000
ENDCHAR
STARTCHAR J
ENCODING 74
SWIDTH 636 0
DWIDTH 14 0
BBX 20 22 -1 0
BITMAP
003FF0
000FC0
000F00
000F00
000F00
001E00
001E00
001E00
003C00
003C00
003C00
007800
007800
007800
00F000
00F000
00F000
31E000
79E000
79E000
7B8000
1F0000
ENDCHAR
STARTCHAR K
ENCODING 75
SWIDTH 1045 0
DWIDTH 23 0
BBX 29 22 0 0
BITMAP
01FF9FE0
007E0780
00780E00
00781C00
00783800
00F0E000
00F1C000
00F38000
01EE0000
01FF0000
01FF8000
03EF0000
03C78000
03C3C000
07878000
0783C000
0781E000
0F03C000
0F01E000
0F00F000
3F03F000
FFCFFC00
ENDCHAR
STARTCHAR L
ENCODING 76
SWIDTH 955 0
DWIDTH 21 0
BBX 26 22 0 0
BITMAP
01FF8000
007E0000
00780000
00780000
00780000
00F00000
00F00000
00F00000
01E00000
01E00000
01E00000
03C00000
03C00000
03C00000
07800000
07800000
07800000
0F000000
0F003000
0F007000
3F03C000
FFFFC000
ENDCHAR
STARTCHAR M
ENCODING 77
SWIDTH 1318 0
DWIDTH 29 0
BBX 34 22 0 0
BITMAP
01FE001FC0
007E001F00
007C007C00
007E007C00
007E007C00
00FE01F800
00DE01F800
00DE037800
01BE06F000
019E06F000
019F0CF000
031E19E000
031E31E000
031F31E000
061E63C000
061FC3C000
060FC3C000
0C1F078000
0C0F078000
0C0F078000
3C0C1F8000
FF0C7FE000
ENDCHAR
STARTCHAR N
ENCODING 78
SWIDTH 1091 0
DWIDTH 24 0
BBX 29 22 0 0
BITMAP
01F807F8
007C01E0
007C0180
007C0180
007E0180
00FE0300
00DF0300
00DF0300
019F0600
018F8600
0187C600
030F8C00
0307CC00
0303EC00
0603F800
0603F800
0601F800
0C01F000
0C00F000
0C00F000
3C00E000
FF006000
ENDCHAR
STARTCHAR O
ENCODING 79
SWIDTH 1000 0
DWIDTH 22 0
BBX 27 22 0 0
BITMAP
0007F800
001F3E00
00781E00
00F00F00
00F00F00
03C00F00
03C00F00
07C00F80
0F801F00
0F801F00
0F801F00
1F003E00
1F003E00
1F003E00
3E007C00
1E007800
1E007800
1E01E000
1E01E000
0F03C000
0F9F0000
03FC0000
ENDCHAR
STARTCHAR P
ENCODING 80
SWIDTH 909 0
DWIDTH 20 0
BBX 25 22 0 0
BITMAP
01FFFC00
007E3F00
00783E00
00781F00
00781F00
00F03E00
00F03E00
00F03E00
01E0F800
01E1F800
01FFE000
03C00000
03C00000
03C00000
07800000
07800000
07800000
0F000000
0F000000
0F000000
3F000000
FFC00000
ENDCHAR
STARTCHAR Q
ENCODING 81
SWIDTH 815 0
DWIDTH 22 0
BBX 29 27 0 -5
BITMAP
0001FE00
000F9F00
001E0780
003C03C0
00780780
00F003C0
00F003C0
03E007C0
03E007C0
03E007C0
07C00F80
07C00F80
07C00F80
0F801F00
0F801F00
07801E00
0F003C00
07807800
07807800
0781E000
03E7C000
00FF0000
007C0000
003C0000
003E0000
003E0000
000FC000
ENDCHAR
STARTCHAR R
ENCODING 82
SWIDTH 1000 0
DWIDTH 22 0
BBX 28 22 0 0
BITMAP
01FFFC00
007E3F00
00783E00
00781F00
00781F00
00F03E00
00F03E00
00F03E00
01E0F800
01E1F800
01FFE000
03DF0000
03CF0000
03C78000
078F8000
07878000
0783C000
0F07C000
0F03C000
0F01E000
3F03E000
FFC1F800
ENDCHAR
STARTCHAR S
ENCODING 83
SWIDTH 773 0
DWIDTH 17 0
BBX 22 22 0 0
BITMAP
001FD8
0078F8
01E070
01E030
03E030
07C000
07C000
03E000
07F000
03FC00
01FE00
00FF00
007F80
001F80
001F80
000F80
300F80
601F00
701E00
781E00
F87800
DFE000
ENDCHAR
STARTCHAR T
ENCODING 84
SWIDTH 1000 0
DWIDTH 22 0
BBX 27 22 0 0
BITMAP
01FFFFE0
01C1E0E0
0303C0C0
0303C0C0
0003C000
00078000
00078000
00078000
000F0000
000F0000
000F0000
001E0000
001E0000
001E0000
003C0000
003C0000
003C0000
00780000
00780000
00780000
01F80000
07FE0000
ENDCHAR
STARTCHAR U
ENCODING 85
SWIDTH 1091 0
DWIDTH 24 0
BBX 29 22 0 0
BITMAP
01FF87F8
007E01E0
00780180
00780180
00780180
00F00300
00F00300
00F00300
01E00600
01E00600
01E00600
03C00C00
03C00C00
03C00C00
07801800
07801800
07801800
0F803000
07806000
07C06000
07E38000
01FE0000
ENDCHAR
STARTCHAR V
ENCODING 86
SWIDTH 1045 0
DWIDTH 23 0
BBX 30 22 -1 0
BITMAP
01FF81FC
007E0070
007800E0
007C00C0
003C01C0
007C0300
003C0300
003C0700
007C0C00
003C1C00
003E1800
003C7000
003E6000
001E6000
003FC000
003F8000
001F8000
003E0000
001E0000
001C0000
00180000
00180000
ENDCHAR
STARTCHAR W
ENCODING 87
SWIDTH 1545 0
DWIDTH 34 0
BBX 41 22 -1 0
BITMAP
01FF9FF8FF80
007F0FE03E00
007C0F803800
003C07803000
003E07C07000
003C0780C000
003E0FC0C000
003E0FC1C000
003C1F830000
003E1FC30000
001E3BC70000
003E67CC0000
001E63CC0000
001EE3DC0000
003F87F00000
001F83F00000
001F83F00000
001E03C00000
001E03C00000
000C01800000
001803000000
001803000000
ENDCHAR
STARTCHAR X
ENCODING 88
SWIDTH 1091 0
DWIDTH 24 0
BBX 31 22 -1 0
BITMAP
00FF83F8
003E00E0
003E0180
001F0300
001F0600
001F0C00
000F9800
000FB000
000FC000
0007C000
0007E000
0007C000
000FE000
001DF000
0033E000
0061F000
00E0F800
0181F000
0300F800
07007C00
3C00FC00
FF83FF00
ENDCHAR
STARTCHAR Y
ENCODING 89
SWIDTH 1045 0
DWIDTH 23 0
BBX 30 22 -1 0
BITMAP
01FF83FC
007E00F0
003E00C0
001E0180
001F0180
001F0600
000F0C00
000F8C00
000FB000
0007E000
0007E000
00078000
00078000
00078000
000F0000
000F0000
000F0000
001E0000
001E0000
001E0000
007E0000
01FF8000
ENDCHAR
STARTCHAR Z
ENCODING 90
SWIDTH 1000 0
DWIDTH 22 0
BBX 28 22 -1 0
BITMAP
007FFFF0
007003E0
00C007C0
00C00F80
00001F00
00007C00
00007C00
0000F800
0003E000
0007C000
0007C000
001F0000
003E0000
007C0000
00F80000
01F00000
03E00000
0F800000
0F800C00
1F001C00
7C00F000
FFFFF000
ENDCHAR
STARTCHAR bracketleft
ENCODING 91
SWIDTH 414 0
DWIDTH 12 0
BBX 17 29 1 -6
BITMAP
007F80
007C00
007800
00F000
00F000
00F000
01E000
01E000
01E000
03C000
03C000
03C000
078000
078000
078000
0F0000
0F0000
0F0000
1E0000
1E0000
1E0000
3C0000
3C0000
3C0000
780000
780000
780000
F80000
FF0000
ENDCHAR
STARTCHAR backslash
ENCODING 92
SWIDTH 391 0
DWIDTH 9 0
BBX 16 23 -1 0
BITMAP
01C0
01C0
01C0
01C0
01C0
01C0
01C0
01C0
01C0
01C0
01C0
01C0
0380
01C0
01C0
0380
01C0
01C0
0380
0380
01C0
0380
0380
ENDCHAR
STARTCHAR bracketright
ENCODING 93
SWIDTH 414 0
DWIDTH 12 0
BBX 17 29 1 -6
BITMAP
007F80
000F80
000780
000F00
000F00
000F00
001E00
001E00
001E00
003C00
003C00
003C00
007800
007800
007800
00F000
00F000
00F000
01E000
01E000
01E000
03C000
03C000
03C000
078000
078000
078000
1F0000
FF0000
ENDCHAR
STARTCHAR asciicircum
ENCODING 94
SWIDTH 2429 0
DWIDTH 17 0
BBX 17 7 0 16
BITMAP
00E000
01F000
07F000
0F7800
1E3C00
783C00
F01E00
ENDCHAR
STARTCHAR underscore
ENCODING 95
SWIDTH 8500 0
DWIDTH 17 0
BBX 17 2 -1 -3
BITMAP
FFFF80
FFFF80
ENDCHAR
STARTCHAR quoteleft
ENCODING 96
SWIDTH 3000 0
DWIDTH 12 0
BBX 7 4 3 19
BITMAP
70
78
38
0C
ENDCHAR
STARTCHAR a
ENCODING 97
SWIDTH 1000 0
DWIDTH 15 0
BBX 18 15 0 0
BITMAP
00FC00
079C00
0F1E00
0F1E00
0C3C00
007C00
01FC00
0F7800
1E7800
3C7800
78F000
78F000
7DF000
7FF800
3CF000
ENDCHAR
STARTCHAR b
ENCODING 98
SWIDTH 783 0
DWIDTH 18 0
BBX 23 23 0 0
BITMAP
003800
007800
01F800
00F000
00F000
00F000
01E000
01E000
01EF80
03FFC0
03C3E0
03C1E0
0783E0
0781E0
0781E0
0F03C0
0F03C0
0F03C0
1E0F00
1E0F00
1E1E00
1EF800
07E000
ENDCHAR
STARTCHAR c
ENCODING 99
SWIDTH 1000 0
DWIDTH 15 0
BBX 18 15 0 0
BITMAP
007C00
03DE00
078F00
070F00
1E0C00
1E0000
1E0000
3C0000
3C0000
3C0000
780000
7C0C00
3E1800
3FE000
1FC000
ENDCHAR
STARTCHAR d
ENCODING 100
SWIDTH 783 0
DWIDTH 18 0
BBX 23 23 0 0
BITMAP
00001C
00003C
0000FC
000078
000078
000078
0000F0
0000F0
007CF0
03CFE0
0783E0
0701E0
1E03C0
1E03C0
1E03C0
3C0780
3C0780
3C0780
7C0F00
3C0F00
3F1F80
3FFC00
0F9800
ENDCHAR
STARTCHAR e
ENCODING 101
SWIDTH 1000 0
DWIDTH 15 0
BBX 18 15 0 0
BITMAP
007800
03FC00
079E00
070E00
1E1E00
1E1E00
1FFE00
3C0000
3C0000
3C0000
7C0000
3E1C00
3FF800
3FE000
0F8000
ENDCHAR
STARTCHAR f
ENCODING 102
SWIDTH 565 0
DWIDTH 13 0
BBX 18 23 0 0
BITMAP
001F80
003BC0
0079C0
00F000
00F000
00F000
01E000
01E000
07F800
03C000
03C000
03C000
078000
078000
078000
0F0000
0F0000
0F0000
1E0000
1E0000
1E0000
7E0000
FF0000
ENDCHAR
STARTCHAR g
ENCODING 103
SWIDTH 696 0
DWIDTH 16 0
BBX 22 23 0 -8
BITMAP
001FC0
007BF8
00E1E0
01C1E0
03C1E0
03C1E0
078380
03C380
03EF00
03F800
018000
030000
0E0000
0FFC00
0FFF00
0FFF00
060780
1C0380
780700
7C0E00
7FFC00
7FF000
1FE000
ENDCHAR
STARTCHAR h
ENCODING 104
SWIDTH 783 0
DWIDTH 18 0
BBX 23 23 0 0
BITMAP
003800
007800
01F800
00F000
00F000
00F000
01E000
01E000
01EF80
03FF80
03E7C0
03C3C0
078780
078780
078780
0F0F00
0F0F00
0F0F00
1E1E00
1E1E00
1E1E00
7E7E00
FFFF00
ENDCHAR
STARTCHAR i
ENCODING 105
SWIDTH 435 0
DWIDTH 10 0
BBX 15 23 0 0
BITMAP
0030
0078
0078
0060
0000
0000
0000
0000
0060
03C0
0FC0
03C0
0780
0780
0780
0F00
0F00
0F00
1E00
1E00
1E00
7E00
FF00
ENDCHAR
STARTCHAR j
ENCODING 106
SWIDTH 323 0
DWIDTH 10 0
BBX 17 31 -1 -8
BITMAP
000300
000780
000F00
000600
000000
000000
000000
000000
000C00
003C00
00FC00
007800
007800
007800
00F000
00F000
00F000
01E000
01E000
01E000
03C000
03C000
03C000
078000
078000
078000
0F0000
0F0000
0E0000
FC0000
F80000
ENDCHAR
STARTCHAR k
ENCODING 107
SWIDTH 739 0
DWIDTH 17 0
BBX 23 23 0 0
BITMAP
003800
007800
01F800
00F000
00F000
00F000
01E000
01E000
01E7C0
03C600
03CC00
03D800
07E000
07C000
07E000
0FE000
0FF000
0F7800
1E7800
1E3C00
1E1E00
7E1E00
FF7F00
ENDCHAR
STARTCHAR l
ENCODING 108
SWIDTH 435 0
DWIDTH 10 0
BBX 15 23 0 0
BITMAP
0038
0078
01F8
00F0
00F0
00F0
01E0
01E0
01E0
03C0
03C0
03C0
0780
0780
0780
0F00
0F00
0F00
1E00
1E00
1E00
7E00
FF00
ENDCHAR
STARTCHAR m
ENCODING 109
SWIDTH 1667 0
DWIDTH 25 0
BBX 29 15 0 0
BITMAP
00EF8F80
03FFBF80
0FE7E7C0
03C3C3C0
07878780
07878780
07878780
0F0F0F00
0F0F0F00
0F0F0F00
1E1E1E00
1E1E1E00
1E1E1E00
7E7E7E00
FFFFFF00
ENDCHAR
STARTCHAR n
ENCODING 110
SWIDTH 1133 0
DWIDTH 17 0
BBX 21 15 0 0
BITMAP
00EF80
03FF80
0FE7C0
03C3C0
078780
078780
078780
0F0F00
0F0F00
0F0F00
1E1E00
1E1E00
1E1E00
7E7E00
FFFF00
ENDCHAR
STARTCHAR o
ENCODING 111
SWIDTH 1133 0
DWIDTH 17 0
BBX 20 15 0 0
BITMAP
003F00
01EF80
0387C0
0783C0
0E07C0
1E03C0
1E03C0
3C0780
3C0780
3C0780
780E00
3C1E00
3E1C00
3EF000
0FC000
ENDCHAR
STARTCHAR p
ENCODING 112
SWIDTH 783 0
DWIDTH 18 0
BBX 23 23 0 -8
BITMAP
003BE0
007FF8
01F87C
00F078
00F07C
00F03C
01E078
01E078
01E078
03C0F0
03C1E0
03C1E0
078780
07DF00
07FC00
0F0000
0F0000
0F0000
1E0000
1E0000
1E0000
7E0000
FF0000
ENDCHAR
STARTCHAR q
ENCODING 113
SWIDTH 739 0
DWIDTH 17 0
BBX 23 23 0 -8
BITMAP
001F18
0079F8
00F078
01C0F0
03C0F0
03C0F0
0781E0
0781E0
0781E0
0F03C0
0F83C0
0783C0
0FC780
07FF80
01F780
000F00
000F00
000F00
001E00
001E00
001E00
007E00
00FF00
ENDCHAR
STARTCHAR r
ENCODING 114
SWIDTH 933 0
DWIDTH 14 0
BBX 17 15 0 0
BITMAP
00EF00
03FF00
0FEF00
03C000
078000
078000
078000
0F0000
0F0000
0F0000
1E0000
1E0000
1E0000
7E0000
FF0000
ENDCHAR
STARTCHAR s
ENCODING 115
SWIDTH 933 0
DWIDTH 14 0
BBX 16 15 1 0
BITMAP
01FE
079C
0F0C
0F0C
1F00
0F00
0FC0
07E0
01F0
00F8
60F0
60F0
70F0
FBC0
DF80
ENDCHAR
STARTCHAR t
ENCODING 116
SWIDTH 500 0
DWIDTH 10 0
BBX 15 20 0 0
BITMAP
0030
0030
0070
01E0
01E0
07F0
03C0
03C0
03C0
0780
0780
0780
0F00
0F00
0F00
1E00
1E00
1EC0
1F00
0E00
ENDCHAR
STARTCHAR u
ENCODING 117
SWIDTH 1133 0
DWIDTH 17 0
BBX 21 15 0 0
BITMAP
07C3E0
0783C0
0783C0
0783C0
0F0780
0F0780
0F0780
1E0F00
1E0F00
1E0F00
3C1E00
3C1E00
1E3F80
1FFC00
0FB800
ENDCHAR
STARTCHAR v
ENCODING 118
SWIDTH 1267 0
DWIDTH 19 0
BBX 22 15 0 0
BITMAP
07F9FC
03C0E0
03C0C0
01E0C0
03C300
01E300
01E300
01EC00
01EC00
00FC00
01F000
00F000
00E000
00C000
00C000
ENDCHAR
STARTCHAR w
ENCODING 119
SWIDTH 1800 0
DWIDTH 27 0
BBX 30 15 0 0
BITMAP
07FBFCFC
03C1E060
03C1E060
01E1F0C0
03C3E180
03C3F180
01E6F300
03CDF600
01F8FC00
01F8FC00
03F1F800
01E0F000
01E0F000
0180C000
0180C000
ENDCHAR
STARTCHAR x
ENCODING 120
SWIDTH 1133 0
DWIDTH 17 0
BBX 21 15 0 0
BITMAP
07F3F0
03C380
01E700
01E600
01FC00
00F800
00F800
00F000
01F800
01F800
077800
063C00
0E3C00
383C00
FEFF00
ENDCHAR
STARTCHAR y
ENCODING 121
SWIDTH 826 0
DWIDTH 19 0
BBX 24 23 0 -8
BITMAP
01FE7F
00781C
007818
007830
007860
003C60
0078C0
003D80
003D80
003F00
003E00
001E00
003800
001800
001800
006000
006000
00C000
018000
030000
3F0000
FC0000
780000
ENDCHAR
STARTCHAR z
ENCODING 122
SWIDTH 1067 0
DWIDTH 16 0
BBX 19 15 0 0
BITMAP
03FFE0
070780
060F00
060F00
003C00
007800
007800
01E000
03C000
03C000
0F0000
1E0600
1E0600
781C00
FFFC00
ENDCHAR
STARTCHAR braceleft
ENCODING 123
SWIDTH 467 0
DWIDTH 14 0
BBX 21 30 1 -6
BITMAP
000078
0003C0
000380
000780
000F00
000F00
000F00
001E00
001E00
001E00
003C00
007800
007800
01E000
078000
01E000
01E000
01E000
00F000
01E000
01E000
01E000
03C000
03C000
03C000
078000
078000
038000
078000
01E000
ENDCHAR
STARTCHAR bar
ENCODING 124
SWIDTH 417 0
DWIDTH 10 0
BBX 12 24 2 -1
BITMAP
00F0
01E0
01E0
01E0
03C0
03C0
03C0
0780
0780
0780
0F00
0F00
0F00
1E00
1E00
1E00
3C00
3C00
3C00
7800
7800
7800
F000
F000
ENDCHAR
STARTCHAR braceright
ENCODING 125
SWIDTH 467 0
DWIDTH 14 0
BBX 21 30 1 -6
BITMAP
003C00
001E00
000E00
000F00
001E00
001E00
001E00
003C00
003C00
003C00
007800
003C00
003C00
003C00
000F00
003C00
00F000
00F000
01E000
03C000
03C000
03C000
078000
078000
078000
0F0000
0F0000
0E0000
3C0000
F00000
ENDCHAR
STARTCHAR asciitilde
ENCODING 126
SWIDTH 4250 0
DWIDTH 17 0
BBX 15 4 0 19
BITMAP
1F06
3FCE
E7F8
C1F0
ENDCHAR
STARTCHAR nbsp
ENCODING 154
SWIDTH 281 0
DWIDTH 9 0
BBX 0 0 -1 0
BITMAP
ENDCHAR
STARTCHAR degree
ENCODING 156
SWIDTH 1500 0
DWIDTH 12 0
BBX 11 8 1 15
BITMAP
0F80
1FC0
3DE0
71C0
71C0
7BC0
7F00
3E00
ENDCHAR
STARTCHAR twosuperior
ENCODING 157
SWIDTH 900 0
DWIDTH 9 0
BBX 12 10 -1 13
BITMAP
0FC0
18E0
01C0
01C0
0380
0E00
1C00
38C0
FF00
FE00
ENDCHAR
STARTCHAR cyr-yo
ENCODING 163
SWIDTH 650 0
DWIDTH 13 0
BBX 19 20 0 0
BITMAP
00C300
01E780
01E780
018600
000000
007800
03FC00
079E00
070E00
1E1E00
1E1E00
1FFE00
3C0000
3C0000
3C0000
7C0000
3E1C00
3FF800
3FE000
0F8000
ENDCHAR
STARTCHAR cyr-Yo
ENCODING 179
SWIDTH 731 0
DWIDTH 19 0
BBX 27 26 0 0
BITMAP
001C1C00
003E3E00
001C1C00
00000000
01FFFF00
007E0700
00780600
00780600
00780000
00F00000
00F00000
00F03000
01E06000
01E0E000
01FFE000
03C1C000
03C0C000
03C0C000
07800000
07800000
07800000
0F000000
0F003000
0F007000
3F03C000
FFFFC000
ENDCHAR
STARTCHAR copyright
ENCODING 191
SWIDTH 1136 0
DWIDTH 25 0
BBX 30 22 0 0
BITMAP
0001FC00
0007FF00
003E0F80
007803C0
00F001E0
01C001C0
0383FCE0
038FBCE0
0F1C39E0
0E3C18E0
0E3800E0
1C7001C0
1C7801C0
1E3833C0
1C7DC700
1C1F8700
0E000E00
1E003C00
0F007800
07C1F000
03FF8000
00FE0000
ENDCHAR
STARTCHAR cyr-yu
ENCODING 192
SWIDTH 1667 0
DWIDTH 25 0
BBX 28 15 0 0
BITMAP
07F87E00
07E3CF00
03C78780
03CF03C0
079C0380
07BC03C0
07FC03C0
0FF80780
0F780780
0F780780
1E781E00
1E781E00
1E3C3C00
7E3CF000
FF0FC000
ENDCHAR
STARTCHAR cyr-a
ENCODING 193
SWIDTH 933 0
DWIDTH 14 0
BBX 18 15 0 0
BITMAP
00FC00
079C00
0F1E00
0F1E00
0C3C00
007C00
01FC00
0F7800
1E7800
3C7800
78F000
78F000
7CF000
7FF800
3C7000
ENDCHAR
STARTCHAR cyr-be
ENCODING 194
SWIDTH 640 0
DWIDTH 16 0
BBX 22 25 0 0
BITMAP
000018
000038
001FE0
007800
00F000
01E000
03C000
03C000
078000
078000
07FE00
0FFF00
0F8F80
0F0780
1E0F00
1E0780
1E0780
3C0F00
3C0F00
3C0F00
783C00
783C00
787800
7BE000
3F8000
ENDCHAR
STARTCHAR cyr-tse
ENCODING 195
SWIDTH 1111 0
DWIDTH 20 0
BBX 24 18 0 -3
BITMAP
03FCFF
03F0FC
01E078
01E078
03C0F0
03C0F0
03C0F0
0781E0
0781E0
0781E0
0F03C0
0F03C0
0F03C0
3F0F80
7FFFE0
0000E0
0000C0
0000C0
ENDCHAR
STARTCHAR cyr-de
ENCODING 196
SWIDTH 944 0
DWIDTH 17 0
BBX 21 18 0 -3
BITMAP
03FFF8
03E7E0
01C3C0
01C3C0
038780
038780
038780
070F00
070F00
070F00
0E1E00
0E1E00
0E1E00
387E00
7FFF00
700700
C00600
C00600
ENDCHAR
STARTCHAR cyr-ie
ENCODING 197
SWIDTH 1000 0
DWIDTH 15 0
BBX 18 15 0 0
BITMAP
007800
03FC00
079E00
070E00
1E1E00
1E1E00
1FFE00
3C0000
3C0000
3C0000
780000
3C1C00
3E3800
3FE000
0F8000
ENDCHAR
STARTCHAR cyr-ef
ENCODING 198
SWIDTH 870 0
DWIDTH 20 0
BBX 25 23 0 -8
BITMAP
000FFC00
003FFE00
0073DF00
01E79E00
01C79F00
03C78F00
078F1E00
078F1E00
078F1E00
0F1E3C00
0F1E3800
079E7800
0FBCE000
07FFC000
01FF0000
00780000
00780000
00780000
00F00000
00F00000
00F00000
03F00000
07F80000
ENDCHAR
STARTCHAR cyr-ghe
ENCODING 199
SWIDTH 1000 0
DWIDTH 15 0
BBX 18 15 0 0
BITMAP
07FFC0
07E380
03C180
03C180
078000
078000
078000
0F0000
0F0000
0F0000
1E0000
1E0000
1E0000
7E0000
FF0000
ENDCHAR
STARTCHAR cyr-kha
ENCODING 200
SWIDTH 1200 0
DWIDTH 18 0
BBX 21 15 0 0
BITMAP
07F3F0
03C380
01E700
01E600
01FC00
00F800
00F800
00F000
01F800
01F800
077800
063C00
0E3C00
383C00
FEFF00
ENDCHAR
STARTCHAR cyr-i
ENCODING 201
SWIDTH 1333 0
DWIDTH 20 0
BBX 23 15 0 0
BITMAP
07F8FE
07E1F8
03C3F0
03C3F0
078FE0
078DE0
079DE0
0F33C0
0F73C0
0F63C0
1FC780
1F8780
1F8780
7E1F80
FE3FC0
ENDCHAR
STARTCHAR cyr-i-short
ENCODING 202
SWIDTH 1053 0
DWIDTH 20 0
BBX 24 19 0 0
BITMAP
000E70
000E70
000F80
000000
07F8FE
07E1F8
03C3F0
03C3F0
078FE0
078DE0
079DE0
0F33C0
0F73C0
0F63C0
1FC780
1F8780
1F8780
7E1F80
FE3FC0
ENDCHAR
STARTCHAR cyr-ka
ENCODING 203
SWIDTH 1200 0
DWIDTH 18 0
BBX 22 15 0 0
BITMAP
07F8F8
07E3F8
03C6F0
03CC00
07B000
07E000
07E000
0FE000
0FF000
0F7800
1E7800
1E3C00
1E1E00
7E1E00
FF7F00
ENDCHAR
STARTCHAR cyr-el
ENCODING 204
SWIDTH 1333 0
DWIDTH 20 0
BBX 23 15 0 0
BITMAP
00FFFE
00F9F8
0070F0
0070F0
00E1E0
00E1E0
00E1E0
01C3C0
01C3C0
01C3C0
038780
038780
7B8780
FE1F80
7C3FC0
ENDCHAR
STARTCHAR cyr-em
ENCODING 205
SWIDTH 1600 0
DWIDTH 24 0
BBX 27 15 0 0
BITMAP
07C00FE0
07C01F80
03C03F00
03E03F00
07C0FE00
07E0DE00
06E1DE00
0DE33C00
0CE73C00
0CF63C00
18FC7800
18F87800
18787800
78E1F800
FC63FC00
ENDCHAR
STARTCHAR cyr-en
ENCODING 206
SWIDTH 1333 0
DWIDTH 20 0
BBX 23 15 0 0
BITMAP
07F9FE
07E1F8
03C0F0
03C0F0
0781E0
0781E0
0781E0
0FFFC0
0F03C0
0F03C0
1E0780
1E0780
1E0780
7E1F80
FF3FC0
ENDCHAR
STARTCHAR cyr-o
ENCODING 207
SWIDTH 1200 0
DWIDTH 18 0
BBX 21 15 0 0
BITMAP
003F00
01E780
03C3C0
0781E0
0E01C0
1E01E0
1E01E0
3C03C0
3C03C0
3C03C0
3C0F00
3C0F00
1E1E00
1E7800
07E000
ENDCHAR
STARTCHAR cyr-pe
ENCODING 208
SWIDTH 1333 0
DWIDTH 20 0
BBX 23 15 0 0
BITMAP
07FFFE
07E1F8
03C0F0
03C0F0
0781E0
0781E0
0781E0
0F03C0
0F03C0
0F03C0
1E0780
1E0780
1E0780
7E1F80
FF3FC0
ENDCHAR
STARTCHAR cyr-ya
ENCODING 209
SWIDTH 1333 0
DWIDTH 20 0
BBX 23 15 0 0
BITMAP
003FFE
00F0F8
01E0F0
01E0F0
03C1E0
03C1E0
01E1E0
01FFC0
007BC0
00F3C0
03C780
078780
0F0780
3C1F80
FC3FC0
ENDCHAR
STARTCHAR cyr-er
ENCODING 210
SWIDTH 783 0
DWIDTH 18 0
BBX 23 23 0 -8
BITMAP
01FFE0
00FFF8
00787C
00F078
00F07C
00F03C
01E078
01E078
01E078
03C0F0
03C1E0
03C1E0
078780
079F00
07FC00
0F0000
0F0000
0F0000
1E0000
1E0000
1E0000
7E0000
FF0000
ENDCHAR
STARTCHAR cyr-es
ENCODING 211
SWIDTH 1000 0
DWIDTH 15 0
BBX 18 15 0 0
BITMAP
007C00
03DE00
078F00
070F00
1E0C00
1E0000
1E0000
3C0000
3C0000
3C0000
7C0000
3E0C00
3F1800
3FE000
0FC000
ENDCHAR
STARTCHAR cyr-te
ENCODING 212
SWIDTH 1200 0
DWIDTH 18 0
BBX 21 15 0 0
BITMAP
07FFF8
0E7E70
0C3C30
0C3C30
007800
007800
007800
00F000
00F000
00F000
01E000
01E000
01E000
07E000
0FF000
ENDCHAR
STARTCHAR cyr-u
ENCODING 213
SWIDTH 783 0
DWIDTH 18 0
BBX 24 23 0 -8
BITMAP
01FE7F
00781C
007818
007830
007860
003C60
0078C0
003D80
003D80
003F00
003E00
001E00
003800
001800
001800
006000
006000
00C000
018000
3B0000
7F0000
FC0000
780000
ENDCHAR
STARTCHAR cyr-zhe
ENCODING 214
SWIDTH 1867 0
DWIDTH 28 0
BBX 31 15 0 0
BITMAP
03E3FC7C
0FE3F1FC
07E1E1F8
0031E300
0033CC00
001BD800
000FF000
003FF000
007FF800
00F7BC00
03CF3C00
078F1E00
0F0F0F00
3C3F0F00
FF7FBFC0
ENDCHAR
STARTCHAR cyr-ve
ENCODING 215
SWIDTH 933 0
DWIDTH 14 0
BBX 17 15 0 0
BITMAP
07FE00
07FE00
038E00
038E00
071C00
071C00
07F800
0FF800
0E3C00
0E1C00
1C3800
1C3800
1C7800
7FE000
FFC000
ENDCHAR
STARTCHAR cyr-ierik
ENCODING 216
SWIDTH 1067 0
DWIDTH 16 0
BBX 19 15 0 0
BITMAP
07F800
07E000
03C000
03C000
078000
078000
07FC00
0FFE00
0F1F00
0F0F00
1E1E00
1E1E00
1E3E00
7FF800
FFE000
ENDCHAR
STARTCHAR cyr-iery
ENCODING 217
SWIDTH 1533 0
DWIDTH 23 0
BBX 26 15 0 0
BITMAP
07F83FC0
07E03F00
03C01E00
03C01E00
07803C00
07803C00
07FC3C00
0FFE7800
0F1F7800
0F0F7800
1E1EF000
1E1EF000
1E3EF000
7FFBF000
FFE7F800
ENDCHAR
STARTCHAR cyr-z
ENCODING 218
SWIDTH 933 0
DWIDTH 14 0
BBX 17 15 0 0
BITMAP
01FE00
07FE00
0F1F00
0E0F00
001E00
001E00
003C00
03F000
007800
003C00
007800
707800
787800
7FE000
1FC000
ENDCHAR
STARTCHAR cyr-sha
ENCODING 219
SWIDTH 1867 0
DWIDTH 28 0
BBX 31 15 0 0
BITMAP
07FBFDFE
07E3F1F8
03C1E0F0
03C1E0F0
0783C1E0
0783C1E0
0783C1E0
0F0783C0
0F0783C0
0F0783C0
1E0F0780
1E0F0780
1E0F0780
7E3F1F80
FFFFFFC0
ENDCHAR
STARTCHAR cyr-e-rev
ENCODING 220
SWIDTH 1000 0
DWIDTH 15 0
BBX 18 15 0 0
BITMAP
01FE00
07FE00
0F0F00
0E0780
180F00
000F00
000F00
07FE00
001E00
001E00
603C00
703C00
787800
7FE000
1FC000
ENDCHAR
STARTCHAR cyr-shcha
ENCODING 221
SWIDTH 1556 0
DWIDTH 28 0
BBX 32 18 0 -3
BITMAP
03FDFEFF
03F1F8FC
01E0F078
01E0F078
03C1E0F0
03C1E0F0
03C1E0F0
0783C1E0
0783C1E0
0783C1E0
0F0783C0
0F0783C0
0F0783C0
3F1F8F80
7FFFFFE0
000000E0
000000C0
000000C0
ENDCHAR
STARTCHAR cyr-che
ENCODING 222
SWIDTH 1333 0
DWIDTH 20 0
BBX 23 15 0 0
BITMAP
07F9FE
07E1F8
03C0F0
03C0F0
0781E0
0781E0
0781E0
0F03C0
07FFC0
0003C0
000780
000780
000780
001F80
003FC0
ENDCHAR
STARTCHAR cyr-ier
ENCODING 223
SWIDTH 1267 0
DWIDTH 19 0
BBX 22 15 0 0
BITMAP
07FF00
0EFC00
0E7800
0C7800
18F000
00F000
00FF80
01FFC0
01E3E0
01E1E0
03C3C0
03C3C0
03C7C0
0FFF00
1FFC00
ENDCHAR
STARTCHAR cyr-Yu
ENCODING 224
SWIDTH 1409 0
DWIDTH 31 0
BBX 36 22 0 0
BITMAP
01FF83FC00
007E0F9F00
00783C0F00
0078780780
0078780780
00F1E00780
00F1E00780
00F3E007C0
01E7C00F80
01E7C00F80
01FFC00F80
03CF801F00
03CF801F00
03CF801F00
079F003E00
078F003C00
078F003C00
0F0F00F000
0F0F00F000
0F0781E000
3F07CF8000
FFC1FE0000
ENDCHAR
STARTCHAR cyr-A
ENCODING 225
SWIDTH 1045 0
DWIDTH 23 0
BBX 30 22 -1 0
BITMAP
00006000
00006000
0000E000
0001E000
0001F000
0007E000
0007E000
0007F000
001FE000
001DF000
0039F000
0071F000
0071F000
00E1F000
01C1F000
03FFF000
0380F800
0701F000
0E00F800
0E00F800
3C03F800
FF0FFE00
ENDCHAR
STARTCHAR cyr-Be
ENCODING 226
SWIDTH 1000 0
DWIDTH 22 0
BBX 27 22 0 0
BITMAP
01FFFF80
007E0380
00780300
00780300
00780000
00F00000
00F00000
00F00000
01E00000
01FFF000
01F0F800
03C07800
03C07C00
03C03C00
07807C00
07807C00
07807C00
0F00F800
0F01F000
0F01F000
3F0FC000
FFFF0000
ENDCHAR
STARTCHAR cyr-Tse
ENCODING 227
SWIDTH 923 0
DWIDTH 24 0
BBX 30 26 0 -4
BITMAP
00FFCFFC
003F03F0
001E01E0
003C03C0
003C03C0
003C03C0
00780780
00780780
00780780
00F00F00
00F00F00
00F00F00
01E01E00
01E01E00
01E01E00
03C03C00
03C03C00
03C03C00
07807800
07807800
0FC0FC00
7FFFFE00
00001E00
00000E00
00000C00
00000C00
ENDCHAR
STARTCHAR cyr-De
ENCODING 228
SWIDTH 962 0
DWIDTH 25 0
BBX 31 26 0 -4
BITMAP
003FFFF8
001F03F0
000E01F0
001C03E0
001C03E0
001C03E0
003807C0
003807C0
003807C0
00700F80
00700F80
00700F80
00E01F00
00E01F00
00E01F00
01C03E00
01C03E00
01C03E00
03807C00
07007C00
0E00FE00
7FFFFF00
78000F00
70000700
C0000600
C0000600
ENDCHAR
STARTCHAR cyr-Ie
ENCODING 229
SWIDTH 955 0
DWIDTH 21 0
BBX 26 22 0 0
BITMAP
01FFFF00
007E0700
00780600
00780600
00780000
00F00000
00F00000
00F03000
01E06000
01E0E000
01FFE000
03C1C000
03C0C000
03C0C000
07800000
07800000
07800000
0F000000
0F003000
0F007000
3F03C000
FFFFC000
ENDCHAR
STARTCHAR cyr-Ef
ENCODING 230
SWIDTH 1083 0
DWIDTH 26 0
BBX 32 24 0 -2
BITMAP
0003FFC0
001E79E0
003C78F0
00787878
00F0F0F0
01E0F078
01E0F078
07C1E0F8
07C1E0F8
07C1E0F8
0F83C1F0
0F83C1F0
0F83C1F0
1F0783E0
1F0783E0
0F0783C0
1E0F0780
0F0F0F00
0F0F0F00
0F1E3C00
079E7800
01FFE000
003C0000
01FF8000
ENDCHAR
STARTCHAR cyr-Ghe
ENCODING 231
SWIDTH 909 0
DWIDTH 20 0
BBX 25 22 0 0
BITMAP
01FFFF80
007E0380
00780300
00780300
00780000
00F00000
00F00000
00F00000
01E00000
01E00000
01E00000
03C00000
03C00000
03C00000
07800000
07800000
07800000
0F000000
0F000000
0F000000
3F000000
FFE00000
ENDCHAR
STARTCHAR cyr-Kha
ENCODING 232
SWIDTH 1091 0
DWIDTH 24 0
BBX 31 22 -1 0
BITMAP
00FF83F8
003E00E0
003E0180
001F0300
001F0600
001F0C00
000F9800
000FB000
000FC000
0007C000
0007E000
0007C000
000FE000
001DF000
0033E000
0061F000
00E0F800
0181F000
0300F800
07007C00
3C00FC00
FF83FF00
ENDCHAR
STARTCHAR cyr-I
ENCODING 233
SWIDTH 1136 0
DWIDTH 25 0
BBX 30 22 0 0
BITMAP
01FF81FC
007E03F0
007807C0
00780FC0
00780FC0
00F03F80
00F03780
00F07780
01E0CF00
01E1CF00
01E18F00
03C71E00
03C61E00
03CE1E00
07983C00
07B83C00
07B03C00
0FE07800
0FC07800
0FC07800
3F01F800
FF07FE00
ENDCHAR
STARTCHAR cyr-I-short
ENCODING 234
SWIDTH 1000 0
DWIDTH 25 0
BBX 31 25 0 0
BITMAP
00006180
00007F80
00003C00
01FF81FC
007E03F0
007807C0
00780FC0
00780FC0
00F03F80
00F03780
00F07780
01E0CF00
01E1CF00
01E18F00
03C71E00
03C61E00
03CE1E00
07983C00
07B83C00
07B03C00
0FE07800
0FC07800
0FC07800
3F01F800
FF07FE00
ENDCHAR
STARTCHAR cyr-Ka
ENCODING 235
SWIDTH 1091 0
DWIDTH 24 0
BBX 29 22 0 0
BITMAP
01FF81F0
007E03F8
00780FF0
00781CE0
00783800
00F0E000
00F1C000
00F38000
01EE0000
01FF0000
01FF8000
03EF0000
03C78000
03C3C000
07878000
0783C000
0781E000
0F03C000
0F01E000
0F00F000
3F03F000
FFCFFC00
ENDCHAR
STARTCHAR cyr-El
ENCODING 236
SWIDTH 1227 0
DWIDTH 27 0
BBX 32 22 0 0
BITMAP
001FFFFC
000F81F8
000E01F0
000E01F0
000E01F0
001C03E0
001C03E0
001C03E0
003807C0
003807C0
003807C0
00700F80
00700F80
00700F80
00E01F00
00E01F00
00E01F00
01C03E00
39C03E00
7DC03E00
FF00FE00
7E03FF80
ENDCHAR
STARTCHAR cyr-Em
ENCODING 237
SWIDTH 1318 0
DWIDTH 29 0
BBX 34 22 0 0
BITMAP
01FE001FC0
007E001F00
007C007C00
007E007C00
007E007C00
00FE01F800
00DE01F800
00DE037800
01BE06F000
019E06F000
019F0CF000
031E19E000
031E31E000
031F31E000
061E63C000
061FC3C000
060FC3C000
0C1F078000
0C0F078000
0C0F078000
3C0C1F8000
FF0C7FE000
ENDCHAR
STARTCHAR cyr-En
ENCODING 238
SWIDTH 1091 0
DWIDTH 24 0
BBX 29 22 0 0
BITMAP
01FF9FF8
007E07E0
00780780
00780780
00780780
00F00F00
00F00F00
00F00F00
01E01E00
01E01E00
01FFFE00
03C03C00
03C03C00
03C03C00
07807800
07807800
07807800
0F00F000
0F00F000
0F00F000
3F03F000
FFCFFC00
ENDCHAR
STARTCHAR cyr-O
ENCODING 239
SWIDTH 1000 0
DWIDTH 22 0
BBX 27 22 0 0
BITMAP
0007F800
001F3E00
00781E00
00F00F00
00F00F00
03C00F00
03C00F00
07C00F80
0F801F00
0F801F00
0F801F00
1F003E00
1F003E00
1F003E00
3E007C00
1E007800
1E007800
1E01E000
1E01E000
0F03C000
0F9F0000
03FC0000
ENDCHAR
STARTCHAR cyr-Pe
ENCODING 240
SWIDTH 1091 0
DWIDTH 24 0
BBX 29 22 0 0
BITMAP
01FFFFF8
007E07E0
00780780
00780780
00780780
00F00F00
00F00F00
00F00F00
01E01E00
01E01E00
01E01E00
03C03C00
03C03C00
03C03C00
07807800
07807800
07807800
0F00F000
0F00F000
0F00F000
3F03F000
FFCFFC00
ENDCHAR
STARTCHAR cyr-Ya
ENCODING 241
SWIDTH 1045 0
DWIDTH 23 0
BBX 29 22 -1 0
BITMAP
0003FFF8
000FC7E0
001F0780
003E0780
003E0780
007C0F00
007C0F00
007C0F00
007C1E00
007E1E00
001FFE00
000FBC00
000F3C00
001E3C00
007C7800
00787800
00F07800
03E0F000
03C0F000
0780F000
1F03F000
FE0FFC00
ENDCHAR
STARTCHAR cyr-Er
ENCODING 242
SWIDTH 909 0
DWIDTH 20 0
BBX 25 22 0 0
BITMAP
01FFFC00
007E3F00
00783E00
00781F00
00781F00
00F03E00
00F03E00
00F03E00
01E07C00
01E07C00
01E0F800
03C3F000
03FFC000
03C00000
07800000
07800000
07800000
0F000000
0F000000
0F000000
3F000000
FFC00000
ENDCHAR
STARTCHAR cyr-Es
ENCODING 243
SWIDTH 1000 0
DWIDTH 22 0
BBX 27 22 0 0
BITMAP
0003F980
000F8F80
007C0700
00F80300
00F00000
03E00000
03C00000
07C00000
0F800000
0F800000
0F800000
1F000000
1F000000
1F000000
3E000000
1F000000
1F000000
1F001800
1F803000
0FE06000
07FF8000
01FE0000
ENDCHAR
STARTCHAR cyr-Te
ENCODING 244
SWIDTH 1000 0
DWIDTH 22 0
BBX 27 22 0 0
BITMAP
01FFFFE0
01C1E0E0
0303C0C0
0303C0C0
0003C000
00078000
00078000
00078000
000F0000
000F0000
000F0000
001E0000
001E0000
001E0000
003C0000
003C0000
003C0000
00780000
00780000
00780000
01F80000
07FE0000
ENDCHAR
STARTCHAR cyr-U
ENCODING 245
SWIDTH 1045 0
DWIDTH 23 0
BBX 30 22 -1 0
BITMAP
01FF87FC
007C01F0
007C01C0
003C0380
003C0380
003C0E00
003C1C00
003E1C00
003C7000
003C7000
001EE000
003DC000
001F8000
001F8000
001E0000
001E0000
001C0000
00380000
0E700000
1F700000
3FC00000
1F800000
ENDCHAR
STARTCHAR cyr-Zhe
ENCODING 246
SWIDTH 1545 0
DWIDTH 34 0
BBX 41 22 -1 0
BITMAP
007C1FF83E00
00FE07E07F00
01FE0781FE00
00E707839C00
000387870000
00038F1C0000
0001CF380000
0000EF700000
0001FFE00000
0003FFF00000
0007DEF80000
000F3CF00000
001E3C780000
003C3C3C0000
007878780000
00F0783C0000
01E0781E0000
03C0F03C0000
0780F01E0000
0F00F00F0000
3F03F03F0000
FFCFFCFFC000
ENDCHAR
STARTCHAR cyr-Ve
ENCODING 247
SWIDTH 1000 0
DWIDTH 22 0
BBX 27 22 0 0
BITMAP
01FFFC00
007E1F00
00781F00
00780F00
00780F80
00F01F00
00F01F00
00F01E00
01E07C00
01E0F800
01FFF000
03C1F000
03C07800
03C07C00
07807800
07807C00
07807C00
0F00F800
0F01F000
0F01F000
3F0FC000
FFFF0000
ENDCHAR
STARTCHAR cyr-Ierik
ENCODING 248
SWIDTH 1000 0
DWIDTH 22 0
BBX 27 22 0 0
BITMAP
01FF8000
007E0000
00780000
00780000
00780000
00F00000
00F00000
00F00000
01E00000
01FFF000
01F0F800
03C07800
03C07C00
03C03C00
07807C00
07807C00
07807C00
0F00F800
0F01F000
0F01F000
3F0FC000
FFFF0000
ENDCHAR
STARTCHAR cyr-Iery
ENCODING 249
SWIDTH 1364 0
DWIDTH 30 0
BBX 35 22 0 0
BITMAP
01FF807FE0
007E001F80
0078001E00
0078001E00
0078001E00
00F0003C00
00F0003C00
00F0003C00
01E0007800
01FFF07800
01F0F87800
03C078F000
03C07CF000
03C03CF000
07807DE000
07807DE000
07807DE000
0F00FBC000
0F01F3C000
0F01F3C000
3F0FCFC000
FFFF3FF000
ENDCHAR
STARTCHAR cyr-Ze
ENCODING 250
SWIDTH 1000 0
DWIDTH 22 0
BBX 25 22 2 0
BITMAP
019FF000
01F87C00
03807C00
03003E00
03003E00
00007C00
00007C00
00C07800
0181F000
01C3E000
01FFC000
0387C000
0301E000
0301F000
0001E000
0001F000
0001F000
6003E000
6003E000
7007C000
FC3F0000
CFFC0000
ENDCHAR
STARTCHAR cyr-Sha
ENCODING 251
SWIDTH 1545 0
DWIDTH 34 0
BBX 39 22 0 0
BITMAP
01FFBFF7FE
007E0FC1F8
00780F01E0
00780F01E0
00780F01E0
00F01E03C0
00F01E03C0
00F01E03C0
01E03C0780
01E03C0780
01E03C0780
03C0780F00
03C0780F00
03C0780F00
0780F01E00
0780F01E00
0780F01E00
0F01E03C00
0F01E03C00
0F01E03C00
3F07E0FC00
FFFFFFFF00
ENDCHAR
STARTCHAR cyr-E-rev
ENCODING 252
SWIDTH 1000 0
DWIDTH 22 0
BBX 25 22 2 0
BITMAP
019FF800
01F83E00
03803E00
03001F00
03001F00
00003E00
00003E00
00003E00
01807C00
01C07C00
01FFFC00
0380F800
0300F800
0000F800
0001F000
0001F000
0001F000
6003E000
6003E000
7007C000
FC3F0000
CFFC0000
ENDCHAR
STARTCHAR cyr-Shcha
ENCODING 253
SWIDTH 1308 0
DWIDTH 34 0
BBX 40 26 0 -4
BITMAP
00FFDFFBFF
003F07E0FC
001E03C078
003C0780F0
003C0780F0
003C0780F0
00780F01E0
00780F01E0
00780F01E0
00F01E03C0
00F01E03C0
00F01E03C0
01E03C0780
01E03C0780
01E03C0780
03C0780F00
03C0780F00
03C0780F00
0780F01E00
0780F01E00
0FC1F83F00
7FFFFFFF80
0000000780
0000000380
0000000300
0000000300
ENDCHAR
STARTCHAR cyr-Che
ENCODING 254
SWIDTH 1091 0
DWIDTH 24 0
BBX 29 22 0 0
BITMAP
01FF9FF8
007E07E0
00780780
00780780
00780780
00F00F00
00F00F00
00F00F00
01E01E00
01E01E00
01E01E00
01FFFC00
00003C00
00003C00
00007800
00007800
00007800
0000F000
0000F000
0000F000
0003F000
000FFC00
ENDCHAR
STARTCHAR cyr-Ier
ENCODING 255
SWIDTH 1136 0
DWIDTH 25 0
BBX 30 22 0 0
BITMAP
01FFF000
01EFC000
038F0000
030F0000
030F0000
001E0000
001E0000
001E0000
003C0000
003FFE00
003E1F00
00780F00
00780F80
00780780
00F00F80
00F00F80
00F00F80
01E01F00
01E03E00
01E03E00
07E1F800
1FFFE000
ENDCHAR
ENDFONT
