STARTFONT 2.1
COMMENT Copyright (C) 1990-1991 EWT Consulting
COMMENT Portions Copyright (C) 1994-1995 Cronyx Ltd.
COMMENT Changes Copyright (C) 1996-1997 by Andrey A. Chernov, Moscow, Russia.
COMMENT Modified by Serge Vakulenko, <vak@cronyx.ru>
COMMENT This software may be used, modified, copied, distributed, and sold,
COMMENT in both source and binary form provided that the copyright
COMMENT and these terms are retained. Under no circumstances is the author
COMMENT responsible for the proper functioning of this software, nor does
COMMENT the author assume any responsibility for damages incurred with its use.
COMMENT $XFree86: xc/fonts/bdf/cyrillic/crox1ho.bdf,v 3.2.4.2 1999/06/13 09:34:42 dawes Exp $
FONT -Cronyx-Helvetica-Medium-O-Normal--11-80-100-100-P-46-KOI8-R
SIZE 8 96 96
FONTBOUNDINGBOX 15 13 -1 -2
STARTPROPERTIES 20
DEFAULT_CHAR 32
FONT_ASCENT 11
FONT_DESCENT 2
SPACING "P"
FONTNAME_REGISTRY ""
FOUNDRY "Cronyx"
FAMILY_NAME "Helvetica"
WEIGHT_NAME "Medium"
SLANT "O"
SETWIDTH_NAME "Normal"
ADD_STYLE_NAME ""
AVERAGE_WIDTH 46
CHARSET_REGISTRY "KOI8"
CHARSET_ENCODING "R"
PIXEL_SIZE 11
POINT_SIZE 80
RESOLUTION_X 100
RESOLUTION_Y 100
COPYRIGHT "Copyright (C) 1990, 1991 EWT Consulting, Portions Copyright (C) 1994 Cronyx Ltd., Portions Copyright (C) 1996-1997 by Andrey A. Chernov, Moscow, Russia."
_XMBDFED_INFO "Edited with xmbdfed 2.7."
ENDPROPERTIES
CHARS 165
STARTCHAR space
ENCODING 32
SWIDTH 281 0
DWIDTH 3 0
BBX 0 0 -1 0
BITMAP
ENDCHAR
STARTCHAR exclam
ENCODING 33
SWIDTH 281 0
DWIDTH 3 0
BBX 4 9 0 0
BITMAP
10
20
20
20
40
40
40
00
80
ENDCHAR
STARTCHAR quotedbl
ENCODING 34
SWIDTH 375 0
DWIDTH 4 0
BBX 4 3 0 6
BITMAP
50
A0
A0
ENDCHAR
STARTCHAR numbersign
ENCODING 35
SWIDTH 562 0
DWIDTH 6 0
BBX 8 9 0 0
BITMAP
0A
14
3E
14
28
28
7C
50
50
ENDCHAR
STARTCHAR dollar
ENCODING 36
SWIDTH 562 0
DWIDTH 6 0
BBX 8 10 0 -1
BITMAP
04
0E
2A
28
18
18
14
54
70
20
ENDCHAR
STARTCHAR percent
ENCODING 37
SWIDTH 750 0
DWIDTH 8 0
BBX 10 9 0 0
BITMAP
0C00
2480
1900
0200
0800
1000
2600
9200
0C00
ENDCHAR
STARTCHAR ampersand
ENCODING 38
SWIDTH 562 0
DWIDTH 6 0
BBX 8 9 0 0
BITMAP
08
28
28
10
20
54
48
90
68
ENDCHAR
STARTCHAR quoteright
ENCODING 39
SWIDTH 187 0
DWIDTH 2 0
BBX 2 3 0 6
BITMAP
40
80
80
ENDCHAR
STARTCHAR parenleft
ENCODING 40
SWIDTH 281 0
DWIDTH 3 0
BBX 5 11 0 -2
BITMAP
08
10
10
20
20
20
40
40
40
80
40
ENDCHAR
STARTCHAR parenright
ENCODING 41
SWIDTH 281 0
DWIDTH 3 0
BBX 5 11 0 -2
BITMAP
10
08
08
10
10
10
20
20
20
40
80
ENDCHAR
STARTCHAR asterisk
ENCODING 42
SWIDTH 375 0
DWIDTH 4 0
BBX 4 3 0 5
BITMAP
50
40
A0
ENDCHAR
STARTCHAR plus
ENCODING 43
SWIDTH 562 0
DWIDTH 6 0
BBX 6 5 0 1
BITMAP
10
10
7C
20
20
ENDCHAR
STARTCHAR comma
ENCODING 44
SWIDTH 281 0
DWIDTH 3 0
BBX 2 2 0 -1
BITMAP
40
80
ENDCHAR
STARTCHAR minus
ENCODING 45
SWIDTH 281 0
DWIDTH 3 0
BBX 2 1 0 3
BITMAP
C0
ENDCHAR
STARTCHAR period
ENCODING 46
SWIDTH 281 0
DWIDTH 3 0
BBX 1 1 0 0
BITMAP
80
ENDCHAR
STARTCHAR slash
ENCODING 47
SWIDTH 281 0
DWIDTH 3 0
BBX 5 9 0 0
BITMAP
08
10
10
10
20
40
40
80
80
ENDCHAR
STARTCHAR zero
ENCODING 48
SWIDTH 562 0
DWIDTH 6 0
BBX 8 9 0 0
BITMAP
0E
22
22
22
44
44
44
88
70
ENDCHAR
STARTCHAR one
ENCODING 49
SWIDTH 562 0
DWIDTH 6 0
BBX 6 9 0 0
BITMAP
04
38
08
08
10
10
10
20
20
ENDCHAR
STARTCHAR two
ENCODING 50
SWIDTH 562 0
DWIDTH 6 0
BBX 8 9 0 0
BITMAP
0E
22
02
02
08
10
20
80
F8
ENDCHAR
STARTCHAR three
ENCODING 51
SWIDTH 562 0
DWIDTH 6 0
BBX 8 9 0 0
BITMAP
0E
22
02
02
18
04
04
88
70
ENDCHAR
STARTCHAR four
ENCODING 52
SWIDTH 562 0
DWIDTH 6 0
BBX 8 9 0 0
BITMAP
02
0C
0C
14
28
48
7C
10
10
ENDCHAR
STARTCHAR five
ENCODING 53
SWIDTH 562 0
DWIDTH 6 0
BBX 8 9 0 0
BITMAP
1F
20
20
3C
44
04
04
88
70
ENDCHAR
STARTCHAR six
ENCODING 54
SWIDTH 562 0
DWIDTH 6 0
BBX 8 9 0 0
BITMAP
0E
22
20
20
78
44
44
88
70
ENDCHAR
STARTCHAR seven
ENCODING 55
SWIDTH 562 0
DWIDTH 6 0
BBX 8 9 0 0
BITMAP
1F
02
04
04
10
10
20
40
40
ENDCHAR
STARTCHAR eight
ENCODING 56
SWIDTH 562 0
DWIDTH 6 0
BBX 8 9 0 0
BITMAP
0E
22
22
22
38
44
44
88
70
ENDCHAR
STARTCHAR nine
ENCODING 57
SWIDTH 562 0
DWIDTH 6 0
BBX 8 9 0 0
BITMAP
0E
22
22
22
3C
04
04
88
70
ENDCHAR
STARTCHAR colon
ENCODING 58
SWIDTH 281 0
DWIDTH 3 0
BBX 3 6 0 0
BITMAP
20
00
00
00
00
80
ENDCHAR
STARTCHAR semicolon
ENCODING 59
SWIDTH 281 0
DWIDTH 3 0
BBX 4 7 0 -1
BITMAP
10
00
00
00
00
40
80
ENDCHAR
STARTCHAR less
ENCODING 60
SWIDTH 562 0
DWIDTH 6 0
BBX 6 7 0 0
BITMAP
04
08
20
40
20
20
10
ENDCHAR
STARTCHAR equal
ENCODING 61
SWIDTH 562 0
DWIDTH 6 0
BBX 6 3 0 2
BITMAP
7C
00
F8
ENDCHAR
STARTCHAR greater
ENCODING 62
SWIDTH 562 0
DWIDTH 6 0
BBX 6 7 0 0
BITMAP
20
10
10
08
10
40
80
ENDCHAR
STARTCHAR question
ENCODING 63
SWIDTH 562 0
DWIDTH 6 0
BBX 8 9 0 0
BITMAP
0E
22
02
02
08
10
10
00
20
ENDCHAR
STARTCHAR at
ENCODING 64
SWIDTH 1031 0
DWIDTH 11 0
BBX 13 10 0 -1
BITMAP
03C0
0C30
1020
2390
2490
4920
46E0
2000
6000
1F00
ENDCHAR
STARTCHAR A
ENCODING 65
SWIDTH 656 0
DWIDTH 7 0
BBX 10 9 -1 0
BITMAP
0200
0400
0A00
0A00
2200
2200
3E00
8200
8200
ENDCHAR
STARTCHAR B
ENCODING 66
SWIDTH 656 0
DWIDTH 7 0
BBX 8 9 0 0
BITMAP
1E
22
22
22
78
44
44
88
F0
ENDCHAR
STARTCHAR C
ENCODING 67
SWIDTH 656 0
DWIDTH 7 0
BBX 9 9 0 0
BITMAP
0F00
2100
2000
2000
4000
4000
4000
8400
7800
ENDCHAR
STARTCHAR D
ENCODING 68
SWIDTH 750 0
DWIDTH 8 0
BBX 9 9 0 0
BITMAP
1E00
2200
2100
2100
4200
4200
4200
8800
F000
ENDCHAR
STARTCHAR E
ENCODING 69
SWIDTH 656 0
DWIDTH 7 0
BBX 8 9 0 0
BITMAP
1F
20
20
20
78
40
40
80
F8
ENDCHAR
STARTCHAR F
ENCODING 70
SWIDTH 562 0
DWIDTH 6 0
BBX 8 9 0 0
BITMAP
1F
20
20
20
78
40
40
80
80
ENDCHAR
STARTCHAR G
ENCODING 71
SWIDTH 750 0
DWIDTH 8 0
BBX 9 9 0 0
BITMAP
0F00
2100
2000
2000
4E00
4200
4200
8C00
7400
ENDCHAR
STARTCHAR H
ENCODING 72
SWIDTH 750 0
DWIDTH 8 0
BBX 9 9 0 0
BITMAP
1080
2100
2100
2100
7E00
4200
4200
8400
8400
ENDCHAR
STARTCHAR I
ENCODING 73
SWIDTH 281 0
DWIDTH 3 0
BBX 4 9 0 0
BITMAP
10
20
20
20
40
40
40
80
80
ENDCHAR
STARTCHAR J
ENCODING 74
SWIDTH 468 0
DWIDTH 5 0
BBX 7 9 -1 0
BITMAP
02
04
04
04
08
08
48
90
60
ENDCHAR
STARTCHAR K
ENCODING 75
SWIDTH 656 0
DWIDTH 7 0
BBX 9 9 0 0
BITMAP
1100
2400
2800
3000
6000
5000
4800
8800
8400
ENDCHAR
STARTCHAR L
ENCODING 76
SWIDTH 562 0
DWIDTH 6 0
BBX 8 9 0 0
BITMAP
10
20
20
20
40
40
40
80
F8
ENDCHAR
STARTCHAR M
ENCODING 77
SWIDTH 843 0
DWIDTH 9 0
BBX 10 9 0 0
BITMAP
1040
2080
3180
3180
5500
5500
4900
9200
8200
ENDCHAR
STARTCHAR N
ENCODING 78
SWIDTH 750 0
DWIDTH 8 0
BBX 9 9 0 0
BITMAP
1080
3100
3100
2900
5200
4A00
4600
8C00
8400
ENDCHAR
STARTCHAR O
ENCODING 79
SWIDTH 750 0
DWIDTH 8 0
BBX 9 9 0 0
BITMAP
0F00
2100
2100
2100
4200
4200
4200
8400
7800
ENDCHAR
STARTCHAR P
ENCODING 80
SWIDTH 656 0
DWIDTH 7 0
BBX 9 9 0 0
BITMAP
1F00
2100
2100
2100
7C00
4000
4000
8000
8000
ENDCHAR
STARTCHAR Q
ENCODING 81
SWIDTH 750 0
DWIDTH 8 0
BBX 9 10 0 -1
BITMAP
0F00
1080
2100
2100
2100
4200
4A00
4600
7800
0400
ENDCHAR
STARTCHAR R
ENCODING 82
SWIDTH 750 0
DWIDTH 8 0
BBX 9 9 0 0
BITMAP
1F00
2100
2100
2100
7C00
4200
4200
8400
8400
ENDCHAR
STARTCHAR S
ENCODING 83
SWIDTH 656 0
DWIDTH 7 0
BBX 8 9 0 0
BITMAP
0E
22
20
20
38
04
04
88
70
ENDCHAR
STARTCHAR T
ENCODING 84
SWIDTH 656 0
DWIDTH 7 0
BBX 8 9 0 0
BITMAP
1F
08
08
08
10
10
10
20
20
ENDCHAR
STARTCHAR U
ENCODING 85
SWIDTH 750 0
DWIDTH 8 0
BBX 9 9 0 0
BITMAP
1080
2100
2100
2100
4200
4200
4200
8400
7800
ENDCHAR
STARTCHAR V
ENCODING 86
SWIDTH 656 0
DWIDTH 7 0
BBX 10 9 -1 0
BITMAP
1040
2080
1100
1100
2200
1400
1400
1000
1000
ENDCHAR
STARTCHAR W
ENCODING 87
SWIDTH 1031 0
DWIDTH 11 0
BBX 14 9 -1 0
BITMAP
1004
2008
1110
1110
2220
1540
1540
1100
1100
ENDCHAR
STARTCHAR X
ENCODING 88
SWIDTH 656 0
DWIDTH 7 0
BBX 10 9 -1 0
BITMAP
1040
2080
1100
0A00
0800
1400
2200
8200
8200
ENDCHAR
STARTCHAR Y
ENCODING 89
SWIDTH 656 0
DWIDTH 7 0
BBX 10 9 -1 0
BITMAP
1040
2080
1100
0A00
0800
0800
0800
1000
1000
ENDCHAR
STARTCHAR Z
ENCODING 90
SWIDTH 656 0
DWIDTH 7 0
BBX 10 9 -1 0
BITMAP
1FC0
0080
0100
0200
0800
1000
2000
8000
FE00
ENDCHAR
STARTCHAR bracketleft
ENCODING 91
SWIDTH 281 0
DWIDTH 3 0
BBX 5 11 0 -2
BITMAP
18
10
10
20
20
20
40
40
40
80
C0
ENDCHAR
STARTCHAR backslash
ENCODING 92
SWIDTH 281 0
DWIDTH 3 0
BBX 5 10 0 -1
BITMAP
10
10
20
20
20
20
20
20
40
40
ENDCHAR
STARTCHAR bracketright
ENCODING 93
SWIDTH 281 0
DWIDTH 3 0
BBX 5 11 0 -2
BITMAP
18
08
08
10
10
10
20
20
20
40
C0
ENDCHAR
STARTCHAR asciicircum
ENCODING 94
SWIDTH 562 0
DWIDTH 6 0
BBX 6 3 0 7
BITMAP
10
50
88
ENDCHAR
STARTCHAR underscore
ENCODING 95
SWIDTH 562 0
DWIDTH 6 0
BBX 6 1 -1 -2
BITMAP
FC
ENDCHAR
STARTCHAR quoteleft
ENCODING 96
SWIDTH 281 0
DWIDTH 3 0
BBX 2 2 0 7
BITMAP
80
40
ENDCHAR
STARTCHAR a
ENCODING 97
SWIDTH 562 0
DWIDTH 6 0
BBX 7 6 0 0
BITMAP
1C
04
3C
44
88
78
ENDCHAR
STARTCHAR b
ENCODING 98
SWIDTH 562 0
DWIDTH 6 0
BBX 8 9 0 0
BITMAP
10
20
20
3C
44
44
44
88
F0
ENDCHAR
STARTCHAR c
ENCODING 99
SWIDTH 562 0
DWIDTH 6 0
BBX 7 6 0 0
BITMAP
1C
44
40
40
88
70
ENDCHAR
STARTCHAR d
ENCODING 100
SWIDTH 562 0
DWIDTH 6 0
BBX 8 9 0 0
BITMAP
01
02
02
1E
44
44
44
88
78
ENDCHAR
STARTCHAR e
ENCODING 101
SWIDTH 562 0
DWIDTH 6 0
BBX 7 6 0 0
BITMAP
1C
44
7C
40
88
70
ENDCHAR
STARTCHAR f
ENCODING 102
SWIDTH 281 0
DWIDTH 3 0
BBX 5 9 0 0
BITMAP
08
20
20
30
40
40
40
80
80
ENDCHAR
STARTCHAR g
ENCODING 103
SWIDTH 562 0
DWIDTH 6 0
BBX 7 8 0 -2
BITMAP
1E
22
22
44
44
3C
08
F0
ENDCHAR
STARTCHAR h
ENCODING 104
SWIDTH 562 0
DWIDTH 6 0
BBX 8 9 0 0
BITMAP
10
20
20
2C
64
44
44
88
88
ENDCHAR
STARTCHAR i
ENCODING 105
SWIDTH 187 0
DWIDTH 2 0
BBX 4 9 0 0
BITMAP
10
00
00
20
40
40
40
80
80
ENDCHAR
STARTCHAR j
ENCODING 106
SWIDTH 187 0
DWIDTH 2 0
BBX 4 11 0 -2
BITMAP
10
00
00
20
20
20
40
40
40
80
80
ENDCHAR
STARTCHAR k
ENCODING 107
SWIDTH 562 0
DWIDTH 6 0
BBX 8 9 0 0
BITMAP
10
20
20
24
50
60
50
90
88
ENDCHAR
STARTCHAR l
ENCODING 108
SWIDTH 187 0
DWIDTH 2 0
BBX 4 9 0 0
BITMAP
10
20
20
20
40
40
40
80
80
ENDCHAR
STARTCHAR m
ENCODING 109
SWIDTH 750 0
DWIDTH 8 0
BBX 9 6 0 0
BITMAP
3B00
4900
4900
4900
9200
9200
ENDCHAR
STARTCHAR n
ENCODING 110
SWIDTH 562 0
DWIDTH 6 0
BBX 7 6 0 0
BITMAP
2C
64
44
44
88
88
ENDCHAR
STARTCHAR o
ENCODING 111
SWIDTH 562 0
DWIDTH 6 0
BBX 7 6 0 0
BITMAP
1C
44
44
44
88
70
ENDCHAR
STARTCHAR p
ENCODING 112
SWIDTH 562 0
DWIDTH 6 0
BBX 7 8 0 -2
BITMAP
3C
22
22
44
44
78
80
80
ENDCHAR
STARTCHAR q
ENCODING 113
SWIDTH 562 0
DWIDTH 6 0
BBX 7 8 0 -2
BITMAP
1E
22
22
44
44
3C
08
08
ENDCHAR
STARTCHAR r
ENCODING 114
SWIDTH 281 0
DWIDTH 3 0
BBX 4 6 0 0
BITMAP
30
40
40
40
80
80
ENDCHAR
STARTCHAR s
ENCODING 115
SWIDTH 468 0
DWIDTH 5 0
BBX 6 6 0 0
BITMAP
18
48
20
10
90
60
ENDCHAR
STARTCHAR t
ENCODING 116
SWIDTH 281 0
DWIDTH 3 0
BBX 4 8 0 0
BITMAP
20
20
30
40
40
40
80
40
ENDCHAR
STARTCHAR u
ENCODING 117
SWIDTH 562 0
DWIDTH 6 0
BBX 7 6 0 0
BITMAP
22
44
44
44
98
68
ENDCHAR
STARTCHAR v
ENCODING 118
SWIDTH 562 0
DWIDTH 6 0
BBX 7 6 0 0
BITMAP
22
44
28
28
20
20
ENDCHAR
STARTCHAR w
ENCODING 119
SWIDTH 750 0
DWIDTH 8 0
BBX 9 6 0 0
BITMAP
2480
4900
5500
5500
4400
4400
ENDCHAR
STARTCHAR x
ENCODING 120
SWIDTH 468 0
DWIDTH 5 0
BBX 6 6 0 0
BITMAP
24
48
30
30
90
90
ENDCHAR
STARTCHAR y
ENCODING 121
SWIDTH 468 0
DWIDTH 5 0
BBX 7 8 -1 -2
BITMAP
12
12
12
24
18
10
20
C0
ENDCHAR
STARTCHAR z
ENCODING 122
SWIDTH 468 0
DWIDTH 5 0
BBX 6 6 0 0
BITMAP
3C
08
10
20
80
F0
ENDCHAR
STARTCHAR braceleft
ENCODING 123
SWIDTH 375 0
DWIDTH 4 0
BBX 6 11 0 -1
BITMAP
04
08
08
10
10
20
20
20
20
40
20
ENDCHAR
STARTCHAR bar
ENCODING 124
SWIDTH 187 0
DWIDTH 2 0
BBX 4 10 0 -1
BITMAP
10
10
20
20
20
40
40
40
80
80
ENDCHAR
STARTCHAR braceright
ENCODING 125
SWIDTH 375 0
DWIDTH 4 0
BBX 6 11 0 -1
BITMAP
10
08
08
10
10
08
20
20
20
40
80
ENDCHAR
STARTCHAR asciitilde
ENCODING 126
SWIDTH 562 0
DWIDTH 6 0
BBX 5 2 0 6
BITMAP
68
B0
ENDCHAR
STARTCHAR nbsp
ENCODING 154
SWIDTH 281 0
DWIDTH 3 0
BBX 0 0 -1 0
BITMAP
ENDCHAR
STARTCHAR degree
ENCODING 156
SWIDTH 375 0
DWIDTH 4 0
BBX 4 3 0 6
BITMAP
20
A0
40
ENDCHAR
STARTCHAR twosuperior
ENCODING 157
SWIDTH 281 0
DWIDTH 3 0
BBX 4 5 -1 4
BITMAP
60
10
20
80
E0
ENDCHAR
STARTCHAR cyr-yo
ENCODING 163
SWIDTH 562 0
DWIDTH 6 0
BBX 7 8 0 0
BITMAP
14
00
1C
44
7C
40
88
70
ENDCHAR
STARTCHAR cyr-Yo
ENCODING 179
SWIDTH 656 0
DWIDTH 7 0
BBX 8 11 0 0
BITMAP
0A
00
1F
20
20
20
78
40
40
80
F8
ENDCHAR
STARTCHAR copyright
ENCODING 191
SWIDTH 750 0
DWIDTH 8 0
BBX 9 7 0 2
BITMAP
0E00
1100
4D00
5100
4D00
4400
3800
ENDCHAR
STARTCHAR cyr-yu
ENCODING 192
SWIDTH 656 0
DWIDTH 7 0
BBX 8 6 0 0
BITMAP
26
52
72
52
A4
98
ENDCHAR
STARTCHAR cyr-a
ENCODING 193
SWIDTH 562 0
DWIDTH 6 0
BBX 7 6 0 0
BITMAP
1C
04
3C
44
88
78
ENDCHAR
STARTCHAR cyr-be
ENCODING 194
SWIDTH 562 0
DWIDTH 6 0
BBX 8 9 0 0
BITMAP
01
1C
20
3C
44
44
44
88
70
ENDCHAR
STARTCHAR cyr-tse
ENCODING 195
SWIDTH 656 0
DWIDTH 7 0
BBX 8 7 0 -1
BITMAP
22
22
44
44
44
FC
04
ENDCHAR
STARTCHAR cyr-de
ENCODING 196
SWIDTH 656 0
DWIDTH 7 0
BBX 8 7 0 -1
BITMAP
1E
12
24
24
24
FC
84
ENDCHAR
STARTCHAR cyr-ie
ENCODING 197
SWIDTH 562 0
DWIDTH 6 0
BBX 7 6 0 0
BITMAP
1C
44
7C
40
88
70
ENDCHAR
STARTCHAR cyr-ef
ENCODING 198
SWIDTH 562 0
DWIDTH 6 0
BBX 8 9 0 -2
BITMAP
04
1C
2A
2A
54
54
38
20
20
ENDCHAR
STARTCHAR cyr-ghe
ENCODING 199
SWIDTH 468 0
DWIDTH 5 0
BBX 6 6 0 0
BITMAP
3C
40
40
40
80
80
ENDCHAR
STARTCHAR cyr-kha
ENCODING 200
SWIDTH 468 0
DWIDTH 5 0
BBX 6 6 0 0
BITMAP
24
48
30
30
90
90
ENDCHAR
STARTCHAR cyr-i
ENCODING 201
SWIDTH 562 0
DWIDTH 6 0
BBX 7 6 0 0
BITMAP
22
44
4C
54
C8
88
ENDCHAR
STARTCHAR cyr-i-short
ENCODING 202
SWIDTH 562 0
DWIDTH 6 0
BBX 7 8 0 0
BITMAP
14
08
22
44
4C
54
C8
88
ENDCHAR
STARTCHAR cyr-ka
ENCODING 203
SWIDTH 562 0
DWIDTH 6 0
BBX 7 6 0 0
BITMAP
24
50
60
50
90
88
ENDCHAR
STARTCHAR cyr-el
ENCODING 204
SWIDTH 656 0
DWIDTH 7 0
BBX 8 6 0 0
BITMAP
1F
22
22
22
44
84
ENDCHAR
STARTCHAR cyr-em
ENCODING 205
SWIDTH 750 0
DWIDTH 8 0
BBX 9 6 0 0
BITMAP
2080
3180
5500
4900
4100
8200
ENDCHAR
STARTCHAR cyr-en
ENCODING 206
SWIDTH 562 0
DWIDTH 6 0
BBX 7 6 0 0
BITMAP
22
44
7C
44
88
88
ENDCHAR
STARTCHAR cyr-o
ENCODING 207
SWIDTH 562 0
DWIDTH 6 0
BBX 7 6 0 0
BITMAP
1C
44
44
44
88
70
ENDCHAR
STARTCHAR cyr-pe
ENCODING 208
SWIDTH 562 0
DWIDTH 6 0
BBX 7 6 0 0
BITMAP
3E
44
44
44
88
88
ENDCHAR
STARTCHAR cyr-ya
ENCODING 209
SWIDTH 468 0
DWIDTH 5 0
BBX 6 6 0 0
BITMAP
1C
48
48
38
90
90
ENDCHAR
STARTCHAR cyr-er
ENCODING 210
SWIDTH 562 0
DWIDTH 6 0
BBX 7 8 0 -2
BITMAP
3C
22
22
44
44
78
80
80
ENDCHAR
STARTCHAR cyr-es
ENCODING 211
SWIDTH 562 0
DWIDTH 6 0
BBX 7 6 0 0
BITMAP
1C
44
40
40
88
70
ENDCHAR
STARTCHAR cyr-te
ENCODING 212
SWIDTH 562 0
DWIDTH 6 0
BBX 7 6 0 0
BITMAP
3E
10
10
10
20
20
ENDCHAR
STARTCHAR cyr-u
ENCODING 213
SWIDTH 468 0
DWIDTH 5 0
BBX 7 8 -1 -2
BITMAP
12
12
12
24
18
10
20
C0
ENDCHAR
STARTCHAR cyr-zhe
ENCODING 214
SWIDTH 750 0
DWIDTH 8 0
BBX 9 6 0 0
BITMAP
2480
2A00
1C00
2A00
9200
9200
ENDCHAR
STARTCHAR cyr-ve
ENCODING 215
SWIDTH 562 0
DWIDTH 6 0
BBX 7 6 0 0
BITMAP
3C
44
78
44
88
F0
ENDCHAR
STARTCHAR cyr-ierik
ENCODING 216
SWIDTH 468 0
DWIDTH 5 0
BBX 6 6 0 0
BITMAP
20
40
70
48
90
E0
ENDCHAR
STARTCHAR cyr-iery
ENCODING 217
SWIDTH 656 0
DWIDTH 7 0
BBX 8 6 0 0
BITMAP
21
42
72
4A
94
E4
ENDCHAR
STARTCHAR cyr-z
ENCODING 218
SWIDTH 562 0
DWIDTH 6 0
BBX 7 6 0 0
BITMAP
1C
44
18
04
88
70
ENDCHAR
STARTCHAR cyr-sha
ENCODING 219
SWIDTH 750 0
DWIDTH 8 0
BBX 9 6 0 0
BITMAP
2480
4900
4900
4900
9200
FE00
ENDCHAR
STARTCHAR cyr-e-rev
ENCODING 220
SWIDTH 468 0
DWIDTH 5 0
BBX 6 6 0 0
BITMAP
38
08
78
08
10
E0
ENDCHAR
STARTCHAR cyr-shcha
ENCODING 221
SWIDTH 843 0
DWIDTH 9 0
BBX 10 7 0 -1
BITMAP
2480
2480
4900
4900
4900
FF00
0100
ENDCHAR
STARTCHAR cyr-che
ENCODING 222
SWIDTH 562 0
DWIDTH 6 0
BBX 7 6 0 0
BITMAP
22
44
44
3C
08
08
ENDCHAR
STARTCHAR cyr-ier
ENCODING 223
SWIDTH 562 0
DWIDTH 6 0
BBX 7 6 0 0
BITMAP
30
20
38
24
48
70
ENDCHAR
STARTCHAR cyr-Yu
ENCODING 224
SWIDTH 937 0
DWIDTH 10 0
BBX 11 9 0 0
BITMAP
13C0
2840
2840
2840
7080
5080
5080
A100
9E00
ENDCHAR
STARTCHAR cyr-A
ENCODING 225
SWIDTH 656 0
DWIDTH 7 0
BBX 10 9 -1 0
BITMAP
0200
0400
0A00
0A00
2200
2200
3E00
8200
8200
ENDCHAR
STARTCHAR cyr-Be
ENCODING 226
SWIDTH 656 0
DWIDTH 7 0
BBX 8 9 0 0
BITMAP
1F
20
20
20
78
44
44
88
F0
ENDCHAR
STARTCHAR cyr-Tse
ENCODING 227
SWIDTH 750 0
DWIDTH 8 0
BBX 10 10 0 -1
BITMAP
1080
1080
2100
2100
2100
4200
4200
4200
FE00
0200
ENDCHAR
STARTCHAR cyr-De
ENCODING 228
SWIDTH 937 0
DWIDTH 10 0
BBX 11 10 0 -1
BITMAP
07C0
0440
0880
0880
0880
1100
1100
2100
FF00
8100
ENDCHAR
STARTCHAR cyr-Ie
ENCODING 229
SWIDTH 656 0
DWIDTH 7 0
BBX 8 9 0 0
BITMAP
1F
20
20
20
78
40
40
80
F8
ENDCHAR
STARTCHAR cyr-Ef
ENCODING 230
SWIDTH 843 0
DWIDTH 9 0
BBX 10 9 0 0
BITMAP
0F80
2480
2480
2480
4900
4900
4900
7C00
1000
ENDCHAR
STARTCHAR cyr-Ghe
ENCODING 231
SWIDTH 656 0
DWIDTH 7 0
BBX 8 9 0 0
BITMAP
1F
20
20
20
40
40
40
80
80
ENDCHAR
STARTCHAR cyr-Kha
ENCODING 232
SWIDTH 656 0
DWIDTH 7 0
BBX 10 9 -1 0
BITMAP
1040
2080
1100
0A00
0800
1400
2200
8200
8200
ENDCHAR
STARTCHAR cyr-I
ENCODING 233
SWIDTH 750 0
DWIDTH 8 0
BBX 9 9 0 0
BITMAP
1080
2300
2300
2500
5200
5200
6200
C400
8400
ENDCHAR
STARTCHAR cyr-I-short
ENCODING 234
SWIDTH 750 0
DWIDTH 8 0
BBX 9 11 0 0
BITMAP
0900
0600
1080
2300
2300
2500
5200
5200
6200
C400
8400
ENDCHAR
STARTCHAR cyr-Ka
ENCODING 235
SWIDTH 656 0
DWIDTH 7 0
BBX 9 9 0 0
BITMAP
1100
2400
2800
3000
6000
5000
4800
8800
8400
ENDCHAR
STARTCHAR cyr-El
ENCODING 236
SWIDTH 843 0
DWIDTH 9 0
BBX 10 9 0 0
BITMAP
0FC0
1080
1080
1080
2100
2100
2100
4200
8200
ENDCHAR
STARTCHAR cyr-Em
ENCODING 237
SWIDTH 843 0
DWIDTH 9 0
BBX 10 9 0 0
BITMAP
1040
2080
3180
3180
5500
5500
4900
9200
8200
ENDCHAR
STARTCHAR cyr-En
ENCODING 238
SWIDTH 750 0
DWIDTH 8 0
BBX 9 9 0 0
BITMAP
1080
2100
2100
2100
7E00
4200
4200
8400
8400
ENDCHAR
STARTCHAR cyr-O
ENCODING 239
SWIDTH 750 0
DWIDTH 8 0
BBX 9 9 0 0
BITMAP
0F00
2100
2100
2100
4200
4200
4200
8400
7800
ENDCHAR
STARTCHAR cyr-Pe
ENCODING 240
SWIDTH 750 0
DWIDTH 8 0
BBX 9 9 0 0
BITMAP
1F80
2100
2100
2100
4200
4200
4200
8400
8400
ENDCHAR
STARTCHAR cyr-Ya
ENCODING 241
SWIDTH 750 0
DWIDTH 8 0
BBX 9 9 0 0
BITMAP
0F80
2100
2100
2100
3E00
0A00
1200
4400
8400
ENDCHAR
STARTCHAR cyr-Er
ENCODING 242
SWIDTH 656 0
DWIDTH 7 0
BBX 9 9 0 0
BITMAP
1F00
2100
2100
2100
7C00
4000
4000
8000
8000
ENDCHAR
STARTCHAR cyr-Es
ENCODING 243
SWIDTH 656 0
DWIDTH 7 0
BBX 9 9 0 0
BITMAP
0F00
2100
2000
2000
4000
4000
4000
8400
7800
ENDCHAR
STARTCHAR cyr-Te
ENCODING 244
SWIDTH 656 0
DWIDTH 7 0
BBX 8 9 0 0
BITMAP
1F
08
08
08
10
10
10
20
20
ENDCHAR
STARTCHAR cyr-U
ENCODING 245
SWIDTH 656 0
DWIDTH 7 0
BBX 10 9 -1 0
BITMAP
1040
2080
1100
0A00
0800
0800
1000
4000
8000
ENDCHAR
STARTCHAR cyr-Zhe
ENCODING 246
SWIDTH 1031 0
DWIDTH 11 0
BBX 14 9 -1 0
BITMAP
1084
1110
0920
0540
0F80
0A80
1240
4440
8420
ENDCHAR
STARTCHAR cyr-Ve
ENCODING 247
SWIDTH 656 0
DWIDTH 7 0
BBX 8 9 0 0
BITMAP
1E
22
22
22
78
44
44
88
F0
ENDCHAR
STARTCHAR cyr-Ierik
ENCODING 248
SWIDTH 656 0
DWIDTH 7 0
BBX 9 9 0 0
BITMAP
1000
2000
2000
2000
7C00
4200
4200
8400
F800
ENDCHAR
STARTCHAR cyr-Iery
ENCODING 249
SWIDTH 937 0
DWIDTH 10 0
BBX 11 9 0 0
BITMAP
1020
2040
2040
2040
7C80
4280
4280
8500
F900
ENDCHAR
STARTCHAR cyr-Ze
ENCODING 250
SWIDTH 656 0
DWIDTH 7 0
BBX 8 9 0 0
BITMAP
0E
22
02
02
38
04
04
88
70
ENDCHAR
STARTCHAR cyr-Sha
ENCODING 251
SWIDTH 1031 0
DWIDTH 11 0
BBX 12 9 0 0
BITMAP
1110
2220
2220
2220
4440
4440
4440
8880
FF80
ENDCHAR
STARTCHAR cyr-E-rev
ENCODING 252
SWIDTH 750 0
DWIDTH 8 0
BBX 9 9 0 0
BITMAP
0F00
2100
0100
0100
1E00
0200
0200
8400
7800
ENDCHAR
STARTCHAR cyr-Shcha
ENCODING 253
SWIDTH 1031 0
DWIDTH 11 0
BBX 13 10 0 -1
BITMAP
1110
1110
2220
2220
2220
4440
4440
4440
FFC0
0040
ENDCHAR
STARTCHAR cyr-Che
ENCODING 254
SWIDTH 750 0
DWIDTH 8 0
BBX 9 9 0 0
BITMAP
1080
2100
2100
2100
3E00
0200
0200
0400
0400
ENDCHAR
STARTCHAR cyr-Ier
ENCODING 255
SWIDTH 750 0
DWIDTH 8 0
BBX 11 9 -1 0
BITMAP
1C00
0800
0800
0800
1F00
1080
1080
2100
3E00
ENDCHAR
ENDFONT
