STARTFONT 2.1
COMMENT Copyright (C) 1990-1991 EWT Consulting
COMMENT Portions Copyright (C) 1994-1995 Cronyx Ltd.
COMMENT Changes Copyright (C) 1996-1997 by Andrey A. Chernov, Moscow, Russia.
COMMENT Modified by Serge Vakulenko, <vak@cronyx.ru>
COMMENT This software may be used, modified, copied, distributed, and sold,
COMMENT in both source and binary form provided that the copyright
COMMENT and these terms are retained. Under no circumstances is the author
COMMENT responsible for the proper functioning of this software, nor does
COMMENT the author assume any responsibility for damages incurred with its use.
COMMENT $XFree86: xc/fonts/bdf/cyrillic/crox4to.bdf,v 3.2.4.1 1998/02/01 16:03:59 robin Exp $
FONT -Cronyx-Times-Medium-I-Normal--20-140-100-100-P-74-KOI8-R
SIZE 14 96 96
FONTBOUNDINGBOX 24 21 -1 -5
STARTPROPERTIES 20
DEFAULT_CHAR 32
FONT_ASCENT 16
FONT_DESCENT 5
SPACING "P"
FONTNAME_REGISTRY ""
FOUNDRY "Cronyx"
FAMILY_NAME "Times"
WEIGHT_NAME "Medium"
SLANT "I"
SETWIDTH_NAME "Normal"
ADD_STYLE_NAME ""
AVERAGE_WIDTH 74
CHARSET_REGISTRY "KOI8"
CHARSET_ENCODING "R"
PIXEL_SIZE 20
POINT_SIZE 140
RESOLUTION_X 100
RESOLUTION_Y 100
COPYRIGHT "Copyright (C) 1990, 1991 EWT Consulting, Portions Copyright (C) 1994 Cronyx Ltd., Portions Copyright (C) 1996-1997 by Andrey A. Chernov, Moscow, Russia."
_XMBDFED_INFO "Edited with xmbdfed 2.7."
ENDPROPERTIES
CHARS 165
STARTCHAR space
ENCODING 32
SWIDTH 214 0
DWIDTH 4 0
BBX 0 0 -1 0
BITMAP
ENDCHAR
STARTCHAR exclam
ENCODING 33
SWIDTH 214 0
DWIDTH 4 0
BBX 6 13 0 0
BITMAP
0C
0C
18
18
18
30
30
30
60
00
00
C0
C0
ENDCHAR
STARTCHAR quotedbl
ENCODING 34
SWIDTH 428 0
DWIDTH 8 0
BBX 7 4 0 9
BITMAP
66
66
CC
CC
ENDCHAR
STARTCHAR numbersign
ENCODING 35
SWIDTH 482 0
DWIDTH 9 0
BBX 13 14 -1 0
BITMAP
01B0
01B0
01B0
0360
0FF0
06C0
0D80
0D80
0D80
7F80
3600
3600
6C00
6C00
ENDCHAR
STARTCHAR dollar
ENCODING 36
SWIDTH 482 0
DWIDTH 9 0
BBX 12 17 0 -2
BITMAP
0080
0080
01E0
0560
0D20
0D20
1E00
0F00
0780
0700
0580
2580
4B00
6A00
3C00
1000
1000
ENDCHAR
STARTCHAR percent
ENCODING 37
SWIDTH 803 0
DWIDTH 15 0
BBX 17 13 0 0
BITMAP
038300
06FE00
189800
189800
193000
1CC000
00C000
019C00
066400
06C400
0CC400
319000
30E000
ENDCHAR
STARTCHAR ampersand
ENCODING 38
SWIDTH 750 0
DWIDTH 14 0
BBX 17 13 0 0
BITMAP
01E000
033000
062000
066000
03C000
071C00
0F0800
198800
61A000
60C000
60C000
63C800
3E7000
ENDCHAR
STARTCHAR quoteright
ENCODING 39
SWIDTH 214 0
DWIDTH 4 0
BBX 3 4 0 9
BITMAP
60
60
C0
C0
ENDCHAR
STARTCHAR parenleft
ENCODING 40
SWIDTH 321 0
DWIDTH 6 0
BBX 10 19 0 -4
BITMAP
0040
00C0
0100
0300
0300
0400
0C00
0C00
1800
1800
1800
3000
3000
1000
3000
3000
1000
3000
1000
ENDCHAR
STARTCHAR parenright
ENCODING 41
SWIDTH 321 0
DWIDTH 6 0
BBX 10 19 0 -4
BITMAP
0200
0300
0200
0300
0300
0200
0300
0300
0600
0600
0600
0C00
0C00
0800
3000
3000
2000
C000
8000
ENDCHAR
STARTCHAR asterisk
ENCODING 42
SWIDTH 482 0
DWIDTH 9 0
BBX 7 7 1 7
BITMAP
08
2A
7C
38
7C
A8
20
ENDCHAR
STARTCHAR plus
ENCODING 43
SWIDTH 535 0
DWIDTH 10 0
BBX 10 8 0 3
BITMAP
0600
0600
0600
7F80
7F80
0C00
1800
1800
ENDCHAR
STARTCHAR comma
ENCODING 44
SWIDTH 214 0
DWIDTH 4 0
BBX 3 5 0 -3
BITMAP
60
60
20
40
80
ENDCHAR
STARTCHAR minus
ENCODING 45
SWIDTH 321 0
DWIDTH 6 0
BBX 4 2 0 6
BITMAP
F0
F0
ENDCHAR
STARTCHAR period
ENCODING 46
SWIDTH 214 0
DWIDTH 4 0
BBX 2 2 0 0
BITMAP
C0
C0
ENDCHAR
STARTCHAR slash
ENCODING 47
SWIDTH 267 0
DWIDTH 5 0
BBX 10 16 -1 -2
BITMAP
00C0
00C0
0180
0180
0300
0600
0600
0600
1800
1800
1800
3000
6000
6000
C000
C000
ENDCHAR
STARTCHAR zero
ENCODING 48
SWIDTH 482 0
DWIDTH 9 0
BBX 11 13 0 0
BITMAP
0380
06C0
18C0
18C0
18C0
3180
3180
3180
6300
6300
6300
6C00
3800
ENDCHAR
STARTCHAR one
ENCODING 49
SWIDTH 482 0
DWIDTH 9 0
BBX 10 13 1 0
BITMAP
0100
0300
1E00
0600
0600
0C00
0C00
0C00
1800
1800
1800
3000
FC00
ENDCHAR
STARTCHAR two
ENCODING 50
SWIDTH 482 0
DWIDTH 9 0
BBX 11 13 0 0
BITMAP
0380
07C0
11C0
00C0
00C0
0300
0200
0600
1800
1000
2100
FE00
FC00
ENDCHAR
STARTCHAR three
ENCODING 51
SWIDTH 482 0
DWIDTH 9 0
BBX 11 13 0 0
BITMAP
0380
04C0
10C0
00C0
0080
0200
0F00
0380
0300
0300
0300
CC00
7800
ENDCHAR
STARTCHAR four
ENCODING 52
SWIDTH 482 0
DWIDTH 9 0
BBX 11 13 0 0
BITMAP
00C0
00C0
0380
0380
0580
0B00
1300
1300
7F00
7F00
0600
0C00
0C00
ENDCHAR
STARTCHAR five
ENCODING 53
SWIDTH 482 0
DWIDTH 9 0
BBX 11 13 0 0
BITMAP
03E0
03E0
0800
0800
1F00
3F00
0380
0180
0300
0300
0300
CC00
7800
ENDCHAR
STARTCHAR six
ENCODING 54
SWIDTH 482 0
DWIDTH 9 0
BBX 11 13 0 0
BITMAP
01C0
0300
0C00
0C00
1800
3600
3B00
3180
6300
6300
6300
6C00
3800
ENDCHAR
STARTCHAR seven
ENCODING 55
SWIDTH 482 0
DWIDTH 9 0
BBX 11 13 0 0
BITMAP
07E0
07E0
1180
0180
0300
0600
0600
0C00
1800
1800
3000
6000
6000
ENDCHAR
STARTCHAR eight
ENCODING 56
SWIDTH 482 0
DWIDTH 9 0
BBX 11 13 0 0
BITMAP
0380
06C0
18C0
18C0
1C80
1E00
0F00
1380
6300
6300
6300
6C00
3800
ENDCHAR
STARTCHAR nine
ENCODING 57
SWIDTH 482 0
DWIDTH 9 0
BBX 11 13 0 0
BITMAP
0380
06C0
18C0
18C0
18C0
3180
1B80
0D80
0300
0200
0600
1800
7000
ENDCHAR
STARTCHAR colon
ENCODING 58
SWIDTH 267 0
DWIDTH 5 0
BBX 5 9 0 0
BITMAP
18
30
00
00
00
00
00
C0
C0
ENDCHAR
STARTCHAR semicolon
ENCODING 59
SWIDTH 267 0
DWIDTH 5 0
BBX 6 12 0 -3
BITMAP
0C
18
00
00
00
00
00
60
60
20
40
80
ENDCHAR
STARTCHAR less
ENCODING 60
SWIDTH 535 0
DWIDTH 10 0
BBX 11 9 0 2
BITMAP
0060
0380
0700
1C00
7000
3800
0E00
0E00
0300
ENDCHAR
STARTCHAR equal
ENCODING 61
SWIDTH 535 0
DWIDTH 10 0
BBX 10 6 0 3
BITMAP
3FC0
7F80
0000
0000
FF00
FF00
ENDCHAR
STARTCHAR greater
ENCODING 62
SWIDTH 535 0
DWIDTH 10 0
BBX 11 9 0 2
BITMAP
1800
1C00
0E00
0380
0380
0700
1C00
7000
C000
ENDCHAR
STARTCHAR question
ENCODING 63
SWIDTH 428 0
DWIDTH 8 0
BBX 10 13 0 0
BITMAP
0780
08C0
1980
1980
0180
0600
0600
0C00
1000
1000
0000
3000
3000
ENDCHAR
STARTCHAR at
ENCODING 64
SWIDTH 910 0
DWIDTH 17 0
BBX 20 15 0 -2
BITMAP
003E00
01C700
030180
0600C0
0C6D80
18DCC0
198CC0
331180
333180
31BB00
319C00
300000
180000
1C3000
07C000
ENDCHAR
STARTCHAR A
ENCODING 65
SWIDTH 642 0
DWIDTH 12 0
BBX 16 13 -1 0
BITMAP
0040
0060
01C0
0160
0160
04C0
0460
0860
1FE0
1060
2060
4060
E0F0
ENDCHAR
STARTCHAR B
ENCODING 66
SWIDTH 696 0
DWIDTH 13 0
BBX 15 13 0 0
BITMAP
0FE0
0618
0C18
0C18
0C18
1860
1FE0
1830
3030
3030
3030
60C0
FF00
ENDCHAR
STARTCHAR C
ENCODING 67
SWIDTH 696 0
DWIDTH 13 0
BBX 15 13 0 0
BITMAP
00F4
038C
0C08
0C00
1800
3000
3000
3000
6000
3000
3010
38C0
0F00
ENDCHAR
STARTCHAR D
ENCODING 68
SWIDTH 750 0
DWIDTH 14 0
BBX 16 13 0 0
BITMAP
0FF0
060C
0C0C
0C0C
0C06
180C
180C
180C
3018
3030
3030
60C0
FF00
ENDCHAR
STARTCHAR E
ENCODING 69
SWIDTH 642 0
DWIDTH 12 0
BBX 14 13 0 0
BITMAP
0FF8
0608
0C00
0C00
0C00
1840
1FC0
1840
3000
3000
3000
6040
FF80
ENDCHAR
STARTCHAR F
ENCODING 70
SWIDTH 589 0
DWIDTH 11 0
BBX 13 13 0 0
BITMAP
0FF8
0608
0C00
0C00
0C00
1840
1FC0
1840
3000
3000
3000
6000
F000
ENDCHAR
STARTCHAR G
ENCODING 71
SWIDTH 750 0
DWIDTH 14 0
BBX 16 13 0 0
BITMAP
00F4
038C
0C08
0C00
1800
3000
3000
303C
6030
3030
3030
38E0
0F80
ENDCHAR
STARTCHAR H
ENCODING 72
SWIDTH 750 0
DWIDTH 14 0
BBX 16 13 0 0
BITMAP
0F0F
0606
0C0C
0C0C
0C0C
1818
1FF8
1818
3030
3030
3030
6060
F0F0
ENDCHAR
STARTCHAR I
ENCODING 73
SWIDTH 321 0
DWIDTH 6 0
BBX 8 13 0 0
BITMAP
0F
06
0C
0C
0C
18
18
18
30
30
30
60
F0
ENDCHAR
STARTCHAR J
ENCODING 74
SWIDTH 428 0
DWIDTH 8 0
BBX 10 13 0 0
BITMAP
03C0
0180
0300
0300
0300
0600
0600
0600
0C00
0C00
6C00
D800
7000
ENDCHAR
STARTCHAR K
ENCODING 75
SWIDTH 696 0
DWIDTH 13 0
BBX 16 13 0 0
BITMAP
0F3E
0618
0C60
0CC0
0D80
1F00
1D80
19C0
3180
30C0
30E0
60C0
F3F0
ENDCHAR
STARTCHAR L
ENCODING 76
SWIDTH 642 0
DWIDTH 12 0
BBX 14 13 0 0
BITMAP
0F00
0600
0C00
0C00
0C00
1800
1800
1800
3000
3000
3000
6040
FF80
ENDCHAR
STARTCHAR M
ENCODING 77
SWIDTH 857 0
DWIDTH 16 0
BBX 18 13 0 0
BITMAP
0F03C0
070380
0F0F00
0B0B00
0B0B00
132600
132600
132600
238C00
238C00
238C00
421800
E23C00
ENDCHAR
STARTCHAR N
ENCODING 78
SWIDTH 750 0
DWIDTH 14 0
BBX 16 13 0 0
BITMAP
0F07
0702
0F04
0B84
09C4
1188
11C8
10E8
20F0
2070
2070
4060
E020
ENDCHAR
STARTCHAR O
ENCODING 79
SWIDTH 750 0
DWIDTH 14 0
BBX 16 13 0 0
BITMAP
00F0
030C
0C0C
0C0C
1806
300C
300C
300C
6018
3030
3030
30C0
0F00
ENDCHAR
STARTCHAR P
ENCODING 80
SWIDTH 589 0
DWIDTH 11 0
BBX 14 13 0 0
BITMAP
0FE0
0618
0C18
0C18
0C18
1860
1F80
1800
3000
3000
3000
6000
F000
ENDCHAR
STARTCHAR Q
ENCODING 81
SWIDTH 750 0
DWIDTH 14 0
BBX 17 16 0 -3
BITMAP
007800
018600
060600
060600
0C0300
180600
180600
180600
300C00
181800
181800
186000
078000
038000
018000
006000
ENDCHAR
STARTCHAR R
ENCODING 82
SWIDTH 642 0
DWIDTH 12 0
BBX 15 13 0 0
BITMAP
0FF0
0618
0C18
0C18
0C18
1860
1FC0
18C0
30C0
30C0
3060
60C0
F060
ENDCHAR
STARTCHAR S
ENCODING 83
SWIDTH 535 0
DWIDTH 10 0
BBX 12 13 0 0
BITMAP
03A0
0660
1840
1840
1C00
1C00
0F00
0380
0380
4180
4180
C600
BC00
ENDCHAR
STARTCHAR T
ENCODING 84
SWIDTH 642 0
DWIDTH 12 0
BBX 14 13 0 0
BITMAP
0FFC
08C4
0180
0180
0180
0300
0300
0300
0600
0600
0600
0C00
1E00
ENDCHAR
STARTCHAR U
ENCODING 85
SWIDTH 750 0
DWIDTH 14 0
BBX 16 13 0 0
BITMAP
0F07
0602
0C04
0C04
0C04
1808
1808
1808
3010
3010
1820
38C0
0F00
ENDCHAR
STARTCHAR V
ENCODING 86
SWIDTH 642 0
DWIDTH 12 0
BBX 16 13 -1 0
BITMAP
0F0F
0606
0C08
0608
0610
0C20
0640
0640
0700
0700
0700
0400
0400
ENDCHAR
STARTCHAR W
ENCODING 87
SWIDTH 910 0
DWIDTH 17 0
BBX 21 13 -1 0
BITMAP
0F3C38
061810
0C3020
061840
061840
0C3080
065900
065900
071C00
071C00
071C00
041000
041000
ENDCHAR
STARTCHAR X
ENCODING 88
SWIDTH 642 0
DWIDTH 12 0
BBX 16 13 -1 0
BITMAP
0F8F
0306
0308
0390
01A0
01C0
01C0
02C0
04C0
08E0
1060
6060
F0F0
ENDCHAR
STARTCHAR Y
ENCODING 89
SWIDTH 642 0
DWIDTH 12 0
BBX 16 13 -1 0
BITMAP
0F07
0602
0608
0608
0310
0340
0340
0180
0300
0300
0300
0600
0F00
ENDCHAR
STARTCHAR Z
ENCODING 90
SWIDTH 642 0
DWIDTH 12 0
BBX 15 13 0 0
BITMAP
07FC
0418
0030
0060
00E0
0180
0300
0700
0C00
1800
3800
6020
FFC0
ENDCHAR
STARTCHAR bracketleft
ENCODING 91
SWIDTH 321 0
DWIDTH 6 0
BBX 9 17 1 -3
BITMAP
0780
0600
0600
0C00
0C00
0C00
1800
1800
1800
3000
3000
3000
6000
6000
6000
C000
F000
ENDCHAR
STARTCHAR backslash
ENCODING 92
SWIDTH 267 0
DWIDTH 5 0
BBX 9 13 -1 0
BITMAP
0C00
0C00
1800
0C00
0C00
1800
0C00
0C00
1800
0C00
0C00
1800
1800
ENDCHAR
STARTCHAR bracketright
ENCODING 93
SWIDTH 321 0
DWIDTH 6 0
BBX 9 17 -1 -3
BITMAP
0780
0180
0180
0300
0300
0300
0600
0600
0600
0C00
0C00
0C00
1800
1800
1800
3000
F000
ENDCHAR
STARTCHAR asciicircum
ENCODING 94
SWIDTH 482 0
DWIDTH 9 0
BBX 8 4 0 10
BITMAP
08
1C
6C
C6
ENDCHAR
STARTCHAR underscore
ENCODING 95
SWIDTH 482 0
DWIDTH 9 0
BBX 9 1 -1 -2
BITMAP
FF80
ENDCHAR
STARTCHAR quoteleft
ENCODING 96
SWIDTH 321 0
DWIDTH 6 0
BBX 5 3 0 11
BITMAP
60
60
10
ENDCHAR
STARTCHAR a
ENCODING 97
SWIDTH 482 0
DWIDTH 9 0
BBX 11 9 0 0
BITMAP
0780
3180
3180
0780
3300
6300
6300
DE00
7700
ENDCHAR
STARTCHAR b
ENCODING 98
SWIDTH 535 0
DWIDTH 10 0
BBX 13 14 0 0
BITMAP
0200
0E00
0600
0C00
0C00
0DC0
1CC0
1860
1860
30C0
30C0
30C0
6300
3E00
ENDCHAR
STARTCHAR c
ENCODING 99
SWIDTH 428 0
DWIDTH 8 0
BBX 10 9 0 0
BITMAP
0780
1980
3180
3000
6000
6000
6100
6600
3C00
ENDCHAR
STARTCHAR d
ENCODING 100
SWIDTH 535 0
DWIDTH 10 0
BBX 13 14 0 0
BITMAP
0010
0070
0030
0060
0060
0760
19C0
30C0
30C0
6180
6180
6180
6700
3D80
ENDCHAR
STARTCHAR e
ENCODING 101
SWIDTH 428 0
DWIDTH 8 0
BBX 10 9 0 0
BITMAP
0700
1B00
3180
3F80
6000
6000
6100
6600
3C00
ENDCHAR
STARTCHAR f
ENCODING 102
SWIDTH 321 0
DWIDTH 6 0
BBX 9 14 0 0
BITMAP
0380
0680
0600
0C00
1F00
0C00
1800
1800
1800
3000
3000
3000
6000
F000
ENDCHAR
STARTCHAR g
ENCODING 103
SWIDTH 535 0
DWIDTH 10 0
BBX 13 13 0 -4
BITMAP
01C0
0378
0C60
0C60
06C0
0700
0C00
1800
3F80
61C0
60C0
C300
7E00
ENDCHAR
STARTCHAR h
ENCODING 104
SWIDTH 535 0
DWIDTH 10 0
BBX 13 14 0 0
BITMAP
0200
0E00
0600
0C00
0C00
0DC0
1CC0
18C0
18C0
3180
3180
3180
6300
F380
ENDCHAR
STARTCHAR i
ENCODING 105
SWIDTH 267 0
DWIDTH 5 0
BBX 8 14 0 0
BITMAP
06
06
00
00
00
0C
38
18
18
30
30
30
60
F0
ENDCHAR
STARTCHAR j
ENCODING 106
SWIDTH 214 0
DWIDTH 4 0
BBX 10 18 -1 -4
BITMAP
00C0
0180
0000
0000
0000
0300
0700
0600
0600
0600
0C00
0C00
0C00
1800
1800
1800
B000
6000
ENDCHAR
STARTCHAR k
ENCODING 107
SWIDTH 482 0
DWIDTH 9 0
BBX 12 14 0 0
BITMAP
0200
0E00
0600
0C00
0C00
0DE0
1900
1A00
1C00
3C00
3600
3600
6600
F700
ENDCHAR
STARTCHAR l
ENCODING 108
SWIDTH 267 0
DWIDTH 5 0
BBX 8 14 0 0
BITMAP
02
0E
06
0C
0C
0C
18
18
18
30
30
30
60
F0
ENDCHAR
STARTCHAR m
ENCODING 109
SWIDTH 696 0
DWIDTH 13 0
BBX 15 9 0 0
BITMAP
0598
3FF8
1998
1998
3330
3330
3330
6660
F770
ENDCHAR
STARTCHAR n
ENCODING 110
SWIDTH 535 0
DWIDTH 10 0
BBX 12 9 0 0
BITMAP
0DC0
3CC0
18C0
18C0
3180
3180
3180
6300
F380
ENDCHAR
STARTCHAR o
ENCODING 111
SWIDTH 482 0
DWIDTH 9 0
BBX 11 9 0 0
BITMAP
0780
1180
30C0
30C0
6180
6180
6180
6200
3C00
ENDCHAR
STARTCHAR p
ENCODING 112
SWIDTH 535 0
DWIDTH 10 0
BBX 13 13 0 -4
BITMAP
05E0
0F30
0C30
0C30
0C30
1860
1860
1CC0
3700
3000
3000
6000
F000
ENDCHAR
STARTCHAR q
ENCODING 113
SWIDTH 535 0
DWIDTH 10 0
BBX 13 13 0 -4
BITMAP
03D0
0670
1860
1860
1860
30C0
30C0
19C0
1D80
0180
0180
0300
0780
ENDCHAR
STARTCHAR r
ENCODING 114
SWIDTH 375 0
DWIDTH 7 0
BBX 9 9 0 0
BITMAP
0D80
3F00
1900
1800
3000
3000
3000
6000
F000
ENDCHAR
STARTCHAR s
ENCODING 115
SWIDTH 375 0
DWIDTH 7 0
BBX 9 9 0 0
BITMAP
0E80
3300
3100
1800
1800
0C00
4600
CC00
F800
ENDCHAR
STARTCHAR t
ENCODING 116
SWIDTH 321 0
DWIDTH 6 0
BBX 9 12 0 0
BITMAP
0200
0400
0C00
1F00
1800
1800
1800
3000
3000
3000
6800
3000
ENDCHAR
STARTCHAR u
ENCODING 117
SWIDTH 535 0
DWIDTH 10 0
BBX 12 9 0 0
BITMAP
1CE0
18C0
18C0
18C0
3180
3180
3180
6700
3B80
ENDCHAR
STARTCHAR v
ENCODING 118
SWIDTH 535 0
DWIDTH 10 0
BBX 12 9 0 0
BITMAP
1E70
1840
1840
0C80
1900
0E00
0E00
0800
0800
ENDCHAR
STARTCHAR w
ENCODING 119
SWIDTH 750 0
DWIDTH 14 0
BBX 16 9 0 0
BITMAP
1EF7
18C4
18C4
0DEC
1AD0
0E70
0E70
0840
0840
ENDCHAR
STARTCHAR x
ENCODING 120
SWIDTH 482 0
DWIDTH 9 0
BBX 11 9 0 0
BITMAP
1EE0
1880
0D00
0E00
0C00
0E00
1600
4600
EF00
ENDCHAR
STARTCHAR y
ENCODING 121
SWIDTH 535 0
DWIDTH 10 0
BBX 13 13 0 -4
BITMAP
0F38
0610
0C20
0640
0640
0700
0700
0200
0400
0C00
2800
F000
6000
ENDCHAR
STARTCHAR z
ENCODING 122
SWIDTH 428 0
DWIDTH 8 0
BBX 10 9 0 0
BITMAP
1FC0
2180
0300
0600
1800
3000
6000
C200
FE00
ENDCHAR
STARTCHAR braceleft
ENCODING 123
SWIDTH 428 0
DWIDTH 8 0
BBX 10 17 1 -4
BITMAP
01C0
0300
0300
0600
0600
0600
0C00
0C00
1800
1800
1800
1800
3000
3000
3000
6000
3800
ENDCHAR
STARTCHAR bar
ENCODING 124
SWIDTH 214 0
DWIDTH 4 0
BBX 7 16 0 -2
BITMAP
06
06
0C
0C
0C
18
18
18
30
30
30
60
60
60
C0
C0
ENDCHAR
STARTCHAR braceright
ENCODING 125
SWIDTH 428 0
DWIDTH 8 0
BBX 10 17 0 -4
BITMAP
0700
0180
0180
0300
0300
0300
0600
0600
0300
0C00
0C00
0C00
1800
1800
1800
3000
E000
ENDCHAR
STARTCHAR asciitilde
ENCODING 126
SWIDTH 482 0
DWIDTH 9 0
BBX 8 3 0 11
BITMAP
39
FE
9C
ENDCHAR
STARTCHAR nbsp
ENCODING 154
SWIDTH 214 0
DWIDTH 4 0
BBX 0 0 -1 0
BITMAP
ENDCHAR
STARTCHAR degree
ENCODING 156
SWIDTH 267 0
DWIDTH 5 0
BBX 6 5 -1 9
BITMAP
38
6C
44
D8
70
ENDCHAR
STARTCHAR twosuperior
ENCODING 157
SWIDTH 267 0
DWIDTH 5 0
BBX 7 6 -1 8
BITMAP
1C
4C
0C
18
60
F8
ENDCHAR
STARTCHAR cyr-yo
ENCODING 163
SWIDTH 375 0
DWIDTH 7 0
BBX 11 12 0 0
BITMAP
06C0
0D80
0000
0700
1B00
3180
3F80
6000
6000
6100
6600
3C00
ENDCHAR
STARTCHAR cyr-Yo
ENCODING 179
SWIDTH 535 0
DWIDTH 10 0
BBX 15 16 0 0
BITMAP
0318
0318
0000
0FF8
0608
0C00
0C00
0C00
1840
1FC0
1840
3000
3000
3000
6040
FF80
ENDCHAR
STARTCHAR copyright
ENCODING 191
SWIDTH 750 0
DWIDTH 14 0
BBX 17 13 -1 0
BITMAP
00F800
030600
080200
08E200
119900
261200
260200
261200
464400
238800
200800
306000
0F8000
ENDCHAR
STARTCHAR cyr-yu
ENCODING 192
SWIDTH 750 0
DWIDTH 14 0
BBX 16 9 0 0
BITMAP
1E3C
188C
1986
1986
3F0C
330C
330C
6310
F1E0
ENDCHAR
STARTCHAR cyr-a
ENCODING 193
SWIDTH 482 0
DWIDTH 9 0
BBX 11 9 0 0
BITMAP
0F80
3180
3180
0780
3300
6300
6300
CE00
7B00
ENDCHAR
STARTCHAR cyr-be
ENCODING 194
SWIDTH 482 0
DWIDTH 9 0
BBX 13 15 0 0
BITMAP
0008
03E0
0400
0C00
1800
1800
1B80
3880
3040
3040
6080
6080
6080
E200
7C00
ENDCHAR
STARTCHAR cyr-tse
ENCODING 195
SWIDTH 589 0
DWIDTH 11 0
BBX 13 11 0 -2
BITMAP
1E78
0C30
0C30
1860
1860
1860
30C0
30C0
7FE0
0040
0040
ENDCHAR
STARTCHAR cyr-de
ENCODING 196
SWIDTH 535 0
DWIDTH 10 0
BBX 12 11 0 -2
BITMAP
0FF0
0460
0460
08C0
08C0
08C0
1180
2180
7FC0
8080
8080
ENDCHAR
STARTCHAR cyr-ie
ENCODING 197
SWIDTH 428 0
DWIDTH 8 0
BBX 10 9 0 0
BITMAP
0700
1B00
3180
3F80
6000
6000
6100
6600
3C00
ENDCHAR
STARTCHAR cyr-ef
ENCODING 198
SWIDTH 589 0
DWIDTH 11 0
BBX 14 14 0 -5
BITMAP
03F0
04C8
0CCC
1998
1998
1998
3330
1320
0FC0
0600
0600
0600
0C00
1E00
ENDCHAR
STARTCHAR cyr-ghe
ENCODING 199
SWIDTH 428 0
DWIDTH 8 0
BBX 10 9 0 0
BITMAP
1FC0
1880
1800
1800
3000
3000
3000
6000
F000
ENDCHAR
STARTCHAR cyr-kha
ENCODING 200
SWIDTH 482 0
DWIDTH 9 0
BBX 11 9 0 0
BITMAP
1EE0
1880
0D00
0E00
0C00
0E00
1600
4600
EF00
ENDCHAR
STARTCHAR cyr-i
ENCODING 201
SWIDTH 589 0
DWIDTH 11 0
BBX 13 9 0 0
BITMAP
1E38
18E0
1960
1960
34C0
34C0
38C0
6180
F3C0
ENDCHAR
STARTCHAR cyr-i-short
ENCODING 202
SWIDTH 589 0
DWIDTH 11 0
BBX 13 11 0 0
BITMAP
0360
01C0
1E38
18E0
1960
1960
34C0
34C0
38C0
6180
F3C0
ENDCHAR
STARTCHAR cyr-ka
ENCODING 203
SWIDTH 535 0
DWIDTH 10 0
BBX 12 9 0 0
BITMAP
1E70
1960
1900
1A00
3C00
3600
3300
6300
F380
ENDCHAR
STARTCHAR cyr-el
ENCODING 204
SWIDTH 589 0
DWIDTH 11 0
BBX 13 9 0 0
BITMAP
07F8
0460
0460
0460
08C0
08C0
08C0
D180
E3C0
ENDCHAR
STARTCHAR cyr-em
ENCODING 205
SWIDTH 642 0
DWIDTH 12 0
BBX 14 9 0 0
BITMAP
1C1C
1C70
1C70
16B0
2D60
2660
2660
40C0
E1E0
ENDCHAR
STARTCHAR cyr-en
ENCODING 206
SWIDTH 589 0
DWIDTH 11 0
BBX 13 9 0 0
BITMAP
1E78
1860
1860
1860
3FC0
30C0
30C0
6180
F3C0
ENDCHAR
STARTCHAR cyr-o
ENCODING 207
SWIDTH 482 0
DWIDTH 9 0
BBX 11 9 0 0
BITMAP
0780
1180
30C0
30C0
6180
6180
6180
6200
3C00
ENDCHAR
STARTCHAR cyr-pe
ENCODING 208
SWIDTH 589 0
DWIDTH 11 0
BBX 13 9 0 0
BITMAP
1FF8
1860
1860
1860
30C0
30C0
30C0
6180
F3C0
ENDCHAR
STARTCHAR cyr-ya
ENCODING 209
SWIDTH 535 0
DWIDTH 10 0
BBX 13 9 -1 0
BITMAP
07F8
1860
1860
1860
1FC0
0CC0
18C0
6180
C3C0
ENDCHAR
STARTCHAR cyr-er
ENCODING 210
SWIDTH 535 0
DWIDTH 10 0
BBX 13 13 0 -4
BITMAP
0FE0
0630
0C30
0C30
0C30
1860
1860
18C0
3F00
3000
3000
6000
F000
ENDCHAR
STARTCHAR cyr-es
ENCODING 211
SWIDTH 428 0
DWIDTH 8 0
BBX 10 9 0 0
BITMAP
0780
1980
3180
3000
6000
6000
6100
6600
3C00
ENDCHAR
STARTCHAR cyr-te
ENCODING 212
SWIDTH 482 0
DWIDTH 9 0
BBX 11 9 0 0
BITMAP
1FE0
2640
2640
0600
0C00
0C00
0C00
1800
3C00
ENDCHAR
STARTCHAR cyr-u
ENCODING 213
SWIDTH 535 0
DWIDTH 10 0
BBX 13 13 0 -4
BITMAP
0F38
0610
0C20
0640
0640
0700
0700
0200
0400
0C00
2800
F000
6000
ENDCHAR
STARTCHAR cyr-zhe
ENCODING 214
SWIDTH 803 0
DWIDTH 15 0
BBX 17 9 0 0
BITMAP
1CF380
34CB00
04C800
02D000
07E000
0DB000
199800
631800
F7BC00
ENDCHAR
STARTCHAR cyr-ve
ENCODING 215
SWIDTH 482 0
DWIDTH 9 0
BBX 11 9 0 0
BITMAP
1FC0
1840
1840
1840
3F00
3080
3080
6100
FE00
ENDCHAR
STARTCHAR cyr-ierik
ENCODING 216
SWIDTH 482 0
DWIDTH 9 0
BBX 11 9 0 0
BITMAP
1E00
1800
1800
1F80
3180
3180
3180
6300
FE00
ENDCHAR
STARTCHAR cyr-iery
ENCODING 217
SWIDTH 750 0
DWIDTH 14 0
BBX 16 9 0 0
BITMAP
1E0F
180C
180C
1F8C
3198
3198
3198
6330
FE78
ENDCHAR
STARTCHAR cyr-z
ENCODING 218
SWIDTH 428 0
DWIDTH 8 0
BBX 10 9 0 0
BITMAP
0F80
2180
2180
0180
1E00
0300
4300
8600
7C00
ENDCHAR
STARTCHAR cyr-sha
ENCODING 219
SWIDTH 803 0
DWIDTH 15 0
BBX 17 9 0 0
BITMAP
1CF780
18C600
18C600
18C600
318C00
318C00
318C00
631800
FFFC00
ENDCHAR
STARTCHAR cyr-e-rev
ENCODING 220
SWIDTH 428 0
DWIDTH 8 0
BBX 10 9 0 0
BITMAP
0F80
2180
2180
0180
1F00
0300
4300
8600
7C00
ENDCHAR
STARTCHAR cyr-shcha
ENCODING 221
SWIDTH 803 0
DWIDTH 15 0
BBX 17 11 0 -2
BITMAP
1CF780
0C6300
0C6300
18C600
18C600
18C600
318C00
318C00
7FFE00
000400
000400
ENDCHAR
STARTCHAR cyr-che
ENCODING 222
SWIDTH 589 0
DWIDTH 11 0
BBX 13 9 0 0
BITMAP
1E78
1860
1860
1860
1FC0
00C0
00C0
0180
03C0
ENDCHAR
STARTCHAR cyr-ier
ENCODING 223
SWIDTH 589 0
DWIDTH 11 0
BBX 13 9 0 0
BITMAP
1F80
2600
2600
07E0
0C60
0C60
0C60
18C0
3F80
ENDCHAR
STARTCHAR cyr-Yu
ENCODING 224
SWIDTH 910 0
DWIDTH 17 0
BBX 20 13 0 0
BITMAP
0F0700
0618C0
0C60C0
0C60C0
0CC060
1980C0
1F80C0
1980C0
330180
318300
318300
618C00
F0F000
ENDCHAR
STARTCHAR cyr-A
ENCODING 225
SWIDTH 642 0
DWIDTH 12 0
BBX 16 13 -1 0
BITMAP
0040
0060
01C0
0160
0160
04C0
0460
0860
1FE0
1060
2060
4060
E0F0
ENDCHAR
STARTCHAR cyr-Be
ENCODING 226
SWIDTH 696 0
DWIDTH 13 0
BBX 15 13 0 0
BITMAP
0FFE
0606
0C04
0C00
0C00
1FE0
1830
1818
3030
3030
3030
60C0
FF80
ENDCHAR
STARTCHAR cyr-Tse
ENCODING 227
SWIDTH 750 0
DWIDTH 14 0
BBX 17 15 0 -2
BITMAP
078780
060600
060600
060600
0C0C00
0C0C00
0C0C00
181800
181800
181800
303000
303000
7FF800
001000
001000
ENDCHAR
STARTCHAR cyr-De
ENCODING 228
SWIDTH 696 0
DWIDTH 13 0
BBX 16 15 0 -2
BITMAP
03FF
020C
020C
020C
0418
0418
0418
0830
0830
0830
1060
2060
7FF0
8020
8020
ENDCHAR
STARTCHAR cyr-Ie
ENCODING 229
SWIDTH 642 0
DWIDTH 12 0
BBX 14 13 0 0
BITMAP
0FF8
0608
0C00
0C00
0C00
1840
1FC0
1840
3000
3000
3000
6040
FFC0
ENDCHAR
STARTCHAR cyr-Ef
ENCODING 230
SWIDTH 857 0
DWIDTH 16 0
BBX 18 13 0 0
BITMAP
00FC00
033300
0C6300
0C6300
186180
30C300
30C300
18C600
318C00
199800
07E000
030000
078000
ENDCHAR
STARTCHAR cyr-Ghe
ENCODING 231
SWIDTH 642 0
DWIDTH 12 0
BBX 14 13 0 0
BITMAP
0FFC
060C
0C08
0C00
0C00
1800
1800
1800
3000
3000
3000
6000
F000
ENDCHAR
STARTCHAR cyr-Kha
ENCODING 232
SWIDTH 750 0
DWIDTH 14 0
BBX 16 13 0 0
BITMAP
0F8F
0306
0308
0390
01A0
01C0
01C0
02C0
04C0
08E0
1060
6060
F0F0
ENDCHAR
STARTCHAR cyr-I
ENCODING 233
SWIDTH 750 0
DWIDTH 14 0
BBX 16 13 0 0
BITMAP
0F0F
060E
0C2C
0C2C
0C4C
1898
1918
1918
3430
3430
3830
7060
F0F0
ENDCHAR
STARTCHAR cyr-I-short
ENCODING 234
SWIDTH 750 0
DWIDTH 14 0
BBX 17 16 0 0
BITMAP
00CC00
007800
000000
0F0F00
060E00
0C2C00
0C2C00
0C4C00
189800
191800
191800
343000
343000
383000
706000
F0F000
ENDCHAR
STARTCHAR cyr-Ka
ENCODING 235
SWIDTH 642 0
DWIDTH 12 0
BBX 14 13 0 0
BITMAP
0F1C
062C
0C40
0C80
0C80
1E00
1980
18C0
3180
30C0
30C0
6180
F3C0
ENDCHAR
STARTCHAR cyr-El
ENCODING 236
SWIDTH 696 0
DWIDTH 13 0
BBX 16 13 -1 0
BITMAP
03FF
0106
020C
020C
020C
0418
0418
0418
0830
0830
0830
D060
E0F0
ENDCHAR
STARTCHAR cyr-Em
ENCODING 237
SWIDTH 857 0
DWIDTH 16 0
BBX 18 13 0 0
BITMAP
0F03C0
070380
0F0F00
0B0B00
0B0B00
132600
132600
132600
238C00
238C00
238C00
421800
E23C00
ENDCHAR
STARTCHAR cyr-En
ENCODING 238
SWIDTH 750 0
DWIDTH 14 0
BBX 16 13 0 0
BITMAP
0F0F
0606
0C0C
0C0C
0C0C
1818
1FF8
1818
3030
3030
3030
6060
F0F0
ENDCHAR
STARTCHAR cyr-O
ENCODING 239
SWIDTH 750 0
DWIDTH 14 0
BBX 16 13 0 0
BITMAP
00F0
030C
0C0C
0C0C
1806
300C
300C
300C
6018
3030
3030
30C0
0F00
ENDCHAR
STARTCHAR cyr-Pe
ENCODING 240
SWIDTH 750 0
DWIDTH 14 0
BBX 16 13 0 0
BITMAP
0FFF
0606
0C0C
0C0C
0C0C
1818
1818
1818
3030
3030
3030
6060
F0F0
ENDCHAR
STARTCHAR cyr-Ya
ENCODING 241
SWIDTH 803 0
DWIDTH 15 0
BBX 18 13 -1 0
BITMAP
007FC0
00C180
030300
030300
030300
030600
01FE00
00C600
030C00
060C00
0C0C00
301800
F03C00
ENDCHAR
STARTCHAR cyr-Er
ENCODING 242
SWIDTH 696 0
DWIDTH 13 0
BBX 15 13 0 0
BITMAP
0FF0
060C
0C0C
0C0C
0C0C
1818
1830
1FC0
3000
3000
3000
6000
F000
ENDCHAR
STARTCHAR cyr-Es
ENCODING 243
SWIDTH 696 0
DWIDTH 13 0
BBX 15 13 0 0
BITMAP
00F4
038C
0C08
0C00
1800
3000
3000
3000
6000
3000
3010
38C0
0F00
ENDCHAR
STARTCHAR cyr-Te
ENCODING 244
SWIDTH 642 0
DWIDTH 12 0
BBX 14 13 0 0
BITMAP
0FFC
08C4
0180
0180
0180
0300
0300
0300
0600
0600
0600
0C00
1E00
ENDCHAR
STARTCHAR cyr-U
ENCODING 245
SWIDTH 642 0
DWIDTH 12 0
BBX 16 13 -1 0
BITMAP
0F07
0602
0608
0608
0310
0320
0340
01C0
0100
0100
0200
7400
3800
ENDCHAR
STARTCHAR cyr-Zhe
ENCODING 246
SWIDTH 910 0
DWIDTH 17 0
BBX 20 13 0 0
BITMAP
0E3C70
0D18B0
023100
013200
013200
01F800
066600
0C6300
18C600
30C300
30C300
618600
F3CF00
ENDCHAR
STARTCHAR cyr-Ve
ENCODING 247
SWIDTH 696 0
DWIDTH 13 0
BBX 15 13 0 0
BITMAP
0FE0
0618
0C18
0C18
0C18
1860
1FE0
1830
3030
3030
3030
60C0
FF00
ENDCHAR
STARTCHAR cyr-Ierik
ENCODING 248
SWIDTH 696 0
DWIDTH 13 0
BBX 15 13 0 0
BITMAP
0F00
0600
0C00
0C00
0C00
1FE0
1830
1818
3030
3030
3030
60C0
FF80
ENDCHAR
STARTCHAR cyr-Iery
ENCODING 249
SWIDTH 910 0
DWIDTH 17 0
BBX 19 13 0 0
BITMAP
0F01E0
0600C0
0C0180
0C0180
0C0180
1FE300
183300
181B00
303600
303600
303600
60CC00
FF9E00
ENDCHAR
STARTCHAR cyr-Ze
ENCODING 250
SWIDTH 642 0
DWIDTH 12 0
BBX 14 13 0 0
BITMAP
03C0
0C30
1030
0030
0030
00C0
07C0
0060
0060
0060
4060
C180
3E00
ENDCHAR
STARTCHAR cyr-Sha
ENCODING 251
SWIDTH 910 0
DWIDTH 17 0
BBX 20 13 0 0
BITMAP
0F3CF0
061860
0C30C0
0C30C0
0C30C0
186180
186180
186180
30C300
30C300
30C300
618600
FFFF00
ENDCHAR
STARTCHAR cyr-E-rev
ENCODING 252
SWIDTH 642 0
DWIDTH 12 0
BBX 14 13 0 0
BITMAP
0BF0
0C18
1018
0018
0018
0430
07F0
0430
0060
0060
4060
C180
BF00
ENDCHAR
STARTCHAR cyr-Shcha
ENCODING 253
SWIDTH 910 0
DWIDTH 17 0
BBX 21 15 0 -2
BITMAP
079E78
061860
061860
061860
0C30C0
0C30C0
0C30C0
186180
186180
186180
30C300
30C300
7FFF80
000100
000100
ENDCHAR
STARTCHAR cyr-Che
ENCODING 254
SWIDTH 750 0
DWIDTH 14 0
BBX 16 13 0 0
BITMAP
0F0F
0606
0C0C
0C0C
0C0C
1818
1818
07F8
0030
0030
0030
0060
00F0
ENDCHAR
STARTCHAR cyr-Ier
ENCODING 255
SWIDTH 803 0
DWIDTH 15 0
BBX 17 13 0 0
BITMAP
0FC000
098000
130000
030000
030000
07F800
060C00
060600
0C0C00
0C0C00
0C0C00
183000
3FE000
ENDCHAR
ENDFONT
