STARTFONT 2.1
COMMENT Copyright (C) 1990-1991 EWT Consulting
COMMENT Portions Copyright (C) 1994-1995 Cronyx Ltd.
COMMENT Changes Copyright (C) 1996-1997 by Andrey A. Chernov, Moscow, Russia.
COMMENT Modified by Serge Vakulenko, <vak@cronyx.ru>
COMMENT This software may be used, modified, copied, distributed, and sold,
COMMENT in both source and binary form provided that the copyright
COMMENT and these terms are retained. Under no circumstances is the author
COMMENT responsible for the proper functioning of this software, nor does
COMMENT the author assume any responsibility for damages incurred with its use.
COMMENT $XFree86: xc/fonts/bdf/cyrillic/crox1co.bdf,v 3.2.4.1 1998/02/01 16:03:24 robin Exp $
FONT -Cronyx-Courier-Medium-O-Normal--14-100-100-100-M-80-KOI8-R
SIZE 10 96 96
FONTBOUNDINGBOX 12 13 -1 -2
STARTPROPERTIES 20
DEFAULT_CHAR 32
FONT_ASCENT 11
FONT_DESCENT 2
SPACING "M"
FONTNAME_REGISTRY ""
FOUNDRY "Cronyx"
FAMILY_NAME "Courier"
WEIGHT_NAME "Medium"
SLANT "O"
SETWIDTH_NAME "Normal"
ADD_STYLE_NAME ""
AVERAGE_WIDTH 80
CHARSET_REGISTRY "KOI8"
CHARSET_ENCODING "R"
PIXEL_SIZE 14
POINT_SIZE 100
RESOLUTION_X 100
RESOLUTION_Y 100
COPYRIGHT "Copyright (C) 1990, 1991 EWT Consulting, Portions Copyright (C) 1994 Cronyx Ltd., Portions Copyright (C) 1996-1997 by Andrey A. Chernov, Moscow, Russia."
_XMBDFED_INFO "Edited with xmbdfed 2.7."
ENDPROPERTIES
CHARS 165
STARTCHAR space
ENCODING 32
SWIDTH 600 0
DWIDTH 8 0
BBX 0 0 -1 0
BITMAP
ENDCHAR
STARTCHAR exclam
ENCODING 33
SWIDTH 600 0
DWIDTH 8 0
BBX 4 9 3 0
BITMAP
10
20
20
20
40
40
40
00
80
ENDCHAR
STARTCHAR quotedbl
ENCODING 34
SWIDTH 600 0
DWIDTH 8 0
BBX 4 3 2 6
BITMAP
50
A0
A0
ENDCHAR
STARTCHAR numbersign
ENCODING 35
SWIDTH 600 0
DWIDTH 8 0
BBX 10 9 0 0
BITMAP
0280
0500
1F80
0A00
1400
1400
7E00
5000
5000
ENDCHAR
STARTCHAR dollar
ENCODING 36
SWIDTH 600 0
DWIDTH 8 0
BBX 8 9 1 0
BITMAP
04
1C
22
20
38
04
44
70
20
ENDCHAR
STARTCHAR percent
ENCODING 37
SWIDTH 600 0
DWIDTH 8 0
BBX 10 9 0 0
BITMAP
0800
2880
1100
0200
0800
1000
2200
8A00
0400
ENDCHAR
STARTCHAR ampersand
ENCODING 38
SWIDTH 600 0
DWIDTH 8 0
BBX 10 9 0 0
BITMAP
0600
1000
1000
0800
3000
4900
4A00
8800
7600
ENDCHAR
STARTCHAR quoteright
ENCODING 39
SWIDTH 600 0
DWIDTH 8 0
BBX 2 3 3 6
BITMAP
40
80
80
ENDCHAR
STARTCHAR parenleft
ENCODING 40
SWIDTH 600 0
DWIDTH 8 0
BBX 6 11 2 -2
BITMAP
04
08
08
20
20
20
40
40
20
40
20
ENDCHAR
STARTCHAR parenright
ENCODING 41
SWIDTH 600 0
DWIDTH 8 0
BBX 6 11 2 -2
BITMAP
10
08
08
08
08
08
10
10
20
40
80
ENDCHAR
STARTCHAR asterisk
ENCODING 42
SWIDTH 600 0
DWIDTH 8 0
BBX 8 5 0 2
BITMAP
36
1C
7F
38
6C
ENDCHAR
STARTCHAR plus
ENCODING 43
SWIDTH 600 0
DWIDTH 8 0
BBX 9 7 0 0
BITMAP
0400
0400
0800
7F00
0800
1000
1000
ENDCHAR
STARTCHAR comma
ENCODING 44
SWIDTH 600 0
DWIDTH 8 0
BBX 2 2 2 -1
BITMAP
40
80
ENDCHAR
STARTCHAR minus
ENCODING 45
SWIDTH 600 0
DWIDTH 8 0
BBX 7 1 0 3
BITMAP
FE
ENDCHAR
STARTCHAR period
ENCODING 46
SWIDTH 600 0
DWIDTH 8 0
BBX 1 1 3 0
BITMAP
80
ENDCHAR
STARTCHAR slash
ENCODING 47
SWIDTH 600 0
DWIDTH 8 0
BBX 9 7 0 1
BITMAP
0080
0100
0400
0800
1000
4000
8000
ENDCHAR
STARTCHAR zero
ENCODING 48
SWIDTH 600 0
DWIDTH 8 0
BBX 8 9 1 0
BITMAP
0E
22
22
22
44
44
44
88
70
ENDCHAR
STARTCHAR one
ENCODING 49
SWIDTH 600 0
DWIDTH 8 0
BBX 8 9 1 0
BITMAP
04
38
08
08
10
10
10
20
F8
ENDCHAR
STARTCHAR two
ENCODING 50
SWIDTH 600 0
DWIDTH 8 0
BBX 8 9 1 0
BITMAP
0E
22
02
02
08
10
20
80
F8
ENDCHAR
STARTCHAR three
ENCODING 51
SWIDTH 600 0
DWIDTH 8 0
BBX 8 9 1 0
BITMAP
0E
22
02
02
18
04
04
88
70
ENDCHAR
STARTCHAR four
ENCODING 52
SWIDTH 600 0
DWIDTH 8 0
BBX 8 9 1 0
BITMAP
02
0C
0C
14
28
48
7C
10
38
ENDCHAR
STARTCHAR five
ENCODING 53
SWIDTH 600 0
DWIDTH 8 0
BBX 8 9 1 0
BITMAP
1F
20
20
20
78
04
04
88
70
ENDCHAR
STARTCHAR six
ENCODING 54
SWIDTH 600 0
DWIDTH 8 0
BBX 8 9 1 0
BITMAP
06
10
20
20
78
44
44
88
70
ENDCHAR
STARTCHAR seven
ENCODING 55
SWIDTH 600 0
DWIDTH 8 0
BBX 8 9 1 0
BITMAP
1F
22
02
04
08
10
10
40
40
ENDCHAR
STARTCHAR eight
ENCODING 56
SWIDTH 600 0
DWIDTH 8 0
BBX 8 9 1 0
BITMAP
0E
22
22
22
38
44
44
88
70
ENDCHAR
STARTCHAR nine
ENCODING 57
SWIDTH 600 0
DWIDTH 8 0
BBX 8 9 1 0
BITMAP
0E
22
22
22
3C
04
04
10
60
ENDCHAR
STARTCHAR colon
ENCODING 58
SWIDTH 600 0
DWIDTH 8 0
BBX 3 6 3 0
BITMAP
20
00
00
00
00
80
ENDCHAR
STARTCHAR semicolon
ENCODING 59
SWIDTH 600 0
DWIDTH 8 0
BBX 4 7 2 -1
BITMAP
10
00
00
00
00
40
80
ENDCHAR
STARTCHAR less
ENCODING 60
SWIDTH 600 0
DWIDTH 8 0
BBX 6 7 1 0
BITMAP
04
08
20
40
20
20
10
ENDCHAR
STARTCHAR equal
ENCODING 61
SWIDTH 600 0
DWIDTH 8 0
BBX 6 3 1 3
BITMAP
7C
00
F8
ENDCHAR
STARTCHAR greater
ENCODING 62
SWIDTH 600 0
DWIDTH 8 0
BBX 6 7 2 0
BITMAP
20
10
10
08
10
40
80
ENDCHAR
STARTCHAR question
ENCODING 63
SWIDTH 600 0
DWIDTH 8 0
BBX 8 9 1 0
BITMAP
0E
22
02
02
08
10
10
00
20
ENDCHAR
STARTCHAR at
ENCODING 64
SWIDTH 600 0
DWIDTH 8 0
BBX 10 9 0 0
BITMAP
0780
1080
2680
2A80
5500
5500
4E00
4000
3800
ENDCHAR
STARTCHAR A
ENCODING 65
SWIDTH 600 0
DWIDTH 8 0
BBX 10 9 0 0
BITMAP
0600
0400
0400
0A00
1400
2200
3E00
4400
EE00
ENDCHAR
STARTCHAR B
ENCODING 66
SWIDTH 600 0
DWIDTH 8 0
BBX 10 9 0 0
BITMAP
1F80
1080
1080
1080
3E00
2100
2100
4200
FC00
ENDCHAR
STARTCHAR C
ENCODING 67
SWIDTH 600 0
DWIDTH 8 0
BBX 10 9 0 0
BITMAP
0780
1080
2000
2000
4000
4000
4000
4200
3C00
ENDCHAR
STARTCHAR D
ENCODING 68
SWIDTH 600 0
DWIDTH 8 0
BBX 10 9 0 0
BITMAP
1F00
1100
1080
1080
2100
2100
2100
4400
F800
ENDCHAR
STARTCHAR E
ENCODING 69
SWIDTH 600 0
DWIDTH 8 0
BBX 10 9 0 0
BITMAP
1FC0
1080
1000
1200
3C00
2400
2000
4200
FE00
ENDCHAR
STARTCHAR F
ENCODING 70
SWIDTH 600 0
DWIDTH 8 0
BBX 10 9 0 0
BITMAP
1FC0
1080
1000
1200
3C00
2400
2000
4000
F000
ENDCHAR
STARTCHAR G
ENCODING 71
SWIDTH 600 0
DWIDTH 8 0
BBX 10 9 0 0
BITMAP
0780
1080
2000
2000
4000
4700
4100
4200
3C00
ENDCHAR
STARTCHAR H
ENCODING 72
SWIDTH 600 0
DWIDTH 8 0
BBX 10 9 0 0
BITMAP
1DC0
1100
1100
1100
3E00
2200
2200
4400
EE00
ENDCHAR
STARTCHAR I
ENCODING 73
SWIDTH 600 0
DWIDTH 8 0
BBX 8 9 1 0
BITMAP
1F
08
08
08
10
10
10
20
F8
ENDCHAR
STARTCHAR J
ENCODING 74
SWIDTH 600 0
DWIDTH 8 0
BBX 9 9 0 0
BITMAP
0780
0200
0200
0200
0400
0400
4400
8800
7000
ENDCHAR
STARTCHAR K
ENCODING 75
SWIDTH 600 0
DWIDTH 8 0
BBX 10 9 0 0
BITMAP
1CC0
1100
1200
1200
2800
3800
2400
4400
E600
ENDCHAR
STARTCHAR L
ENCODING 76
SWIDTH 600 0
DWIDTH 8 0
BBX 10 9 0 0
BITMAP
1F00
0800
0800
0800
1000
1000
1000
2200
FE00
ENDCHAR
STARTCHAR M
ENCODING 77
SWIDTH 600 0
DWIDTH 8 0
BBX 10 9 0 0
BITMAP
18C0
1100
1B00
1B00
2A00
2A00
2200
4400
EE00
ENDCHAR
STARTCHAR N
ENCODING 78
SWIDTH 600 0
DWIDTH 8 0
BBX 10 9 0 0
BITMAP
19C0
1100
1900
1900
2A00
2600
2600
4400
E400
ENDCHAR
STARTCHAR O
ENCODING 79
SWIDTH 600 0
DWIDTH 8 0
BBX 10 9 0 0
BITMAP
0700
1100
2080
2080
4100
4100
4100
4400
3800
ENDCHAR
STARTCHAR P
ENCODING 80
SWIDTH 600 0
DWIDTH 8 0
BBX 10 9 0 0
BITMAP
1F80
1080
1080
1080
3E00
2000
2000
4000
F000
ENDCHAR
STARTCHAR Q
ENCODING 81
SWIDTH 600 0
DWIDTH 8 0
BBX 10 10 0 -1
BITMAP
0700
0880
2080
2080
2080
4100
4100
2200
3800
3600
ENDCHAR
STARTCHAR R
ENCODING 82
SWIDTH 600 0
DWIDTH 8 0
BBX 10 9 0 0
BITMAP
1F80
1080
1080
1080
3E00
2400
2400
4400
E600
ENDCHAR
STARTCHAR S
ENCODING 83
SWIDTH 600 0
DWIDTH 8 0
BBX 10 9 0 0
BITMAP
0F80
2080
2000
2000
3E00
0100
0100
8200
7C00
ENDCHAR
STARTCHAR T
ENCODING 84
SWIDTH 600 0
DWIDTH 8 0
BBX 10 9 0 0
BITMAP
1FC0
2480
0400
0400
0800
0800
0800
1000
3800
ENDCHAR
STARTCHAR U
ENCODING 85
SWIDTH 600 0
DWIDTH 8 0
BBX 10 9 0 0
BITMAP
1DC0
1100
1100
1100
2200
2200
2200
4400
3800
ENDCHAR
STARTCHAR V
ENCODING 86
SWIDTH 600 0
DWIDTH 8 0
BBX 10 9 0 0
BITMAP
1DC0
1100
1100
1100
1400
1400
1400
1000
1000
ENDCHAR
STARTCHAR W
ENCODING 87
SWIDTH 600 0
DWIDTH 8 0
BBX 10 9 0 0
BITMAP
1DC0
1100
1100
1100
2A00
2A00
2A00
2800
2800
ENDCHAR
STARTCHAR X
ENCODING 88
SWIDTH 600 0
DWIDTH 8 0
BBX 10 9 0 0
BITMAP
1DC0
1100
0A00
0A00
0800
1400
1400
4400
EE00
ENDCHAR
STARTCHAR Y
ENCODING 89
SWIDTH 600 0
DWIDTH 8 0
BBX 10 9 0 0
BITMAP
1DC0
1100
1100
0A00
1400
0800
0800
1000
3800
ENDCHAR
STARTCHAR Z
ENCODING 90
SWIDTH 600 0
DWIDTH 8 0
BBX 10 9 0 0
BITMAP
1FC0
2100
0200
0200
0800
1000
1000
4200
FE00
ENDCHAR
STARTCHAR bracketleft
ENCODING 91
SWIDTH 600 0
DWIDTH 8 0
BBX 6 11 2 -2
BITMAP
1C
10
10
20
20
20
40
40
40
80
E0
ENDCHAR
STARTCHAR backslash
ENCODING 92
SWIDTH 600 0
DWIDTH 8 0
BBX 9 7 0 1
BITMAP
2000
1000
1000
0800
0400
0400
0200
ENDCHAR
STARTCHAR bracketright
ENCODING 93
SWIDTH 600 0
DWIDTH 8 0
BBX 6 10 2 -2
BITMAP
1C
04
08
08
08
10
10
10
20
E0
ENDCHAR
STARTCHAR asciicircum
ENCODING 94
SWIDTH 600 0
DWIDTH 8 0
BBX 6 3 1 7
BITMAP
10
50
88
ENDCHAR
STARTCHAR underscore
ENCODING 95
SWIDTH 600 0
DWIDTH 8 0
BBX 8 1 -1 -2
BITMAP
FF
ENDCHAR
STARTCHAR quoteleft
ENCODING 96
SWIDTH 600 0
DWIDTH 8 0
BBX 2 2 2 7
BITMAP
80
40
ENDCHAR
STARTCHAR a
ENCODING 97
SWIDTH 600 0
DWIDTH 8 0
BBX 9 6 0 0
BITMAP
1E00
0200
3E00
4200
8400
7A00
ENDCHAR
STARTCHAR b
ENCODING 98
SWIDTH 600 0
DWIDTH 8 0
BBX 10 9 0 0
BITMAP
1800
1000
1000
1F00
2100
2100
2100
4200
FC00
ENDCHAR
STARTCHAR c
ENCODING 99
SWIDTH 600 0
DWIDTH 8 0
BBX 9 6 0 0
BITMAP
1F00
4100
4000
4000
8200
7C00
ENDCHAR
STARTCHAR d
ENCODING 100
SWIDTH 600 0
DWIDTH 8 0
BBX 10 9 0 0
BITMAP
0180
0100
0100
1F00
4200
4200
4200
8400
7E00
ENDCHAR
STARTCHAR e
ENCODING 101
SWIDTH 600 0
DWIDTH 8 0
BBX 9 6 0 0
BITMAP
1F00
4100
7F00
4000
8200
7C00
ENDCHAR
STARTCHAR f
ENCODING 102
SWIDTH 600 0
DWIDTH 8 0
BBX 7 9 1 0
BITMAP
06
10
10
3C
20
20
20
40
F0
ENDCHAR
STARTCHAR g
ENCODING 103
SWIDTH 600 0
DWIDTH 8 0
BBX 9 8 0 -2
BITMAP
1F80
2100
2100
4200
3E00
0200
0400
7800
ENDCHAR
STARTCHAR h
ENCODING 104
SWIDTH 600 0
DWIDTH 8 0
BBX 10 9 0 0
BITMAP
1800
1000
1000
1600
3200
2200
2200
4400
EE00
ENDCHAR
STARTCHAR i
ENCODING 105
SWIDTH 600 0
DWIDTH 8 0
BBX 8 9 1 0
BITMAP
04
00
00
38
10
10
10
20
F8
ENDCHAR
STARTCHAR j
ENCODING 106
SWIDTH 600 0
DWIDTH 8 0
BBX 7 11 1 -2
BITMAP
02
00
00
3C
04
04
08
08
08
10
E0
ENDCHAR
STARTCHAR k
ENCODING 107
SWIDTH 600 0
DWIDTH 8 0
BBX 10 9 0 0
BITMAP
1800
1000
1000
1300
2400
2800
3800
4800
C600
ENDCHAR
STARTCHAR l
ENCODING 108
SWIDTH 600 0
DWIDTH 8 0
BBX 8 9 1 0
BITMAP
0C
08
08
08
10
10
10
20
F8
ENDCHAR
STARTCHAR m
ENCODING 109
SWIDTH 600 0
DWIDTH 8 0
BBX 9 6 0 0
BITMAP
3A00
2A00
2A00
2A00
5400
D600
ENDCHAR
STARTCHAR n
ENCODING 110
SWIDTH 600 0
DWIDTH 8 0
BBX 9 6 0 0
BITMAP
3600
3200
2200
2200
4400
EE00
ENDCHAR
STARTCHAR o
ENCODING 111
SWIDTH 600 0
DWIDTH 8 0
BBX 9 6 0 0
BITMAP
1F00
4100
4100
4100
8200
7C00
ENDCHAR
STARTCHAR p
ENCODING 112
SWIDTH 600 0
DWIDTH 8 0
BBX 9 8 0 -2
BITMAP
3F00
1080
1080
2100
2100
3E00
4000
E000
ENDCHAR
STARTCHAR q
ENCODING 113
SWIDTH 600 0
DWIDTH 8 0
BBX 9 8 0 -2
BITMAP
1F80
2100
2100
4200
4200
3E00
0400
0E00
ENDCHAR
STARTCHAR r
ENCODING 114
SWIDTH 600 0
DWIDTH 8 0
BBX 9 6 0 0
BITMAP
3B00
1900
1000
1000
2000
F800
ENDCHAR
STARTCHAR s
ENCODING 115
SWIDTH 600 0
DWIDTH 8 0
BBX 9 6 0 0
BITMAP
1F00
4100
3800
0600
8200
7C00
ENDCHAR
STARTCHAR t
ENCODING 116
SWIDTH 600 0
DWIDTH 8 0
BBX 7 8 1 0
BITMAP
10
10
3C
20
20
20
48
30
ENDCHAR
STARTCHAR u
ENCODING 117
SWIDTH 600 0
DWIDTH 8 0
BBX 9 6 0 0
BITMAP
3300
2200
2200
2200
4C00
3600
ENDCHAR
STARTCHAR v
ENCODING 118
SWIDTH 600 0
DWIDTH 8 0
BBX 9 6 0 0
BITMAP
3B80
2200
2200
1400
2800
1000
ENDCHAR
STARTCHAR w
ENCODING 119
SWIDTH 600 0
DWIDTH 8 0
BBX 9 6 0 0
BITMAP
3B80
2200
2A00
2A00
2800
2800
ENDCHAR
STARTCHAR x
ENCODING 120
SWIDTH 600 0
DWIDTH 8 0
BBX 9 6 0 0
BITMAP
3B80
2200
1C00
1C00
4400
EE00
ENDCHAR
STARTCHAR y
ENCODING 121
SWIDTH 600 0
DWIDTH 8 0
BBX 9 8 0 -2
BITMAP
3B80
1100
1100
1400
1400
0800
1000
6000
ENDCHAR
STARTCHAR z
ENCODING 122
SWIDTH 600 0
DWIDTH 8 0
BBX 8 6 0 0
BITMAP
3F
44
08
10
44
FC
ENDCHAR
STARTCHAR braceleft
ENCODING 123
SWIDTH 600 0
DWIDTH 8 0
BBX 8 11 1 -2
BITMAP
03
04
04
08
08
30
10
10
10
20
18
ENDCHAR
STARTCHAR bar
ENCODING 124
SWIDTH 600 0
DWIDTH 8 0
BBX 5 12 3 -2
BITMAP
08
10
10
10
20
20
20
40
40
40
80
80
ENDCHAR
STARTCHAR braceright
ENCODING 125
SWIDTH 600 0
DWIDTH 8 0
BBX 8 11 1 -2
BITMAP
18
04
04
08
08
06
10
10
10
20
C0
ENDCHAR
STARTCHAR asciitilde
ENCODING 126
SWIDTH 600 0
DWIDTH 8 0
BBX 8 3 0 5
BITMAP
31
92
8C
ENDCHAR
STARTCHAR nbsp
ENCODING 154
SWIDTH 600 0
DWIDTH 8 0
BBX 0 0 -1 0
BITMAP
ENDCHAR
STARTCHAR degree
ENCODING 156
SWIDTH 600 0
DWIDTH 8 0
BBX 4 3 2 6
BITMAP
20
A0
40
ENDCHAR
STARTCHAR twosuperior
ENCODING 157
SWIDTH 600 0
DWIDTH 8 0
BBX 4 5 2 4
BITMAP
20
50
10
40
E0
ENDCHAR
STARTCHAR cyr-yo
ENCODING 163
SWIDTH 600 0
DWIDTH 8 0
BBX 9 8 0 0
BITMAP
1B00
0000
1F00
4100
7F00
4000
8200
7C00
ENDCHAR
STARTCHAR cyr-Yo
ENCODING 179
SWIDTH 600 0
DWIDTH 8 0
BBX 10 11 0 0
BITMAP
0D80
0000
1FC0
1080
1000
1200
3C00
2400
2000
4200
FE00
ENDCHAR
STARTCHAR copyright
ENCODING 191
SWIDTH 600 0
DWIDTH 8 0
BBX 9 8 0 1
BITMAP
0E00
1100
2680
5100
5100
4D00
4400
3800
ENDCHAR
STARTCHAR cyr-yu
ENCODING 192
SWIDTH 600 0
DWIDTH 8 0
BBX 10 6 -1 0
BITMAP
3B80
2880
3880
2880
5100
EE00
ENDCHAR
STARTCHAR cyr-a
ENCODING 193
SWIDTH 600 0
DWIDTH 8 0
BBX 9 6 0 0
BITMAP
1E00
0200
3E00
4200
8400
7A00
ENDCHAR
STARTCHAR cyr-be
ENCODING 194
SWIDTH 600 0
DWIDTH 8 0
BBX 9 9 1 0
BITMAP
0080
1E00
2000
3E00
4200
4200
4200
8400
7800
ENDCHAR
STARTCHAR cyr-tse
ENCODING 195
SWIDTH 600 0
DWIDTH 8 0
BBX 9 7 0 -1
BITMAP
3B80
1100
2200
2200
2200
FE00
0200
ENDCHAR
STARTCHAR cyr-de
ENCODING 196
SWIDTH 600 0
DWIDTH 8 0
BBX 9 7 0 -1
BITMAP
1F80
0900
1200
1200
2200
FE00
8200
ENDCHAR
STARTCHAR cyr-ie
ENCODING 197
SWIDTH 600 0
DWIDTH 8 0
BBX 9 6 0 0
BITMAP
1F00
4100
7F00
4000
8200
7C00
ENDCHAR
STARTCHAR cyr-ef
ENCODING 198
SWIDTH 600 0
DWIDTH 8 0
BBX 10 10 0 -2
BITMAP
0700
0200
1F00
2480
2480
4900
4900
3E00
1000
3800
ENDCHAR
STARTCHAR cyr-ghe
ENCODING 199
SWIDTH 600 0
DWIDTH 8 0
BBX 8 6 0 0
BITMAP
3F
22
20
20
40
E0
ENDCHAR
STARTCHAR cyr-kha
ENCODING 200
SWIDTH 600 0
DWIDTH 8 0
BBX 9 6 0 0
BITMAP
3B80
2200
1C00
2200
4400
EE00
ENDCHAR
STARTCHAR cyr-i
ENCODING 201
SWIDTH 600 0
DWIDTH 8 0
BBX 9 6 0 0
BITMAP
3B80
2200
2600
2A00
6400
EE00
ENDCHAR
STARTCHAR cyr-i-short
ENCODING 202
SWIDTH 600 0
DWIDTH 8 0
BBX 9 8 0 0
BITMAP
0E00
0000
3B80
2200
2600
2A00
6400
EE00
ENDCHAR
STARTCHAR cyr-ka
ENCODING 203
SWIDTH 600 0
DWIDTH 8 0
BBX 9 6 0 0
BITMAP
3B00
2400
2800
3800
4800
E600
ENDCHAR
STARTCHAR cyr-el
ENCODING 204
SWIDTH 600 0
DWIDTH 8 0
BBX 9 6 0 0
BITMAP
1F80
1200
1200
1200
2400
CE00
ENDCHAR
STARTCHAR cyr-em
ENCODING 205
SWIDTH 600 0
DWIDTH 8 0
BBX 9 6 0 0
BITMAP
3180
3600
2A00
2A00
4400
EE00
ENDCHAR
STARTCHAR cyr-en
ENCODING 206
SWIDTH 600 0
DWIDTH 8 0
BBX 9 6 0 0
BITMAP
3B80
2200
3E00
2200
4400
EE00
ENDCHAR
STARTCHAR cyr-o
ENCODING 207
SWIDTH 600 0
DWIDTH 8 0
BBX 9 6 0 0
BITMAP
1F00
4100
4100
4100
8200
7C00
ENDCHAR
STARTCHAR cyr-pe
ENCODING 208
SWIDTH 600 0
DWIDTH 8 0
BBX 9 6 0 0
BITMAP
3F80
2200
2200
2200
4400
EE00
ENDCHAR
STARTCHAR cyr-ya
ENCODING 209
SWIDTH 600 0
DWIDTH 8 0
BBX 9 6 0 0
BITMAP
0F80
2200
2200
1E00
2400
CE00
ENDCHAR
STARTCHAR cyr-er
ENCODING 210
SWIDTH 600 0
DWIDTH 8 0
BBX 9 8 0 -2
BITMAP
3F00
1080
1080
2100
2100
3E00
4000
E000
ENDCHAR
STARTCHAR cyr-es
ENCODING 211
SWIDTH 600 0
DWIDTH 8 0
BBX 9 6 0 0
BITMAP
1F00
4100
4000
4000
8200
7C00
ENDCHAR
STARTCHAR cyr-te
ENCODING 212
SWIDTH 600 0
DWIDTH 8 0
BBX 9 6 0 0
BITMAP
3F80
4900
0800
0800
1000
3800
ENDCHAR
STARTCHAR cyr-u
ENCODING 213
SWIDTH 600 0
DWIDTH 8 0
BBX 9 8 0 -2
BITMAP
3B80
1100
1100
1400
1400
0800
9000
6000
ENDCHAR
STARTCHAR cyr-zhe
ENCODING 214
SWIDTH 600 0
DWIDTH 8 0
BBX 9 6 0 0
BITMAP
3580
2A00
1C00
2A00
5400
D600
ENDCHAR
STARTCHAR cyr-ve
ENCODING 215
SWIDTH 600 0
DWIDTH 8 0
BBX 9 6 0 0
BITMAP
3F00
2100
3E00
2100
4200
FC00
ENDCHAR
STARTCHAR cyr-ierik
ENCODING 216
SWIDTH 600 0
DWIDTH 8 0
BBX 8 6 0 0
BITMAP
38
20
3C
22
44
F8
ENDCHAR
STARTCHAR cyr-iery
ENCODING 217
SWIDTH 600 0
DWIDTH 8 0
BBX 10 6 -1 0
BITMAP
39C0
2100
3900
2500
4A00
F700
ENDCHAR
STARTCHAR cyr-z
ENCODING 218
SWIDTH 600 0
DWIDTH 8 0
BBX 9 6 0 0
BITMAP
3F00
4100
0E00
0100
8200
7C00
ENDCHAR
STARTCHAR cyr-sha
ENCODING 219
SWIDTH 600 0
DWIDTH 8 0
BBX 9 6 0 0
BITMAP
3580
2A00
2A00
2A00
5400
FE00
ENDCHAR
STARTCHAR cyr-e-rev
ENCODING 220
SWIDTH 600 0
DWIDTH 8 0
BBX 9 6 0 0
BITMAP
1F00
4100
0F00
0100
8200
7C00
ENDCHAR
STARTCHAR cyr-shcha
ENCODING 221
SWIDTH 600 0
DWIDTH 8 0
BBX 9 7 0 -1
BITMAP
3580
1500
2A00
2A00
2A00
FE00
0200
ENDCHAR
STARTCHAR cyr-che
ENCODING 222
SWIDTH 600 0
DWIDTH 8 0
BBX 9 6 0 0
BITMAP
3B80
2200
2600
1A00
0400
0E00
ENDCHAR
STARTCHAR cyr-ier
ENCODING 223
SWIDTH 600 0
DWIDTH 8 0
BBX 9 6 0 0
BITMAP
3C00
5000
1E00
1100
2200
7C00
ENDCHAR
STARTCHAR cyr-Yu
ENCODING 224
SWIDTH 600 0
DWIDTH 8 0
BBX 11 9 -1 0
BITMAP
1DC0
1440
1440
1440
3880
2880
2880
5100
EE00
ENDCHAR
STARTCHAR cyr-A
ENCODING 225
SWIDTH 600 0
DWIDTH 8 0
BBX 10 9 0 0
BITMAP
0200
0400
0400
0A00
1400
2200
3E00
4400
EE00
ENDCHAR
STARTCHAR cyr-Be
ENCODING 226
SWIDTH 600 0
DWIDTH 8 0
BBX 10 9 0 0
BITMAP
1FC0
1080
1000
1000
3E00
2100
2100
4200
FC00
ENDCHAR
STARTCHAR cyr-Tse
ENCODING 227
SWIDTH 600 0
DWIDTH 8 0
BBX 10 10 0 -1
BITMAP
1DC0
0880
1100
1100
1100
2200
2200
2200
FE00
0200
ENDCHAR
STARTCHAR cyr-De
ENCODING 228
SWIDTH 600 0
DWIDTH 8 0
BBX 10 10 0 -1
BITMAP
0FC0
0480
0900
0900
0900
1200
1200
2200
FE00
8200
ENDCHAR
STARTCHAR cyr-Ie
ENCODING 229
SWIDTH 600 0
DWIDTH 8 0
BBX 10 9 0 0
BITMAP
1FC0
1080
1000
1200
3C00
2400
2000
4200
FE00
ENDCHAR
STARTCHAR cyr-Ef
ENCODING 230
SWIDTH 600 0
DWIDTH 8 0
BBX 10 10 0 0
BITMAP
0200
0700
1500
2480
2480
4900
4900
2A00
3800
1000
ENDCHAR
STARTCHAR cyr-Ghe
ENCODING 231
SWIDTH 600 0
DWIDTH 8 0
BBX 10 9 0 0
BITMAP
1FC0
1080
1000
1000
2000
2000
2000
4000
F000
ENDCHAR
STARTCHAR cyr-Kha
ENCODING 232
SWIDTH 600 0
DWIDTH 8 0
BBX 10 9 0 0
BITMAP
1DC0
1100
0A00
0A00
0800
1400
1400
4400
EE00
ENDCHAR
STARTCHAR cyr-I
ENCODING 233
SWIDTH 600 0
DWIDTH 8 0
BBX 10 9 0 0
BITMAP
1DC0
1100
1100
1300
2A00
2A00
3200
4400
EE00
ENDCHAR
STARTCHAR cyr-I-short
ENCODING 234
SWIDTH 600 0
DWIDTH 8 0
BBX 10 11 0 0
BITMAP
0500
0200
1DC0
1100
1100
1300
2A00
2A00
3200
4400
EE00
ENDCHAR
STARTCHAR cyr-Ka
ENCODING 235
SWIDTH 600 0
DWIDTH 8 0
BBX 10 9 0 0
BITMAP
1CC0
1100
1200
1200
2800
3800
2400
4400
E600
ENDCHAR
STARTCHAR cyr-El
ENCODING 236
SWIDTH 600 0
DWIDTH 8 0
BBX 10 9 0 0
BITMAP
0FC0
0900
0900
0900
1200
1200
1200
2400
CE00
ENDCHAR
STARTCHAR cyr-Em
ENCODING 237
SWIDTH 600 0
DWIDTH 8 0
BBX 10 9 0 0
BITMAP
18C0
1100
1B00
1B00
2A00
2A00
2200
4400
EE00
ENDCHAR
STARTCHAR cyr-En
ENCODING 238
SWIDTH 600 0
DWIDTH 8 0
BBX 10 9 0 0
BITMAP
1DC0
1100
1100
1100
3E00
2200
2200
4400
EE00
ENDCHAR
STARTCHAR cyr-O
ENCODING 239
SWIDTH 600 0
DWIDTH 8 0
BBX 10 9 0 0
BITMAP
0700
1100
2080
2080
4100
4100
4100
4400
3800
ENDCHAR
STARTCHAR cyr-Pe
ENCODING 240
SWIDTH 600 0
DWIDTH 8 0
BBX 10 9 0 0
BITMAP
1FC0
1100
1100
1100
2200
2200
2200
4400
EE00
ENDCHAR
STARTCHAR cyr-Ya
ENCODING 241
SWIDTH 600 0
DWIDTH 8 0
BBX 10 9 0 0
BITMAP
0FC0
2100
2100
2100
3E00
1200
1200
4400
CE00
ENDCHAR
STARTCHAR cyr-Er
ENCODING 242
SWIDTH 600 0
DWIDTH 8 0
BBX 10 9 0 0
BITMAP
1F80
1080
1080
1080
3E00
2000
2000
4000
E000
ENDCHAR
STARTCHAR cyr-Es
ENCODING 243
SWIDTH 600 0
DWIDTH 8 0
BBX 10 9 0 0
BITMAP
0740
1180
2080
2000
4000
4000
4100
4200
3C00
ENDCHAR
STARTCHAR cyr-Te
ENCODING 244
SWIDTH 600 0
DWIDTH 8 0
BBX 10 9 0 0
BITMAP
1FC0
2480
0400
0400
0800
0800
0800
1000
3800
ENDCHAR
STARTCHAR cyr-U
ENCODING 245
SWIDTH 600 0
DWIDTH 8 0
BBX 10 9 0 0
BITMAP
1DC0
1100
1100
0A00
1400
0800
0800
9000
6000
ENDCHAR
STARTCHAR cyr-Zhe
ENCODING 246
SWIDTH 600 0
DWIDTH 8 0
BBX 10 9 0 0
BITMAP
1AC0
1500
1500
1500
1C00
2A00
2A00
5400
D600
ENDCHAR
STARTCHAR cyr-Ve
ENCODING 247
SWIDTH 600 0
DWIDTH 8 0
BBX 10 9 0 0
BITMAP
1F80
1080
1080
1080
3E00
2100
2100
4200
FC00
ENDCHAR
STARTCHAR cyr-Ierik
ENCODING 248
SWIDTH 600 0
DWIDTH 8 0
BBX 10 9 0 0
BITMAP
1C00
1000
1000
1000
3E00
2100
2100
4200
FC00
ENDCHAR
STARTCHAR cyr-Iery
ENCODING 249
SWIDTH 600 0
DWIDTH 8 0
BBX 11 9 -1 0
BITMAP
1CE0
1080
1080
1080
3900
2500
2500
4A00
F700
ENDCHAR
STARTCHAR cyr-Ze
ENCODING 250
SWIDTH 600 0
DWIDTH 8 0
BBX 9 9 0 0
BITMAP
1700
3100
2100
0100
1C00
0200
4200
8400
7800
ENDCHAR
STARTCHAR cyr-Sha
ENCODING 251
SWIDTH 600 0
DWIDTH 8 0
BBX 10 9 0 0
BITMAP
1AC0
1500
1500
1500
2A00
2A00
2A00
5400
FE00
ENDCHAR
STARTCHAR cyr-E-rev
ENCODING 252
SWIDTH 600 0
DWIDTH 8 0
BBX 9 9 0 0
BITMAP
0E00
2200
0100
0100
3E00
0200
0200
8800
7000
ENDCHAR
STARTCHAR cyr-Shcha
ENCODING 253
SWIDTH 600 0
DWIDTH 8 0
BBX 10 10 0 -1
BITMAP
1AC0
0A80
1500
1500
1500
2A00
2A00
2A00
FE00
0200
ENDCHAR
STARTCHAR cyr-Che
ENCODING 254
SWIDTH 600 0
DWIDTH 8 0
BBX 10 9 0 0
BITMAP
1DC0
1100
1100
1100
2600
1A00
0200
0400
0E00
ENDCHAR
STARTCHAR cyr-Ier
ENCODING 255
SWIDTH 600 0
DWIDTH 8 0
BBX 10 9 0 0
BITMAP
1E00
2800
2800
0800
1E00
1100
1100
2200
7C00
ENDCHAR
ENDFONT
