STARTFONT 2.1
COMMENT Copyright (C) 1990-1991 EWT Consulting
COMMENT Portions Copyright (C) 1994-1995 Cronyx Ltd.
COMMENT Changes Copyright (C) 1996-1997 by Andrey A. Chernov, Moscow, Russia.
COMMENT Modified by Serge Vakulenko, <vak@cronyx.ru>
COMMENT This software may be used, modified, copied, distributed, and sold,
COMMENT in both source and binary form provided that the copyright
COMMENT and these terms are retained. Under no circumstances is the author
COMMENT responsible for the proper functioning of this software, nor does
COMMENT the author assume any responsibility for damages incurred with its use.
COMMENT $XFree86: xc/fonts/bdf/cyrillic/crox4tbo.bdf,v 3.2.4.1 1998/02/01 16:03:58 robin Exp $
FONT -Cronyx-Times-Bold-I-Normal--20-140-100-100-P-74-KOI8-R
SIZE 14 96 96
FONTBOUNDINGBOX 25 21 -1 -5
STARTPROPERTIES 20
DEFAULT_CHAR 32
FONT_ASCENT 16
FONT_DESCENT 5
SPACING "P"
FONTNAME_REGISTRY ""
FOUNDRY "Cronyx"
FAMILY_NAME "Times"
WEIGHT_NAME "Bold"
SLANT "I"
SETWIDTH_NAME "Normal"
ADD_STYLE_NAME ""
AVERAGE_WIDTH 74
CHARSET_REGISTRY "KOI8"
CHARSET_ENCODING "R"
PIXEL_SIZE 20
POINT_SIZE 140
RESOLUTION_X 100
RESOLUTION_Y 100
COPYRIGHT "Copyright (C) 1990, 1991 EWT Consulting, Portions Copyright (C) 1994 Cronyx Ltd., Portions Copyright (C) 1996-1997 by Andrey A. Chernov, Moscow, Russia."
_XMBDFED_INFO "Edited with xmbdfed 2.7."
ENDPROPERTIES
CHARS 165
STARTCHAR space
ENCODING 32
SWIDTH 263 0
DWIDTH 5 0
BBX 0 0 -1 0
BITMAP
ENDCHAR
STARTCHAR exclam
ENCODING 33
SWIDTH 385 0
DWIDTH 5 0
BBX 7 13 0 0
BITMAP
0E
0E
1C
1C
1C
38
38
38
70
00
00
E0
E0
ENDCHAR
STARTCHAR quotedbl
ENCODING 34
SWIDTH 2250 0
DWIDTH 9 0
BBX 8 4 0 9
BITMAP
77
77
EE
EE
ENDCHAR
STARTCHAR numbersign
ENCODING 35
SWIDTH 714 0
DWIDTH 10 0
BBX 14 14 -1 0
BITMAP
01F8
01F8
01F8
03F0
0FF8
07E0
0FC0
0FC0
0FC0
7FC0
3F00
3F00
7E00
7E00
ENDCHAR
STARTCHAR dollar
ENCODING 36
SWIDTH 588 0
DWIDTH 10 0
BBX 13 17 0 -2
BITMAP
00C0
00C0
01F0
07F0
0FB0
0FB0
1F00
0F80
07C0
0780
07C0
37C0
6F80
7F00
3E00
1800
1800
ENDCHAR
STARTCHAR percent
ENCODING 37
SWIDTH 1231 0
DWIDTH 16 0
BBX 18 13 0 0
BITMAP
03C380
07FF00
1CDC00
1CDC00
1DB800
1EE000
00E000
01DE00
077600
07E600
0EE600
39D800
38F000
ENDCHAR
STARTCHAR ampersand
ENCODING 38
SWIDTH 1154 0
DWIDTH 15 0
BBX 18 13 0 0
BITMAP
01F000
03B800
073000
077000
03E000
079E00
0F8C00
1DCC00
71F000
70E000
70E000
73EC00
3F7800
ENDCHAR
STARTCHAR quoteright
ENCODING 39
SWIDTH 1250 0
DWIDTH 5 0
BBX 4 4 0 9
BITMAP
70
70
E0
E0
ENDCHAR
STARTCHAR parenleft
ENCODING 40
SWIDTH 368 0
DWIDTH 7 0
BBX 11 19 0 -4
BITMAP
0060
00E0
0180
0380
0380
0600
0E00
0E00
1C00
1C00
1C00
3800
3800
1800
3800
3800
1800
3800
1800
ENDCHAR
STARTCHAR parenright
ENCODING 41
SWIDTH 368 0
DWIDTH 7 0
BBX 11 19 0 -4
BITMAP
0300
0380
0300
0380
0380
0300
0380
0380
0700
0700
0700
0E00
0E00
0C00
3800
3800
3000
E000
C000
ENDCHAR
STARTCHAR asterisk
ENCODING 42
SWIDTH 1429 0
DWIDTH 10 0
BBX 8 7 1 7
BITMAP
0C
3F
7E
3C
7E
FC
30
ENDCHAR
STARTCHAR plus
ENCODING 43
SWIDTH 1375 0
DWIDTH 11 0
BBX 11 8 0 3
BITMAP
0700
0700
0700
7FC0
7FC0
0E00
1C00
1C00
ENDCHAR
STARTCHAR comma
ENCODING 44
SWIDTH 1000 0
DWIDTH 5 0
BBX 4 5 0 -3
BITMAP
70
70
30
60
C0
ENDCHAR
STARTCHAR minus
ENCODING 45
SWIDTH 3500 0
DWIDTH 7 0
BBX 5 2 0 6
BITMAP
F8
F8
ENDCHAR
STARTCHAR period
ENCODING 46
SWIDTH 2500 0
DWIDTH 5 0
BBX 3 2 0 0
BITMAP
E0
E0
ENDCHAR
STARTCHAR slash
ENCODING 47
SWIDTH 375 0
DWIDTH 6 0
BBX 11 16 -1 -2
BITMAP
00E0
00E0
01C0
01C0
0380
0700
0700
0700
1C00
1C00
1C00
3800
7000
7000
E000
E000
ENDCHAR
STARTCHAR zero
ENCODING 48
SWIDTH 769 0
DWIDTH 10 0
BBX 12 13 0 0
BITMAP
03C0
07E0
1CE0
1CE0
1CE0
39C0
39C0
39C0
7380
7380
7380
7E00
3C00
ENDCHAR
STARTCHAR one
ENCODING 49
SWIDTH 769 0
DWIDTH 10 0
BBX 11 13 1 0
BITMAP
0180
0380
1F00
0700
0700
0E00
0E00
0E00
1C00
1C00
1C00
3800
FE00
ENDCHAR
STARTCHAR two
ENCODING 50
SWIDTH 769 0
DWIDTH 10 0
BBX 12 13 0 0
BITMAP
03C0
07E0
19E0
00E0
00E0
0380
0300
0700
1C00
1800
3180
FF00
FE00
ENDCHAR
STARTCHAR three
ENCODING 51
SWIDTH 769 0
DWIDTH 10 0
BBX 12 13 0 0
BITMAP
03C0
06E0
18E0
00E0
00C0
0300
0F80
03C0
0380
0380
0380
EE00
7C00
ENDCHAR
STARTCHAR four
ENCODING 52
SWIDTH 769 0
DWIDTH 10 0
BBX 12 13 0 0
BITMAP
00E0
00E0
03C0
03C0
07C0
0F80
1B80
1B80
7F80
7F80
0700
0E00
0E00
ENDCHAR
STARTCHAR five
ENCODING 53
SWIDTH 769 0
DWIDTH 10 0
BBX 12 13 0 0
BITMAP
03F0
03F0
0C00
0C00
1F80
3F80
03C0
01C0
0380
0380
0380
EE00
7C00
ENDCHAR
STARTCHAR six
ENCODING 54
SWIDTH 769 0
DWIDTH 10 0
BBX 12 13 0 0
BITMAP
01E0
0380
0E00
0E00
1C00
3F00
3F80
39C0
7380
7380
7380
7E00
3C00
ENDCHAR
STARTCHAR seven
ENCODING 55
SWIDTH 769 0
DWIDTH 10 0
BBX 12 13 0 0
BITMAP
07F0
07F0
19C0
01C0
0380
0700
0700
0E00
1C00
1C00
3800
7000
7000
ENDCHAR
STARTCHAR eight
ENCODING 56
SWIDTH 769 0
DWIDTH 10 0
BBX 12 13 0 0
BITMAP
03C0
07E0
1CE0
1CE0
1EC0
1F00
0F80
1BC0
7380
7380
7380
7E00
3C00
ENDCHAR
STARTCHAR nine
ENCODING 57
SWIDTH 769 0
DWIDTH 10 0
BBX 12 13 0 0
BITMAP
03C0
07E0
1CE0
1CE0
1CE0
39C0
1FC0
0FC0
0380
0300
0700
1C00
7800
ENDCHAR
STARTCHAR colon
ENCODING 58
SWIDTH 667 0
DWIDTH 6 0
BBX 6 9 0 0
BITMAP
1C
38
00
00
00
00
00
E0
E0
ENDCHAR
STARTCHAR semicolon
ENCODING 59
SWIDTH 500 0
DWIDTH 6 0
BBX 7 12 0 -3
BITMAP
0E
1C
00
00
00
00
00
70
70
30
60
C0
ENDCHAR
STARTCHAR less
ENCODING 60
SWIDTH 1222 0
DWIDTH 11 0
BBX 12 9 0 2
BITMAP
0070
03C0
0780
1E00
7800
3C00
0F00
0F00
0380
ENDCHAR
STARTCHAR equal
ENCODING 61
SWIDTH 1833 0
DWIDTH 11 0
BBX 11 6 0 3
BITMAP
3FE0
7FC0
0000
0000
FF80
FF80
ENDCHAR
STARTCHAR greater
ENCODING 62
SWIDTH 1222 0
DWIDTH 11 0
BBX 12 9 0 2
BITMAP
1C00
1E00
0F00
03C0
03C0
0780
1E00
7800
E000
ENDCHAR
STARTCHAR question
ENCODING 63
SWIDTH 692 0
DWIDTH 9 0
BBX 11 13 0 0
BITMAP
07C0
0CE0
1DC0
1DC0
01C0
0700
0700
0E00
1800
1800
0000
3800
3800
ENDCHAR
STARTCHAR at
ENCODING 64
SWIDTH 1200 0
DWIDTH 18 0
BBX 21 15 0 -2
BITMAP
003F00
01E780
0381C0
0700E0
0E7FC0
1CFEE0
1DCEE0
3B99C0
3BB9C0
39FF80
39DE00
380000
1C0000
1E3800
07E000
ENDCHAR
STARTCHAR A
ENCODING 65
SWIDTH 1000 0
DWIDTH 13 0
BBX 17 13 -1 0
BITMAP
006000
007000
01E000
01F000
01F000
06E000
067000
0C7000
1FF000
187000
307000
607000
F0F800
ENDCHAR
STARTCHAR B
ENCODING 66
SWIDTH 1077 0
DWIDTH 14 0
BBX 16 13 0 0
BITMAP
0FF0
071C
0E1C
0E1C
0E1C
1C70
1FF0
1C38
3838
3838
3838
70E0
FF80
ENDCHAR
STARTCHAR C
ENCODING 67
SWIDTH 1077 0
DWIDTH 14 0
BBX 16 13 0 0
BITMAP
00FE
03CE
0E0C
0E00
1C00
3800
3800
3800
7000
3800
3818
3CE0
0F80
ENDCHAR
STARTCHAR D
ENCODING 68
SWIDTH 1154 0
DWIDTH 15 0
BBX 17 13 0 0
BITMAP
0FF800
070E00
0E0E00
0E0E00
0E0700
1C0E00
1C0E00
1C0E00
381C00
383800
383800
70E000
FF8000
ENDCHAR
STARTCHAR E
ENCODING 69
SWIDTH 1000 0
DWIDTH 13 0
BBX 15 13 0 0
BITMAP
0FFC
070C
0E00
0E00
0E00
1C60
1FE0
1C60
3800
3800
3800
7060
FFC0
ENDCHAR
STARTCHAR F
ENCODING 70
SWIDTH 923 0
DWIDTH 12 0
BBX 14 13 0 0
BITMAP
0FFC
070C
0E00
0E00
0E00
1C60
1FE0
1C60
3800
3800
3800
7000
F800
ENDCHAR
STARTCHAR G
ENCODING 71
SWIDTH 1154 0
DWIDTH 15 0
BBX 17 13 0 0
BITMAP
00FE00
03CE00
0E0C00
0E0000
1C0000
380000
380000
383E00
703800
383800
383800
3CF000
0FC000
ENDCHAR
STARTCHAR H
ENCODING 72
SWIDTH 1154 0
DWIDTH 15 0
BBX 17 13 0 0
BITMAP
0F8F80
070700
0E0E00
0E0E00
0E0E00
1C1C00
1FFC00
1C1C00
383800
383800
383800
707000
F8F800
ENDCHAR
STARTCHAR I
ENCODING 73
SWIDTH 538 0
DWIDTH 7 0
BBX 9 13 0 0
BITMAP
0F80
0700
0E00
0E00
0E00
1C00
1C00
1C00
3800
3800
3800
7000
F800
ENDCHAR
STARTCHAR J
ENCODING 74
SWIDTH 692 0
DWIDTH 9 0
BBX 11 13 0 0
BITMAP
03E0
01C0
0380
0380
0380
0700
0700
0700
0E00
0E00
7E00
FC00
7800
ENDCHAR
STARTCHAR K
ENCODING 75
SWIDTH 1077 0
DWIDTH 14 0
BBX 17 13 0 0
BITMAP
0FBF00
071C00
0E7000
0EE000
0FC000
1F8000
1FC000
1DE000
39C000
38E000
38F000
70E000
FBF800
ENDCHAR
STARTCHAR L
ENCODING 76
SWIDTH 1000 0
DWIDTH 13 0
BBX 15 13 0 0
BITMAP
0F80
0700
0E00
0E00
0E00
1C00
1C00
1C00
3800
3800
3800
7060
FFC0
ENDCHAR
STARTCHAR M
ENCODING 77
SWIDTH 1308 0
DWIDTH 17 0
BBX 19 13 0 0
BITMAP
0F83E0
0783C0
0F8F80
0F8F80
0F8F80
1BB700
1BB700
1BB700
33CE00
33CE00
33CE00
631C00
F33E00
ENDCHAR
STARTCHAR N
ENCODING 78
SWIDTH 1154 0
DWIDTH 15 0
BBX 17 13 0 0
BITMAP
0F8780
078300
0F8600
0FC600
0DE600
19CC00
19EC00
18FC00
30F800
307800
307800
607000
F03000
ENDCHAR
STARTCHAR O
ENCODING 79
SWIDTH 1154 0
DWIDTH 15 0
BBX 17 13 0 0
BITMAP
00F800
038E00
0E0E00
0E0E00
1C0700
380E00
380E00
380E00
701C00
383800
383800
38E000
0F8000
ENDCHAR
STARTCHAR P
ENCODING 80
SWIDTH 923 0
DWIDTH 12 0
BBX 15 13 0 0
BITMAP
0FF0
071C
0E1C
0E1C
0E1C
1C70
1FC0
1C00
3800
3800
3800
7000
F800
ENDCHAR
STARTCHAR Q
ENCODING 81
SWIDTH 938 0
DWIDTH 15 0
BBX 18 16 0 -3
BITMAP
007C00
01C700
070700
070700
0E0380
1C0700
1C0700
1C0700
380E00
1C1C00
1C1C00
1C7000
07C000
03C000
01C000
007000
ENDCHAR
STARTCHAR R
ENCODING 82
SWIDTH 1000 0
DWIDTH 13 0
BBX 16 13 0 0
BITMAP
0FF8
071C
0E1C
0E1C
0E1C
1C70
1FE0
1CE0
38E0
38E0
3870
70E0
F870
ENDCHAR
STARTCHAR S
ENCODING 83
SWIDTH 846 0
DWIDTH 11 0
BBX 13 13 0 0
BITMAP
03F0
0770
1C60
1C60
1E00
1E00
0F80
03C0
03C0
61C0
61C0
E700
FE00
ENDCHAR
STARTCHAR T
ENCODING 84
SWIDTH 1000 0
DWIDTH 13 0
BBX 15 13 0 0
BITMAP
0FFE
0CE6
01C0
01C0
01C0
0380
0380
0380
0700
0700
0700
0E00
1F00
ENDCHAR
STARTCHAR U
ENCODING 85
SWIDTH 1154 0
DWIDTH 15 0
BBX 17 13 0 0
BITMAP
0F8780
070300
0E0600
0E0600
0E0600
1C0C00
1C0C00
1C0C00
381800
381800
1C3000
3CE000
0F8000
ENDCHAR
STARTCHAR V
ENCODING 86
SWIDTH 1000 0
DWIDTH 13 0
BBX 17 13 -1 0
BITMAP
0F8F80
070700
0E0C00
070C00
071800
0E3000
076000
076000
078000
078000
078000
060000
060000
ENDCHAR
STARTCHAR W
ENCODING 87
SWIDTH 1385 0
DWIDTH 18 0
BBX 22 13 -1 0
BITMAP
0FBE3C
071C18
0E3830
071C60
071C60
0E38C0
077D80
077D80
079E00
079E00
079E00
061800
061800
ENDCHAR
STARTCHAR X
ENCODING 88
SWIDTH 1000 0
DWIDTH 13 0
BBX 17 13 -1 0
BITMAP
0FCF80
038700
038C00
03D800
01F000
01E000
01E000
03E000
06E000
0CF000
187000
707000
F8F800
ENDCHAR
STARTCHAR Y
ENCODING 89
SWIDTH 1000 0
DWIDTH 13 0
BBX 17 13 -1 0
BITMAP
0F8780
070300
070C00
070C00
039800
03E000
03E000
01C000
038000
038000
038000
070000
0F8000
ENDCHAR
STARTCHAR Z
ENCODING 90
SWIDTH 1000 0
DWIDTH 13 0
BBX 16 13 0 0
BITMAP
07FE
061C
0038
0070
00F0
01C0
0380
0780
0E00
1C00
3C00
7030
FFE0
ENDCHAR
STARTCHAR bracketleft
ENCODING 91
SWIDTH 412 0
DWIDTH 7 0
BBX 10 17 1 -3
BITMAP
07C0
0700
0700
0E00
0E00
0E00
1C00
1C00
1C00
3800
3800
3800
7000
7000
7000
E000
F800
ENDCHAR
STARTCHAR backslash
ENCODING 92
SWIDTH 462 0
DWIDTH 6 0
BBX 10 13 -1 0
BITMAP
0E00
0E00
1C00
0E00
0E00
1C00
0E00
0E00
1C00
0E00
0E00
1C00
1C00
ENDCHAR
STARTCHAR bracketright
ENCODING 93
SWIDTH 412 0
DWIDTH 7 0
BBX 10 17 -1 -3
BITMAP
07C0
01C0
01C0
0380
0380
0380
0700
0700
0700
0E00
0E00
0E00
1C00
1C00
1C00
3800
F800
ENDCHAR
STARTCHAR asciicircum
ENCODING 94
SWIDTH 2500 0
DWIDTH 10 0
BBX 9 4 0 10
BITMAP
0C00
1E00
7E00
E700
ENDCHAR
STARTCHAR underscore
ENCODING 95
SWIDTH 10000 0
DWIDTH 10 0
BBX 10 1 -1 -2
BITMAP
FFC0
ENDCHAR
STARTCHAR quoteleft
ENCODING 96
SWIDTH 2333 0
DWIDTH 7 0
BBX 6 3 0 11
BITMAP
70
70
18
ENDCHAR
STARTCHAR a
ENCODING 97
SWIDTH 1111 0
DWIDTH 10 0
BBX 12 9 0 0
BITMAP
07C0
39C0
39C0
07C0
3B80
7380
7380
FF00
7F80
ENDCHAR
STARTCHAR b
ENCODING 98
SWIDTH 786 0
DWIDTH 11 0
BBX 14 14 0 0
BITMAP
0300
0F00
0700
0E00
0E00
0FE0
1EE0
1C70
1C70
38E0
38E0
38E0
7380
3F00
ENDCHAR
STARTCHAR c
ENCODING 99
SWIDTH 1000 0
DWIDTH 9 0
BBX 11 9 0 0
BITMAP
07C0
1DC0
39C0
3800
7000
7000
7180
7700
3E00
ENDCHAR
STARTCHAR d
ENCODING 100
SWIDTH 786 0
DWIDTH 11 0
BBX 14 14 0 0
BITMAP
0018
0078
0038
0070
0070
07F0
1DE0
38E0
38E0
71C0
71C0
71C0
7780
3FC0
ENDCHAR
STARTCHAR e
ENCODING 101
SWIDTH 1000 0
DWIDTH 9 0
BBX 11 9 0 0
BITMAP
0780
1F80
39C0
3FC0
7000
7000
7180
7700
3E00
ENDCHAR
STARTCHAR f
ENCODING 102
SWIDTH 500 0
DWIDTH 7 0
BBX 10 14 0 0
BITMAP
03C0
07C0
0700
0E00
1F80
0E00
1C00
1C00
1C00
3800
3800
3800
7000
F800
ENDCHAR
STARTCHAR g
ENCODING 103
SWIDTH 846 0
DWIDTH 11 0
BBX 14 13 0 -4
BITMAP
01E0
03FC
0E70
0E70
07E0
0780
0E00
1C00
3FC0
71E0
70E0
E380
7F00
ENDCHAR
STARTCHAR h
ENCODING 104
SWIDTH 786 0
DWIDTH 11 0
BBX 14 14 0 0
BITMAP
0300
0F00
0700
0E00
0E00
0FE0
1EE0
1CE0
1CE0
39C0
39C0
39C0
7380
FBC0
ENDCHAR
STARTCHAR i
ENCODING 105
SWIDTH 429 0
DWIDTH 6 0
BBX 9 14 0 0
BITMAP
0700
0700
0000
0000
0000
0E00
3C00
1C00
1C00
3800
3800
3800
7000
F800
ENDCHAR
STARTCHAR j
ENCODING 106
SWIDTH 278 0
DWIDTH 5 0
BBX 11 18 -1 -4
BITMAP
00E0
01C0
0000
0000
0000
0380
0780
0700
0700
0700
0E00
0E00
0E00
1C00
1C00
1C00
F800
7000
ENDCHAR
STARTCHAR k
ENCODING 107
SWIDTH 714 0
DWIDTH 10 0
BBX 13 14 0 0
BITMAP
0300
0F00
0700
0E00
0E00
0FF0
1D80
1F00
1E00
3E00
3F00
3F00
7700
FF80
ENDCHAR
STARTCHAR l
ENCODING 108
SWIDTH 429 0
DWIDTH 6 0
BBX 9 14 0 0
BITMAP
0300
0F00
0700
0E00
0E00
0E00
1C00
1C00
1C00
3800
3800
3800
7000
F800
ENDCHAR
STARTCHAR m
ENCODING 109
SWIDTH 1556 0
DWIDTH 14 0
BBX 16 9 0 0
BITMAP
07DC
3FFC
1DDC
1DDC
3BB8
3BB8
3BB8
7770
FFF8
ENDCHAR
STARTCHAR n
ENCODING 110
SWIDTH 1222 0
DWIDTH 11 0
BBX 13 9 0 0
BITMAP
0FE0
3EE0
1CE0
1CE0
39C0
39C0
39C0
7380
FBC0
ENDCHAR
STARTCHAR o
ENCODING 111
SWIDTH 1111 0
DWIDTH 10 0
BBX 12 9 0 0
BITMAP
07C0
19C0
38E0
38E0
71C0
71C0
71C0
7300
3E00
ENDCHAR
STARTCHAR p
ENCODING 112
SWIDTH 846 0
DWIDTH 11 0
BBX 14 13 0 -4
BITMAP
07F0
0FB8
0E38
0E38
0E38
1C70
1C70
1EE0
3F80
3800
3800
7000
F800
ENDCHAR
STARTCHAR q
ENCODING 113
SWIDTH 846 0
DWIDTH 11 0
BBX 14 13 0 -4
BITMAP
03F8
0778
1C70
1C70
1C70
38E0
38E0
1DE0
1FC0
01C0
01C0
0380
07C0
ENDCHAR
STARTCHAR r
ENCODING 114
SWIDTH 889 0
DWIDTH 8 0
BBX 10 9 0 0
BITMAP
0FC0
3F80
1D80
1C00
3800
3800
3800
7000
F800
ENDCHAR
STARTCHAR s
ENCODING 115
SWIDTH 889 0
DWIDTH 8 0
BBX 10 9 0 0
BITMAP
0FC0
3B80
3980
1C00
1C00
0E00
6700
EE00
FC00
ENDCHAR
STARTCHAR t
ENCODING 116
SWIDTH 583 0
DWIDTH 7 0
BBX 10 12 0 0
BITMAP
0300
0600
0E00
1F80
1C00
1C00
1C00
3800
3800
3800
7C00
3800
ENDCHAR
STARTCHAR u
ENCODING 117
SWIDTH 1222 0
DWIDTH 11 0
BBX 13 9 0 0
BITMAP
1EF0
1CE0
1CE0
1CE0
39C0
39C0
39C0
7780
3FC0
ENDCHAR
STARTCHAR v
ENCODING 118
SWIDTH 1222 0
DWIDTH 11 0
BBX 13 9 0 0
BITMAP
1F78
1C60
1C60
0EC0
1D80
0F00
0F00
0C00
0C00
ENDCHAR
STARTCHAR w
ENCODING 119
SWIDTH 1667 0
DWIDTH 15 0
BBX 17 9 0 0
BITMAP
1FFF80
1CE600
1CE600
0FFE00
1FF800
0F7800
0F7800
0C6000
0C6000
ENDCHAR
STARTCHAR x
ENCODING 120
SWIDTH 1111 0
DWIDTH 10 0
BBX 12 9 0 0
BITMAP
1FF0
1CC0
0F80
0F00
0E00
0F00
1F00
6700
FF80
ENDCHAR
STARTCHAR y
ENCODING 121
SWIDTH 846 0
DWIDTH 11 0
BBX 14 13 0 -4
BITMAP
0FBC
0718
0E30
0760
0760
0780
0780
0300
0600
0E00
3C00
F800
7000
ENDCHAR
STARTCHAR z
ENCODING 122
SWIDTH 1000 0
DWIDTH 9 0
BBX 11 9 0 0
BITMAP
1FE0
31C0
0380
0700
1C00
3800
7000
E300
FF00
ENDCHAR
STARTCHAR braceleft
ENCODING 123
SWIDTH 529 0
DWIDTH 9 0
BBX 11 17 1 -4
BITMAP
01E0
0380
0380
0700
0700
0700
0E00
0E00
1C00
1C00
1C00
1C00
3800
3800
3800
7000
3C00
ENDCHAR
STARTCHAR bar
ENCODING 124
SWIDTH 313 0
DWIDTH 5 0
BBX 8 16 0 -2
BITMAP
07
07
0E
0E
0E
1C
1C
1C
38
38
38
70
70
70
E0
E0
ENDCHAR
STARTCHAR braceright
ENCODING 125
SWIDTH 529 0
DWIDTH 9 0
BBX 11 17 0 -4
BITMAP
0780
01C0
01C0
0380
0380
0380
0700
0700
0380
0E00
0E00
0E00
1C00
1C00
1C00
3800
F000
ENDCHAR
STARTCHAR asciitilde
ENCODING 126
SWIDTH 3333 0
DWIDTH 10 0
BBX 9 3 0 11
BITMAP
3D80
FF00
DE00
ENDCHAR
STARTCHAR nbsp
ENCODING 154
SWIDTH 263 0
DWIDTH 5 0
BBX 0 0 -1 0
BITMAP
ENDCHAR
STARTCHAR degree
ENCODING 156
SWIDTH 1200 0
DWIDTH 6 0
BBX 7 5 -1 9
BITMAP
3C
7E
66
FC
78
ENDCHAR
STARTCHAR twosuperior
ENCODING 157
SWIDTH 1000 0
DWIDTH 6 0
BBX 8 6 -1 8
BITMAP
1E
6E
0E
1C
70
FC
ENDCHAR
STARTCHAR cyr-yo
ENCODING 163
SWIDTH 667 0
DWIDTH 8 0
BBX 12 12 0 0
BITMAP
07E0
0FC0
0000
0780
1F80
39C0
3FC0
7000
7000
7180
7700
3E00
ENDCHAR
STARTCHAR cyr-Yo
ENCODING 179
SWIDTH 688 0
DWIDTH 11 0
BBX 16 16 0 0
BITMAP
039C
039C
0000
0FFC
070C
0E00
0E00
0E00
1C60
1FE0
1C60
3800
3800
3800
7060
FFC0
ENDCHAR
STARTCHAR copyright
ENCODING 191
SWIDTH 1154 0
DWIDTH 15 0
BBX 18 13 -1 0
BITMAP
00FC00
038700
0C0300
0CF300
19DD80
371B00
370300
371B00
676600
33CC00
300C00
387000
0FC000
ENDCHAR
STARTCHAR cyr-yu
ENCODING 192
SWIDTH 1667 0
DWIDTH 15 0
BBX 17 9 0 0
BITMAP
1F3E00
1CCE00
1DC700
1DC700
3F8E00
3B8E00
3B8E00
739800
F9F000
ENDCHAR
STARTCHAR cyr-a
ENCODING 193
SWIDTH 1111 0
DWIDTH 10 0
BBX 12 9 0 0
BITMAP
0FC0
39C0
39C0
07C0
3B80
7380
7380
EF00
7F80
ENDCHAR
STARTCHAR cyr-be
ENCODING 194
SWIDTH 667 0
DWIDTH 10 0
BBX 14 15 0 0
BITMAP
000C
03F0
0600
0E00
1C00
1C00
1FC0
3CC0
3860
3860
70C0
70C0
70C0
F300
7E00
ENDCHAR
STARTCHAR cyr-tse
ENCODING 195
SWIDTH 1091 0
DWIDTH 12 0
BBX 14 11 0 -2
BITMAP
1F7C
0E38
0E38
1C70
1C70
1C70
38E0
38E0
7FF0
0060
0060
ENDCHAR
STARTCHAR cyr-de
ENCODING 196
SWIDTH 1000 0
DWIDTH 11 0
BBX 13 11 0 -2
BITMAP
0FF8
0670
0670
0CE0
0CE0
0CE0
19C0
31C0
7FE0
C0C0
C0C0
ENDCHAR
STARTCHAR cyr-ie
ENCODING 197
SWIDTH 1000 0
DWIDTH 9 0
BBX 11 9 0 0
BITMAP
0780
1F80
39C0
3FC0
7000
7000
7180
7700
3E00
ENDCHAR
STARTCHAR cyr-ef
ENCODING 198
SWIDTH 857 0
DWIDTH 12 0
BBX 15 14 0 -5
BITMAP
03F8
06EC
0EEE
1DDC
1DDC
1DDC
3BB8
1BB0
0FE0
0700
0700
0700
0E00
1F00
ENDCHAR
STARTCHAR cyr-ghe
ENCODING 199
SWIDTH 1000 0
DWIDTH 9 0
BBX 11 9 0 0
BITMAP
1FE0
1CC0
1C00
1C00
3800
3800
3800
7000
F800
ENDCHAR
STARTCHAR cyr-kha
ENCODING 200
SWIDTH 1111 0
DWIDTH 10 0
BBX 12 9 0 0
BITMAP
1FF0
1CC0
0F80
0F00
0E00
0F00
1F00
6700
FF80
ENDCHAR
STARTCHAR cyr-i
ENCODING 201
SWIDTH 1333 0
DWIDTH 12 0
BBX 14 9 0 0
BITMAP
1F3C
1CF0
1DF0
1DF0
3EE0
3EE0
3CE0
71C0
FBE0
ENDCHAR
STARTCHAR cyr-i-short
ENCODING 202
SWIDTH 1091 0
DWIDTH 12 0
BBX 14 11 0 0
BITMAP
03F0
01E0
1F3C
1CF0
1DF0
1DF0
3EE0
3EE0
3CE0
71C0
FBE0
ENDCHAR
STARTCHAR cyr-ka
ENCODING 203
SWIDTH 1222 0
DWIDTH 11 0
BBX 13 9 0 0
BITMAP
1F78
1DF0
1D80
1F00
3E00
3F00
3B80
7380
FBC0
ENDCHAR
STARTCHAR cyr-el
ENCODING 204
SWIDTH 1333 0
DWIDTH 12 0
BBX 14 9 0 0
BITMAP
07FC
0670
0670
0670
0CE0
0CE0
0CE0
F9C0
F3E0
ENDCHAR
STARTCHAR cyr-em
ENCODING 205
SWIDTH 1444 0
DWIDTH 13 0
BBX 15 9 0 0
BITMAP
1E1E
1E78
1E78
1FF8
3FF0
3770
3770
60E0
F1F0
ENDCHAR
STARTCHAR cyr-en
ENCODING 206
SWIDTH 1333 0
DWIDTH 12 0
BBX 14 9 0 0
BITMAP
1F7C
1C70
1C70
1C70
3FE0
38E0
38E0
71C0
FBE0
ENDCHAR
STARTCHAR cyr-o
ENCODING 207
SWIDTH 1111 0
DWIDTH 10 0
BBX 12 9 0 0
BITMAP
07C0
19C0
38E0
38E0
71C0
71C0
71C0
7300
3E00
ENDCHAR
STARTCHAR cyr-pe
ENCODING 208
SWIDTH 1333 0
DWIDTH 12 0
BBX 14 9 0 0
BITMAP
1FFC
1C70
1C70
1C70
38E0
38E0
38E0
71C0
FBE0
ENDCHAR
STARTCHAR cyr-ya
ENCODING 209
SWIDTH 1222 0
DWIDTH 11 0
BBX 14 9 -1 0
BITMAP
07FC
1C70
1C70
1C70
1FE0
0EE0
1CE0
71C0
E3E0
ENDCHAR
STARTCHAR cyr-er
ENCODING 210
SWIDTH 846 0
DWIDTH 11 0
BBX 14 13 0 -4
BITMAP
0FF0
0738
0E38
0E38
0E38
1C70
1C70
1CE0
3F80
3800
3800
7000
F800
ENDCHAR
STARTCHAR cyr-es
ENCODING 211
SWIDTH 1000 0
DWIDTH 9 0
BBX 11 9 0 0
BITMAP
07C0
1DC0
39C0
3800
7000
7000
7180
7700
3E00
ENDCHAR
STARTCHAR cyr-te
ENCODING 212
SWIDTH 1111 0
DWIDTH 10 0
BBX 12 9 0 0
BITMAP
1FF0
3760
3760
0700
0E00
0E00
0E00
1C00
3E00
ENDCHAR
STARTCHAR cyr-u
ENCODING 213
SWIDTH 846 0
DWIDTH 11 0
BBX 14 13 0 -4
BITMAP
0FBC
0718
0E30
0760
0760
0780
0780
0300
0600
0E00
3C00
F800
7000
ENDCHAR
STARTCHAR cyr-zhe
ENCODING 214
SWIDTH 1778 0
DWIDTH 16 0
BBX 18 9 0 0
BITMAP
1EFBC0
3EEF80
06EC00
03F800
07F000
0FF800
1DDC00
739C00
FFFE00
ENDCHAR
STARTCHAR cyr-ve
ENCODING 215
SWIDTH 1111 0
DWIDTH 10 0
BBX 12 9 0 0
BITMAP
1FE0
1C60
1C60
1C60
3F80
38C0
38C0
7180
FF00
ENDCHAR
STARTCHAR cyr-ierik
ENCODING 216
SWIDTH 1111 0
DWIDTH 10 0
BBX 12 9 0 0
BITMAP
1F00
1C00
1C00
1FC0
39C0
39C0
39C0
7380
FF00
ENDCHAR
STARTCHAR cyr-iery
ENCODING 217
SWIDTH 1667 0
DWIDTH 15 0
BBX 17 9 0 0
BITMAP
1F0F80
1C0E00
1C0E00
1FCE00
39DC00
39DC00
39DC00
73B800
FF7C00
ENDCHAR
STARTCHAR cyr-z
ENCODING 218
SWIDTH 1000 0
DWIDTH 9 0
BBX 11 9 0 0
BITMAP
0FC0
31C0
31C0
01C0
1F00
0380
6380
C700
7E00
ENDCHAR
STARTCHAR cyr-sha
ENCODING 219
SWIDTH 1778 0
DWIDTH 16 0
BBX 18 9 0 0
BITMAP
1EFFC0
1CE700
1CE700
1CE700
39CE00
39CE00
39CE00
739C00
FFFE00
ENDCHAR
STARTCHAR cyr-e-rev
ENCODING 220
SWIDTH 1000 0
DWIDTH 9 0
BBX 11 9 0 0
BITMAP
0FC0
31C0
31C0
01C0
1F80
0380
6380
C700
7E00
ENDCHAR
STARTCHAR cyr-shcha
ENCODING 221
SWIDTH 1455 0
DWIDTH 16 0
BBX 18 11 0 -2
BITMAP
1EFFC0
0E7380
0E7380
1CE700
1CE700
1CE700
39CE00
39CE00
7FFF00
000600
000600
ENDCHAR
STARTCHAR cyr-che
ENCODING 222
SWIDTH 1333 0
DWIDTH 12 0
BBX 14 9 0 0
BITMAP
1F7C
1C70
1C70
1C70
1FE0
00E0
00E0
01C0
03E0
ENDCHAR
STARTCHAR cyr-ier
ENCODING 223
SWIDTH 1333 0
DWIDTH 12 0
BBX 14 9 0 0
BITMAP
1FC0
3700
3700
07F0
0E70
0E70
0E70
1CE0
3FC0
ENDCHAR
STARTCHAR cyr-Yu
ENCODING 224
SWIDTH 1385 0
DWIDTH 18 0
BBX 21 13 0 0
BITMAP
0F8780
071CE0
0E70E0
0E70E0
0EE070
1DC0E0
1FC0E0
1DC0E0
3B81C0
39C380
39C380
71CE00
F8F800
ENDCHAR
STARTCHAR cyr-A
ENCODING 225
SWIDTH 1000 0
DWIDTH 13 0
BBX 17 13 -1 0
BITMAP
006000
007000
01E000
01F000
01F000
06E000
067000
0C7000
1FF000
187000
307000
607000
F0F800
ENDCHAR
STARTCHAR cyr-Be
ENCODING 226
SWIDTH 1077 0
DWIDTH 14 0
BBX 16 13 0 0
BITMAP
0FFF
0707
0E06
0E00
0E00
1FF0
1C38
1C1C
3838
3838
3838
70E0
FFC0
ENDCHAR
STARTCHAR cyr-Tse
ENCODING 227
SWIDTH 1000 0
DWIDTH 15 0
BBX 18 15 0 -2
BITMAP
07C7C0
070700
070700
070700
0E0E00
0E0E00
0E0E00
1C1C00
1C1C00
1C1C00
383800
383800
7FFC00
001800
001800
ENDCHAR
STARTCHAR cyr-De
ENCODING 228
SWIDTH 933 0
DWIDTH 14 0
BBX 17 15 0 -2
BITMAP
03FF80
030E00
030E00
030E00
061C00
061C00
061C00
0C3800
0C3800
0C3800
187000
307000
7FF800
C03000
C03000
ENDCHAR
STARTCHAR cyr-Ie
ENCODING 229
SWIDTH 1000 0
DWIDTH 13 0
BBX 15 13 0 0
BITMAP
0FFC
070C
0E00
0E00
0E00
1C60
1FE0
1C60
3800
3800
3800
7060
FFE0
ENDCHAR
STARTCHAR cyr-Ef
ENCODING 230
SWIDTH 1308 0
DWIDTH 17 0
BBX 19 13 0 0
BITMAP
00FE00
03BB80
0E7380
0E7380
1C71C0
38E380
38E380
1CE700
39CE00
1DDC00
07F000
038000
07C000
ENDCHAR
STARTCHAR cyr-Ghe
ENCODING 231
SWIDTH 1000 0
DWIDTH 13 0
BBX 15 13 0 0
BITMAP
0FFE
070E
0E0C
0E00
0E00
1C00
1C00
1C00
3800
3800
3800
7000
F800
ENDCHAR
STARTCHAR cyr-Kha
ENCODING 232
SWIDTH 1154 0
DWIDTH 15 0
BBX 17 13 0 0
BITMAP
0FCF80
038700
038C00
03D800
01F000
01E000
01E000
03E000
06E000
0CF000
187000
707000
F8F800
ENDCHAR
STARTCHAR cyr-I
ENCODING 233
SWIDTH 1154 0
DWIDTH 15 0
BBX 17 13 0 0
BITMAP
0F8F80
070F00
0E3E00
0E3E00
0E6E00
1CDC00
1D9C00
1D9C00
3E3800
3E3800
3C3800
787000
F8F800
ENDCHAR
STARTCHAR cyr-I-short
ENCODING 234
SWIDTH 938 0
DWIDTH 15 0
BBX 18 16 0 0
BITMAP
00EE00
007C00
000000
0F8F80
070F00
0E3E00
0E3E00
0E6E00
1CDC00
1D9C00
1D9C00
3E3800
3E3800
3C3800
787000
F8F800
ENDCHAR
STARTCHAR cyr-Ka
ENCODING 235
SWIDTH 1000 0
DWIDTH 13 0
BBX 15 13 0 0
BITMAP
0F9E
073E
0E60
0EC0
0EC0
1F00
1DC0
1CE0
39C0
38E0
38E0
71C0
FBE0
ENDCHAR
STARTCHAR cyr-El
ENCODING 236
SWIDTH 1077 0
DWIDTH 14 0
BBX 17 13 -1 0
BITMAP
03FF80
018700
030E00
030E00
030E00
061C00
061C00
061C00
0C3800
0C3800
0C3800
F87000
F0F800
ENDCHAR
STARTCHAR cyr-Em
ENCODING 237
SWIDTH 1308 0
DWIDTH 17 0
BBX 19 13 0 0
BITMAP
0F83E0
0783C0
0F8F80
0F8F80
0F8F80
1BB700
1BB700
1BB700
33CE00
33CE00
33CE00
631C00
F33E00
ENDCHAR
STARTCHAR cyr-En
ENCODING 238
SWIDTH 1154 0
DWIDTH 15 0
BBX 17 13 0 0
BITMAP
0F8F80
070700
0E0E00
0E0E00
0E0E00
1C1C00
1FFC00
1C1C00
383800
383800
383800
707000
F8F800
ENDCHAR
STARTCHAR cyr-O
ENCODING 239
SWIDTH 1154 0
DWIDTH 15 0
BBX 17 13 0 0
BITMAP
00F800
038E00
0E0E00
0E0E00
1C0700
380E00
380E00
380E00
701C00
383800
383800
38E000
0F8000
ENDCHAR
STARTCHAR cyr-Pe
ENCODING 240
SWIDTH 1154 0
DWIDTH 15 0
BBX 17 13 0 0
BITMAP
0FFF80
070700
0E0E00
0E0E00
0E0E00
1C1C00
1C1C00
1C1C00
383800
383800
383800
707000
F8F800
ENDCHAR
STARTCHAR cyr-Ya
ENCODING 241
SWIDTH 1231 0
DWIDTH 16 0
BBX 19 13 -1 0
BITMAP
007FE0
00E1C0
038380
038380
038380
038700
01FF00
00E700
038E00
070E00
0E0E00
381C00
F83E00
ENDCHAR
STARTCHAR cyr-Er
ENCODING 242
SWIDTH 1077 0
DWIDTH 14 0
BBX 16 13 0 0
BITMAP
0FF8
070E
0E0E
0E0E
0E0E
1C1C
1C38
1FE0
3800
3800
3800
7000
F800
ENDCHAR
STARTCHAR cyr-Es
ENCODING 243
SWIDTH 1077 0
DWIDTH 14 0
BBX 16 13 0 0
BITMAP
00FE
03CE
0E0C
0E00
1C00
3800
3800
3800
7000
3800
3818
3CE0
0F80
ENDCHAR
STARTCHAR cyr-Te
ENCODING 244
SWIDTH 1000 0
DWIDTH 13 0
BBX 15 13 0 0
BITMAP
0FFE
0CE6
01C0
01C0
01C0
0380
0380
0380
0700
0700
0700
0E00
1F00
ENDCHAR
STARTCHAR cyr-U
ENCODING 245
SWIDTH 1000 0
DWIDTH 13 0
BBX 17 13 -1 0
BITMAP
0F8780
070300
070C00
070C00
039800
03B000
03E000
01E000
018000
018000
030000
7E0000
3C0000
ENDCHAR
STARTCHAR cyr-Zhe
ENCODING 246
SWIDTH 1385 0
DWIDTH 18 0
BBX 21 13 0 0
BITMAP
0F3E78
0F9CF8
033980
01BB00
01BB00
01FC00
077700
0E7380
1CE700
38E380
38E380
71C700
FBEF80
ENDCHAR
STARTCHAR cyr-Ve
ENCODING 247
SWIDTH 1077 0
DWIDTH 14 0
BBX 16 13 0 0
BITMAP
0FF0
071C
0E1C
0E1C
0E1C
1C70
1FF0
1C38
3838
3838
3838
70E0
FF80
ENDCHAR
STARTCHAR cyr-Ierik
ENCODING 248
SWIDTH 1077 0
DWIDTH 14 0
BBX 16 13 0 0
BITMAP
0F80
0700
0E00
0E00
0E00
1FF0
1C38
1C1C
3838
3838
3838
70E0
FFC0
ENDCHAR
STARTCHAR cyr-Iery
ENCODING 249
SWIDTH 1385 0
DWIDTH 18 0
BBX 20 13 0 0
BITMAP
0F81F0
0700E0
0E01C0
0E01C0
0E01C0
1FF380
1C3B80
1C1F80
383F00
383F00
383F00
70EE00
FFDF00
ENDCHAR
STARTCHAR cyr-Ze
ENCODING 250
SWIDTH 1000 0
DWIDTH 13 0
BBX 15 13 0 0
BITMAP
03E0
0E38
1838
0038
0038
00E0
07E0
0070
0070
0070
6070
E1C0
3F00
ENDCHAR
STARTCHAR cyr-Sha
ENCODING 251
SWIDTH 1385 0
DWIDTH 18 0
BBX 21 13 0 0
BITMAP
0FBEF8
071C70
0E38E0
0E38E0
0E38E0
1C71C0
1C71C0
1C71C0
38E380
38E380
38E380
71C700
FFFF80
ENDCHAR
STARTCHAR cyr-E-rev
ENCODING 252
SWIDTH 1000 0
DWIDTH 13 0
BBX 15 13 0 0
BITMAP
0FF8
0E1C
181C
001C
001C
0638
07F8
0638
0070
0070
6070
E1C0
FF80
ENDCHAR
STARTCHAR cyr-Shcha
ENCODING 253
SWIDTH 1200 0
DWIDTH 18 0
BBX 22 15 0 -2
BITMAP
07DF7C
071C70
071C70
071C70
0E38E0
0E38E0
0E38E0
1C71C0
1C71C0
1C71C0
38E380
38E380
7FFFC0
000180
000180
ENDCHAR
STARTCHAR cyr-Che
ENCODING 254
SWIDTH 1154 0
DWIDTH 15 0
BBX 17 13 0 0
BITMAP
0F8F80
070700
0E0E00
0E0E00
0E0E00
1C1C00
1C1C00
07FC00
003800
003800
003800
007000
00F800
ENDCHAR
STARTCHAR cyr-Ier
ENCODING 255
SWIDTH 1231 0
DWIDTH 16 0
BBX 18 13 0 0
BITMAP
0FE000
0DC000
1B8000
038000
038000
07FC00
070E00
070700
0E0E00
0E0E00
0E0E00
1C3800
3FF000
ENDCHAR
ENDFONT
