STARTFONT 2.1
COMMENT Copyright (C) 1990-1991 EWT Consulting
COMMENT Portions Copyright (C) 1994-1995 Cronyx Ltd.
COMMENT Changes Copyright (C) 1996-1997 by Andrey A. Chernov, Moscow, Russia.
COMMENT Modified by Serge Vakulenko, <vak@cronyx.ru>
COMMENT This software may be used, modified, copied, distributed, and sold,
COMMENT in both source and binary form provided that the copyright
COMMENT and these terms are retained. Under no circumstances is the author
COMMENT responsible for the proper functioning of this software, nor does
COMMENT the author assume any responsibility for damages incurred with its use.
COMMENT $XFree86: xc/fonts/bdf/cyrillic/crox5tbo.bdf,v 3.2.4.1 1998/02/01 16:04:06 robin Exp $
FONT -Cronyx-Times-Bold-I-Normal--25-180-100-100-P-94-KOI8-R
SIZE 18 96 96
FONTBOUNDINGBOX 32 26 -1 -6
STARTPROPERTIES 20
DEFAULT_CHAR 32
FONT_ASCENT 21
FONT_DESCENT 6
SPACING "P"
FONTNAME_REGISTRY ""
FOUNDRY "Cronyx"
FAMILY_NAME "Times"
WEIGHT_NAME "Bold"
SLANT "I"
SETWIDTH_NAME "Normal"
ADD_STYLE_NAME ""
AVERAGE_WIDTH 94
CHARSET_REGISTRY "KOI8"
CHARSET_ENCODING "R"
PIXEL_SIZE 25
POINT_SIZE 180
RESOLUTION_X 100
RESOLUTION_Y 100
COPYRIGHT "Copyright (C) 1990, 1991 EWT Consulting, Portions Copyright (C) 1994 Cronyx Ltd., Portions Copyright (C) 1996-1997 by Andrey A. Chernov, Moscow, Russia."
_XMBDFED_INFO "Edited with xmbdfed 2.7."
ENDPROPERTIES
CHARS 165
STARTCHAR space
ENCODING 32
SWIDTH 292 0
DWIDTH 7 0
BBX 0 0 -1 0
BITMAP
ENDCHAR
STARTCHAR exclam
ENCODING 33
SWIDTH 471 0
DWIDTH 8 0
BBX 9 17 1 0
BITMAP
0300
0780
0780
0F00
0F00
0F00
1E00
1E00
0C00
1800
1800
1800
0000
3000
7800
F000
6000
ENDCHAR
STARTCHAR quotedbl
ENCODING 34
SWIDTH 1833 0
DWIDTH 11 0
BBX 11 6 0 11
BITMAP
18C0
7BC0
7BC0
3180
6300
6300
ENDCHAR
STARTCHAR numbersign
ENCODING 35
SWIDTH 765 0
DWIDTH 13 0
BBX 18 17 -1 0
BITMAP
00E700
00E700
00E700
01CE00
01CE00
07FF80
073800
073800
073800
0E7000
0E7000
3FFC00
39C000
39C000
39C000
738000
738000
ENDCHAR
STARTCHAR dollar
ENCODING 36
SWIDTH 619 0
DWIDTH 13 0
BBX 18 21 0 -3
BITMAP
000C00
001800
007F80
00FF80
03B700
03B300
03B300
07E000
03E000
01F800
00F800
00F800
00FC00
31B800
31B800
39B800
7BE000
7FC000
030000
060000
060000
ENDCHAR
STARTCHAR percent
ENCODING 37
SWIDTH 1235 0
DWIDTH 21 0
BBX 24 17 0 0
BITMAP
00F838
01DFF8
038CF0
0E19C0
0E19C0
0E3380
1CCE00
0F8E00
001C00
0071F0
0073B8
00E718
039C30
039C30
071C60
1C3980
1C1F00
ENDCHAR
STARTCHAR ampersand
ENCODING 38
SWIDTH 1176 0
DWIDTH 20 0
BBX 23 17 0 0
BITMAP
001E00
003F00
007380
00E300
00E700
007E00
00F800
01F3F0
07F9E0
1C7180
1C3B80
383F00
703E00
701E00
383F60
7DEFC0
1F8780
ENDCHAR
STARTCHAR quoteright
ENCODING 39
SWIDTH 1167 0
DWIDTH 7 0
BBX 6 6 1 11
BITMAP
18
78
78
30
60
60
ENDCHAR
STARTCHAR parenleft
ENCODING 40
SWIDTH 409 0
DWIDTH 9 0
BBX 14 22 0 -5
BITMAP
000C
0018
0060
00E0
00C0
0380
0380
0700
0E00
0E00
0E00
1C00
1C00
1C00
3800
1C00
1C00
1800
1C00
0C00
0C00
0600
ENDCHAR
STARTCHAR parenright
ENCODING 41
SWIDTH 409 0
DWIDTH 9 0
BBX 14 22 0 -5
BITMAP
0180
00C0
00C0
00E0
0060
00E0
00E0
0070
00E0
00E0
00E0
01C0
01C0
01C0
0380
0380
0700
0E00
0C00
1C00
3000
6000
ENDCHAR
STARTCHAR asterisk
ENCODING 42
SWIDTH 1000 0
DWIDTH 9 0
BBX 11 9 0 9
BITMAP
0300
0F00
3FC0
3FC0
1E00
7F80
7F80
3C00
1800
ENDCHAR
STARTCHAR plus
ENCODING 43
SWIDTH 1500 0
DWIDTH 15 0
BBX 14 10 1 2
BITMAP
01C0
01C0
0380
0380
3FF8
7FF0
0700
0700
0E00
0E00
ENDCHAR
STARTCHAR comma
ENCODING 44
SWIDTH 1000 0
DWIDTH 7 0
BBX 6 7 1 -3
BITMAP
18
3C
78
38
18
30
60
ENDCHAR
STARTCHAR minus
ENCODING 45
SWIDTH 4500 0
DWIDTH 9 0
BBX 7 2 0 6
BITMAP
FE
FE
ENDCHAR
STARTCHAR period
ENCODING 46
SWIDTH 1750 0
DWIDTH 7 0
BBX 5 4 1 0
BITMAP
30
78
F0
60
ENDCHAR
STARTCHAR slash
ENCODING 47
SWIDTH 444 0
DWIDTH 8 0
BBX 14 18 -1 -1
BITMAP
001C
0038
0038
0070
00E0
00E0
01C0
0380
0380
0700
0E00
0E00
1C00
3800
3800
7000
E000
E000
ENDCHAR
STARTCHAR zero
ENCODING 48
SWIDTH 813 0
DWIDTH 13 0
BBX 16 16 0 0
BITMAP
00F8
01DC
071C
071C
0E0E
1C1C
1C1C
1C1C
3838
3838
3838
7070
38E0
38E0
3B80
1F00
ENDCHAR
STARTCHAR one
ENCODING 49
SWIDTH 813 0
DWIDTH 13 0
BBX 12 16 2 0
BITMAP
00C0
01C0
0780
0F80
0380
0700
0700
0700
0E00
0E00
0E00
1C00
1C00
1C00
7C00
FE00
ENDCHAR
STARTCHAR two
ENCODING 50
SWIDTH 813 0
DWIDTH 13 0
BBX 16 16 0 0
BITMAP
00F8
01FC
073C
061C
001C
0038
0038
0070
00E0
01C0
0380
0600
0C30
1870
7FC0
FFC0
ENDCHAR
STARTCHAR three
ENCODING 51
SWIDTH 813 0
DWIDTH 13 0
BBX 16 16 0 0
BITMAP
00F8
01FC
073C
001C
001C
0070
01F0
0078
0070
0038
0038
0070
00F0
79E0
FF80
3F00
ENDCHAR
STARTCHAR four
ENCODING 52
SWIDTH 813 0
DWIDTH 13 0
BBX 17 16 0 0
BITMAP
001E00
001E00
007C00
00FC00
01DC00
033800
073800
0E3800
387000
387000
3FFC00
7FF800
00E000
00E000
01C000
01C000
ENDCHAR
STARTCHAR five
ENCODING 53
SWIDTH 813 0
DWIDTH 13 0
BBX 16 16 0 0
BITMAP
01FE
01FC
0300
0600
0600
0FE0
0FF8
0078
0078
0038
0038
0070
0070
78E0
FBC0
3F00
ENDCHAR
STARTCHAR six
ENCODING 54
SWIDTH 813 0
DWIDTH 13 0
BBX 16 16 0 0
BITMAP
001C
0070
01C0
0380
0700
0E00
1FE0
1F78
3C70
3838
3838
7070
7070
38E0
7BC0
1F00
ENDCHAR
STARTCHAR seven
ENCODING 55
SWIDTH 813 0
DWIDTH 13 0
BBX 16 16 0 0
BITMAP
03FF
03FE
0E1C
0C1C
0038
0070
0060
00E0
01C0
0380
0380
0700
0E00
0E00
3800
3800
ENDCHAR
STARTCHAR eight
ENCODING 56
SWIDTH 813 0
DWIDTH 13 0
BBX 16 16 0 0
BITMAP
01F8
039C
0E1C
0E1C
0F1C
0F38
07F0
07F0
1FF0
18F0
3878
7070
7070
38E0
7BC0
1F00
ENDCHAR
STARTCHAR nine
ENCODING 57
SWIDTH 813 0
DWIDTH 13 0
BBX 16 16 0 0
BITMAP
00F8
03DE
071C
0E0E
0E0E
1C1C
1C1C
0E3C
1EF8
07F8
0070
00E0
01C0
0380
0E00
3800
ENDCHAR
STARTCHAR colon
ENCODING 58
SWIDTH 727 0
DWIDTH 8 0
BBX 7 11 1 0
BITMAP
0C
1E
1E
18
00
00
00
30
78
F0
60
ENDCHAR
STARTCHAR semicolon
ENCODING 59
SWIDTH 571 0
DWIDTH 8 0
BBX 8 14 1 -3
BITMAP
06
0F
0F
0C
00
00
00
18
3C
78
38
18
30
60
ENDCHAR
STARTCHAR less
ENCODING 60
SWIDTH 1154 0
DWIDTH 15 0
BBX 16 13 0 1
BITMAP
0007
001E
0078
01E0
03C0
1E00
3C00
1E00
0F00
0780
01E0
01E0
0070
ENDCHAR
STARTCHAR equal
ENCODING 61
SWIDTH 2143 0
DWIDTH 15 0
BBX 15 7 0 4
BITMAP
3FFE
3FFE
0000
0000
0000
FFF8
FFF8
ENDCHAR
STARTCHAR greater
ENCODING 62
SWIDTH 1154 0
DWIDTH 15 0
BBX 16 13 1 1
BITMAP
0E00
0780
0780
01E0
00F0
0078
003C
0078
03C0
0780
1E00
7800
E000
ENDCHAR
STARTCHAR question
ENCODING 63
SWIDTH 706 0
DWIDTH 12 0
BBX 15 17 0 0
BITMAP
01F8
03BC
071E
0F3C
0F3C
0638
0070
00E0
01C0
0300
0300
0300
0000
0600
0F00
1E00
0C00
ENDCHAR
STARTCHAR at
ENCODING 64
SWIDTH 1412 0
DWIDTH 24 0
BBX 27 17 0 -3
BITMAP
000FF000
003C3C00
00F00F00
03800700
070FC380
071CF380
1C70E380
1CE0E380
1CE1C380
39C38E00
38E7DE00
1C7FF800
38000000
1C000000
0F000000
07870000
01FC0000
ENDCHAR
STARTCHAR A
ENCODING 65
SWIDTH 1125 0
DWIDTH 18 0
BBX 22 16 0 0
BITMAP
000E00
000E00
003E00
003E00
007700
00CE00
00CE00
01C700
030E00
030E00
07FF00
0C0E00
1C0700
180700
300E00
FC3F80
ENDCHAR
STARTCHAR B
ENCODING 66
SWIDTH 1063 0
DWIDTH 17 0
BBX 20 16 0 0
BITMAP
07FF80
01C1C0
0381C0
0381C0
0381C0
070380
070700
07FF00
0E0F00
0E0700
0E0380
1C0700
1C0700
1C0E00
383C00
FFF000
ENDCHAR
STARTCHAR C
ENCODING 67
SWIDTH 1000 0
DWIDTH 16 0
BBX 19 16 0 0
BITMAP
003F60
00F3E0
0381C0
0700C0
0700C0
1C0000
1C0000
1C0000
380000
380000
380000
380000
380600
1C0C00
1E7000
07C000
ENDCHAR
STARTCHAR D
ENCODING 68
SWIDTH 1125 0
DWIDTH 18 0
BBX 21 16 0 0
BITMAP
07FF00
01C3C0
0381C0
0380E0
0380E0
0700E0
0700E0
0700E0
0E01C0
0E01C0
0E01C0
1C0700
1C0700
1C0E00
387800
FFE000
ENDCHAR
STARTCHAR E
ENCODING 69
SWIDTH 938 0
DWIDTH 15 0
BBX 18 16 0 0
BITMAP
07FF80
01C380
038300
038000
038000
071800
071800
07F800
0E3000
0E3000
0E0000
1C0000
1C0000
1C0C00
383800
FFF000
ENDCHAR
STARTCHAR F
ENCODING 70
SWIDTH 875 0
DWIDTH 14 0
BBX 17 16 0 0
BITMAP
07FF80
01C380
038300
038000
038000
071800
071800
07F800
0E3000
0E3000
0E0000
1C0000
1C0000
1C0000
380000
FE0000
ENDCHAR
STARTCHAR G
ENCODING 71
SWIDTH 1125 0
DWIDTH 18 0
BBX 22 16 0 0
BITMAP
003F60
00F1E0
0381C0
0700C0
0700C0
1C0000
1C0000
1C0000
380FE0
380380
380380
380700
380700
1C0600
1E3800
07E000
ENDCHAR
STARTCHAR H
ENCODING 72
SWIDTH 1125 0
DWIDTH 18 0
BBX 21 16 0 0
BITMAP
07F3F8
01C0E0
0381C0
0381C0
0381C0
070380
070380
07FF80
0E0700
0E0700
0E0700
1C0E00
1C0E00
1C0E00
381C00
FE7F00
ENDCHAR
STARTCHAR I
ENCODING 73
SWIDTH 563 0
DWIDTH 9 0
BBX 12 16 0 0
BITMAP
07F0
01C0
0380
0380
0380
0700
0700
0700
0E00
0E00
0E00
1C00
1C00
1C00
3800
FE00
ENDCHAR
STARTCHAR J
ENCODING 74
SWIDTH 688 0
DWIDTH 11 0
BBX 14 16 0 0
BITMAP
01FC
0070
00E0
00E0
00E0
01C0
01C0
01C0
0380
0380
0380
0700
0700
7700
EE00
7C00
ENDCHAR
STARTCHAR K
ENCODING 75
SWIDTH 1125 0
DWIDTH 18 0
BBX 22 16 0 0
BITMAP
07F3F0
01C1C0
038700
038E00
039C00
077000
07F000
07F000
0F7000
0E3800
0E3800
1C3800
1C1C00
1C1C00
381C00
FE7F80
ENDCHAR
STARTCHAR L
ENCODING 76
SWIDTH 938 0
DWIDTH 15 0
BBX 18 16 0 0
BITMAP
07F800
01C000
038000
038000
038000
070000
070000
070000
0E0000
0E0000
0E0000
1C0000
1C0000
1C0C00
383800
FFF000
ENDCHAR
STARTCHAR M
ENCODING 77
SWIDTH 1375 0
DWIDTH 22 0
BBX 25 16 0 0
BITMAP
07E01F80
01E01E00
03E03C00
03E07C00
03E07C00
06E0F800
06E1F800
0671B800
0CE37000
0CE77000
0C767000
18FCE000
1878E000
1878E000
30F1C000
FC63F000
ENDCHAR
STARTCHAR N
ENCODING 78
SWIDTH 1125 0
DWIDTH 18 0
BBX 21 16 0 0
BITMAP
07C1F8
01C060
03C0C0
03E0C0
03E0C0
06E180
067180
067180
0C7300
0C3B00
0C3B00
183E00
181E00
181E00
301C00
FC0C00
ENDCHAR
STARTCHAR O
ENCODING 79
SWIDTH 1125 0
DWIDTH 18 0
BBX 21 16 0 0
BITMAP
003F00
00F3C0
0381C0
0700E0
0700E0
1C00E0
1C00E0
1C00E0
3801C0
3801C0
3801C0
380700
380700
1C0E00
1E7800
07E000
ENDCHAR
STARTCHAR P
ENCODING 80
SWIDTH 938 0
DWIDTH 15 0
BBX 18 16 0 0
BITMAP
07FE00
01C780
038700
038380
038380
070700
070E00
071E00
0FF000
0E0000
0E0000
1C0000
1C0000
1C0000
380000
FE0000
ENDCHAR
STARTCHAR Q
ENCODING 81
SWIDTH 947 0
DWIDTH 18 0
BBX 22 19 0 -3
BITMAP
001F80
0079E0
01C0E0
038070
038070
0E0070
0E0070
0E0070
1C00E0
1C00E0
1C00E0
1C0380
1C0380
0E0700
0F3C00
03F000
01F000
01F000
007E00
ENDCHAR
STARTCHAR R
ENCODING 82
SWIDTH 1063 0
DWIDTH 17 0
BBX 21 16 0 0
BITMAP
07FF00
01C3C0
038380
0381C0
0381C0
070380
070700
070F00
0FF800
0E3800
0E3C00
1C3800
1C3C00
1C1C00
383C00
FE1F00
ENDCHAR
STARTCHAR S
ENCODING 83
SWIDTH 875 0
DWIDTH 14 0
BBX 17 16 0 0
BITMAP
01FF00
038F00
0E0E00
0E0600
0F0600
0F0000
0FC000
03F000
01F800
007800
003C00
603800
603800
707000
F1E000
FF8000
ENDCHAR
STARTCHAR T
ENCODING 84
SWIDTH 1063 0
DWIDTH 17 0
BBX 20 16 0 0
BITMAP
07FFF0
071C70
0C3860
0C3860
003800
007000
007000
007000
00E000
00E000
00E000
01C000
01C000
01C000
038000
0FE000
ENDCHAR
STARTCHAR U
ENCODING 85
SWIDTH 1125 0
DWIDTH 18 0
BBX 21 16 0 0
BITMAP
07F1F8
01C060
0380C0
0380C0
0380C0
070180
070180
070180
0E0300
0E0300
0E0300
1C0600
1C0600
0E0C00
1E3800
07E000
ENDCHAR
STARTCHAR V
ENCODING 86
SWIDTH 1125 0
DWIDTH 18 0
BBX 23 16 -1 0
BITMAP
07F0FE
038078
038060
038060
01C0C0
038180
01C300
01C300
01C600
01CC00
00EC00
01F000
00F000
00F000
00C000
00C000
ENDCHAR
STARTCHAR W
ENCODING 87
SWIDTH 1438 0
DWIDTH 23 0
BBX 28 16 -1 0
BITMAP
07EFFFF0
03C3C3C0
03838300
03838300
03838300
038F8C00
038F8C00
038F8C00
03B3B000
03B3B000
03B3B000
03C3C000
03C3C000
01C3C000
03030000
03030000
ENDCHAR
STARTCHAR X
ENCODING 88
SWIDTH 1188 0
DWIDTH 19 0
BBX 22 16 0 0
BITMAP
07F9F8
01E060
01C180
00E180
007300
007C00
003800
003C00
007800
00DC00
018E00
031C00
060E00
0C0700
3C0E00
FF3F80
ENDCHAR
STARTCHAR Y
ENCODING 89
SWIDTH 1188 0
DWIDTH 19 0
BBX 24 16 -1 0
BITMAP
07F87F
01E01C
01E070
00E060
00F0E0
00F380
007300
007F00
007C00
003800
003800
007000
007000
007000
00E000
03F800
ENDCHAR
STARTCHAR Z
ENCODING 90
SWIDTH 1000 0
DWIDTH 16 0
BBX 19 16 0 0
BITMAP
03FFE0
0383C0
060700
000F00
001E00
003800
007800
00F000
01C000
03C000
078000
0E0000
1E0000
3C0600
701C00
FFFC00
ENDCHAR
STARTCHAR bracketleft
ENCODING 91
SWIDTH 409 0
DWIDTH 9 0
BBX 13 22 1 -5
BITMAP
01F8
01E0
0380
0380
0380
0700
0700
0700
0E00
0E00
0E00
1C00
1C00
1C00
3800
3800
3800
7000
7000
7000
F000
FC00
ENDCHAR
STARTCHAR backslash
ENCODING 92
SWIDTH 471 0
DWIDTH 8 0
BBX 13 17 -1 0
BITMAP
0700
0700
0700
0700
0700
0700
0700
0700
0700
0700
0700
0700
0700
0700
0700
0700
0700
ENDCHAR
STARTCHAR bracketright
ENCODING 93
SWIDTH 409 0
DWIDTH 9 0
BBX 13 22 0 -5
BITMAP
01F8
0078
0070
0070
0070
00E0
00E0
00E0
01C0
01C0
01C0
0380
0380
0380
0700
0700
0700
0E00
0E00
0E00
3C00
FC00
ENDCHAR
STARTCHAR asciicircum
ENCODING 94
SWIDTH 2400 0
DWIDTH 12 0
BBX 11 5 0 12
BITMAP
0600
0F00
1F80
7380
E1C0
ENDCHAR
STARTCHAR underscore
ENCODING 95
SWIDTH 6500 0
DWIDTH 13 0
BBX 13 2 -1 -4
BITMAP
FFF8
FFF8
ENDCHAR
STARTCHAR quoteleft
ENCODING 96
SWIDTH 3000 0
DWIDTH 9 0
BBX 6 3 1 14
BITMAP
70
70
18
ENDCHAR
STARTCHAR a
ENCODING 97
SWIDTH 1091 0
DWIDTH 12 0
BBX 14 11 0 0
BITMAP
07E0
0E70
0E70
00E0
03E0
0FE0
39C0
71C0
73F0
FFE0
7DC0
ENDCHAR
STARTCHAR b
ENCODING 98
SWIDTH 706 0
DWIDTH 12 0
BBX 16 17 0 0
BITMAP
0180
0780
0380
0700
0700
0700
0FF0
0F38
0E1C
1C38
1C38
1C38
3870
3870
3870
39C0
1F00
ENDCHAR
STARTCHAR c
ENCODING 99
SWIDTH 1000 0
DWIDTH 11 0
BBX 13 11 0 0
BITMAP
03F0
0E38
0C38
3800
3800
3800
7000
7000
3860
39C0
1F80
ENDCHAR
STARTCHAR d
ENCODING 100
SWIDTH 706 0
DWIDTH 12 0
BBX 16 17 0 0
BITMAP
0006
001E
000E
001C
001C
001C
07F8
0E78
1C38
3870
3870
3870
70E0
70E0
70E0
73E0
3F80
ENDCHAR
STARTCHAR e
ENCODING 101
SWIDTH 1000 0
DWIDTH 11 0
BBX 13 11 0 0
BITMAP
07E0
0E70
1C38
3870
3FF0
3800
7000
7000
38E0
7B80
1F00
ENDCHAR
STARTCHAR f
ENCODING 102
SWIDTH 471 0
DWIDTH 8 0
BBX 12 17 0 0
BITMAP
01E0
03F0
03F0
0700
0700
0700
1F80
0E00
0E00
1C00
1C00
1C00
3800
3800
3800
7000
FC00
ENDCHAR
STARTCHAR g
ENCODING 103
SWIDTH 765 0
DWIDTH 13 0
BBX 18 17 -1 -6
BITMAP
00F800
01DE00
038F80
071C00
071C00
071C00
077000
07E000
0E0000
1E0000
0FF000
063C00
383C00
701C00
701C00
F07000
7F8000
ENDCHAR
STARTCHAR h
ENCODING 104
SWIDTH 706 0
DWIDTH 12 0
BBX 16 17 0 0
BITMAP
0180
0780
0380
0700
0700
0700
0EF0
0FF8
0F38
1C70
1C70
1C70
38E0
38E0
38E0
71C0
FBE0
ENDCHAR
STARTCHAR i
ENCODING 105
SWIDTH 353 0
DWIDTH 6 0
BBX 10 17 0 0
BITMAP
0380
0380
0000
0000
0000
0000
0600
1E00
0E00
1C00
1C00
1C00
3800
3800
3800
7000
F800
ENDCHAR
STARTCHAR j
ENCODING 106
SWIDTH 273 0
DWIDTH 6 0
BBX 13 22 -1 -5
BITMAP
0070
0070
0000
0000
0000
0000
0060
01E0
01C0
01C0
01C0
0380
0380
0380
0700
0700
0700
0E00
0E00
7E00
FC00
7800
ENDCHAR
STARTCHAR k
ENCODING 107
SWIDTH 765 0
DWIDTH 13 0
BBX 17 17 0 0
BITMAP
018000
078000
038000
070000
070000
070000
0EF800
0E6000
0EC000
1F0000
1F0000
1F0000
3F0000
3B8000
39C000
71C000
FBF000
ENDCHAR
STARTCHAR l
ENCODING 108
SWIDTH 353 0
DWIDTH 6 0
BBX 10 17 0 0
BITMAP
0180
0780
0380
0700
0700
0700
0E00
0E00
0E00
1C00
1C00
1C00
3800
3800
3800
7000
F800
ENDCHAR
STARTCHAR m
ENCODING 109
SWIDTH 1636 0
DWIDTH 18 0
BBX 20 11 0 0
BITMAP
06F3C0
1FFFE0
0F3CE0
1C71C0
1C71C0
1C71C0
38E380
38E380
38E380
71C700
FBEF80
ENDCHAR
STARTCHAR n
ENCODING 110
SWIDTH 1091 0
DWIDTH 12 0
BBX 14 11 0 0
BITMAP
06F0
1FF8
0F38
1C70
1C70
1C70
38E0
38E0
38E0
71C0
FBE0
ENDCHAR
STARTCHAR o
ENCODING 111
SWIDTH 1091 0
DWIDTH 12 0
BBX 14 11 0 0
BITMAP
01E0
0770
0E38
3838
3838
3838
7070
7070
38E0
3B80
1E00
ENDCHAR
STARTCHAR p
ENCODING 112
SWIDTH 750 0
DWIDTH 12 0
BBX 16 16 0 -5
BITMAP
01FC
07CE
070E
070E
070E
0E1C
0E1C
0E1C
1C38
1E70
1FC0
3800
3800
3800
7000
F800
ENDCHAR
STARTCHAR q
ENCODING 113
SWIDTH 750 0
DWIDTH 12 0
BBX 16 16 0 -5
BITMAP
01FE
039E
0E1C
0E1C
0E1C
1C38
1C38
1C38
3870
1CF0
0FF0
00E0
00E0
00E0
01C0
03E0
ENDCHAR
STARTCHAR r
ENCODING 114
SWIDTH 818 0
DWIDTH 9 0
BBX 11 11 0 0
BITMAP
07E0
1FE0
0E00
1C00
1C00
1C00
3800
3800
3800
7000
F800
ENDCHAR
STARTCHAR s
ENCODING 115
SWIDTH 909 0
DWIDTH 10 0
BBX 12 11 0 0
BITMAP
07E0
0EE0
1C60
3C00
1F00
07C0
03C0
61C0
71C0
F700
DE00
ENDCHAR
STARTCHAR t
ENCODING 116
SWIDTH 467 0
DWIDTH 7 0
BBX 11 15 0 0
BITMAP
0180
0300
0700
0700
1F80
0E00
0E00
1C00
1C00
1C00
3800
3800
3800
7C00
3800
ENDCHAR
STARTCHAR u
ENCODING 117
SWIDTH 1091 0
DWIDTH 12 0
BBX 14 11 0 0
BITMAP
1E78
0E38
0E38
1C70
1C70
1C70
38E0
38E0
39E0
3FE0
1D80
ENDCHAR
STARTCHAR v
ENCODING 118
SWIDTH 1091 0
DWIDTH 12 0
BBX 15 11 -1 0
BITMAP
1F1E
0E0C
0E0C
0E30
0E30
0760
0EC0
0780
0780
0600
0600
ENDCHAR
STARTCHAR w
ENCODING 119
SWIDTH 1636 0
DWIDTH 18 0
BBX 21 11 -1 0
BITMAP
1F7C78
0E3830
0E3830
0E38C0
0E38C0
077D80
0EFB00
079E00
079E00
061800
061800
ENDCHAR
STARTCHAR x
ENCODING 120
SWIDTH 1182 0
DWIDTH 13 0
BBX 14 11 0 0
BITMAP
1F7C
0E30
0760
0FC0
0780
0380
0780
0F80
19C0
71C0
FBE0
ENDCHAR
STARTCHAR y
ENCODING 121
SWIDTH 875 0
DWIDTH 14 0
BBX 17 16 0 -5
BITMAP
07C780
038300
070600
038C00
038C00
03B000
03B000
01E000
03C000
018000
018000
060000
060000
0C0000
F80000
F00000
ENDCHAR
STARTCHAR z
ENCODING 122
SWIDTH 1091 0
DWIDTH 12 0
BBX 13 11 0 0
BITMAP
0FF8
0C70
0CE0
01C0
0380
0700
0E00
1C00
3860
70C0
FFC0
ENDCHAR
STARTCHAR braceleft
ENCODING 123
SWIDTH 500 0
DWIDTH 11 0
BBX 13 22 2 -5
BITMAP
0018
0070
01C0
01C0
01C0
0380
0380
0380
0700
0700
0700
1C00
0E00
0E00
1C00
1C00
1C00
3800
3800
3800
3000
1800
ENDCHAR
STARTCHAR bar
ENCODING 124
SWIDTH 412 0
DWIDTH 7 0
BBX 8 17 1 0
BITMAP
07
07
07
0E
0E
0E
1C
1C
1C
38
38
38
70
70
70
E0
E0
ENDCHAR
STARTCHAR braceright
ENCODING 125
SWIDTH 500 0
DWIDTH 11 0
BBX 12 22 2 -5
BITMAP
0180
00C0
01C0
01C0
01C0
0380
0380
0380
0700
0700
0700
0700
0E00
0E00
1C00
1C00
1C00
3800
3800
3800
6000
C000
ENDCHAR
STARTCHAR asciitilde
ENCODING 126
SWIDTH 3250 0
DWIDTH 13 0
BBX 12 4 0 13
BITMAP
1E30
3F70
EFC0
C780
ENDCHAR
STARTCHAR nbsp
ENCODING 154
SWIDTH 292 0
DWIDTH 7 0
BBX 0 0 -1 0
BITMAP
ENDCHAR
STARTCHAR degree
ENCODING 156
SWIDTH 1500 0
DWIDTH 9 0
BBX 9 6 0 12
BITMAP
0E00
3E00
7700
7700
7C00
3800
ENDCHAR
STARTCHAR twosuperior
ENCODING 157
SWIDTH 875 0
DWIDTH 7 0
BBX 8 8 -1 9
BITMAP
1E
3F
07
0E
1C
38
6C
FC
ENDCHAR
STARTCHAR cyr-yo
ENCODING 163
SWIDTH 667 0
DWIDTH 10 0
BBX 15 15 0 0
BITMAP
0198
07F8
0330
0000
07E0
0E70
1C38
3870
3FF0
3800
7000
7000
38E0
7B80
1F00
ENDCHAR
STARTCHAR cyr-Yo
ENCODING 179
SWIDTH 700 0
DWIDTH 14 0
BBX 20 20 0 0
BITMAP
00E380
01F7C0
00E380
000000
07FFC0
01C1C0
038180
038000
038000
070C00
070C00
07FC00
0E1800
0E1800
0E0000
1C0000
1C0000
1C0600
381C00
FFF800
ENDCHAR
STARTCHAR copyright
ENCODING 191
SWIDTH 1188 0
DWIDTH 19 0
BBX 22 16 0 1
BITMAP
003F80
00F1E0
0380E0
070070
073F70
1CEE70
1DC670
1DC070
3B80E0
3B8CE0
39D8E0
39E380
380380
1C0700
1E3C00
07F000
ENDCHAR
STARTCHAR cyr-yu
ENCODING 192
SWIDTH 1545 0
DWIDTH 17 0
BBX 19 11 0 0
BITMAP
1F1F00
0E3B80
0E71C0
1DC1C0
1DC1C0
1FC1C0
3B8380
3B8380
39C700
71DC00
F8F800
ENDCHAR
STARTCHAR cyr-a
ENCODING 193
SWIDTH 1091 0
DWIDTH 12 0
BBX 14 11 0 0
BITMAP
07E0
0E70
0E70
00E0
03E0
0FE0
39C0
71C0
73F0
FFE0
7DC0
ENDCHAR
STARTCHAR cyr-be
ENCODING 194
SWIDTH 611 0
DWIDTH 11 0
BBX 16 18 0 0
BITMAP
0006
01F8
0300
0700
0E00
0E00
0E00
1FE0
1E70
1C38
3870
3870
3870
70E0
70E0
70E0
7380
3E00
ENDCHAR
STARTCHAR cyr-tse
ENCODING 195
SWIDTH 1077 0
DWIDTH 14 0
BBX 17 13 0 -2
BITMAP
0F9F00
070E00
0E1C00
0E1C00
0E1C00
1C3800
1C3800
1C3800
387000
387000
7FFC00
003800
001800
ENDCHAR
STARTCHAR cyr-de
ENCODING 196
SWIDTH 1000 0
DWIDTH 13 0
BBX 16 13 0 -2
BITMAP
03FE
019C
0338
0338
0338
0670
0670
0670
0CE0
18E0
7FF8
E070
C030
ENDCHAR
STARTCHAR cyr-ie
ENCODING 197
SWIDTH 1000 0
DWIDTH 11 0
BBX 13 11 0 0
BITMAP
07E0
0E70
1C38
3870
3FF0
3800
7000
7000
70E0
7380
3F00
ENDCHAR
STARTCHAR cyr-ef
ENCODING 198
SWIDTH 824 0
DWIDTH 14 0
BBX 18 17 0 -6
BITMAP
007E00
01FF00
03BB80
0E7380
0E7380
0E7380
1CE700
1CE700
0EEE00
0FF800
07F000
01C000
038000
038000
038000
070000
0F8000
ENDCHAR
STARTCHAR cyr-ghe
ENCODING 199
SWIDTH 909 0
DWIDTH 10 0
BBX 12 11 0 0
BITMAP
1FF0
0E30
0E30
1C00
1C00
1C00
3800
3800
3800
7000
F800
ENDCHAR
STARTCHAR cyr-kha
ENCODING 200
SWIDTH 1091 0
DWIDTH 12 0
BBX 14 11 0 0
BITMAP
1F7C
0E30
0760
0FC0
0780
0380
0780
0F80
19C0
71C0
FBE0
ENDCHAR
STARTCHAR cyr-i
ENCODING 201
SWIDTH 1182 0
DWIDTH 13 0
BBX 15 11 0 0
BITMAP
1F3E
0E3C
0E7C
1CF8
1DB8
1DB8
3E70
3E70
3C70
78E0
F9F0
ENDCHAR
STARTCHAR cyr-i-short
ENCODING 202
SWIDTH 929 0
DWIDTH 13 0
BBX 16 14 0 0
BITMAP
01F8
00F0
0000
1F3E
0E3C
0E7C
1CF8
1DB8
1DB8
3E70
3E70
3C70
78E0
F9F0
ENDCHAR
STARTCHAR cyr-ka
ENCODING 203
SWIDTH 1182 0
DWIDTH 13 0
BBX 15 11 0 0
BITMAP
1F3C
0E7C
0E60
1D80
1F00
1F00
3F00
3B80
39C0
71C0
FBF0
ENDCHAR
STARTCHAR cyr-el
ENCODING 204
SWIDTH 1182 0
DWIDTH 13 0
BBX 15 11 0 0
BITMAP
07FE
031C
031C
0638
0638
0638
0C70
0C70
0C70
F8E0
F1F0
ENDCHAR
STARTCHAR cyr-em
ENCODING 205
SWIDTH 1455 0
DWIDTH 16 0
BBX 18 11 0 0
BITMAP
1E07C0
0F0780
0F0F80
1F1F00
1F3700
1BB700
37CE00
33CE00
33CE00
631C00
F03E00
ENDCHAR
STARTCHAR cyr-en
ENCODING 206
SWIDTH 1182 0
DWIDTH 13 0
BBX 15 11 0 0
BITMAP
1F3E
0E1C
0E1C
1C38
1C38
1FF8
3870
3870
3870
70E0
F9F0
ENDCHAR
STARTCHAR cyr-o
ENCODING 207
SWIDTH 1091 0
DWIDTH 12 0
BBX 14 11 0 0
BITMAP
07F0
0E38
1C1C
3838
3838
3838
7070
7070
7070
71C0
3F80
ENDCHAR
STARTCHAR cyr-pe
ENCODING 208
SWIDTH 1182 0
DWIDTH 13 0
BBX 15 11 0 0
BITMAP
1FFE
0E1C
0E1C
1C38
1C38
1C38
3870
3870
3870
70E0
F9F0
ENDCHAR
STARTCHAR cyr-ya
ENCODING 209
SWIDTH 1273 0
DWIDTH 14 0
BBX 16 11 0 0
BITMAP
03FF
070E
070E
0E1C
0E1C
07FC
0738
0E38
0E38
3870
F8F8
ENDCHAR
STARTCHAR cyr-er
ENCODING 210
SWIDTH 750 0
DWIDTH 12 0
BBX 16 16 0 -5
BITMAP
03FC
038E
070E
070E
070E
0E1C
0E1C
0E1C
1C38
1C70
1FE0
3800
3800
3800
7000
F800
ENDCHAR
STARTCHAR cyr-es
ENCODING 211
SWIDTH 1000 0
DWIDTH 11 0
BBX 13 11 0 0
BITMAP
07F0
0E38
1C38
3800
3800
3800
7000
7000
7060
71C0
3F80
ENDCHAR
STARTCHAR cyr-te
ENCODING 212
SWIDTH 1091 0
DWIDTH 12 0
BBX 14 11 0 0
BITMAP
1FFC
19CC
01C0
0380
0380
0380
0700
0700
0700
0E00
1F00
ENDCHAR
STARTCHAR cyr-u
ENCODING 213
SWIDTH 813 0
DWIDTH 13 0
BBX 17 16 0 -5
BITMAP
07C780
038300
070600
038C00
038C00
03B000
03B000
01E000
03C000
018000
018000
060000
060000
0C0000
F80000
F00000
ENDCHAR
STARTCHAR cyr-zhe
ENCODING 214
SWIDTH 1727 0
DWIDTH 19 0
BBX 22 11 -1 0
BITMAP
0F3E78
0F9CF8
019CC0
01BB00
00FE00
00FE00
03FE00
077700
0E7380
38E380
FDF7E0
ENDCHAR
STARTCHAR cyr-ve
ENCODING 215
SWIDTH 1000 0
DWIDTH 11 0
BBX 13 11 0 0
BITMAP
1FE0
0E70
0E70
1CE0
1DC0
1FE0
38E0
38E0
38E0
71C0
FF80
ENDCHAR
STARTCHAR cyr-ierik
ENCODING 216
SWIDTH 1000 0
DWIDTH 11 0
BBX 13 11 0 0
BITMAP
1F00
0E00
0E00
1C00
1FE0
1C70
38E0
38E0
38E0
71C0
FF80
ENDCHAR
STARTCHAR cyr-iery
ENCODING 217
SWIDTH 1455 0
DWIDTH 16 0
BBX 18 11 0 0
BITMAP
1F07C0
0E0380
0E0380
1C0700
1FE700
1C7700
38EE00
38EE00
38EE00
71DC00
FFBE00
ENDCHAR
STARTCHAR cyr-z
ENCODING 218
SWIDTH 1000 0
DWIDTH 11 0
BBX 13 11 0 0
BITMAP
1FE0
1C70
1838
0070
00E0
07C0
01C0
00E0
60E0
E380
FF00
ENDCHAR
STARTCHAR cyr-sha
ENCODING 219
SWIDTH 1636 0
DWIDTH 18 0
BBX 20 11 0 0
BITMAP
1F7DF0
0E38E0
0E38E0
1C71C0
1C71C0
1C71C0
38E380
38E380
38E380
71C700
FFFF80
ENDCHAR
STARTCHAR cyr-e-rev
ENCODING 220
SWIDTH 1000 0
DWIDTH 11 0
BBX 13 11 0 0
BITMAP
0FE0
1C70
1838
0070
0070
0FF0
00E0
00E0
60E0
E380
7F00
ENDCHAR
STARTCHAR cyr-shcha
ENCODING 221
SWIDTH 1462 0
DWIDTH 19 0
BBX 22 13 0 -2
BITMAP
0FBEF8
071C70
0E38E0
0E38E0
0E38E0
1C71C0
1C71C0
1C71C0
38E380
38E380
7FFFE0
0001C0
0000C0
ENDCHAR
STARTCHAR cyr-che
ENCODING 222
SWIDTH 1182 0
DWIDTH 13 0
BBX 15 11 0 0
BITMAP
1F3E
0E1C
0E1C
1C38
1C38
1C38
1FF0
0070
0070
00E0
01F0
ENDCHAR
STARTCHAR cyr-ier
ENCODING 223
SWIDTH 1273 0
DWIDTH 14 0
BBX 16 11 0 0
BITMAP
1FE0
1DC0
19C0
3380
03FC
038E
071C
071C
071C
0E38
1FF0
ENDCHAR
STARTCHAR cyr-Yu
ENCODING 224
SWIDTH 1500 0
DWIDTH 24 0
BBX 27 16 0 0
BITMAP
07C0FC00
0383CF00
070E0700
071C0380
071C0380
0E700380
0E700380
0FF00380
1CE00700
1CE00700
1CE00700
38E01C00
38E01C00
38703800
7079E000
F81F8000
ENDCHAR
STARTCHAR cyr-A
ENCODING 225
SWIDTH 1125 0
DWIDTH 18 0
BBX 22 16 0 0
BITMAP
000E00
000E00
003E00
003E00
007700
00CE00
00CE00
01C700
030E00
030E00
07FF00
0C0E00
1C0700
180700
300E00
FC3F80
ENDCHAR
STARTCHAR cyr-Be
ENCODING 226
SWIDTH 1000 0
DWIDTH 16 0
BBX 19 16 0 0
BITMAP
07FFE0
0380E0
0700C0
070000
070000
0E0000
0FFC00
0E0F00
1C0E00
1C0700
1C0700
380E00
380E00
381C00
707800
FFE000
ENDCHAR
STARTCHAR cyr-Tse
ENCODING 227
SWIDTH 895 0
DWIDTH 17 0
BBX 21 19 0 -3
BITMAP
03E1F0
01C0E0
0381C0
0381C0
0381C0
070380
070380
070380
0E0700
0E0700
0E0700
1C0E00
1C0E00
1C0E00
381C00
7FFF00
000700
000600
000600
ENDCHAR
STARTCHAR cyr-De
ENCODING 228
SWIDTH 947 0
DWIDTH 18 0
BBX 22 19 0 -3
BITMAP
00FFF8
006070
00C0E0
00C0E0
00C0E0
0181C0
0181C0
0181C0
030380
030380
030380
060700
060700
060700
180E00
7FFF80
700380
C00300
C00300
ENDCHAR
STARTCHAR cyr-Ie
ENCODING 229
SWIDTH 938 0
DWIDTH 15 0
BBX 18 16 0 0
BITMAP
07FF80
038380
070300
070000
070000
0E0000
0E1800
0FF800
1C3000
1C0000
1C0000
380000
380000
380C00
703800
FFF800
ENDCHAR
STARTCHAR cyr-Ef
ENCODING 230
SWIDTH 1188 0
DWIDTH 19 0
BBX 22 16 0 0
BITMAP
003F80
00FFE0
039CE0
071C70
071C70
1C3870
1C3870
1C3870
3870E0
1C71C0
1C71C0
1CE700
0FFE00
03F800
01C000
03E000
ENDCHAR
STARTCHAR cyr-Ghe
ENCODING 231
SWIDTH 938 0
DWIDTH 15 0
BBX 18 16 0 0
BITMAP
07FFC0
0381C0
070180
070000
070000
0E0000
0E0000
0E0000
1C0000
1C0000
1C0000
380000
380000
380000
700000
F80000
ENDCHAR
STARTCHAR cyr-Kha
ENCODING 232
SWIDTH 1188 0
DWIDTH 19 0
BBX 22 16 0 0
BITMAP
07F9FC
01E070
01C180
00E180
007300
007C00
003800
003C00
007800
00DC00
018E00
031C00
060E00
0C0700
3C0E00
FF3F80
ENDCHAR
STARTCHAR cyr-I
ENCODING 233
SWIDTH 1000 0
DWIDTH 16 0
BBX 19 16 0 0
BITMAP
07C3E0
0383C0
070780
070F80
070F80
0E3700
0E3700
0E6700
1CCE00
1D8E00
1D8E00
3E1C00
3E1C00
3C1C00
783800
F87C00
ENDCHAR
STARTCHAR cyr-I-short
ENCODING 234
SWIDTH 800 0
DWIDTH 16 0
BBX 20 20 0 0
BITMAP
003180
003B80
001F00
000000
07C3E0
0383C0
070780
070F80
070F80
0E3700
0E3700
0E6700
1CCE00
1D8E00
1D8E00
3E1C00
3E1C00
3C1C00
783800
F87C00
ENDCHAR
STARTCHAR cyr-Ka
ENCODING 235
SWIDTH 1000 0
DWIDTH 16 0
BBX 20 16 0 0
BITMAP
07F1E0
01C3E0
038C00
038C00
039800
073000
07E000
07F000
0EE000
0E7000
0E7000
1C7000
1C3800
1C3800
383800
FE7E00
ENDCHAR
STARTCHAR cyr-El
ENCODING 236
SWIDTH 1063 0
DWIDTH 17 0
BBX 20 16 0 0
BITMAP
00FFF0
0060E0
00C1C0
00C1C0
00C1C0
018380
018380
018380
030700
030700
030700
060E00
060E00
7E0E00
FC1C00
787E00
ENDCHAR
STARTCHAR cyr-Em
ENCODING 237
SWIDTH 1250 0
DWIDTH 20 0
BBX 23 16 0 0
BITMAP
07C03E
03C03C
07C078
07C0F8
07C0F8
0DC1F0
0DC3F0
0CE370
19C6E0
19CEE0
18ECE0
31F9C0
30F1C0
30F1C0
61E380
F0C7C0
ENDCHAR
STARTCHAR cyr-En
ENCODING 238
SWIDTH 1000 0
DWIDTH 16 0
BBX 19 16 0 0
BITMAP
07C3E0
0381C0
070380
070380
070380
0E0700
0E0700
0FFF00
1C0E00
1C0E00
1C0E00
381C00
381C00
381C00
703800
F87C00
ENDCHAR
STARTCHAR cyr-O
ENCODING 239
SWIDTH 1125 0
DWIDTH 18 0
BBX 21 16 0 0
BITMAP
003F00
00F3C0
0381C0
0781E0
0700E0
1E01E0
1E01E0
1E01E0
3C03C0
3C03C0
3C03C0
380700
3C0F00
1C0E00
1E7800
07E000
ENDCHAR
STARTCHAR cyr-Pe
ENCODING 240
SWIDTH 1000 0
DWIDTH 16 0
BBX 19 16 0 0
BITMAP
07FFE0
0381C0
070380
070380
070380
0E0700
0E0700
0E0700
1C0E00
1C0E00
1C0E00
381C00
381C00
381C00
703800
F87C00
ENDCHAR
STARTCHAR cyr-Ya
ENCODING 241
SWIDTH 1063 0
DWIDTH 17 0
BBX 20 16 0 0
BITMAP
003FF0
00F0E0
01C1C0
0381C0
0381C0
070380
038380
03C380
01FF00
007700
00E700
038E00
070E00
0E0E00
381C00
F03E00
ENDCHAR
STARTCHAR cyr-Er
ENCODING 242
SWIDTH 938 0
DWIDTH 15 0
BBX 18 16 0 0
BITMAP
07FE00
038780
070700
070380
070380
0E0700
0E0700
0E0E00
1C3C00
1FF000
1C0000
380000
380000
380000
700000
F80000
ENDCHAR
STARTCHAR cyr-Es
ENCODING 243
SWIDTH 1000 0
DWIDTH 16 0
BBX 19 16 0 0
BITMAP
003F60
00F3E0
0381C0
0780C0
0700C0
1E0000
1E0000
1E0000
3C0000
3C0000
3C0000
380000
3C0600
1E0C00
1E7000
07C000
ENDCHAR
STARTCHAR cyr-Te
ENCODING 244
SWIDTH 1063 0
DWIDTH 17 0
BBX 20 16 0 0
BITMAP
07FFF0
071C70
0C3860
003800
003800
007000
007000
007000
00E000
00E000
00E000
01C000
01C000
01C000
038000
07C000
ENDCHAR
STARTCHAR cyr-U
ENCODING 245
SWIDTH 1250 0
DWIDTH 20 0
BBX 24 16 0 0
BITMAP
07F03F
01E01C
01E070
00E060
00F0E0
00F380
007300
007F00
007C00
003800
003800
00E000
00C000
01C000
3F0000
1E0000
ENDCHAR
STARTCHAR cyr-Zhe
ENCODING 246
SWIDTH 1500 0
DWIDTH 24 0
BBX 28 16 0 0
BITMAP
03C7F1E0
03E1C3E0
00638C00
00638C00
00339800
00673000
003FE000
007FF000
00EEE000
01CE7000
01CE7000
071C7000
0E1C3800
0E1C3800
38383800
FCFE7E00
ENDCHAR
STARTCHAR cyr-Ve
ENCODING 247
SWIDTH 1000 0
DWIDTH 16 0
BBX 19 16 0 0
BITMAP
07FF00
038380
070380
070380
070380
0E0700
0E0E00
0FFE00
1C1E00
1C0E00
1C0700
380E00
380E00
381C00
707800
FFE000
ENDCHAR
STARTCHAR cyr-Ierik
ENCODING 248
SWIDTH 1000 0
DWIDTH 16 0
BBX 19 16 0 0
BITMAP
07C000
038000
070000
070000
070000
0E0000
0FFE00
0E0700
1C0700
1C0700
1C0700
380E00
380E00
380E00
703800
FFF000
ENDCHAR
STARTCHAR cyr-Iery
ENCODING 249
SWIDTH 1313 0
DWIDTH 21 0
BBX 24 16 0 0
BITMAP
07C01F
03800E
07001C
07001C
07001C
0E0038
0FFE38
0E0738
1C0770
1C0770
1C0770
380EE0
380EE0
380EE0
7039C0
FFF3E0
ENDCHAR
STARTCHAR cyr-Ze
ENCODING 250
SWIDTH 813 0
DWIDTH 13 0
BBX 16 16 0 0
BITMAP
07F8
070E
0C0E
000E
000E
001C
0038
01F0
0070
0038
0038
0070
0070
6070
E1C0
FF00
ENDCHAR
STARTCHAR cyr-Sha
ENCODING 251
SWIDTH 1313 0
DWIDTH 21 0
BBX 24 16 0 0
BITMAP
07CF9F
03870E
070E1C
070E1C
070E1C
0E1C38
0E1C38
0E1C38
1C3870
1C3870
1C3870
3870E0
3870E0
3870E0
70E1C0
FFFFE0
ENDCHAR
STARTCHAR cyr-E-rev
ENCODING 252
SWIDTH 875 0
DWIDTH 14 0
BBX 17 16 0 0
BITMAP
07FC00
070700
0C0700
000700
000700
000E00
030E00
03FE00
061C00
001C00
001C00
003800
003800
603800
E0E000
FF8000
ENDCHAR
STARTCHAR cyr-Shcha
ENCODING 253
SWIDTH 1158 0
DWIDTH 22 0
BBX 26 19 0 -3
BITMAP
03E7CF80
01C38700
03870E00
03870E00
03870E00
070E1C00
070E1C00
070E1C00
0E1C3800
0E1C3800
0E1C3800
1C387000
1C387000
1C387000
3870E000
7FFFF800
00003800
00003000
00003000
ENDCHAR
STARTCHAR cyr-Che
ENCODING 254
SWIDTH 1000 0
DWIDTH 16 0
BBX 19 16 0 0
BITMAP
07C3E0
0381C0
070380
070380
070380
0E0700
0E0700
0E0700
0FFE00
000E00
000E00
001C00
001C00
001C00
003800
007C00
ENDCHAR
STARTCHAR cyr-Ier
ENCODING 255
SWIDTH 1188 0
DWIDTH 19 0
BBX 22 16 0 0
BITMAP
07F800
077000
0CE000
0CE000
00E000
01C000
01FFC0
01C0E0
0380E0
0380E0
0380E0
0701C0
0701C0
0701C0
0E0700
1FFE00
ENDCHAR
ENDFONT
