STARTFONT 2.1
COMMENT Copyright (C) 1990-1991 EWT Consulting
COMMENT Portions Copyright (C) 1994-1995 Cronyx Ltd.
COMMENT Changes Copyright (C) 1996-1997 by Andrey A. Chernov, Moscow, Russia.
COMMENT Modified by Serge Vakulenko, <vak@cronyx.ru>
COMMENT This software may be used, modified, copied, distributed, and sold,
COMMENT in both source and binary form provided that the copyright
COMMENT and these terms are retained. Under no circumstances is the author
COMMENT responsible for the proper functioning of this software, nor does
COMMENT the author assume any responsibility for damages incurred with its use.
COMMENT $XFree86: xc/fonts/bdf/cyrillic/crox2ho.bdf,v 3.2.4.1 1998/02/01 16:03:37 robin Exp $
FONT -Cronyx-Helvetica-Medium-O-Normal--14-100-100-100-P-56-KOI8-R
SIZE 10 96 96
FONTBOUNDINGBOX 18 15 -1 -3
STARTPROPERTIES 20
DEFAULT_CHAR 32
FONT_ASCENT 13
FONT_DESCENT 3
SPACING "P"
FONTNAME_REGISTRY ""
FOUNDRY "Cronyx"
FAMILY_NAME "Helvetica"
WEIGHT_NAME "Medium"
SLANT "O"
SETWIDTH_NAME "Normal"
ADD_STYLE_NAME ""
AVERAGE_WIDTH 56
CHARSET_REGISTRY "KOI8"
CHARSET_ENCODING "R"
PIXEL_SIZE 14
POINT_SIZE 100
RESOLUTION_X 100
RESOLUTION_Y 100
COPYRIGHT "Copyright (C) 1990, 1991 EWT Consulting, Portions Copyright (C) 1994 Cronyx Ltd., Portions Copyright (C) 1996-1997 by Andrey A. Chernov, Moscow, Russia."
_XMBDFED_INFO "Edited with xmbdfed 2.7."
ENDPROPERTIES
CHARS 165
STARTCHAR space
ENCODING 32
SWIDTH 225 0
DWIDTH 3 0
BBX 0 0 -1 0
BITMAP
ENDCHAR
STARTCHAR exclam
ENCODING 33
SWIDTH 225 0
DWIDTH 3 0
BBX 4 10 0 0
BITMAP
10
10
20
20
20
40
40
40
00
80
ENDCHAR
STARTCHAR quotedbl
ENCODING 34
SWIDTH 375 0
DWIDTH 5 0
BBX 4 4 0 6
BITMAP
50
50
A0
A0
ENDCHAR
STARTCHAR numbersign
ENCODING 35
SWIDTH 525 0
DWIDTH 7 0
BBX 10 10 -1 0
BITMAP
0280
0280
0500
1F80
0A00
1400
7E00
2800
5000
5000
ENDCHAR
STARTCHAR dollar
ENCODING 36
SWIDTH 525 0
DWIDTH 7 0
BBX 8 11 0 -1
BITMAP
04
0E
15
2A
28
1C
14
14
54
70
20
ENDCHAR
STARTCHAR percent
ENCODING 37
SWIDTH 900 0
DWIDTH 12 0
BBX 13 10 0 0
BITMAP
0C00
1210
2440
1880
0100
0400
08C0
1120
4240
0180
ENDCHAR
STARTCHAR ampersand
ENCODING 38
SWIDTH 675 0
DWIDTH 9 0
BBX 10 10 0 0
BITMAP
0600
0900
1200
1200
0C00
2800
4400
4500
8400
7A00
ENDCHAR
STARTCHAR quoteright
ENCODING 39
SWIDTH 225 0
DWIDTH 3 0
BBX 2 4 0 6
BITMAP
40
40
80
80
ENDCHAR
STARTCHAR parenleft
ENCODING 40
SWIDTH 300 0
DWIDTH 4 0
BBX 7 13 0 -3
BITMAP
02
04
08
10
10
20
20
20
40
40
20
40
20
ENDCHAR
STARTCHAR parenright
ENCODING 41
SWIDTH 300 0
DWIDTH 4 0
BBX 7 13 -1 -3
BITMAP
08
04
08
04
04
08
08
08
10
10
20
40
80
ENDCHAR
STARTCHAR asterisk
ENCODING 42
SWIDTH 375 0
DWIDTH 5 0
BBX 6 4 -1 6
BITMAP
10
54
70
D8
ENDCHAR
STARTCHAR plus
ENCODING 43
SWIDTH 525 0
DWIDTH 7 0
BBX 6 5 0 2
BITMAP
10
10
7C
20
20
ENDCHAR
STARTCHAR comma
ENCODING 44
SWIDTH 225 0
DWIDTH 3 0
BBX 2 2 -1 -1
BITMAP
40
80
ENDCHAR
STARTCHAR minus
ENCODING 45
SWIDTH 300 0
DWIDTH 4 0
BBX 4 1 -1 4
BITMAP
F0
ENDCHAR
STARTCHAR period
ENCODING 46
SWIDTH 225 0
DWIDTH 3 0
BBX 1 1 0 0
BITMAP
80
ENDCHAR
STARTCHAR slash
ENCODING 47
SWIDTH 300 0
DWIDTH 4 0
BBX 8 12 -1 -2
BITMAP
01
02
02
04
08
08
10
20
20
40
80
80
ENDCHAR
STARTCHAR zero
ENCODING 48
SWIDTH 525 0
DWIDTH 7 0
BBX 8 10 0 0
BITMAP
0E
11
22
22
22
44
44
44
88
70
ENDCHAR
STARTCHAR one
ENCODING 49
SWIDTH 525 0
DWIDTH 7 0
BBX 6 10 0 0
BITMAP
04
1C
08
08
08
10
10
10
20
20
ENDCHAR
STARTCHAR two
ENCODING 50
SWIDTH 525 0
DWIDTH 7 0
BBX 8 10 0 0
BITMAP
0E
11
22
02
04
10
20
40
80
F8
ENDCHAR
STARTCHAR three
ENCODING 51
SWIDTH 525 0
DWIDTH 7 0
BBX 8 10 0 0
BITMAP
0E
11
02
02
0C
04
04
04
88
70
ENDCHAR
STARTCHAR four
ENCODING 52
SWIDTH 525 0
DWIDTH 7 0
BBX 8 10 0 0
BITMAP
01
03
0A
0A
12
44
7C
04
08
08
ENDCHAR
STARTCHAR five
ENCODING 53
SWIDTH 525 0
DWIDTH 7 0
BBX 8 10 0 0
BITMAP
1F
10
20
20
3C
44
04
04
88
70
ENDCHAR
STARTCHAR six
ENCODING 54
SWIDTH 525 0
DWIDTH 7 0
BBX 8 10 0 0
BITMAP
0E
11
20
20
2C
64
44
44
88
70
ENDCHAR
STARTCHAR seven
ENCODING 55
SWIDTH 525 0
DWIDTH 7 0
BBX 8 10 0 0
BITMAP
1F
01
02
04
04
10
10
20
40
40
ENDCHAR
STARTCHAR eight
ENCODING 56
SWIDTH 525 0
DWIDTH 7 0
BBX 8 10 0 0
BITMAP
0E
11
22
22
1C
44
44
44
88
70
ENDCHAR
STARTCHAR nine
ENCODING 57
SWIDTH 525 0
DWIDTH 7 0
BBX 8 10 0 0
BITMAP
0E
11
22
22
26
34
04
04
88
70
ENDCHAR
STARTCHAR colon
ENCODING 58
SWIDTH 225 0
DWIDTH 3 0
BBX 3 7 0 0
BITMAP
20
00
00
00
00
00
80
ENDCHAR
STARTCHAR semicolon
ENCODING 59
SWIDTH 225 0
DWIDTH 3 0
BBX 4 8 -1 -1
BITMAP
10
00
00
00
00
00
40
80
ENDCHAR
STARTCHAR less
ENCODING 60
SWIDTH 525 0
DWIDTH 7 0
BBX 7 7 0 1
BITMAP
06
0C
30
60
30
30
18
ENDCHAR
STARTCHAR equal
ENCODING 61
SWIDTH 525 0
DWIDTH 7 0
BBX 6 3 0 3
BITMAP
7C
00
F8
ENDCHAR
STARTCHAR greater
ENCODING 62
SWIDTH 525 0
DWIDTH 7 0
BBX 7 7 0 1
BITMAP
30
18
18
0C
18
60
C0
ENDCHAR
STARTCHAR question
ENCODING 63
SWIDTH 525 0
DWIDTH 7 0
BBX 8 10 0 0
BITMAP
0E
11
22
02
04
10
10
10
00
20
ENDCHAR
STARTCHAR at
ENCODING 64
SWIDTH 1050 0
DWIDTH 14 0
BBX 16 12 0 -1
BITMAP
00F0
0618
0804
0804
21E4
2224
2224
4488
2370
2000
3060
0F80
ENDCHAR
STARTCHAR A
ENCODING 65
SWIDTH 675 0
DWIDTH 9 0
BBX 12 10 -1 0
BITMAP
0100
0100
0500
0500
0880
1100
3F80
2080
8080
8080
ENDCHAR
STARTCHAR B
ENCODING 66
SWIDTH 675 0
DWIDTH 9 0
BBX 10 10 0 0
BITMAP
1F80
1040
2080
2080
3F00
4100
4100
4100
8200
FC00
ENDCHAR
STARTCHAR C
ENCODING 67
SWIDTH 675 0
DWIDTH 9 0
BBX 11 10 0 0
BITMAP
0780
0840
2040
2000
2000
4000
4000
4080
4200
3C00
ENDCHAR
STARTCHAR D
ENCODING 68
SWIDTH 750 0
DWIDTH 10 0
BBX 11 10 0 0
BITMAP
1F80
1040
2040
2040
2040
4080
4080
4080
8200
FC00
ENDCHAR
STARTCHAR E
ENCODING 69
SWIDTH 675 0
DWIDTH 9 0
BBX 10 10 0 0
BITMAP
1FC0
1000
2000
2000
3F00
4000
4000
4000
8000
FE00
ENDCHAR
STARTCHAR F
ENCODING 70
SWIDTH 600 0
DWIDTH 8 0
BBX 10 10 0 0
BITMAP
1FC0
1000
2000
2000
3F00
4000
4000
4000
8000
8000
ENDCHAR
STARTCHAR G
ENCODING 71
SWIDTH 750 0
DWIDTH 10 0
BBX 11 10 0 0
BITMAP
0780
0840
2040
2000
2000
4380
4080
4080
4300
3D00
ENDCHAR
STARTCHAR H
ENCODING 72
SWIDTH 750 0
DWIDTH 10 0
BBX 11 10 0 0
BITMAP
1020
1020
2040
2040
3FC0
4080
4080
4080
8100
8100
ENDCHAR
STARTCHAR I
ENCODING 73
SWIDTH 225 0
DWIDTH 3 0
BBX 4 10 0 0
BITMAP
10
10
20
20
20
40
40
40
80
80
ENDCHAR
STARTCHAR J
ENCODING 74
SWIDTH 525 0
DWIDTH 7 0
BBX 8 10 0 0
BITMAP
01
01
02
02
02
04
04
44
88
70
ENDCHAR
STARTCHAR K
ENCODING 75
SWIDTH 600 0
DWIDTH 8 0
BBX 10 10 0 0
BITMAP
1080
1100
2400
2800
3000
5000
4800
4400
8400
8200
ENDCHAR
STARTCHAR L
ENCODING 76
SWIDTH 525 0
DWIDTH 7 0
BBX 9 10 0 0
BITMAP
1000
1000
2000
2000
2000
4000
4000
4000
8000
FC00
ENDCHAR
STARTCHAR M
ENCODING 77
SWIDTH 825 0
DWIDTH 11 0
BBX 12 10 0 0
BITMAP
1010
1010
3060
3060
28A0
5140
4A40
4A40
8880
8880
ENDCHAR
STARTCHAR N
ENCODING 78
SWIDTH 750 0
DWIDTH 10 0
BBX 11 10 0 0
BITMAP
1020
1820
2840
2840
2440
4480
4280
4280
8300
8100
ENDCHAR
STARTCHAR O
ENCODING 79
SWIDTH 750 0
DWIDTH 10 0
BBX 11 10 0 0
BITMAP
0780
0840
2040
2040
2040
4080
4080
4080
4200
3C00
ENDCHAR
STARTCHAR P
ENCODING 80
SWIDTH 675 0
DWIDTH 9 0
BBX 11 10 0 0
BITMAP
1F80
1040
2040
2040
2080
7E00
4000
4000
8000
8000
ENDCHAR
STARTCHAR Q
ENCODING 81
SWIDTH 750 0
DWIDTH 10 0
BBX 11 10 0 0
BITMAP
0780
0840
2040
2040
2040
4080
4080
4280
4200
3D00
ENDCHAR
STARTCHAR R
ENCODING 82
SWIDTH 750 0
DWIDTH 10 0
BBX 12 10 0 0
BITMAP
1F80
1040
2040
2040
2080
7F00
4080
4080
8100
8080
ENDCHAR
STARTCHAR S
ENCODING 83
SWIDTH 675 0
DWIDTH 9 0
BBX 10 10 0 0
BITMAP
0F80
1040
2080
2000
1C00
0600
0100
4100
8200
7C00
ENDCHAR
STARTCHAR T
ENCODING 84
SWIDTH 675 0
DWIDTH 9 0
BBX 12 10 -1 0
BITMAP
1FF0
0100
0200
0200
0200
0400
0400
0400
0800
0800
ENDCHAR
STARTCHAR U
ENCODING 85
SWIDTH 750 0
DWIDTH 10 0
BBX 11 10 0 0
BITMAP
1020
1020
2040
2040
2040
4080
4080
4080
4200
3C00
ENDCHAR
STARTCHAR V
ENCODING 86
SWIDTH 675 0
DWIDTH 9 0
BBX 12 10 -1 0
BITMAP
1010
1010
1040
1040
0880
1100
0A00
0A00
0800
0800
ENDCHAR
STARTCHAR W
ENCODING 87
SWIDTH 975 0
DWIDTH 13 0
BBX 16 10 -1 0
BITMAP
1041
1041
2082
1144
1144
1450
1450
1450
1040
1040
ENDCHAR
STARTCHAR X
ENCODING 88
SWIDTH 600 0
DWIDTH 8 0
BBX 11 10 -1 0
BITMAP
1020
1020
1080
0900
0600
0C00
1200
2100
8100
8100
ENDCHAR
STARTCHAR Y
ENCODING 89
SWIDTH 675 0
DWIDTH 9 0
BBX 12 10 -1 0
BITMAP
1010
1010
1040
0880
0500
0400
0400
0400
0800
0800
ENDCHAR
STARTCHAR Z
ENCODING 90
SWIDTH 600 0
DWIDTH 8 0
BBX 9 10 0 0
BITMAP
1F80
0080
0200
0200
0400
1000
2000
2000
8000
FC00
ENDCHAR
STARTCHAR bracketleft
ENCODING 91
SWIDTH 300 0
DWIDTH 4 0
BBX 7 13 0 -3
BITMAP
0E
08
10
10
10
20
20
20
40
40
40
80
E0
ENDCHAR
STARTCHAR backslash
ENCODING 92
SWIDTH 300 0
DWIDTH 4 0
BBX 8 12 -1 -2
BITMAP
08
10
10
08
10
10
08
10
10
08
10
10
ENDCHAR
STARTCHAR bracketright
ENCODING 93
SWIDTH 300 0
DWIDTH 4 0
BBX 7 13 -1 -3
BITMAP
0E
02
04
04
04
08
08
08
10
10
10
20
E0
ENDCHAR
STARTCHAR asciicircum
ENCODING 94
SWIDTH 525 0
DWIDTH 7 0
BBX 6 3 0 8
BITMAP
10
50
88
ENDCHAR
STARTCHAR underscore
ENCODING 95
SWIDTH 525 0
DWIDTH 7 0
BBX 7 1 -1 -2
BITMAP
FE
ENDCHAR
STARTCHAR quoteleft
ENCODING 96
SWIDTH 300 0
DWIDTH 4 0
BBX 2 2 0 8
BITMAP
80
40
ENDCHAR
STARTCHAR a
ENCODING 97
SWIDTH 600 0
DWIDTH 8 0
BBX 9 7 0 0
BITMAP
1E00
2100
3E00
4200
4200
8400
7A00
ENDCHAR
STARTCHAR b
ENCODING 98
SWIDTH 600 0
DWIDTH 8 0
BBX 9 10 0 0
BITMAP
1000
1000
2000
2E00
3100
4200
4200
4200
C400
B800
ENDCHAR
STARTCHAR c
ENCODING 99
SWIDTH 525 0
DWIDTH 7 0
BBX 8 7 0 0
BITMAP
1E
21
40
40
40
84
78
ENDCHAR
STARTCHAR d
ENCODING 100
SWIDTH 600 0
DWIDTH 8 0
BBX 9 10 0 0
BITMAP
0080
0080
0100
1D00
2300
4200
4200
4200
8C00
7400
ENDCHAR
STARTCHAR e
ENCODING 101
SWIDTH 600 0
DWIDTH 8 0
BBX 8 7 0 0
BITMAP
1E
21
42
7E
40
84
78
ENDCHAR
STARTCHAR f
ENCODING 102
SWIDTH 225 0
DWIDTH 3 0
BBX 6 10 -1 0
BITMAP
04
08
10
38
10
20
20
20
40
40
ENDCHAR
STARTCHAR g
ENCODING 103
SWIDTH 600 0
DWIDTH 8 0
BBX 9 10 0 -3
BITMAP
0E80
1180
2100
2100
2100
4600
3A00
0200
0400
7800
ENDCHAR
STARTCHAR h
ENCODING 104
SWIDTH 525 0
DWIDTH 7 0
BBX 8 10 0 0
BITMAP
10
10
20
2C
32
44
44
44
88
88
ENDCHAR
STARTCHAR i
ENCODING 105
SWIDTH 225 0
DWIDTH 3 0
BBX 4 10 0 0
BITMAP
10
00
00
20
20
40
40
40
80
80
ENDCHAR
STARTCHAR j
ENCODING 106
SWIDTH 225 0
DWIDTH 3 0
BBX 6 13 -1 -3
BITMAP
04
00
00
08
08
10
10
10
20
20
20
40
80
ENDCHAR
STARTCHAR k
ENCODING 107
SWIDTH 525 0
DWIDTH 7 0
BBX 9 10 0 0
BITMAP
1000
1000
2000
2200
2400
5000
7000
4800
8800
8400
ENDCHAR
STARTCHAR l
ENCODING 108
SWIDTH 225 0
DWIDTH 3 0
BBX 4 10 0 0
BITMAP
10
10
20
20
20
40
40
40
80
80
ENDCHAR
STARTCHAR m
ENCODING 109
SWIDTH 825 0
DWIDTH 11 0
BBX 11 7 0 0
BITMAP
2CC0
3320
4440
4440
4440
8880
8880
ENDCHAR
STARTCHAR n
ENCODING 110
SWIDTH 525 0
DWIDTH 7 0
BBX 7 7 0 0
BITMAP
2C
32
44
44
44
88
88
ENDCHAR
STARTCHAR o
ENCODING 111
SWIDTH 600 0
DWIDTH 8 0
BBX 8 7 0 0
BITMAP
1E
21
42
42
42
84
78
ENDCHAR
STARTCHAR p
ENCODING 112
SWIDTH 600 0
DWIDTH 8 0
BBX 9 10 0 -3
BITMAP
1700
1880
2100
2100
2100
6200
5C00
4000
8000
8000
ENDCHAR
STARTCHAR q
ENCODING 113
SWIDTH 600 0
DWIDTH 8 0
BBX 9 10 0 -3
BITMAP
0E80
1180
2100
2100
2100
4600
3A00
0200
0400
0400
ENDCHAR
STARTCHAR r
ENCODING 114
SWIDTH 300 0
DWIDTH 4 0
BBX 5 7 0 0
BITMAP
28
30
40
40
40
80
80
ENDCHAR
STARTCHAR s
ENCODING 115
SWIDTH 525 0
DWIDTH 7 0
BBX 7 7 0 0
BITMAP
1C
22
40
38
04
88
70
ENDCHAR
STARTCHAR t
ENCODING 116
SWIDTH 225 0
DWIDTH 3 0
BBX 6 9 -1 0
BITMAP
08
10
38
10
20
20
20
40
20
ENDCHAR
STARTCHAR u
ENCODING 117
SWIDTH 525 0
DWIDTH 7 0
BBX 7 7 0 0
BITMAP
22
22
44
44
44
98
68
ENDCHAR
STARTCHAR v
ENCODING 118
SWIDTH 525 0
DWIDTH 7 0
BBX 9 7 -1 0
BITMAP
2080
2080
2200
2200
1400
2800
1000
ENDCHAR
STARTCHAR w
ENCODING 119
SWIDTH 675 0
DWIDTH 9 0
BBX 11 7 -1 0
BITMAP
2220
2220
2A80
2A80
2A80
2200
2200
ENDCHAR
STARTCHAR x
ENCODING 120
SWIDTH 450 0
DWIDTH 6 0
BBX 8 7 -1 0
BITMAP
21
12
18
18
18
48
84
ENDCHAR
STARTCHAR y
ENCODING 121
SWIDTH 525 0
DWIDTH 7 0
BBX 10 10 -1 -3
BITMAP
1040
1040
1100
1100
0A00
1400
0800
0800
2000
C000
ENDCHAR
STARTCHAR z
ENCODING 122
SWIDTH 450 0
DWIDTH 6 0
BBX 6 7 0 0
BITMAP
3C
04
10
20
20
80
F0
ENDCHAR
STARTCHAR braceleft
ENCODING 123
SWIDTH 375 0
DWIDTH 5 0
BBX 9 13 -1 -3
BITMAP
0180
0200
0400
0400
0400
0800
3000
0800
1000
1000
1000
2000
1800
ENDCHAR
STARTCHAR bar
ENCODING 124
SWIDTH 225 0
DWIDTH 3 0
BBX 5 13 0 -3
BITMAP
08
08
10
10
10
20
20
20
40
40
40
80
80
ENDCHAR
STARTCHAR braceright
ENCODING 125
SWIDTH 375 0
DWIDTH 5 0
BBX 9 13 -1 -3
BITMAP
0C00
0200
0400
0400
0400
0800
0600
0800
1000
1000
1000
2000
C000
ENDCHAR
STARTCHAR asciitilde
ENCODING 126
SWIDTH 675 0
DWIDTH 9 0
BBX 8 3 0 7
BITMAP
31
92
8C
ENDCHAR
STARTCHAR nbsp
ENCODING 154
SWIDTH 225 0
DWIDTH 3 0
BBX 0 0 -1 0
BITMAP
ENDCHAR
STARTCHAR degree
ENCODING 156
SWIDTH 300 0
DWIDTH 4 0
BBX 4 3 0 7
BITMAP
20
A0
40
ENDCHAR
STARTCHAR twosuperior
ENCODING 157
SWIDTH 300 0
DWIDTH 4 0
BBX 5 5 -1 5
BITMAP
30
48
10
40
F0
ENDCHAR
STARTCHAR cyr-yo
ENCODING 163
SWIDTH 600 0
DWIDTH 8 0
BBX 9 9 0 0
BITMAP
0900
0000
1E00
2100
4200
7E00
4000
8400
7800
ENDCHAR
STARTCHAR cyr-Yo
ENCODING 179
SWIDTH 675 0
DWIDTH 9 0
BBX 11 12 0 0
BITMAP
0440
0000
1FC0
1000
2000
2000
3F00
4000
4000
4000
8000
FE00
ENDCHAR
STARTCHAR copyright
ENCODING 191
SWIDTH 600 0
DWIDTH 8 0
BBX 10 8 -1 2
BITMAP
0F00
1080
2740
5080
5080
4E80
4200
3C00
ENDCHAR
STARTCHAR cyr-yu
ENCODING 192
SWIDTH 675 0
DWIDTH 9 0
BBX 9 7 0 0
BITMAP
2700
2880
5100
7100
5100
A200
9C00
ENDCHAR
STARTCHAR cyr-a
ENCODING 193
SWIDTH 600 0
DWIDTH 8 0
BBX 9 7 0 0
BITMAP
1E00
2100
3E00
4200
4200
8400
7A00
ENDCHAR
STARTCHAR cyr-be
ENCODING 194
SWIDTH 600 0
DWIDTH 8 0
BBX 9 10 0 0
BITMAP
0080
0F00
2000
3E00
2100
4200
4200
4200
8400
7800
ENDCHAR
STARTCHAR cyr-tse
ENCODING 195
SWIDTH 525 0
DWIDTH 7 0
BBX 9 9 0 -2
BITMAP
1100
2200
2200
2200
4400
4400
7E00
0400
0400
ENDCHAR
STARTCHAR cyr-de
ENCODING 196
SWIDTH 750 0
DWIDTH 10 0
BBX 11 9 0 -2
BITMAP
07C0
0880
0880
0880
1100
2100
7F80
8100
8100
ENDCHAR
STARTCHAR cyr-ie
ENCODING 197
SWIDTH 600 0
DWIDTH 8 0
BBX 8 7 0 0
BITMAP
1E
21
42
7E
40
84
78
ENDCHAR
STARTCHAR cyr-ef
ENCODING 198
SWIDTH 675 0
DWIDTH 9 0
BBX 10 11 0 -3
BITMAP
0200
0F80
1240
2480
2480
2480
4900
3E00
0800
1000
1000
ENDCHAR
STARTCHAR cyr-ghe
ENCODING 199
SWIDTH 525 0
DWIDTH 7 0
BBX 7 7 0 0
BITMAP
3E
20
40
40
40
80
80
ENDCHAR
STARTCHAR cyr-kha
ENCODING 200
SWIDTH 450 0
DWIDTH 6 0
BBX 8 7 -1 0
BITMAP
21
12
18
18
18
48
84
ENDCHAR
STARTCHAR cyr-i
ENCODING 201
SWIDTH 600 0
DWIDTH 8 0
BBX 8 7 0 0
BITMAP
21
21
46
4A
52
C4
84
ENDCHAR
STARTCHAR cyr-i-short
ENCODING 202
SWIDTH 600 0
DWIDTH 8 0
BBX 9 9 0 0
BITMAP
0900
0C00
2100
2100
4600
4A00
5200
C400
8400
ENDCHAR
STARTCHAR cyr-ka
ENCODING 203
SWIDTH 525 0
DWIDTH 7 0
BBX 8 7 0 0
BITMAP
22
24
50
70
48
88
84
ENDCHAR
STARTCHAR cyr-el
ENCODING 204
SWIDTH 600 0
DWIDTH 8 0
BBX 8 7 0 0
BITMAP
1F
11
22
22
22
44
84
ENDCHAR
STARTCHAR cyr-em
ENCODING 205
SWIDTH 675 0
DWIDTH 9 0
BBX 9 7 0 0
BITMAP
2080
3180
5500
4900
4100
8200
8200
ENDCHAR
STARTCHAR cyr-en
ENCODING 206
SWIDTH 525 0
DWIDTH 7 0
BBX 7 7 0 0
BITMAP
22
22
44
7C
44
88
88
ENDCHAR
STARTCHAR cyr-o
ENCODING 207
SWIDTH 600 0
DWIDTH 8 0
BBX 8 7 0 0
BITMAP
1E
21
42
42
42
84
78
ENDCHAR
STARTCHAR cyr-pe
ENCODING 208
SWIDTH 525 0
DWIDTH 7 0
BBX 7 7 0 0
BITMAP
3E
22
44
44
44
88
88
ENDCHAR
STARTCHAR cyr-ya
ENCODING 209
SWIDTH 600 0
DWIDTH 8 0
BBX 8 7 0 0
BITMAP
1F
21
42
42
3E
44
84
ENDCHAR
STARTCHAR cyr-er
ENCODING 210
SWIDTH 600 0
DWIDTH 8 0
BBX 9 10 0 -3
BITMAP
1700
1880
2100
2100
2100
6200
5C00
4000
8000
8000
ENDCHAR
STARTCHAR cyr-es
ENCODING 211
SWIDTH 525 0
DWIDTH 7 0
BBX 8 7 0 0
BITMAP
1E
21
40
40
40
84
78
ENDCHAR
STARTCHAR cyr-te
ENCODING 212
SWIDTH 675 0
DWIDTH 9 0
BBX 9 7 0 0
BITMAP
3F80
0400
0800
0800
0800
1000
1000
ENDCHAR
STARTCHAR cyr-u
ENCODING 213
SWIDTH 525 0
DWIDTH 7 0
BBX 10 10 -1 -3
BITMAP
1040
1040
1100
1100
0A00
1400
0800
0800
2000
C000
ENDCHAR
STARTCHAR cyr-zhe
ENCODING 214
SWIDTH 825 0
DWIDTH 11 0
BBX 13 7 -1 0
BITMAP
1110
0920
0A80
0F80
1240
4440
8420
ENDCHAR
STARTCHAR cyr-ve
ENCODING 215
SWIDTH 600 0
DWIDTH 8 0
BBX 8 7 0 0
BITMAP
3E
21
42
7E
42
84
F8
ENDCHAR
STARTCHAR cyr-ierik
ENCODING 216
SWIDTH 600 0
DWIDTH 8 0
BBX 8 7 0 0
BITMAP
20
20
7C
42
42
84
F8
ENDCHAR
STARTCHAR cyr-iery
ENCODING 217
SWIDTH 750 0
DWIDTH 10 0
BBX 10 7 0 0
BITMAP
2040
2040
7C80
4280
4280
8500
F900
ENDCHAR
STARTCHAR cyr-z
ENCODING 218
SWIDTH 600 0
DWIDTH 8 0
BBX 8 7 0 0
BITMAP
1E
21
02
1C
02
84
78
ENDCHAR
STARTCHAR cyr-sha
ENCODING 219
SWIDTH 825 0
DWIDTH 11 0
BBX 11 7 0 0
BITMAP
2220
2220
4440
4440
4440
8880
FF80
ENDCHAR
STARTCHAR cyr-e-rev
ENCODING 220
SWIDTH 600 0
DWIDTH 8 0
BBX 8 7 0 0
BITMAP
1E
21
02
1E
02
84
78
ENDCHAR
STARTCHAR cyr-shcha
ENCODING 221
SWIDTH 825 0
DWIDTH 11 0
BBX 13 9 0 -2
BITMAP
1110
2220
2220
2220
4440
4440
7FE0
0040
0040
ENDCHAR
STARTCHAR cyr-che
ENCODING 222
SWIDTH 525 0
DWIDTH 7 0
BBX 7 7 0 0
BITMAP
22
22
44
3C
04
08
08
ENDCHAR
STARTCHAR cyr-ier
ENCODING 223
SWIDTH 675 0
DWIDTH 9 0
BBX 10 7 -1 0
BITMAP
3800
0800
1F00
1080
1080
2100
3E00
ENDCHAR
STARTCHAR cyr-Yu
ENCODING 224
SWIDTH 825 0
DWIDTH 11 0
BBX 12 10 0 0
BITMAP
11C0
1220
2820
2820
3820
5040
5040
5040
9100
8E00
ENDCHAR
STARTCHAR cyr-A
ENCODING 225
SWIDTH 675 0
DWIDTH 9 0
BBX 12 10 -1 0
BITMAP
0100
0100
0500
0500
0880
1100
3F80
2080
8080
8080
ENDCHAR
STARTCHAR cyr-Be
ENCODING 226
SWIDTH 675 0
DWIDTH 9 0
BBX 10 10 0 0
BITMAP
1F80
1000
2000
2000
3F00
4100
4100
4100
8200
FC00
ENDCHAR
STARTCHAR cyr-Tse
ENCODING 227
SWIDTH 750 0
DWIDTH 10 0
BBX 13 12 0 -2
BITMAP
0810
1020
1020
1020
2040
2040
2040
4080
4080
7FC0
0080
0080
ENDCHAR
STARTCHAR cyr-De
ENCODING 228
SWIDTH 750 0
DWIDTH 10 0
BBX 12 12 0 -2
BITMAP
03E0
0440
0440
0440
0880
0880
0880
1100
2100
7F80
8100
8100
ENDCHAR
STARTCHAR cyr-Ie
ENCODING 229
SWIDTH 675 0
DWIDTH 9 0
BBX 10 10 0 0
BITMAP
1FC0
1000
2000
2000
3F00
4000
4000
4000
8000
FE00
ENDCHAR
STARTCHAR cyr-Ef
ENCODING 230
SWIDTH 750 0
DWIDTH 10 0
BBX 12 10 0 0
BITMAP
07C0
0920
2220
2220
2220
4440
4440
2480
3E00
0800
ENDCHAR
STARTCHAR cyr-Ghe
ENCODING 231
SWIDTH 600 0
DWIDTH 8 0
BBX 9 10 0 0
BITMAP
1F80
1000
2000
2000
2000
4000
4000
4000
8000
8000
ENDCHAR
STARTCHAR cyr-Kha
ENCODING 232
SWIDTH 600 0
DWIDTH 8 0
BBX 11 10 -1 0
BITMAP
1020
1020
1080
0900
0600
0C00
1200
2100
8100
8100
ENDCHAR
STARTCHAR cyr-I
ENCODING 233
SWIDTH 750 0
DWIDTH 10 0
BBX 11 10 0 0
BITMAP
1020
1020
2040
20C0
2140
4480
4880
5080
C100
8100
ENDCHAR
STARTCHAR cyr-I-short
ENCODING 234
SWIDTH 750 0
DWIDTH 10 0
BBX 12 12 0 0
BITMAP
0240
0300
1020
1020
2040
20C0
2140
4480
4880
5080
C100
8100
ENDCHAR
STARTCHAR cyr-Ka
ENCODING 235
SWIDTH 600 0
DWIDTH 8 0
BBX 10 10 0 0
BITMAP
1080
1100
2400
2800
3000
5000
4800
4400
8400
8200
ENDCHAR
STARTCHAR cyr-El
ENCODING 236
SWIDTH 900 0
DWIDTH 12 0
BBX 13 10 0 0
BITMAP
07F8
0408
0810
0810
0810
1020
1020
1020
2040
C040
ENDCHAR
STARTCHAR cyr-Em
ENCODING 237
SWIDTH 825 0
DWIDTH 11 0
BBX 12 10 0 0
BITMAP
1010
1010
3060
3060
28A0
5140
4A40
4A40
8880
8880
ENDCHAR
STARTCHAR cyr-En
ENCODING 238
SWIDTH 750 0
DWIDTH 10 0
BBX 11 10 0 0
BITMAP
1020
1020
2040
2040
3FC0
4080
4080
4080
8100
8100
ENDCHAR
STARTCHAR cyr-O
ENCODING 239
SWIDTH 750 0
DWIDTH 10 0
BBX 11 10 0 0
BITMAP
0780
0840
2040
2040
2040
4080
4080
4080
4200
3C00
ENDCHAR
STARTCHAR cyr-Pe
ENCODING 240
SWIDTH 750 0
DWIDTH 10 0
BBX 11 10 0 0
BITMAP
1FE0
1020
2040
2040
2040
4080
4080
4080
8100
8100
ENDCHAR
STARTCHAR cyr-Ya
ENCODING 241
SWIDTH 750 0
DWIDTH 10 0
BBX 11 10 0 0
BITMAP
0FE0
1020
2040
2040
2040
3F80
0880
1080
4100
8100
ENDCHAR
STARTCHAR cyr-Er
ENCODING 242
SWIDTH 675 0
DWIDTH 9 0
BBX 11 10 0 0
BITMAP
1F80
1040
2040
2040
2080
7E00
4000
4000
8000
8000
ENDCHAR
STARTCHAR cyr-Es
ENCODING 243
SWIDTH 675 0
DWIDTH 9 0
BBX 11 10 0 0
BITMAP
0780
0840
2040
2000
2000
4000
4000
4080
4200
3C00
ENDCHAR
STARTCHAR cyr-Te
ENCODING 244
SWIDTH 675 0
DWIDTH 9 0
BBX 12 10 -1 0
BITMAP
1FF0
0100
0200
0200
0200
0400
0400
0400
0800
0800
ENDCHAR
STARTCHAR cyr-U
ENCODING 245
SWIDTH 675 0
DWIDTH 9 0
BBX 12 10 -1 0
BITMAP
1010
1010
1040
0880
0500
0400
0400
0800
2000
C000
ENDCHAR
STARTCHAR cyr-Zhe
ENCODING 246
SWIDTH 975 0
DWIDTH 13 0
BBX 16 10 -1 0
BITMAP
0842
0444
0490
02A0
01C0
0540
0920
1110
4210
8208
ENDCHAR
STARTCHAR cyr-Ve
ENCODING 247
SWIDTH 675 0
DWIDTH 9 0
BBX 10 10 0 0
BITMAP
1F80
1040
2080
2080
3F00
4100
4100
4100
8200
FC00
ENDCHAR
STARTCHAR cyr-Ierik
ENCODING 248
SWIDTH 750 0
DWIDTH 10 0
BBX 11 10 0 0
BITMAP
1000
1000
2000
2000
3F80
4080
4080
4080
8100
FE00
ENDCHAR
STARTCHAR cyr-Iery
ENCODING 249
SWIDTH 900 0
DWIDTH 12 0
BBX 13 10 0 0
BITMAP
1008
1008
2010
2010
3F90
40A0
40A0
40A0
8140
FE40
ENDCHAR
STARTCHAR cyr-Ze
ENCODING 250
SWIDTH 675 0
DWIDTH 9 0
BBX 10 10 0 0
BITMAP
0F80
1040
0080
0080
0700
0100
0100
0100
8200
7C00
ENDCHAR
STARTCHAR cyr-Sha
ENCODING 251
SWIDTH 975 0
DWIDTH 13 0
BBX 14 10 0 0
BITMAP
1084
1084
2108
2108
2108
4210
4210
4210
8420
FFE0
ENDCHAR
STARTCHAR cyr-E-rev
ENCODING 252
SWIDTH 750 0
DWIDTH 10 0
BBX 11 10 0 0
BITMAP
0780
0840
2040
0040
07C0
0080
0080
4080
4200
3C00
ENDCHAR
STARTCHAR cyr-Shcha
ENCODING 253
SWIDTH 975 0
DWIDTH 13 0
BBX 16 12 0 -2
BITMAP
0842
1084
1084
1084
2108
2108
2108
4210
4210
7FF8
0010
0010
ENDCHAR
STARTCHAR cyr-Che
ENCODING 254
SWIDTH 750 0
DWIDTH 10 0
BBX 11 10 0 0
BITMAP
1020
1020
2040
2040
1FC0
0080
0080
0080
0100
0100
ENDCHAR
STARTCHAR cyr-Ier
ENCODING 255
SWIDTH 825 0
DWIDTH 11 0
BBX 13 10 -1 0
BITMAP
1C00
0400
0800
0800
0FE0
1020
1020
1020
2040
3F80
ENDCHAR
ENDFONT
