STARTFONT 2.1
COMMENT Copyright (C) 1990-1991 EWT Consulting
COMMENT Portions Copyright (C) 1994-1995 Cronyx Ltd.
COMMENT Changes Copyright (C) 1996-1997 by Andrey A. Chernov, Moscow, Russia.
COMMENT Modified by Serge Vakulenko, <vak@cronyx.ru>
COMMENT This software may be used, modified, copied, distributed, and sold,
COMMENT in both source and binary form provided that the copyright
COMMENT and these terms are retained. Under no circumstances is the author
COMMENT responsible for the proper functioning of this software, nor does
COMMENT the author assume any responsibility for damages incurred with its use.
COMMENT $XFree86: xc/fonts/bdf/cyrillic/crox3hbo.bdf,v 3.2.4.1 1998/02/01 16:03:45 robin Exp $
FONT -Cronyx-Helvetica-Bold-O-Normal--17-120-100-100-P-67-KOI8-R
SIZE 12 96 96
FONTBOUNDINGBOX 22 18 -1 -4
STARTPROPERTIES 20
DEFAULT_CHAR 32
FONT_ASCENT 16
FONT_DESCENT 4
SPACING "P"
FONTNAME_REGISTRY ""
FOUNDRY "Cronyx"
FAMILY_NAME "Helvetica"
WEIGHT_NAME "Bold"
SLANT "O"
SETWIDTH_NAME "Normal"
ADD_STYLE_NAME ""
AVERAGE_WIDTH 67
CHARSET_REGISTRY "KOI8"
CHARSET_ENCODING "R"
PIXEL_SIZE 17
POINT_SIZE 120
RESOLUTION_X 100
RESOLUTION_Y 100
COPYRIGHT "Copyright (C) 1990, 1991 EWT Consulting, Portions Copyright (C) 1994 Cronyx Ltd., Portions Copyright (C) 1996-1997 by Andrey A. Chernov, Moscow, Russia."
_XMBDFED_INFO "Edited with xmbdfed 2.7."
ENDPROPERTIES
CHARS 165
STARTCHAR space
ENCODING 32
SWIDTH 313 0
DWIDTH 5 0
BBX 0 0 -1 0
BITMAP
ENDCHAR
STARTCHAR exclam
ENCODING 33
SWIDTH 417 0
DWIDTH 5 0
BBX 6 12 1 0
BITMAP
0C
18
18
18
30
30
30
60
60
00
00
C0
ENDCHAR
STARTCHAR quotedbl
ENCODING 34
SWIDTH 1750 0
DWIDTH 7 0
BBX 6 4 0 8
BITMAP
6C
6C
D8
D8
ENDCHAR
STARTCHAR numbersign
ENCODING 35
SWIDTH 833 0
DWIDTH 10 0
BBX 13 12 -1 0
BITMAP
01B0
0360
0360
0FF0
0D80
0D80
0D80
1B00
7F80
3600
6C00
6C00
ENDCHAR
STARTCHAR dollar
ENCODING 36
SWIDTH 714 0
DWIDTH 10 0
BBX 12 14 0 -1
BITMAP
0180
03C0
07E0
1B60
1B00
0F00
0F00
0780
06C0
0D80
6D80
3F00
3C00
1800
ENDCHAR
STARTCHAR percent
ENCODING 37
SWIDTH 1250 0
DWIDTH 15 0
BBX 17 12 0 0
BITMAP
078180
198600
198C00
199800
1E6000
00C000
018000
067800
0CCC00
18CC00
619800
C0F000
ENDCHAR
STARTCHAR ampersand
ENCODING 38
SWIDTH 1000 0
DWIDTH 12 0
BBX 15 12 0 0
BITMAP
0380
0D80
0D80
0D80
0E00
0E00
1B00
6360
61E0
60C0
63C0
3E60
ENDCHAR
STARTCHAR quoteright
ENCODING 39
SWIDTH 1000 0
DWIDTH 4 0
BBX 3 4 0 8
BITMAP
60
60
C0
C0
ENDCHAR
STARTCHAR parenleft
ENCODING 40
SWIDTH 375 0
DWIDTH 6 0
BBX 9 16 0 -3
BITMAP
0180
0300
0600
0600
0C00
1800
1800
1800
3000
3000
3000
6000
3000
3000
6000
3000
ENDCHAR
STARTCHAR parenright
ENCODING 41
SWIDTH 375 0
DWIDTH 6 0
BBX 9 16 0 -3
BITMAP
0600
0300
0600
0600
0300
0600
0600
0600
0C00
0C00
0C00
1800
3000
3000
6000
C000
ENDCHAR
STARTCHAR asterisk
ENCODING 42
SWIDTH 1400 0
DWIDTH 7 0
BBX 7 5 0 8
BITMAP
18
7E
3C
78
CC
ENDCHAR
STARTCHAR plus
ENCODING 43
SWIDTH 1429 0
DWIDTH 10 0
BBX 10 7 0 2
BITMAP
0600
0600
0C00
7F80
0C00
1800
1800
ENDCHAR
STARTCHAR comma
ENCODING 44
SWIDTH 2500 0
DWIDTH 5 0
BBX 3 2 0 -1
BITMAP
60
C0
ENDCHAR
STARTCHAR minus
ENCODING 45
SWIDTH 6000 0
DWIDTH 6 0
BBX 6 1 -1 5
BITMAP
FC
ENDCHAR
STARTCHAR period
ENCODING 46
SWIDTH 5000 0
DWIDTH 5 0
BBX 2 1 1 0
BITMAP
C0
ENDCHAR
STARTCHAR slash
ENCODING 47
SWIDTH 385 0
DWIDTH 5 0
BBX 9 13 -1 -1
BITMAP
0180
0180
0300
0300
0600
0C00
0C00
0C00
3000
3000
3000
6000
C000
ENDCHAR
STARTCHAR zero
ENCODING 48
SWIDTH 833 0
DWIDTH 10 0
BBX 12 12 0 0
BITMAP
03C0
0CC0
0CC0
1860
30C0
30C0
30C0
6180
6180
3300
6600
3C00
ENDCHAR
STARTCHAR one
ENCODING 49
SWIDTH 833 0
DWIDTH 10 0
BBX 8 12 1 0
BITMAP
03
1E
06
06
0C
0C
0C
18
18
18
30
30
ENDCHAR
STARTCHAR two
ENCODING 50
SWIDTH 833 0
DWIDTH 10 0
BBX 12 12 0 0
BITMAP
03C0
0CC0
1860
1860
00C0
0180
0300
0C00
1800
3000
C000
FF00
ENDCHAR
STARTCHAR three
ENCODING 51
SWIDTH 833 0
DWIDTH 10 0
BBX 12 12 0 0
BITMAP
03C0
0CC0
1860
1860
0180
0F00
0180
0180
6180
6180
6600
3C00
ENDCHAR
STARTCHAR four
ENCODING 52
SWIDTH 833 0
DWIDTH 10 0
BBX 12 12 0 0
BITMAP
0060
01C0
01C0
03C0
0D80
0D80
1980
6300
7F80
0300
0600
0600
ENDCHAR
STARTCHAR five
ENCODING 53
SWIDTH 833 0
DWIDTH 10 0
BBX 12 12 0 0
BITMAP
0FF0
1800
1800
1800
3F00
3980
30C0
0180
6180
6180
6600
3C00
ENDCHAR
STARTCHAR six
ENCODING 54
SWIDTH 833 0
DWIDTH 10 0
BBX 12 12 0 0
BITMAP
03C0
0CC0
1860
1800
3F00
3980
30C0
6180
6180
6180
6600
3C00
ENDCHAR
STARTCHAR seven
ENCODING 55
SWIDTH 833 0
DWIDTH 10 0
BBX 12 12 0 0
BITMAP
0FF0
0060
0060
00C0
0180
0300
0300
0600
0C00
0C00
1800
1800
ENDCHAR
STARTCHAR eight
ENCODING 56
SWIDTH 833 0
DWIDTH 10 0
BBX 12 12 0 0
BITMAP
03C0
0CC0
1860
1860
1980
0F00
1980
6180
6180
6180
6600
3C00
ENDCHAR
STARTCHAR nine
ENCODING 57
SWIDTH 833 0
DWIDTH 10 0
BBX 12 12 0 0
BITMAP
03C0
0CC0
1860
1860
30C0
30C0
19C0
1F80
0180
6180
6600
3C00
ENDCHAR
STARTCHAR colon
ENCODING 58
SWIDTH 556 0
DWIDTH 5 0
BBX 5 9 1 0
BITMAP
18
00
00
00
00
00
00
00
C0
ENDCHAR
STARTCHAR semicolon
ENCODING 59
SWIDTH 500 0
DWIDTH 5 0
BBX 6 10 0 -1
BITMAP
0C
00
00
00
00
00
00
00
60
C0
ENDCHAR
STARTCHAR less
ENCODING 60
SWIDTH 1429 0
DWIDTH 10 0
BBX 10 7 0 2
BITMAP
01C0
0700
3800
6000
3800
1C00
0700
ENDCHAR
STARTCHAR equal
ENCODING 61
SWIDTH 2500 0
DWIDTH 10 0
BBX 9 4 0 4
BITMAP
7F80
0000
0000
FF00
ENDCHAR
STARTCHAR greater
ENCODING 62
SWIDTH 1429 0
DWIDTH 10 0
BBX 10 7 0 2
BITMAP
3800
0E00
0700
0180
0700
3800
E000
ENDCHAR
STARTCHAR question
ENCODING 63
SWIDTH 833 0
DWIDTH 10 0
BBX 12 12 0 0
BITMAP
03C0
0CC0
1860
1860
00C0
0180
0300
0C00
0C00
0000
0000
1800
ENDCHAR
STARTCHAR at
ENCODING 64
SWIDTH 1417 0
DWIDTH 17 0
BBX 19 12 0 0
BITMAP
007F00
038300
060180
0C78C0
199980
331980
331980
667600
63FC00
300000
383800
0FE000
ENDCHAR
STARTCHAR A
ENCODING 65
SWIDTH 1000 0
DWIDTH 12 0
BBX 16 12 -1 0
BITMAP
0060
00C0
01E0
01E0
0660
0660
0C30
1860
3FF0
3030
C030
C030
ENDCHAR
STARTCHAR B
ENCODING 66
SWIDTH 1000 0
DWIDTH 12 0
BBX 13 12 1 0
BITMAP
0FE0
1860
1830
1830
30C0
3F80
30C0
60C0
60C0
60C0
C300
FE00
ENDCHAR
STARTCHAR C
ENCODING 67
SWIDTH 1000 0
DWIDTH 12 0
BBX 15 12 0 0
BITMAP
01F0
0E38
0C18
180C
3000
3000
3000
6000
6030
3060
71C0
1F00
ENDCHAR
STARTCHAR D
ENCODING 68
SWIDTH 1083 0
DWIDTH 13 0
BBX 14 12 1 0
BITMAP
0FE0
1870
1830
1818
3030
3030
3030
6060
6060
60C0
C380
FE00
ENDCHAR
STARTCHAR E
ENCODING 69
SWIDTH 1000 0
DWIDTH 12 0
BBX 13 12 1 0
BITMAP
0FF8
1800
1800
1800
3000
3FC0
3000
6000
6000
6000
C000
FF80
ENDCHAR
STARTCHAR F
ENCODING 70
SWIDTH 917 0
DWIDTH 11 0
BBX 13 12 1 0
BITMAP
0FF8
1800
1800
1800
3000
3FC0
3000
6000
6000
6000
C000
C000
ENDCHAR
STARTCHAR G
ENCODING 71
SWIDTH 1167 0
DWIDTH 14 0
BBX 15 12 0 0
BITMAP
01F0
0E38
0C18
180C
3000
3000
31F8
6030
6030
3070
71E0
1F60
ENDCHAR
STARTCHAR H
ENCODING 72
SWIDTH 1083 0
DWIDTH 13 0
BBX 13 12 1 0
BITMAP
0C18
1830
1830
1830
3060
3FE0
3060
60C0
60C0
60C0
C180
C180
ENDCHAR
STARTCHAR I
ENCODING 73
SWIDTH 500 0
DWIDTH 6 0
BBX 6 12 1 0
BITMAP
0C
18
18
18
30
30
30
60
60
60
C0
C0
ENDCHAR
STARTCHAR J
ENCODING 74
SWIDTH 750 0
DWIDTH 9 0
BBX 11 12 -1 0
BITMAP
0060
00C0
00C0
00C0
0180
0180
0180
0300
6300
6300
C600
7C00
ENDCHAR
STARTCHAR K
ENCODING 75
SWIDTH 917 0
DWIDTH 11 0
BBX 13 12 1 0
BITMAP
0C30
18C0
1980
1B00
3C00
3800
3C00
6C00
6600
6300
C300
C180
ENDCHAR
STARTCHAR L
ENCODING 76
SWIDTH 833 0
DWIDTH 10 0
BBX 12 12 1 0
BITMAP
0C00
1800
1800
1800
3000
3000
3000
6000
6000
6000
C000
FF00
ENDCHAR
STARTCHAR M
ENCODING 77
SWIDTH 1167 0
DWIDTH 14 0
BBX 14 12 1 0
BITMAP
0C0C
1818
1C38
1C38
3CF0
3CF0
37B0
6F60
6660
6660
C0C0
C0C0
ENDCHAR
STARTCHAR N
ENCODING 78
SWIDTH 1000 0
DWIDTH 12 0
BBX 12 12 1 0
BITMAP
0C30
1C60
1C60
1E60
3CC0
36C0
36C0
6780
6780
6380
C700
C300
ENDCHAR
STARTCHAR O
ENCODING 79
SWIDTH 1083 0
DWIDTH 13 0
BBX 15 12 0 0
BITMAP
01F0
0E38
0C18
180C
3018
3018
3018
6030
6030
3060
71C0
1F00
ENDCHAR
STARTCHAR P
ENCODING 80
SWIDTH 917 0
DWIDTH 11 0
BBX 13 12 1 0
BITMAP
0FE0
1860
1830
1830
3060
30C0
3F80
6000
6000
6000
C000
C000
ENDCHAR
STARTCHAR Q
ENCODING 81
SWIDTH 1000 0
DWIDTH 13 0
BBX 15 13 0 -1
BITMAP
01F0
071C
0C18
180C
180C
3018
3018
3018
6330
31E0
38E0
1FC0
0060
ENDCHAR
STARTCHAR R
ENCODING 82
SWIDTH 1083 0
DWIDTH 13 0
BBX 14 12 1 0
BITMAP
0FE0
1860
1830
1830
3060
30C0
3F80
6180
60C0
60C0
C180
C0C0
ENDCHAR
STARTCHAR S
ENCODING 83
SWIDTH 1000 0
DWIDTH 12 0
BBX 14 12 0 0
BITMAP
03F0
0C30
1818
1800
1800
0FC0
0060
0060
0060
6060
6180
3F00
ENDCHAR
STARTCHAR T
ENCODING 84
SWIDTH 833 0
DWIDTH 10 0
BBX 14 12 -1 0
BITMAP
0FFC
0180
0180
0180
0300
0300
0300
0600
0600
0600
0C00
0C00
ENDCHAR
STARTCHAR U
ENCODING 85
SWIDTH 1083 0
DWIDTH 13 0
BBX 13 12 1 0
BITMAP
0C18
1830
1830
1830
3060
3060
3060
60C0
60C0
60C0
6300
3E00
ENDCHAR
STARTCHAR V
ENCODING 86
SWIDTH 1000 0
DWIDTH 12 0
BBX 16 12 -1 0
BITMAP
0C03
1806
0C0C
0C0C
0C30
0C30
0660
0CC0
0780
0780
0600
0600
ENDCHAR
STARTCHAR W
ENCODING 87
SWIDTH 1333 0
DWIDTH 16 0
BBX 20 12 -1 0
BITMAP
0C0030
183060
0C30C0
0C30C0
18F180
0CF300
0CF300
0F3C00
0F3C00
061800
0C3000
0C3000
ENDCHAR
STARTCHAR X
ENCODING 88
SWIDTH 1000 0
DWIDTH 12 0
BBX 16 12 -1 0
BITMAP
0C03
0C0C
0618
0330
03C0
0180
0180
0780
0CC0
1860
6060
C030
ENDCHAR
STARTCHAR Y
ENCODING 89
SWIDTH 1000 0
DWIDTH 12 0
BBX 16 12 -1 0
BITMAP
0C03
0C0C
0618
0330
03C0
0180
0180
0300
0300
0300
0600
0600
ENDCHAR
STARTCHAR Z
ENCODING 90
SWIDTH 917 0
DWIDTH 11 0
BBX 15 12 -1 0
BITMAP
07FE
000C
0018
0030
00C0
0180
0300
0C00
1800
3000
C000
FFC0
ENDCHAR
STARTCHAR bracketleft
ENCODING 91
SWIDTH 333 0
DWIDTH 5 0
BBX 8 15 0 -3
BITMAP
07
0C
0C
0C
18
18
18
30
30
30
60
60
60
C0
E0
ENDCHAR
STARTCHAR backslash
ENCODING 92
SWIDTH 385 0
DWIDTH 5 0
BBX 9 13 -1 -1
BITMAP
0C00
0C00
1800
1800
0C00
1800
1800
1800
1800
1800
1800
3000
1800
ENDCHAR
STARTCHAR bracketright
ENCODING 93
SWIDTH 333 0
DWIDTH 5 0
BBX 8 15 0 -3
BITMAP
07
06
06
06
0C
0C
0C
18
18
18
30
30
30
60
E0
ENDCHAR
STARTCHAR asciicircum
ENCODING 94
SWIDTH 2667 0
DWIDTH 8 0
BBX 7 3 0 10
BITMAP
18
78
CC
ENDCHAR
STARTCHAR underscore
ENCODING 95
SWIDTH 10000 0
DWIDTH 10 0
BBX 10 1 -1 -2
BITMAP
FFC0
ENDCHAR
STARTCHAR quoteleft
ENCODING 96
SWIDTH 2000 0
DWIDTH 6 0
BBX 5 3 0 10
BITMAP
60
60
30
ENDCHAR
STARTCHAR a
ENCODING 97
SWIDTH 1111 0
DWIDTH 10 0
BBX 12 9 0 0
BITMAP
0FC0
30C0
00C0
00C0
3F80
6180
6180
C300
7F80
ENDCHAR
STARTCHAR b
ENCODING 98
SWIDTH 833 0
DWIDTH 10 0
BBX 12 12 0 0
BITMAP
0C00
1800
1800
1F80
3980
30C0
30C0
6180
6180
6180
E600
FC00
ENDCHAR
STARTCHAR c
ENCODING 99
SWIDTH 1000 0
DWIDTH 9 0
BBX 11 9 0 0
BITMAP
0780
1980
30C0
3000
6000
6000
6180
6600
3C00
ENDCHAR
STARTCHAR d
ENCODING 100
SWIDTH 833 0
DWIDTH 10 0
BBX 12 12 0 0
BITMAP
0030
0060
0060
07E0
19C0
30C0
30C0
6180
6180
6180
6700
3F00
ENDCHAR
STARTCHAR e
ENCODING 101
SWIDTH 1111 0
DWIDTH 10 0
BBX 11 9 0 0
BITMAP
0780
1980
30C0
30C0
7F80
6000
6180
6600
3C00
ENDCHAR
STARTCHAR f
ENCODING 102
SWIDTH 500 0
DWIDTH 6 0
BBX 10 12 -1 0
BITMAP
01C0
0600
0600
1F80
0C00
0C00
0C00
1800
1800
1800
3000
3000
ENDCHAR
STARTCHAR g
ENCODING 103
SWIDTH 769 0
DWIDTH 10 0
BBX 12 13 0 -4
BITMAP
03F0
0670
1860
1860
1860
30C0
30C0
19C0
1F80
0180
0180
0600
7C00
ENDCHAR
STARTCHAR h
ENCODING 104
SWIDTH 833 0
DWIDTH 10 0
BBX 12 12 0 0
BITMAP
0C00
1800
1800
1F80
3980
30C0
30C0
6180
6180
6180
C300
C300
ENDCHAR
STARTCHAR i
ENCODING 105
SWIDTH 333 0
DWIDTH 4 0
BBX 6 12 0 0
BITMAP
0C
00
00
18
30
30
30
60
60
60
C0
C0
ENDCHAR
STARTCHAR j
ENCODING 106
SWIDTH 250 0
DWIDTH 4 0
BBX 8 16 -1 -4
BITMAP
03
00
00
06
06
0C
0C
0C
18
18
18
30
30
30
60
C0
ENDCHAR
STARTCHAR k
ENCODING 107
SWIDTH 750 0
DWIDTH 9 0
BBX 12 12 0 0
BITMAP
0C00
1800
1800
18C0
3300
3600
3C00
7800
6C00
6600
C600
C300
ENDCHAR
STARTCHAR l
ENCODING 108
SWIDTH 333 0
DWIDTH 4 0
BBX 6 12 0 0
BITMAP
0C
18
18
18
30
30
30
60
60
60
C0
C0
ENDCHAR
STARTCHAR m
ENCODING 109
SWIDTH 1556 0
DWIDTH 14 0
BBX 15 9 0 0
BITMAP
1F38
3BD8
318C
318C
6318
6318
6318
C630
C630
ENDCHAR
STARTCHAR n
ENCODING 110
SWIDTH 1111 0
DWIDTH 10 0
BBX 11 9 0 0
BITMAP
1F80
3980
30C0
30C0
6180
6180
6180
C300
C300
ENDCHAR
STARTCHAR o
ENCODING 111
SWIDTH 1111 0
DWIDTH 10 0
BBX 11 9 0 0
BITMAP
0780
1980
30C0
30C0
6180
6180
6180
6600
3C00
ENDCHAR
STARTCHAR p
ENCODING 112
SWIDTH 769 0
DWIDTH 10 0
BBX 12 13 0 -4
BITMAP
0FC0
0E60
1860
1860
1860
30C0
30C0
3980
7E00
6000
6000
C000
C000
ENDCHAR
STARTCHAR q
ENCODING 113
SWIDTH 769 0
DWIDTH 10 0
BBX 12 13 0 -4
BITMAP
03F0
0670
1860
1860
1860
30C0
30C0
19C0
1F80
0180
0180
0300
0300
ENDCHAR
STARTCHAR r
ENCODING 114
SWIDTH 667 0
DWIDTH 6 0
BBX 8 9 0 0
BITMAP
1F
38
30
30
60
60
60
C0
C0
ENDCHAR
STARTCHAR s
ENCODING 115
SWIDTH 1000 0
DWIDTH 9 0
BBX 10 9 0 0
BITMAP
0F80
3180
3000
3000
3E00
0300
0300
C600
7C00
ENDCHAR
STARTCHAR t
ENCODING 116
SWIDTH 500 0
DWIDTH 6 0
BBX 10 12 -1 0
BITMAP
0300
0600
0600
1F80
0C00
0C00
0C00
1800
1800
1800
3000
1800
ENDCHAR
STARTCHAR u
ENCODING 117
SWIDTH 1111 0
DWIDTH 10 0
BBX 11 9 0 0
BITMAP
1860
30C0
30C0
30C0
6180
6180
6180
6700
3F00
ENDCHAR
STARTCHAR v
ENCODING 118
SWIDTH 889 0
DWIDTH 8 0
BBX 11 9 -1 0
BITMAP
1860
30C0
1980
1980
1E00
1E00
0C00
1800
1800
ENDCHAR
STARTCHAR w
ENCODING 119
SWIDTH 1333 0
DWIDTH 12 0
BBX 15 9 -1 0
BITMAP
1806
318C
1998
1998
1FE0
1FE0
0CC0
1980
1980
ENDCHAR
STARTCHAR x
ENCODING 120
SWIDTH 889 0
DWIDTH 8 0
BBX 11 9 -1 0
BITMAP
1860
1980
1980
0F00
0C00
1E00
3300
6600
C300
ENDCHAR
STARTCHAR y
ENCODING 121
SWIDTH 615 0
DWIDTH 8 0
BBX 12 13 -1 -4
BITMAP
0C30
0C30
0CC0
0CC0
0780
0F00
0600
0600
1800
1800
3000
6000
C000
ENDCHAR
STARTCHAR z
ENCODING 122
SWIDTH 1000 0
DWIDTH 9 0
BBX 10 9 0 0
BITMAP
1FC0
0180
0300
0600
1800
1800
3000
C000
FE00
ENDCHAR
STARTCHAR braceleft
ENCODING 123
SWIDTH 400 0
DWIDTH 6 0
BBX 9 15 0 -3
BITMAP
0180
0600
0600
0600
0C00
0C00
0C00
3000
1800
1800
3000
3000
3000
6000
3000
ENDCHAR
STARTCHAR bar
ENCODING 124
SWIDTH 462 0
DWIDTH 6 0
BBX 6 13 1 -1
BITMAP
0C
0C
18
18
18
30
30
30
60
60
60
C0
C0
ENDCHAR
STARTCHAR braceright
ENCODING 125
SWIDTH 400 0
DWIDTH 6 0
BBX 9 15 0 -3
BITMAP
0600
0600
0600
0600
0C00
0C00
0C00
0C00
1800
1800
3000
3000
3000
6000
C000
ENDCHAR
STARTCHAR asciitilde
ENCODING 126
SWIDTH 3333 0
DWIDTH 10 0
BBX 9 3 0 10
BITMAP
3980
DB00
CE00
ENDCHAR
STARTCHAR nbsp
ENCODING 154
SWIDTH 313 0
DWIDTH 5 0
BBX 0 0 -1 0
BITMAP
ENDCHAR
STARTCHAR degree
ENCODING 156
SWIDTH 1500 0
DWIDTH 6 0
BBX 6 4 0 8
BITMAP
38
6C
D8
70
ENDCHAR
STARTCHAR twosuperior
ENCODING 157
SWIDTH 1000 0
DWIDTH 6 0
BBX 7 6 0 6
BITMAP
1C
6C
0C
18
60
F8
ENDCHAR
STARTCHAR cyr-yo
ENCODING 163
SWIDTH 909 0
DWIDTH 10 0
BBX 11 11 0 0
BITMAP
0CC0
0000
0780
1980
30C0
30C0
7F80
6000
6180
6600
3C00
ENDCHAR
STARTCHAR cyr-Yo
ENCODING 179
SWIDTH 857 0
DWIDTH 12 0
BBX 13 14 1 0
BITMAP
0630
0000
0FF8
1800
1800
1800
3000
3FC0
3000
6000
6000
6000
C000
FF80
ENDCHAR
STARTCHAR copyright
ENCODING 191
SWIDTH 1000 0
DWIDTH 12 0
BBX 16 12 -1 0
BITMAP
01F8
0E1C
0C0C
19E6
366C
360C
360C
6CD8
6798
3038
70E0
1F80
ENDCHAR
STARTCHAR cyr-yu
ENCODING 192
SWIDTH 1333 0
DWIDTH 12 0
BBX 13 9 0 0
BITMAP
19E0
3660
3C30
3C30
7860
7860
7860
D980
CF00
ENDCHAR
STARTCHAR cyr-a
ENCODING 193
SWIDTH 1111 0
DWIDTH 10 0
BBX 12 9 0 0
BITMAP
0FC0
30C0
00C0
00C0
3F80
6180
6180
C300
7F80
ENDCHAR
STARTCHAR cyr-be
ENCODING 194
SWIDTH 833 0
DWIDTH 10 0
BBX 12 12 0 0
BITMAP
0030
07C0
0C00
1F80
3980
30C0
30C0
6180
6180
6180
6600
3C00
ENDCHAR
STARTCHAR cyr-tse
ENCODING 195
SWIDTH 818 0
DWIDTH 9 0
BBX 11 11 0 -2
BITMAP
18C0
18C0
18C0
3180
3180
3180
6300
6300
7F80
0300
0300
ENDCHAR
STARTCHAR cyr-de
ENCODING 196
SWIDTH 1000 0
DWIDTH 11 0
BBX 12 11 0 -2
BITMAP
07E0
0660
0660
0CC0
0CC0
0CC0
1980
3180
7FC0
C180
C180
ENDCHAR
STARTCHAR cyr-ie
ENCODING 197
SWIDTH 1111 0
DWIDTH 10 0
BBX 11 9 0 0
BITMAP
0780
1980
30C0
30C0
7F80
6000
6180
6600
3C00
ENDCHAR
STARTCHAR cyr-ef
ENCODING 198
SWIDTH 714 0
DWIDTH 10 0
BBX 12 14 0 -4
BITMAP
0180
03C0
07E0
1B60
1B60
1B60
36C0
36C0
1F80
1E00
0C00
0C00
1800
1800
ENDCHAR
STARTCHAR cyr-ghe
ENCODING 199
SWIDTH 1111 0
DWIDTH 10 0
BBX 11 9 0 0
BITMAP
1FE0
3000
3000
3000
6000
6000
6000
C000
C000
ENDCHAR
STARTCHAR cyr-kha
ENCODING 200
SWIDTH 889 0
DWIDTH 8 0
BBX 11 9 -1 0
BITMAP
1860
1980
1980
0F00
0C00
1E00
3300
6600
C300
ENDCHAR
STARTCHAR cyr-i
ENCODING 201
SWIDTH 1111 0
DWIDTH 10 0
BBX 11 9 0 0
BITMAP
1860
30C0
31C0
33C0
6D80
7980
7180
C300
C300
ENDCHAR
STARTCHAR cyr-i-short
ENCODING 202
SWIDTH 909 0
DWIDTH 10 0
BBX 11 11 0 0
BITMAP
0CC0
0780
1860
30C0
31C0
33C0
6D80
7980
7180
C300
C300
ENDCHAR
STARTCHAR cyr-ka
ENCODING 203
SWIDTH 1000 0
DWIDTH 9 0
BBX 11 9 0 0
BITMAP
18C0
3300
3600
3C00
7800
6C00
6600
C600
C300
ENDCHAR
STARTCHAR cyr-el
ENCODING 204
SWIDTH 1111 0
DWIDTH 10 0
BBX 11 9 0 0
BITMAP
07E0
0CC0
0CC0
0CC0
1980
1980
1980
3300
E300
ENDCHAR
STARTCHAR cyr-em
ENCODING 205
SWIDTH 1333 0
DWIDTH 12 0
BBX 13 9 0 0
BITMAP
1818
3870
3CF0
37B0
6660
6060
6060
C0C0
C0C0
ENDCHAR
STARTCHAR cyr-en
ENCODING 206
SWIDTH 1111 0
DWIDTH 10 0
BBX 11 9 0 0
BITMAP
1860
30C0
30C0
30C0
7F80
6180
6180
C300
C300
ENDCHAR
STARTCHAR cyr-o
ENCODING 207
SWIDTH 1111 0
DWIDTH 10 0
BBX 11 9 0 0
BITMAP
0780
1980
30C0
30C0
6180
6180
6180
6600
3C00
ENDCHAR
STARTCHAR cyr-pe
ENCODING 208
SWIDTH 1111 0
DWIDTH 10 0
BBX 11 9 0 0
BITMAP
1FE0
30C0
30C0
30C0
6180
6180
6180
C300
C300
ENDCHAR
STARTCHAR cyr-ya
ENCODING 209
SWIDTH 1111 0
DWIDTH 10 0
BBX 11 9 0 0
BITMAP
0FE0
30C0
30C0
30C0
3F80
0D80
1980
6300
C300
ENDCHAR
STARTCHAR cyr-er
ENCODING 210
SWIDTH 769 0
DWIDTH 10 0
BBX 12 13 0 -4
BITMAP
0FC0
0E60
1860
1860
1860
30C0
30C0
3980
7E00
6000
6000
C000
C000
ENDCHAR
STARTCHAR cyr-es
ENCODING 211
SWIDTH 1000 0
DWIDTH 9 0
BBX 11 9 0 0
BITMAP
0780
1980
30C0
3000
6000
6000
6180
6600
3C00
ENDCHAR
STARTCHAR cyr-te
ENCODING 212
SWIDTH 1111 0
DWIDTH 10 0
BBX 11 9 0 0
BITMAP
1FE0
0600
0600
0600
0C00
0C00
0C00
1800
1800
ENDCHAR
STARTCHAR cyr-u
ENCODING 213
SWIDTH 615 0
DWIDTH 8 0
BBX 12 13 -1 -4
BITMAP
0C30
0C30
0CC0
0CC0
0780
0F00
0600
0600
1800
1800
3000
6000
C000
ENDCHAR
STARTCHAR cyr-zhe
ENCODING 214
SWIDTH 1556 0
DWIDTH 14 0
BBX 17 9 -1 0
BITMAP
0C6300
0CCC00
06D800
03F000
07E000
0DB000
199800
631800
C30C00
ENDCHAR
STARTCHAR cyr-ve
ENCODING 215
SWIDTH 1111 0
DWIDTH 10 0
BBX 11 9 0 0
BITMAP
1FC0
30C0
30C0
30C0
7F00
6180
6180
C300
FE00
ENDCHAR
STARTCHAR cyr-ierik
ENCODING 216
SWIDTH 1111 0
DWIDTH 10 0
BBX 11 9 0 0
BITMAP
1800
3000
3000
3F80
6180
6180
6180
C300
FE00
ENDCHAR
STARTCHAR cyr-iery
ENCODING 217
SWIDTH 1333 0
DWIDTH 12 0
BBX 13 9 0 0
BITMAP
1818
3030
3030
3FB0
61E0
61E0
61E0
C3C0
FEC0
ENDCHAR
STARTCHAR cyr-z
ENCODING 218
SWIDTH 1111 0
DWIDTH 10 0
BBX 11 9 0 0
BITMAP
0FC0
30C0
00C0
00C0
1F00
0180
6180
C300
7E00
ENDCHAR
STARTCHAR cyr-sha
ENCODING 219
SWIDTH 1333 0
DWIDTH 12 0
BBX 13 9 0 0
BITMAP
1998
3330
3330
3330
6660
6660
6660
CCC0
FFC0
ENDCHAR
STARTCHAR cyr-e-rev
ENCODING 220
SWIDTH 1111 0
DWIDTH 10 0
BBX 11 9 0 0
BITMAP
0F80
3180
00C0
00C0
1F80
0180
0180
C600
7C00
ENDCHAR
STARTCHAR cyr-shcha
ENCODING 221
SWIDTH 1091 0
DWIDTH 12 0
BBX 14 11 0 -2
BITMAP
1998
1998
1998
3330
3330
3330
6660
6660
7FF0
0060
0060
ENDCHAR
STARTCHAR cyr-che
ENCODING 222
SWIDTH 1111 0
DWIDTH 10 0
BBX 11 9 0 0
BITMAP
1860
30C0
30C0
30C0
3F80
0180
0180
0300
0300
ENDCHAR
STARTCHAR cyr-ier
ENCODING 223
SWIDTH 1222 0
DWIDTH 11 0
BBX 13 9 -1 0
BITMAP
1E00
0C00
0C00
0FE0
1860
1860
1860
30C0
3F80
ENDCHAR
STARTCHAR cyr-Yu
ENCODING 224
SWIDTH 1167 0
DWIDTH 14 0
BBX 16 12 0 0
BITMAP
0C78
1B9C
1B0C
1E06
3C0C
3C0C
3C0C
7818
7818
6C30
DCE0
C780
ENDCHAR
STARTCHAR cyr-A
ENCODING 225
SWIDTH 1000 0
DWIDTH 12 0
BBX 16 12 -1 0
BITMAP
0060
00C0
01E0
01E0
0660
0660
0C30
1860
3FF0
3030
C030
C030
ENDCHAR
STARTCHAR cyr-Be
ENCODING 226
SWIDTH 1000 0
DWIDTH 12 0
BBX 13 12 1 0
BITMAP
0FF0
1800
1800
1800
3000
3F80
30C0
60C0
60C0
60C0
C300
FE00
ENDCHAR
STARTCHAR cyr-Tse
ENCODING 227
SWIDTH 929 0
DWIDTH 13 0
BBX 14 14 1 -2
BITMAP
0C18
0C18
0C18
1830
1830
1830
3060
3060
3060
60C0
60C0
7FE0
00C0
00C0
ENDCHAR
STARTCHAR cyr-De
ENCODING 228
SWIDTH 929 0
DWIDTH 13 0
BBX 15 14 0 -2
BITMAP
01FC
018C
018C
0318
0318
0318
0630
0630
0630
0C60
1860
7FF0
C060
C060
ENDCHAR
STARTCHAR cyr-Ie
ENCODING 229
SWIDTH 1000 0
DWIDTH 12 0
BBX 13 12 1 0
BITMAP
0FF8
1800
1800
1800
3000
3FC0
3000
6000
6000
6000
C000
FF80
ENDCHAR
STARTCHAR cyr-Ef
ENCODING 230
SWIDTH 1083 0
DWIDTH 13 0
BBX 16 12 0 0
BITMAP
01F8
0EDC
0CCC
18C6
318C
318C
318C
6318
3330
3B70
1F80
0600
ENDCHAR
STARTCHAR cyr-Ghe
ENCODING 231
SWIDTH 1000 0
DWIDTH 12 0
BBX 13 12 1 0
BITMAP
0FF8
1800
1800
1800
3000
3000
3000
6000
6000
6000
C000
C000
ENDCHAR
STARTCHAR cyr-Kha
ENCODING 232
SWIDTH 1000 0
DWIDTH 12 0
BBX 16 12 -1 0
BITMAP
0C03
0C0C
0618
0330
03C0
0180
0180
0780
0CC0
1860
6060
C030
ENDCHAR
STARTCHAR cyr-I
ENCODING 233
SWIDTH 1000 0
DWIDTH 12 0
BBX 12 12 1 0
BITMAP
0C30
18E0
18E0
19E0
33C0
36C0
36C0
7980
7980
7180
E300
C300
ENDCHAR
STARTCHAR cyr-I-short
ENCODING 234
SWIDTH 857 0
DWIDTH 12 0
BBX 12 14 1 0
BITMAP
0660
03C0
0C30
18E0
18E0
19E0
33C0
36C0
36C0
7980
7980
7180
E300
C300
ENDCHAR
STARTCHAR cyr-Ka
ENCODING 235
SWIDTH 917 0
DWIDTH 11 0
BBX 13 12 1 0
BITMAP
0C30
18C0
1980
1B00
3C00
3800
3C00
6C00
6600
6300
C300
C180
ENDCHAR
STARTCHAR cyr-El
ENCODING 236
SWIDTH 917 0
DWIDTH 11 0
BBX 13 12 0 0
BITMAP
03F8
0630
0630
0630
0C60
0C60
0C60
18C0
18C0
18C0
3180
E180
ENDCHAR
STARTCHAR cyr-Em
ENCODING 237
SWIDTH 1167 0
DWIDTH 14 0
BBX 14 12 1 0
BITMAP
0C0C
1818
1C38
1C38
3CF0
3CF0
37B0
6F60
6660
6660
C0C0
C0C0
ENDCHAR
STARTCHAR cyr-En
ENCODING 238
SWIDTH 1083 0
DWIDTH 13 0
BBX 13 12 1 0
BITMAP
0C18
1830
1830
1830
3060
3FE0
3060
60C0
60C0
60C0
C180
C180
ENDCHAR
STARTCHAR cyr-O
ENCODING 239
SWIDTH 1083 0
DWIDTH 13 0
BBX 15 12 0 0
BITMAP
01F0
0E38
0C18
180C
3018
3018
3018
6030
6030
3060
71C0
1F00
ENDCHAR
STARTCHAR cyr-Pe
ENCODING 240
SWIDTH 1083 0
DWIDTH 13 0
BBX 13 12 1 0
BITMAP
0FF8
1830
1830
1830
3060
3060
3060
60C0
60C0
60C0
C180
C180
ENDCHAR
STARTCHAR cyr-Ya
ENCODING 241
SWIDTH 1000 0
DWIDTH 12 0
BBX 13 12 0 0
BITMAP
03F8
0C30
1830
1830
3060
1860
0FE0
06C0
0CC0
18C0
6180
C180
ENDCHAR
STARTCHAR cyr-Er
ENCODING 242
SWIDTH 917 0
DWIDTH 11 0
BBX 13 12 1 0
BITMAP
0FE0
1860
1830
1830
3060
30C0
3F80
6000
6000
6000
C000
C000
ENDCHAR
STARTCHAR cyr-Es
ENCODING 243
SWIDTH 1000 0
DWIDTH 12 0
BBX 15 12 0 0
BITMAP
01F0
0E38
0C18
180C
3000
3000
3000
6000
6030
3060
71C0
1F00
ENDCHAR
STARTCHAR cyr-Te
ENCODING 244
SWIDTH 833 0
DWIDTH 10 0
BBX 14 12 -1 0
BITMAP
0FFC
0180
0180
0180
0300
0300
0300
0600
0600
0600
0C00
0C00
ENDCHAR
STARTCHAR cyr-U
ENCODING 245
SWIDTH 1000 0
DWIDTH 12 0
BBX 14 12 0 0
BITMAP
0C0C
1818
0C30
0C30
0CC0
0CC0
0780
0F00
0600
0600
0C00
7800
ENDCHAR
STARTCHAR cyr-Zhe
ENCODING 246
SWIDTH 1333 0
DWIDTH 16 0
BBX 20 12 -1 0
BITMAP
0C1830
0C30C0
063180
033300
036C00
01F800
01F800
06D800
0CCC00
18C600
618600
C18300
ENDCHAR
STARTCHAR cyr-Ve
ENCODING 247
SWIDTH 1000 0
DWIDTH 12 0
BBX 13 12 1 0
BITMAP
0FE0
1860
1830
1830
30C0
3F80
30C0
60C0
60C0
60C0
C300
FE00
ENDCHAR
STARTCHAR cyr-Ierik
ENCODING 248
SWIDTH 1000 0
DWIDTH 12 0
BBX 14 12 1 0
BITMAP
0C00
1800
1800
1800
3000
3FC0
3060
6060
6060
6060
C180
FF00
ENDCHAR
STARTCHAR cyr-Iery
ENCODING 249
SWIDTH 1250 0
DWIDTH 15 0
BBX 16 12 1 0
BITMAP
0C03
1806
1806
1806
300C
3FCC
306C
6078
6078
6078
C1B0
FF30
ENDCHAR
STARTCHAR cyr-Ze
ENCODING 250
SWIDTH 1000 0
DWIDTH 12 0
BBX 13 12 1 0
BITMAP
07F0
1830
0030
0030
0060
0FC0
0060
00C0
00C0
00C0
C180
7F00
ENDCHAR
STARTCHAR cyr-Sha
ENCODING 251
SWIDTH 1333 0
DWIDTH 16 0
BBX 18 12 0 0
BITMAP
0C30C0
186180
186180
186180
30C300
30C300
30C300
618600
618600
618600
C30C00
FFFC00
ENDCHAR
STARTCHAR cyr-E-rev
ENCODING 252
SWIDTH 1083 0
DWIDTH 13 0
BBX 15 12 0 0
BITMAP
03F8
0C18
180C
000C
0018
07F8
0018
0030
0030
6030
60C0
3F80
ENDCHAR
STARTCHAR cyr-Shcha
ENCODING 253
SWIDTH 1214 0
DWIDTH 17 0
BBX 19 14 0 -2
BITMAP
0C30C0
0C30C0
0C30C0
186180
186180
186180
30C300
30C300
30C300
618600
618600
7FFF00
000600
000600
ENDCHAR
STARTCHAR cyr-Che
ENCODING 254
SWIDTH 1083 0
DWIDTH 13 0
BBX 13 12 1 0
BITMAP
0C18
1830
1830
1830
3060
1FE0
0060
00C0
00C0
00C0
0180
0180
ENDCHAR
STARTCHAR cyr-Ier
ENCODING 255
SWIDTH 1083 0
DWIDTH 13 0
BBX 16 12 0 0
BITMAP
0F00
0600
0600
0600
0C00
0FF0
0C18
1818
1818
1818
3060
3FC0
ENDCHAR
ENDFONT
