STARTFONT 2.1
COMMENT Copyright (C) 1990-1991 EWT Consulting
COMMENT Portions Copyright (C) 1994-1995 Cronyx Ltd.
COMMENT Changes Copyright (C) 1996-1997 by Andrey A. Chernov, Moscow, Russia.
COMMENT Modified by Serge Vakulenko, <vak@cronyx.ru>
COMMENT This software may be used, modified, copied, distributed, and sold,
COMMENT in both source and binary form provided that the copyright
COMMENT and these terms are retained. Under no circumstances is the author
COMMENT responsible for the proper functioning of this software, nor does
COMMENT the author assume any responsibility for damages incurred with its use.
COMMENT $XFree86: xc/fonts/bdf/cyrillic/crox3cbo.bdf,v 3.2.4.1 1998/02/01 16:03:43 robin Exp $
FONT -Cronyx-Courier-Bold-O-Normal--20-140-100-100-M-120-KOI8-R
SIZE 14 96 96
FONTBOUNDINGBOX 19 18 -1 -4
STARTPROPERTIES 20
DEFAULT_CHAR 32
FONT_ASCENT 16
FONT_DESCENT 4
SPACING "M"
FONTNAME_REGISTRY ""
FOUNDRY "Cronyx"
FAMILY_NAME "Courier"
WEIGHT_NAME "Bold"
SLANT "O"
SETWIDTH_NAME "Normal"
ADD_STYLE_NAME ""
AVERAGE_WIDTH 120
CHARSET_REGISTRY "KOI8"
CHARSET_ENCODING "R"
PIXEL_SIZE 20
POINT_SIZE 140
RESOLUTION_X 100
RESOLUTION_Y 100
COPYRIGHT "Copyright (C) 1990, 1991 EWT Consulting, Portions Copyright (C) 1994 Cronyx Ltd., Portions Copyright (C) 1996-1997 by Andrey A. Chernov, Moscow, Russia."
_XMBDFED_INFO "Edited with xmbdfed 2.7."
ENDPROPERTIES
CHARS 165
STARTCHAR space
ENCODING 32
SWIDTH 684 0
DWIDTH 13 0
BBX 0 0 -1 0
BITMAP
ENDCHAR
STARTCHAR exclam
ENCODING 33
SWIDTH 1083 0
DWIDTH 13 0
BBX 6 12 5 0
BITMAP
0C
18
18
18
30
30
30
60
00
00
C0
C0
ENDCHAR
STARTCHAR quotedbl
ENCODING 34
SWIDTH 2600 0
DWIDTH 13 0
BBX 7 5 3 7
BITMAP
66
66
66
CC
CC
ENDCHAR
STARTCHAR numbersign
ENCODING 35
SWIDTH 1083 0
DWIDTH 13 0
BBX 14 12 1 0
BITMAP
0198
0330
0330
0FF8
0CC0
0CC0
0CC0
1980
7FC0
3300
6600
6600
ENDCHAR
STARTCHAR dollar
ENCODING 36
SWIDTH 867 0
DWIDTH 13 0
BBX 13 15 2 -2
BITMAP
00C0
0180
07F0
0C70
1860
1800
0C00
0F00
0180
00C0
6180
7180
7F00
1800
1800
ENDCHAR
STARTCHAR percent
ENCODING 37
SWIDTH 1083 0
DWIDTH 13 0
BBX 16 12 0 0
BITMAP
0780
198C
1998
19B0
1EC0
0180
0180
06F0
0D98
1998
6330
01E0
ENDCHAR
STARTCHAR ampersand
ENCODING 38
SWIDTH 1083 0
DWIDTH 13 0
BBX 15 12 1 0
BITMAP
03E0
0C60
0C00
0C00
0C00
1E00
1B00
6360
61E0
60C0
C3C0
7E60
ENDCHAR
STARTCHAR quoteright
ENCODING 39
SWIDTH 2600 0
DWIDTH 13 0
BBX 3 5 5 7
BITMAP
60
60
60
C0
C0
ENDCHAR
STARTCHAR parenleft
ENCODING 40
SWIDTH 867 0
DWIDTH 13 0
BBX 9 15 4 -3
BITMAP
0180
0600
0600
0C00
1800
1800
1800
3000
3000
3000
6000
6000
3000
6000
3000
ENDCHAR
STARTCHAR parenright
ENCODING 41
SWIDTH 867 0
DWIDTH 13 0
BBX 9 15 4 -3
BITMAP
0600
0600
0600
0300
0600
0600
0600
0C00
0C00
0C00
1800
1800
3000
6000
C000
ENDCHAR
STARTCHAR asterisk
ENCODING 42
SWIDTH 2167 0
DWIDTH 13 0
BBX 10 6 2 6
BITMAP
0600
6D80
3F00
1E00
3C00
6600
ENDCHAR
STARTCHAR plus
ENCODING 43
SWIDTH 1444 0
DWIDTH 13 0
BBX 13 9 1 1
BITMAP
0180
0300
0300
0300
7FE0
0600
0600
0C00
0C00
ENDCHAR
STARTCHAR comma
ENCODING 44
SWIDTH 4333 0
DWIDTH 13 0
BBX 4 3 4 -1
BITMAP
30
60
C0
ENDCHAR
STARTCHAR minus
ENCODING 45
SWIDTH 13000 0
DWIDTH 13 0
BBX 10 1 1 4
BITMAP
FFC0
ENDCHAR
STARTCHAR period
ENCODING 46
SWIDTH 6500 0
DWIDTH 13 0
BBX 2 2 5 0
BITMAP
C0
C0
ENDCHAR
STARTCHAR slash
ENCODING 47
SWIDTH 1182 0
DWIDTH 13 0
BBX 15 11 0 0
BITMAP
0006
000C
0018
0060
00C0
0180
0600
0C00
1800
6000
C000
ENDCHAR
STARTCHAR zero
ENCODING 48
SWIDTH 1083 0
DWIDTH 13 0
BBX 12 12 2 0
BITMAP
03C0
0CC0
1860
1860
30C0
30C0
30C0
6180
6180
6180
6600
3C00
ENDCHAR
STARTCHAR one
ENCODING 49
SWIDTH 1083 0
DWIDTH 13 0
BBX 12 12 2 0
BITMAP
0380
1F00
0300
0300
0600
0600
0600
0C00
0C00
0C00
1800
FF00
ENDCHAR
STARTCHAR two
ENCODING 50
SWIDTH 1083 0
DWIDTH 13 0
BBX 12 12 2 0
BITMAP
03C0
0CC0
1860
0060
00C0
0180
0300
0C00
1800
3180
C300
FF00
ENDCHAR
STARTCHAR three
ENCODING 51
SWIDTH 1083 0
DWIDTH 13 0
BBX 12 12 2 0
BITMAP
07C0
18C0
0060
0060
0180
0700
0180
0180
0180
0180
C600
7C00
ENDCHAR
STARTCHAR four
ENCODING 52
SWIDTH 1083 0
DWIDTH 13 0
BBX 12 12 2 0
BITMAP
0060
01C0
01C0
03C0
0D80
0D80
1980
6300
7F80
0300
0600
1F00
ENDCHAR
STARTCHAR five
ENCODING 53
SWIDTH 1083 0
DWIDTH 13 0
BBX 12 12 2 0
BITMAP
0FE0
1800
1800
1800
3F00
3180
00C0
0180
0180
0180
C600
7C00
ENDCHAR
STARTCHAR six
ENCODING 54
SWIDTH 1083 0
DWIDTH 13 0
BBX 12 12 2 0
BITMAP
00F0
0700
0C00
0C00
3000
3F00
3980
6180
6180
6180
6600
3C00
ENDCHAR
STARTCHAR seven
ENCODING 55
SWIDTH 1083 0
DWIDTH 13 0
BBX 12 12 2 0
BITMAP
0FF0
1860
1860
00C0
0180
0300
0300
0C00
0C00
1800
3000
3000
ENDCHAR
STARTCHAR eight
ENCODING 56
SWIDTH 1083 0
DWIDTH 13 0
BBX 12 12 2 0
BITMAP
03C0
0CC0
1860
1860
1980
0F00
1980
6180
6180
6180
6600
3C00
ENDCHAR
STARTCHAR nine
ENCODING 57
SWIDTH 1083 0
DWIDTH 13 0
BBX 12 12 2 0
BITMAP
03C0
0CC0
1860
1860
30C0
19C0
0FC0
0180
0300
0300
1C00
F000
ENDCHAR
STARTCHAR colon
ENCODING 58
SWIDTH 1444 0
DWIDTH 13 0
BBX 5 9 5 0
BITMAP
18
30
00
00
00
00
00
C0
C0
ENDCHAR
STARTCHAR semicolon
ENCODING 59
SWIDTH 1300 0
DWIDTH 13 0
BBX 6 10 4 -1
BITMAP
0C
0C
00
00
00
00
00
30
60
C0
ENDCHAR
STARTCHAR less
ENCODING 60
SWIDTH 1444 0
DWIDTH 13 0
BBX 9 9 3 1
BITMAP
0180
0600
0C00
1800
6000
3000
1800
1800
0C00
ENDCHAR
STARTCHAR equal
ENCODING 61
SWIDTH 2600 0
DWIDTH 13 0
BBX 11 5 1 3
BITMAP
7FE0
0000
0000
0000
FFC0
ENDCHAR
STARTCHAR greater
ENCODING 62
SWIDTH 1444 0
DWIDTH 13 0
BBX 9 9 3 1
BITMAP
1800
1800
0C00
0600
0600
0C00
1800
6000
C000
ENDCHAR
STARTCHAR question
ENCODING 63
SWIDTH 1083 0
DWIDTH 13 0
BBX 12 12 2 0
BITMAP
07E0
1860
1860
0060
0180
0300
0600
0C00
0000
0000
1800
1800
ENDCHAR
STARTCHAR at
ENCODING 64
SWIDTH 929 0
DWIDTH 13 0
BBX 14 14 1 -2
BITMAP
03F0
0618
0C0C
1818
19F8
1B18
3630
3630
3630
6C60
67E0
6000
6000
3F00
ENDCHAR
STARTCHAR A
ENCODING 65
SWIDTH 1083 0
DWIDTH 13 0
BBX 16 12 0 0
BITMAP
01E0
00C0
00C0
01E0
03C0
0660
0660
1860
1FE0
3030
6060
F0F0
ENDCHAR
STARTCHAR B
ENCODING 66
SWIDTH 1083 0
DWIDTH 13 0
BBX 16 12 0 0
BITMAP
0FF8
0618
060C
060C
0C30
0FF0
0C18
1818
1818
1818
3060
FFC0
ENDCHAR
STARTCHAR C
ENCODING 67
SWIDTH 1083 0
DWIDTH 13 0
BBX 15 12 1 0
BITMAP
01FE
0E1C
0C0C
1800
3000
3000
3000
6000
6000
3030
70E0
1F80
ENDCHAR
STARTCHAR D
ENCODING 68
SWIDTH 1083 0
DWIDTH 13 0
BBX 16 12 0 0
BITMAP
0FF8
061C
060C
0606
0C0C
0C0C
0C0C
1818
1818
1830
30E0
FF80
ENDCHAR
STARTCHAR E
ENCODING 69
SWIDTH 1083 0
DWIDTH 13 0
BBX 15 12 0 0
BITMAP
0FFE
060C
060C
0600
0C60
0FE0
0C60
1800
1800
1830
3060
FFE0
ENDCHAR
STARTCHAR F
ENCODING 70
SWIDTH 1083 0
DWIDTH 13 0
BBX 15 12 1 0
BITMAP
0FFE
060C
060C
0600
0C60
0FE0
0C60
1800
1800
1800
3000
FE00
ENDCHAR
STARTCHAR G
ENCODING 71
SWIDTH 1083 0
DWIDTH 13 0
BBX 16 12 0 0
BITMAP
01FE
0E1C
0C0C
1800
3000
3000
30FC
6030
6030
3030
70E0
1F80
ENDCHAR
STARTCHAR H
ENCODING 72
SWIDTH 1083 0
DWIDTH 13 0
BBX 16 12 0 0
BITMAP
0F0F
0C0C
0C0C
0C0C
1818
1FF8
1818
3030
3030
3030
6060
F0F0
ENDCHAR
STARTCHAR I
ENCODING 73
SWIDTH 1083 0
DWIDTH 13 0
BBX 12 12 2 0
BITMAP
0FF0
0300
0300
0300
0600
0600
0600
0C00
0C00
0C00
1800
FF00
ENDCHAR
STARTCHAR J
ENCODING 74
SWIDTH 1083 0
DWIDTH 13 0
BBX 14 12 1 0
BITMAP
01FC
0060
0060
0060
00C0
00C0
00C0
0180
0180
6180
C300
7E00
ENDCHAR
STARTCHAR K
ENCODING 75
SWIDTH 1083 0
DWIDTH 13 0
BBX 16 12 0 0
BITMAP
0F3E
0C30
0C60
0CC0
1B00
1E00
1F00
3300
3180
30C0
60C0
F070
ENDCHAR
STARTCHAR L
ENCODING 76
SWIDTH 1083 0
DWIDTH 13 0
BBX 15 12 0 0
BITMAP
0FE0
0600
0600
0600
0C00
0C00
0C00
1800
1800
1830
3060
FFE0
ENDCHAR
STARTCHAR M
ENCODING 77
SWIDTH 1083 0
DWIDTH 13 0
BBX 16 12 0 0
BITMAP
0E07
0E1C
0E1C
0F3C
1E78
1BD8
1BD8
3330
3330
3030
6060
F0F0
ENDCHAR
STARTCHAR N
ENCODING 78
SWIDTH 1083 0
DWIDTH 13 0
BBX 16 12 0 0
BITMAP
0E1F
0E0C
0E0C
0F0C
1B18
1998
1998
31B0
30F0
3070
60E0
F860
ENDCHAR
STARTCHAR O
ENCODING 79
SWIDTH 1083 0
DWIDTH 13 0
BBX 16 12 0 0
BITMAP
01F8
0E1C
0C0C
1806
300C
300C
300C
6018
6018
3030
70E0
1F80
ENDCHAR
STARTCHAR P
ENCODING 80
SWIDTH 1083 0
DWIDTH 13 0
BBX 15 12 0 0
BITMAP
0FF0
0618
060C
060C
0C18
0C30
0FE0
1800
1800
1800
3000
FE00
ENDCHAR
STARTCHAR Q
ENCODING 81
SWIDTH 867 0
DWIDTH 13 0
BBX 17 15 0 -3
BITMAP
00FC00
070E00
060600
0C0300
180600
180600
180600
300C00
300C00
181800
387000
0FC000
0C0000
3CC000
678000
ENDCHAR
STARTCHAR R
ENCODING 82
SWIDTH 1083 0
DWIDTH 13 0
BBX 16 12 0 0
BITMAP
0FF8
0618
060C
060C
0C18
0C30
0FE0
1980
18C0
1860
3060
FC30
ENDCHAR
STARTCHAR S
ENCODING 83
SWIDTH 1083 0
DWIDTH 13 0
BBX 14 12 1 0
BITMAP
03FC
0C38
1818
1800
1800
0F00
01C0
00C0
0060
6060
E180
FF00
ENDCHAR
STARTCHAR T
ENCODING 84
SWIDTH 1083 0
DWIDTH 13 0
BBX 16 12 0 0
BITMAP
0FFF
18C6
18C6
00C0
0180
0180
0180
0300
0300
0300
0600
1F80
ENDCHAR
STARTCHAR U
ENCODING 85
SWIDTH 1083 0
DWIDTH 13 0
BBX 16 12 0 0
BITMAP
0F0F
0C0C
0C0C
0C0C
1818
1818
1818
3030
3030
3030
30C0
1F80
ENDCHAR
STARTCHAR V
ENCODING 86
SWIDTH 1083 0
DWIDTH 13 0
BBX 16 12 0 0
BITMAP
0F0F
0C0C
0C0C
0618
0C30
0660
0660
0CC0
0780
0780
0600
0600
ENDCHAR
STARTCHAR W
ENCODING 87
SWIDTH 1083 0
DWIDTH 13 0
BBX 16 12 0 0
BITMAP
0E07
1806
1806
18C6
318C
1BD8
1BD8
3CF0
3CF0
1860
30C0
30C0
ENDCHAR
STARTCHAR X
ENCODING 88
SWIDTH 1083 0
DWIDTH 13 0
BBX 16 12 0 0
BITMAP
0F9F
0C0C
0618
0330
03C0
0180
0180
0780
0CC0
1860
6060
F9F0
ENDCHAR
STARTCHAR Y
ENCODING 89
SWIDTH 1083 0
DWIDTH 13 0
BBX 16 12 0 0
BITMAP
0F0F
0C0C
0C0C
0618
0660
03C0
0180
0300
0300
0300
0600
1F80
ENDCHAR
STARTCHAR Z
ENCODING 90
SWIDTH 1083 0
DWIDTH 13 0
BBX 14 12 1 0
BITMAP
0FFC
1818
1830
0060
0180
0300
0300
0C00
1800
3060
C0C0
FFC0
ENDCHAR
STARTCHAR bracketleft
ENCODING 91
SWIDTH 867 0
DWIDTH 13 0
BBX 10 15 4 -3
BITMAP
07C0
0C00
0C00
0C00
1800
1800
1800
3000
3000
3000
6000
6000
6000
C000
F800
ENDCHAR
STARTCHAR backslash
ENCODING 92
SWIDTH 1182 0
DWIDTH 13 0
BBX 15 11 0 0
BITMAP
1800
0C00
0600
0600
0300
0180
0180
00C0
0060
0060
0030
ENDCHAR
STARTCHAR bracketright
ENCODING 93
SWIDTH 867 0
DWIDTH 13 0
BBX 10 15 3 -3
BITMAP
07C0
0180
0180
0180
0300
0300
0300
0600
0600
0600
0C00
0C00
0C00
1800
F800
ENDCHAR
STARTCHAR asciicircum
ENCODING 94
SWIDTH 4333 0
DWIDTH 13 0
BBX 7 3 3 10
BITMAP
18
78
CC
ENDCHAR
STARTCHAR underscore
ENCODING 95
SWIDTH 13000 0
DWIDTH 13 0
BBX 13 1 -1 -2
BITMAP
FFF8
ENDCHAR
STARTCHAR quoteleft
ENCODING 96
SWIDTH 4333 0
DWIDTH 13 0
BBX 5 3 4 10
BITMAP
60
60
30
ENDCHAR
STARTCHAR a
ENCODING 97
SWIDTH 1444 0
DWIDTH 13 0
BBX 13 9 1 0
BITMAP
07E0
1860
0060
07E0
38C0
60C0
60C0
C180
7FC0
ENDCHAR
STARTCHAR b
ENCODING 98
SWIDTH 1000 0
DWIDTH 13 0
BBX 14 13 1 0
BITMAP
0E00
0600
0C00
0C00
0FE0
1C60
1830
1830
3060
3060
3060
7180
FF00
ENDCHAR
STARTCHAR c
ENCODING 99
SWIDTH 1444 0
DWIDTH 13 0
BBX 12 9 2 0
BITMAP
07F0
18E0
3060
3000
6000
6000
6000
6180
3F00
ENDCHAR
STARTCHAR d
ENCODING 100
SWIDTH 1000 0
DWIDTH 13 0
BBX 14 13 1 0
BITMAP
0038
0018
0030
0030
07F0
18E0
3060
3060
60C0
60C0
60C0
6380
3FC0
ENDCHAR
STARTCHAR e
ENCODING 101
SWIDTH 1444 0
DWIDTH 13 0
BBX 13 9 1 0
BITMAP
07E0
1860
3030
3030
7FE0
6000
6060
6180
3F00
ENDCHAR
STARTCHAR f
ENCODING 102
SWIDTH 1000 0
DWIDTH 13 0
BBX 11 13 3 0
BITMAP
01E0
0300
0600
0600
1FC0
0C00
0C00
0C00
1800
1800
1800
3000
FE00
ENDCHAR
STARTCHAR g
ENCODING 103
SWIDTH 1000 0
DWIDTH 13 0
BBX 14 13 1 -4
BITMAP
03FC
0638
1830
1830
1830
3060
3060
18E0
1FC0
00C0
00C0
0300
7E00
ENDCHAR
STARTCHAR h
ENCODING 104
SWIDTH 1000 0
DWIDTH 13 0
BBX 14 13 1 0
BITMAP
0E00
0600
0C00
0C00
0FE0
1C60
1860
1860
30C0
30C0
30C0
6180
F3C0
ENDCHAR
STARTCHAR i
ENCODING 105
SWIDTH 1000 0
DWIDTH 13 0
BBX 12 13 2 0
BITMAP
0180
0180
0000
0000
0F00
0600
0600
0600
0C00
0C00
0C00
1800
FF00
ENDCHAR
STARTCHAR j
ENCODING 106
SWIDTH 765 0
DWIDTH 13 0
BBX 11 17 2 -4
BITMAP
0060
0060
0000
0000
0FC0
00C0
0180
0180
0180
0300
0300
0300
0600
0600
0600
1800
F000
ENDCHAR
STARTCHAR k
ENCODING 107
SWIDTH 1000 0
DWIDTH 13 0
BBX 15 13 1 0
BITMAP
0E00
0600
0C00
0C00
0CF8
18C0
1980
1B00
3E00
3B00
3180
6180
E0E0
ENDCHAR
STARTCHAR l
ENCODING 108
SWIDTH 1000 0
DWIDTH 13 0
BBX 12 13 2 0
BITMAP
0780
0180
0300
0300
0300
0600
0600
0600
0C00
0C00
0C00
1800
FF00
ENDCHAR
STARTCHAR m
ENCODING 109
SWIDTH 1444 0
DWIDTH 13 0
BBX 15 9 0 0
BITMAP
1FB8
1DD8
1998
1998
3330
3330
3330
6660
F770
ENDCHAR
STARTCHAR n
ENCODING 110
SWIDTH 1444 0
DWIDTH 13 0
BBX 13 9 1 0
BITMAP
1FE0
1C60
1860
1860
30C0
30C0
30C0
6180
F3C0
ENDCHAR
STARTCHAR o
ENCODING 111
SWIDTH 1444 0
DWIDTH 13 0
BBX 13 9 1 0
BITMAP
07E0
1860
3030
3030
6060
6060
6060
6180
3F00
ENDCHAR
STARTCHAR p
ENCODING 112
SWIDTH 1000 0
DWIDTH 13 0
BBX 14 13 1 -4
BITMAP
0FF0
0718
0C18
0C18
0C18
1830
1830
1C60
3F80
3000
3000
6000
F800
ENDCHAR
STARTCHAR q
ENCODING 113
SWIDTH 1000 0
DWIDTH 13 0
BBX 14 13 1 -4
BITMAP
03FC
0638
1830
1830
1830
3060
3060
18E0
1FC0
00C0
00C0
0180
07C0
ENDCHAR
STARTCHAR r
ENCODING 114
SWIDTH 1444 0
DWIDTH 13 0
BBX 13 9 1 0
BITMAP
1FF0
0E30
0C00
0C00
1800
1800
1800
3000
FE00
ENDCHAR
STARTCHAR s
ENCODING 115
SWIDTH 1444 0
DWIDTH 13 0
BBX 13 9 1 0
BITMAP
07F8
1870
3030
1800
1F80
00C0
6060
E180
FF00
ENDCHAR
STARTCHAR t
ENCODING 116
SWIDTH 1083 0
DWIDTH 13 0
BBX 12 12 2 0
BITMAP
0300
0600
0600
1FE0
0C00
0C00
0C00
1800
1800
1980
3300
1E00
ENDCHAR
STARTCHAR u
ENCODING 117
SWIDTH 1444 0
DWIDTH 13 0
BBX 13 9 1 0
BITMAP
1C70
1860
1860
1860
30C0
30C0
30C0
6380
3FC0
ENDCHAR
STARTCHAR v
ENCODING 118
SWIDTH 1444 0
DWIDTH 13 0
BBX 15 9 0 0
BITMAP
1E1E
1818
0C30
0C30
0CC0
0CC0
0780
0F00
0600
ENDCHAR
STARTCHAR w
ENCODING 119
SWIDTH 1444 0
DWIDTH 13 0
BBX 15 9 0 0
BITMAP
1E1E
1818
1998
1998
1FE0
1FE0
0CC0
1980
1980
ENDCHAR
STARTCHAR x
ENCODING 120
SWIDTH 1444 0
DWIDTH 13 0
BBX 15 9 0 0
BITMAP
1F3E
0C30
0660
03C0
0300
0780
0CC0
30C0
F9F0
ENDCHAR
STARTCHAR y
ENCODING 121
SWIDTH 1000 0
DWIDTH 13 0
BBX 16 13 0 -4
BITMAP
0F0F
0606
0618
0618
0330
0660
03C0
03C0
0300
0300
0600
0C00
3E00
ENDCHAR
STARTCHAR z
ENCODING 122
SWIDTH 1444 0
DWIDTH 13 0
BBX 13 9 1 0
BITMAP
1FF8
3060
30C0
0180
0600
0C00
1860
60C0
FFC0
ENDCHAR
STARTCHAR braceleft
ENCODING 123
SWIDTH 867 0
DWIDTH 13 0
BBX 11 15 3 -3
BITMAP
00E0
0300
0300
0300
0600
0600
0600
3800
0C00
0C00
1800
1800
1800
3000
1C00
ENDCHAR
STARTCHAR bar
ENCODING 124
SWIDTH 813 0
DWIDTH 13 0
BBX 7 16 5 -4
BITMAP
06
06
0C
0C
0C
18
18
18
30
30
30
60
60
60
C0
C0
ENDCHAR
STARTCHAR braceright
ENCODING 125
SWIDTH 867 0
DWIDTH 13 0
BBX 11 15 3 -3
BITMAP
0700
0300
0300
0300
0600
0600
0600
0700
0C00
0C00
1800
1800
1800
3000
E000
ENDCHAR
STARTCHAR asciitilde
ENCODING 126
SWIDTH 4333 0
DWIDTH 13 0
BBX 11 3 1 10
BITMAP
3C60
CCC0
C780
ENDCHAR
STARTCHAR nbsp
ENCODING 154
SWIDTH 684 0
DWIDTH 13 0
BBX 0 0 -1 0
BITMAP
ENDCHAR
STARTCHAR degree
ENCODING 156
SWIDTH 2600 0
DWIDTH 13 0
BBX 7 5 3 8
BITMAP
3C
66
66
CC
78
ENDCHAR
STARTCHAR twosuperior
ENCODING 157
SWIDTH 2167 0
DWIDTH 13 0
BBX 8 6 3 7
BITMAP
1E
66
06
3C
C0
FC
ENDCHAR
STARTCHAR cyr-yo
ENCODING 163
SWIDTH 1182 0
DWIDTH 13 0
BBX 13 11 1 0
BITMAP
0E70
0000
07E0
1860
3030
3030
7FE0
6000
6060
6180
3F00
ENDCHAR
STARTCHAR cyr-Yo
ENCODING 179
SWIDTH 929 0
DWIDTH 13 0
BBX 15 14 0 0
BITMAP
071C
0000
0FFE
060C
060C
0600
0C60
0FE0
0C60
1800
1800
1830
3060
FFE0
ENDCHAR
STARTCHAR copyright
ENCODING 191
SWIDTH 1000 0
DWIDTH 13 0
BBX 16 13 0 -1
BITMAP
03FC
0606
1806
19F6
1B1E
360C
360C
360C
6C78
67D8
6018
6060
3FC0
ENDCHAR
STARTCHAR cyr-yu
ENCODING 192
SWIDTH 1444 0
DWIDTH 13 0
BBX 15 9 0 0
BITMAP
1E78
1998
1B0C
1B0C
3E18
3618
3618
6660
F3C0
ENDCHAR
STARTCHAR cyr-a
ENCODING 193
SWIDTH 1444 0
DWIDTH 13 0
BBX 13 9 1 0
BITMAP
07E0
1860
0060
07E0
38C0
60C0
60C0
C180
7FC0
ENDCHAR
STARTCHAR cyr-be
ENCODING 194
SWIDTH 1000 0
DWIDTH 13 0
BBX 14 13 1 0
BITMAP
001C
03F0
0C00
1800
1FE0
3860
3030
3030
6060
6060
6060
6180
3F00
ENDCHAR
STARTCHAR cyr-tse
ENCODING 195
SWIDTH 1182 0
DWIDTH 13 0
BBX 14 11 1 -2
BITMAP
1E78
0C30
0C30
1860
1860
1860
30C0
30C0
7FF0
0060
0060
ENDCHAR
STARTCHAR cyr-de
ENCODING 196
SWIDTH 1182 0
DWIDTH 13 0
BBX 14 11 0 -2
BITMAP
0FFC
0618
0618
0C30
0C30
0C30
1860
3060
7FF0
C060
C060
ENDCHAR
STARTCHAR cyr-ie
ENCODING 197
SWIDTH 1444 0
DWIDTH 13 0
BBX 13 9 1 0
BITMAP
07E0
1860
3030
3030
7FE0
6000
6060
6180
3F00
ENDCHAR
STARTCHAR cyr-ef
ENCODING 198
SWIDTH 867 0
DWIDTH 13 0
BBX 15 15 1 -4
BITMAP
00F0
00C0
03F0
06D8
1998
1998
1998
3330
3330
1B60
1F80
0600
0600
0C00
1E00
ENDCHAR
STARTCHAR cyr-ghe
ENCODING 199
SWIDTH 1444 0
DWIDTH 13 0
BBX 13 9 1 0
BITMAP
1FF8
0C30
0C30
0C00
1800
1800
1800
3000
FC00
ENDCHAR
STARTCHAR cyr-kha
ENCODING 200
SWIDTH 1444 0
DWIDTH 13 0
BBX 13 9 1 0
BITMAP
1E78
1860
0CC0
0780
0600
0F00
1980
6180
F3C0
ENDCHAR
STARTCHAR cyr-i
ENCODING 201
SWIDTH 1444 0
DWIDTH 13 0
BBX 13 9 1 0
BITMAP
1E78
1860
18E0
19E0
36C0
3CC0
38C0
6180
F3C0
ENDCHAR
STARTCHAR cyr-i-short
ENCODING 202
SWIDTH 1083 0
DWIDTH 13 0
BBX 14 12 1 0
BITMAP
0330
03C0
0000
1E78
1860
18E0
19E0
36C0
3CC0
38C0
6180
F3C0
ENDCHAR
STARTCHAR cyr-ka
ENCODING 203
SWIDTH 1444 0
DWIDTH 13 0
BBX 14 9 1 0
BITMAP
1E78
18C0
1980
1B00
3E00
3B00
3180
6180
F0E0
ENDCHAR
STARTCHAR cyr-el
ENCODING 204
SWIDTH 1444 0
DWIDTH 13 0
BBX 14 9 0 0
BITMAP
07FC
0630
0630
0630
0C60
0C60
0C60
D8C0
71E0
ENDCHAR
STARTCHAR cyr-em
ENCODING 205
SWIDTH 1444 0
DWIDTH 13 0
BBX 15 9 0 0
BITMAP
1C0E
1C38
1E78
1BD8
3330
3330
3030
6060
F0F0
ENDCHAR
STARTCHAR cyr-en
ENCODING 206
SWIDTH 1444 0
DWIDTH 13 0
BBX 13 9 1 0
BITMAP
1E78
1860
1860
1860
3FC0
30C0
30C0
6180
F3C0
ENDCHAR
STARTCHAR cyr-o
ENCODING 207
SWIDTH 1444 0
DWIDTH 13 0
BBX 13 9 1 0
BITMAP
07E0
1860
3030
3030
6060
6060
6060
6180
3F00
ENDCHAR
STARTCHAR cyr-pe
ENCODING 208
SWIDTH 1444 0
DWIDTH 13 0
BBX 13 9 1 0
BITMAP
1FF8
1860
1860
1860
30C0
30C0
30C0
6180
F3C0
ENDCHAR
STARTCHAR cyr-ya
ENCODING 209
SWIDTH 1444 0
DWIDTH 13 0
BBX 14 9 0 0
BITMAP
07FC
1830
1830
1830
1FE0
0660
0C60
30C0
E3E0
ENDCHAR
STARTCHAR cyr-er
ENCODING 210
SWIDTH 1000 0
DWIDTH 13 0
BBX 14 13 1 -4
BITMAP
0FF0
0718
0C18
0C18
0C18
1830
1830
1C60
3F80
3000
3000
6000
F800
ENDCHAR
STARTCHAR cyr-es
ENCODING 211
SWIDTH 1444 0
DWIDTH 13 0
BBX 12 9 2 0
BITMAP
07F0
18E0
3060
3000
6000
6000
6000
6180
3F00
ENDCHAR
STARTCHAR cyr-te
ENCODING 212
SWIDTH 1444 0
DWIDTH 13 0
BBX 13 9 1 0
BITMAP
1FF8
3330
0300
0300
0600
0600
0600
0C00
3F00
ENDCHAR
STARTCHAR cyr-u
ENCODING 213
SWIDTH 1000 0
DWIDTH 13 0
BBX 16 13 0 -4
BITMAP
0F0F
0606
060C
0618
0318
0660
0360
03C0
0380
0300
0300
6C00
3800
ENDCHAR
STARTCHAR cyr-zhe
ENCODING 214
SWIDTH 1444 0
DWIDTH 13 0
BBX 15 9 0 0
BITMAP
0FFC
0DB0
0DB0
07E0
0780
0FC0
1B60
6660
EF70
ENDCHAR
STARTCHAR cyr-ve
ENCODING 215
SWIDTH 1444 0
DWIDTH 13 0
BBX 13 9 1 0
BITMAP
1FE0
1860
1860
1860
3FC0
3060
3060
60C0
FF80
ENDCHAR
STARTCHAR cyr-ierik
ENCODING 216
SWIDTH 1444 0
DWIDTH 13 0
BBX 13 9 1 0
BITMAP
1E00
1800
1800
1FC0
30C0
3060
3060
6180
FF00
ENDCHAR
STARTCHAR cyr-iery
ENCODING 217
SWIDTH 1444 0
DWIDTH 13 0
BBX 15 9 0 0
BITMAP
1E1E
1818
1818
1F98
31B0
30F0
30F0
6360
FEF0
ENDCHAR
STARTCHAR cyr-z
ENCODING 218
SWIDTH 1444 0
DWIDTH 13 0
BBX 13 9 1 0
BITMAP
1FE0
3860
3030
0060
0F80
00C0
0060
E180
3F00
ENDCHAR
STARTCHAR cyr-sha
ENCODING 219
SWIDTH 1444 0
DWIDTH 13 0
BBX 15 9 0 0
BITMAP
1FFE
1998
1998
1998
3330
3330
3330
6660
FFF0
ENDCHAR
STARTCHAR cyr-e-rev
ENCODING 220
SWIDTH 1444 0
DWIDTH 13 0
BBX 13 9 1 0
BITMAP
07E0
1860
3030
0030
0FE0
0060
6060
6180
3F00
ENDCHAR
STARTCHAR cyr-shcha
ENCODING 221
SWIDTH 1182 0
DWIDTH 13 0
BBX 15 11 0 -2
BITMAP
1FFE
0CCC
0CCC
1998
1998
1998
3330
3330
7FF8
0030
0030
ENDCHAR
STARTCHAR cyr-che
ENCODING 222
SWIDTH 1444 0
DWIDTH 13 0
BBX 13 9 1 0
BITMAP
1E78
1860
1860
1860
31C0
1FC0
00C0
0180
03C0
ENDCHAR
STARTCHAR cyr-ier
ENCODING 223
SWIDTH 1444 0
DWIDTH 13 0
BBX 15 9 0 0
BITMAP
1F80
3600
3600
07F0
0C30
0C18
0C18
1860
7FC0
ENDCHAR
STARTCHAR cyr-Yu
ENCODING 224
SWIDTH 1083 0
DWIDTH 13 0
BBX 16 12 0 0
BITMAP
0F3C
0CCC
0D86
0D86
1B0C
1F0C
1B0C
3618
3618
3618
6660
F3C0
ENDCHAR
STARTCHAR cyr-A
ENCODING 225
SWIDTH 1083 0
DWIDTH 13 0
BBX 16 12 0 0
BITMAP
0060
00C0
00C0
01E0
03C0
0660
0660
1FE0
1860
3030
6060
F0F0
ENDCHAR
STARTCHAR cyr-Be
ENCODING 226
SWIDTH 1083 0
DWIDTH 13 0
BBX 16 12 0 0
BITMAP
0FFE
060C
0600
0600
0C00
0FF0
0C18
1818
1818
1818
3060
FFC0
ENDCHAR
STARTCHAR cyr-Tse
ENCODING 227
SWIDTH 929 0
DWIDTH 13 0
BBX 16 14 0 -2
BITMAP
0F9F
0606
0606
0C0C
0C0C
0C0C
1818
1818
1818
3030
3030
7FF8
0030
0030
ENDCHAR
STARTCHAR cyr-De
ENCODING 228
SWIDTH 929 0
DWIDTH 13 0
BBX 16 14 0 -2
BITMAP
07FF
0306
0306
060C
060C
060C
0C18
0C18
0C18
1830
3030
7FF8
C030
C030
ENDCHAR
STARTCHAR cyr-Ie
ENCODING 229
SWIDTH 1083 0
DWIDTH 13 0
BBX 15 12 0 0
BITMAP
0FFE
060C
060C
0600
0C60
0FE0
0C60
1800
1800
1830
3060
FFE0
ENDCHAR
STARTCHAR cyr-Ef
ENCODING 230
SWIDTH 929 0
DWIDTH 13 0
BBX 16 14 0 0
BITMAP
00F0
0060
01F8
0EDC
0CCC
18C6
318C
318C
318C
3330
3B70
0FC0
0600
0F00
ENDCHAR
STARTCHAR cyr-Ghe
ENCODING 231
SWIDTH 1083 0
DWIDTH 13 0
BBX 15 12 0 0
BITMAP
0FFE
060C
060C
0600
0C00
0C00
0C00
1800
1800
1800
3000
FE00
ENDCHAR
STARTCHAR cyr-Kha
ENCODING 232
SWIDTH 1083 0
DWIDTH 13 0
BBX 16 12 0 0
BITMAP
0F9F
0C0C
0618
0330
03C0
0180
0180
0780
0CC0
1860
6060
F9F0
ENDCHAR
STARTCHAR cyr-I
ENCODING 233
SWIDTH 1083 0
DWIDTH 13 0
BBX 16 12 0 0
BITMAP
0F0F
0C0C
0C0C
0C1C
1878
18D8
1998
3630
3C30
3830
6060
F0F0
ENDCHAR
STARTCHAR cyr-I-short
ENCODING 234
SWIDTH 929 0
DWIDTH 13 0
BBX 16 14 0 0
BITMAP
0198
00F0
0F0F
0C0C
0C0C
0C1C
1878
18D8
1998
3630
3C30
3830
6060
F0F0
ENDCHAR
STARTCHAR cyr-Ka
ENCODING 235
SWIDTH 1083 0
DWIDTH 13 0
BBX 16 12 0 0
BITMAP
0F3E
0C30
0C60
0CC0
1B00
1E00
1F00
3300
3180
30C0
60C0
F070
ENDCHAR
STARTCHAR cyr-El
ENCODING 236
SWIDTH 1083 0
DWIDTH 13 0
BBX 16 12 0 0
BITMAP
03FF
030C
030C
030C
0618
0618
0618
0C30
0C30
0C30
D860
71F0
ENDCHAR
STARTCHAR cyr-Em
ENCODING 237
SWIDTH 1083 0
DWIDTH 13 0
BBX 16 12 0 0
BITMAP
0E07
0E1C
0E1C
0F3C
1E78
1BD8
1BD8
3330
3330
3030
6060
F0F0
ENDCHAR
STARTCHAR cyr-En
ENCODING 238
SWIDTH 1083 0
DWIDTH 13 0
BBX 16 12 0 0
BITMAP
0F0F
0C0C
0C0C
0C0C
1818
1FF8
1818
3030
3030
3030
6060
F0F0
ENDCHAR
STARTCHAR cyr-O
ENCODING 239
SWIDTH 1083 0
DWIDTH 13 0
BBX 16 12 0 0
BITMAP
01F8
0E1C
0C0C
1806
300C
300C
300C
6018
6018
3030
70E0
1F80
ENDCHAR
STARTCHAR cyr-Pe
ENCODING 240
SWIDTH 1083 0
DWIDTH 13 0
BBX 16 12 0 0
BITMAP
0FFF
0C0C
0C0C
0C0C
1818
1818
1818
3030
3030
3030
6060
F0F0
ENDCHAR
STARTCHAR cyr-Ya
ENCODING 241
SWIDTH 1083 0
DWIDTH 13 0
BBX 15 12 0 0
BITMAP
01FE
0618
0C18
0C18
1830
0C30
07F0
0660
0C60
0C60
30C0
E3E0
ENDCHAR
STARTCHAR cyr-Er
ENCODING 242
SWIDTH 1083 0
DWIDTH 13 0
BBX 15 12 0 0
BITMAP
0FF8
0618
060C
060C
0C18
0C30
0FE0
1800
1800
1800
3000
FE00
ENDCHAR
STARTCHAR cyr-Es
ENCODING 243
SWIDTH 1083 0
DWIDTH 13 0
BBX 15 12 1 0
BITMAP
01FE
0E1C
0C0C
1800
3000
3000
3000
6000
6000
3030
70E0
1F80
ENDCHAR
STARTCHAR cyr-Te
ENCODING 244
SWIDTH 1083 0
DWIDTH 13 0
BBX 16 12 0 0
BITMAP
0FFF
18C6
18C6
00C0
0180
0180
0180
0300
0300
0300
0600
1F80
ENDCHAR
STARTCHAR cyr-U
ENCODING 245
SWIDTH 1083 0
DWIDTH 13 0
BBX 16 12 0 0
BITMAP
0F0F
0C0C
0618
0618
0660
0660
03C0
0780
0300
0300
6C00
3800
ENDCHAR
STARTCHAR cyr-Zhe
ENCODING 246
SWIDTH 1083 0
DWIDTH 13 0
BBX 16 12 0 0
BITMAP
0EF7
0CCC
0CCC
06D8
07E0
03C0
07E0
1B60
1B60
3330
6660
EF70
ENDCHAR
STARTCHAR cyr-Ve
ENCODING 247
SWIDTH 1083 0
DWIDTH 13 0
BBX 16 12 0 0
BITMAP
0FF8
0618
060C
060C
0C30
0FF0
0C18
1818
1818
1818
3060
FFC0
ENDCHAR
STARTCHAR cyr-Ierik
ENCODING 248
SWIDTH 1083 0
DWIDTH 13 0
BBX 15 12 1 0
BITMAP
0F00
0C00
0C00
0C00
1800
1FE0
1830
3030
3030
3030
60C0
FF80
ENDCHAR
STARTCHAR cyr-Iery
ENCODING 249
SWIDTH 1083 0
DWIDTH 13 0
BBX 16 12 0 0
BITMAP
0F0F
0C0C
0C0C
0C0C
1818
1F98
18D8
30F0
30F0
30F0
6360
FEF0
ENDCHAR
STARTCHAR cyr-Ze
ENCODING 250
SWIDTH 1083 0
DWIDTH 13 0
BBX 14 12 1 0
BITMAP
0FE0
1C60
1830
0030
00C0
07C0
0060
0060
0060
6060
E180
FF00
ENDCHAR
STARTCHAR cyr-Sha
ENCODING 251
SWIDTH 1083 0
DWIDTH 13 0
BBX 16 12 0 0
BITMAP
0FFF
0CCC
0CCC
0CCC
1998
1998
1998
3330
3330
3330
6660
FFF0
ENDCHAR
STARTCHAR cyr-E-rev
ENCODING 252
SWIDTH 1083 0
DWIDTH 13 0
BBX 15 12 1 0
BITMAP
03F0
1C38
1818
000C
0018
0FF8
0018
0030
0030
6060
E1C0
3F00
ENDCHAR
STARTCHAR cyr-Shcha
ENCODING 253
SWIDTH 929 0
DWIDTH 13 0
BBX 16 14 0 -2
BITMAP
0FFF
0666
0666
0CCC
0CCC
0CCC
1998
1998
1998
3330
3330
7FF8
0030
0030
ENDCHAR
STARTCHAR cyr-Che
ENCODING 254
SWIDTH 1083 0
DWIDTH 13 0
BBX 15 12 0 0
BITMAP
0FBE
0C18
0C18
0C18
1830
1870
18F0
1F60
0060
0060
00C0
03E0
ENDCHAR
STARTCHAR cyr-Ier
ENCODING 255
SWIDTH 1083 0
DWIDTH 13 0
BBX 16 12 0 0
BITMAP
0FC0
1B00
1B00
0300
0600
07F0
0618
0C18
0C18
0C18
1860
7FC0
ENDCHAR
ENDFONT
