STARTFONT 2.1
COMMENT Copyright (C) 1990-1991 EWT Consulting
COMMENT Portions Copyright (C) 1994-1995 Cronyx Ltd.
COMMENT Changes Copyright (C) 1996-1997 by Andrey A. Chernov, Moscow, Russia.
COMMENT Modified by Serge Vakulenko, <vak@cronyx.ru>
COMMENT This software may be used, modified, copied, distributed, and sold,
COMMENT in both source and binary form provided that the copyright
COMMENT and these terms are retained. Under no circumstances is the author
COMMENT responsible for the proper functioning of this software, nor does
COMMENT the author assume any responsibility for damages incurred with its use.
COMMENT $XFree86: xc/fonts/bdf/cyrillic/crox1hbo.bdf,v 3.2.4.1 1998/02/01 16:03:27 robin Exp $
FONT -Cronyx-Helvetica-Bold-O-Normal--11-80-100-100-P-46-KOI8-R
SIZE 8 96 96
FONTBOUNDINGBOX 16 13 -1 -2
STARTPROPERTIES 20
DEFAULT_CHAR 32
FONT_ASCENT 11
FONT_DESCENT 2
SPACING "P"
FONTNAME_REGISTRY ""
FOUNDRY "Cronyx"
FAMILY_NAME "Helvetica"
WEIGHT_NAME "Bold"
SLANT "O"
SETWIDTH_NAME "Normal"
ADD_STYLE_NAME ""
AVERAGE_WIDTH 46
CHARSET_REGISTRY "KOI8"
CHARSET_ENCODING "R"
PIXEL_SIZE 11
POINT_SIZE 80
RESOLUTION_X 100
RESOLUTION_Y 100
COPYRIGHT "Copyright (C) 1990, 1991 EWT Consulting, Portions Copyright (C) 1994 Cronyx Ltd., Portions Copyright (C) 1996-1997 by Andrey A. Chernov, Moscow, Russia."
_XMBDFED_INFO "Edited with xmbdfed 2.7."
ENDPROPERTIES
CHARS 165
STARTCHAR space
ENCODING 32
SWIDTH 364 0
DWIDTH 4 0
BBX 0 0 -1 0
BITMAP
ENDCHAR
STARTCHAR exclam
ENCODING 33
SWIDTH 444 0
DWIDTH 4 0
BBX 5 9 0 0
BITMAP
18
30
30
30
60
60
60
00
C0
ENDCHAR
STARTCHAR quotedbl
ENCODING 34
SWIDTH 1667 0
DWIDTH 5 0
BBX 5 3 0 6
BITMAP
78
F0
F0
ENDCHAR
STARTCHAR numbersign
ENCODING 35
SWIDTH 778 0
DWIDTH 7 0
BBX 9 9 0 0
BITMAP
0F00
1E00
3F00
1E00
3C00
3C00
7E00
7800
7800
ENDCHAR
STARTCHAR dollar
ENCODING 36
SWIDTH 700 0
DWIDTH 7 0
BBX 9 10 0 -1
BITMAP
0600
0F00
3F00
3C00
1C00
1C00
1E00
7E00
7800
3000
ENDCHAR
STARTCHAR percent
ENCODING 37
SWIDTH 1000 0
DWIDTH 9 0
BBX 11 9 0 0
BITMAP
0E00
36C0
1D80
0300
0C00
1800
3700
DB00
0E00
ENDCHAR
STARTCHAR ampersand
ENCODING 38
SWIDTH 778 0
DWIDTH 7 0
BBX 9 9 0 0
BITMAP
0C00
3C00
3C00
1800
3000
7E00
6C00
D800
7C00
ENDCHAR
STARTCHAR quoteright
ENCODING 39
SWIDTH 1000 0
DWIDTH 3 0
BBX 3 3 0 6
BITMAP
60
C0
C0
ENDCHAR
STARTCHAR parenleft
ENCODING 40
SWIDTH 364 0
DWIDTH 4 0
BBX 6 11 0 -2
BITMAP
0C
18
18
30
30
30
60
60
60
C0
60
ENDCHAR
STARTCHAR parenright
ENCODING 41
SWIDTH 364 0
DWIDTH 4 0
BBX 6 11 0 -2
BITMAP
18
0C
0C
18
18
18
30
30
30
60
C0
ENDCHAR
STARTCHAR asterisk
ENCODING 42
SWIDTH 1667 0
DWIDTH 5 0
BBX 5 3 0 5
BITMAP
78
60
F0
ENDCHAR
STARTCHAR plus
ENCODING 43
SWIDTH 1400 0
DWIDTH 7 0
BBX 7 5 0 1
BITMAP
18
18
7E
30
30
ENDCHAR
STARTCHAR comma
ENCODING 44
SWIDTH 2000 0
DWIDTH 4 0
BBX 3 2 0 -1
BITMAP
60
C0
ENDCHAR
STARTCHAR minus
ENCODING 45
SWIDTH 4000 0
DWIDTH 4 0
BBX 3 1 0 3
BITMAP
E0
ENDCHAR
STARTCHAR period
ENCODING 46
SWIDTH 4000 0
DWIDTH 4 0
BBX 2 1 0 0
BITMAP
C0
ENDCHAR
STARTCHAR slash
ENCODING 47
SWIDTH 444 0
DWIDTH 4 0
BBX 6 9 0 0
BITMAP
0C
18
18
18
30
60
60
C0
C0
ENDCHAR
STARTCHAR zero
ENCODING 48
SWIDTH 778 0
DWIDTH 7 0
BBX 9 9 0 0
BITMAP
0F00
3300
3300
3300
6600
6600
6600
CC00
7800
ENDCHAR
STARTCHAR one
ENCODING 49
SWIDTH 778 0
DWIDTH 7 0
BBX 7 9 0 0
BITMAP
06
3C
0C
0C
18
18
18
30
30
ENDCHAR
STARTCHAR two
ENCODING 50
SWIDTH 778 0
DWIDTH 7 0
BBX 9 9 0 0
BITMAP
0F00
3300
0300
0300
0C00
1800
3000
C000
FC00
ENDCHAR
STARTCHAR three
ENCODING 51
SWIDTH 778 0
DWIDTH 7 0
BBX 9 9 0 0
BITMAP
0F00
3300
0300
0300
1C00
0600
0600
CC00
7800
ENDCHAR
STARTCHAR four
ENCODING 52
SWIDTH 778 0
DWIDTH 7 0
BBX 9 9 0 0
BITMAP
0300
0E00
0E00
1E00
3C00
6C00
7E00
1800
1800
ENDCHAR
STARTCHAR five
ENCODING 53
SWIDTH 778 0
DWIDTH 7 0
BBX 9 9 0 0
BITMAP
1F80
3000
3000
3E00
6600
0600
0600
CC00
7800
ENDCHAR
STARTCHAR six
ENCODING 54
SWIDTH 778 0
DWIDTH 7 0
BBX 9 9 0 0
BITMAP
0F00
3300
3000
3000
7C00
6600
6600
CC00
7800
ENDCHAR
STARTCHAR seven
ENCODING 55
SWIDTH 778 0
DWIDTH 7 0
BBX 9 9 0 0
BITMAP
1F80
0300
0600
0600
1800
1800
3000
6000
6000
ENDCHAR
STARTCHAR eight
ENCODING 56
SWIDTH 778 0
DWIDTH 7 0
BBX 9 9 0 0
BITMAP
0F00
3300
3300
3300
3C00
6600
6600
CC00
7800
ENDCHAR
STARTCHAR nine
ENCODING 57
SWIDTH 778 0
DWIDTH 7 0
BBX 9 9 0 0
BITMAP
0F00
3300
3300
3300
3E00
0600
0600
CC00
7800
ENDCHAR
STARTCHAR colon
ENCODING 58
SWIDTH 667 0
DWIDTH 4 0
BBX 4 6 0 0
BITMAP
30
00
00
00
00
C0
ENDCHAR
STARTCHAR semicolon
ENCODING 59
SWIDTH 571 0
DWIDTH 4 0
BBX 5 7 0 -1
BITMAP
18
00
00
00
00
60
C0
ENDCHAR
STARTCHAR less
ENCODING 60
SWIDTH 1000 0
DWIDTH 7 0
BBX 7 7 0 0
BITMAP
06
0C
30
60
30
30
18
ENDCHAR
STARTCHAR equal
ENCODING 61
SWIDTH 2333 0
DWIDTH 7 0
BBX 7 3 0 2
BITMAP
7E
00
FC
ENDCHAR
STARTCHAR greater
ENCODING 62
SWIDTH 1000 0
DWIDTH 7 0
BBX 7 7 0 0
BITMAP
30
18
18
0C
18
60
C0
ENDCHAR
STARTCHAR question
ENCODING 63
SWIDTH 778 0
DWIDTH 7 0
BBX 9 9 0 0
BITMAP
0F00
3300
0300
0300
0C00
1800
1800
0000
3000
ENDCHAR
STARTCHAR at
ENCODING 64
SWIDTH 1200 0
DWIDTH 12 0
BBX 14 10 0 -1
BITMAP
03E0
0E38
1830
33D8
36D8
6DB0
67F0
3000
7000
1F80
ENDCHAR
STARTCHAR A
ENCODING 65
SWIDTH 889 0
DWIDTH 8 0
BBX 11 9 -1 0
BITMAP
0300
0600
0F00
0F00
3300
3300
3F00
C300
C300
ENDCHAR
STARTCHAR B
ENCODING 66
SWIDTH 889 0
DWIDTH 8 0
BBX 9 9 0 0
BITMAP
1F00
3300
3300
3300
7C00
6600
6600
CC00
F800
ENDCHAR
STARTCHAR C
ENCODING 67
SWIDTH 889 0
DWIDTH 8 0
BBX 10 9 0 0
BITMAP
0F80
3180
3000
3000
6000
6000
6000
C600
7C00
ENDCHAR
STARTCHAR D
ENCODING 68
SWIDTH 1000 0
DWIDTH 9 0
BBX 10 9 0 0
BITMAP
1F00
3300
3180
3180
6300
6300
6300
CC00
F800
ENDCHAR
STARTCHAR E
ENCODING 69
SWIDTH 889 0
DWIDTH 8 0
BBX 9 9 0 0
BITMAP
1F80
3000
3000
3000
7C00
6000
6000
C000
FC00
ENDCHAR
STARTCHAR F
ENCODING 70
SWIDTH 778 0
DWIDTH 7 0
BBX 9 9 0 0
BITMAP
1F80
3000
3000
3000
7C00
6000
6000
C000
C000
ENDCHAR
STARTCHAR G
ENCODING 71
SWIDTH 1000 0
DWIDTH 9 0
BBX 10 9 0 0
BITMAP
0F80
3180
3000
3000
6F00
6300
6300
CE00
7E00
ENDCHAR
STARTCHAR H
ENCODING 72
SWIDTH 1000 0
DWIDTH 9 0
BBX 10 9 0 0
BITMAP
18C0
3180
3180
3180
7F00
6300
6300
C600
C600
ENDCHAR
STARTCHAR I
ENCODING 73
SWIDTH 444 0
DWIDTH 4 0
BBX 5 9 0 0
BITMAP
18
30
30
30
60
60
60
C0
C0
ENDCHAR
STARTCHAR J
ENCODING 74
SWIDTH 667 0
DWIDTH 6 0
BBX 8 9 -1 0
BITMAP
03
06
06
06
0C
0C
6C
D8
70
ENDCHAR
STARTCHAR K
ENCODING 75
SWIDTH 889 0
DWIDTH 8 0
BBX 10 9 0 0
BITMAP
1980
3600
3C00
3800
7000
7800
6C00
CC00
C600
ENDCHAR
STARTCHAR L
ENCODING 76
SWIDTH 778 0
DWIDTH 7 0
BBX 9 9 0 0
BITMAP
1800
3000
3000
3000
6000
6000
6000
C000
FC00
ENDCHAR
STARTCHAR M
ENCODING 77
SWIDTH 1111 0
DWIDTH 10 0
BBX 11 9 0 0
BITMAP
1860
30C0
39C0
39C0
7F80
7F80
6D80
DB00
C300
ENDCHAR
STARTCHAR N
ENCODING 78
SWIDTH 1000 0
DWIDTH 9 0
BBX 10 9 0 0
BITMAP
18C0
3980
3980
3D80
7B00
6F00
6700
CE00
C600
ENDCHAR
STARTCHAR O
ENCODING 79
SWIDTH 1000 0
DWIDTH 9 0
BBX 10 9 0 0
BITMAP
0F80
3180
3180
3180
6300
6300
6300
C600
7C00
ENDCHAR
STARTCHAR P
ENCODING 80
SWIDTH 889 0
DWIDTH 8 0
BBX 10 9 0 0
BITMAP
1F80
3180
3180
3180
7E00
6000
6000
C000
C000
ENDCHAR
STARTCHAR Q
ENCODING 81
SWIDTH 900 0
DWIDTH 9 0
BBX 10 10 0 -1
BITMAP
0F80
18C0
3180
3180
3180
6300
6F00
6700
7C00
0600
ENDCHAR
STARTCHAR R
ENCODING 82
SWIDTH 1000 0
DWIDTH 9 0
BBX 10 9 0 0
BITMAP
1F80
3180
3180
3180
7E00
6300
6300
C600
C600
ENDCHAR
STARTCHAR S
ENCODING 83
SWIDTH 889 0
DWIDTH 8 0
BBX 9 9 0 0
BITMAP
0F00
3300
3000
3000
3C00
0600
0600
CC00
7800
ENDCHAR
STARTCHAR T
ENCODING 84
SWIDTH 889 0
DWIDTH 8 0
BBX 9 9 0 0
BITMAP
1F80
0C00
0C00
0C00
1800
1800
1800
3000
3000
ENDCHAR
STARTCHAR U
ENCODING 85
SWIDTH 1000 0
DWIDTH 9 0
BBX 10 9 0 0
BITMAP
18C0
3180
3180
3180
6300
6300
6300
C600
7C00
ENDCHAR
STARTCHAR V
ENCODING 86
SWIDTH 889 0
DWIDTH 8 0
BBX 11 9 -1 0
BITMAP
1860
30C0
1980
1980
3300
1E00
1E00
1800
1800
ENDCHAR
STARTCHAR W
ENCODING 87
SWIDTH 1333 0
DWIDTH 12 0
BBX 15 9 -1 0
BITMAP
1806
300C
1998
1998
3330
1FE0
1FE0
1980
1980
ENDCHAR
STARTCHAR X
ENCODING 88
SWIDTH 889 0
DWIDTH 8 0
BBX 11 9 -1 0
BITMAP
1860
30C0
1980
0F00
0C00
1E00
3300
C300
C300
ENDCHAR
STARTCHAR Y
ENCODING 89
SWIDTH 889 0
DWIDTH 8 0
BBX 11 9 -1 0
BITMAP
1860
30C0
1980
0F00
0C00
0C00
0C00
1800
1800
ENDCHAR
STARTCHAR Z
ENCODING 90
SWIDTH 889 0
DWIDTH 8 0
BBX 11 9 -1 0
BITMAP
1FE0
00C0
0180
0300
0C00
1800
3000
C000
FF00
ENDCHAR
STARTCHAR bracketleft
ENCODING 91
SWIDTH 364 0
DWIDTH 4 0
BBX 6 11 0 -2
BITMAP
1C
18
18
30
30
30
60
60
60
C0
E0
ENDCHAR
STARTCHAR backslash
ENCODING 92
SWIDTH 400 0
DWIDTH 4 0
BBX 6 10 0 -1
BITMAP
18
18
30
30
30
30
30
30
60
60
ENDCHAR
STARTCHAR bracketright
ENCODING 93
SWIDTH 364 0
DWIDTH 4 0
BBX 6 11 0 -2
BITMAP
1C
0C
0C
18
18
18
30
30
30
60
E0
ENDCHAR
STARTCHAR asciicircum
ENCODING 94
SWIDTH 2333 0
DWIDTH 7 0
BBX 7 3 0 7
BITMAP
18
78
CC
ENDCHAR
STARTCHAR underscore
ENCODING 95
SWIDTH 7000 0
DWIDTH 7 0
BBX 7 1 -1 -2
BITMAP
FE
ENDCHAR
STARTCHAR quoteleft
ENCODING 96
SWIDTH 2000 0
DWIDTH 4 0
BBX 3 2 0 7
BITMAP
C0
60
ENDCHAR
STARTCHAR a
ENCODING 97
SWIDTH 1167 0
DWIDTH 7 0
BBX 8 6 0 0
BITMAP
1E
06
3E
66
CC
7C
ENDCHAR
STARTCHAR b
ENCODING 98
SWIDTH 778 0
DWIDTH 7 0
BBX 9 9 0 0
BITMAP
1800
3000
3000
3E00
6600
6600
6600
CC00
F800
ENDCHAR
STARTCHAR c
ENCODING 99
SWIDTH 1167 0
DWIDTH 7 0
BBX 8 6 0 0
BITMAP
1E
66
60
60
CC
78
ENDCHAR
STARTCHAR d
ENCODING 100
SWIDTH 778 0
DWIDTH 7 0
BBX 9 9 0 0
BITMAP
0180
0300
0300
1F00
6600
6600
6600
CC00
7C00
ENDCHAR
STARTCHAR e
ENCODING 101
SWIDTH 1167 0
DWIDTH 7 0
BBX 8 6 0 0
BITMAP
1E
66
7E
60
CC
78
ENDCHAR
STARTCHAR f
ENCODING 102
SWIDTH 444 0
DWIDTH 4 0
BBX 6 9 0 0
BITMAP
0C
30
30
38
60
60
60
C0
C0
ENDCHAR
STARTCHAR g
ENCODING 103
SWIDTH 875 0
DWIDTH 7 0
BBX 8 8 0 -2
BITMAP
1F
33
33
66
66
3E
0C
F8
ENDCHAR
STARTCHAR h
ENCODING 104
SWIDTH 778 0
DWIDTH 7 0
BBX 9 9 0 0
BITMAP
1800
3000
3000
3E00
7600
6600
6600
CC00
CC00
ENDCHAR
STARTCHAR i
ENCODING 105
SWIDTH 333 0
DWIDTH 3 0
BBX 5 9 0 0
BITMAP
18
00
00
30
60
60
60
C0
C0
ENDCHAR
STARTCHAR j
ENCODING 106
SWIDTH 273 0
DWIDTH 3 0
BBX 5 11 0 -2
BITMAP
18
00
00
30
30
30
60
60
60
C0
C0
ENDCHAR
STARTCHAR k
ENCODING 107
SWIDTH 778 0
DWIDTH 7 0
BBX 9 9 0 0
BITMAP
1800
3000
3000
3600
7800
7000
7800
D800
CC00
ENDCHAR
STARTCHAR l
ENCODING 108
SWIDTH 333 0
DWIDTH 3 0
BBX 5 9 0 0
BITMAP
18
30
30
30
60
60
60
C0
C0
ENDCHAR
STARTCHAR m
ENCODING 109
SWIDTH 1500 0
DWIDTH 9 0
BBX 10 6 0 0
BITMAP
3F80
6D80
6D80
6D80
DB00
DB00
ENDCHAR
STARTCHAR n
ENCODING 110
SWIDTH 1167 0
DWIDTH 7 0
BBX 8 6 0 0
BITMAP
3E
76
66
66
CC
CC
ENDCHAR
STARTCHAR o
ENCODING 111
SWIDTH 1167 0
DWIDTH 7 0
BBX 8 6 0 0
BITMAP
1E
66
66
66
CC
78
ENDCHAR
STARTCHAR p
ENCODING 112
SWIDTH 875 0
DWIDTH 7 0
BBX 8 8 0 -2
BITMAP
3E
33
33
66
66
7C
C0
C0
ENDCHAR
STARTCHAR q
ENCODING 113
SWIDTH 875 0
DWIDTH 7 0
BBX 8 8 0 -2
BITMAP
1F
33
33
66
66
3E
0C
0C
ENDCHAR
STARTCHAR r
ENCODING 114
SWIDTH 667 0
DWIDTH 4 0
BBX 5 6 0 0
BITMAP
38
60
60
60
C0
C0
ENDCHAR
STARTCHAR s
ENCODING 115
SWIDTH 1000 0
DWIDTH 6 0
BBX 7 6 0 0
BITMAP
1C
6C
30
18
D8
70
ENDCHAR
STARTCHAR t
ENCODING 116
SWIDTH 500 0
DWIDTH 4 0
BBX 5 8 0 0
BITMAP
30
30
38
60
60
60
C0
60
ENDCHAR
STARTCHAR u
ENCODING 117
SWIDTH 1167 0
DWIDTH 7 0
BBX 8 6 0 0
BITMAP
33
66
66
66
DC
7C
ENDCHAR
STARTCHAR v
ENCODING 118
SWIDTH 1167 0
DWIDTH 7 0
BBX 8 6 0 0
BITMAP
33
66
3C
3C
30
30
ENDCHAR
STARTCHAR w
ENCODING 119
SWIDTH 1500 0
DWIDTH 9 0
BBX 10 6 0 0
BITMAP
36C0
6D80
7F80
7F80
6600
6600
ENDCHAR
STARTCHAR x
ENCODING 120
SWIDTH 1000 0
DWIDTH 6 0
BBX 7 6 0 0
BITMAP
36
6C
38
38
D8
D8
ENDCHAR
STARTCHAR y
ENCODING 121
SWIDTH 750 0
DWIDTH 6 0
BBX 8 8 -1 -2
BITMAP
1B
1B
1B
36
1C
18
30
E0
ENDCHAR
STARTCHAR z
ENCODING 122
SWIDTH 1000 0
DWIDTH 6 0
BBX 7 6 0 0
BITMAP
3E
0C
18
30
C0
F8
ENDCHAR
STARTCHAR braceleft
ENCODING 123
SWIDTH 455 0
DWIDTH 5 0
BBX 7 11 0 -1
BITMAP
06
0C
0C
18
18
30
30
30
30
60
30
ENDCHAR
STARTCHAR bar
ENCODING 124
SWIDTH 300 0
DWIDTH 3 0
BBX 5 10 0 -1
BITMAP
18
18
30
30
30
60
60
60
C0
C0
ENDCHAR
STARTCHAR braceright
ENCODING 125
SWIDTH 455 0
DWIDTH 5 0
BBX 7 11 0 -1
BITMAP
18
0C
0C
18
18
0C
30
30
30
60
C0
ENDCHAR
STARTCHAR asciitilde
ENCODING 126
SWIDTH 3500 0
DWIDTH 7 0
BBX 6 2 0 6
BITMAP
7C
F8
ENDCHAR
STARTCHAR nbsp
ENCODING 154
SWIDTH 364 0
DWIDTH 4 0
BBX 0 0 -1 0
BITMAP
ENDCHAR
STARTCHAR degree
ENCODING 156
SWIDTH 1667 0
DWIDTH 5 0
BBX 5 3 0 6
BITMAP
30
F0
60
ENDCHAR
STARTCHAR twosuperior
ENCODING 157
SWIDTH 800 0
DWIDTH 4 0
BBX 5 5 -1 4
BITMAP
70
18
30
C0
F0
ENDCHAR
STARTCHAR cyr-yo
ENCODING 163
SWIDTH 875 0
DWIDTH 7 0
BBX 8 8 0 0
BITMAP
1E
00
1E
66
7E
60
CC
78
ENDCHAR
STARTCHAR cyr-Yo
ENCODING 179
SWIDTH 727 0
DWIDTH 8 0
BBX 9 11 0 0
BITMAP
0F00
0000
1F80
3000
3000
3000
7C00
6000
6000
C000
FC00
ENDCHAR
STARTCHAR copyright
ENCODING 191
SWIDTH 1286 0
DWIDTH 9 0
BBX 10 7 0 2
BITMAP
0F00
1980
6F80
7980
6F80
6600
3C00
ENDCHAR
STARTCHAR cyr-yu
ENCODING 192
SWIDTH 1333 0
DWIDTH 8 0
BBX 9 6 0 0
BITMAP
3700
7B00
7B00
7B00
F600
DC00
ENDCHAR
STARTCHAR cyr-a
ENCODING 193
SWIDTH 1167 0
DWIDTH 7 0
BBX 8 6 0 0
BITMAP
1E
06
3E
66
CC
7C
ENDCHAR
STARTCHAR cyr-be
ENCODING 194
SWIDTH 778 0
DWIDTH 7 0
BBX 9 9 0 0
BITMAP
0180
1E00
3000
3E00
6600
6600
6600
CC00
7800
ENDCHAR
STARTCHAR cyr-tse
ENCODING 195
SWIDTH 1143 0
DWIDTH 8 0
BBX 9 7 0 -1
BITMAP
3300
3300
6600
6600
6600
FE00
0600
ENDCHAR
STARTCHAR cyr-de
ENCODING 196
SWIDTH 1143 0
DWIDTH 8 0
BBX 9 7 0 -1
BITMAP
1F00
1B00
3600
3600
3600
FE00
C600
ENDCHAR
STARTCHAR cyr-ie
ENCODING 197
SWIDTH 1167 0
DWIDTH 7 0
BBX 8 6 0 0
BITMAP
1E
66
7E
60
CC
78
ENDCHAR
STARTCHAR cyr-ef
ENCODING 198
SWIDTH 778 0
DWIDTH 7 0
BBX 9 9 0 -2
BITMAP
0600
1E00
3F00
3F00
7E00
7E00
3C00
3000
3000
ENDCHAR
STARTCHAR cyr-ghe
ENCODING 199
SWIDTH 1000 0
DWIDTH 6 0
BBX 7 6 0 0
BITMAP
3E
60
60
60
C0
C0
ENDCHAR
STARTCHAR cyr-kha
ENCODING 200
SWIDTH 1000 0
DWIDTH 6 0
BBX 7 6 0 0
BITMAP
36
6C
38
38
D8
D8
ENDCHAR
STARTCHAR cyr-i
ENCODING 201
SWIDTH 1167 0
DWIDTH 7 0
BBX 8 6 0 0
BITMAP
33
66
6E
7E
EC
CC
ENDCHAR
STARTCHAR cyr-i-short
ENCODING 202
SWIDTH 875 0
DWIDTH 7 0
BBX 8 8 0 0
BITMAP
1E
0C
33
66
6E
7E
EC
CC
ENDCHAR
STARTCHAR cyr-ka
ENCODING 203
SWIDTH 1167 0
DWIDTH 7 0
BBX 8 6 0 0
BITMAP
36
78
70
78
D8
CC
ENDCHAR
STARTCHAR cyr-el
ENCODING 204
SWIDTH 1333 0
DWIDTH 8 0
BBX 9 6 0 0
BITMAP
1F80
3300
3300
3300
6600
C600
ENDCHAR
STARTCHAR cyr-em
ENCODING 205
SWIDTH 1286 0
DWIDTH 9 0
BBX 10 7 0 -1
BITMAP
30C0
39C0
7F80
6D80
6180
C300
C300
ENDCHAR
STARTCHAR cyr-en
ENCODING 206
SWIDTH 1167 0
DWIDTH 7 0
BBX 8 6 0 0
BITMAP
33
66
7E
66
CC
CC
ENDCHAR
STARTCHAR cyr-o
ENCODING 207
SWIDTH 1167 0
DWIDTH 7 0
BBX 8 6 0 0
BITMAP
1E
66
66
66
CC
78
ENDCHAR
STARTCHAR cyr-pe
ENCODING 208
SWIDTH 1167 0
DWIDTH 7 0
BBX 8 6 0 0
BITMAP
3F
66
66
66
CC
CC
ENDCHAR
STARTCHAR cyr-ya
ENCODING 209
SWIDTH 1000 0
DWIDTH 6 0
BBX 7 6 0 0
BITMAP
1E
6C
6C
3C
D8
D8
ENDCHAR
STARTCHAR cyr-er
ENCODING 210
SWIDTH 875 0
DWIDTH 7 0
BBX 8 8 0 -2
BITMAP
3E
33
33
66
66
7C
C0
C0
ENDCHAR
STARTCHAR cyr-es
ENCODING 211
SWIDTH 1167 0
DWIDTH 7 0
BBX 8 6 0 0
BITMAP
1E
66
60
60
CC
78
ENDCHAR
STARTCHAR cyr-te
ENCODING 212
SWIDTH 1167 0
DWIDTH 7 0
BBX 8 6 0 0
BITMAP
3F
18
18
18
30
30
ENDCHAR
STARTCHAR cyr-u
ENCODING 213
SWIDTH 750 0
DWIDTH 6 0
BBX 8 8 -1 -2
BITMAP
1B
1B
1B
36
1C
18
30
E0
ENDCHAR
STARTCHAR cyr-zhe
ENCODING 214
SWIDTH 1500 0
DWIDTH 9 0
BBX 10 6 0 0
BITMAP
36C0
3F00
1E00
3F00
DB00
DB00
ENDCHAR
STARTCHAR cyr-ve
ENCODING 215
SWIDTH 1167 0
DWIDTH 7 0
BBX 8 6 0 0
BITMAP
3E
66
7C
66
CC
F8
ENDCHAR
STARTCHAR cyr-ierik
ENCODING 216
SWIDTH 1000 0
DWIDTH 6 0
BBX 7 6 0 0
BITMAP
30
60
78
6C
D8
F0
ENDCHAR
STARTCHAR cyr-iery
ENCODING 217
SWIDTH 1333 0
DWIDTH 8 0
BBX 9 6 0 0
BITMAP
3180
6300
7B00
6F00
DE00
F600
ENDCHAR
STARTCHAR cyr-z
ENCODING 218
SWIDTH 1167 0
DWIDTH 7 0
BBX 8 6 0 0
BITMAP
1E
66
1C
06
CC
78
ENDCHAR
STARTCHAR cyr-sha
ENCODING 219
SWIDTH 1500 0
DWIDTH 9 0
BBX 10 6 0 0
BITMAP
36C0
6D80
6D80
6D80
DB00
FF00
ENDCHAR
STARTCHAR cyr-e-rev
ENCODING 220
SWIDTH 1000 0
DWIDTH 6 0
BBX 7 6 0 0
BITMAP
3C
0C
7C
0C
18
F0
ENDCHAR
STARTCHAR cyr-shcha
ENCODING 221
SWIDTH 1429 0
DWIDTH 10 0
BBX 11 7 0 -1
BITMAP
36C0
36C0
6D80
6D80
6D80
FF80
0180
ENDCHAR
STARTCHAR cyr-che
ENCODING 222
SWIDTH 1167 0
DWIDTH 7 0
BBX 8 6 0 0
BITMAP
33
66
66
3E
0C
0C
ENDCHAR
STARTCHAR cyr-ier
ENCODING 223
SWIDTH 1167 0
DWIDTH 7 0
BBX 8 6 0 0
BITMAP
38
30
3C
36
6C
78
ENDCHAR
STARTCHAR cyr-Yu
ENCODING 224
SWIDTH 1222 0
DWIDTH 11 0
BBX 12 9 0 0
BITMAP
1BE0
3C60
3C60
3C60
78C0
78C0
78C0
F180
DF00
ENDCHAR
STARTCHAR cyr-A
ENCODING 225
SWIDTH 889 0
DWIDTH 8 0
BBX 11 9 -1 0
BITMAP
0300
0600
0F00
0F00
3300
3300
3F00
C300
C300
ENDCHAR
STARTCHAR cyr-Be
ENCODING 226
SWIDTH 889 0
DWIDTH 8 0
BBX 9 9 0 0
BITMAP
1F80
3000
3000
3000
7C00
6600
6600
CC00
F800
ENDCHAR
STARTCHAR cyr-Tse
ENCODING 227
SWIDTH 900 0
DWIDTH 9 0
BBX 11 10 0 -1
BITMAP
18C0
18C0
3180
3180
3180
6300
6300
6300
FF00
0300
ENDCHAR
STARTCHAR cyr-De
ENCODING 228
SWIDTH 1100 0
DWIDTH 11 0
BBX 12 10 0 -1
BITMAP
07E0
0660
0CC0
0CC0
0CC0
1980
1980
3180
FF80
C180
ENDCHAR
STARTCHAR cyr-Ie
ENCODING 229
SWIDTH 889 0
DWIDTH 8 0
BBX 9 9 0 0
BITMAP
1F80
3000
3000
3000
7C00
6000
6000
C000
FC00
ENDCHAR
STARTCHAR cyr-Ef
ENCODING 230
SWIDTH 1111 0
DWIDTH 10 0
BBX 11 9 0 0
BITMAP
0FC0
36C0
36C0
36C0
6D80
6D80
6D80
7E00
1800
ENDCHAR
STARTCHAR cyr-Ghe
ENCODING 231
SWIDTH 889 0
DWIDTH 8 0
BBX 9 9 0 0
BITMAP
1F80
3000
3000
3000
6000
6000
6000
C000
C000
ENDCHAR
STARTCHAR cyr-Kha
ENCODING 232
SWIDTH 889 0
DWIDTH 8 0
BBX 11 9 -1 0
BITMAP
1860
30C0
1980
0F00
0C00
1E00
3300
C300
C300
ENDCHAR
STARTCHAR cyr-I
ENCODING 233
SWIDTH 1000 0
DWIDTH 9 0
BBX 10 9 0 0
BITMAP
18C0
3380
3380
3780
7B00
7B00
7300
E600
C600
ENDCHAR
STARTCHAR cyr-I-short
ENCODING 234
SWIDTH 818 0
DWIDTH 9 0
BBX 10 11 0 0
BITMAP
0D80
0700
18C0
3380
3380
3780
7B00
7B00
7300
E600
C600
ENDCHAR
STARTCHAR cyr-Ka
ENCODING 235
SWIDTH 889 0
DWIDTH 8 0
BBX 10 9 0 0
BITMAP
1980
3600
3C00
3800
7000
7800
6C00
CC00
C600
ENDCHAR
STARTCHAR cyr-El
ENCODING 236
SWIDTH 1111 0
DWIDTH 10 0
BBX 11 9 0 0
BITMAP
0FE0
18C0
18C0
18C0
3180
3180
3180
6300
C300
ENDCHAR
STARTCHAR cyr-Em
ENCODING 237
SWIDTH 1111 0
DWIDTH 10 0
BBX 11 9 0 0
BITMAP
1860
30C0
39C0
39C0
7F80
7F80
6D80
DB00
C300
ENDCHAR
STARTCHAR cyr-En
ENCODING 238
SWIDTH 1000 0
DWIDTH 9 0
BBX 10 9 0 0
BITMAP
18C0
3180
3180
3180
7F00
6300
6300
C600
C600
ENDCHAR
STARTCHAR cyr-O
ENCODING 239
SWIDTH 1000 0
DWIDTH 9 0
BBX 10 9 0 0
BITMAP
0F80
3180
3180
3180
6300
6300
6300
C600
7C00
ENDCHAR
STARTCHAR cyr-Pe
ENCODING 240
SWIDTH 1000 0
DWIDTH 9 0
BBX 10 9 0 0
BITMAP
1FC0
3180
3180
3180
6300
6300
6300
C600
C600
ENDCHAR
STARTCHAR cyr-Ya
ENCODING 241
SWIDTH 1000 0
DWIDTH 9 0
BBX 10 9 0 0
BITMAP
0FC0
3180
3180
3180
3F00
0F00
1B00
6600
C600
ENDCHAR
STARTCHAR cyr-Er
ENCODING 242
SWIDTH 889 0
DWIDTH 8 0
BBX 10 9 0 0
BITMAP
1F80
3180
3180
3180
7E00
6000
6000
C000
C000
ENDCHAR
STARTCHAR cyr-Es
ENCODING 243
SWIDTH 889 0
DWIDTH 8 0
BBX 10 9 0 0
BITMAP
0F80
3180
3000
3000
6000
6000
6000
C600
7C00
ENDCHAR
STARTCHAR cyr-Te
ENCODING 244
SWIDTH 889 0
DWIDTH 8 0
BBX 9 9 0 0
BITMAP
1F80
0C00
0C00
0C00
1800
1800
1800
3000
3000
ENDCHAR
STARTCHAR cyr-U
ENCODING 245
SWIDTH 889 0
DWIDTH 8 0
BBX 11 9 -1 0
BITMAP
1860
30C0
1980
0F00
0C00
0C00
1800
6000
C000
ENDCHAR
STARTCHAR cyr-Zhe
ENCODING 246
SWIDTH 1333 0
DWIDTH 12 0
BBX 15 9 -1 0
BITMAP
18C6
1998
0DB0
07E0
0FC0
0FC0
1B60
6660
C630
ENDCHAR
STARTCHAR cyr-Ve
ENCODING 247
SWIDTH 889 0
DWIDTH 8 0
BBX 9 9 0 0
BITMAP
1F00
3300
3300
3300
7C00
6600
6600
CC00
F800
ENDCHAR
STARTCHAR cyr-Ierik
ENCODING 248
SWIDTH 889 0
DWIDTH 8 0
BBX 10 9 0 0
BITMAP
1800
3000
3000
3000
7E00
6300
6300
C600
FC00
ENDCHAR
STARTCHAR cyr-Iery
ENCODING 249
SWIDTH 1222 0
DWIDTH 11 0
BBX 12 9 0 0
BITMAP
1830
3060
3060
3060
7EC0
63C0
63C0
C780
FD80
ENDCHAR
STARTCHAR cyr-Ze
ENCODING 250
SWIDTH 889 0
DWIDTH 8 0
BBX 9 9 0 0
BITMAP
0F00
3300
0300
0300
3C00
0600
0600
CC00
7800
ENDCHAR
STARTCHAR cyr-Sha
ENCODING 251
SWIDTH 1333 0
DWIDTH 12 0
BBX 13 9 0 0
BITMAP
1998
3330
3330
3330
6660
6660
6660
CCC0
FFC0
ENDCHAR
STARTCHAR cyr-E-rev
ENCODING 252
SWIDTH 1000 0
DWIDTH 9 0
BBX 10 9 0 0
BITMAP
0F80
3180
0180
0180
1F00
0300
0300
C600
7C00
ENDCHAR
STARTCHAR cyr-Shcha
ENCODING 253
SWIDTH 1200 0
DWIDTH 12 0
BBX 14 10 0 -1
BITMAP
1998
1998
3330
3330
3330
6660
6660
6660
FFE0
0060
ENDCHAR
STARTCHAR cyr-Che
ENCODING 254
SWIDTH 1000 0
DWIDTH 9 0
BBX 10 9 0 0
BITMAP
18C0
3180
3180
3180
3F00
0300
0300
0600
0600
ENDCHAR
STARTCHAR cyr-Ier
ENCODING 255
SWIDTH 1000 0
DWIDTH 9 0
BBX 12 9 -1 0
BITMAP
1E00
0C00
0C00
0C00
1F80
18C0
18C0
3180
3F00
ENDCHAR
ENDFONT
