STARTFONT 2.1
COMMENT Copyright (C) 1990-1991 EWT Consulting
COMMENT Portions Copyright (C) 1994-1995 Cronyx Ltd.
COMMENT Changes Copyright (C) 1996-1997 by Andrey A. Chernov, Moscow, Russia.
COMMENT Modified by Serge Vakulenko, <vak@cronyx.ru>
COMMENT This software may be used, modified, copied, distributed, and sold,
COMMENT in both source and binary form provided that the copyright
COMMENT and these terms are retained. Under no circumstances is the author
COMMENT responsible for the proper functioning of this software, nor does
COMMENT the author assume any responsibility for damages incurred with its use.
COMMENT $XFree86: xc/fonts/bdf/cyrillic/crox4ho.bdf,v 3.2.4.1 1998/02/01 16:03:55 robin Exp $
FONT -Cronyx-Helvetica-Medium-O-Normal--20-140-100-100-P-77-KOI8-R
SIZE 14 96 96
FONTBOUNDINGBOX 25 22 -1 -5
STARTPROPERTIES 20
DEFAULT_CHAR 32
FONT_ASCENT 19
FONT_DESCENT 5
SPACING "P"
FONTNAME_REGISTRY ""
FOUNDRY "Cronyx"
FAMILY_NAME "Helvetica"
WEIGHT_NAME "Medium"
SLANT "O"
SETWIDTH_NAME "Normal"
ADD_STYLE_NAME ""
AVERAGE_WIDTH 77
CHARSET_REGISTRY "KOI8"
CHARSET_ENCODING "R"
PIXEL_SIZE 20
POINT_SIZE 140
RESOLUTION_X 100
RESOLUTION_Y 100
COPYRIGHT "Copyright (C) 1990, 1991 EWT Consulting, Portions Copyright (C) 1994 Cronyx Ltd., Portions Copyright (C) 1996-1997 by Andrey A. Chernov, Moscow, Russia."
_XMBDFED_INFO "Edited with xmbdfed 2.7."
ENDPROPERTIES
CHARS 165
STARTCHAR space
ENCODING 32
SWIDTH 267 0
DWIDTH 5 0
BBX 0 0 -1 0
BITMAP
ENDCHAR
STARTCHAR exclam
ENCODING 33
SWIDTH 267 0
DWIDTH 5 0
BBX 6 14 1 0
BITMAP
0C
0C
0C
18
18
18
30
30
30
60
00
00
C0
C0
ENDCHAR
STARTCHAR quotedbl
ENCODING 34
SWIDTH 375 0
DWIDTH 7 0
BBX 6 4 0 10
BITMAP
6C
6C
D8
D8
ENDCHAR
STARTCHAR numbersign
ENCODING 35
SWIDTH 535 0
DWIDTH 10 0
BBX 12 14 0 0
BITMAP
0120
0120
0120
0240
0FE0
0480
0900
0900
0900
7F00
2400
2400
4800
4800
ENDCHAR
STARTCHAR dollar
ENCODING 36
SWIDTH 535 0
DWIDTH 10 0
BBX 15 18 -1 -2
BITMAP
0020
0040
00E0
03F8
06B0
0C80
0E80
0F00
07C0
01E0
02E0
0260
3260
3580
3F80
0E00
0800
0800
ENDCHAR
STARTCHAR percent
ENCODING 37
SWIDTH 803 0
DWIDTH 15 0
BBX 17 14 0 0
BITMAP
078300
0CC600
084600
109800
19B000
0F3000
00C000
018000
033C00
06CC00
0C8400
188400
319800
60F000
ENDCHAR
STARTCHAR ampersand
ENCODING 38
SWIDTH 696 0
DWIDTH 13 0
BBX 16 14 0 0
BITMAP
0180
03C0
0660
0CC0
0CC0
0780
0E18
1F18
3BB0
63E0
61C0
71E0
7EE0
3C70
ENDCHAR
STARTCHAR quoteright
ENCODING 39
SWIDTH 214 0
DWIDTH 4 0
BBX 3 4 0 10
BITMAP
60
60
C0
C0
ENDCHAR
STARTCHAR parenleft
ENCODING 40
SWIDTH 321 0
DWIDTH 6 0
BBX 10 18 0 -4
BITMAP
0040
0180
0300
0300
0C00
0C00
0C00
1800
1800
1800
3000
3000
3000
6000
3000
3000
3000
1000
ENDCHAR
STARTCHAR parenright
ENCODING 41
SWIDTH 321 0
DWIDTH 6 0
BBX 10 18 0 -4
BITMAP
0200
0600
0300
0300
0300
0300
0300
0600
0600
0600
0C00
0C00
0C00
1800
3000
3000
C000
8000
ENDCHAR
STARTCHAR asterisk
ENCODING 42
SWIDTH 375 0
DWIDTH 7 0
BBX 7 7 0 7
BITMAP
08
2A
7C
38
7C
A8
20
ENDCHAR
STARTCHAR plus
ENCODING 43
SWIDTH 589 0
DWIDTH 11 0
BBX 13 10 0 2
BITMAP
0180
0180
0300
0300
3FF0
7FE0
0600
0600
0C00
0C00
ENDCHAR
STARTCHAR comma
ENCODING 44
SWIDTH 267 0
DWIDTH 5 0
BBX 3 4 1 -2
BITMAP
60
60
40
80
ENDCHAR
STARTCHAR minus
ENCODING 45
SWIDTH 321 0
DWIDTH 6 0
BBX 6 2 -1 4
BITMAP
FC
FC
ENDCHAR
STARTCHAR period
ENCODING 46
SWIDTH 267 0
DWIDTH 5 0
BBX 2 2 1 0
BITMAP
C0
C0
ENDCHAR
STARTCHAR slash
ENCODING 47
SWIDTH 267 0
DWIDTH 5 0
BBX 10 16 -1 -2
BITMAP
00C0
00C0
0180
0180
0300
0600
0600
0600
1800
1800
1800
3000
6000
6000
C000
C000
ENDCHAR
STARTCHAR zero
ENCODING 48
SWIDTH 535 0
DWIDTH 10 0
BBX 13 14 0 0
BITMAP
01C0
07F0
0630
1830
1830
1830
3060
3060
3060
60C0
60C0
3180
7F00
1C00
ENDCHAR
STARTCHAR one
ENCODING 49
SWIDTH 535 0
DWIDTH 10 0
BBX 9 14 1 0
BITMAP
0180
0380
0F80
1F00
0300
0300
0600
0600
0600
0C00
0C00
0C00
1800
1800
ENDCHAR
STARTCHAR two
ENCODING 50
SWIDTH 535 0
DWIDTH 10 0
BBX 13 14 0 0
BITMAP
03E0
07F0
0E38
1830
0030
0070
01C0
0780
0E00
3800
3000
6000
FF80
FF80
ENDCHAR
STARTCHAR three
ENCODING 51
SWIDTH 535 0
DWIDTH 10 0
BBX 13 14 0 0
BITMAP
01C0
07F0
0630
1830
1830
0060
0780
07C0
00C0
60C0
60C0
3180
7F00
1C00
ENDCHAR
STARTCHAR four
ENCODING 52
SWIDTH 535 0
DWIDTH 10 0
BBX 13 14 0 0
BITMAP
00E0
00E0
01E0
03C0
06C0
06C0
1980
1980
3180
7FC0
7FC0
0300
0600
0600
ENDCHAR
STARTCHAR five
ENCODING 53
SWIDTH 535 0
DWIDTH 10 0
BBX 13 14 0 0
BITMAP
07F0
07F0
0600
0C00
1800
1F80
3FC0
30C0
0060
00C0
60C0
7180
7F00
3C00
ENDCHAR
STARTCHAR six
ENCODING 54
SWIDTH 535 0
DWIDTH 10 0
BBX 13 14 0 0
BITMAP
01C0
07F0
0630
1830
1800
1B80
3FC0
38C0
3060
60C0
60C0
3180
7F00
1C00
ENDCHAR
STARTCHAR seven
ENCODING 55
SWIDTH 535 0
DWIDTH 10 0
BBX 13 14 0 0
BITMAP
0FF8
0FF8
0018
0030
0060
0060
0180
0180
0300
0600
0600
0C00
1800
1800
ENDCHAR
STARTCHAR eight
ENCODING 56
SWIDTH 535 0
DWIDTH 10 0
BBX 13 14 0 0
BITMAP
01C0
07F0
0630
1830
1830
0C60
0F80
1FC0
18C0
60C0
60C0
3180
7F00
1C00
ENDCHAR
STARTCHAR nine
ENCODING 57
SWIDTH 535 0
DWIDTH 10 0
BBX 13 14 0 0
BITMAP
01C0
07F0
0630
1830
1830
1830
18E0
1FE0
0760
00C0
60C0
3180
7F00
1C00
ENDCHAR
STARTCHAR colon
ENCODING 58
SWIDTH 267 0
DWIDTH 5 0
BBX 5 10 1 0
BITMAP
18
18
00
00
00
00
00
00
C0
C0
ENDCHAR
STARTCHAR semicolon
ENCODING 59
SWIDTH 267 0
DWIDTH 5 0
BBX 6 12 1 -2
BITMAP
0C
18
00
00
00
00
00
00
60
60
40
80
ENDCHAR
STARTCHAR less
ENCODING 60
SWIDTH 589 0
DWIDTH 11 0
BBX 13 9 0 2
BITMAP
0018
00F0
03C0
0F00
7800
1E00
0780
03C0
00C0
ENDCHAR
STARTCHAR equal
ENCODING 61
SWIDTH 589 0
DWIDTH 11 0
BBX 12 6 0 4
BITMAP
3FF0
7FE0
0000
0000
FFC0
FFC0
ENDCHAR
STARTCHAR greater
ENCODING 62
SWIDTH 589 0
DWIDTH 11 0
BBX 13 9 0 2
BITMAP
1800
3C00
0F00
03C0
03E0
0780
1E00
F000
C000
ENDCHAR
STARTCHAR question
ENCODING 63
SWIDTH 535 0
DWIDTH 10 0
BBX 13 14 0 0
BITMAP
01C0
07F0
0630
1830
1830
0060
01C0
0380
0300
0C00
0C00
0000
1800
1800
ENDCHAR
STARTCHAR at
ENCODING 64
SWIDTH 1017 0
DWIDTH 19 0
BBX 22 17 0 -3
BITMAP
003F80
00E0E0
018030
060030
040010
0C1D98
106610
10C610
10C610
231860
2318C0
31EF80
200000
300000
180200
1C1C00
07F000
ENDCHAR
STARTCHAR A
ENCODING 65
SWIDTH 696 0
DWIDTH 13 0
BBX 17 14 -1 0
BITMAP
007000
007000
00D800
01B000
031800
031800
063000
0C1800
0FF800
3FF800
301800
301800
C01800
C01800
ENDCHAR
STARTCHAR B
ENCODING 66
SWIDTH 642 0
DWIDTH 12 0
BBX 14 14 0 0
BITMAP
0FF0
0FF8
0C1C
1818
1818
1838
3FE0
3FE0
3070
6060
6060
60E0
FF80
FF00
ENDCHAR
STARTCHAR C
ENCODING 67
SWIDTH 696 0
DWIDTH 13 0
BBX 16 14 0 0
BITMAP
00F8
03FE
0707
0C06
1800
1800
3000
3000
3000
6000
3018
3838
3FE0
0F80
ENDCHAR
STARTCHAR D
ENCODING 68
SWIDTH 696 0
DWIDTH 13 0
BBX 15 14 0 0
BITMAP
0FE0
0FF8
0C1C
1818
180C
180C
3018
3018
3018
6030
6060
60E0
FF80
FE00
ENDCHAR
STARTCHAR E
ENCODING 69
SWIDTH 696 0
DWIDTH 13 0
BBX 15 14 0 0
BITMAP
0FFE
0FFE
0C00
1800
1800
1800
3FF0
3FF0
3000
6000
6000
6000
FFE0
FFE0
ENDCHAR
STARTCHAR F
ENCODING 70
SWIDTH 642 0
DWIDTH 12 0
BBX 15 14 0 0
BITMAP
0FFE
0FFE
0C00
1800
1800
1800
3FF0
3FF0
3000
6000
6000
6000
C000
C000
ENDCHAR
STARTCHAR G
ENCODING 71
SWIDTH 750 0
DWIDTH 14 0
BBX 16 14 0 0
BITMAP
00F8
03FE
0707
0C06
1800
1800
3000
303C
303C
6018
3018
3838
3FF0
0FB0
ENDCHAR
STARTCHAR H
ENCODING 72
SWIDTH 750 0
DWIDTH 14 0
BBX 16 14 0 0
BITMAP
0C03
0C03
0C03
1806
1806
1806
3FFC
3FFC
300C
6018
6018
6018
C030
C030
ENDCHAR
STARTCHAR I
ENCODING 73
SWIDTH 214 0
DWIDTH 4 0
BBX 6 14 0 0
BITMAP
0C
0C
0C
18
18
18
30
30
30
60
60
60
C0
C0
ENDCHAR
STARTCHAR J
ENCODING 74
SWIDTH 482 0
DWIDTH 9 0
BBX 12 14 -1 0
BITMAP
0030
0030
0030
0060
0060
0060
00C0
00C0
00C0
0180
6180
7380
7E00
1800
ENDCHAR
STARTCHAR K
ENCODING 75
SWIDTH 642 0
DWIDTH 12 0
BBX 15 14 0 0
BITMAP
0C1C
0C38
0C70
19C0
1B80
1F00
3C00
3E00
3700
6700
6380
61C0
C1C0
C0E0
ENDCHAR
STARTCHAR L
ENCODING 76
SWIDTH 535 0
DWIDTH 10 0
BBX 13 14 0 0
BITMAP
0C00
0C00
0C00
1800
1800
1800
3000
3000
3000
6000
6000
6000
FF80
FF80
ENDCHAR
STARTCHAR M
ENCODING 77
SWIDTH 857 0
DWIDTH 16 0
BBX 18 14 0 0
BITMAP
0C00C0
0C00C0
0E01C0
1C0380
1E0780
1E0780
361B00
361B00
333300
666600
63C600
63C600
C30C00
C30C00
ENDCHAR
STARTCHAR N
ENCODING 78
SWIDTH 750 0
DWIDTH 14 0
BBX 16 14 0 0
BITMAP
0E03
0F03
0F03
1F06
1B86
1986
338C
31CC
30CC
61D8
60F8
6078
C0F0
C070
ENDCHAR
STARTCHAR O
ENCODING 79
SWIDTH 803 0
DWIDTH 15 0
BBX 17 14 0 0
BITMAP
00F800
03FE00
070700
0C0600
180300
180300
300600
300600
300600
600C00
301800
383800
3FE000
0F8000
ENDCHAR
STARTCHAR P
ENCODING 80
SWIDTH 642 0
DWIDTH 12 0
BBX 15 14 0 0
BITMAP
0FF0
0FFC
0C0C
180C
180C
180C
3030
3FF0
3FC0
6000
6000
6000
C000
C000
ENDCHAR
STARTCHAR Q
ENCODING 81
SWIDTH 803 0
DWIDTH 15 0
BBX 17 14 0 0
BITMAP
00F800
03FE00
070700
0C0600
180300
180300
300600
300600
302600
60EC00
307800
383800
3FF800
0F9000
ENDCHAR
STARTCHAR R
ENCODING 82
SWIDTH 696 0
DWIDTH 13 0
BBX 16 14 0 0
BITMAP
0FF0
0FFC
0C0C
180C
180C
180C
3030
3FF0
3FF0
6030
6030
6030
C060
C030
ENDCHAR
STARTCHAR S
ENCODING 83
SWIDTH 642 0
DWIDTH 12 0
BBX 14 14 0 0
BITMAP
01E0
07F8
0E1C
1818
1C00
0F00
0FC0
03E0
0070
0060
6060
70E0
7F80
1E00
ENDCHAR
STARTCHAR T
ENCODING 84
SWIDTH 642 0
DWIDTH 12 0
BBX 16 14 -1 0
BITMAP
0FFF
0FFF
0060
00C0
00C0
00C0
0180
0180
0180
0300
0300
0300
0600
0600
ENDCHAR
STARTCHAR U
ENCODING 85
SWIDTH 696 0
DWIDTH 13 0
BBX 15 14 0 0
BITMAP
0C06
0C06
0C06
180C
180C
180C
3018
3018
3018
6030
3060
38E0
3F80
0E00
ENDCHAR
STARTCHAR V
ENCODING 86
SWIDTH 696 0
DWIDTH 13 0
BBX 17 14 -1 0
BITMAP
0C0180
0C0180
060300
0C0600
060C00
060C00
0C1800
063000
063000
06C000
06C000
07C000
070000
070000
ENDCHAR
STARTCHAR W
ENCODING 87
SWIDTH 964 0
DWIDTH 18 0
BBX 22 14 -1 0
BITMAP
0C0C0C
0C0C0C
0C0C0C
0C3C30
0C3C30
0C3C30
0CCCC0
0CCCC0
0CCCC0
0F0F00
0F0F00
0F0F00
0C0C00
0C0C00
ENDCHAR
STARTCHAR X
ENCODING 88
SWIDTH 750 0
DWIDTH 14 0
BBX 18 14 -1 0
BITMAP
0C00C0
0E01C0
070380
070E00
039C00
01F800
01E000
01E000
03F000
0E7000
1C3800
381C00
E01C00
C00C00
ENDCHAR
STARTCHAR Y
ENCODING 89
SWIDTH 642 0
DWIDTH 12 0
BBX 16 14 -1 0
BITMAP
0C03
0E07
0606
0618
0738
0330
03C0
03C0
0180
0300
0300
0300
0600
0600
ENDCHAR
STARTCHAR Z
ENCODING 90
SWIDTH 642 0
DWIDTH 12 0
BBX 16 14 -1 0
BITMAP
07FF
07FF
0007
001C
0038
0070
01C0
0380
0700
1C00
3800
7000
FFF0
FFF0
ENDCHAR
STARTCHAR bracketleft
ENCODING 91
SWIDTH 267 0
DWIDTH 5 0
BBX 10 19 0 -4
BITMAP
03C0
03C0
0600
0600
0600
0C00
0C00
0C00
1800
1800
1800
3000
3000
3000
6000
6000
6000
F000
F000
ENDCHAR
STARTCHAR backslash
ENCODING 92
SWIDTH 267 0
DWIDTH 5 0
BBX 10 16 -1 -2
BITMAP
0600
0600
0C00
0C00
0600
0C00
0C00
0C00
0C00
0C00
0C00
1800
0C00
0C00
1800
1800
ENDCHAR
STARTCHAR bracketright
ENCODING 93
SWIDTH 267 0
DWIDTH 5 0
BBX 10 19 -1 -4
BITMAP
03C0
03C0
0180
0180
0180
0300
0300
0300
0600
0600
0600
0C00
0C00
0C00
1800
1800
1800
F000
F000
ENDCHAR
STARTCHAR asciicircum
ENCODING 94
SWIDTH 482 0
DWIDTH 9 0
BBX 8 3 0 11
BITMAP
1C
6C
C6
ENDCHAR
STARTCHAR underscore
ENCODING 95
SWIDTH 535 0
DWIDTH 10 0
BBX 10 2 -1 -3
BITMAP
FFC0
FFC0
ENDCHAR
STARTCHAR quoteleft
ENCODING 96
SWIDTH 321 0
DWIDTH 6 0
BBX 5 3 0 11
BITMAP
70
30
10
ENDCHAR
STARTCHAR a
ENCODING 97
SWIDTH 535 0
DWIDTH 10 0
BBX 12 10 0 0
BITMAP
0780
0FC0
39C0
00C0
07C0
3980
6180
6380
FF80
7980
ENDCHAR
STARTCHAR b
ENCODING 98
SWIDTH 589 0
DWIDTH 11 0
BBX 13 14 0 0
BITMAP
0C00
0C00
0C00
1800
1B80
1FE0
38C0
3060
3060
60C0
60C0
7180
FF00
DC00
ENDCHAR
STARTCHAR c
ENCODING 99
SWIDTH 535 0
DWIDTH 10 0
BBX 12 10 0 0
BITMAP
0380
0FE0
18C0
3060
3000
6000
60C0
3180
7F00
1C00
ENDCHAR
STARTCHAR d
ENCODING 100
SWIDTH 589 0
DWIDTH 11 0
BBX 13 14 0 0
BITMAP
0018
0018
0018
0030
03B0
0FF0
18E0
3060
3060
60C0
60C0
31C0
7F80
1D80
ENDCHAR
STARTCHAR e
ENCODING 101
SWIDTH 589 0
DWIDTH 11 0
BBX 12 10 0 0
BITMAP
0380
0FE0
18C0
3060
3FE0
7FC0
6000
30C0
7F00
1C00
ENDCHAR
STARTCHAR f
ENCODING 102
SWIDTH 214 0
DWIDTH 4 0
BBX 8 14 -1 0
BITMAP
03
07
06
0C
1E
1E
18
18
18
30
30
30
60
60
ENDCHAR
STARTCHAR g
ENCODING 103
SWIDTH 589 0
DWIDTH 11 0
BBX 13 14 0 -4
BITMAP
01D8
07F8
0638
1830
1830
1830
3060
18E0
1FE0
0EC0
60C0
3180
7F00
1C00
ENDCHAR
STARTCHAR h
ENCODING 104
SWIDTH 589 0
DWIDTH 11 0
BBX 13 14 0 0
BITMAP
0C00
0C00
0C00
1800
1B80
1FE0
38C0
3060
3060
60C0
60C0
60C0
C180
C180
ENDCHAR
STARTCHAR i
ENCODING 105
SWIDTH 214 0
DWIDTH 4 0
BBX 6 14 0 0
BITMAP
0C
0C
00
00
18
18
30
30
30
60
60
60
C0
C0
ENDCHAR
STARTCHAR j
ENCODING 106
SWIDTH 214 0
DWIDTH 4 0
BBX 9 18 -1 -4
BITMAP
0180
0300
0000
0000
0600
0600
0600
0C00
0C00
0C00
1800
1800
1800
3000
3000
3000
E000
C000
ENDCHAR
STARTCHAR k
ENCODING 107
SWIDTH 482 0
DWIDTH 9 0
BBX 12 14 0 0
BITMAP
0C00
0C00
0C00
1800
1860
18C0
3300
3600
3C00
7C00
6600
6300
C300
C100
ENDCHAR
STARTCHAR l
ENCODING 108
SWIDTH 214 0
DWIDTH 4 0
BBX 6 14 0 0
BITMAP
0C
0C
0C
18
18
18
30
30
30
60
60
60
C0
C0
ENDCHAR
STARTCHAR m
ENCODING 109
SWIDTH 857 0
DWIDTH 16 0
BBX 17 10 0 0
BITMAP
1B8E00
1FDF00
39E700
30C300
30C300
618600
618600
618600
C30C00
C30C00
ENDCHAR
STARTCHAR n
ENCODING 110
SWIDTH 589 0
DWIDTH 11 0
BBX 12 10 0 0
BITMAP
1B80
1FE0
38C0
3060
3060
60C0
60C0
60C0
C180
C180
ENDCHAR
STARTCHAR o
ENCODING 111
SWIDTH 589 0
DWIDTH 11 0
BBX 12 10 0 0
BITMAP
0380
0FE0
18C0
3060
3060
60C0
60C0
3180
7F00
1C00
ENDCHAR
STARTCHAR p
ENCODING 112
SWIDTH 589 0
DWIDTH 11 0
BBX 13 14 0 -4
BITMAP
0DC0
0FF0
0E30
1830
1830
1830
3060
38C0
3FC0
6E00
6000
6000
C000
C000
ENDCHAR
STARTCHAR q
ENCODING 113
SWIDTH 589 0
DWIDTH 11 0
BBX 13 14 0 -4
BITMAP
01D8
07F8
0638
1830
1830
1830
3060
18E0
1FE0
0EC0
00C0
00C0
0180
0180
ENDCHAR
STARTCHAR r
ENCODING 114
SWIDTH 321 0
DWIDTH 6 0
BBX 8 10 0 0
BITMAP
1B
1F
38
30
30
60
60
60
C0
C0
ENDCHAR
STARTCHAR s
ENCODING 115
SWIDTH 482 0
DWIDTH 9 0
BBX 10 10 0 0
BITMAP
0700
0F80
3180
3800
1E00
0E00
0300
6300
7C00
3800
ENDCHAR
STARTCHAR t
ENCODING 116
SWIDTH 214 0
DWIDTH 4 0
BBX 8 13 -1 0
BITMAP
06
06
0C
1E
1E
18
18
18
30
30
30
70
30
ENDCHAR
STARTCHAR u
ENCODING 117
SWIDTH 589 0
DWIDTH 11 0
BBX 12 10 0 0
BITMAP
1830
1830
3060
3060
3060
60C0
60C0
31C0
7F80
1D80
ENDCHAR
STARTCHAR v
ENCODING 118
SWIDTH 482 0
DWIDTH 9 0
BBX 12 10 -1 0
BITMAP
1830
1830
3060
18C0
18C0
1B00
1B00
1F00
1C00
1C00
ENDCHAR
STARTCHAR w
ENCODING 119
SWIDTH 750 0
DWIDTH 14 0
BBX 17 10 -1 0
BITMAP
186180
186180
18C600
19E600
19E600
1E7800
1E7800
0E7000
186000
186000
ENDCHAR
STARTCHAR x
ENCODING 120
SWIDTH 535 0
DWIDTH 10 0
BBX 13 10 -1 0
BITMAP
1818
1C38
1CE0
0FC0
0780
0F00
1F80
39C0
E1C0
C0C0
ENDCHAR
STARTCHAR y
ENCODING 121
SWIDTH 482 0
DWIDTH 9 0
BBX 13 14 -1 -4
BITMAP
0C18
0C18
0C18
0C60
0C60
06C0
0D80
0F80
0700
0E00
0C00
0C00
7800
7000
ENDCHAR
STARTCHAR z
ENCODING 122
SWIDTH 482 0
DWIDTH 9 0
BBX 12 10 -1 0
BITMAP
1FF0
1FF0
00C0
0180
0300
0C00
1800
3000
FF80
FF80
ENDCHAR
STARTCHAR braceleft
ENCODING 123
SWIDTH 321 0
DWIDTH 6 0
BBX 11 18 0 -4
BITMAP
0060
0180
0180
0180
0300
0300
0300
0C00
1800
1800
1800
0C00
0C00
1800
1800
1800
3000
1800
ENDCHAR
STARTCHAR bar
ENCODING 124
SWIDTH 214 0
DWIDTH 4 0
BBX 8 19 0 -5
BITMAP
03
03
06
06
06
0C
0C
0C
18
18
18
30
30
30
60
60
60
C0
C0
ENDCHAR
STARTCHAR braceright
ENCODING 125
SWIDTH 321 0
DWIDTH 6 0
BBX 11 18 -1 -4
BITMAP
0300
0300
0300
0300
0600
0600
0600
0600
0300
0300
0C00
1800
1800
3000
3000
3000
6000
C000
ENDCHAR
STARTCHAR asciitilde
ENCODING 126
SWIDTH 589 0
DWIDTH 11 0
BBX 10 3 0 11
BITMAP
38C0
DD80
C700
ENDCHAR
STARTCHAR nbsp
ENCODING 154
SWIDTH 267 0
DWIDTH 5 0
BBX 0 0 -1 0
BITMAP
ENDCHAR
STARTCHAR degree
ENCODING 156
SWIDTH 321 0
DWIDTH 6 0
BBX 6 5 0 9
BITMAP
38
6C
44
D8
70
ENDCHAR
STARTCHAR twosuperior
ENCODING 157
SWIDTH 267 0
DWIDTH 5 0
BBX 7 7 -1 7
BITMAP
1C
36
4C
18
30
C0
F8
ENDCHAR
STARTCHAR cyr-yo
ENCODING 163
SWIDTH 589 0
DWIDTH 11 0
BBX 13 12 0 0
BITMAP
0630
0000
0380
0FE0
18C0
3060
3FE0
7FC0
6000
30C0
7F00
1C00
ENDCHAR
STARTCHAR cyr-Yo
ENCODING 179
SWIDTH 696 0
DWIDTH 13 0
BBX 16 17 0 0
BITMAP
0306
0306
0000
0FFE
0FFE
0C00
1800
1800
1800
3FF0
3FF0
3000
6000
6000
6000
FFE0
FFE0
ENDCHAR
STARTCHAR copyright
ENCODING 191
SWIDTH 750 0
DWIDTH 14 0
BBX 17 14 -1 0
BITMAP
00F800
038E00
060300
08F200
199B00
130100
260200
260200
260200
666C00
23C800
301800
38E000
0F8000
ENDCHAR
STARTCHAR cyr-yu
ENCODING 192
SWIDTH 750 0
DWIDTH 14 0
BBX 15 10 0 0
BITMAP
1870
19FC
3318
360C
3E0C
7C18
6C18
6630
CFE0
C380
ENDCHAR
STARTCHAR cyr-a
ENCODING 193
SWIDTH 535 0
DWIDTH 10 0
BBX 12 10 0 0
BITMAP
0780
0FC0
39C0
00C0
07C0
3980
6180
6380
FF80
7980
ENDCHAR
STARTCHAR cyr-be
ENCODING 194
SWIDTH 589 0
DWIDTH 11 0
BBX 13 14 0 0
BITMAP
0030
03F0
07E0
1C00
1BC0
1FE0
38E0
3060
3060
60C0
60C0
71C0
7F00
3E00
ENDCHAR
STARTCHAR cyr-tse
ENCODING 195
SWIDTH 642 0
DWIDTH 12 0
BBX 14 12 0 -2
BITMAP
0C18
1830
1830
1830
3060
3060
3060
60C0
7FE0
7FE0
00C0
00C0
ENDCHAR
STARTCHAR cyr-de
ENCODING 196
SWIDTH 696 0
DWIDTH 13 0
BBX 16 12 0 -2
BITMAP
01FC
03F8
0318
0318
0630
0630
0630
1860
7FF8
7FF8
C030
C030
ENDCHAR
STARTCHAR cyr-ie
ENCODING 197
SWIDTH 589 0
DWIDTH 11 0
BBX 12 10 0 0
BITMAP
0380
0FE0
18C0
3060
3FE0
7FC0
6000
30C0
7F00
1C00
ENDCHAR
STARTCHAR cyr-ef
ENCODING 198
SWIDTH 750 0
DWIDTH 14 0
BBX 17 16 0 -5
BITMAP
003000
00FC00
07FE00
066600
0C6300
18C600
18C600
18C600
199800
1FF800
07E000
030000
030000
030000
060000
060000
ENDCHAR
STARTCHAR cyr-ghe
ENCODING 199
SWIDTH 482 0
DWIDTH 9 0
BBX 11 10 0 0
BITMAP
1FE0
1FE0
3000
3000
3000
6000
6000
6000
C000
C000
ENDCHAR
STARTCHAR cyr-kha
ENCODING 200
SWIDTH 535 0
DWIDTH 10 0
BBX 13 10 -1 0
BITMAP
1818
1C38
1CE0
0FC0
0780
0F00
1F80
39C0
E1C0
C0C0
ENDCHAR
STARTCHAR cyr-i
ENCODING 201
SWIDTH 589 0
DWIDTH 11 0
BBX 12 10 0 0
BITMAP
1830
1830
30E0
31E0
3360
6CC0
78C0
70C0
C180
C180
ENDCHAR
STARTCHAR cyr-i-short
ENCODING 202
SWIDTH 589 0
DWIDTH 11 0
BBX 13 12 0 0
BITMAP
0360
0380
1830
1830
30E0
31E0
3360
6CC0
78C0
70C0
C180
C180
ENDCHAR
STARTCHAR cyr-ka
ENCODING 203
SWIDTH 482 0
DWIDTH 9 0
BBX 11 10 0 0
BITMAP
1860
18C0
3300
3600
3C00
7C00
6600
6300
C300
C100
ENDCHAR
STARTCHAR cyr-el
ENCODING 204
SWIDTH 589 0
DWIDTH 11 0
BBX 12 10 0 0
BITMAP
07F0
07F0
0C60
0C60
0C60
18C0
18C0
18C0
7180
E180
ENDCHAR
STARTCHAR cyr-em
ENCODING 205
SWIDTH 750 0
DWIDTH 14 0
BBX 15 10 0 0
BITMAP
1806
1C0E
3C3C
366C
33CC
6318
6018
6018
C030
C030
ENDCHAR
STARTCHAR cyr-en
ENCODING 206
SWIDTH 589 0
DWIDTH 11 0
BBX 12 10 0 0
BITMAP
1830
1830
3060
3060
3FE0
7FC0
60C0
60C0
C180
C180
ENDCHAR
STARTCHAR cyr-o
ENCODING 207
SWIDTH 589 0
DWIDTH 11 0
BBX 12 10 0 0
BITMAP
0380
0FE0
18C0
3060
3060
60C0
60C0
3180
7F00
1C00
ENDCHAR
STARTCHAR cyr-pe
ENCODING 208
SWIDTH 589 0
DWIDTH 11 0
BBX 12 10 0 0
BITMAP
1FF0
1FF0
3060
3060
3060
60C0
60C0
60C0
C180
C180
ENDCHAR
STARTCHAR cyr-ya
ENCODING 209
SWIDTH 589 0
DWIDTH 11 0
BBX 12 10 0 0
BITMAP
0FF0
1FF0
3060
3060
3060
7FC0
3FC0
1CC0
7180
E180
ENDCHAR
STARTCHAR cyr-er
ENCODING 210
SWIDTH 589 0
DWIDTH 11 0
BBX 13 14 0 -4
BITMAP
0DC0
0FF0
0E30
1830
1830
1830
3060
38C0
3FC0
6E00
6000
6000
C000
C000
ENDCHAR
STARTCHAR cyr-es
ENCODING 211
SWIDTH 535 0
DWIDTH 10 0
BBX 12 10 0 0
BITMAP
0380
0FE0
18C0
3060
3000
6000
60C0
3180
7F00
1C00
ENDCHAR
STARTCHAR cyr-te
ENCODING 212
SWIDTH 642 0
DWIDTH 12 0
BBX 13 11 0 -1
BITMAP
1FF8
1FF8
0180
0300
0300
0300
0600
0600
0600
0C00
0C00
ENDCHAR
STARTCHAR cyr-u
ENCODING 213
SWIDTH 482 0
DWIDTH 9 0
BBX 13 14 -1 -4
BITMAP
0C18
0C18
0C18
0C60
0C60
06C0
0D80
0F80
0700
0E00
0C00
0C00
7800
7000
ENDCHAR
STARTCHAR cyr-zhe
ENCODING 214
SWIDTH 857 0
DWIDTH 16 0
BBX 19 11 -1 -1
BITMAP
1C30E0
0E31C0
073380
076E00
03FC00
03FC00
0EDC00
1CCE00
38C700
E18700
C18300
ENDCHAR
STARTCHAR cyr-ve
ENCODING 215
SWIDTH 535 0
DWIDTH 10 0
BBX 11 10 0 0
BITMAP
1FC0
1FC0
30C0
30C0
3F80
7F00
6180
6180
FF00
FE00
ENDCHAR
STARTCHAR cyr-ierik
ENCODING 216
SWIDTH 589 0
DWIDTH 11 0
BBX 12 10 0 0
BITMAP
1800
1800
3000
3FC0
3FE0
60C0
60C0
60C0
FF80
FF00
ENDCHAR
STARTCHAR cyr-iery
ENCODING 217
SWIDTH 750 0
DWIDTH 14 0
BBX 15 10 0 0
BITMAP
1806
1806
300C
3FCC
3FEC
60D8
60D8
60D8
FFB0
FF30
ENDCHAR
STARTCHAR cyr-z
ENCODING 218
SWIDTH 535 0
DWIDTH 10 0
BBX 11 10 0 0
BITMAP
0FC0
1FE0
30C0
00C0
0780
0F80
0180
6180
FF00
7E00
ENDCHAR
STARTCHAR cyr-sha
ENCODING 219
SWIDTH 750 0
DWIDTH 14 0
BBX 15 10 0 0
BITMAP
18C6
18C6
318C
318C
318C
6318
6318
6318
FFF0
FFF0
ENDCHAR
STARTCHAR cyr-e-rev
ENCODING 220
SWIDTH 535 0
DWIDTH 10 0
BBX 11 10 0 0
BITMAP
0780
0FC0
31C0
00C0
07C0
0F80
0180
6380
7E00
3C00
ENDCHAR
STARTCHAR cyr-shcha
ENCODING 221
SWIDTH 803 0
DWIDTH 15 0
BBX 17 12 0 -2
BITMAP
0C6300
18C600
18C600
18C600
318C00
318C00
318C00
631800
7FFC00
7FFC00
001800
001800
ENDCHAR
STARTCHAR cyr-che
ENCODING 222
SWIDTH 589 0
DWIDTH 11 0
BBX 12 10 0 0
BITMAP
1830
1830
3060
3060
3FE0
3FC0
00C0
00C0
0180
0180
ENDCHAR
STARTCHAR cyr-ier
ENCODING 223
SWIDTH 696 0
DWIDTH 13 0
BBX 14 10 0 0
BITMAP
1E00
1E00
0C00
0FF0
0FF8
1830
1830
1830
3FE0
3FC0
ENDCHAR
STARTCHAR cyr-Yu
ENCODING 224
SWIDTH 857 0
DWIDTH 16 0
BBX 19 14 0 0
BITMAP
0C1E00
0C7F80
0CE1C0
198180
1B00C0
1B00C0
3E0180
3E0180
360180
6C0300
660600
670E00
C7F800
C1E000
ENDCHAR
STARTCHAR cyr-A
ENCODING 225
SWIDTH 696 0
DWIDTH 13 0
BBX 17 14 -1 0
BITMAP
007000
007000
00D800
01B000
031800
031800
063000
0C1800
0FF800
3FF800
301800
301800
C01800
C01800
ENDCHAR
STARTCHAR cyr-Be
ENCODING 226
SWIDTH 642 0
DWIDTH 12 0
BBX 14 14 0 0
BITMAP
0FF8
0FF8
0C00
1800
1800
1800
3FE0
3FE0
3070
6060
6060
60E0
FF80
FF00
ENDCHAR
STARTCHAR cyr-Tse
ENCODING 227
SWIDTH 750 0
DWIDTH 14 0
BBX 17 16 0 -2
BITMAP
060300
060300
0C0600
0C0600
0C0600
180C00
180C00
180C00
301800
301800
301800
603000
7FF000
7FF800
003000
003000
ENDCHAR
STARTCHAR cyr-De
ENCODING 228
SWIDTH 803 0
DWIDTH 15 0
BBX 18 16 0 -2
BITMAP
00FF00
00FF00
018600
018600
018600
030C00
030C00
030C00
061800
061800
061800
183000
7FFC00
7FFC00
C01800
C01800
ENDCHAR
STARTCHAR cyr-Ie
ENCODING 229
SWIDTH 696 0
DWIDTH 13 0
BBX 15 14 0 0
BITMAP
0FFE
0FFE
0C00
1800
1800
1800
3FF0
3FF0
3000
6000
6000
6000
FFE0
FFE0
ENDCHAR
STARTCHAR cyr-Ef
ENCODING 230
SWIDTH 857 0
DWIDTH 16 0
BBX 18 14 0 0
BITMAP
00FC00
03FF00
073380
0C6300
186180
186180
30C300
30C300
30C300
318C00
399C00
1FF800
0FC000
030000
ENDCHAR
STARTCHAR cyr-Ghe
ENCODING 231
SWIDTH 696 0
DWIDTH 13 0
BBX 15 14 0 0
BITMAP
0FFE
0FFE
0C00
1800
1800
1800
3000
3000
3000
6000
6000
6000
C000
C000
ENDCHAR
STARTCHAR cyr-Kha
ENCODING 232
SWIDTH 750 0
DWIDTH 14 0
BBX 18 14 -1 0
BITMAP
0C00C0
0E01C0
070380
070E00
039C00
01F800
01E000
01E000
03F000
0E7000
1C3800
381C00
E01C00
C00C00
ENDCHAR
STARTCHAR cyr-I
ENCODING 233
SWIDTH 750 0
DWIDTH 14 0
BBX 16 14 0 0
BITMAP
0C03
0C03
0C07
181E
183E
1876
31CC
338C
370C
7C18
7818
7018
C030
C030
ENDCHAR
STARTCHAR cyr-I-short
ENCODING 234
SWIDTH 750 0
DWIDTH 14 0
BBX 17 17 0 0
BITMAP
018600
00FC00
007800
0C0300
0C0300
0C0700
181E00
183E00
187600
31CC00
338C00
370C00
7C1800
781800
701800
C03000
C03000
ENDCHAR
STARTCHAR cyr-Ka
ENCODING 235
SWIDTH 642 0
DWIDTH 12 0
BBX 15 14 0 0
BITMAP
0C1C
0C38
0C70
19C0
1B80
1F00
3C00
3E00
3700
6700
6380
61C0
C1C0
C0E0
ENDCHAR
STARTCHAR cyr-El
ENCODING 236
SWIDTH 696 0
DWIDTH 13 0
BBX 15 14 0 0
BITMAP
03FE
03FE
0306
060C
060C
060C
0C18
0C18
0C18
1830
1830
1830
7060
E060
ENDCHAR
STARTCHAR cyr-Em
ENCODING 237
SWIDTH 857 0
DWIDTH 16 0
BBX 18 14 0 0
BITMAP
0C00C0
0C00C0
0E01C0
1C0380
1E0780
1E0780
361B00
361B00
333300
666600
63C600
63C600
C30C00
C30C00
ENDCHAR
STARTCHAR cyr-En
ENCODING 238
SWIDTH 750 0
DWIDTH 14 0
BBX 16 14 0 0
BITMAP
0C03
0C03
0C03
1806
1806
1806
3FFC
3FFC
300C
6018
6018
6018
C030
C030
ENDCHAR
STARTCHAR cyr-O
ENCODING 239
SWIDTH 803 0
DWIDTH 15 0
BBX 17 14 0 0
BITMAP
00F800
03FE00
070700
0C0600
180300
180300
300600
300600
300600
600C00
301800
383800
3FE000
0F8000
ENDCHAR
STARTCHAR cyr-Pe
ENCODING 240
SWIDTH 750 0
DWIDTH 14 0
BBX 16 14 0 0
BITMAP
0FFF
0FFF
0C03
1806
1806
1806
300C
300C
300C
6018
6018
6018
C030
C030
ENDCHAR
STARTCHAR cyr-Ya
ENCODING 241
SWIDTH 696 0
DWIDTH 13 0
BBX 16 15 0 -1
BITMAP
01FF
07FE
0E06
0C06
180C
180C
1C0C
1FF8
0FF8
01D8
0730
0E30
1C30
7060
E060
ENDCHAR
STARTCHAR cyr-Er
ENCODING 242
SWIDTH 642 0
DWIDTH 12 0
BBX 15 14 0 0
BITMAP
0FF0
0FFC
0C0C
180C
180C
180C
3030
3FF0
3FC0
6000
6000
6000
C000
C000
ENDCHAR
STARTCHAR cyr-Es
ENCODING 243
SWIDTH 696 0
DWIDTH 13 0
BBX 16 14 0 0
BITMAP
00F8
03FE
0707
0C06
1800
1800
3000
3000
3000
6000
3018
3838
3FE0
0F80
ENDCHAR
STARTCHAR cyr-Te
ENCODING 244
SWIDTH 642 0
DWIDTH 12 0
BBX 16 14 -1 0
BITMAP
0FFF
0FFF
0060
00C0
00C0
00C0
0180
0180
0180
0300
0300
0300
0600
0600
ENDCHAR
STARTCHAR cyr-U
ENCODING 245
SWIDTH 642 0
DWIDTH 12 0
BBX 16 14 -1 0
BITMAP
0C03
0C03
0606
0C0C
0618
0618
0660
0660
03C0
0380
0300
0700
3C00
3800
ENDCHAR
STARTCHAR cyr-Zhe
ENCODING 246
SWIDTH 964 0
DWIDTH 18 0
BBX 22 14 -1 0
BITMAP
060C18
070C38
038C70
0399C0
01DB80
00FF00
00FC00
01FE00
03B700
0E6700
1C6380
3861C0
E0C1C0
C0C0C0
ENDCHAR
STARTCHAR cyr-Ve
ENCODING 247
SWIDTH 642 0
DWIDTH 12 0
BBX 14 14 0 0
BITMAP
0FF0
0FF8
0C1C
1818
1818
1838
3FE0
3FE0
3070
6060
6060
60E0
FF80
FF00
ENDCHAR
STARTCHAR cyr-Ierik
ENCODING 248
SWIDTH 696 0
DWIDTH 13 0
BBX 15 14 0 0
BITMAP
0C00
0C00
0C00
1800
1800
1FF0
3FF0
3038
3018
6030
6030
6070
FFC0
FF80
ENDCHAR
STARTCHAR cyr-Iery
ENCODING 249
SWIDTH 857 0
DWIDTH 16 0
BBX 18 14 0 0
BITMAP
0C00C0
0C00C0
0C00C0
180180
180180
1FF180
3FF300
303B00
301B00
603600
603600
607600
FFCC00
FF8C00
ENDCHAR
STARTCHAR cyr-Ze
ENCODING 250
SWIDTH 589 0
DWIDTH 11 0
BBX 13 14 0 0
BITMAP
03E0
07F0
0C18
0030
0030
0060
0380
0380
00C0
00C0
00C0
60C0
7F00
3E00
ENDCHAR
STARTCHAR cyr-Sha
ENCODING 251
SWIDTH 964 0
DWIDTH 18 0
BBX 20 14 0 0
BITMAP
0C1830
0C1830
0C1830
183060
183060
183060
3060C0
3060C0
3060C0
60C180
60C180
60C180
FFFF00
FFFF00
ENDCHAR
STARTCHAR cyr-E-rev
ENCODING 252
SWIDTH 696 0
DWIDTH 13 0
BBX 15 14 0 0
BITMAP
03F0
07F8
0E1C
001C
000C
000C
03F8
03F8
0018
0030
0060
70E0
7F80
3F00
ENDCHAR
STARTCHAR cyr-Shcha
ENCODING 253
SWIDTH 1017 0
DWIDTH 19 0
BBX 22 16 0 -2
BITMAP
060C18
060C18
0C1830
0C1830
0C1830
183060
183060
183060
3060C0
3060C0
3060C0
60C180
7FFFC0
7FFFC0
000180
000180
ENDCHAR
STARTCHAR cyr-Che
ENCODING 254
SWIDTH 750 0
DWIDTH 14 0
BBX 16 14 0 0
BITMAP
0C03
0C03
0C03
1806
1806
1C06
1FFC
0FFC
000C
0018
0018
0018
0030
0030
ENDCHAR
STARTCHAR cyr-Ier
ENCODING 255
SWIDTH 803 0
DWIDTH 15 0
BBX 17 14 0 0
BITMAP
0F0000
0F0000
030000
060000
060000
07FC00
0FFC00
0C0E00
0C0600
180C00
180C00
181C00
3FF000
3FE000
ENDCHAR
ENDFONT
