STARTFONT 2.1
COMMENT Copyright (C) 1990-1991 EWT Consulting
COMMENT Portions Copyright (C) 1994-1995 Cronyx Ltd.
COMMENT Changes Copyright (C) 1996-1997 by Andrey A. Chernov, Moscow, Russia.
COMMENT Modified by Serge Vakulenko, <vak@cronyx.ru>
COMMENT This software may be used, modified, copied, distributed, and sold,
COMMENT in both source and binary form provided that the copyright
COMMENT and these terms are retained. Under no circumstances is the author
COMMENT responsible for the proper functioning of this software, nor does
COMMENT the author assume any responsibility for damages incurred with its use.
COMMENT $XFree86: xc/fonts/bdf/cyrillic/crox6to.bdf,v 3.2.4.1 1998/02/01 16:04:16 robin Exp $
FONT -Cronyx-Times-Medium-I-Normal--34-240-100-100-P-124-KOI8-R
SIZE 24 96 96
FONTBOUNDINGBOX 44 34 -1 -8
STARTPROPERTIES 20
DEFAULT_CHAR 32
FONT_ASCENT 27
FONT_DESCENT 8
SPACING "P"
FONTNAME_REGISTRY ""
FOUNDRY "Cronyx"
FAMILY_NAME "Times"
WEIGHT_NAME "Medium"
SLANT "I"
SETWIDTH_NAME "Normal"
ADD_STYLE_NAME ""
AVERAGE_WIDTH 124
CHARSET_REGISTRY "KOI8"
CHARSET_ENCODING "R"
PIXEL_SIZE 34
POINT_SIZE 240
RESOLUTION_X 100
RESOLUTION_Y 100
COPYRIGHT "Copyright (C) 1990, 1991 EWT Consulting, Portions Copyright (C) 1994 Cronyx Ltd., Portions Copyright (C) 1996-1997 by Andrey A. Chernov, Moscow, Russia."
_XMBDFED_INFO "Edited with xmbdfed 2.7."
ENDPROPERTIES
CHARS 165
STARTCHAR space
ENCODING 32
SWIDTH 250 0
DWIDTH 8 0
BBX 0 0 -1 0
BITMAP
ENDCHAR
STARTCHAR exclam
ENCODING 33
SWIDTH 281 0
DWIDTH 9 0
BBX 10 23 2 0
BITMAP
0080
01C0
01C0
0380
0380
0380
0700
0700
0700
0E00
0400
0400
0800
0800
0800
0000
0000
0000
0000
2000
7000
E000
4000
ENDCHAR
STARTCHAR quotedbl
ENCODING 34
SWIDTH 375 0
DWIDTH 12 0
BBX 10 7 1 16
BITMAP
1080
39C0
7380
7380
2100
4200
4200
ENDCHAR
STARTCHAR numbersign
ENCODING 35
SWIDTH 500 0
DWIDTH 16 0
BBX 23 22 -1 0
BITMAP
000C30
000C30
001860
001860
001860
0030C0
03FFF8
03FFF8
00C300
00C300
00C300
018600
018600
018600
3FFF80
3FFF80
061800
0C3000
0C3000
0C3000
186000
186000
ENDCHAR
STARTCHAR dollar
ENCODING 36
SWIDTH 500 0
DWIDTH 16 0
BBX 23 28 0 -3
BITMAP
000180
000180
000300
000FC8
003B78
00E630
00E610
01E610
03CC00
03CC00
01EC00
03F800
01FC00
00FE00
007F00
003F80
003F80
006F80
006780
106780
20CF00
30CE00
38CE00
79B800
4FE000
018000
030000
030000
ENDCHAR
STARTCHAR percent
ENCODING 37
SWIDTH 875 0
DWIDTH 28 0
BBX 33 23 0 0
BITMAP
000F807000
0039E1E000
00707FE000
01C0FD8000
01C0430000
0380430000
07018C0000
0701180000
0703180000
070C600000
07B8C00000
01E0C1E000
00030E7000
00061C1000
0006381800
0018701000
0030E01000
0030E03000
00C1C04000
0181C0C000
0180E18000
0601EE0000
0C00780000
ENDCHAR
STARTCHAR ampersand
ENCODING 38
SWIDTH 781 0
DWIDTH 25 0
BBX 27 23 2 0
BITMAP
00070000
001DC000
0018C000
0060C000
0060C000
0060C000
00E30000
00760000
007C0000
00F80000
01F87F00
039C1C00
0E383000
0C1C3000
1C0E6000
381CC000
380F8000
380F8000
780E0000
380F0800
3E1F9800
3FE7E000
0F83C000
ENDCHAR
STARTCHAR quoteright
ENCODING 39
SWIDTH 281 0
DWIDTH 9 0
BBX 5 7 2 16
BITMAP
10
38
70
70
20
40
40
ENDCHAR
STARTCHAR parenleft
ENCODING 40
SWIDTH 343 0
DWIDTH 11 0
BBX 17 29 1 -7
BITMAP
000180
000300
000600
000C00
001800
001800
006000
006000
00E000
018000
018000
038000
070000
070000
070000
0E0000
0E0000
0E0000
0C0000
0C0000
0E0000
0C0000
0C0000
060000
0C0000
060000
060000
060000
030000
ENDCHAR
STARTCHAR parenright
ENCODING 41
SWIDTH 343 0
DWIDTH 11 0
BBX 17 29 0 -7
BITMAP
006000
003000
001800
003000
001800
001800
001800
001800
001C00
001800
001800
001C00
003800
003800
003800
007000
007000
007000
00C000
00C000
01C000
030000
030000
060000
0C0000
180000
180000
600000
C00000
ENDCHAR
STARTCHAR asterisk
ENCODING 42
SWIDTH 500 0
DWIDTH 16 0
BBX 15 14 1 11
BITMAP
0040
00E0
00E0
1DDC
1C9C
1EBC
0380
0380
3D78
7270
7770
0700
0E00
0400
ENDCHAR
STARTCHAR plus
ENCODING 43
SWIDTH 562 0
DWIDTH 18 0
BBX 21 16 0 1
BITMAP
000C00
000C00
001800
001800
001800
003000
003000
1FFFE0
3FFFC0
006000
006000
00C000
00C000
00C000
018000
018000
ENDCHAR
STARTCHAR comma
ENCODING 44
SWIDTH 250 0
DWIDTH 8 0
BBX 6 7 1 -3
BITMAP
18
3C
78
38
18
20
C0
ENDCHAR
STARTCHAR minus
ENCODING 45
SWIDTH 312 0
DWIDTH 10 0
BBX 8 2 0 8
BITMAP
FF
FF
ENDCHAR
STARTCHAR period
ENCODING 46
SWIDTH 250 0
DWIDTH 8 0
BBX 5 4 1 0
BITMAP
30
78
F0
60
ENDCHAR
STARTCHAR slash
ENCODING 47
SWIDTH 250 0
DWIDTH 8 0
BBX 16 24 -1 -1
BITMAP
0003
0006
0006
000C
0018
0018
0030
0060
0060
00C0
0180
0180
0180
0600
0600
0600
1800
1800
1800
3000
6000
6000
C000
C000
ENDCHAR
STARTCHAR zero
ENCODING 48
SWIDTH 500 0
DWIDTH 16 0
BBX 21 22 0 0
BITMAP
000F00
0039C0
00C0C0
01C0E0
018060
0700E0
0700E0
0700E0
0E01C0
0E01C0
0E01C0
1C0380
1C0380
1C0380
380700
380700
380700
300C00
381C00
181800
1CE000
078000
ENDCHAR
STARTCHAR one
ENCODING 49
SWIDTH 500 0
DWIDTH 16 0
BBX 15 22 3 0
BITMAP
0010
0030
00E0
01E0
0360
00C0
00C0
00C0
0180
0180
0180
0300
0300
0300
0600
0600
0600
0C00
0C00
0C00
3C00
FF00
ENDCHAR
STARTCHAR two
ENCODING 50
SWIDTH 500 0
DWIDTH 16 0
BBX 21 22 0 0
BITMAP
001F00
007FC0
0187C0
0303C0
0201E0
0003C0
0003C0
0003C0
000780
000700
000700
001C00
001800
003000
00C000
018000
030000
0C0000
180200
3FFE00
FFF800
FFF800
ENDCHAR
STARTCHAR three
ENCODING 51
SWIDTH 500 0
DWIDTH 16 0
BBX 20 22 1 0
BITMAP
001F00
007FC0
018780
0103C0
0001C0
000380
000300
000700
000C00
003800
01FE00
007E00
001E00
000F00
000E00
000E00
000E00
001C00
001800
703800
F0E000
3F8000
ENDCHAR
STARTCHAR four
ENCODING 52
SWIDTH 500 0
DWIDTH 16 0
BBX 21 22 0 0
BITMAP
0000E0
0000E0
0003C0
0007C0
000DC0
001B80
003380
006380
018700
018700
030700
0C0E00
180E00
1FFF80
3FFF00
3FFF00
001C00
003800
003800
003800
007000
007000
ENDCHAR
STARTCHAR five
ENCODING 53
SWIDTH 500 0
DWIDTH 16 0
BBX 20 22 0 0
BITMAP
001FE0
001FE0
003F80
004000
004000
010000
01C000
03F800
07FC00
003E00
000F00
000E00
000700
000700
000600
000600
000600
301800
781800
3C7000
3FC000
0F0000
ENDCHAR
STARTCHAR six
ENCODING 54
SWIDTH 500 0
DWIDTH 16 0
BBX 21 22 0 0
BITMAP
0003C0
000E00
003000
006000
00E000
018000
038000
030000
0E3C00
0EFF00
0F8780
1E0780
1C0380
1C0380
380700
380700
380700
381C00
381C00
1C3800
1FE000
078000
ENDCHAR
STARTCHAR seven
ENCODING 55
SWIDTH 500 0
DWIDTH 16 0
BBX 21 22 0 0
BITMAP
00FFF8
00FFF0
03FFE0
020060
0000C0
000180
000180
000300
000600
000600
000C00
001800
001800
003000
006000
006000
00C000
018000
018000
030000
060000
060000
ENDCHAR
STARTCHAR eight
ENCODING 56
SWIDTH 500 0
DWIDTH 16 0
BBX 21 22 0 0
BITMAP
001F80
0070E0
00C0C0
01C060
01C060
0380C0
01C0C0
01E180
01F600
00FE00
01FF00
063F00
0C0F00
0C0780
300700
300700
300300
600600
200400
300C00
303000
0FC000
ENDCHAR
STARTCHAR nine
ENCODING 57
SWIDTH 500 0
DWIDTH 16 0
BBX 21 22 0 0
BITMAP
000F00
003FC0
00E1C0
01C0E0
018060
0700E0
0700E0
0700E0
0E01C0
0E01C0
0F01C0
0F0780
07FB80
01E380
000600
000E00
000C00
003800
003000
006000
038000
1E0000
ENDCHAR
STARTCHAR colon
ENCODING 58
SWIDTH 250 0
DWIDTH 8 0
BBX 9 15 1 0
BITMAP
0300
0F00
0F00
0600
0000
0000
0000
0000
0000
0000
0000
3000
7800
F000
6000
ENDCHAR
STARTCHAR semicolon
ENCODING 59
SWIDTH 250 0
DWIDTH 8 0
BBX 10 18 1 -3
BITMAP
0180
0780
0780
0300
0000
0000
0000
0000
0000
0000
0000
0000
1800
7800
3800
1800
2000
C000
ENDCHAR
STARTCHAR less
ENCODING 60
SWIDTH 562 0
DWIDTH 18 0
BBX 21 16 0 2
BITMAP
000018
000078
0003C0
000F80
003C00
01E000
078000
1E0000
3C0000
0F0000
03C000
01E000
007800
001E00
000F00
000300
ENDCHAR
STARTCHAR equal
ENCODING 61
SWIDTH 562 0
DWIDTH 18 0
BBX 18 8 0 7
BITMAP
3FFFC0
3FFFC0
000000
000000
000000
000000
FFFF00
FFFF00
ENDCHAR
STARTCHAR greater
ENCODING 62
SWIDTH 562 0
DWIDTH 18 0
BBX 21 16 0 2
BITMAP
060000
078000
03C000
00F000
003C00
001E00
000780
0001E0
0003C0
000F00
003C00
01E000
078000
1E0000
F00000
C00000
ENDCHAR
STARTCHAR question
ENCODING 63
SWIDTH 437 0
DWIDTH 14 0
BBX 18 23 0 0
BITMAP
007E00
00C380
018380
030380
038380
038380
020600
000E00
000C00
003000
003000
002000
00C000
008000
008000
010000
000000
000000
000000
060000
0F0000
1E0000
0C0000
ENDCHAR
STARTCHAR at
ENCODING 64
SWIDTH 906 0
DWIDTH 29 0
BBX 35 26 0 -4
BITMAP
00007FC000
0001C07000
0007001C00
001C000C00
0038000600
0070000300
00E0000600
01C01CC300
01C072C300
0381838600
0703030300
0703030300
0E0C060600
0E0C0C0600
0E0C0C0600
1C18181800
0E0C3C1800
0E0E6E7000
1C07078000
0E00000000
0E00000000
0E00000000
0700000000
0380060000
01C0300000
007FC00000
ENDCHAR
STARTCHAR A
ENCODING 65
SWIDTH 687 0
DWIDTH 22 0
BBX 29 22 -1 0
BITMAP
00004000
00004000
0000C000
0001C000
0001E000
0007C000
0007C000
0007E000
001BC000
0019E000
0031E000
0061E000
0061E000
00C1E000
0181E000
03FFE000
0300F000
0601E000
0C00F000
0C00F000
3803F000
FE0FFC00
ENDCHAR
STARTCHAR B
ENCODING 66
SWIDTH 656 0
DWIDTH 21 0
BBX 26 22 0 0
BITMAP
01FFF800
007C1E00
00701E00
00700E00
00700F00
00E01E00
00E01E00
00E01C00
01C07800
01C0F000
01FFE000
0381E000
03807000
03807800
07007000
07007800
07007800
0E00F000
0E01E000
0E01E000
3E0F8000
FFFE0000
ENDCHAR
STARTCHAR C
ENCODING 67
SWIDTH 656 0
DWIDTH 21 0
BBX 26 22 0 0
BITMAP
0003F100
000F0F00
00780600
00F00200
00E00000
03C00000
03800000
07800000
0F000000
0F000000
0F000000
1E000000
1E000000
1E000000
3C000000
1E000000
1E000000
1E001000
1F002000
0FC04000
07FF0000
01FC0000
ENDCHAR
STARTCHAR D
ENCODING 68
SWIDTH 687 0
DWIDTH 22 0
BBX 27 22 0 0
BITMAP
01FFF800
007C3E00
00701E00
00700F00
00700700
00E00F00
00E00700
00E00780
01C00F00
01C00F00
01C00F00
03801E00
03801E00
03801E00
07003C00
07003800
07007800
0E00E000
0E01E000
0E03C000
3E1F0000
FFFC0000
ENDCHAR
STARTCHAR E
ENCODING 69
SWIDTH 625 0
DWIDTH 20 0
BBX 25 22 0 0
BITMAP
01FFFE00
007C0600
00700400
00700400
00700000
00E00000
00E00000
00E02000
01C04000
01C0C000
01FFC000
03818000
03808000
03808000
07000000
07000000
07000000
0E000000
0E002000
0E006000
3E038000
FFFF8000
ENDCHAR
STARTCHAR F
ENCODING 70
SWIDTH 562 0
DWIDTH 18 0
BBX 23 22 0 0
BITMAP
01FFFE
007C06
007004
007004
007000
00E000
00E000
00E020
01C040
01C0C0
01FFC0
038180
038080
038080
070000
070000
070000
0E0000
0E0000
0E0000
3E0000
FF8000
ENDCHAR
STARTCHAR G
ENCODING 71
SWIDTH 718 0
DWIDTH 23 0
BBX 28 22 1 0
BITMAP
0003F100
000F0F00
00780600
00F00200
00E00000
03C00000
03800000
07800000
0F000000
0F000000
0F000000
1E01FF00
1E007C00
1E003800
3C007000
1E007000
1E007000
1E00E000
1F00E000
0FC0C000
07FF0000
01FC0000
ENDCHAR
STARTCHAR H
ENCODING 72
SWIDTH 718 0
DWIDTH 23 0
BBX 28 22 0 0
BITMAP
01FF1FF0
007C07C0
00700700
00700700
00700700
00E00E00
00E00E00
00E00E00
01C01C00
01C01C00
01FFFC00
03803800
03803800
03803800
07007000
07007000
07007000
0E00E000
0E00E000
0E00E000
3E03E000
FF8FF800
ENDCHAR
STARTCHAR I
ENCODING 73
SWIDTH 343 0
DWIDTH 11 0
BBX 16 22 0 0
BITMAP
01FF
007C
0070
0070
0070
00E0
00E0
00E0
01C0
01C0
01C0
0380
0380
0380
0700
0700
0700
0E00
0E00
0E00
3E00
FF80
ENDCHAR
STARTCHAR J
ENCODING 74
SWIDTH 406 0
DWIDTH 13 0
BBX 19 22 -1 0
BITMAP
003FE0
000F80
000E00
000E00
000E00
001C00
001C00
001C00
003800
003800
003800
007000
007000
007000
00E000
00E000
00E000
21C000
71C000
71C000
730000
1E0000
ENDCHAR
STARTCHAR K
ENCODING 75
SWIDTH 687 0
DWIDTH 22 0
BBX 28 22 0 0
BITMAP
01FF1FC0
007C0700
00700C00
00701800
00703000
00E0C000
00E18000
00E30000
01CC0000
01DE0000
01F70000
03CE0000
03870000
03838000
07070000
07038000
0701C000
0E038000
0E01C000
0E00E000
3E03E000
FF8FF800
ENDCHAR
STARTCHAR L
ENCODING 76
SWIDTH 625 0
DWIDTH 20 0
BBX 25 22 0 0
BITMAP
01FF0000
007C0000
00700000
00700000
00700000
00E00000
00E00000
00E00000
01C00000
01C00000
01C00000
03800000
03800000
03800000
07000000
07000000
07000000
0E000000
0E002000
0E006000
3E038000
FFFF8000
ENDCHAR
STARTCHAR M
ENCODING 77
SWIDTH 875 0
DWIDTH 28 0
BBX 33 22 0 0
BITMAP
01FC001F80
007C001E00
0078007800
007C007800
005C007800
00BC01F000
009C01F000
009C027000
013C04E000
011C04E000
011E08E000
021C11C000
021C21C000
021E21C000
041C438000
041E838000
040E838000
081E070000
080E070000
080E070000
38081F0000
FE087FC000
ENDCHAR
STARTCHAR N
ENCODING 78
SWIDTH 718 0
DWIDTH 23 0
BBX 28 22 0 0
BITMAP
01F007F0
007801C0
00780100
00780100
007C0100
00BC0200
009E0200
009E0200
011E0400
010F0400
01078400
020F0800
02078800
0203C800
0403D000
0403D000
0401F000
0801E000
0800E000
0800E000
3800C000
FE004000
ENDCHAR
STARTCHAR O
ENCODING 79
SWIDTH 656 0
DWIDTH 21 0
BBX 26 22 0 0
BITMAP
0007F000
001E3C00
00701C00
00E00E00
00E00E00
03800E00
03800E00
07800F00
0F001E00
0F001E00
0F001E00
1E003C00
1E003C00
1E003C00
3C007800
1C007000
1C007000
1C01C000
1C01C000
0E038000
0F1E0000
03F80000
ENDCHAR
STARTCHAR P
ENCODING 80
SWIDTH 593 0
DWIDTH 19 0
BBX 24 22 0 0
BITMAP
01FFF8
007C3E
00703C
00701E
00701E
00E03C
00E03C
00E03C
01C0F0
01C1F0
01FFC0
038000
038000
038000
070000
070000
070000
0E0000
0E0000
0E0000
3E0000
FF8000
ENDCHAR
STARTCHAR Q
ENCODING 81
SWIDTH 656 0
DWIDTH 21 0
BBX 28 27 0 -5
BITMAP
0001FC00
000F1E00
001C0700
00380380
00700700
00E00380
00E00380
03C00780
03C00780
03C00780
07800F00
07800F00
07800F00
0F001E00
0F001E00
07001C00
0E003800
07007000
07007000
0701C000
03C78000
00FE0000
00780000
00380000
003C0000
003C0000
000F8000
ENDCHAR
STARTCHAR R
ENCODING 82
SWIDTH 656 0
DWIDTH 21 0
BBX 27 22 0 0
BITMAP
01FFF800
007C3E00
00703C00
00701E00
00701E00
00E03C00
00E03C00
00E03C00
01C0F000
01C1F000
01FFC000
039E0000
038E0000
03870000
070F0000
07070000
07038000
0E078000
0E038000
0E01C000
3E03C000
FF81F000
ENDCHAR
STARTCHAR S
ENCODING 83
SWIDTH 500 0
DWIDTH 16 0
BBX 21 22 0 0
BITMAP
001F90
0070F0
01C060
01C020
03C020
078000
078000
03C000
07E000
03F800
01FC00
00FE00
007F00
001F00
001F00
000F00
200F00
401E00
601C00
701C00
F07000
9FC000
ENDCHAR
STARTCHAR T
ENCODING 84
SWIDTH 656 0
DWIDTH 21 0
BBX 26 22 0 0
BITMAP
01FFFFC0
0181C0C0
02038080
02038080
00038000
00070000
00070000
00070000
000E0000
000E0000
000E0000
001C0000
001C0000
001C0000
00380000
00380000
00380000
00700000
00700000
00700000
01F00000
07FC0000
ENDCHAR
STARTCHAR U
ENCODING 85
SWIDTH 718 0
DWIDTH 23 0
BBX 28 22 0 0
BITMAP
01FF07F0
007C01C0
00700100
00700100
00700100
00E00200
00E00200
00E00200
01C00400
01C00400
01C00400
03800800
03800800
03800800
07001000
07001000
07001000
0F002000
07004000
07804000
07C30000
01FC0000
ENDCHAR
STARTCHAR V
ENCODING 86
SWIDTH 687 0
DWIDTH 22 0
BBX 29 22 -1 0
BITMAP
01FF01F8
007C0060
007000C0
00780080
00380180
00780200
00380200
00380600
00780800
00381800
003C1000
00386000
003C4000
001C4000
003D8000
003D0000
001F0000
003C0000
001C0000
00180000
00100000
00100000
ENDCHAR
STARTCHAR W
ENCODING 87
SWIDTH 1031 0
DWIDTH 33 0
BBX 40 22 -1 0
BITMAP
01FF1FF0FF
007E0FC03C
00780F0030
0038070020
003C078060
0038070080
003C0F8080
003C0F8180
0038170200
003C178200
001C338600
003C478800
001C438800
001CC39800
003D07A000
001D03A000
001F03E000
001C038000
001C038000
0008010000
0010020000
0010020000
ENDCHAR
STARTCHAR X
ENCODING 88
SWIDTH 718 0
DWIDTH 23 0
BBX 30 22 -1 0
BITMAP
00FF03F0
003C00C0
003C0100
001E0200
001E0400
001E0800
000F1000
000F2000
000F8000
00078000
0007C000
00078000
000BC000
0019E000
0023C000
0041E000
00C0F000
0101E000
0200F000
06007800
3800F800
FF03FE00
ENDCHAR
STARTCHAR Y
ENCODING 89
SWIDTH 687 0
DWIDTH 22 0
BBX 29 22 -1 0
BITMAP
01FF03F8
007C00E0
003C0080
001C0100
001E0100
001E0400
000E0800
000F0800
000F2000
0007C000
0007C000
00070000
00070000
00070000
000E0000
000E0000
000E0000
001C0000
001C0000
001C0000
007C0000
01FF0000
ENDCHAR
STARTCHAR Z
ENCODING 90
SWIDTH 656 0
DWIDTH 21 0
BBX 27 22 -1 0
BITMAP
007FFFE0
006003C0
00800780
00800F00
00001E00
00007800
00007800
0000F000
0003C000
00078000
00078000
001E0000
003C0000
00780000
00F00000
01E00000
03C00000
0F000000
0F000800
1E001800
7800E000
FFFFE000
ENDCHAR
STARTCHAR bracketleft
ENCODING 91
SWIDTH 343 0
DWIDTH 11 0
BBX 16 29 1 -6
BITMAP
007F
0078
0070
00E0
00E0
00E0
01C0
01C0
01C0
0380
0380
0380
0700
0700
0700
0E00
0E00
0E00
1C00
1C00
1C00
3800
3800
3800
7000
7000
7000
F000
FE00
ENDCHAR
STARTCHAR backslash
ENCODING 92
SWIDTH 250 0
DWIDTH 8 0
BBX 15 23 -1 0
BITMAP
0180
0180
0180
0180
0180
0180
0180
0180
0180
0180
0180
0180
0300
0180
0180
0300
0180
0180
0300
0300
0180
0300
0300
ENDCHAR
STARTCHAR bracketright
ENCODING 93
SWIDTH 343 0
DWIDTH 11 0
BBX 16 29 1 -6
BITMAP
007F
000F
0007
000E
000E
000E
001C
001C
001C
0038
0038
0038
0070
0070
0070
00E0
00E0
00E0
01C0
01C0
01C0
0380
0380
0380
0700
0700
0700
1E00
FE00
ENDCHAR
STARTCHAR asciicircum
ENCODING 94
SWIDTH 500 0
DWIDTH 16 0
BBX 16 7 0 16
BITMAP
00C0
01E0
07E0
0E70
1C38
7038
E01C
ENDCHAR
STARTCHAR underscore
ENCODING 95
SWIDTH 500 0
DWIDTH 16 0
BBX 16 2 -1 -3
BITMAP
FFFF
FFFF
ENDCHAR
STARTCHAR quoteleft
ENCODING 96
SWIDTH 343 0
DWIDTH 11 0
BBX 6 4 3 19
BITMAP
60
70
30
08
ENDCHAR
STARTCHAR a
ENCODING 97
SWIDTH 437 0
DWIDTH 14 0
BBX 17 15 0 0
BITMAP
00F800
071800
0E1C00
0E1C00
083800
007800
01F800
0E7000
1C7000
387000
70E000
70E000
79E000
7DF000
38E000
ENDCHAR
STARTCHAR b
ENCODING 98
SWIDTH 531 0
DWIDTH 17 0
BBX 22 23 0 0
BITMAP
003000
007000
01F000
00E000
00E000
00E000
01C000
01C000
01CF00
03EF80
0383C0
0381C0
0703C0
0701C0
0701C0
0E0380
0E0380
0E0380
1C0E00
1C0E00
1C1C00
1CF000
07C000
ENDCHAR
STARTCHAR c
ENCODING 99
SWIDTH 437 0
DWIDTH 14 0
BBX 17 15 0 0
BITMAP
007800
039C00
070E00
060E00
1C0800
1C0000
1C0000
380000
380000
380000
700000
780800
3C1000
3FC000
1F8000
ENDCHAR
STARTCHAR d
ENCODING 100
SWIDTH 531 0
DWIDTH 17 0
BBX 22 23 0 0
BITMAP
000018
000038
0000F8
000070
000070
000070
0000E0
0000E0
0078E0
038DC0
0703C0
0601C0
1C0380
1C0380
1C0380
380700
380700
380700
780E00
380E00
3E1F00
3FD800
0F1000
ENDCHAR
STARTCHAR e
ENCODING 101
SWIDTH 437 0
DWIDTH 14 0
BBX 17 15 0 0
BITMAP
007000
03F800
071C00
060C00
1C1C00
1C1C00
1FFC00
380000
380000
380000
780000
3C1800
3FF000
3FC000
0F0000
ENDCHAR
STARTCHAR f
ENCODING 102
SWIDTH 375 0
DWIDTH 12 0
BBX 17 23 0 0
BITMAP
001F00
003380
007180
00E000
00E000
00E000
01C000
01C000
07F000
038000
038000
038000
070000
070000
070000
0E0000
0E0000
0E0000
1C0000
1C0000
1C0000
7C0000
FE0000
ENDCHAR
STARTCHAR g
ENCODING 103
SWIDTH 468 0
DWIDTH 15 0
BBX 21 23 0 -8
BITMAP
001F80
0073F0
00C1C0
0181C0
0381C0
0381C0
070300
038300
03CE00
03F000
010000
020000
0C0000
0FF800
0FFE00
0FFE00
040700
180300
700600
780C00
7FF800
7FE000
1FC000
ENDCHAR
STARTCHAR h
ENCODING 104
SWIDTH 531 0
DWIDTH 17 0
BBX 22 23 0 0
BITMAP
003000
007000
01F000
00E000
00E000
00E000
01C000
01C000
01CF00
03BF00
03C780
038380
070700
070700
070700
0E0E00
0E0E00
0E0E00
1C1C00
1C1C00
1C1C00
7C7C00
FEFE00
ENDCHAR
STARTCHAR i
ENCODING 105
SWIDTH 281 0
DWIDTH 9 0
BBX 14 23 0 0
BITMAP
0020
0070
0070
0040
0000
0000
0000
0000
0040
0380
0F80
0380
0700
0700
0700
0E00
0E00
0E00
1C00
1C00
1C00
7C00
FE00
ENDCHAR
STARTCHAR j
ENCODING 106
SWIDTH 281 0
DWIDTH 9 0
BBX 16 31 -1 -8
BITMAP
0002
0007
000E
0004
0000
0000
0000
0000
0008
0038
00F8
0070
0070
0070
00E0
00E0
00E0
01C0
01C0
01C0
0380
0380
0380
0700
0700
0700
0E00
0E00
0C00
D800
F000
ENDCHAR
STARTCHAR k
ENCODING 107
SWIDTH 500 0
DWIDTH 16 0
BBX 22 23 0 0
BITMAP
003000
007000
01F000
00E000
00E000
00E000
01C000
01C000
01C780
038400
038800
039000
074000
078000
07C000
0FC000
0EE000
0E7000
1C7000
1C3800
1C1C00
7C1C00
FE7E00
ENDCHAR
STARTCHAR l
ENCODING 108
SWIDTH 281 0
DWIDTH 9 0
BBX 14 23 0 0
BITMAP
0030
0070
01F0
00E0
00E0
00E0
01C0
01C0
01C0
0380
0380
0380
0700
0700
0700
0E00
0E00
0E00
1C00
1C00
1C00
7C00
FE00
ENDCHAR
STARTCHAR m
ENCODING 109
SWIDTH 750 0
DWIDTH 24 0
BBX 28 15 0 0
BITMAP
00CF0F00
03BF3F00
0FC7C780
03838380
07070700
07070700
07070700
0E0E0E00
0E0E0E00
0E0E0E00
1C1C1C00
1C1C1C00
1C1C1C00
7C7C7C00
FEFEFE00
ENDCHAR
STARTCHAR n
ENCODING 110
SWIDTH 500 0
DWIDTH 16 0
BBX 20 15 0 0
BITMAP
00CF00
03BF00
0FC780
038380
070700
070700
070700
0E0E00
0E0E00
0E0E00
1C1C00
1C1C00
1C1C00
7C7C00
FEFE00
ENDCHAR
STARTCHAR o
ENCODING 111
SWIDTH 500 0
DWIDTH 16 0
BBX 19 15 0 0
BITMAP
003E00
01CF00
030780
070380
0C0780
1C0380
1C0380
380700
380700
380700
700C00
381C00
3C1800
3CE000
0F8000
ENDCHAR
STARTCHAR p
ENCODING 112
SWIDTH 531 0
DWIDTH 17 0
BBX 22 23 0 -8
BITMAP
0033C0
007DF0
01F078
00E070
00E078
00E038
01C070
01C070
01C070
0380E0
0381C0
0381C0
070700
079E00
07F800
0E0000
0E0000
0E0000
1C0000
1C0000
1C0000
7C0000
FE0000
ENDCHAR
STARTCHAR q
ENCODING 113
SWIDTH 500 0
DWIDTH 16 0
BBX 22 23 0 -8
BITMAP
001E10
0071F0
00E070
0180E0
0380E0
0380E0
0701C0
0701C0
0701C0
0E0380
0F0380
070380
0F8700
07FF00
01E700
000E00
000E00
000E00
001C00
001C00
001C00
007C00
00FE00
ENDCHAR
STARTCHAR r
ENCODING 114
SWIDTH 406 0
DWIDTH 13 0
BBX 16 15 0 0
BITMAP
00CE
03BE
0FCE
0380
0700
0700
0700
0E00
0E00
0E00
1C00
1C00
1C00
7C00
FE00
ENDCHAR
STARTCHAR s
ENCODING 115
SWIDTH 406 0
DWIDTH 13 0
BBX 15 15 1 0
BITMAP
01F4
0718
0E08
0E08
1E00
0E00
0F80
07C0
01E0
00F0
40E0
40E0
60E0
F380
9F00
ENDCHAR
STARTCHAR t
ENCODING 116
SWIDTH 281 0
DWIDTH 9 0
BBX 14 20 0 0
BITMAP
0020
0020
0060
01C0
01C0
07E0
0380
0380
0380
0700
0700
0700
0E00
0E00
0E00
1C00
1C00
1C80
1E00
0C00
ENDCHAR
STARTCHAR u
ENCODING 117
SWIDTH 500 0
DWIDTH 16 0
BBX 20 15 0 0
BITMAP
0783C0
070380
070380
070380
0E0700
0E0700
0E0700
1C0E00
1C0E00
1C0E00
381C00
381C00
1C3F00
1FB800
0F3000
ENDCHAR
STARTCHAR v
ENCODING 118
SWIDTH 562 0
DWIDTH 18 0
BBX 21 15 0 0
BITMAP
07F1F8
0380C0
038080
01C080
038200
01C200
01C200
01C800
01C800
00E800
01E000
00E000
00C000
008000
008000
ENDCHAR
STARTCHAR w
ENCODING 119
SWIDTH 812 0
DWIDTH 26 0
BBX 29 15 0 0
BITMAP
07F3F8F8
0381C040
0381C040
01C1E080
0383C100
0383E100
01C4E200
0389E400
01D0E800
01D0E800
03E1F000
01C0E000
01C0E000
01008000
01008000
ENDCHAR
STARTCHAR x
ENCODING 120
SWIDTH 500 0
DWIDTH 16 0
BBX 20 15 0 0
BITMAP
07E3E0
038300
01C600
01C400
01D800
00F000
00F000
00E000
01F000
017000
067000
043800
0C3800
303800
FCFE00
ENDCHAR
STARTCHAR y
ENCODING 121
SWIDTH 562 0
DWIDTH 18 0
BBX 23 23 0 -8
BITMAP
01FC7E
007018
007010
007020
007040
003840
007080
003900
003900
003A00
003C00
001C00
003000
001000
001000
004000
004000
008000
010000
020000
360000
F80000
700000
ENDCHAR
STARTCHAR z
ENCODING 122
SWIDTH 468 0
DWIDTH 15 0
BBX 18 15 0 0
BITMAP
03FFC0
060700
040E00
040E00
003800
007000
007000
01C000
038000
038000
0E0000
1C0400
1C0400
701800
FFF800
ENDCHAR
STARTCHAR braceleft
ENCODING 123
SWIDTH 406 0
DWIDTH 13 0
BBX 20 30 1 -6
BITMAP
000070
000380
000300
000700
000E00
000E00
000E00
001C00
001C00
001C00
003800
007000
007000
01C000
070000
01C000
01C000
01C000
00E000
01C000
01C000
01C000
038000
038000
038000
070000
070000
030000
070000
01C000
ENDCHAR
STARTCHAR bar
ENCODING 124
SWIDTH 281 0
DWIDTH 9 0
BBX 11 24 2 -1
BITMAP
00E0
01C0
01C0
01C0
0380
0380
0380
0700
0700
0700
0E00
0E00
0E00
1C00
1C00
1C00
3800
3800
3800
7000
7000
7000
E000
E000
ENDCHAR
STARTCHAR braceright
ENCODING 125
SWIDTH 406 0
DWIDTH 13 0
BBX 20 30 1 -6
BITMAP
003800
001C00
000C00
000E00
001C00
001C00
001C00
003800
003800
003800
007000
003800
003800
003800
000E00
003800
00E000
00E000
01C000
038000
038000
038000
070000
070000
070000
0E0000
0E0000
0C0000
380000
E00000
ENDCHAR
STARTCHAR asciitilde
ENCODING 126
SWIDTH 500 0
DWIDTH 16 0
BBX 14 4 0 19
BITMAP
1E04
3F8C
C7F0
81E0
ENDCHAR
STARTCHAR nbsp
ENCODING 154
SWIDTH 250 0
DWIDTH 8 0
BBX 0 0 -1 0
BITMAP
ENDCHAR
STARTCHAR degree
ENCODING 156
SWIDTH 343 0
DWIDTH 11 0
BBX 10 8 1 15
BITMAP
0F00
1F80
39C0
6180
6180
7380
7E00
3C00
ENDCHAR
STARTCHAR twosuperior
ENCODING 157
SWIDTH 250 0
DWIDTH 8 0
BBX 11 10 -1 13
BITMAP
0F80
10C0
0180
0180
0300
0C00
1800
3080
FE00
FC00
ENDCHAR
STARTCHAR cyr-yo
ENCODING 163
SWIDTH 375 0
DWIDTH 12 0
BBX 18 20 0 0
BITMAP
008200
01C700
01C700
010400
000000
007000
03F800
071C00
060C00
1C1C00
1C1C00
1FFC00
380000
380000
380000
780000
3C1800
3FF000
3FC000
0F0000
ENDCHAR
STARTCHAR cyr-Yo
ENCODING 179
SWIDTH 562 0
DWIDTH 18 0
BBX 26 26 0 0
BITMAP
00181800
003C3C00
00181800
00000000
01FFFE00
007C0600
00700400
00700400
00700000
00E00000
00E00000
00E02000
01C04000
01C0C000
01FFC000
03818000
03808000
03808000
07000000
07000000
07000000
0E000000
0E002000
0E006000
3E038000
FFFF8000
ENDCHAR
STARTCHAR copyright
ENCODING 191
SWIDTH 750 0
DWIDTH 24 0
BBX 29 22 0 0
BITMAP
0001F800
0007FE00
003C0F00
00700380
00E001C0
01800180
0303E8C0
030F38C0
0E1831C0
0C3810C0
0C3000C0
18600180
18700180
1C302380
18798600
181F0600
0C000C00
1C003800
0E007000
0781E000
03FF0000
00FC0000
ENDCHAR
STARTCHAR cyr-yu
ENCODING 192
SWIDTH 750 0
DWIDTH 24 0
BBX 27 15 0 0
BITMAP
07F07C00
07C38E00
03870700
038E0380
07180300
07380380
07F80380
0FF00700
0E700700
0E700700
1C701C00
1C701C00
1C383800
7C38E000
FE0F8000
ENDCHAR
STARTCHAR cyr-a
ENCODING 193
SWIDTH 406 0
DWIDTH 13 0
BBX 17 15 0 0
BITMAP
00F800
071800
0E1C00
0E1C00
083800
007800
01F800
0E7000
1C7000
387000
70E000
70E000
78E000
7EF000
386000
ENDCHAR
STARTCHAR cyr-be
ENCODING 194
SWIDTH 468 0
DWIDTH 15 0
BBX 21 25 0 0
BITMAP
000010
000030
001FC0
007000
00E000
01C000
038000
038000
070000
070000
077C00
0FFE00
0F0F00
0E0700
1C0E00
1C0700
1C0700
380E00
380E00
380E00
703800
703800
707000
73C000
3F0000
ENDCHAR
STARTCHAR cyr-tse
ENCODING 195
SWIDTH 593 0
DWIDTH 19 0
BBX 23 18 0 -3
BITMAP
03F8FE
03E0F8
01C070
01C070
0380E0
0380E0
0380E0
0701C0
0701C0
0701C0
0E0380
0E0380
0E0380
3E0F00
7FFFC0
0000C0
000080
000080
ENDCHAR
STARTCHAR cyr-de
ENCODING 196
SWIDTH 500 0
DWIDTH 16 0
BBX 20 18 0 -3
BITMAP
03FFF0
03C7C0
018380
018380
030700
030700
030700
060E00
060E00
060E00
0C1C00
0C1C00
0C1C00
307C00
7FFE00
600600
800400
800400
ENDCHAR
STARTCHAR cyr-ie
ENCODING 197
SWIDTH 437 0
DWIDTH 14 0
BBX 17 15 0 0
BITMAP
007000
03F800
071C00
060C00
1C1C00
1C1C00
1FFC00
380000
380000
380000
700000
381800
3C3000
3FC000
0F0000
ENDCHAR
STARTCHAR cyr-ef
ENCODING 198
SWIDTH 593 0
DWIDTH 19 0
BBX 24 23 0 -8
BITMAP
000FF8
003BBC
00639E
01C71C
01871E
03870E
070E1C
070E1C
070E1C
0E1C38
0E1C30
071C70
0F38C0
07BB80
01FE00
007000
007000
007000
00E000
00E000
00E000
03E000
07F000
ENDCHAR
STARTCHAR cyr-ghe
ENCODING 199
SWIDTH 437 0
DWIDTH 14 0
BBX 17 15 0 0
BITMAP
07FF80
07C300
038100
038100
070000
070000
070000
0E0000
0E0000
0E0000
1C0000
1C0000
1C0000
7C0000
FE0000
ENDCHAR
STARTCHAR cyr-kha
ENCODING 200
SWIDTH 531 0
DWIDTH 17 0
BBX 20 15 0 0
BITMAP
07E3E0
038300
01C600
01C400
01D800
00F000
00F000
00E000
01F000
017000
067000
043800
0C3800
303800
FCFE00
ENDCHAR
STARTCHAR cyr-i
ENCODING 201
SWIDTH 593 0
DWIDTH 19 0
BBX 22 15 0 0
BITMAP
07F0FC
07C1F0
0383E0
0382E0
070DC0
0709C0
0719C0
0E2380
0E6380
0E4380
1D8700
1D0700
1F0700
7C1F00
FC3F80
ENDCHAR
STARTCHAR cyr-i-short
ENCODING 202
SWIDTH 593 0
DWIDTH 19 0
BBX 23 19 0 0
BITMAP
000C60
000C60
000F00
000000
07F0FC
07C1F0
0383E0
0382E0
070DC0
0709C0
0719C0
0E2380
0E6380
0E4380
1D8700
1D0700
1F0700
7C1F00
FC3F80
ENDCHAR
STARTCHAR cyr-ka
ENCODING 203
SWIDTH 531 0
DWIDTH 17 0
BBX 21 15 0 0
BITMAP
07F0F0
07C2F0
0384E0
038800
072000
07C000
07C000
0FC000
0EE000
0E7000
1C7000
1C3800
1C1C00
7C1C00
FE7E00
ENDCHAR
STARTCHAR cyr-el
ENCODING 204
SWIDTH 593 0
DWIDTH 19 0
BBX 22 15 0 0
BITMAP
00FFFC
00F1F0
0060E0
0060E0
00C1C0
00C1C0
00C1C0
018380
018380
018380
030700
030700
730700
EC1F00
783F80
ENDCHAR
STARTCHAR cyr-em
ENCODING 205
SWIDTH 718 0
DWIDTH 23 0
BBX 26 15 0 0
BITMAP
07800FC0
07801F00
03803E00
03C02E00
0580DC00
05C09C00
04C19C00
09C23800
08C63800
08E43800
10D87000
10F07000
10707000
70C1F000
F843F800
ENDCHAR
STARTCHAR cyr-en
ENCODING 206
SWIDTH 593 0
DWIDTH 19 0
BBX 22 15 0 0
BITMAP
07F1FC
07C1F0
0380E0
0380E0
0701C0
0701C0
0701C0
0FFF80
0E0380
0E0380
1C0700
1C0700
1C0700
7C1F00
FE3F80
ENDCHAR
STARTCHAR cyr-o
ENCODING 207
SWIDTH 531 0
DWIDTH 17 0
BBX 20 15 0 0
BITMAP
003E00
01C700
038380
0701C0
0C0180
1C01C0
1C01C0
380380
380380
380380
380E00
380E00
1C1C00
1C7000
07C000
ENDCHAR
STARTCHAR cyr-pe
ENCODING 208
SWIDTH 593 0
DWIDTH 19 0
BBX 22 15 0 0
BITMAP
07FFFC
07C1F0
0380E0
0380E0
0701C0
0701C0
0701C0
0E0380
0E0380
0E0380
1C0700
1C0700
1C0700
7C1F00
FE3F80
ENDCHAR
STARTCHAR cyr-ya
ENCODING 209
SWIDTH 593 0
DWIDTH 19 0
BBX 22 15 0 0
BITMAP
003FFC
00E0F0
01C0E0
01C0E0
0381C0
0381C0
01C1C0
01FF80
007380
00E380
038700
070700
0E0700
381F00
F83F80
ENDCHAR
STARTCHAR cyr-er
ENCODING 210
SWIDTH 531 0
DWIDTH 17 0
BBX 22 23 0 -8
BITMAP
01FFC0
00FFF0
007078
00E070
00E078
00E038
01C070
01C070
01C070
0380E0
0381C0
0381C0
070700
071E00
07F800
0E0000
0E0000
0E0000
1C0000
1C0000
1C0000
7C0000
FE0000
ENDCHAR
STARTCHAR cyr-es
ENCODING 211
SWIDTH 437 0
DWIDTH 14 0
BBX 17 15 0 0
BITMAP
007800
039C00
070E00
060E00
1C0800
1C0000
1C0000
380000
380000
380000
780000
3C0800
3E1000
3FC000
0F8000
ENDCHAR
STARTCHAR cyr-te
ENCODING 212
SWIDTH 531 0
DWIDTH 17 0
BBX 20 15 0 0
BITMAP
07FFF0
0C7C60
083820
083820
007000
007000
007000
00E000
00E000
00E000
01C000
01C000
01C000
07C000
0FE000
ENDCHAR
STARTCHAR cyr-u
ENCODING 213
SWIDTH 531 0
DWIDTH 17 0
BBX 23 23 0 -8
BITMAP
01FC7E
007018
007010
007020
007040
003840
007080
003900
003900
003A00
003C00
001C00
003000
001000
001000
004000
004000
008000
010000
320000
7A0000
F80000
700000
ENDCHAR
STARTCHAR cyr-zhe
ENCODING 214
SWIDTH 843 0
DWIDTH 27 0
BBX 30 15 0 0
BITMAP
03C3F878
0F43E178
0741C170
0021C200
00238800
00139000
000FE000
003FE000
00777000
00E73800
038E3800
070E1C00
0E0E0E00
383E0E00
FE7F3F80
ENDCHAR
STARTCHAR cyr-ve
ENCODING 215
SWIDTH 406 0
DWIDTH 13 0
BBX 16 15 0 0
BITMAP
07FC
07FC
030C
030C
0618
0618
07F0
0FF0
0C38
0C18
1830
1830
1870
7FC0
FF80
ENDCHAR
STARTCHAR cyr-ierik
ENCODING 216
SWIDTH 468 0
DWIDTH 15 0
BBX 18 15 0 0
BITMAP
07F000
07C000
038000
038000
070000
070000
07F800
0FFC00
0E1E00
0E0E00
1C1C00
1C1C00
1C3C00
7FF000
FFC000
ENDCHAR
STARTCHAR cyr-iery
ENCODING 217
SWIDTH 687 0
DWIDTH 22 0
BBX 25 15 0 0
BITMAP
07F03F80
07C03E00
03801C00
03801C00
07003800
07003800
07F83800
0FFC7000
0E1E7000
0E0E7000
1C1CE000
1C1CE000
1C3CE000
7FF3E000
FFC7F000
ENDCHAR
STARTCHAR cyr-z
ENCODING 218
SWIDTH 406 0
DWIDTH 13 0
BBX 16 15 0 0
BITMAP
01FC
07FC
0E1E
0C0E
001C
001C
0038
03E0
0070
0038
0070
6070
7070
7FC0
1F80
ENDCHAR
STARTCHAR cyr-sha
ENCODING 219
SWIDTH 843 0
DWIDTH 27 0
BBX 30 15 0 0
BITMAP
07F3F9FC
07C3E1F0
0381C0E0
0381C0E0
070381C0
070381C0
070381C0
0E070380
0E070380
0E070380
1C0E0700
1C0E0700
1C0E0700
7C3E1F00
FFFFFF80
ENDCHAR
STARTCHAR cyr-e-rev
ENCODING 220
SWIDTH 437 0
DWIDTH 14 0
BBX 17 15 0 0
BITMAP
01FC00
07FC00
0E0E00
0C0700
100E00
000E00
000E00
07FC00
001C00
001C00
403800
603800
707000
7FC000
1F8000
ENDCHAR
STARTCHAR cyr-shcha
ENCODING 221
SWIDTH 843 0
DWIDTH 27 0
BBX 31 18 0 -3
BITMAP
03F9FCFE
03E1F0F8
01C0E070
01C0E070
0381C0E0
0381C0E0
0381C0E0
070381C0
070381C0
070381C0
0E070380
0E070380
0E070380
3E1F0F00
7FFFFFC0
000000C0
00000080
00000080
ENDCHAR
STARTCHAR cyr-che
ENCODING 222
SWIDTH 593 0
DWIDTH 19 0
BBX 22 15 0 0
BITMAP
07F1FC
07C1F0
0380E0
0380E0
0701C0
0701C0
0701C0
0E0380
07FF80
000380
000700
000700
000700
001F00
003F80
ENDCHAR
STARTCHAR cyr-ier
ENCODING 223
SWIDTH 562 0
DWIDTH 18 0
BBX 21 15 0 0
BITMAP
07FE00
0CF800
0C7000
087000
10E000
00E000
00FF00
01FF80
01C3C0
01C1C0
038380
038380
038780
0FFE00
1FF800
ENDCHAR
STARTCHAR cyr-Yu
ENCODING 224
SWIDTH 937 0
DWIDTH 30 0
BBX 35 22 0 0
BITMAP
01FF03F800
007C0F1E00
0070380E00
0070700700
0070700700
00E1C00700
00E1C00700
00E3C00780
01C7800F00
01C7800F00
01FF800F00
038F001E00
038F001E00
038F001E00
071E003C00
070E003800
070E003800
0E0E00E000
0E0E00E000
0E0701C000
3E078F0000
FF81FC0000
ENDCHAR
STARTCHAR cyr-A
ENCODING 225
SWIDTH 687 0
DWIDTH 22 0
BBX 29 22 -1 0
BITMAP
00004000
00004000
0000C000
0001C000
0001E000
0007C000
0007C000
0007E000
001BC000
0019E000
0031E000
0061E000
0061E000
00C1E000
0181E000
03FFE000
0300F000
0601E000
0C00F000
0C00F000
3803F000
FE0FFC00
ENDCHAR
STARTCHAR cyr-Be
ENCODING 226
SWIDTH 656 0
DWIDTH 21 0
BBX 26 22 0 0
BITMAP
01FFFF00
007C0300
00700200
00700200
00700000
00E00000
00E00000
00E00000
01C00000
01FFE000
01E0F000
03807000
03807800
03803800
07007800
07007800
07007800
0E00F000
0E01E000
0E01E000
3E0F8000
FFFE0000
ENDCHAR
STARTCHAR cyr-Tse
ENCODING 227
SWIDTH 718 0
DWIDTH 23 0
BBX 29 26 0 -4
BITMAP
00FF8FF8
003E03E0
001C01C0
00380380
00380380
00380380
00700700
00700700
00700700
00E00E00
00E00E00
00E00E00
01C01C00
01C01C00
01C01C00
03803800
03803800
03803800
07007000
07007000
0F80F800
7FFFFC00
00001C00
00000C00
00000800
00000800
ENDCHAR
STARTCHAR cyr-De
ENCODING 228
SWIDTH 750 0
DWIDTH 24 0
BBX 30 26 0 -4
BITMAP
003FFFF0
001E03E0
000C01E0
001803C0
001803C0
001803C0
00300780
00300780
00300780
00600F00
00600F00
00600F00
00C01E00
00C01E00
00C01E00
01803C00
01803C00
01803C00
03007800
06007800
0C00FC00
7FFFFE00
70000E00
60000600
80000400
80000400
ENDCHAR
STARTCHAR cyr-Ie
ENCODING 229
SWIDTH 625 0
DWIDTH 20 0
BBX 25 22 0 0
BITMAP
01FFFE00
007C0600
00700400
00700400
00700000
00E00000
00E00000
00E02000
01C04000
01C0C000
01FFC000
03818000
03808000
03808000
07000000
07000000
07000000
0E000000
0E002000
0E006000
3E038000
FFFF8000
ENDCHAR
STARTCHAR cyr-Ef
ENCODING 230
SWIDTH 781 0
DWIDTH 25 0
BBX 31 24 0 -2
BITMAP
0003FF80
001C71C0
003870E0
00707070
00E0E0E0
01C0E070
01C0E070
0781C0F0
0781C0F0
0781C0F0
0F0381E0
0F0381E0
0F0381E0
1E0703C0
1E0703C0
0E070380
1C0E0700
0E0E0E00
0E0E0E00
0E1C3800
071C7000
01FFC000
00380000
01FF0000
ENDCHAR
STARTCHAR cyr-Ghe
ENCODING 231
SWIDTH 593 0
DWIDTH 19 0
BBX 24 22 0 0
BITMAP
01FFFF
007C03
007002
007002
007000
00E000
00E000
00E000
01C000
01C000
01C000
038000
038000
038000
070000
070000
070000
0E0000
0E0000
0E0000
3E0000
FFC000
ENDCHAR
STARTCHAR cyr-Kha
ENCODING 232
SWIDTH 718 0
DWIDTH 23 0
BBX 30 22 -1 0
BITMAP
00FF03F0
003C00C0
003C0100
001E0200
001E0400
001E0800
000F1000
000F2000
000F8000
00078000
0007C000
00078000
000BC000
0019E000
0023C000
0041E000
00C0F000
0101E000
0200F000
06007800
3800F800
FF03FE00
ENDCHAR
STARTCHAR cyr-I
ENCODING 233
SWIDTH 750 0
DWIDTH 24 0
BBX 29 22 0 0
BITMAP
01FF01F8
007C03E0
00700780
00700F80
00700B80
00E03700
00E02700
00E06700
01C08E00
01C18E00
01C10E00
03861C00
03841C00
038C1C00
07103800
07303800
07203800
0EC07000
0E807000
0F807000
3E01F000
FE07FC00
ENDCHAR
STARTCHAR cyr-I-short
ENCODING 234
SWIDTH 750 0
DWIDTH 24 0
BBX 30 25 0 0
BITMAP
00004100
00007700
00003800
01FF01F8
007C03E0
00700780
00700F80
00700B80
00E03700
00E02700
00E06700
01C08E00
01C18E00
01C10E00
03861C00
03841C00
038C1C00
07103800
07303800
07203800
0EC07000
0E807000
0F807000
3E01F000
FE07FC00
ENDCHAR
STARTCHAR cyr-Ka
ENCODING 235
SWIDTH 718 0
DWIDTH 23 0
BBX 28 22 0 0
BITMAP
01FF01E0
007C03F0
00700DE0
007018C0
00703000
00E0C000
00E18000
00E30000
01CC0000
01DE0000
01F70000
03CE0000
03870000
03838000
07070000
07038000
0701C000
0E038000
0E01C000
0E00E000
3E03E000
FF8FF800
ENDCHAR
STARTCHAR cyr-El
ENCODING 236
SWIDTH 812 0
DWIDTH 26 0
BBX 31 22 0 0
BITMAP
001FFFF8
000F01F0
000C01E0
000C01E0
000C01E0
001803C0
001803C0
001803C0
00300780
00300780
00300780
00600F00
00600F00
00600F00
00C01E00
00C01E00
00C01E00
01803C00
31803C00
79803C00
F600FC00
7C03FF00
ENDCHAR
STARTCHAR cyr-Em
ENCODING 237
SWIDTH 875 0
DWIDTH 28 0
BBX 33 22 0 0
BITMAP
01FC001F80
007C001E00
0078007800
005C007800
005C007800
00BC017000
009C017000
009C027000
013C04E000
011C04E000
011E08E000
021C11C000
021C21C000
021E21C000
041C438000
041E838000
040E838000
081E070000
080E070000
080E070000
38081F0000
FE087FC000
ENDCHAR
STARTCHAR cyr-En
ENCODING 238
SWIDTH 718 0
DWIDTH 23 0
BBX 28 22 0 0
BITMAP
01FF1FF0
007C07C0
00700700
00700700
00700700
00E00E00
00E00E00
00E00E00
01C01C00
01C01C00
01FFFC00
03803800
03803800
03803800
07007000
07007000
07007000
0E00E000
0E00E000
0E00E000
3E03E000
FF8FF800
ENDCHAR
STARTCHAR cyr-O
ENCODING 239
SWIDTH 656 0
DWIDTH 21 0
BBX 26 22 0 0
BITMAP
0007F000
001E3C00
00701C00
00E00E00
00E00E00
03800E00
03800E00
07800F00
0F001E00
0F001E00
0F001E00
1E003C00
1E003C00
1E003C00
3C007800
1C007000
1C007000
1C01C000
1C01C000
0E038000
0F1E0000
03F80000
ENDCHAR
STARTCHAR cyr-Pe
ENCODING 240
SWIDTH 718 0
DWIDTH 23 0
BBX 28 22 0 0
BITMAP
01FFFFF0
007C07C0
00700700
00700700
00700700
00E00E00
00E00E00
00E00E00
01C01C00
01C01C00
01C01C00
03803800
03803800
03803800
07007000
07007000
07007000
0E00E000
0E00E000
0E00E000
3E03E000
FF8FF800
ENDCHAR
STARTCHAR cyr-Ya
ENCODING 241
SWIDTH 687 0
DWIDTH 22 0
BBX 28 22 -1 0
BITMAP
0003FFF0
000F87C0
001E0700
003C0700
003C0700
00780E00
00780E00
00780E00
00781C00
007C1C00
001FFC00
000F3800
000E3800
001C3800
00787000
00707000
00E07000
03C0E000
0380E000
0700E000
1E03E000
FC0FF800
ENDCHAR
STARTCHAR cyr-Er
ENCODING 242
SWIDTH 593 0
DWIDTH 19 0
BBX 24 22 0 0
BITMAP
01FFF8
007C3E
00703C
00701E
00701E
00E03C
00E03C
00E03C
01C078
01C078
01C0F0
0383E0
03FF80
038000
070000
070000
070000
0E0000
0E0000
0E0000
3E0000
FF8000
ENDCHAR
STARTCHAR cyr-Es
ENCODING 243
SWIDTH 656 0
DWIDTH 21 0
BBX 26 22 0 0
BITMAP
0003F100
000F0F00
00780600
00F00200
00E00000
03C00000
03800000
07800000
0F000000
0F000000
0F000000
1E000000
1E000000
1E000000
3C000000
1E000000
1E000000
1E001000
1F002000
0FC04000
07FF0000
01FC0000
ENDCHAR
STARTCHAR cyr-Te
ENCODING 244
SWIDTH 656 0
DWIDTH 21 0
BBX 26 22 0 0
BITMAP
01FFFFC0
0181C0C0
02038080
02038080
00038000
00070000
00070000
00070000
000E0000
000E0000
000E0000
001C0000
001C0000
001C0000
00380000
00380000
00380000
00700000
00700000
00700000
01F00000
07FC0000
ENDCHAR
STARTCHAR cyr-U
ENCODING 245
SWIDTH 687 0
DWIDTH 22 0
BBX 29 22 -1 0
BITMAP
01FF07F8
007801E0
00780180
00380300
00380300
00380C00
00381800
003C1800
00386000
00386000
001CC000
00398000
001B0000
001F0000
001C0000
001C0000
00180000
00300000
0C600000
1E600000
3D800000
1F000000
ENDCHAR
STARTCHAR cyr-Zhe
ENCODING 246
SWIDTH 1031 0
DWIDTH 33 0
BBX 40 22 -1 0
BITMAP
00781FF03C
00FC07C07E
01EC0701BC
00C6070318
0003070600
00030E1800
00018E3000
0000CE6000
0001DDC000
0003FFE000
00079CF000
000E38E000
001C387000
0038383800
0070707000
00E0703800
01C0701C00
0380E03800
0700E01C00
0E00E00E00
3E03E03E00
FF8FF8FF80
ENDCHAR
STARTCHAR cyr-Ve
ENCODING 247
SWIDTH 656 0
DWIDTH 21 0
BBX 26 22 0 0
BITMAP
01FFF800
007C1E00
00701E00
00700E00
00700F00
00E01E00
00E01E00
00E01C00
01C07800
01C0F000
01FFE000
0381E000
03807000
03807800
07007000
07007800
07007800
0E00F000
0E01E000
0E01E000
3E0F8000
FFFE0000
ENDCHAR
STARTCHAR cyr-Ierik
ENCODING 248
SWIDTH 656 0
DWIDTH 21 0
BBX 26 22 0 0
BITMAP
01FF0000
007C0000
00700000
00700000
00700000
00E00000
00E00000
00E00000
01C00000
01FFE000
01E0F000
03807000
03807800
03803800
07007800
07007800
07007800
0E00F000
0E01E000
0E01E000
3E0F8000
FFFE0000
ENDCHAR
STARTCHAR cyr-Iery
ENCODING 249
SWIDTH 906 0
DWIDTH 29 0
BBX 34 22 0 0
BITMAP
01FF007FC0
007C001F00
0070001C00
0070001C00
0070001C00
00E0003800
00E0003800
00E0003800
01C0007000
01FFE07000
01E0F07000
038070E000
038078E000
038038E000
070079C000
070079C000
070079C000
0E00F38000
0E01E38000
0E01E38000
3E0F8F8000
FFFE3FE000
ENDCHAR
STARTCHAR cyr-Ze
ENCODING 250
SWIDTH 656 0
DWIDTH 21 0
BBX 24 22 2 0
BITMAP
011FE0
01F078
030078
02003C
02003C
000078
000078
008070
0101E0
0183C0
01FF80
030780
0201C0
0201E0
0001C0
0001E0
0001E0
4003C0
4003C0
600780
F83E00
8FF800
ENDCHAR
STARTCHAR cyr-Sha
ENCODING 251
SWIDTH 1031 0
DWIDTH 33 0
BBX 38 22 0 0
BITMAP
01FF3FE7FC
007C0F81F0
00700E01C0
00700E01C0
00700E01C0
00E01C0380
00E01C0380
00E01C0380
01C0380700
01C0380700
01C0380700
0380700E00
0380700E00
0380700E00
0700E01C00
0700E01C00
0700E01C00
0E01C03800
0E01C03800
0E01C03800
3E07C0F800
FFFFFFFE00
ENDCHAR
STARTCHAR cyr-E-rev
ENCODING 252
SWIDTH 656 0
DWIDTH 21 0
BBX 24 22 2 0
BITMAP
011FF0
01F03C
03003C
02001E
02001E
00003C
00003C
00003C
010078
018078
01FFF8
0300F0
0200F0
0000F0
0001E0
0001E0
0001E0
4003C0
4003C0
600780
F83E00
8FF800
ENDCHAR
STARTCHAR cyr-Shcha
ENCODING 253
SWIDTH 1031 0
DWIDTH 33 0
BBX 39 26 0 -4
BITMAP
00FF9FF3FE
003E07C0F8
001C038070
00380700E0
00380700E0
00380700E0
00700E01C0
00700E01C0
00700E01C0
00E01C0380
00E01C0380
00E01C0380
01C0380700
01C0380700
01C0380700
0380700E00
0380700E00
0380700E00
0700E01C00
0700E01C00
0F81F03E00
7FFFFFFF00
0000000700
0000000300
0000000200
0000000200
ENDCHAR
STARTCHAR cyr-Che
ENCODING 254
SWIDTH 718 0
DWIDTH 23 0
BBX 28 22 0 0
BITMAP
01FF1FF0
007C07C0
00700700
00700700
00700700
00E00E00
00E00E00
00E00E00
01C01C00
01C01C00
01C01C00
01FFF800
00003800
00003800
00007000
00007000
00007000
0000E000
0000E000
0000E000
0003E000
000FF800
ENDCHAR
STARTCHAR cyr-Ier
ENCODING 255
SWIDTH 750 0
DWIDTH 24 0
BBX 29 22 0 0
BITMAP
01FFE000
01CF8000
030E0000
020E0000
020E0000
001C0000
001C0000
001C0000
00380000
003FFC00
003C1E00
00700E00
00700F00
00700700
00E00F00
00E00F00
00E00F00
01C01E00
01C03C00
01C03C00
07C1F000
1FFFC000
ENDCHAR
ENDFONT
