STARTFONT 2.1
COMMENT Copyright (C) 1990-1991 EWT Consulting
COMMENT Portions Copyright (C) 1994-1995 Cronyx Ltd.
COMMENT Changes Copyright (C) 1996-1997 by Andrey A. Chernov, Moscow, Russia.
COMMENT Modified by Serge Vakulenko, <vak@cronyx.ru>
COMMENT This software may be used, modified, copied, distributed, and sold,
COMMENT in both source and binary form provided that the copyright
COMMENT and these terms are retained. Under no circumstances is the author
COMMENT responsible for the proper functioning of this software, nor does
COMMENT the author assume any responsibility for damages incurred with its use.
COMMENT $XFree86: xc/fonts/bdf/cyrillic/crox3ho.bdf,v 3.2.4.1 1998/02/01 16:03:46 robin Exp $
FONT -Cronyx-Helvetica-Medium-O-Normal--17-120-100-100-P-67-KOI8-R
SIZE 12 96 96
FONTBOUNDINGBOX 21 18 -1 -4
STARTPROPERTIES 20
DEFAULT_CHAR 32
FONT_ASCENT 16
FONT_DESCENT 4
SPACING "P"
FONTNAME_REGISTRY ""
FOUNDRY "Cronyx"
FAMILY_NAME "Helvetica"
WEIGHT_NAME "Medium"
SLANT "O"
SETWIDTH_NAME "Normal"
ADD_STYLE_NAME ""
AVERAGE_WIDTH 67
CHARSET_REGISTRY "KOI8"
CHARSET_ENCODING "R"
PIXEL_SIZE 17
POINT_SIZE 120
RESOLUTION_X 100
RESOLUTION_Y 100
COPYRIGHT "Copyright (C) 1990, 1991 EWT Consulting, Portions Copyright (C) 1994 Cronyx Ltd., Portions Copyright (C) 1996-1997 by Andrey A. Chernov, Moscow, Russia."
_XMBDFED_INFO "Edited with xmbdfed 2.7."
ENDPROPERTIES
CHARS 165
STARTCHAR space
ENCODING 32
SWIDTH 250 0
DWIDTH 4 0
BBX 0 0 -1 0
BITMAP
ENDCHAR
STARTCHAR exclam
ENCODING 33
SWIDTH 250 0
DWIDTH 4 0
BBX 5 12 1 0
BITMAP
08
10
10
10
20
20
20
40
40
00
00
80
ENDCHAR
STARTCHAR quotedbl
ENCODING 34
SWIDTH 375 0
DWIDTH 6 0
BBX 5 4 0 8
BITMAP
48
48
90
90
ENDCHAR
STARTCHAR numbersign
ENCODING 35
SWIDTH 562 0
DWIDTH 9 0
BBX 12 12 -1 0
BITMAP
0120
0240
0240
0FE0
0900
0900
0900
1200
7F00
2400
4800
4800
ENDCHAR
STARTCHAR dollar
ENCODING 36
SWIDTH 562 0
DWIDTH 9 0
BBX 11 14 0 -1
BITMAP
0100
0380
0540
1240
1200
0A00
0E00
0500
0480
0900
4900
2A00
3800
1000
ENDCHAR
STARTCHAR percent
ENCODING 37
SWIDTH 875 0
DWIDTH 14 0
BBX 16 12 0 0
BITMAP
0701
1104
1108
1110
1C40
0080
0100
0470
0888
1088
4110
80E0
ENDCHAR
STARTCHAR ampersand
ENCODING 38
SWIDTH 687 0
DWIDTH 11 0
BBX 14 12 0 0
BITMAP
0300
0900
0900
0900
0C00
0C00
1200
4240
4140
4080
4280
3C40
ENDCHAR
STARTCHAR quoteright
ENCODING 39
SWIDTH 187 0
DWIDTH 3 0
BBX 2 4 0 8
BITMAP
40
40
80
80
ENDCHAR
STARTCHAR parenleft
ENCODING 40
SWIDTH 312 0
DWIDTH 5 0
BBX 8 16 0 -3
BITMAP
01
02
04
04
08
10
10
10
20
20
20
40
20
20
40
20
ENDCHAR
STARTCHAR parenright
ENCODING 41
SWIDTH 312 0
DWIDTH 5 0
BBX 8 16 0 -3
BITMAP
04
02
04
04
02
04
04
04
08
08
08
10
20
20
40
80
ENDCHAR
STARTCHAR asterisk
ENCODING 42
SWIDTH 375 0
DWIDTH 6 0
BBX 6 5 0 8
BITMAP
10
54
38
50
88
ENDCHAR
STARTCHAR plus
ENCODING 43
SWIDTH 562 0
DWIDTH 9 0
BBX 9 7 0 2
BITMAP
0400
0400
0800
7F00
0800
1000
1000
ENDCHAR
STARTCHAR comma
ENCODING 44
SWIDTH 250 0
DWIDTH 4 0
BBX 2 2 0 -1
BITMAP
40
80
ENDCHAR
STARTCHAR minus
ENCODING 45
SWIDTH 312 0
DWIDTH 5 0
BBX 5 1 -1 5
BITMAP
F8
ENDCHAR
STARTCHAR period
ENCODING 46
SWIDTH 250 0
DWIDTH 4 0
BBX 1 1 1 0
BITMAP
80
ENDCHAR
STARTCHAR slash
ENCODING 47
SWIDTH 250 0
DWIDTH 4 0
BBX 8 13 -1 -1
BITMAP
01
01
02
02
04
08
08
08
20
20
20
40
80
ENDCHAR
STARTCHAR zero
ENCODING 48
SWIDTH 562 0
DWIDTH 9 0
BBX 11 12 0 0
BITMAP
0380
0880
0880
1040
2080
2080
2080
4100
4100
2200
4400
3800
ENDCHAR
STARTCHAR one
ENCODING 49
SWIDTH 562 0
DWIDTH 9 0
BBX 7 12 1 0
BITMAP
02
1C
04
04
08
08
08
10
10
10
20
20
ENDCHAR
STARTCHAR two
ENCODING 50
SWIDTH 562 0
DWIDTH 9 0
BBX 11 12 0 0
BITMAP
0380
0880
1040
1040
0080
0100
0200
0800
1000
2000
8000
FE00
ENDCHAR
STARTCHAR three
ENCODING 51
SWIDTH 562 0
DWIDTH 9 0
BBX 11 12 0 0
BITMAP
0380
0880
1040
1040
0100
0E00
0100
0100
4100
4100
4400
3800
ENDCHAR
STARTCHAR four
ENCODING 52
SWIDTH 562 0
DWIDTH 9 0
BBX 11 12 0 0
BITMAP
0040
0180
0180
0280
0900
0900
1100
4200
7F00
0200
0400
0400
ENDCHAR
STARTCHAR five
ENCODING 53
SWIDTH 562 0
DWIDTH 9 0
BBX 11 12 0 0
BITMAP
0FE0
1000
1000
1000
2E00
3100
2080
0100
4100
4100
4400
3800
ENDCHAR
STARTCHAR six
ENCODING 54
SWIDTH 562 0
DWIDTH 9 0
BBX 11 12 0 0
BITMAP
0380
0880
1040
1000
2E00
3100
2080
4100
4100
4100
4400
3800
ENDCHAR
STARTCHAR seven
ENCODING 55
SWIDTH 562 0
DWIDTH 9 0
BBX 11 12 0 0
BITMAP
0FE0
0040
0040
0080
0100
0200
0200
0400
0800
0800
1000
1000
ENDCHAR
STARTCHAR eight
ENCODING 56
SWIDTH 562 0
DWIDTH 9 0
BBX 11 12 0 0
BITMAP
0380
0880
1040
1040
1100
0E00
1100
4100
4100
4100
4400
3800
ENDCHAR
STARTCHAR nine
ENCODING 57
SWIDTH 562 0
DWIDTH 9 0
BBX 11 12 0 0
BITMAP
0380
0880
1040
1040
2080
2080
1180
1D00
0100
4100
4400
3800
ENDCHAR
STARTCHAR colon
ENCODING 58
SWIDTH 250 0
DWIDTH 4 0
BBX 4 9 1 0
BITMAP
10
00
00
00
00
00
00
00
80
ENDCHAR
STARTCHAR semicolon
ENCODING 59
SWIDTH 250 0
DWIDTH 4 0
BBX 5 10 0 -1
BITMAP
08
00
00
00
00
00
00
00
40
80
ENDCHAR
STARTCHAR less
ENCODING 60
SWIDTH 562 0
DWIDTH 9 0
BBX 9 7 0 2
BITMAP
0180
0600
3000
4000
3000
1800
0600
ENDCHAR
STARTCHAR equal
ENCODING 61
SWIDTH 562 0
DWIDTH 9 0
BBX 8 4 0 4
BITMAP
7F
00
00
FE
ENDCHAR
STARTCHAR greater
ENCODING 62
SWIDTH 562 0
DWIDTH 9 0
BBX 9 7 0 2
BITMAP
3000
0C00
0600
0100
0600
3000
C000
ENDCHAR
STARTCHAR question
ENCODING 63
SWIDTH 562 0
DWIDTH 9 0
BBX 11 12 0 0
BITMAP
0380
0880
1040
1040
0080
0100
0200
0800
0800
0000
0000
1000
ENDCHAR
STARTCHAR at
ENCODING 64
SWIDTH 1000 0
DWIDTH 16 0
BBX 18 12 0 0
BITMAP
007E00
030200
040100
087080
111100
221100
221100
446400
43B800
200000
303000
0FC000
ENDCHAR
STARTCHAR A
ENCODING 65
SWIDTH 687 0
DWIDTH 11 0
BBX 15 12 -1 0
BITMAP
0040
0080
0140
0140
0440
0440
0820
1040
3FE0
2020
8020
8020
ENDCHAR
STARTCHAR B
ENCODING 66
SWIDTH 687 0
DWIDTH 11 0
BBX 12 12 1 0
BITMAP
0FC0
1040
1020
1020
2080
3F00
2080
4080
4080
4080
8200
FC00
ENDCHAR
STARTCHAR C
ENCODING 67
SWIDTH 687 0
DWIDTH 11 0
BBX 14 12 0 0
BITMAP
01E0
0C30
0810
1008
2000
2000
2000
4000
4020
2040
6180
1E00
ENDCHAR
STARTCHAR D
ENCODING 68
SWIDTH 750 0
DWIDTH 12 0
BBX 13 12 1 0
BITMAP
0FC0
1060
1020
1010
2020
2020
2020
4040
4040
4080
8300
FC00
ENDCHAR
STARTCHAR E
ENCODING 69
SWIDTH 687 0
DWIDTH 11 0
BBX 12 12 1 0
BITMAP
0FF0
1000
1000
1000
2000
3F80
2000
4000
4000
4000
8000
FF00
ENDCHAR
STARTCHAR F
ENCODING 70
SWIDTH 625 0
DWIDTH 10 0
BBX 12 12 1 0
BITMAP
0FF0
1000
1000
1000
2000
3F80
2000
4000
4000
4000
8000
8000
ENDCHAR
STARTCHAR G
ENCODING 71
SWIDTH 812 0
DWIDTH 13 0
BBX 14 12 0 0
BITMAP
01E0
0C30
0810
1008
2000
2000
21F0
4020
4020
2060
61C0
1E40
ENDCHAR
STARTCHAR H
ENCODING 72
SWIDTH 750 0
DWIDTH 12 0
BBX 12 12 1 0
BITMAP
0810
1020
1020
1020
2040
3FC0
2040
4080
4080
4080
8100
8100
ENDCHAR
STARTCHAR I
ENCODING 73
SWIDTH 312 0
DWIDTH 5 0
BBX 5 12 1 0
BITMAP
08
10
10
10
20
20
20
40
40
40
80
80
ENDCHAR
STARTCHAR J
ENCODING 74
SWIDTH 500 0
DWIDTH 8 0
BBX 10 12 -1 0
BITMAP
0040
0080
0080
0080
0100
0100
0100
0200
4200
4200
8400
7800
ENDCHAR
STARTCHAR K
ENCODING 75
SWIDTH 625 0
DWIDTH 10 0
BBX 12 12 1 0
BITMAP
0820
1080
1100
1200
2800
3000
2800
4800
4400
4200
8200
8100
ENDCHAR
STARTCHAR L
ENCODING 76
SWIDTH 562 0
DWIDTH 9 0
BBX 11 12 1 0
BITMAP
0800
1000
1000
1000
2000
2000
2000
4000
4000
4000
8000
FE00
ENDCHAR
STARTCHAR M
ENCODING 77
SWIDTH 812 0
DWIDTH 13 0
BBX 13 12 1 0
BITMAP
0808
1010
1830
1830
28A0
28A0
2520
4A40
4440
4440
8080
8080
ENDCHAR
STARTCHAR N
ENCODING 78
SWIDTH 687 0
DWIDTH 11 0
BBX 11 12 1 0
BITMAP
0820
1840
1840
1440
2880
2480
2480
4500
4500
4300
8600
8200
ENDCHAR
STARTCHAR O
ENCODING 79
SWIDTH 750 0
DWIDTH 12 0
BBX 14 12 0 0
BITMAP
01E0
0C30
0810
1008
2010
2010
2010
4020
4020
2040
6180
1E00
ENDCHAR
STARTCHAR P
ENCODING 80
SWIDTH 625 0
DWIDTH 10 0
BBX 12 12 1 0
BITMAP
0FC0
1040
1020
1020
2040
2080
3F00
4000
4000
4000
8000
8000
ENDCHAR
STARTCHAR Q
ENCODING 81
SWIDTH 750 0
DWIDTH 12 0
BBX 14 13 0 -1
BITMAP
01E0
0618
0810
1008
1008
2010
2010
2010
4220
2140
30C0
1E80
0040
ENDCHAR
STARTCHAR R
ENCODING 82
SWIDTH 750 0
DWIDTH 12 0
BBX 13 12 1 0
BITMAP
0FC0
1040
1020
1020
2040
2080
3F00
4100
4080
4080
8100
8080
ENDCHAR
STARTCHAR S
ENCODING 83
SWIDTH 687 0
DWIDTH 11 0
BBX 13 12 0 0
BITMAP
03E0
0820
1010
1000
1000
0F80
0040
0040
0040
4040
4100
3E00
ENDCHAR
STARTCHAR T
ENCODING 84
SWIDTH 562 0
DWIDTH 9 0
BBX 13 12 -1 0
BITMAP
0FF8
0100
0100
0100
0200
0200
0200
0400
0400
0400
0800
0800
ENDCHAR
STARTCHAR U
ENCODING 85
SWIDTH 750 0
DWIDTH 12 0
BBX 12 12 1 0
BITMAP
0810
1020
1020
1020
2040
2040
2040
4080
4080
4080
4200
3C00
ENDCHAR
STARTCHAR V
ENCODING 86
SWIDTH 687 0
DWIDTH 11 0
BBX 15 12 -1 0
BITMAP
0802
1004
0808
0808
0820
0820
0440
0880
0500
0500
0400
0400
ENDCHAR
STARTCHAR W
ENCODING 87
SWIDTH 937 0
DWIDTH 15 0
BBX 19 12 -1 0
BITMAP
080020
102040
082080
082080
10A100
08A200
08A200
0A2800
0A2800
041000
082000
082000
ENDCHAR
STARTCHAR X
ENCODING 88
SWIDTH 687 0
DWIDTH 11 0
BBX 15 12 -1 0
BITMAP
0802
0808
0410
0220
0280
0100
0100
0500
0880
1040
4040
8020
ENDCHAR
STARTCHAR Y
ENCODING 89
SWIDTH 687 0
DWIDTH 11 0
BBX 15 12 -1 0
BITMAP
0802
0808
0410
0220
0280
0100
0100
0200
0200
0200
0400
0400
ENDCHAR
STARTCHAR Z
ENCODING 90
SWIDTH 625 0
DWIDTH 10 0
BBX 14 12 -1 0
BITMAP
07FC
0008
0010
0020
0080
0100
0200
0800
1000
2000
8000
FF80
ENDCHAR
STARTCHAR bracketleft
ENCODING 91
SWIDTH 250 0
DWIDTH 4 0
BBX 7 15 0 -3
BITMAP
06
08
08
08
10
10
10
20
20
20
40
40
40
80
C0
ENDCHAR
STARTCHAR backslash
ENCODING 92
SWIDTH 250 0
DWIDTH 4 0
BBX 8 13 -1 -1
BITMAP
08
08
10
10
08
10
10
10
10
10
10
20
10
ENDCHAR
STARTCHAR bracketright
ENCODING 93
SWIDTH 250 0
DWIDTH 4 0
BBX 7 15 0 -3
BITMAP
06
04
04
04
08
08
08
10
10
10
20
20
20
40
C0
ENDCHAR
STARTCHAR asciicircum
ENCODING 94
SWIDTH 437 0
DWIDTH 7 0
BBX 6 3 0 10
BITMAP
10
50
88
ENDCHAR
STARTCHAR underscore
ENCODING 95
SWIDTH 562 0
DWIDTH 9 0
BBX 9 1 -1 -2
BITMAP
FF80
ENDCHAR
STARTCHAR quoteleft
ENCODING 96
SWIDTH 312 0
DWIDTH 5 0
BBX 4 3 0 10
BITMAP
40
40
20
ENDCHAR
STARTCHAR a
ENCODING 97
SWIDTH 562 0
DWIDTH 9 0
BBX 11 9 0 0
BITMAP
0F80
2080
0080
0080
3F00
4100
4100
8200
7D00
ENDCHAR
STARTCHAR b
ENCODING 98
SWIDTH 562 0
DWIDTH 9 0
BBX 11 12 0 0
BITMAP
0800
1000
1000
1700
3100
2080
2080
4100
4100
4100
C400
B800
ENDCHAR
STARTCHAR c
ENCODING 99
SWIDTH 500 0
DWIDTH 8 0
BBX 10 9 0 0
BITMAP
0700
1100
2080
2000
4000
4000
4100
4400
3800
ENDCHAR
STARTCHAR d
ENCODING 100
SWIDTH 562 0
DWIDTH 9 0
BBX 11 12 0 0
BITMAP
0020
0040
0040
0740
1180
2080
2080
4100
4100
4100
4600
3A00
ENDCHAR
STARTCHAR e
ENCODING 101
SWIDTH 562 0
DWIDTH 9 0
BBX 10 9 0 0
BITMAP
0700
1100
2080
2080
7F00
4000
4100
4400
3800
ENDCHAR
STARTCHAR f
ENCODING 102
SWIDTH 312 0
DWIDTH 5 0
BBX 9 12 -1 0
BITMAP
0180
0400
0400
1F00
0800
0800
0800
1000
1000
1000
2000
2000
ENDCHAR
STARTCHAR g
ENCODING 103
SWIDTH 562 0
DWIDTH 9 0
BBX 11 13 0 -4
BITMAP
03A0
0460
1040
1040
1040
2080
2080
1180
1D00
0100
0100
0400
7800
ENDCHAR
STARTCHAR h
ENCODING 104
SWIDTH 562 0
DWIDTH 9 0
BBX 11 12 0 0
BITMAP
0800
1000
1000
1700
3100
2080
2080
4100
4100
4100
8200
8200
ENDCHAR
STARTCHAR i
ENCODING 105
SWIDTH 187 0
DWIDTH 3 0
BBX 5 12 0 0
BITMAP
08
00
00
10
20
20
20
40
40
40
80
80
ENDCHAR
STARTCHAR j
ENCODING 106
SWIDTH 187 0
DWIDTH 3 0
BBX 7 16 -1 -4
BITMAP
02
00
00
04
04
08
08
08
10
10
10
20
20
20
40
80
ENDCHAR
STARTCHAR k
ENCODING 107
SWIDTH 500 0
DWIDTH 8 0
BBX 11 12 0 0
BITMAP
0800
1000
1000
1080
2200
2400
2800
7000
4800
4400
8400
8200
ENDCHAR
STARTCHAR l
ENCODING 108
SWIDTH 187 0
DWIDTH 3 0
BBX 5 12 0 0
BITMAP
08
10
10
10
20
20
20
40
40
40
80
80
ENDCHAR
STARTCHAR m
ENCODING 109
SWIDTH 812 0
DWIDTH 13 0
BBX 14 9 0 0
BITMAP
1630
3290
2108
2108
4210
4210
4210
8420
8420
ENDCHAR
STARTCHAR n
ENCODING 110
SWIDTH 562 0
DWIDTH 9 0
BBX 10 9 0 0
BITMAP
1700
3100
2080
2080
4100
4100
4100
8200
8200
ENDCHAR
STARTCHAR o
ENCODING 111
SWIDTH 562 0
DWIDTH 9 0
BBX 10 9 0 0
BITMAP
0700
1100
2080
2080
4100
4100
4100
4400
3800
ENDCHAR
STARTCHAR p
ENCODING 112
SWIDTH 562 0
DWIDTH 9 0
BBX 11 13 0 -4
BITMAP
0B80
0C40
1040
1040
1040
2080
2080
3100
5C00
4000
4000
8000
8000
ENDCHAR
STARTCHAR q
ENCODING 113
SWIDTH 562 0
DWIDTH 9 0
BBX 11 13 0 -4
BITMAP
03A0
0460
1040
1040
1040
2080
2080
1180
1D00
0100
0100
0200
0200
ENDCHAR
STARTCHAR r
ENCODING 114
SWIDTH 312 0
DWIDTH 5 0
BBX 7 9 0 0
BITMAP
16
30
20
20
40
40
40
80
80
ENDCHAR
STARTCHAR s
ENCODING 115
SWIDTH 500 0
DWIDTH 8 0
BBX 9 9 0 0
BITMAP
0F00
2100
2000
2000
3C00
0200
0200
8400
7800
ENDCHAR
STARTCHAR t
ENCODING 116
SWIDTH 312 0
DWIDTH 5 0
BBX 9 12 -1 0
BITMAP
0200
0400
0400
1F00
0800
0800
0800
1000
1000
1000
2000
1000
ENDCHAR
STARTCHAR u
ENCODING 117
SWIDTH 562 0
DWIDTH 9 0
BBX 10 9 0 0
BITMAP
1040
2080
2080
2080
4100
4100
4100
4600
3A00
ENDCHAR
STARTCHAR v
ENCODING 118
SWIDTH 437 0
DWIDTH 7 0
BBX 10 9 -1 0
BITMAP
1040
2080
1100
1100
1400
1400
0800
1000
1000
ENDCHAR
STARTCHAR w
ENCODING 119
SWIDTH 687 0
DWIDTH 11 0
BBX 14 9 -1 0
BITMAP
1004
2108
1110
1110
1540
1540
0880
1100
1100
ENDCHAR
STARTCHAR x
ENCODING 120
SWIDTH 437 0
DWIDTH 7 0
BBX 10 9 -1 0
BITMAP
1040
1100
1100
0A00
0800
1400
2200
4400
8200
ENDCHAR
STARTCHAR y
ENCODING 121
SWIDTH 437 0
DWIDTH 7 0
BBX 11 13 -1 -4
BITMAP
0820
0820
0880
0880
0500
0A00
0400
0400
1000
1000
2000
4000
8000
ENDCHAR
STARTCHAR z
ENCODING 122
SWIDTH 500 0
DWIDTH 8 0
BBX 9 9 0 0
BITMAP
1F80
0100
0200
0400
1000
1000
2000
8000
FC00
ENDCHAR
STARTCHAR braceleft
ENCODING 123
SWIDTH 312 0
DWIDTH 5 0
BBX 8 15 0 -3
BITMAP
01
04
04
04
08
08
08
20
10
10
20
20
20
40
20
ENDCHAR
STARTCHAR bar
ENCODING 124
SWIDTH 312 0
DWIDTH 5 0
BBX 5 13 1 -1
BITMAP
08
08
10
10
10
20
20
20
40
40
40
80
80
ENDCHAR
STARTCHAR braceright
ENCODING 125
SWIDTH 312 0
DWIDTH 5 0
BBX 8 15 0 -3
BITMAP
04
04
04
04
08
08
08
08
10
10
20
20
20
40
80
ENDCHAR
STARTCHAR asciitilde
ENCODING 126
SWIDTH 562 0
DWIDTH 9 0
BBX 8 3 0 10
BITMAP
31
92
8C
ENDCHAR
STARTCHAR nbsp
ENCODING 154
SWIDTH 250 0
DWIDTH 4 0
BBX 0 0 -1 0
BITMAP
ENDCHAR
STARTCHAR degree
ENCODING 156
SWIDTH 312 0
DWIDTH 5 0
BBX 5 4 0 8
BITMAP
30
48
90
60
ENDCHAR
STARTCHAR twosuperior
ENCODING 157
SWIDTH 312 0
DWIDTH 5 0
BBX 6 6 0 6
BITMAP
18
48
08
10
40
F0
ENDCHAR
STARTCHAR cyr-yo
ENCODING 163
SWIDTH 562 0
DWIDTH 9 0
BBX 10 11 0 0
BITMAP
0880
0000
0700
1100
2080
2080
7F00
4000
4100
4400
3800
ENDCHAR
STARTCHAR cyr-Yo
ENCODING 179
SWIDTH 687 0
DWIDTH 11 0
BBX 12 14 1 0
BITMAP
0420
0000
0FF0
1000
1000
1000
2000
3F80
2000
4000
4000
4000
8000
FF00
ENDCHAR
STARTCHAR copyright
ENCODING 191
SWIDTH 687 0
DWIDTH 11 0
BBX 15 12 -1 0
BITMAP
01F0
0C18
0808
11C4
2448
2408
2408
4890
4710
2030
60C0
1F00
ENDCHAR
STARTCHAR cyr-yu
ENCODING 192
SWIDTH 687 0
DWIDTH 11 0
BBX 12 9 0 0
BITMAP
11C0
2440
2820
2820
7040
5040
5040
9100
8E00
ENDCHAR
STARTCHAR cyr-a
ENCODING 193
SWIDTH 562 0
DWIDTH 9 0
BBX 11 9 0 0
BITMAP
0F80
2080
0080
0080
3F00
4100
4100
8200
7D00
ENDCHAR
STARTCHAR cyr-be
ENCODING 194
SWIDTH 562 0
DWIDTH 9 0
BBX 11 12 0 0
BITMAP
0020
0780
0800
1700
3100
2080
2080
4100
4100
4100
4400
3800
ENDCHAR
STARTCHAR cyr-tse
ENCODING 195
SWIDTH 500 0
DWIDTH 8 0
BBX 10 11 0 -2
BITMAP
1080
1080
1080
2100
2100
2100
4200
4200
7F00
0200
0200
ENDCHAR
STARTCHAR cyr-de
ENCODING 196
SWIDTH 625 0
DWIDTH 10 0
BBX 11 11 0 -2
BITMAP
07C0
0440
0440
0880
0880
0880
1100
2100
7F80
8100
8100
ENDCHAR
STARTCHAR cyr-ie
ENCODING 197
SWIDTH 562 0
DWIDTH 9 0
BBX 10 9 0 0
BITMAP
0700
1100
2080
2080
7F00
4000
4100
4400
3800
ENDCHAR
STARTCHAR cyr-ef
ENCODING 198
SWIDTH 562 0
DWIDTH 9 0
BBX 11 14 0 -4
BITMAP
0100
0380
0540
1240
1240
1240
2480
2480
1500
1C00
0800
0800
1000
1000
ENDCHAR
STARTCHAR cyr-ghe
ENCODING 199
SWIDTH 562 0
DWIDTH 9 0
BBX 10 9 0 0
BITMAP
1FC0
2000
2000
2000
4000
4000
4000
8000
8000
ENDCHAR
STARTCHAR cyr-kha
ENCODING 200
SWIDTH 437 0
DWIDTH 7 0
BBX 10 9 -1 0
BITMAP
1040
1100
1100
0A00
0800
1400
2200
4400
8200
ENDCHAR
STARTCHAR cyr-i
ENCODING 201
SWIDTH 562 0
DWIDTH 9 0
BBX 10 9 0 0
BITMAP
1040
2080
2180
2280
4900
5100
6100
8200
8200
ENDCHAR
STARTCHAR cyr-i-short
ENCODING 202
SWIDTH 562 0
DWIDTH 9 0
BBX 10 11 0 0
BITMAP
0880
0700
1040
2080
2180
2280
4900
5100
6100
8200
8200
ENDCHAR
STARTCHAR cyr-ka
ENCODING 203
SWIDTH 500 0
DWIDTH 8 0
BBX 10 9 0 0
BITMAP
1080
2200
2400
2800
7000
4800
4400
8400
8200
ENDCHAR
STARTCHAR cyr-el
ENCODING 204
SWIDTH 562 0
DWIDTH 9 0
BBX 10 9 0 0
BITMAP
07C0
0880
0880
0880
1100
1100
1100
2200
C200
ENDCHAR
STARTCHAR cyr-em
ENCODING 205
SWIDTH 687 0
DWIDTH 11 0
BBX 12 9 0 0
BITMAP
1010
3060
28A0
2520
4440
4040
4040
8080
8080
ENDCHAR
STARTCHAR cyr-en
ENCODING 206
SWIDTH 562 0
DWIDTH 9 0
BBX 10 9 0 0
BITMAP
1040
2080
2080
2080
7F00
4100
4100
8200
8200
ENDCHAR
STARTCHAR cyr-o
ENCODING 207
SWIDTH 562 0
DWIDTH 9 0
BBX 10 9 0 0
BITMAP
0700
1100
2080
2080
4100
4100
4100
4400
3800
ENDCHAR
STARTCHAR cyr-pe
ENCODING 208
SWIDTH 562 0
DWIDTH 9 0
BBX 10 9 0 0
BITMAP
1FC0
2080
2080
2080
4100
4100
4100
8200
8200
ENDCHAR
STARTCHAR cyr-ya
ENCODING 209
SWIDTH 562 0
DWIDTH 9 0
BBX 10 9 0 0
BITMAP
0FC0
2080
2080
2080
3F00
0900
1100
4200
8200
ENDCHAR
STARTCHAR cyr-er
ENCODING 210
SWIDTH 562 0
DWIDTH 9 0
BBX 11 13 0 -4
BITMAP
0B80
0C40
1040
1040
1040
2080
2080
3100
5C00
4000
4000
8000
8000
ENDCHAR
STARTCHAR cyr-es
ENCODING 211
SWIDTH 500 0
DWIDTH 8 0
BBX 10 9 0 0
BITMAP
0700
1100
2080
2000
4000
4000
4100
4400
3800
ENDCHAR
STARTCHAR cyr-te
ENCODING 212
SWIDTH 562 0
DWIDTH 9 0
BBX 10 9 0 0
BITMAP
1FC0
0400
0400
0400
0800
0800
0800
1000
1000
ENDCHAR
STARTCHAR cyr-u
ENCODING 213
SWIDTH 437 0
DWIDTH 7 0
BBX 11 13 -1 -4
BITMAP
0820
0820
0880
0880
0500
0A00
0400
0400
1000
1000
2000
4000
8000
ENDCHAR
STARTCHAR cyr-zhe
ENCODING 214
SWIDTH 812 0
DWIDTH 13 0
BBX 16 9 -1 0
BITMAP
0842
0888
0490
02A0
07C0
0920
1110
4210
8208
ENDCHAR
STARTCHAR cyr-ve
ENCODING 215
SWIDTH 562 0
DWIDTH 9 0
BBX 10 9 0 0
BITMAP
1F80
2080
2080
2080
7E00
4100
4100
8200
FC00
ENDCHAR
STARTCHAR cyr-ierik
ENCODING 216
SWIDTH 562 0
DWIDTH 9 0
BBX 10 9 0 0
BITMAP
1000
2000
2000
3F00
4100
4100
4100
8200
FC00
ENDCHAR
STARTCHAR cyr-iery
ENCODING 217
SWIDTH 687 0
DWIDTH 11 0
BBX 12 9 0 0
BITMAP
1010
2020
2020
3F20
4140
4140
4140
8280
FC80
ENDCHAR
STARTCHAR cyr-z
ENCODING 218
SWIDTH 562 0
DWIDTH 9 0
BBX 10 9 0 0
BITMAP
0F80
2080
0080
0080
1E00
0100
4100
8200
7C00
ENDCHAR
STARTCHAR cyr-sha
ENCODING 219
SWIDTH 687 0
DWIDTH 11 0
BBX 12 9 0 0
BITMAP
1110
2220
2220
2220
4440
4440
4440
8880
FF80
ENDCHAR
STARTCHAR cyr-e-rev
ENCODING 220
SWIDTH 562 0
DWIDTH 9 0
BBX 10 9 0 0
BITMAP
0F00
2100
0080
0080
1F00
0100
0100
8400
7800
ENDCHAR
STARTCHAR cyr-shcha
ENCODING 221
SWIDTH 687 0
DWIDTH 11 0
BBX 13 11 0 -2
BITMAP
1110
1110
1110
2220
2220
2220
4440
4440
7FE0
0040
0040
ENDCHAR
STARTCHAR cyr-che
ENCODING 222
SWIDTH 562 0
DWIDTH 9 0
BBX 10 9 0 0
BITMAP
1040
2080
2080
2080
3F00
0100
0100
0200
0200
ENDCHAR
STARTCHAR cyr-ier
ENCODING 223
SWIDTH 625 0
DWIDTH 10 0
BBX 12 9 -1 0
BITMAP
1C00
0800
0800
0FC0
1040
1040
1040
2080
3F00
ENDCHAR
STARTCHAR cyr-Yu
ENCODING 224
SWIDTH 812 0
DWIDTH 13 0
BBX 15 12 0 0
BITMAP
0870
1318
1208
1404
2808
3808
2808
5010
5010
4820
98C0
8700
ENDCHAR
STARTCHAR cyr-A
ENCODING 225
SWIDTH 687 0
DWIDTH 11 0
BBX 15 12 -1 0
BITMAP
0040
0080
0140
0140
0440
0440
0820
1040
3FE0
2020
8020
8020
ENDCHAR
STARTCHAR cyr-Be
ENCODING 226
SWIDTH 687 0
DWIDTH 11 0
BBX 12 12 1 0
BITMAP
0FE0
1000
1000
1000
2000
3F00
2080
4080
4080
4080
8200
FC00
ENDCHAR
STARTCHAR cyr-Tse
ENCODING 227
SWIDTH 750 0
DWIDTH 12 0
BBX 13 14 1 -2
BITMAP
0810
0810
0810
1020
1020
1020
2040
2040
2040
4080
4080
7FC0
0080
0080
ENDCHAR
STARTCHAR cyr-De
ENCODING 228
SWIDTH 750 0
DWIDTH 12 0
BBX 14 14 0 -2
BITMAP
01F8
0108
0108
0210
0210
0210
0420
0420
0420
0840
1040
7FE0
8040
8040
ENDCHAR
STARTCHAR cyr-Ie
ENCODING 229
SWIDTH 687 0
DWIDTH 11 0
BBX 12 12 1 0
BITMAP
0FF0
1000
1000
1000
2000
3F80
2000
4000
4000
4000
8000
FF00
ENDCHAR
STARTCHAR cyr-Ef
ENCODING 230
SWIDTH 750 0
DWIDTH 12 0
BBX 15 12 0 0
BITMAP
01F0
0C98
0888
1084
2108
2108
2108
4210
2220
3260
1F00
0400
ENDCHAR
STARTCHAR cyr-Ghe
ENCODING 231
SWIDTH 687 0
DWIDTH 11 0
BBX 12 12 1 0
BITMAP
0FF0
1000
1000
1000
2000
2000
2000
4000
4000
4000
8000
8000
ENDCHAR
STARTCHAR cyr-Kha
ENCODING 232
SWIDTH 687 0
DWIDTH 11 0
BBX 15 12 -1 0
BITMAP
0802
0808
0410
0220
0280
0100
0100
0500
0880
1040
4040
8020
ENDCHAR
STARTCHAR cyr-I
ENCODING 233
SWIDTH 687 0
DWIDTH 11 0
BBX 11 12 1 0
BITMAP
0820
10C0
10C0
1140
2280
2480
2480
5100
5100
6100
C200
8200
ENDCHAR
STARTCHAR cyr-I-short
ENCODING 234
SWIDTH 687 0
DWIDTH 11 0
BBX 11 14 1 0
BITMAP
0440
0380
0820
10C0
10C0
1140
2280
2480
2480
5100
5100
6100
C200
8200
ENDCHAR
STARTCHAR cyr-Ka
ENCODING 235
SWIDTH 625 0
DWIDTH 10 0
BBX 12 12 1 0
BITMAP
0820
1080
1100
1200
2800
3000
2800
4800
4400
4200
8200
8100
ENDCHAR
STARTCHAR cyr-El
ENCODING 236
SWIDTH 625 0
DWIDTH 10 0
BBX 12 12 0 0
BITMAP
03F0
0420
0420
0420
0840
0840
0840
1080
1080
1080
2100
C100
ENDCHAR
STARTCHAR cyr-Em
ENCODING 237
SWIDTH 812 0
DWIDTH 13 0
BBX 13 12 1 0
BITMAP
0808
1010
1830
1830
28A0
28A0
2520
4A40
4440
4440
8080
8080
ENDCHAR
STARTCHAR cyr-En
ENCODING 238
SWIDTH 750 0
DWIDTH 12 0
BBX 12 12 1 0
BITMAP
0810
1020
1020
1020
2040
3FC0
2040
4080
4080
4080
8100
8100
ENDCHAR
STARTCHAR cyr-O
ENCODING 239
SWIDTH 750 0
DWIDTH 12 0
BBX 14 12 0 0
BITMAP
01E0
0C30
0810
1008
2010
2010
2010
4020
4020
2040
6180
1E00
ENDCHAR
STARTCHAR cyr-Pe
ENCODING 240
SWIDTH 750 0
DWIDTH 12 0
BBX 12 12 1 0
BITMAP
0FF0
1020
1020
1020
2040
2040
2040
4080
4080
4080
8100
8100
ENDCHAR
STARTCHAR cyr-Ya
ENCODING 241
SWIDTH 687 0
DWIDTH 11 0
BBX 12 12 0 0
BITMAP
03F0
0820
1020
1020
2040
1040
0FC0
0480
0880
1080
4100
8100
ENDCHAR
STARTCHAR cyr-Er
ENCODING 242
SWIDTH 625 0
DWIDTH 10 0
BBX 12 12 1 0
BITMAP
0FC0
1040
1020
1020
2040
2080
3F00
4000
4000
4000
8000
8000
ENDCHAR
STARTCHAR cyr-Es
ENCODING 243
SWIDTH 687 0
DWIDTH 11 0
BBX 14 12 0 0
BITMAP
01E0
0C30
0810
1008
2000
2000
2000
4000
4020
2040
6180
1E00
ENDCHAR
STARTCHAR cyr-Te
ENCODING 244
SWIDTH 562 0
DWIDTH 9 0
BBX 13 12 -1 0
BITMAP
0FF8
0100
0100
0100
0200
0200
0200
0400
0400
0400
0800
0800
ENDCHAR
STARTCHAR cyr-U
ENCODING 245
SWIDTH 687 0
DWIDTH 11 0
BBX 13 12 0 0
BITMAP
0808
1010
0820
0820
0880
0880
0500
0A00
0400
0400
0800
7000
ENDCHAR
STARTCHAR cyr-Zhe
ENCODING 246
SWIDTH 937 0
DWIDTH 15 0
BBX 19 12 -1 0
BITMAP
081020
082080
042100
022200
024800
015000
01F000
049000
088800
108400
410400
810200
ENDCHAR
STARTCHAR cyr-Ve
ENCODING 247
SWIDTH 687 0
DWIDTH 11 0
BBX 12 12 1 0
BITMAP
0FC0
1040
1020
1020
2080
3F00
2080
4080
4080
4080
8200
FC00
ENDCHAR
STARTCHAR cyr-Ierik
ENCODING 248
SWIDTH 687 0
DWIDTH 11 0
BBX 13 12 1 0
BITMAP
0800
1000
1000
1000
2000
3F80
2040
4040
4040
4040
8100
FE00
ENDCHAR
STARTCHAR cyr-Iery
ENCODING 249
SWIDTH 875 0
DWIDTH 14 0
BBX 15 12 1 0
BITMAP
0802
1004
1004
1004
2008
3F88
2048
4050
4050
4050
8120
FE20
ENDCHAR
STARTCHAR cyr-Ze
ENCODING 250
SWIDTH 687 0
DWIDTH 11 0
BBX 12 12 1 0
BITMAP
07E0
1020
0020
0020
0040
0F80
0040
0080
0080
0080
8100
7E00
ENDCHAR
STARTCHAR cyr-Sha
ENCODING 251
SWIDTH 937 0
DWIDTH 15 0
BBX 17 12 0 0
BITMAP
082080
104100
104100
104100
208200
208200
208200
410400
410400
410400
820800
FFF800
ENDCHAR
STARTCHAR cyr-E-rev
ENCODING 252
SWIDTH 750 0
DWIDTH 12 0
BBX 14 12 0 0
BITMAP
03F0
0810
1008
0008
0010
07F0
0010
0020
0020
4020
4080
3F00
ENDCHAR
STARTCHAR cyr-Shcha
ENCODING 253
SWIDTH 1000 0
DWIDTH 16 0
BBX 18 14 0 -2
BITMAP
082080
082080
082080
104100
104100
104100
208200
208200
208200
410400
410400
7FFE00
000400
000400
ENDCHAR
STARTCHAR cyr-Che
ENCODING 254
SWIDTH 750 0
DWIDTH 12 0
BBX 12 12 1 0
BITMAP
0810
1020
1020
1020
2040
1FC0
0040
0080
0080
0080
0100
0100
ENDCHAR
STARTCHAR cyr-Ier
ENCODING 255
SWIDTH 750 0
DWIDTH 12 0
BBX 15 12 0 0
BITMAP
0E00
0400
0400
0400
0800
0FE0
0810
1010
1010
1010
2040
3F80
ENDCHAR
ENDFONT
