STARTFONT 2.1
COMMENT Copyright (C) 1990-1991 EWT Consulting
COMMENT Portions Copyright (C) 1994-1995 Cronyx Ltd.
COMMENT Changes Copyright (C) 1996-1997 by Andrey A. Chernov, Moscow, Russia.
COMMENT Modified by Serge Vakulenko, <vak@cronyx.ru>
COMMENT This software may be used, modified, copied, distributed, and sold,
COMMENT in both source and binary form provided that the copyright
COMMENT and these terms are retained. Under no circumstances is the author
COMMENT responsible for the proper functioning of this software, nor does
COMMENT the author assume any responsibility for damages incurred with its use.
COMMENT $XFree86: xc/fonts/bdf/cyrillic/crox4hbo.bdf,v 3.2.4.1 1998/02/01 16:03:54 robin Exp $
FONT -Cronyx-Helvetica-Bold-O-Normal--20-140-100-100-P-77-KOI8-R
SIZE 14 96 96
FONTBOUNDINGBOX 26 22 -1 -5
STARTPROPERTIES 20
DEFAULT_CHAR 32
FONT_ASCENT 19
FONT_DESCENT 5
SPACING "P"
FONTNAME_REGISTRY ""
FOUNDRY "Cronyx"
FAMILY_NAME "Helvetica"
WEIGHT_NAME "Bold"
SLANT "O"
SETWIDTH_NAME "Normal"
ADD_STYLE_NAME ""
AVERAGE_WIDTH 77
CHARSET_REGISTRY "KOI8"
CHARSET_ENCODING "R"
PIXEL_SIZE 20
POINT_SIZE 140
RESOLUTION_X 100
RESOLUTION_Y 100
COPYRIGHT "Copyright (C) 1990, 1991 EWT Consulting, Portions Copyright (C) 1994 Cronyx Ltd., Portions Copyright (C) 1996-1997 by Andrey A. Chernov, Moscow, Russia."
_XMBDFED_INFO "Edited with xmbdfed 2.7."
ENDPROPERTIES
CHARS 165
STARTCHAR space
ENCODING 32
SWIDTH 316 0
DWIDTH 6 0
BBX 0 0 -1 0
BITMAP
ENDCHAR
STARTCHAR exclam
ENCODING 33
SWIDTH 429 0
DWIDTH 6 0
BBX 7 14 1 0
BITMAP
0E
0E
0E
1C
1C
1C
38
38
38
70
00
00
E0
E0
ENDCHAR
STARTCHAR quotedbl
ENCODING 34
SWIDTH 2000 0
DWIDTH 8 0
BBX 7 4 0 10
BITMAP
7E
7E
FC
FC
ENDCHAR
STARTCHAR numbersign
ENCODING 35
SWIDTH 786 0
DWIDTH 11 0
BBX 13 14 0 0
BITMAP
01B0
01B0
01B0
0360
0FF0
06C0
0D80
0D80
0D80
7F80
3600
3600
6C00
6C00
ENDCHAR
STARTCHAR dollar
ENCODING 36
SWIDTH 611 0
DWIDTH 11 0
BBX 16 18 -1 -2
BITMAP
0030
0060
00F0
03FC
07F8
0EC0
0FC0
0F80
07E0
01F0
03F0
0370
3B70
3FC0
3FC0
0F00
0C00
0C00
ENDCHAR
STARTCHAR percent
ENCODING 37
SWIDTH 1143 0
DWIDTH 16 0
BBX 18 14 0 0
BITMAP
07C380
0EE700
0C6700
18DC00
1DF800
0FB800
00E000
01C000
03BE00
07EE00
0EC600
1CC600
39DC00
70F800
ENDCHAR
STARTCHAR ampersand
ENCODING 38
SWIDTH 1000 0
DWIDTH 14 0
BBX 17 14 0 0
BITMAP
01C000
03E000
077000
0EE000
0EE000
07C000
0F1C00
1F9C00
3FF800
73F000
71E000
79F000
7FF000
3E7800
ENDCHAR
STARTCHAR quoteright
ENCODING 39
SWIDTH 1250 0
DWIDTH 5 0
BBX 4 4 0 10
BITMAP
70
70
E0
E0
ENDCHAR
STARTCHAR parenleft
ENCODING 40
SWIDTH 389 0
DWIDTH 7 0
BBX 11 18 0 -4
BITMAP
0060
01C0
0380
0380
0E00
0E00
0E00
1C00
1C00
1C00
3800
3800
3800
7000
3800
3800
3800
1800
ENDCHAR
STARTCHAR parenright
ENCODING 41
SWIDTH 389 0
DWIDTH 7 0
BBX 11 18 0 -4
BITMAP
0300
0700
0380
0380
0380
0380
0380
0700
0700
0700
0E00
0E00
0E00
1C00
3800
3800
E000
C000
ENDCHAR
STARTCHAR asterisk
ENCODING 42
SWIDTH 1143 0
DWIDTH 8 0
BBX 8 7 0 7
BITMAP
0C
3F
7E
3C
7E
FC
30
ENDCHAR
STARTCHAR plus
ENCODING 43
SWIDTH 1200 0
DWIDTH 12 0
BBX 14 10 0 2
BITMAP
01C0
01C0
0380
0380
3FF8
7FF0
0700
0700
0E00
0E00
ENDCHAR
STARTCHAR comma
ENCODING 44
SWIDTH 1500 0
DWIDTH 6 0
BBX 4 4 1 -2
BITMAP
70
70
60
C0
ENDCHAR
STARTCHAR minus
ENCODING 45
SWIDTH 3500 0
DWIDTH 7 0
BBX 7 2 -1 4
BITMAP
FE
FE
ENDCHAR
STARTCHAR period
ENCODING 46
SWIDTH 3000 0
DWIDTH 6 0
BBX 3 2 1 0
BITMAP
E0
E0
ENDCHAR
STARTCHAR slash
ENCODING 47
SWIDTH 375 0
DWIDTH 6 0
BBX 11 16 -1 -2
BITMAP
00E0
00E0
01C0
01C0
0380
0700
0700
0700
1C00
1C00
1C00
3800
7000
7000
E000
E000
ENDCHAR
STARTCHAR zero
ENCODING 48
SWIDTH 786 0
DWIDTH 11 0
BBX 14 14 0 0
BITMAP
01E0
07F8
0738
1C38
1C38
1C38
3870
3870
3870
70E0
70E0
39C0
7F80
1E00
ENDCHAR
STARTCHAR one
ENCODING 49
SWIDTH 786 0
DWIDTH 11 0
BBX 10 14 1 0
BITMAP
01C0
03C0
0FC0
1F80
0380
0380
0700
0700
0700
0E00
0E00
0E00
1C00
1C00
ENDCHAR
STARTCHAR two
ENCODING 50
SWIDTH 786 0
DWIDTH 11 0
BBX 14 14 0 0
BITMAP
03F0
07F8
0F3C
1C38
0038
0078
01E0
07C0
0F00
3C00
3800
7000
FFC0
FFC0
ENDCHAR
STARTCHAR three
ENCODING 51
SWIDTH 786 0
DWIDTH 11 0
BBX 14 14 0 0
BITMAP
01E0
07F8
0738
1C38
1C38
0070
07C0
07E0
00E0
70E0
70E0
39C0
7F80
1E00
ENDCHAR
STARTCHAR four
ENCODING 52
SWIDTH 786 0
DWIDTH 11 0
BBX 14 14 0 0
BITMAP
00F0
00F0
01F0
03E0
07E0
07E0
1DC0
1DC0
39C0
7FE0
7FE0
0380
0700
0700
ENDCHAR
STARTCHAR five
ENCODING 53
SWIDTH 786 0
DWIDTH 11 0
BBX 14 14 0 0
BITMAP
07F8
07F8
0700
0E00
1C00
1FC0
3FE0
38E0
0070
00E0
70E0
79C0
7F80
3E00
ENDCHAR
STARTCHAR six
ENCODING 54
SWIDTH 786 0
DWIDTH 11 0
BBX 14 14 0 0
BITMAP
01E0
07F8
0738
1C38
1C00
1FC0
3FE0
3CE0
3870
70E0
70E0
39C0
7F80
1E00
ENDCHAR
STARTCHAR seven
ENCODING 55
SWIDTH 786 0
DWIDTH 11 0
BBX 14 14 0 0
BITMAP
0FFC
0FFC
001C
0038
0070
0070
01C0
01C0
0380
0700
0700
0E00
1C00
1C00
ENDCHAR
STARTCHAR eight
ENCODING 56
SWIDTH 786 0
DWIDTH 11 0
BBX 14 14 0 0
BITMAP
01E0
07F8
0738
1C38
1C38
0E70
0FC0
1FE0
1CE0
70E0
70E0
39C0
7F80
1E00
ENDCHAR
STARTCHAR nine
ENCODING 57
SWIDTH 786 0
DWIDTH 11 0
BBX 14 14 0 0
BITMAP
01E0
07F8
0738
1C38
1C38
1C38
1CF0
1FF0
07F0
00E0
70E0
39C0
7F80
1E00
ENDCHAR
STARTCHAR colon
ENCODING 58
SWIDTH 600 0
DWIDTH 6 0
BBX 6 10 1 0
BITMAP
1C
1C
00
00
00
00
00
00
E0
E0
ENDCHAR
STARTCHAR semicolon
ENCODING 59
SWIDTH 500 0
DWIDTH 6 0
BBX 7 12 1 -2
BITMAP
0E
1C
00
00
00
00
00
00
70
70
60
C0
ENDCHAR
STARTCHAR less
ENCODING 60
SWIDTH 1333 0
DWIDTH 12 0
BBX 14 9 0 2
BITMAP
001C
00F8
03E0
0F80
7C00
1F00
07C0
03E0
00E0
ENDCHAR
STARTCHAR equal
ENCODING 61
SWIDTH 2000 0
DWIDTH 12 0
BBX 13 6 0 4
BITMAP
3FF8
7FF0
0000
0000
FFE0
FFE0
ENDCHAR
STARTCHAR greater
ENCODING 62
SWIDTH 1333 0
DWIDTH 12 0
BBX 14 9 0 2
BITMAP
1C00
3E00
0F80
03E0
03F0
07C0
1F00
F800
E000
ENDCHAR
STARTCHAR question
ENCODING 63
SWIDTH 786 0
DWIDTH 11 0
BBX 14 14 0 0
BITMAP
01E0
07F8
0738
1C38
1C38
0070
01E0
03C0
0380
0E00
0E00
0000
1C00
1C00
ENDCHAR
STARTCHAR at
ENCODING 64
SWIDTH 1176 0
DWIDTH 20 0
BBX 23 17 0 -3
BITMAP
003FC0
00F0F0
01C038
070038
060018
0E1FDC
187718
18E718
18E718
339C70
339CE0
39FFC0
300000
380000
1C0300
1E1E00
07F800
ENDCHAR
STARTCHAR A
ENCODING 65
SWIDTH 1000 0
DWIDTH 14 0
BBX 18 14 -1 0
BITMAP
007800
007800
00FC00
01F800
039C00
039C00
073800
0E1C00
0FFC00
3FFC00
381C00
381C00
E01C00
E01C00
ENDCHAR
STARTCHAR B
ENCODING 66
SWIDTH 929 0
DWIDTH 13 0
BBX 15 14 0 0
BITMAP
0FF8
0FFC
0E1E
1C1C
1C1C
1C3C
3FF0
3FF0
3878
7070
7070
70F0
FFC0
FF80
ENDCHAR
STARTCHAR C
ENCODING 67
SWIDTH 1000 0
DWIDTH 14 0
BBX 17 14 0 0
BITMAP
00FC00
03FF00
078780
0E0700
1C0000
1C0000
380000
380000
380000
700000
381C00
3C3C00
3FF000
0FC000
ENDCHAR
STARTCHAR D
ENCODING 68
SWIDTH 1000 0
DWIDTH 14 0
BBX 16 14 0 0
BITMAP
0FF0
0FFC
0E1E
1C1C
1C0E
1C0E
381C
381C
381C
7038
7070
70F0
FFC0
FF00
ENDCHAR
STARTCHAR E
ENCODING 69
SWIDTH 1000 0
DWIDTH 14 0
BBX 16 14 0 0
BITMAP
0FFF
0FFF
0E00
1C00
1C00
1C00
3FF8
3FF8
3800
7000
7000
7000
FFF0
FFF0
ENDCHAR
STARTCHAR F
ENCODING 70
SWIDTH 929 0
DWIDTH 13 0
BBX 16 14 0 0
BITMAP
0FFF
0FFF
0E00
1C00
1C00
1C00
3FF8
3FF8
3800
7000
7000
7000
E000
E000
ENDCHAR
STARTCHAR G
ENCODING 71
SWIDTH 1071 0
DWIDTH 15 0
BBX 17 14 0 0
BITMAP
00FC00
03FF00
078780
0E0700
1C0000
1C0000
380000
383E00
383E00
701C00
381C00
3C3C00
3FF800
0FF800
ENDCHAR
STARTCHAR H
ENCODING 72
SWIDTH 1071 0
DWIDTH 15 0
BBX 17 14 0 0
BITMAP
0E0380
0E0380
0E0380
1C0700
1C0700
1C0700
3FFE00
3FFE00
380E00
701C00
701C00
701C00
E03800
E03800
ENDCHAR
STARTCHAR I
ENCODING 73
SWIDTH 357 0
DWIDTH 5 0
BBX 7 14 0 0
BITMAP
0E
0E
0E
1C
1C
1C
38
38
38
70
70
70
E0
E0
ENDCHAR
STARTCHAR J
ENCODING 74
SWIDTH 714 0
DWIDTH 10 0
BBX 13 14 -1 0
BITMAP
0038
0038
0038
0070
0070
0070
00E0
00E0
00E0
01C0
71C0
7BC0
7F00
1C00
ENDCHAR
STARTCHAR K
ENCODING 75
SWIDTH 929 0
DWIDTH 13 0
BBX 16 14 0 0
BITMAP
0E1E
0E3C
0E78
1DE0
1FC0
1F80
3E00
3F00
3F80
7780
73C0
71E0
E1E0
E0F0
ENDCHAR
STARTCHAR L
ENCODING 76
SWIDTH 786 0
DWIDTH 11 0
BBX 14 14 0 0
BITMAP
0E00
0E00
0E00
1C00
1C00
1C00
3800
3800
3800
7000
7000
7000
FFC0
FFC0
ENDCHAR
STARTCHAR M
ENCODING 77
SWIDTH 1214 0
DWIDTH 17 0
BBX 19 14 0 0
BITMAP
0E00E0
0E00E0
0F01E0
1E03C0
1F07C0
1F07C0
3F1F80
3F1F80
3BBB80
777700
73E700
73E700
E38E00
E38E00
ENDCHAR
STARTCHAR N
ENCODING 78
SWIDTH 1071 0
DWIDTH 15 0
BBX 17 14 0 0
BITMAP
0F0380
0F8380
0F8380
1F8700
1FC700
1DC700
3BCE00
39EE00
38EE00
71FC00
70FC00
707C00
E0F800
E07800
ENDCHAR
STARTCHAR O
ENCODING 79
SWIDTH 1143 0
DWIDTH 16 0
BBX 18 14 0 0
BITMAP
00FC00
03FF00
078780
0E0700
1C0380
1C0380
380700
380700
380700
700E00
381C00
3C3C00
3FF000
0FC000
ENDCHAR
STARTCHAR P
ENCODING 80
SWIDTH 929 0
DWIDTH 13 0
BBX 16 14 0 0
BITMAP
0FF8
0FFE
0E0E
1C0E
1C0E
1C0E
3838
3FF8
3FE0
7000
7000
7000
E000
E000
ENDCHAR
STARTCHAR Q
ENCODING 81
SWIDTH 1143 0
DWIDTH 16 0
BBX 18 14 0 0
BITMAP
00FC00
03FF00
078780
0E0700
1C0380
1C0380
380700
380700
383700
70FE00
387C00
3C3C00
3FFC00
0FD800
ENDCHAR
STARTCHAR R
ENCODING 82
SWIDTH 1000 0
DWIDTH 14 0
BBX 17 14 0 0
BITMAP
0FF800
0FFE00
0E0E00
1C0E00
1C0E00
1C0E00
383800
3FF800
3FF800
703800
703800
703800
E07000
E03800
ENDCHAR
STARTCHAR S
ENCODING 83
SWIDTH 929 0
DWIDTH 13 0
BBX 15 14 0 0
BITMAP
01F0
07FC
0F1E
1C1C
1E00
0F80
0FE0
03F0
0078
0070
7070
78F0
7FC0
1F00
ENDCHAR
STARTCHAR T
ENCODING 84
SWIDTH 929 0
DWIDTH 13 0
BBX 17 14 -1 0
BITMAP
0FFF80
0FFF80
007000
00E000
00E000
00E000
01C000
01C000
01C000
038000
038000
038000
070000
070000
ENDCHAR
STARTCHAR U
ENCODING 85
SWIDTH 1000 0
DWIDTH 14 0
BBX 16 14 0 0
BITMAP
0E07
0E07
0E07
1C0E
1C0E
1C0E
381C
381C
381C
7038
3870
3CF0
3FC0
0F00
ENDCHAR
STARTCHAR V
ENCODING 86
SWIDTH 1000 0
DWIDTH 14 0
BBX 18 14 -1 0
BITMAP
0E01C0
0E01C0
070380
0E0700
070E00
070E00
0E1C00
073800
073800
07E000
07E000
07E000
078000
078000
ENDCHAR
STARTCHAR W
ENCODING 87
SWIDTH 1357 0
DWIDTH 19 0
BBX 23 14 -1 0
BITMAP
0E0E0E
0E0E0E
0E0E0E
0E3E38
0E3E38
0E3E38
0EEEE0
0EEEE0
0EEEE0
0F8F80
0F8F80
0F8F80
0E0E00
0E0E00
ENDCHAR
STARTCHAR X
ENCODING 88
SWIDTH 1071 0
DWIDTH 15 0
BBX 19 14 -1 0
BITMAP
0E00E0
0F01E0
0783C0
078F00
03DE00
01FC00
01F000
01F000
03F800
0F7800
1E3C00
3C1E00
F01E00
E00E00
ENDCHAR
STARTCHAR Y
ENCODING 89
SWIDTH 929 0
DWIDTH 13 0
BBX 17 14 -1 0
BITMAP
0E0380
0F0780
070700
071C00
07BC00
03B800
03E000
03E000
01C000
038000
038000
038000
070000
070000
ENDCHAR
STARTCHAR Z
ENCODING 90
SWIDTH 929 0
DWIDTH 13 0
BBX 17 14 -1 0
BITMAP
07FF80
07FF80
000780
001E00
003C00
007800
01E000
03C000
078000
1E0000
3C0000
780000
FFF800
FFF800
ENDCHAR
STARTCHAR bracketleft
ENCODING 91
SWIDTH 316 0
DWIDTH 6 0
BBX 11 19 0 -4
BITMAP
03E0
03E0
0700
0700
0700
0E00
0E00
0E00
1C00
1C00
1C00
3800
3800
3800
7000
7000
7000
F800
F800
ENDCHAR
STARTCHAR backslash
ENCODING 92
SWIDTH 375 0
DWIDTH 6 0
BBX 11 16 -1 -2
BITMAP
0700
0700
0E00
0E00
0700
0E00
0E00
0E00
0E00
0E00
0E00
1C00
0E00
0E00
1C00
1C00
ENDCHAR
STARTCHAR bracketright
ENCODING 93
SWIDTH 316 0
DWIDTH 6 0
BBX 11 19 -1 -4
BITMAP
03E0
03E0
01C0
01C0
01C0
0380
0380
0380
0700
0700
0700
0E00
0E00
0E00
1C00
1C00
1C00
F800
F800
ENDCHAR
STARTCHAR asciicircum
ENCODING 94
SWIDTH 3333 0
DWIDTH 10 0
BBX 9 3 0 11
BITMAP
1E00
7E00
E700
ENDCHAR
STARTCHAR underscore
ENCODING 95
SWIDTH 5500 0
DWIDTH 11 0
BBX 11 2 -1 -3
BITMAP
FFE0
FFE0
ENDCHAR
STARTCHAR quoteleft
ENCODING 96
SWIDTH 2333 0
DWIDTH 7 0
BBX 6 3 0 11
BITMAP
78
38
18
ENDCHAR
STARTCHAR a
ENCODING 97
SWIDTH 1100 0
DWIDTH 11 0
BBX 13 10 0 0
BITMAP
07C0
0FE0
3DE0
00E0
07E0
3DC0
71C0
73C0
FFC0
7DC0
ENDCHAR
STARTCHAR b
ENCODING 98
SWIDTH 857 0
DWIDTH 12 0
BBX 14 14 0 0
BITMAP
0E00
0E00
0E00
1C00
1FC0
1FF0
3CE0
3870
3870
70E0
70E0
79C0
FF80
FE00
ENDCHAR
STARTCHAR c
ENCODING 99
SWIDTH 1100 0
DWIDTH 11 0
BBX 13 10 0 0
BITMAP
03C0
0FF0
1CE0
3870
3800
7000
70E0
39C0
7F80
1E00
ENDCHAR
STARTCHAR d
ENCODING 100
SWIDTH 857 0
DWIDTH 12 0
BBX 14 14 0 0
BITMAP
001C
001C
001C
0038
03F8
0FF8
1CF0
3870
3870
70E0
70E0
39E0
7FC0
1FC0
ENDCHAR
STARTCHAR e
ENCODING 101
SWIDTH 1200 0
DWIDTH 12 0
BBX 13 10 0 0
BITMAP
03C0
0FF0
1CE0
3870
3FF0
7FE0
7000
38E0
7F80
1E00
ENDCHAR
STARTCHAR f
ENCODING 102
SWIDTH 357 0
DWIDTH 5 0
BBX 9 14 -1 0
BITMAP
0380
0780
0700
0E00
1F00
1F00
1C00
1C00
1C00
3800
3800
3800
7000
7000
ENDCHAR
STARTCHAR g
ENCODING 103
SWIDTH 857 0
DWIDTH 12 0
BBX 14 14 0 -4
BITMAP
01FC
07FC
073C
1C38
1C38
1C38
3870
1CF0
1FF0
0FE0
70E0
39C0
7F80
1E00
ENDCHAR
STARTCHAR h
ENCODING 104
SWIDTH 857 0
DWIDTH 12 0
BBX 14 14 0 0
BITMAP
0E00
0E00
0E00
1C00
1FC0
1FF0
3CE0
3870
3870
70E0
70E0
70E0
E1C0
E1C0
ENDCHAR
STARTCHAR i
ENCODING 105
SWIDTH 357 0
DWIDTH 5 0
BBX 7 14 0 0
BITMAP
0E
0E
00
00
1C
1C
38
38
38
70
70
70
E0
E0
ENDCHAR
STARTCHAR j
ENCODING 106
SWIDTH 278 0
DWIDTH 5 0
BBX 10 18 -1 -4
BITMAP
01C0
0380
0000
0000
0700
0700
0700
0E00
0E00
0E00
1C00
1C00
1C00
3800
3800
3800
F000
E000
ENDCHAR
STARTCHAR k
ENCODING 107
SWIDTH 714 0
DWIDTH 10 0
BBX 13 14 0 0
BITMAP
0E00
0E00
0E00
1C00
1C70
1CE0
3B80
3F00
3E00
7E00
7700
7380
E380
E180
ENDCHAR
STARTCHAR l
ENCODING 108
SWIDTH 357 0
DWIDTH 5 0
BBX 7 14 0 0
BITMAP
0E
0E
0E
1C
1C
1C
38
38
38
70
70
70
E0
E0
ENDCHAR
STARTCHAR m
ENCODING 109
SWIDTH 1700 0
DWIDTH 17 0
BBX 18 10 0 0
BITMAP
1FCF00
1FFF80
3DF780
38E380
38E380
71C700
71C700
71C700
E38E00
E38E00
ENDCHAR
STARTCHAR n
ENCODING 110
SWIDTH 1200 0
DWIDTH 12 0
BBX 13 10 0 0
BITMAP
1FC0
1FF0
3CE0
3870
3870
70E0
70E0
70E0
E1C0
E1C0
ENDCHAR
STARTCHAR o
ENCODING 111
SWIDTH 1200 0
DWIDTH 12 0
BBX 13 10 0 0
BITMAP
03C0
0FF0
1CE0
3870
3870
70E0
70E0
39C0
7F80
1E00
ENDCHAR
STARTCHAR p
ENCODING 112
SWIDTH 857 0
DWIDTH 12 0
BBX 14 14 0 -4
BITMAP
0FE0
0FF8
0F38
1C38
1C38
1C38
3870
3CE0
3FE0
7F00
7000
7000
E000
E000
ENDCHAR
STARTCHAR q
ENCODING 113
SWIDTH 857 0
DWIDTH 12 0
BBX 14 14 0 -4
BITMAP
01FC
07FC
073C
1C38
1C38
1C38
3870
1CF0
1FF0
0FE0
00E0
00E0
01C0
01C0
ENDCHAR
STARTCHAR r
ENCODING 114
SWIDTH 700 0
DWIDTH 7 0
BBX 9 10 0 0
BITMAP
1F80
1F80
3C00
3800
3800
7000
7000
7000
E000
E000
ENDCHAR
STARTCHAR s
ENCODING 115
SWIDTH 1000 0
DWIDTH 10 0
BBX 11 10 0 0
BITMAP
0780
0FC0
39C0
3C00
1F00
0F00
0380
7380
7E00
3C00
ENDCHAR
STARTCHAR t
ENCODING 116
SWIDTH 385 0
DWIDTH 5 0
BBX 9 13 -1 0
BITMAP
0700
0700
0E00
1F00
1F00
1C00
1C00
1C00
3800
3800
3800
7800
3800
ENDCHAR
STARTCHAR u
ENCODING 117
SWIDTH 1200 0
DWIDTH 12 0
BBX 13 10 0 0
BITMAP
1C38
1C38
3870
3870
3870
70E0
70E0
39E0
7FC0
1FC0
ENDCHAR
STARTCHAR v
ENCODING 118
SWIDTH 1000 0
DWIDTH 10 0
BBX 13 10 -1 0
BITMAP
1C38
1C38
3870
1CE0
1CE0
1F80
1F80
1F80
1E00
1E00
ENDCHAR
STARTCHAR w
ENCODING 119
SWIDTH 1500 0
DWIDTH 15 0
BBX 18 10 -1 0
BITMAP
1C71C0
1C71C0
1CE700
1DF700
1DF700
1F7C00
1F7C00
0F7800
1C7000
1C7000
ENDCHAR
STARTCHAR x
ENCODING 120
SWIDTH 1100 0
DWIDTH 11 0
BBX 14 10 -1 0
BITMAP
1C1C
1E3C
1EF0
0FE0
07C0
0F80
1FC0
3DE0
F1E0
E0E0
ENDCHAR
STARTCHAR y
ENCODING 121
SWIDTH 714 0
DWIDTH 10 0
BBX 14 14 -1 -4
BITMAP
0E1C
0E1C
0E1C
0E70
0E70
07E0
0FC0
0FC0
0780
0F00
0E00
0E00
7C00
7800
ENDCHAR
STARTCHAR z
ENCODING 122
SWIDTH 1000 0
DWIDTH 10 0
BBX 13 10 -1 0
BITMAP
1FF8
1FF8
00E0
01C0
0380
0E00
1C00
3800
FFC0
FFC0
ENDCHAR
STARTCHAR braceleft
ENCODING 123
SWIDTH 389 0
DWIDTH 7 0
BBX 12 18 0 -4
BITMAP
0070
01C0
01C0
01C0
0380
0380
0380
0E00
1C00
1C00
1C00
0E00
0E00
1C00
1C00
1C00
3800
1C00
ENDCHAR
STARTCHAR bar
ENCODING 124
SWIDTH 263 0
DWIDTH 5 0
BBX 9 19 0 -5
BITMAP
0380
0380
0700
0700
0700
0E00
0E00
0E00
1C00
1C00
1C00
3800
3800
3800
7000
7000
7000
E000
E000
ENDCHAR
STARTCHAR braceright
ENCODING 125
SWIDTH 389 0
DWIDTH 7 0
BBX 12 18 -1 -4
BITMAP
0380
0380
0380
0380
0700
0700
0700
0700
0380
0380
0E00
1C00
1C00
3800
3800
3800
7000
E000
ENDCHAR
STARTCHAR asciitilde
ENCODING 126
SWIDTH 4000 0
DWIDTH 12 0
BBX 11 3 0 11
BITMAP
3CE0
FFC0
E780
ENDCHAR
STARTCHAR nbsp
ENCODING 154
SWIDTH 316 0
DWIDTH 6 0
BBX 0 0 -1 0
BITMAP
ENDCHAR
STARTCHAR degree
ENCODING 156
SWIDTH 1400 0
DWIDTH 7 0
BBX 7 5 0 9
BITMAP
3C
7E
66
FC
78
ENDCHAR
STARTCHAR twosuperior
ENCODING 157
SWIDTH 857 0
DWIDTH 6 0
BBX 8 7 -1 7
BITMAP
1E
3F
6E
1C
38
E0
FC
ENDCHAR
STARTCHAR cyr-yo
ENCODING 163
SWIDTH 1000 0
DWIDTH 12 0
BBX 14 12 0 0
BITMAP
0738
0000
03C0
0FF0
1CE0
3870
3FF0
7FE0
7000
38E0
7F80
1E00
ENDCHAR
STARTCHAR cyr-Yo
ENCODING 179
SWIDTH 824 0
DWIDTH 14 0
BBX 17 17 0 0
BITMAP
038700
038700
000000
0FFF00
0FFF00
0E0000
1C0000
1C0000
1C0000
3FF800
3FF800
380000
700000
700000
700000
FFF000
FFF000
ENDCHAR
STARTCHAR copyright
ENCODING 191
SWIDTH 1071 0
DWIDTH 15 0
BBX 18 14 -1 0
BITMAP
00FC00
03CF00
070380
0CFB00
1DDF80
1B8180
370300
370300
370300
777E00
33EC00
381C00
3CF000
0FC000
ENDCHAR
STARTCHAR cyr-yu
ENCODING 192
SWIDTH 1500 0
DWIDTH 15 0
BBX 16 10 0 0
BITMAP
1C78
1DFE
3B9C
3F0E
3F0E
7E1C
7E1C
7738
EFF0
E3C0
ENDCHAR
STARTCHAR cyr-a
ENCODING 193
SWIDTH 1100 0
DWIDTH 11 0
BBX 13 10 0 0
BITMAP
07C0
0FE0
3DE0
00E0
07E0
3DC0
71C0
73C0
FFC0
7DC0
ENDCHAR
STARTCHAR cyr-be
ENCODING 194
SWIDTH 857 0
DWIDTH 12 0
BBX 14 14 0 0
BITMAP
0038
03F8
07F0
1E00
1FE0
1FF0
3CF0
3870
3870
70E0
70E0
79E0
7F80
3F00
ENDCHAR
STARTCHAR cyr-tse
ENCODING 195
SWIDTH 1083 0
DWIDTH 13 0
BBX 15 12 0 -2
BITMAP
0E1C
1C38
1C38
1C38
3870
3870
3870
70E0
7FF0
7FF0
00E0
00E0
ENDCHAR
STARTCHAR cyr-de
ENCODING 196
SWIDTH 1167 0
DWIDTH 14 0
BBX 17 12 0 -2
BITMAP
01FE00
03FC00
039C00
039C00
073800
073800
073800
1C7000
7FFC00
7FFC00
E03800
E03800
ENDCHAR
STARTCHAR cyr-ie
ENCODING 197
SWIDTH 1200 0
DWIDTH 12 0
BBX 13 10 0 0
BITMAP
03C0
0FF0
1CE0
3870
3FF0
7FE0
7000
38E0
7F80
1E00
ENDCHAR
STARTCHAR cyr-ef
ENCODING 198
SWIDTH 938 0
DWIDTH 15 0
BBX 18 16 0 -5
BITMAP
003800
00FE00
07FF00
077700
0E7380
1CE700
1CE700
1CE700
1DDC00
1FFC00
07F000
038000
038000
038000
070000
070000
ENDCHAR
STARTCHAR cyr-ghe
ENCODING 199
SWIDTH 1000 0
DWIDTH 10 0
BBX 12 10 0 0
BITMAP
1FF0
1FF0
3800
3800
3800
7000
7000
7000
E000
E000
ENDCHAR
STARTCHAR cyr-kha
ENCODING 200
SWIDTH 1100 0
DWIDTH 11 0
BBX 14 10 -1 0
BITMAP
1C1C
1E3C
1EF0
0FE0
07C0
0F80
1FC0
3DE0
F1E0
E0E0
ENDCHAR
STARTCHAR cyr-i
ENCODING 201
SWIDTH 1200 0
DWIDTH 12 0
BBX 13 10 0 0
BITMAP
1C38
1C38
38F0
39F0
3BF0
7EE0
7CE0
78E0
E1C0
E1C0
ENDCHAR
STARTCHAR cyr-i-short
ENCODING 202
SWIDTH 1000 0
DWIDTH 12 0
BBX 14 12 0 0
BITMAP
03F0
03C0
1C38
1C38
38F0
39F0
3BF0
7EE0
7CE0
78E0
E1C0
E1C0
ENDCHAR
STARTCHAR cyr-ka
ENCODING 203
SWIDTH 1000 0
DWIDTH 10 0
BBX 12 10 0 0
BITMAP
1C70
1CE0
3B80
3F00
3E00
7E00
7700
7380
E380
E180
ENDCHAR
STARTCHAR cyr-el
ENCODING 204
SWIDTH 1200 0
DWIDTH 12 0
BBX 13 10 0 0
BITMAP
07F8
07F8
0E70
0E70
0E70
1CE0
1CE0
1CE0
79C0
F1C0
ENDCHAR
STARTCHAR cyr-em
ENCODING 205
SWIDTH 1500 0
DWIDTH 15 0
BBX 16 10 0 0
BITMAP
1C07
1E0F
3E3E
3F7E
3BEE
739C
701C
701C
E038
E038
ENDCHAR
STARTCHAR cyr-en
ENCODING 206
SWIDTH 1200 0
DWIDTH 12 0
BBX 13 10 0 0
BITMAP
1C38
1C38
3870
3870
3FF0
7FE0
70E0
70E0
E1C0
E1C0
ENDCHAR
STARTCHAR cyr-o
ENCODING 207
SWIDTH 1200 0
DWIDTH 12 0
BBX 13 10 0 0
BITMAP
03C0
0FF0
1CE0
3870
3870
70E0
70E0
39C0
7F80
1E00
ENDCHAR
STARTCHAR cyr-pe
ENCODING 208
SWIDTH 1200 0
DWIDTH 12 0
BBX 13 10 0 0
BITMAP
1FF8
1FF8
3870
3870
3870
70E0
70E0
70E0
E1C0
E1C0
ENDCHAR
STARTCHAR cyr-ya
ENCODING 209
SWIDTH 1200 0
DWIDTH 12 0
BBX 13 10 0 0
BITMAP
0FF8
1FF8
3870
3870
3870
7FE0
3FE0
1EE0
79C0
F1C0
ENDCHAR
STARTCHAR cyr-er
ENCODING 210
SWIDTH 857 0
DWIDTH 12 0
BBX 14 14 0 -4
BITMAP
0FE0
0FF8
0F38
1C38
1C38
1C38
3870
3CE0
3FE0
7F00
7000
7000
E000
E000
ENDCHAR
STARTCHAR cyr-es
ENCODING 211
SWIDTH 1100 0
DWIDTH 11 0
BBX 13 10 0 0
BITMAP
03C0
0FF0
1CE0
3870
3800
7000
70E0
39C0
7F80
1E00
ENDCHAR
STARTCHAR cyr-te
ENCODING 212
SWIDTH 1182 0
DWIDTH 13 0
BBX 14 11 0 -1
BITMAP
1FFC
1FFC
01C0
0380
0380
0380
0700
0700
0700
0E00
0E00
ENDCHAR
STARTCHAR cyr-u
ENCODING 213
SWIDTH 714 0
DWIDTH 10 0
BBX 14 14 -1 -4
BITMAP
0E1C
0E1C
0E1C
0E70
0E70
07E0
0FC0
0FC0
0780
0F00
0E00
0E00
7C00
7800
ENDCHAR
STARTCHAR cyr-zhe
ENCODING 214
SWIDTH 1545 0
DWIDTH 17 0
BBX 20 11 -1 -1
BITMAP
1E38F0
0F39E0
07BBC0
07FF00
03FE00
03FE00
0FFE00
1EEF00
3CE780
F1C780
E1C380
ENDCHAR
STARTCHAR cyr-ve
ENCODING 215
SWIDTH 1100 0
DWIDTH 11 0
BBX 12 10 0 0
BITMAP
1FE0
1FE0
38E0
38E0
3FC0
7F80
71C0
71C0
FF80
FF00
ENDCHAR
STARTCHAR cyr-ierik
ENCODING 216
SWIDTH 1200 0
DWIDTH 12 0
BBX 13 10 0 0
BITMAP
1C00
1C00
3800
3FE0
3FF0
70E0
70E0
70E0
FFC0
FF80
ENDCHAR
STARTCHAR cyr-iery
ENCODING 217
SWIDTH 1500 0
DWIDTH 15 0
BBX 16 10 0 0
BITMAP
1C07
1C07
380E
3FEE
3FFE
70FC
70FC
70FC
FFF8
FFB8
ENDCHAR
STARTCHAR cyr-z
ENCODING 218
SWIDTH 1100 0
DWIDTH 11 0
BBX 12 10 0 0
BITMAP
0FE0
1FF0
38E0
00E0
07C0
0FC0
01C0
71C0
FF80
7F00
ENDCHAR
STARTCHAR cyr-sha
ENCODING 219
SWIDTH 1500 0
DWIDTH 15 0
BBX 16 10 0 0
BITMAP
1CE7
1CE7
39CE
39CE
39CE
739C
739C
739C
FFF8
FFF8
ENDCHAR
STARTCHAR cyr-e-rev
ENCODING 220
SWIDTH 1100 0
DWIDTH 11 0
BBX 12 10 0 0
BITMAP
07C0
0FE0
39E0
00E0
07E0
0FC0
01C0
73C0
7F00
3E00
ENDCHAR
STARTCHAR cyr-shcha
ENCODING 221
SWIDTH 1333 0
DWIDTH 16 0
BBX 18 12 0 -2
BITMAP
0E7380
1CE700
1CE700
1CE700
39CE00
39CE00
39CE00
739C00
7FFE00
7FFE00
001C00
001C00
ENDCHAR
STARTCHAR cyr-che
ENCODING 222
SWIDTH 1200 0
DWIDTH 12 0
BBX 13 10 0 0
BITMAP
1C38
1C38
3870
3870
3FF0
3FE0
00E0
00E0
01C0
01C0
ENDCHAR
STARTCHAR cyr-ier
ENCODING 223
SWIDTH 1400 0
DWIDTH 14 0
BBX 15 10 0 0
BITMAP
1F00
1F00
0E00
0FF8
0FFC
1C38
1C38
1C38
3FF0
3FE0
ENDCHAR
STARTCHAR cyr-Yu
ENCODING 224
SWIDTH 1214 0
DWIDTH 17 0
BBX 20 14 0 0
BITMAP
0E1F00
0E7FC0
0EF1E0
1DC1C0
1F80E0
1F80E0
3F01C0
3F01C0
3F01C0
7E0380
770700
778F00
E7FC00
E1F000
ENDCHAR
STARTCHAR cyr-A
ENCODING 225
SWIDTH 1000 0
DWIDTH 14 0
BBX 18 14 -1 0
BITMAP
007800
007800
00FC00
01F800
039C00
039C00
073800
0E1C00
0FFC00
3FFC00
381C00
381C00
E01C00
E01C00
ENDCHAR
STARTCHAR cyr-Be
ENCODING 226
SWIDTH 929 0
DWIDTH 13 0
BBX 15 14 0 0
BITMAP
0FFC
0FFC
0E00
1C00
1C00
1C00
3FF0
3FF0
3878
7070
7070
70F0
FFC0
FF80
ENDCHAR
STARTCHAR cyr-Tse
ENCODING 227
SWIDTH 938 0
DWIDTH 15 0
BBX 18 16 0 -2
BITMAP
070380
070380
0E0700
0E0700
0E0700
1C0E00
1C0E00
1C0E00
381C00
381C00
381C00
703800
7FF800
7FFC00
003800
003800
ENDCHAR
STARTCHAR cyr-De
ENCODING 228
SWIDTH 1000 0
DWIDTH 16 0
BBX 19 16 0 -2
BITMAP
00FF80
00FF80
01C700
01C700
01C700
038E00
038E00
038E00
071C00
071C00
071C00
1C3800
7FFE00
7FFE00
E01C00
E01C00
ENDCHAR
STARTCHAR cyr-Ie
ENCODING 229
SWIDTH 1000 0
DWIDTH 14 0
BBX 16 14 0 0
BITMAP
0FFF
0FFF
0E00
1C00
1C00
1C00
3FF8
3FF8
3800
7000
7000
7000
FFF0
FFF0
ENDCHAR
STARTCHAR cyr-Ef
ENCODING 230
SWIDTH 1214 0
DWIDTH 17 0
BBX 19 14 0 0
BITMAP
00FE00
03FF80
07BBC0
0E7380
1C71C0
1C71C0
38E380
38E380
38E380
39CE00
3DDE00
1FFC00
0FE000
038000
ENDCHAR
STARTCHAR cyr-Ghe
ENCODING 231
SWIDTH 1000 0
DWIDTH 14 0
BBX 16 14 0 0
BITMAP
0FFF
0FFF
0E00
1C00
1C00
1C00
3800
3800
3800
7000
7000
7000
E000
E000
ENDCHAR
STARTCHAR cyr-Kha
ENCODING 232
SWIDTH 1071 0
DWIDTH 15 0
BBX 19 14 -1 0
BITMAP
0E00E0
0F01E0
0783C0
078F00
03DE00
01FC00
01F000
01F000
03F800
0F7800
1E3C00
3C1E00
F01E00
E00E00
ENDCHAR
STARTCHAR cyr-I
ENCODING 233
SWIDTH 1071 0
DWIDTH 15 0
BBX 17 14 0 0
BITMAP
0E0380
0E0380
0E0780
1C1F00
1C3F00
1C7F00
39EE00
3BCE00
3F8E00
7E1C00
7C1C00
781C00
E03800
E03800
ENDCHAR
STARTCHAR cyr-I-short
ENCODING 234
SWIDTH 882 0
DWIDTH 15 0
BBX 18 17 0 0
BITMAP
01C700
00FE00
007C00
0E0380
0E0380
0E0780
1C1F00
1C3F00
1C7F00
39EE00
3BCE00
3F8E00
7E1C00
7C1C00
781C00
E03800
E03800
ENDCHAR
STARTCHAR cyr-Ka
ENCODING 235
SWIDTH 929 0
DWIDTH 13 0
BBX 16 14 0 0
BITMAP
0E1E
0E3C
0E78
1DE0
1FC0
1F80
3E00
3F00
3F80
7780
73C0
71E0
E1E0
E0F0
ENDCHAR
STARTCHAR cyr-El
ENCODING 236
SWIDTH 1000 0
DWIDTH 14 0
BBX 16 14 0 0
BITMAP
03FF
03FF
0387
070E
070E
070E
0E1C
0E1C
0E1C
1C38
1C38
1C38
7870
F070
ENDCHAR
STARTCHAR cyr-Em
ENCODING 237
SWIDTH 1214 0
DWIDTH 17 0
BBX 19 14 0 0
BITMAP
0E00E0
0E00E0
0F01E0
1E03C0
1F07C0
1F07C0
3F1F80
3F1F80
3BBB80
777700
73E700
73E700
E38E00
E38E00
ENDCHAR
STARTCHAR cyr-En
ENCODING 238
SWIDTH 1071 0
DWIDTH 15 0
BBX 17 14 0 0
BITMAP
0E0380
0E0380
0E0380
1C0700
1C0700
1C0700
3FFE00
3FFE00
380E00
701C00
701C00
701C00
E03800
E03800
ENDCHAR
STARTCHAR cyr-O
ENCODING 239
SWIDTH 1143 0
DWIDTH 16 0
BBX 18 14 0 0
BITMAP
00FC00
03FF00
078780
0E0700
1C0380
1C0380
380700
380700
380700
700E00
381C00
3C3C00
3FF000
0FC000
ENDCHAR
STARTCHAR cyr-Pe
ENCODING 240
SWIDTH 1071 0
DWIDTH 15 0
BBX 17 14 0 0
BITMAP
0FFF80
0FFF80
0E0380
1C0700
1C0700
1C0700
380E00
380E00
380E00
701C00
701C00
701C00
E03800
E03800
ENDCHAR
STARTCHAR cyr-Ya
ENCODING 241
SWIDTH 933 0
DWIDTH 14 0
BBX 17 15 0 -1
BITMAP
01FF80
07FF00
0F0700
0E0700
1C0E00
1C0E00
1E0E00
1FFC00
0FFC00
01FC00
07B800
0F3800
1E3800
787000
F07000
ENDCHAR
STARTCHAR cyr-Er
ENCODING 242
SWIDTH 929 0
DWIDTH 13 0
BBX 16 14 0 0
BITMAP
0FF8
0FFE
0E0E
1C0E
1C0E
1C0E
3838
3FF8
3FE0
7000
7000
7000
E000
E000
ENDCHAR
STARTCHAR cyr-Es
ENCODING 243
SWIDTH 1000 0
DWIDTH 14 0
BBX 17 14 0 0
BITMAP
00FC00
03FF00
078780
0E0700
1C0000
1C0000
380000
380000
380000
700000
381C00
3C3C00
3FF000
0FC000
ENDCHAR
STARTCHAR cyr-Te
ENCODING 244
SWIDTH 929 0
DWIDTH 13 0
BBX 17 14 -1 0
BITMAP
0FFF80
0FFF80
007000
00E000
00E000
00E000
01C000
01C000
01C000
038000
038000
038000
070000
070000
ENDCHAR
STARTCHAR cyr-U
ENCODING 245
SWIDTH 929 0
DWIDTH 13 0
BBX 17 14 -1 0
BITMAP
0E0380
0E0380
070700
0E0E00
071C00
071C00
077000
077000
03E000
03C000
038000
078000
3E0000
3C0000
ENDCHAR
STARTCHAR cyr-Zhe
ENCODING 246
SWIDTH 1357 0
DWIDTH 19 0
BBX 23 14 -1 0
BITMAP
070E1C
078E3C
03CE78
03DDE0
01FFC0
00FF80
00FE00
01FF00
03FF80
0F7780
1E73C0
3C71E0
F0E1E0
E0E0E0
ENDCHAR
STARTCHAR cyr-Ve
ENCODING 247
SWIDTH 929 0
DWIDTH 13 0
BBX 15 14 0 0
BITMAP
0FF8
0FFC
0E1E
1C1C
1C1C
1C3C
3FF0
3FF0
3878
7070
7070
70F0
FFC0
FF80
ENDCHAR
STARTCHAR cyr-Ierik
ENCODING 248
SWIDTH 1000 0
DWIDTH 14 0
BBX 16 14 0 0
BITMAP
0E00
0E00
0E00
1C00
1C00
1FF8
3FF8
383C
381C
7038
7038
7078
FFE0
FFC0
ENDCHAR
STARTCHAR cyr-Iery
ENCODING 249
SWIDTH 1214 0
DWIDTH 17 0
BBX 19 14 0 0
BITMAP
0E00E0
0E00E0
0E00E0
1C01C0
1C01C0
1FF9C0
3FFB80
383F80
381F80
703F00
703F00
707F00
FFEE00
FFCE00
ENDCHAR
STARTCHAR cyr-Ze
ENCODING 250
SWIDTH 857 0
DWIDTH 12 0
BBX 14 14 0 0
BITMAP
03F0
07F8
0E1C
0038
0038
0070
03C0
03C0
00E0
00E0
00E0
70E0
7F80
3F00
ENDCHAR
STARTCHAR cyr-Sha
ENCODING 251
SWIDTH 1357 0
DWIDTH 19 0
BBX 21 14 0 0
BITMAP
0E1C38
0E1C38
0E1C38
1C3870
1C3870
1C3870
3870E0
3870E0
3870E0
70E1C0
70E1C0
70E1C0
FFFF80
FFFF80
ENDCHAR
STARTCHAR cyr-E-rev
ENCODING 252
SWIDTH 1000 0
DWIDTH 14 0
BBX 16 14 0 0
BITMAP
03F8
07FC
0F1E
001E
000E
000E
03FC
03FC
001C
0038
0070
78F0
7FC0
3F80
ENDCHAR
STARTCHAR cyr-Shcha
ENCODING 253
SWIDTH 1250 0
DWIDTH 20 0
BBX 23 16 0 -2
BITMAP
070E1C
070E1C
0E1C38
0E1C38
0E1C38
1C3870
1C3870
1C3870
3870E0
3870E0
3870E0
70E1C0
7FFFE0
7FFFE0
0001C0
0001C0
ENDCHAR
STARTCHAR cyr-Che
ENCODING 254
SWIDTH 1071 0
DWIDTH 15 0
BBX 17 14 0 0
BITMAP
0E0380
0E0380
0E0380
1C0700
1C0700
1E0700
1FFE00
0FFE00
000E00
001C00
001C00
001C00
003800
003800
ENDCHAR
STARTCHAR cyr-Ier
ENCODING 255
SWIDTH 1143 0
DWIDTH 16 0
BBX 18 14 0 0
BITMAP
0F8000
0F8000
038000
070000
070000
07FE00
0FFE00
0E0F00
0E0700
1C0E00
1C0E00
1C1E00
3FF800
3FF000
ENDCHAR
ENDFONT
