STARTFONT 2.1
COMMENT Copyright (C) 1990-1991 EWT Consulting
COMMENT Portions Copyright (C) 1994-1995 Cronyx Ltd.
COMMENT Changes Copyright (C) 1996-1997 by Andrey A. Chernov, Moscow, Russia.
COMMENT Modified by Serge Vakulenko, <vak@cronyx.ru>
COMMENT This software may be used, modified, copied, distributed, and sold,
COMMENT in both source and binary form provided that the copyright
COMMENT and these terms are retained. Under no circumstances is the author
COMMENT responsible for the proper functioning of this software, nor does
COMMENT the author assume any responsibility for damages incurred with its use.
COMMENT $XFree86: xc/fonts/bdf/cyrillic/crox5to.bdf,v 3.2.4.1 1998/02/01 16:04:07 robin Exp $
FONT -Cronyx-Times-Medium-I-Normal--25-180-100-100-P-94-KOI8-R
SIZE 18 96 96
FONTBOUNDINGBOX 31 26 -1 -6
STARTPROPERTIES 20
DEFAULT_CHAR 32
FONT_ASCENT 21
FONT_DESCENT 6
SPACING "P"
FONTNAME_REGISTRY ""
FOUNDRY "Cronyx"
FAMILY_NAME "Times"
WEIGHT_NAME "Medium"
SLANT "I"
SETWIDTH_NAME "Normal"
ADD_STYLE_NAME ""
AVERAGE_WIDTH 94
CHARSET_REGISTRY "KOI8"
CHARSET_ENCODING "R"
PIXEL_SIZE 25
POINT_SIZE 180
RESOLUTION_X 100
RESOLUTION_Y 100
COPYRIGHT "Copyright (C) 1990, 1991 EWT Consulting, Portions Copyright (C) 1994 Cronyx Ltd., Portions Copyright (C) 1996-1997 by Andrey A. Chernov, Moscow, Russia."
_XMBDFED_INFO "Edited with xmbdfed 2.7."
ENDPROPERTIES
CHARS 165
STARTCHAR space
ENCODING 32
SWIDTH 250 0
DWIDTH 6 0
BBX 0 0 -1 0
BITMAP
ENDCHAR
STARTCHAR exclam
ENCODING 33
SWIDTH 291 0
DWIDTH 7 0
BBX 8 17 1 0
BITMAP
02
07
07
0E
0E
0E
1C
1C
08
10
10
10
00
20
70
E0
40
ENDCHAR
STARTCHAR quotedbl
ENCODING 34
SWIDTH 416 0
DWIDTH 10 0
BBX 10 6 0 11
BITMAP
1080
7380
7380
2100
4200
4200
ENDCHAR
STARTCHAR numbersign
ENCODING 35
SWIDTH 500 0
DWIDTH 12 0
BBX 17 17 -1 0
BITMAP
00C600
00C600
00C600
018C00
018C00
07FF00
063000
063000
063000
0C6000
0C6000
3FF800
318000
318000
318000
630000
630000
ENDCHAR
STARTCHAR dollar
ENCODING 36
SWIDTH 500 0
DWIDTH 12 0
BBX 17 21 0 -3
BITMAP
000800
001000
007D00
00D700
032600
032200
032200
074000
03C000
01F000
00F000
00B000
00B800
213000
213000
313000
72C000
5F8000
020000
040000
040000
ENDCHAR
STARTCHAR percent
ENCODING 37
SWIDTH 833 0
DWIDTH 20 0
BBX 23 17 0 0
BITMAP
00F030
019FF0
0308E0
0C1180
0C1180
0C2300
188C00
0F0C00
001800
0061E0
006330
00C610
031820
031820
061840
183100
181E00
ENDCHAR
STARTCHAR ampersand
ENCODING 38
SWIDTH 791 0
DWIDTH 19 0
BBX 22 17 0 0
BITMAP
001C00
003600
006300
00C200
00C600
006C00
00F000
01E3E0
0771C0
186100
183300
303A00
603C00
601C00
303E40
79CF80
1F0700
ENDCHAR
STARTCHAR quoteright
ENCODING 39
SWIDTH 250 0
DWIDTH 6 0
BBX 5 6 1 11
BITMAP
10
70
70
20
40
40
ENDCHAR
STARTCHAR parenleft
ENCODING 40
SWIDTH 333 0
DWIDTH 8 0
BBX 13 22 0 -5
BITMAP
0008
0010
0040
00C0
0080
0300
0300
0600
0C00
0C00
0C00
1800
1800
1800
3000
1800
1800
1000
1800
0800
0800
0400
ENDCHAR
STARTCHAR parenright
ENCODING 41
SWIDTH 333 0
DWIDTH 8 0
BBX 13 22 0 -5
BITMAP
0100
0080
0080
00C0
0040
00C0
00C0
0060
00C0
00C0
00C0
0180
0180
0180
0300
0300
0600
0C00
0800
1800
2000
4000
ENDCHAR
STARTCHAR asterisk
ENCODING 42
SWIDTH 333 0
DWIDTH 8 0
BBX 10 9 0 9
BITMAP
0200
0E00
3580
3F80
1C00
7F00
6B00
3800
1000
ENDCHAR
STARTCHAR plus
ENCODING 43
SWIDTH 583 0
DWIDTH 14 0
BBX 13 10 1 2
BITMAP
0180
0180
0300
0300
3FF0
7FE0
0600
0600
0C00
0C00
ENDCHAR
STARTCHAR comma
ENCODING 44
SWIDTH 250 0
DWIDTH 6 0
BBX 5 7 1 -3
BITMAP
10
38
70
30
10
20
40
ENDCHAR
STARTCHAR minus
ENCODING 45
SWIDTH 333 0
DWIDTH 8 0
BBX 6 2 0 6
BITMAP
FC
FC
ENDCHAR
STARTCHAR period
ENCODING 46
SWIDTH 250 0
DWIDTH 6 0
BBX 4 4 1 0
BITMAP
20
70
E0
40
ENDCHAR
STARTCHAR slash
ENCODING 47
SWIDTH 291 0
DWIDTH 7 0
BBX 13 18 -1 -1
BITMAP
0018
0030
0030
0060
00C0
00C0
0180
0300
0300
0600
0C00
0C00
1800
3000
3000
6000
C000
C000
ENDCHAR
STARTCHAR zero
ENCODING 48
SWIDTH 500 0
DWIDTH 12 0
BBX 15 16 0 0
BITMAP
00F0
0198
0618
0618
0C0C
1818
1818
1818
3030
3030
3030
6060
30C0
30C0
3300
1E00
ENDCHAR
STARTCHAR one
ENCODING 49
SWIDTH 500 0
DWIDTH 12 0
BBX 11 16 2 0
BITMAP
0080
0180
0700
0F00
0300
0600
0600
0600
0C00
0C00
0C00
1800
1800
1800
7800
FC00
ENDCHAR
STARTCHAR two
ENCODING 50
SWIDTH 500 0
DWIDTH 12 0
BBX 15 16 0 0
BITMAP
00F0
01F8
0638
0418
0018
0030
0030
0060
00C0
0180
0300
0400
0820
1060
7F80
FF80
ENDCHAR
STARTCHAR three
ENCODING 51
SWIDTH 500 0
DWIDTH 12 0
BBX 15 16 0 0
BITMAP
00F0
01F8
0638
0018
0018
0060
01E0
0070
0060
0030
0030
0060
00E0
71C0
F700
3E00
ENDCHAR
STARTCHAR four
ENCODING 52
SWIDTH 500 0
DWIDTH 12 0
BBX 16 16 0 0
BITMAP
001C
001C
0078
00D8
0198
0230
0630
0C30
3060
3060
3FF8
7FF0
00C0
00C0
0180
0180
ENDCHAR
STARTCHAR five
ENCODING 53
SWIDTH 500 0
DWIDTH 12 0
BBX 15 16 0 0
BITMAP
01FC
01F8
0200
0400
0400
0FC0
0FF0
0070
0070
0030
0030
0060
0060
70C0
F380
3E00
ENDCHAR
STARTCHAR six
ENCODING 54
SWIDTH 500 0
DWIDTH 12 0
BBX 15 16 0 0
BITMAP
0018
0060
0180
0300
0600
0C00
1DC0
1E70
3860
3030
3030
6060
6060
30C0
7380
1E00
ENDCHAR
STARTCHAR seven
ENCODING 55
SWIDTH 500 0
DWIDTH 12 0
BBX 15 16 0 0
BITMAP
03FE
03FC
0C18
0818
0030
0060
0040
00C0
0180
0300
0300
0600
0C00
0C00
3000
3000
ENDCHAR
STARTCHAR eight
ENCODING 56
SWIDTH 500 0
DWIDTH 12 0
BBX 15 16 0 0
BITMAP
01F0
0318
0C18
0C18
0E18
0E30
0760
07E0
1BE0
10E0
3070
6060
6060
30C0
7380
1E00
ENDCHAR
STARTCHAR nine
ENCODING 57
SWIDTH 500 0
DWIDTH 12 0
BBX 15 16 0 0
BITMAP
00F0
039C
0618
0C0C
0C0C
1818
1818
0C38
1CF0
0770
0060
00C0
0180
0300
0C00
3000
ENDCHAR
STARTCHAR colon
ENCODING 58
SWIDTH 291 0
DWIDTH 7 0
BBX 6 11 1 0
BITMAP
08
1C
1C
10
00
00
00
20
70
E0
40
ENDCHAR
STARTCHAR semicolon
ENCODING 59
SWIDTH 291 0
DWIDTH 7 0
BBX 7 14 1 -3
BITMAP
04
0E
0E
08
00
00
00
10
38
70
30
10
20
40
ENDCHAR
STARTCHAR less
ENCODING 60
SWIDTH 583 0
DWIDTH 14 0
BBX 15 13 0 1
BITMAP
0006
001C
0070
01C0
0380
1C00
3800
1C00
0E00
0700
01C0
01C0
0060
ENDCHAR
STARTCHAR equal
ENCODING 61
SWIDTH 583 0
DWIDTH 14 0
BBX 14 7 0 4
BITMAP
3FFC
3FFC
0000
0000
0000
FFF0
FFF0
ENDCHAR
STARTCHAR greater
ENCODING 62
SWIDTH 583 0
DWIDTH 14 0
BBX 15 13 1 1
BITMAP
0C00
0700
0700
01C0
00E0
0070
0038
0070
0380
0700
1C00
7000
C000
ENDCHAR
STARTCHAR question
ENCODING 63
SWIDTH 458 0
DWIDTH 11 0
BBX 14 17 0 0
BITMAP
01F0
0338
061C
0E38
0E38
0430
0060
00C0
0180
0200
0200
0200
0000
0400
0E00
1C00
0800
ENDCHAR
STARTCHAR at
ENCODING 64
SWIDTH 958 0
DWIDTH 23 0
BBX 26 17 0 -3
BITMAP
000FE000
00383800
00E00E00
03000600
060F8300
0618E300
1860C300
18C0C300
18C18300
31830C00
30C79C00
187DF000
30000000
18000000
0E000000
07060000
01F80000
ENDCHAR
STARTCHAR A
ENCODING 65
SWIDTH 708 0
DWIDTH 17 0
BBX 21 16 0 0
BITMAP
000C00
000C00
003C00
002C00
006600
008C00
008C00
018600
020C00
020C00
07FE00
080C00
180600
100600
200C00
F83F00
ENDCHAR
STARTCHAR B
ENCODING 66
SWIDTH 666 0
DWIDTH 16 0
BBX 19 16 0 0
BITMAP
07FF00
018180
030180
030180
030180
060300
060600
07FE00
0C0E00
0C0600
0C0300
180600
180600
180C00
303800
FFE000
ENDCHAR
STARTCHAR C
ENCODING 67
SWIDTH 625 0
DWIDTH 15 0
BBX 18 16 0 0
BITMAP
003E40
00E3C0
030180
060080
060080
180000
180000
180000
300000
300000
300000
300000
300400
180800
1C6000
078000
ENDCHAR
STARTCHAR D
ENCODING 68
SWIDTH 708 0
DWIDTH 17 0
BBX 20 16 0 0
BITMAP
07FE00
018380
030180
0300C0
0300C0
0600C0
0600C0
0600C0
0C0180
0C0180
0C0180
180600
180600
180C00
307000
FFC000
ENDCHAR
STARTCHAR E
ENCODING 69
SWIDTH 583 0
DWIDTH 14 0
BBX 17 16 0 0
BITMAP
07FF00
018300
030200
030000
030000
061000
061000
07F000
0C2000
0C2000
0C0000
180000
180000
180800
303000
FFE000
ENDCHAR
STARTCHAR F
ENCODING 70
SWIDTH 541 0
DWIDTH 13 0
BBX 16 16 0 0
BITMAP
07FF
0183
0302
0300
0300
0610
0610
07F0
0C20
0C20
0C00
1800
1800
1800
3000
FC00
ENDCHAR
STARTCHAR G
ENCODING 71
SWIDTH 708 0
DWIDTH 17 0
BBX 21 16 0 0
BITMAP
003E40
00E1C0
030180
060080
060080
180000
180000
180000
300FC0
300300
300300
300600
300600
180400
1C3000
07C000
ENDCHAR
STARTCHAR H
ENCODING 72
SWIDTH 708 0
DWIDTH 17 0
BBX 20 16 0 0
BITMAP
07E3F0
0180C0
030180
030180
030180
060300
060300
07FF00
0C0600
0C0600
0C0600
180C00
180C00
180C00
301800
FC7E00
ENDCHAR
STARTCHAR I
ENCODING 73
SWIDTH 333 0
DWIDTH 8 0
BBX 11 16 0 0
BITMAP
07E0
0180
0300
0300
0300
0600
0600
0600
0C00
0C00
0C00
1800
1800
1800
3000
FC00
ENDCHAR
STARTCHAR J
ENCODING 74
SWIDTH 416 0
DWIDTH 10 0
BBX 13 16 0 0
BITMAP
01F8
0060
00C0
00C0
00C0
0180
0180
0180
0300
0300
0300
0600
0600
6600
CC00
7800
ENDCHAR
STARTCHAR K
ENCODING 75
SWIDTH 708 0
DWIDTH 17 0
BBX 21 16 0 0
BITMAP
07E3E0
018180
030600
030C00
031800
066000
06E000
07E000
0E6000
0C3000
0C3000
183000
181800
181800
301800
FC7F00
ENDCHAR
STARTCHAR L
ENCODING 76
SWIDTH 583 0
DWIDTH 14 0
BBX 17 16 0 0
BITMAP
07F000
018000
030000
030000
030000
060000
060000
060000
0C0000
0C0000
0C0000
180000
180000
180800
303000
FFE000
ENDCHAR
STARTCHAR M
ENCODING 77
SWIDTH 875 0
DWIDTH 21 0
BBX 24 16 0 0
BITMAP
07C01F
01C01C
03C038
02C078
02C058
04C0B0
04C1B0
046130
08C260
08C660
086460
10D8C0
1070C0
1070C0
20E180
F843E0
ENDCHAR
STARTCHAR N
ENCODING 78
SWIDTH 708 0
DWIDTH 17 0
BBX 20 16 0 0
BITMAP
0781F0
018040
038080
03C080
02C080
04C100
046100
046100
086200
083200
083200
103400
101C00
101C00
201800
F80800
ENDCHAR
STARTCHAR O
ENCODING 79
SWIDTH 708 0
DWIDTH 17 0
BBX 20 16 0 0
BITMAP
003E00
00E380
030180
0600C0
0600C0
1800C0
1800C0
1800C0
300180
300180
300180
300600
300600
180C00
1C7000
07C000
ENDCHAR
STARTCHAR P
ENCODING 80
SWIDTH 583 0
DWIDTH 14 0
BBX 17 16 0 0
BITMAP
07FC00
018700
030600
030300
030300
060600
060C00
061C00
0FE000
0C0000
0C0000
180000
180000
180000
300000
FC0000
ENDCHAR
STARTCHAR Q
ENCODING 81
SWIDTH 708 0
DWIDTH 17 0
BBX 21 19 0 -3
BITMAP
001F00
0071C0
0180C0
030060
030060
0C0060
0C0060
0C0060
1800C0
1800C0
1800C0
180300
180300
0C0600
0E3800
03E000
01E000
01E000
007C00
ENDCHAR
STARTCHAR R
ENCODING 82
SWIDTH 666 0
DWIDTH 16 0
BBX 20 16 0 0
BITMAP
07FE00
018380
030300
030180
030180
060300
060600
060E00
0FF000
0C3000
0C3800
183000
183800
181800
303800
FC1E00
ENDCHAR
STARTCHAR S
ENCODING 83
SWIDTH 541 0
DWIDTH 13 0
BBX 16 16 0 0
BITMAP
01FA
030E
0C0C
0C04
0E04
0E00
0F80
03E0
01F0
0070
0038
4030
4030
6060
E1C0
BF00
ENDCHAR
STARTCHAR T
ENCODING 84
SWIDTH 666 0
DWIDTH 16 0
BBX 19 16 0 0
BITMAP
07FFE0
061860
083040
083040
003000
006000
006000
006000
00C000
00C000
00C000
018000
018000
018000
030000
0FC000
ENDCHAR
STARTCHAR U
ENCODING 85
SWIDTH 708 0
DWIDTH 17 0
BBX 20 16 0 0
BITMAP
07E1F0
018040
030080
030080
030080
060100
060100
060100
0C0200
0C0200
0C0200
180400
180400
0C0800
1C3000
07C000
ENDCHAR
STARTCHAR V
ENCODING 86
SWIDTH 708 0
DWIDTH 17 0
BBX 22 16 -1 0
BITMAP
07E0FC
030070
030040
030040
018080
030100
018200
018200
018400
018800
00C800
01A000
00E000
00E000
008000
008000
ENDCHAR
STARTCHAR W
ENCODING 87
SWIDTH 916 0
DWIDTH 22 0
BBX 27 16 -1 0
BITMAP
07CFEFE0
03838380
03030200
03030200
03030200
030B0800
030B0800
030B0800
03232000
03232000
03232000
03838000
03838000
01838000
02020000
02020000
ENDCHAR
STARTCHAR X
ENCODING 88
SWIDTH 750 0
DWIDTH 18 0
BBX 21 16 0 0
BITMAP
07F1F0
01C040
018100
00C100
006200
006800
003000
003800
007000
009800
010C00
021800
040C00
080600
380C00
FE3F00
ENDCHAR
STARTCHAR Y
ENCODING 89
SWIDTH 750 0
DWIDTH 18 0
BBX 23 16 -1 0
BITMAP
07F07E
01C018
01C060
00C040
00E0C0
00E300
006200
007600
007800
003000
003000
006000
006000
006000
00C000
03F000
ENDCHAR
STARTCHAR Z
ENCODING 90
SWIDTH 625 0
DWIDTH 15 0
BBX 18 16 0 0
BITMAP
03FFC0
030380
040600
000E00
001C00
003000
007000
00E000
018000
038000
070000
0C0000
1C0000
380400
601800
FFF800
ENDCHAR
STARTCHAR bracketleft
ENCODING 91
SWIDTH 333 0
DWIDTH 8 0
BBX 12 22 1 -5
BITMAP
01F0
01C0
0300
0300
0300
0600
0600
0600
0C00
0C00
0C00
1800
1800
1800
3000
3000
3000
6000
6000
6000
E000
F800
ENDCHAR
STARTCHAR backslash
ENCODING 92
SWIDTH 291 0
DWIDTH 7 0
BBX 12 17 -1 0
BITMAP
0600
0600
0600
0600
0600
0600
0600
0600
0600
0600
0600
0600
0600
0600
0600
0600
0600
ENDCHAR
STARTCHAR bracketright
ENCODING 93
SWIDTH 333 0
DWIDTH 8 0
BBX 12 22 0 -5
BITMAP
01F0
0070
0060
0060
0060
00C0
00C0
00C0
0180
0180
0180
0300
0300
0300
0600
0600
0600
0C00
0C00
0C00
3800
F800
ENDCHAR
STARTCHAR asciicircum
ENCODING 94
SWIDTH 458 0
DWIDTH 11 0
BBX 10 5 0 12
BITMAP
0400
0E00
1F00
6300
C180
ENDCHAR
STARTCHAR underscore
ENCODING 95
SWIDTH 500 0
DWIDTH 12 0
BBX 12 2 -1 -4
BITMAP
FFF0
FFF0
ENDCHAR
STARTCHAR quoteleft
ENCODING 96
SWIDTH 333 0
DWIDTH 8 0
BBX 5 3 1 14
BITMAP
60
60
10
ENDCHAR
STARTCHAR a
ENCODING 97
SWIDTH 458 0
DWIDTH 11 0
BBX 13 11 0 0
BITMAP
07C0
0C60
0C60
00C0
03C0
0EC0
3180
6180
63A0
EFC0
7980
ENDCHAR
STARTCHAR b
ENCODING 98
SWIDTH 458 0
DWIDTH 11 0
BBX 15 17 0 0
BITMAP
0100
0700
0300
0600
0600
0600
0DE0
0E30
0C18
1830
1830
1830
3060
3060
3060
3180
1E00
ENDCHAR
STARTCHAR c
ENCODING 99
SWIDTH 416 0
DWIDTH 10 0
BBX 12 11 0 0
BITMAP
03E0
0C30
0830
3000
3000
3000
6000
6000
3040
3180
1F00
ENDCHAR
STARTCHAR d
ENCODING 100
SWIDTH 458 0
DWIDTH 11 0
BBX 15 17 0 0
BITMAP
0004
001C
000C
0018
0018
0018
07B0
0C70
1830
3060
3060
3060
60C0
60C0
60C0
63C0
3D00
ENDCHAR
STARTCHAR e
ENCODING 101
SWIDTH 416 0
DWIDTH 10 0
BBX 12 11 0 0
BITMAP
07C0
0C60
1830
3060
3FE0
3000
6000
6000
30C0
7300
1E00
ENDCHAR
STARTCHAR f
ENCODING 102
SWIDTH 291 0
DWIDTH 7 0
BBX 11 17 0 0
BITMAP
01C0
0360
0360
0600
0600
0600
1F00
0C00
0C00
1800
1800
1800
3000
3000
3000
6000
F800
ENDCHAR
STARTCHAR g
ENCODING 103
SWIDTH 500 0
DWIDTH 12 0
BBX 17 17 -1 -6
BITMAP
00F000
019C00
030F00
061800
061800
061800
066000
07C000
0C0000
1C0000
0FE000
043800
303800
601800
601800
E06000
7F0000
ENDCHAR
STARTCHAR h
ENCODING 104
SWIDTH 458 0
DWIDTH 11 0
BBX 15 17 0 0
BITMAP
0100
0700
0300
0600
0600
0600
0CE0
0D70
0E30
1860
1860
1860
30C0
30C0
30C0
6180
F3C0
ENDCHAR
STARTCHAR i
ENCODING 105
SWIDTH 208 0
DWIDTH 5 0
BBX 9 17 0 0
BITMAP
0300
0300
0000
0000
0000
0000
0400
1C00
0C00
1800
1800
1800
3000
3000
3000
6000
F000
ENDCHAR
STARTCHAR j
ENCODING 106
SWIDTH 208 0
DWIDTH 5 0
BBX 12 22 -1 -5
BITMAP
0060
0060
0000
0000
0000
0000
0040
01C0
0180
0180
0180
0300
0300
0300
0600
0600
0600
0C00
0C00
6C00
D800
7000
ENDCHAR
STARTCHAR k
ENCODING 107
SWIDTH 500 0
DWIDTH 12 0
BBX 16 17 0 0
BITMAP
0100
0700
0300
0600
0600
0600
0CF0
0C40
0C80
1A00
1E00
1E00
3600
3300
3180
6180
F3E0
ENDCHAR
STARTCHAR l
ENCODING 108
SWIDTH 208 0
DWIDTH 5 0
BBX 9 17 0 0
BITMAP
0100
0700
0300
0600
0600
0600
0C00
0C00
0C00
1800
1800
1800
3000
3000
3000
6000
F000
ENDCHAR
STARTCHAR m
ENCODING 109
SWIDTH 708 0
DWIDTH 17 0
BBX 19 11 0 0
BITMAP
04E380
1D75C0
0E38C0
186180
186180
186180
30C300
30C300
30C300
618600
F3CF00
ENDCHAR
STARTCHAR n
ENCODING 110
SWIDTH 458 0
DWIDTH 11 0
BBX 13 11 0 0
BITMAP
04E0
1D70
0E30
1860
1860
1860
30C0
30C0
30C0
6180
F3C0
ENDCHAR
STARTCHAR o
ENCODING 111
SWIDTH 458 0
DWIDTH 11 0
BBX 13 11 0 0
BITMAP
01C0
0660
0C30
3030
3030
3030
6060
6060
30C0
3300
1C00
ENDCHAR
STARTCHAR p
ENCODING 112
SWIDTH 458 0
DWIDTH 11 0
BBX 15 16 0 -5
BITMAP
01F8
078C
060C
060C
060C
0C18
0C18
0C18
1830
1C60
1B80
3000
3000
3000
6000
F000
ENDCHAR
STARTCHAR q
ENCODING 113
SWIDTH 458 0
DWIDTH 11 0
BBX 15 16 0 -5
BITMAP
01F4
031C
0C18
0C18
0C18
1830
1830
1830
3060
18E0
0F60
00C0
00C0
00C0
0180
03C0
ENDCHAR
STARTCHAR r
ENCODING 114
SWIDTH 333 0
DWIDTH 8 0
BBX 10 11 0 0
BITMAP
05C0
1EC0
0C00
1800
1800
1800
3000
3000
3000
6000
F000
ENDCHAR
STARTCHAR s
ENCODING 115
SWIDTH 375 0
DWIDTH 9 0
BBX 11 11 0 0
BITMAP
07C0
0CC0
1840
3800
1E00
0780
0380
4180
6180
E600
9C00
ENDCHAR
STARTCHAR t
ENCODING 116
SWIDTH 250 0
DWIDTH 6 0
BBX 10 15 0 0
BITMAP
0100
0200
0600
0600
1F00
0C00
0C00
1800
1800
1800
3000
3000
3000
6800
3000
ENDCHAR
STARTCHAR u
ENCODING 117
SWIDTH 458 0
DWIDTH 11 0
BBX 13 11 0 0
BITMAP
1C70
0C30
0C30
1860
1860
1860
30C0
30C0
31C0
35C0
1900
ENDCHAR
STARTCHAR v
ENCODING 118
SWIDTH 458 0
DWIDTH 11 0
BBX 14 11 -1 0
BITMAP
1E1C
0C08
0C08
0C20
0C20
0640
0C80
0700
0700
0400
0400
ENDCHAR
STARTCHAR w
ENCODING 119
SWIDTH 708 0
DWIDTH 17 0
BBX 20 11 -1 0
BITMAP
1E7870
0C3020
0C3020
0C3080
0C3080
065900
0CB200
071C00
071C00
041000
041000
ENDCHAR
STARTCHAR x
ENCODING 120
SWIDTH 500 0
DWIDTH 12 0
BBX 13 11 0 0
BITMAP
1E78
0C20
0640
0E80
0700
0300
0700
0B00
1180
6180
F3C0
ENDCHAR
STARTCHAR y
ENCODING 121
SWIDTH 541 0
DWIDTH 13 0
BBX 16 16 0 -5
BITMAP
0787
0302
0604
0308
0308
0320
0320
01C0
0380
0100
0100
0400
0400
0800
D000
E000
ENDCHAR
STARTCHAR z
ENCODING 122
SWIDTH 458 0
DWIDTH 11 0
BBX 12 11 0 0
BITMAP
0FF0
0860
08C0
0180
0300
0600
0C00
1800
3040
6080
FF80
ENDCHAR
STARTCHAR braceleft
ENCODING 123
SWIDTH 416 0
DWIDTH 10 0
BBX 12 22 2 -5
BITMAP
0010
0060
0180
0180
0180
0300
0300
0300
0600
0600
0600
1800
0C00
0C00
1800
1800
1800
3000
3000
3000
2000
1000
ENDCHAR
STARTCHAR bar
ENCODING 124
SWIDTH 250 0
DWIDTH 6 0
BBX 7 17 1 0
BITMAP
06
06
06
0C
0C
0C
18
18
18
30
30
30
60
60
60
C0
C0
ENDCHAR
STARTCHAR braceright
ENCODING 125
SWIDTH 416 0
DWIDTH 10 0
BBX 11 22 2 -5
BITMAP
0100
0080
0180
0180
0180
0300
0300
0300
0600
0600
0600
0600
0C00
0C00
1800
1800
1800
3000
3000
3000
4000
8000
ENDCHAR
STARTCHAR asciitilde
ENCODING 126
SWIDTH 500 0
DWIDTH 12 0
BBX 11 4 0 13
BITMAP
1C20
3E60
CF80
8700
ENDCHAR
STARTCHAR nbsp
ENCODING 154
SWIDTH 250 0
DWIDTH 6 0
BBX 0 0 -1 0
BITMAP
ENDCHAR
STARTCHAR degree
ENCODING 156
SWIDTH 333 0
DWIDTH 8 0
BBX 8 6 0 12
BITMAP
0C
3C
66
66
78
30
ENDCHAR
STARTCHAR twosuperior
ENCODING 157
SWIDTH 250 0
DWIDTH 6 0
BBX 7 8 -1 9
BITMAP
1C
36
06
0C
18
30
48
F8
ENDCHAR
STARTCHAR cyr-yo
ENCODING 163
SWIDTH 375 0
DWIDTH 9 0
BBX 14 15 0 0
BITMAP
0110
0770
0220
0000
07C0
0C60
1830
3060
3FE0
3000
6000
6000
30C0
7300
1E00
ENDCHAR
STARTCHAR cyr-Yo
ENCODING 179
SWIDTH 541 0
DWIDTH 13 0
BBX 19 20 0 0
BITMAP
00C300
01E780
00C300
000000
07FF80
018180
030100
030000
030000
060800
060800
07F800
0C1000
0C1000
0C0000
180000
180000
180400
301800
FFF000
ENDCHAR
STARTCHAR copyright
ENCODING 191
SWIDTH 750 0
DWIDTH 18 0
BBX 21 16 0 1
BITMAP
003F00
00E1C0
0300C0
060060
063E60
18CC60
198460
198060
3300C0
3308C0
3190C0
31C300
300300
180600
1C3800
07E000
ENDCHAR
STARTCHAR cyr-yu
ENCODING 192
SWIDTH 666 0
DWIDTH 16 0
BBX 18 11 0 0
BITMAP
1E1E00
0C3300
0C6180
198180
198180
1F8180
330300
330300
318600
619800
F0F000
ENDCHAR
STARTCHAR cyr-a
ENCODING 193
SWIDTH 458 0
DWIDTH 11 0
BBX 13 11 0 0
BITMAP
07C0
0C60
0C60
00C0
03C0
0EC0
3180
6180
63A0
EFC0
7980
ENDCHAR
STARTCHAR cyr-be
ENCODING 194
SWIDTH 416 0
DWIDTH 10 0
BBX 15 18 0 0
BITMAP
0004
01F0
0200
0600
0C00
0C00
0C00
1BC0
1C60
1830
3060
3060
3060
60C0
60C0
60C0
6300
3C00
ENDCHAR
STARTCHAR cyr-tse
ENCODING 195
SWIDTH 541 0
DWIDTH 13 0
BBX 16 13 0 -2
BITMAP
0F1E
060C
0C18
0C18
0C18
1830
1830
1830
3060
3060
7FF8
0030
0010
ENDCHAR
STARTCHAR cyr-de
ENCODING 196
SWIDTH 500 0
DWIDTH 12 0
BBX 15 13 0 -2
BITMAP
03FC
0118
0230
0230
0230
0460
0460
0460
08C0
10C0
7FF0
C060
8020
ENDCHAR
STARTCHAR cyr-ie
ENCODING 197
SWIDTH 416 0
DWIDTH 10 0
BBX 12 11 0 0
BITMAP
07C0
0C60
1830
3060
3FE0
3000
6000
6000
60C0
6300
3E00
ENDCHAR
STARTCHAR cyr-ef
ENCODING 198
SWIDTH 541 0
DWIDTH 13 0
BBX 17 17 0 -6
BITMAP
007C00
01B600
033300
0C6300
0C6300
0C6300
18C600
18C600
0CCC00
0DB000
07E000
018000
030000
030000
030000
060000
0F0000
ENDCHAR
STARTCHAR cyr-ghe
ENCODING 199
SWIDTH 375 0
DWIDTH 9 0
BBX 11 11 0 0
BITMAP
1FE0
0C20
0C20
1800
1800
1800
3000
3000
3000
6000
F000
ENDCHAR
STARTCHAR cyr-kha
ENCODING 200
SWIDTH 458 0
DWIDTH 11 0
BBX 13 11 0 0
BITMAP
1E78
0C20
0640
0E80
0700
0300
0700
0B00
1180
6180
F3C0
ENDCHAR
STARTCHAR cyr-i
ENCODING 201
SWIDTH 500 0
DWIDTH 12 0
BBX 14 11 0 0
BITMAP
1E3C
0C38
0C58
18B0
1930
1930
3460
3460
3860
70C0
F1E0
ENDCHAR
STARTCHAR cyr-i-short
ENCODING 202
SWIDTH 500 0
DWIDTH 12 0
BBX 15 14 0 0
BITMAP
01B0
00E0
0000
1E3C
0C38
0C58
18B0
1930
1930
3460
3460
3860
70C0
F1E0
ENDCHAR
STARTCHAR cyr-ka
ENCODING 203
SWIDTH 500 0
DWIDTH 12 0
BBX 14 11 0 0
BITMAP
1E38
0C58
0C40
1900
1E00
1E00
3600
3300
3180
6180
F3E0
ENDCHAR
STARTCHAR cyr-el
ENCODING 204
SWIDTH 500 0
DWIDTH 12 0
BBX 14 11 0 0
BITMAP
07FC
0218
0218
0430
0430
0430
0860
0860
0860
D0C0
E1E0
ENDCHAR
STARTCHAR cyr-em
ENCODING 205
SWIDTH 625 0
DWIDTH 15 0
BBX 17 11 0 0
BITMAP
1C0780
0E0700
0E0B00
161600
162600
132600
268C00
238C00
238C00
421800
E03C00
ENDCHAR
STARTCHAR cyr-en
ENCODING 206
SWIDTH 500 0
DWIDTH 12 0
BBX 14 11 0 0
BITMAP
1E3C
0C18
0C18
1830
1830
1FF0
3060
3060
3060
60C0
F1E0
ENDCHAR
STARTCHAR cyr-o
ENCODING 207
SWIDTH 458 0
DWIDTH 11 0
BBX 13 11 0 0
BITMAP
07E0
0C30
1818
3030
3030
3030
6060
6060
6060
6180
3F00
ENDCHAR
STARTCHAR cyr-pe
ENCODING 208
SWIDTH 500 0
DWIDTH 12 0
BBX 14 11 0 0
BITMAP
1FFC
0C18
0C18
1830
1830
1830
3060
3060
3060
60C0
F1E0
ENDCHAR
STARTCHAR cyr-ya
ENCODING 209
SWIDTH 541 0
DWIDTH 13 0
BBX 15 11 0 0
BITMAP
03FE
060C
060C
0C18
0C18
07F8
0630
0C30
0C30
3060
F0F0
ENDCHAR
STARTCHAR cyr-er
ENCODING 210
SWIDTH 458 0
DWIDTH 11 0
BBX 15 16 0 -5
BITMAP
03F8
030C
060C
060C
060C
0C18
0C18
0C18
1830
1860
1FC0
3000
3000
3000
6000
F000
ENDCHAR
STARTCHAR cyr-es
ENCODING 211
SWIDTH 416 0
DWIDTH 10 0
BBX 12 11 0 0
BITMAP
07E0
0C30
1830
3000
3000
3000
6000
6000
6040
6180
3F00
ENDCHAR
STARTCHAR cyr-te
ENCODING 212
SWIDTH 458 0
DWIDTH 11 0
BBX 13 11 0 0
BITMAP
1FF8
1188
0180
0300
0300
0300
0600
0600
0600
0C00
1E00
ENDCHAR
STARTCHAR cyr-u
ENCODING 213
SWIDTH 500 0
DWIDTH 12 0
BBX 16 16 0 -5
BITMAP
0787
0302
0604
0308
0308
0320
0320
01C0
0380
0100
0100
0400
0400
0800
D000
E000
ENDCHAR
STARTCHAR cyr-zhe
ENCODING 214
SWIDTH 750 0
DWIDTH 18 0
BBX 21 11 -1 0
BITMAP
0E3C70
0D18B0
011880
013200
00B400
00FC00
036C00
066600
0C6300
30C300
F9E7C0
ENDCHAR
STARTCHAR cyr-ve
ENCODING 215
SWIDTH 416 0
DWIDTH 10 0
BBX 12 11 0 0
BITMAP
1FC0
0C60
0C60
18C0
1980
1FC0
30C0
30C0
30C0
6180
FF00
ENDCHAR
STARTCHAR cyr-ierik
ENCODING 216
SWIDTH 416 0
DWIDTH 10 0
BBX 12 11 0 0
BITMAP
1E00
0C00
0C00
1800
1FC0
1860
30C0
30C0
30C0
6180
FF00
ENDCHAR
STARTCHAR cyr-iery
ENCODING 217
SWIDTH 625 0
DWIDTH 15 0
BBX 17 11 0 0
BITMAP
1E0780
0C0300
0C0300
180600
1FC600
186600
30CC00
30CC00
30CC00
619800
FF3C00
ENDCHAR
STARTCHAR cyr-z
ENCODING 218
SWIDTH 416 0
DWIDTH 10 0
BBX 12 11 0 0
BITMAP
17C0
1860
1030
0060
00C0
0780
0180
00C0
40C0
C300
BE00
ENDCHAR
STARTCHAR cyr-sha
ENCODING 219
SWIDTH 708 0
DWIDTH 17 0
BBX 19 11 0 0
BITMAP
1E79E0
0C30C0
0C30C0
186180
186180
186180
30C300
30C300
30C300
618600
FFFF00
ENDCHAR
STARTCHAR cyr-e-rev
ENCODING 220
SWIDTH 416 0
DWIDTH 10 0
BBX 12 11 0 0
BITMAP
0FC0
1860
1030
0060
0060
0FE0
00C0
00C0
40C0
C300
7E00
ENDCHAR
STARTCHAR cyr-shcha
ENCODING 221
SWIDTH 750 0
DWIDTH 18 0
BBX 21 13 0 -2
BITMAP
0F3CF0
061860
0C30C0
0C30C0
0C30C0
186180
186180
186180
30C300
30C300
7FFFC0
000180
000080
ENDCHAR
STARTCHAR cyr-che
ENCODING 222
SWIDTH 500 0
DWIDTH 12 0
BBX 14 11 0 0
BITMAP
1E3C
0C18
0C18
1830
1830
1830
1FE0
0060
0060
00C0
01E0
ENDCHAR
STARTCHAR cyr-ier
ENCODING 223
SWIDTH 541 0
DWIDTH 13 0
BBX 15 11 0 0
BITMAP
1FC0
1980
1180
2300
03F8
030C
0618
0618
0618
0C30
1FE0
ENDCHAR
STARTCHAR cyr-Yu
ENCODING 224
SWIDTH 958 0
DWIDTH 23 0
BBX 26 16 0 0
BITMAP
0780F800
03038E00
060C0600
06180300
06180300
0C600300
0C600300
0FE00300
18C00600
18C00600
18C00600
30C01800
30C01800
30603000
6071C000
F01F0000
ENDCHAR
STARTCHAR cyr-A
ENCODING 225
SWIDTH 708 0
DWIDTH 17 0
BBX 21 16 0 0
BITMAP
000C00
000C00
003C00
002C00
006600
008C00
008C00
018600
020C00
020C00
07FE00
080C00
180600
100600
200C00
F83F00
ENDCHAR
STARTCHAR cyr-Be
ENCODING 226
SWIDTH 625 0
DWIDTH 15 0
BBX 18 16 0 0
BITMAP
07FFC0
0300C0
060080
060000
060000
0C0000
0FF800
0C0E00
180C00
180600
180600
300C00
300C00
301800
607000
FFC000
ENDCHAR
STARTCHAR cyr-Tse
ENCODING 227
SWIDTH 666 0
DWIDTH 16 0
BBX 20 19 0 -3
BITMAP
03C1E0
0180C0
030180
030180
030180
060300
060300
060300
0C0600
0C0600
0C0600
180C00
180C00
180C00
301800
7FFE00
000600
000400
000400
ENDCHAR
STARTCHAR cyr-De
ENCODING 228
SWIDTH 708 0
DWIDTH 17 0
BBX 21 19 0 -3
BITMAP
00FFF0
004060
0080C0
0080C0
0080C0
010180
010180
010180
020300
020300
020300
040600
040600
040600
100C00
7FFF00
600300
800200
800200
ENDCHAR
STARTCHAR cyr-Ie
ENCODING 229
SWIDTH 583 0
DWIDTH 14 0
BBX 17 16 0 0
BITMAP
07FF00
030300
060200
060000
060000
0C0000
0C1000
0FF000
182000
180000
180000
300000
300000
300800
603000
FFF000
ENDCHAR
STARTCHAR cyr-Ef
ENCODING 230
SWIDTH 750 0
DWIDTH 18 0
BBX 21 16 0 0
BITMAP
003F00
00EDC0
0318C0
061860
061860
183060
183060
183060
3060C0
186180
186180
18C600
0EDC00
03F000
018000
03C000
ENDCHAR
STARTCHAR cyr-Ghe
ENCODING 231
SWIDTH 583 0
DWIDTH 14 0
BBX 17 16 0 0
BITMAP
07FF80
030180
060100
060000
060000
0C0000
0C0000
0C0000
180000
180000
180000
300000
300000
300000
600000
F00000
ENDCHAR
STARTCHAR cyr-Kha
ENCODING 232
SWIDTH 750 0
DWIDTH 18 0
BBX 21 16 0 0
BITMAP
07F1F8
01C060
018100
00C100
006200
006800
003000
003800
007000
009800
010C00
021800
040C00
080600
380C00
FE3F00
ENDCHAR
STARTCHAR cyr-I
ENCODING 233
SWIDTH 625 0
DWIDTH 15 0
BBX 18 16 0 0
BITMAP
0783C0
030380
060700
060B00
060B00
0C2600
0C2600
0C4600
188C00
190C00
190C00
341800
341800
381800
703000
F07800
ENDCHAR
STARTCHAR cyr-I-short
ENCODING 234
SWIDTH 625 0
DWIDTH 15 0
BBX 19 20 0 0
BITMAP
002100
003300
001E00
000000
0783C0
030380
060700
060B00
060B00
0C2600
0C2600
0C4600
188C00
190C00
190C00
341800
341800
381800
703000
F07800
ENDCHAR
STARTCHAR cyr-Ka
ENCODING 235
SWIDTH 625 0
DWIDTH 15 0
BBX 19 16 0 0
BITMAP
07E1C0
0182C0
030800
030800
031000
062000
07C000
06E000
0CC000
0C6000
0C6000
186000
183000
183000
303000
FC7C00
ENDCHAR
STARTCHAR cyr-El
ENCODING 236
SWIDTH 666 0
DWIDTH 16 0
BBX 19 16 0 0
BITMAP
00FFE0
0040C0
008180
008180
008180
010300
010300
010300
020600
020600
020600
040C00
040C00
740C00
E81800
707C00
ENDCHAR
STARTCHAR cyr-Em
ENCODING 237
SWIDTH 791 0
DWIDTH 19 0
BBX 22 16 0 0
BITMAP
07803C
038038
078070
0580F0
0580B0
098160
098360
08C260
1184C0
118CC0
10C8C0
21B180
20E180
20E180
41C300
E08780
ENDCHAR
STARTCHAR cyr-En
ENCODING 238
SWIDTH 625 0
DWIDTH 15 0
BBX 18 16 0 0
BITMAP
0783C0
030180
060300
060300
060300
0C0600
0C0600
0FFE00
180C00
180C00
180C00
301800
301800
301800
603000
F07800
ENDCHAR
STARTCHAR cyr-O
ENCODING 239
SWIDTH 708 0
DWIDTH 17 0
BBX 20 16 0 0
BITMAP
003E00
00E380
030180
0701C0
0600C0
1C01C0
1C01C0
1C01C0
380380
380380
380380
300600
380E00
180C00
1C7000
07C000
ENDCHAR
STARTCHAR cyr-Pe
ENCODING 240
SWIDTH 625 0
DWIDTH 15 0
BBX 18 16 0 0
BITMAP
07FFC0
030180
060300
060300
060300
0C0600
0C0600
0C0600
180C00
180C00
180C00
301800
301800
301800
603000
F07800
ENDCHAR
STARTCHAR cyr-Ya
ENCODING 241
SWIDTH 666 0
DWIDTH 16 0
BBX 19 16 0 0
BITMAP
003FE0
00E0C0
018180
030180
030180
060300
030300
038300
01FE00
006600
00C600
030C00
060C00
0C0C00
301800
E03C00
ENDCHAR
STARTCHAR cyr-Er
ENCODING 242
SWIDTH 583 0
DWIDTH 14 0
BBX 17 16 0 0
BITMAP
07FC00
030700
060600
060300
060300
0C0600
0C0600
0C0C00
183800
1FE000
180000
300000
300000
300000
600000
F00000
ENDCHAR
STARTCHAR cyr-Es
ENCODING 243
SWIDTH 625 0
DWIDTH 15 0
BBX 18 16 0 0
BITMAP
003E40
00E3C0
030180
070080
060080
1C0000
1C0000
1C0000
380000
380000
380000
300000
380400
1C0800
1C6000
078000
ENDCHAR
STARTCHAR cyr-Te
ENCODING 244
SWIDTH 666 0
DWIDTH 16 0
BBX 19 16 0 0
BITMAP
07FFE0
061860
083040
003000
003000
006000
006000
006000
00C000
00C000
00C000
018000
018000
018000
030000
078000
ENDCHAR
STARTCHAR cyr-U
ENCODING 245
SWIDTH 791 0
DWIDTH 19 0
BBX 23 16 0 0
BITMAP
07E03E
01C018
01C060
00C040
00E0C0
00E300
006200
007600
007800
003000
003000
00C000
008000
018000
360000
1C0000
ENDCHAR
STARTCHAR cyr-Zhe
ENCODING 246
SWIDTH 958 0
DWIDTH 23 0
BBX 27 16 0 0
BITMAP
0387E1C0
034182C0
00430800
00430800
00231000
00462000
003FC000
0076E000
00CCC000
018C6000
018C6000
06186000
0C183000
0C183000
30303000
F8FC7C00
ENDCHAR
STARTCHAR cyr-Ve
ENCODING 247
SWIDTH 625 0
DWIDTH 15 0
BBX 18 16 0 0
BITMAP
07FE00
030300
060300
060300
060300
0C0600
0C0C00
0FFC00
181C00
180C00
180600
300C00
300C00
301800
607000
FFC000
ENDCHAR
STARTCHAR cyr-Ierik
ENCODING 248
SWIDTH 625 0
DWIDTH 15 0
BBX 18 16 0 0
BITMAP
078000
030000
060000
060000
060000
0C0000
0FFC00
0C0600
180600
180600
180600
300C00
300C00
300C00
603000
FFE000
ENDCHAR
STARTCHAR cyr-Iery
ENCODING 249
SWIDTH 833 0
DWIDTH 20 0
BBX 23 16 0 0
BITMAP
07801E
03000C
060018
060018
060018
0C0030
0FFC30
0C0630
180660
180660
180660
300CC0
300CC0
300CC0
603180
FFE3C0
ENDCHAR
STARTCHAR cyr-Ze
ENCODING 250
SWIDTH 500 0
DWIDTH 12 0
BBX 15 16 0 0
BITMAP
05F0
060C
080C
000C
000C
0018
0030
01E0
0060
0030
0030
0060
0060
4060
C180
BE00
ENDCHAR
STARTCHAR cyr-Sha
ENCODING 251
SWIDTH 833 0
DWIDTH 20 0
BBX 23 16 0 0
BITMAP
078F1E
03060C
060C18
060C18
060C18
0C1830
0C1830
0C1830
183060
183060
183060
3060C0
3060C0
3060C0
60C180
FFFFC0
ENDCHAR
STARTCHAR cyr-E-rev
ENCODING 252
SWIDTH 541 0
DWIDTH 13 0
BBX 16 16 0 0
BITMAP
05F8
0606
0806
0006
0006
000C
020C
03FC
0418
0018
0018
0030
0030
4030
C0C0
BF00
ENDCHAR
STARTCHAR cyr-Shcha
ENCODING 253
SWIDTH 875 0
DWIDTH 21 0
BBX 25 19 0 -3
BITMAP
03C78F00
01830600
03060C00
03060C00
03060C00
060C1800
060C1800
060C1800
0C183000
0C183000
0C183000
18306000
18306000
18306000
3060C000
7FFFF000
00003000
00002000
00002000
ENDCHAR
STARTCHAR cyr-Che
ENCODING 254
SWIDTH 625 0
DWIDTH 15 0
BBX 18 16 0 0
BITMAP
0783C0
030180
060300
060300
060300
0C0600
0C0600
0C0600
0FFC00
000C00
000C00
001800
001800
001800
003000
007800
ENDCHAR
STARTCHAR cyr-Ier
ENCODING 255
SWIDTH 750 0
DWIDTH 18 0
BBX 21 16 0 0
BITMAP
07F000
066000
08C000
08C000
00C000
018000
01FF80
0180C0
0300C0
0300C0
0300C0
060180
060180
060180
0C0600
1FFC00
ENDCHAR
ENDFONT
