STARTFONT 2.1
COMMENT Copyright (C) 1990-1991 EWT Consulting
COMMENT Portions Copyright (C) 1994-1995 Cronyx Ltd.
COMMENT Changes Copyright (C) 1996-1997 by Andrey A. Chernov, Moscow, Russia.
COMMENT Modified by Serge Vakulenko, <vak@cronyx.ru>
COMMENT This software may be used, modified, copied, distributed, and sold,
COMMENT in both source and binary form provided that the copyright
COMMENT and these terms are retained. Under no circumstances is the author
COMMENT responsible for the proper functioning of this software, nor does
COMMENT the author assume any responsibility for damages incurred with its use.
COMMENT $XFree86: xc/fonts/bdf/cyrillic/crox3co.bdf,v 3.2.4.1 1998/02/01 16:03:43 robin Exp $
FONT -Cronyx-Courier-Medium-O-Normal--20-140-100-100-M-120-KOI8-R
SIZE 14 96 96
FONTBOUNDINGBOX 18 18 -1 -4
STARTPROPERTIES 20
DEFAULT_CHAR 32
FONT_ASCENT 16
FONT_DESCENT 4
SPACING "M"
FONTNAME_REGISTRY ""
FOUNDRY "Cronyx"
FAMILY_NAME "Courier"
WEIGHT_NAME "Medium"
SLANT "O"
SETWIDTH_NAME "Normal"
ADD_STYLE_NAME ""
AVERAGE_WIDTH 120
CHARSET_REGISTRY "KOI8"
CHARSET_ENCODING "R"
PIXEL_SIZE 20
POINT_SIZE 140
RESOLUTION_X 100
RESOLUTION_Y 100
COPYRIGHT "Copyright (C) 1990, 1991 EWT Consulting, Portions Copyright (C) 1994 Cronyx Ltd., Portions Copyright (C) 1996-1997 by Andrey A. Chernov, Moscow, Russia."
_XMBDFED_INFO "Edited with xmbdfed 2.7."
ENDPROPERTIES
CHARS 165
STARTCHAR space
ENCODING 32
SWIDTH 642 0
DWIDTH 12 0
BBX 0 0 -1 0
BITMAP
ENDCHAR
STARTCHAR exclam
ENCODING 33
SWIDTH 642 0
DWIDTH 12 0
BBX 5 12 5 0
BITMAP
08
10
10
10
20
20
20
40
00
00
80
80
ENDCHAR
STARTCHAR quotedbl
ENCODING 34
SWIDTH 642 0
DWIDTH 12 0
BBX 6 5 3 7
BITMAP
44
44
44
88
88
ENDCHAR
STARTCHAR numbersign
ENCODING 35
SWIDTH 642 0
DWIDTH 12 0
BBX 13 12 1 0
BITMAP
0110
0220
0220
0FF0
0880
0880
0880
1100
7F80
2200
4400
4400
ENDCHAR
STARTCHAR dollar
ENCODING 36
SWIDTH 642 0
DWIDTH 12 0
BBX 12 15 2 -2
BITMAP
0080
0100
07A0
0860
1040
1000
0800
0E00
0100
0080
4100
6100
5E00
1000
1000
ENDCHAR
STARTCHAR percent
ENCODING 37
SWIDTH 642 0
DWIDTH 12 0
BBX 15 12 0 0
BITMAP
0700
1108
1110
1120
1C80
0100
0100
04E0
0910
1110
4220
01C0
ENDCHAR
STARTCHAR ampersand
ENCODING 38
SWIDTH 642 0
DWIDTH 12 0
BBX 14 12 1 0
BITMAP
03C0
0840
0800
0800
0800
1400
1200
4240
4140
4080
8280
7C40
ENDCHAR
STARTCHAR quoteright
ENCODING 39
SWIDTH 642 0
DWIDTH 12 0
BBX 2 5 5 7
BITMAP
40
40
40
80
80
ENDCHAR
STARTCHAR parenleft
ENCODING 40
SWIDTH 642 0
DWIDTH 12 0
BBX 8 15 4 -3
BITMAP
01
04
04
08
10
10
10
20
20
20
40
40
20
40
20
ENDCHAR
STARTCHAR parenright
ENCODING 41
SWIDTH 642 0
DWIDTH 12 0
BBX 8 15 4 -3
BITMAP
04
04
04
02
04
04
04
08
08
08
10
10
20
40
80
ENDCHAR
STARTCHAR asterisk
ENCODING 42
SWIDTH 642 0
DWIDTH 12 0
BBX 9 6 2 6
BITMAP
0400
4900
3E00
1C00
2800
4400
ENDCHAR
STARTCHAR plus
ENCODING 43
SWIDTH 642 0
DWIDTH 12 0
BBX 12 9 1 1
BITMAP
0100
0200
0200
0200
7FC0
0400
0400
0800
0800
ENDCHAR
STARTCHAR comma
ENCODING 44
SWIDTH 642 0
DWIDTH 12 0
BBX 3 3 4 -1
BITMAP
20
40
80
ENDCHAR
STARTCHAR minus
ENCODING 45
SWIDTH 642 0
DWIDTH 12 0
BBX 9 1 1 4
BITMAP
FF80
ENDCHAR
STARTCHAR period
ENCODING 46
SWIDTH 642 0
DWIDTH 12 0
BBX 1 2 5 0
BITMAP
80
80
ENDCHAR
STARTCHAR slash
ENCODING 47
SWIDTH 642 0
DWIDTH 12 0
BBX 14 11 0 0
BITMAP
0004
0008
0010
0040
0080
0100
0400
0800
1000
4000
8000
ENDCHAR
STARTCHAR zero
ENCODING 48
SWIDTH 642 0
DWIDTH 12 0
BBX 11 12 2 0
BITMAP
0380
0880
1040
1040
2080
2080
2080
4100
4100
4100
4400
3800
ENDCHAR
STARTCHAR one
ENCODING 49
SWIDTH 642 0
DWIDTH 12 0
BBX 11 12 2 0
BITMAP
0300
1A00
0200
0200
0400
0400
0400
0800
0800
0800
1000
FE00
ENDCHAR
STARTCHAR two
ENCODING 50
SWIDTH 642 0
DWIDTH 12 0
BBX 11 12 2 0
BITMAP
0380
0880
1040
0040
0080
0100
0200
0800
1000
2100
8200
FE00
ENDCHAR
STARTCHAR three
ENCODING 51
SWIDTH 642 0
DWIDTH 12 0
BBX 11 12 2 0
BITMAP
0780
1080
0040
0040
0100
0600
0100
0100
0100
0100
8400
7800
ENDCHAR
STARTCHAR four
ENCODING 52
SWIDTH 642 0
DWIDTH 12 0
BBX 11 12 2 0
BITMAP
0040
0180
0180
0280
0900
0900
1100
4200
7F00
0200
0400
1E00
ENDCHAR
STARTCHAR five
ENCODING 53
SWIDTH 642 0
DWIDTH 12 0
BBX 11 12 2 0
BITMAP
0FC0
1000
1000
1000
3E00
2100
0080
0100
0100
0100
8400
7800
ENDCHAR
STARTCHAR six
ENCODING 54
SWIDTH 642 0
DWIDTH 12 0
BBX 11 12 2 0
BITMAP
00E0
0600
0800
0800
2000
2E00
3100
4100
4100
4100
4400
3800
ENDCHAR
STARTCHAR seven
ENCODING 55
SWIDTH 642 0
DWIDTH 12 0
BBX 11 12 2 0
BITMAP
0FE0
1040
1040
0080
0100
0200
0200
0800
0800
1000
2000
2000
ENDCHAR
STARTCHAR eight
ENCODING 56
SWIDTH 642 0
DWIDTH 12 0
BBX 11 12 2 0
BITMAP
0380
0880
1040
1040
1100
0E00
1100
4100
4100
4100
4400
3800
ENDCHAR
STARTCHAR nine
ENCODING 57
SWIDTH 642 0
DWIDTH 12 0
BBX 11 12 2 0
BITMAP
0380
0880
1040
1040
2080
1180
0E80
0100
0200
0200
1800
E000
ENDCHAR
STARTCHAR colon
ENCODING 58
SWIDTH 642 0
DWIDTH 12 0
BBX 4 9 5 0
BITMAP
10
20
00
00
00
00
00
80
80
ENDCHAR
STARTCHAR semicolon
ENCODING 59
SWIDTH 642 0
DWIDTH 12 0
BBX 5 10 4 -1
BITMAP
08
08
00
00
00
00
00
20
40
80
ENDCHAR
STARTCHAR less
ENCODING 60
SWIDTH 642 0
DWIDTH 12 0
BBX 8 9 3 1
BITMAP
01
04
08
10
40
20
10
10
08
ENDCHAR
STARTCHAR equal
ENCODING 61
SWIDTH 642 0
DWIDTH 12 0
BBX 10 5 1 3
BITMAP
7FC0
0000
0000
0000
FF80
ENDCHAR
STARTCHAR greater
ENCODING 62
SWIDTH 642 0
DWIDTH 12 0
BBX 8 9 3 1
BITMAP
10
10
08
04
04
08
10
40
80
ENDCHAR
STARTCHAR question
ENCODING 63
SWIDTH 642 0
DWIDTH 12 0
BBX 11 12 2 0
BITMAP
07C0
1040
1040
0040
0100
0200
0400
0800
0000
0000
1000
1000
ENDCHAR
STARTCHAR at
ENCODING 64
SWIDTH 642 0
DWIDTH 12 0
BBX 13 14 1 -2
BITMAP
03E0
0410
0808
1010
11F0
1210
2420
2420
2420
4840
47C0
4000
4000
3E00
ENDCHAR
STARTCHAR A
ENCODING 65
SWIDTH 642 0
DWIDTH 12 0
BBX 15 12 0 0
BITMAP
01C0
0080
0080
0140
0280
0440
0440
1040
1FC0
2020
4040
E0E0
ENDCHAR
STARTCHAR B
ENCODING 66
SWIDTH 642 0
DWIDTH 12 0
BBX 15 12 0 0
BITMAP
0FF0
0410
0408
0408
0820
0FE0
0810
1010
1010
1010
2040
FF80
ENDCHAR
STARTCHAR C
ENCODING 67
SWIDTH 642 0
DWIDTH 12 0
BBX 14 12 1 0
BITMAP
01F4
0C18
0808
1000
2000
2000
2000
4000
4000
2020
60C0
1F00
ENDCHAR
STARTCHAR D
ENCODING 68
SWIDTH 642 0
DWIDTH 12 0
BBX 15 12 0 0
BITMAP
0FF0
0418
0408
0404
0808
0808
0808
1010
1010
1020
20C0
FF00
ENDCHAR
STARTCHAR E
ENCODING 69
SWIDTH 642 0
DWIDTH 12 0
BBX 14 12 0 0
BITMAP
0FFC
0408
0408
0400
0840
0FC0
0840
1000
1000
1020
2040
FFC0
ENDCHAR
STARTCHAR F
ENCODING 70
SWIDTH 642 0
DWIDTH 12 0
BBX 14 12 1 0
BITMAP
0FFC
0408
0408
0400
0840
0FC0
0840
1000
1000
1000
2000
FC00
ENDCHAR
STARTCHAR G
ENCODING 71
SWIDTH 642 0
DWIDTH 12 0
BBX 15 12 0 0
BITMAP
01F4
0C18
0808
1000
2000
2000
20F8
4020
4020
2020
60C0
1F00
ENDCHAR
STARTCHAR H
ENCODING 72
SWIDTH 642 0
DWIDTH 12 0
BBX 15 12 0 0
BITMAP
0E0E
0808
0808
0808
1010
1FF0
1010
2020
2020
2020
4040
E0E0
ENDCHAR
STARTCHAR I
ENCODING 73
SWIDTH 642 0
DWIDTH 12 0
BBX 11 12 2 0
BITMAP
0FE0
0200
0200
0200
0400
0400
0400
0800
0800
0800
1000
FE00
ENDCHAR
STARTCHAR J
ENCODING 74
SWIDTH 642 0
DWIDTH 12 0
BBX 13 12 1 0
BITMAP
01F8
0040
0040
0040
0080
0080
0080
0100
0100
4100
8200
7C00
ENDCHAR
STARTCHAR K
ENCODING 75
SWIDTH 642 0
DWIDTH 12 0
BBX 15 12 0 0
BITMAP
0E3C
0820
0840
0880
1200
1400
1A00
2200
2100
2080
4080
E060
ENDCHAR
STARTCHAR L
ENCODING 76
SWIDTH 642 0
DWIDTH 12 0
BBX 14 12 0 0
BITMAP
0FC0
0400
0400
0400
0800
0800
0800
1000
1000
1020
2040
FFC0
ENDCHAR
STARTCHAR M
ENCODING 77
SWIDTH 642 0
DWIDTH 12 0
BBX 15 12 0 0
BITMAP
0C06
0C18
0C18
0A28
1450
1290
1290
2220
2220
2020
4040
E0E0
ENDCHAR
STARTCHAR N
ENCODING 78
SWIDTH 642 0
DWIDTH 12 0
BBX 15 12 0 0
BITMAP
0C1E
0C08
0C08
0A08
1210
1110
1110
2120
20A0
2060
40C0
F040
ENDCHAR
STARTCHAR O
ENCODING 79
SWIDTH 642 0
DWIDTH 12 0
BBX 15 12 0 0
BITMAP
01F0
0C18
0808
1004
2008
2008
2008
4010
4010
2020
60C0
1F00
ENDCHAR
STARTCHAR P
ENCODING 80
SWIDTH 642 0
DWIDTH 12 0
BBX 14 12 0 0
BITMAP
0FE0
0410
0408
0408
0810
0820
0FC0
1000
1000
1000
2000
FC00
ENDCHAR
STARTCHAR Q
ENCODING 81
SWIDTH 642 0
DWIDTH 12 0
BBX 16 15 0 -3
BITMAP
00F8
060C
0404
0802
1004
1004
1004
2008
2008
1010
3060
0F80
0800
3880
4700
ENDCHAR
STARTCHAR R
ENCODING 82
SWIDTH 642 0
DWIDTH 12 0
BBX 15 12 0 0
BITMAP
0FF0
0410
0408
0408
0810
0820
0FC0
1100
1080
1040
2040
F820
ENDCHAR
STARTCHAR S
ENCODING 83
SWIDTH 642 0
DWIDTH 12 0
BBX 13 12 1 0
BITMAP
03E8
0830
1010
1000
1000
0E00
0180
0080
0040
4040
C100
BE00
ENDCHAR
STARTCHAR T
ENCODING 84
SWIDTH 642 0
DWIDTH 12 0
BBX 15 12 0 0
BITMAP
0FFE
1084
1084
0080
0100
0100
0100
0200
0200
0200
0400
1F00
ENDCHAR
STARTCHAR U
ENCODING 85
SWIDTH 642 0
DWIDTH 12 0
BBX 15 12 0 0
BITMAP
0E0E
0808
0808
0808
1010
1010
1010
2020
2020
2020
2080
1F00
ENDCHAR
STARTCHAR V
ENCODING 86
SWIDTH 642 0
DWIDTH 12 0
BBX 15 12 0 0
BITMAP
0E0E
0808
0808
0410
0820
0440
0440
0880
0500
0500
0400
0400
ENDCHAR
STARTCHAR W
ENCODING 87
SWIDTH 642 0
DWIDTH 12 0
BBX 15 12 0 0
BITMAP
0C06
1004
1004
1084
2108
1290
1290
28A0
28A0
1040
2080
2080
ENDCHAR
STARTCHAR X
ENCODING 88
SWIDTH 642 0
DWIDTH 12 0
BBX 15 12 0 0
BITMAP
0F1E
0808
0410
0220
0280
0100
0100
0500
0880
1040
4040
F1E0
ENDCHAR
STARTCHAR Y
ENCODING 89
SWIDTH 642 0
DWIDTH 12 0
BBX 15 12 0 0
BITMAP
0E0E
0808
0808
0410
0440
0280
0100
0200
0200
0200
0400
1F00
ENDCHAR
STARTCHAR Z
ENCODING 90
SWIDTH 642 0
DWIDTH 12 0
BBX 13 12 1 0
BITMAP
0FF8
1010
1020
0040
0100
0200
0200
0800
1000
2040
8080
FF80
ENDCHAR
STARTCHAR bracketleft
ENCODING 91
SWIDTH 642 0
DWIDTH 12 0
BBX 9 15 4 -3
BITMAP
0780
0800
0800
0800
1000
1000
1000
2000
2000
2000
4000
4000
4000
8000
F000
ENDCHAR
STARTCHAR backslash
ENCODING 92
SWIDTH 642 0
DWIDTH 12 0
BBX 14 11 0 0
BITMAP
1000
0800
0400
0400
0200
0100
0100
0080
0040
0040
0020
ENDCHAR
STARTCHAR bracketright
ENCODING 93
SWIDTH 642 0
DWIDTH 12 0
BBX 9 15 3 -3
BITMAP
0780
0100
0100
0100
0200
0200
0200
0400
0400
0400
0800
0800
0800
1000
F000
ENDCHAR
STARTCHAR asciicircum
ENCODING 94
SWIDTH 642 0
DWIDTH 12 0
BBX 6 3 3 10
BITMAP
10
50
88
ENDCHAR
STARTCHAR underscore
ENCODING 95
SWIDTH 642 0
DWIDTH 12 0
BBX 12 1 -1 -2
BITMAP
FFF0
ENDCHAR
STARTCHAR quoteleft
ENCODING 96
SWIDTH 642 0
DWIDTH 12 0
BBX 4 3 4 10
BITMAP
40
40
20
ENDCHAR
STARTCHAR a
ENCODING 97
SWIDTH 642 0
DWIDTH 12 0
BBX 12 9 1 0
BITMAP
07C0
1040
0040
07C0
3080
4080
4080
8100
7E80
ENDCHAR
STARTCHAR b
ENCODING 98
SWIDTH 642 0
DWIDTH 12 0
BBX 13 13 1 0
BITMAP
0C00
0400
0800
0800
0BC0
1840
1020
1020
2040
2040
2040
6100
DE00
ENDCHAR
STARTCHAR c
ENCODING 99
SWIDTH 642 0
DWIDTH 12 0
BBX 11 9 2 0
BITMAP
07A0
10C0
2040
2000
4000
4000
4000
4100
3E00
ENDCHAR
STARTCHAR d
ENCODING 100
SWIDTH 642 0
DWIDTH 12 0
BBX 13 13 1 0
BITMAP
0030
0010
0020
0020
07A0
10C0
2040
2040
4080
4080
4080
4300
3D80
ENDCHAR
STARTCHAR e
ENCODING 101
SWIDTH 642 0
DWIDTH 12 0
BBX 12 9 1 0
BITMAP
07C0
1040
2020
2020
7FC0
4000
4040
4100
3E00
ENDCHAR
STARTCHAR f
ENCODING 102
SWIDTH 642 0
DWIDTH 12 0
BBX 10 13 3 0
BITMAP
01C0
0200
0400
0400
1F80
0800
0800
0800
1000
1000
1000
2000
FC00
ENDCHAR
STARTCHAR g
ENCODING 103
SWIDTH 642 0
DWIDTH 12 0
BBX 13 13 1 -4
BITMAP
03D8
0430
1020
1020
1020
2040
2040
10C0
1E80
0080
0080
0200
7C00
ENDCHAR
STARTCHAR h
ENCODING 104
SWIDTH 642 0
DWIDTH 12 0
BBX 13 13 1 0
BITMAP
0C00
0400
0800
0800
0BC0
1840
1040
1040
2080
2080
2080
4100
E380
ENDCHAR
STARTCHAR i
ENCODING 105
SWIDTH 642 0
DWIDTH 12 0
BBX 11 13 2 0
BITMAP
0100
0100
0000
0000
0E00
0400
0400
0400
0800
0800
0800
1000
FE00
ENDCHAR
STARTCHAR j
ENCODING 106
SWIDTH 642 0
DWIDTH 12 0
BBX 10 17 2 -4
BITMAP
0040
0040
0000
0000
0F80
0080
0100
0100
0100
0200
0200
0200
0400
0400
0400
1000
E000
ENDCHAR
STARTCHAR k
ENCODING 107
SWIDTH 642 0
DWIDTH 12 0
BBX 14 13 1 0
BITMAP
0C00
0400
0800
0800
08F0
1080
1100
1200
2C00
3200
2100
4100
C0C0
ENDCHAR
STARTCHAR l
ENCODING 108
SWIDTH 642 0
DWIDTH 12 0
BBX 11 13 2 0
BITMAP
0700
0100
0200
0200
0200
0400
0400
0400
0800
0800
0800
1000
FE00
ENDCHAR
STARTCHAR m
ENCODING 109
SWIDTH 642 0
DWIDTH 12 0
BBX 14 9 0 0
BITMAP
1B30
1990
1110
1110
2220
2220
2220
4440
E660
ENDCHAR
STARTCHAR n
ENCODING 110
SWIDTH 642 0
DWIDTH 12 0
BBX 12 9 1 0
BITMAP
1BC0
1840
1040
1040
2080
2080
2080
4100
E380
ENDCHAR
STARTCHAR o
ENCODING 111
SWIDTH 642 0
DWIDTH 12 0
BBX 12 9 1 0
BITMAP
07C0
1040
2020
2020
4040
4040
4040
4100
3E00
ENDCHAR
STARTCHAR p
ENCODING 112
SWIDTH 642 0
DWIDTH 12 0
BBX 13 13 1 -4
BITMAP
0DE0
0610
0810
0810
0810
1020
1020
1840
2F00
2000
2000
4000
F000
ENDCHAR
STARTCHAR q
ENCODING 113
SWIDTH 642 0
DWIDTH 12 0
BBX 13 13 1 -4
BITMAP
03D8
0430
1020
1020
1020
2040
2040
10C0
1E80
0080
0080
0100
0780
ENDCHAR
STARTCHAR r
ENCODING 114
SWIDTH 642 0
DWIDTH 12 0
BBX 12 9 1 0
BITMAP
1DE0
0C20
0800
0800
1000
1000
1000
2000
FC00
ENDCHAR
STARTCHAR s
ENCODING 115
SWIDTH 642 0
DWIDTH 12 0
BBX 12 9 1 0
BITMAP
07D0
1060
2020
1000
1F00
0080
4040
C100
BE00
ENDCHAR
STARTCHAR t
ENCODING 116
SWIDTH 642 0
DWIDTH 12 0
BBX 11 12 2 0
BITMAP
0200
0400
0400
1FC0
0800
0800
0800
1000
1000
1100
2200
1C00
ENDCHAR
STARTCHAR u
ENCODING 117
SWIDTH 642 0
DWIDTH 12 0
BBX 12 9 1 0
BITMAP
1860
1040
1040
1040
2080
2080
2080
4300
3D80
ENDCHAR
STARTCHAR v
ENCODING 118
SWIDTH 642 0
DWIDTH 12 0
BBX 14 9 0 0
BITMAP
1C1C
1010
0820
0820
0880
0880
0500
0A00
0400
ENDCHAR
STARTCHAR w
ENCODING 119
SWIDTH 642 0
DWIDTH 12 0
BBX 14 9 0 0
BITMAP
1C1C
1010
1110
1110
1540
1540
0880
1100
1100
ENDCHAR
STARTCHAR x
ENCODING 120
SWIDTH 642 0
DWIDTH 12 0
BBX 14 9 0 0
BITMAP
1E3C
0820
0440
0280
0200
0500
0880
2080
F1E0
ENDCHAR
STARTCHAR y
ENCODING 121
SWIDTH 642 0
DWIDTH 12 0
BBX 15 13 0 -4
BITMAP
0E0E
0404
0410
0410
0220
0440
0280
0280
0200
0200
0400
0800
3C00
ENDCHAR
STARTCHAR z
ENCODING 122
SWIDTH 642 0
DWIDTH 12 0
BBX 12 9 1 0
BITMAP
1FF0
2040
2080
0100
0400
0800
1040
4080
FF80
ENDCHAR
STARTCHAR braceleft
ENCODING 123
SWIDTH 642 0
DWIDTH 12 0
BBX 10 15 3 -3
BITMAP
00C0
0200
0200
0200
0400
0400
0400
3000
0800
0800
1000
1000
1000
2000
1800
ENDCHAR
STARTCHAR bar
ENCODING 124
SWIDTH 642 0
DWIDTH 12 0
BBX 6 16 5 -4
BITMAP
04
04
08
08
08
10
10
10
20
20
20
40
40
40
80
80
ENDCHAR
STARTCHAR braceright
ENCODING 125
SWIDTH 642 0
DWIDTH 12 0
BBX 10 15 3 -3
BITMAP
0600
0200
0200
0200
0400
0400
0400
0600
0800
0800
1000
1000
1000
2000
C000
ENDCHAR
STARTCHAR asciitilde
ENCODING 126
SWIDTH 642 0
DWIDTH 12 0
BBX 10 3 1 10
BITMAP
3840
8880
8700
ENDCHAR
STARTCHAR nbsp
ENCODING 154
SWIDTH 642 0
DWIDTH 12 0
BBX 0 0 -1 0
BITMAP
ENDCHAR
STARTCHAR degree
ENCODING 156
SWIDTH 642 0
DWIDTH 12 0
BBX 6 5 3 8
BITMAP
38
44
44
88
70
ENDCHAR
STARTCHAR twosuperior
ENCODING 157
SWIDTH 642 0
DWIDTH 12 0
BBX 7 6 3 7
BITMAP
1C
44
04
38
80
F8
ENDCHAR
STARTCHAR cyr-yo
ENCODING 163
SWIDTH 642 0
DWIDTH 12 0
BBX 12 11 1 0
BITMAP
0C60
0000
07C0
1040
2020
2020
7FC0
4000
4040
4100
3E00
ENDCHAR
STARTCHAR cyr-Yo
ENCODING 179
SWIDTH 642 0
DWIDTH 12 0
BBX 14 14 0 0
BITMAP
0618
0000
0FFC
0408
0408
0400
0840
0FC0
0840
1000
1000
1020
2040
FFC0
ENDCHAR
STARTCHAR copyright
ENCODING 191
SWIDTH 642 0
DWIDTH 12 0
BBX 15 13 0 -1
BITMAP
03F8
0404
1004
11E4
1214
2408
2408
2408
4850
4790
4010
4040
3F80
ENDCHAR
STARTCHAR cyr-yu
ENCODING 192
SWIDTH 642 0
DWIDTH 12 0
BBX 14 9 0 0
BITMAP
1C70
1110
1208
1208
3C10
2410
2410
4440
E380
ENDCHAR
STARTCHAR cyr-a
ENCODING 193
SWIDTH 642 0
DWIDTH 12 0
BBX 12 9 1 0
BITMAP
07C0
1040
0040
07C0
3080
4080
4080
8100
7E80
ENDCHAR
STARTCHAR cyr-be
ENCODING 194
SWIDTH 642 0
DWIDTH 12 0
BBX 13 13 1 0
BITMAP
0018
03E0
0800
1000
17C0
3040
2020
2020
4040
4040
4040
4100
3E00
ENDCHAR
STARTCHAR cyr-tse
ENCODING 195
SWIDTH 642 0
DWIDTH 12 0
BBX 13 11 1 -2
BITMAP
1C70
0820
0820
1040
1040
1040
2080
2080
7FE0
0040
0040
ENDCHAR
STARTCHAR cyr-de
ENCODING 196
SWIDTH 642 0
DWIDTH 12 0
BBX 13 11 0 -2
BITMAP
0FF8
0410
0410
0820
0820
0820
1040
2040
7FE0
8040
8040
ENDCHAR
STARTCHAR cyr-ie
ENCODING 197
SWIDTH 642 0
DWIDTH 12 0
BBX 12 9 1 0
BITMAP
07C0
1040
2020
2020
7FC0
4000
4040
4100
3E00
ENDCHAR
STARTCHAR cyr-ef
ENCODING 198
SWIDTH 642 0
DWIDTH 12 0
BBX 14 15 1 -4
BITMAP
00E0
0080
03E0
0490
1110
1110
1110
2220
2220
1240
1F00
0400
0400
0800
1C00
ENDCHAR
STARTCHAR cyr-ghe
ENCODING 199
SWIDTH 642 0
DWIDTH 12 0
BBX 12 9 1 0
BITMAP
1FF0
0820
0820
0800
1000
1000
1000
2000
F800
ENDCHAR
STARTCHAR cyr-kha
ENCODING 200
SWIDTH 642 0
DWIDTH 12 0
BBX 12 9 1 0
BITMAP
1C70
1040
0880
0500
0400
0A00
1100
4100
E380
ENDCHAR
STARTCHAR cyr-i
ENCODING 201
SWIDTH 642 0
DWIDTH 12 0
BBX 12 9 1 0
BITMAP
1C70
1040
10C0
1140
2480
2880
3080
4100
E380
ENDCHAR
STARTCHAR cyr-i-short
ENCODING 202
SWIDTH 642 0
DWIDTH 12 0
BBX 13 12 1 0
BITMAP
0220
0380
0000
1C70
1040
10C0
1140
2480
2880
3080
4100
E380
ENDCHAR
STARTCHAR cyr-ka
ENCODING 203
SWIDTH 642 0
DWIDTH 12 0
BBX 13 9 1 0
BITMAP
1C70
1080
1100
1200
2C00
3200
2100
4100
E0C0
ENDCHAR
STARTCHAR cyr-el
ENCODING 204
SWIDTH 642 0
DWIDTH 12 0
BBX 13 9 0 0
BITMAP
07F8
0420
0420
0420
0840
0840
0840
9080
61C0
ENDCHAR
STARTCHAR cyr-em
ENCODING 205
SWIDTH 642 0
DWIDTH 12 0
BBX 14 9 0 0
BITMAP
180C
1830
1450
1290
2220
2220
2020
4040
E0E0
ENDCHAR
STARTCHAR cyr-en
ENCODING 206
SWIDTH 642 0
DWIDTH 12 0
BBX 12 9 1 0
BITMAP
1C70
1040
1040
1040
3F80
2080
2080
4100
E380
ENDCHAR
STARTCHAR cyr-o
ENCODING 207
SWIDTH 642 0
DWIDTH 12 0
BBX 12 9 1 0
BITMAP
07C0
1040
2020
2020
4040
4040
4040
4100
3E00
ENDCHAR
STARTCHAR cyr-pe
ENCODING 208
SWIDTH 642 0
DWIDTH 12 0
BBX 12 9 1 0
BITMAP
1FF0
1040
1040
1040
2080
2080
2080
4100
E380
ENDCHAR
STARTCHAR cyr-ya
ENCODING 209
SWIDTH 642 0
DWIDTH 12 0
BBX 13 9 0 0
BITMAP
07F8
1020
1020
1020
1FC0
0440
0840
2080
C3C0
ENDCHAR
STARTCHAR cyr-er
ENCODING 210
SWIDTH 642 0
DWIDTH 12 0
BBX 13 13 1 -4
BITMAP
0DE0
0610
0810
0810
0810
1020
1020
1840
2F00
2000
2000
4000
F000
ENDCHAR
STARTCHAR cyr-es
ENCODING 211
SWIDTH 642 0
DWIDTH 12 0
BBX 11 9 2 0
BITMAP
07A0
10C0
2040
2000
4000
4000
4000
4100
3E00
ENDCHAR
STARTCHAR cyr-te
ENCODING 212
SWIDTH 642 0
DWIDTH 12 0
BBX 12 9 1 0
BITMAP
1FF0
2220
0200
0200
0400
0400
0400
0800
3E00
ENDCHAR
STARTCHAR cyr-u
ENCODING 213
SWIDTH 642 0
DWIDTH 12 0
BBX 15 13 0 -4
BITMAP
0E0E
0404
0408
0410
0210
0440
0240
0280
0300
0200
0200
4800
3000
ENDCHAR
STARTCHAR cyr-zhe
ENCODING 214
SWIDTH 642 0
DWIDTH 12 0
BBX 14 9 0 0
BITMAP
0DD8
0920
0920
0540
0700
0A80
1240
4440
CE60
ENDCHAR
STARTCHAR cyr-ve
ENCODING 215
SWIDTH 642 0
DWIDTH 12 0
BBX 12 9 1 0
BITMAP
1FC0
1040
1040
1040
3F80
2040
2040
4080
FF00
ENDCHAR
STARTCHAR cyr-ierik
ENCODING 216
SWIDTH 642 0
DWIDTH 12 0
BBX 12 9 1 0
BITMAP
1C00
1000
1000
1F80
2080
2040
2040
4100
FE00
ENDCHAR
STARTCHAR cyr-iery
ENCODING 217
SWIDTH 642 0
DWIDTH 12 0
BBX 14 9 0 0
BITMAP
1C1C
1010
1010
1F10
2120
20A0
20A0
4240
FCE0
ENDCHAR
STARTCHAR cyr-z
ENCODING 218
SWIDTH 642 0
DWIDTH 12 0
BBX 12 9 1 0
BITMAP
17C0
3040
2020
0040
0F00
0080
0040
C100
3E00
ENDCHAR
STARTCHAR cyr-sha
ENCODING 219
SWIDTH 642 0
DWIDTH 12 0
BBX 14 9 0 0
BITMAP
1DDC
1110
1110
1110
2220
2220
2220
4440
FFE0
ENDCHAR
STARTCHAR cyr-e-rev
ENCODING 220
SWIDTH 642 0
DWIDTH 12 0
BBX 12 9 1 0
BITMAP
07C0
1040
2020
0020
0FC0
0040
4040
4100
3E00
ENDCHAR
STARTCHAR cyr-shcha
ENCODING 221
SWIDTH 642 0
DWIDTH 12 0
BBX 14 11 0 -2
BITMAP
1DDC
0888
0888
1110
1110
1110
2220
2220
7FF0
0020
0020
ENDCHAR
STARTCHAR cyr-che
ENCODING 222
SWIDTH 642 0
DWIDTH 12 0
BBX 12 9 1 0
BITMAP
1C70
1040
1040
1040
2180
1E80
0080
0100
0380
ENDCHAR
STARTCHAR cyr-ier
ENCODING 223
SWIDTH 642 0
DWIDTH 12 0
BBX 14 9 0 0
BITMAP
1F00
2400
2400
07E0
0820
0810
0810
1040
7F80
ENDCHAR
STARTCHAR cyr-Yu
ENCODING 224
SWIDTH 642 0
DWIDTH 12 0
BBX 15 12 0 0
BITMAP
0E38
0888
0904
0904
1208
1E08
1208
2410
2410
2410
4440
E380
ENDCHAR
STARTCHAR cyr-A
ENCODING 225
SWIDTH 642 0
DWIDTH 12 0
BBX 15 12 0 0
BITMAP
0040
0080
0080
0140
0280
0440
0440
1FC0
1040
2020
4040
E0E0
ENDCHAR
STARTCHAR cyr-Be
ENCODING 226
SWIDTH 642 0
DWIDTH 12 0
BBX 15 12 0 0
BITMAP
0FFC
0408
0400
0400
0800
0FE0
0810
1010
1010
1010
2040
FF80
ENDCHAR
STARTCHAR cyr-Tse
ENCODING 227
SWIDTH 642 0
DWIDTH 12 0
BBX 15 14 0 -2
BITMAP
0F1E
0404
0404
0808
0808
0808
1010
1010
1010
2020
2020
7FF0
0020
0020
ENDCHAR
STARTCHAR cyr-De
ENCODING 228
SWIDTH 642 0
DWIDTH 12 0
BBX 15 14 0 -2
BITMAP
07FE
0204
0204
0408
0408
0408
0810
0810
0810
1020
2020
7FF0
8020
8020
ENDCHAR
STARTCHAR cyr-Ie
ENCODING 229
SWIDTH 642 0
DWIDTH 12 0
BBX 14 12 0 0
BITMAP
0FFC
0408
0408
0400
0840
0FC0
0840
1000
1000
1020
2040
FFC0
ENDCHAR
STARTCHAR cyr-Ef
ENCODING 230
SWIDTH 642 0
DWIDTH 12 0
BBX 15 14 0 0
BITMAP
00E0
0040
01F0
0C98
0888
1084
2108
2108
2108
2220
3260
0F80
0400
0E00
ENDCHAR
STARTCHAR cyr-Ghe
ENCODING 231
SWIDTH 642 0
DWIDTH 12 0
BBX 14 12 0 0
BITMAP
0FFC
0408
0408
0400
0800
0800
0800
1000
1000
1000
2000
FC00
ENDCHAR
STARTCHAR cyr-Kha
ENCODING 232
SWIDTH 642 0
DWIDTH 12 0
BBX 15 12 0 0
BITMAP
0F1E
0808
0410
0220
0280
0100
0100
0500
0880
1040
4040
F1E0
ENDCHAR
STARTCHAR cyr-I
ENCODING 233
SWIDTH 642 0
DWIDTH 12 0
BBX 15 12 0 0
BITMAP
0E0E
0808
0808
0818
1050
1090
1110
2420
2820
3020
4040
E0E0
ENDCHAR
STARTCHAR cyr-I-short
ENCODING 234
SWIDTH 642 0
DWIDTH 12 0
BBX 15 14 0 0
BITMAP
0110
00E0
0E0E
0808
0808
0818
1050
1090
1110
2420
2820
3020
4040
E0E0
ENDCHAR
STARTCHAR cyr-Ka
ENCODING 235
SWIDTH 642 0
DWIDTH 12 0
BBX 15 12 0 0
BITMAP
0E3C
0820
0840
0880
1200
1400
1A00
2200
2100
2080
4080
E060
ENDCHAR
STARTCHAR cyr-El
ENCODING 236
SWIDTH 642 0
DWIDTH 12 0
BBX 15 12 0 0
BITMAP
03FE
0208
0208
0208
0410
0410
0410
0820
0820
0820
9040
61E0
ENDCHAR
STARTCHAR cyr-Em
ENCODING 237
SWIDTH 642 0
DWIDTH 12 0
BBX 15 12 0 0
BITMAP
0C06
0C18
0C18
0A28
1450
1290
1290
2220
2220
2020
4040
E0E0
ENDCHAR
STARTCHAR cyr-En
ENCODING 238
SWIDTH 642 0
DWIDTH 12 0
BBX 15 12 0 0
BITMAP
0E0E
0808
0808
0808
1010
1FF0
1010
2020
2020
2020
4040
E0E0
ENDCHAR
STARTCHAR cyr-O
ENCODING 239
SWIDTH 642 0
DWIDTH 12 0
BBX 15 12 0 0
BITMAP
01F0
0C18
0808
1004
2008
2008
2008
4010
4010
2020
60C0
1F00
ENDCHAR
STARTCHAR cyr-Pe
ENCODING 240
SWIDTH 642 0
DWIDTH 12 0
BBX 15 12 0 0
BITMAP
0FFE
0808
0808
0808
1010
1010
1010
2020
2020
2020
4040
E0E0
ENDCHAR
STARTCHAR cyr-Ya
ENCODING 241
SWIDTH 642 0
DWIDTH 12 0
BBX 14 12 0 0
BITMAP
01FC
0410
0810
0810
1020
0820
07E0
0440
0840
0840
2080
C3C0
ENDCHAR
STARTCHAR cyr-Er
ENCODING 242
SWIDTH 642 0
DWIDTH 12 0
BBX 14 12 0 0
BITMAP
0FF0
0410
0408
0408
0810
0820
0FC0
1000
1000
1000
2000
FC00
ENDCHAR
STARTCHAR cyr-Es
ENCODING 243
SWIDTH 642 0
DWIDTH 12 0
BBX 14 12 1 0
BITMAP
01F4
0C18
0808
1000
2000
2000
2000
4000
4000
2020
60C0
1F00
ENDCHAR
STARTCHAR cyr-Te
ENCODING 244
SWIDTH 642 0
DWIDTH 12 0
BBX 15 12 0 0
BITMAP
0FFE
1084
1084
0080
0100
0100
0100
0200
0200
0200
0400
1F00
ENDCHAR
STARTCHAR cyr-U
ENCODING 245
SWIDTH 642 0
DWIDTH 12 0
BBX 15 12 0 0
BITMAP
0E0E
0808
0410
0410
0440
0440
0280
0500
0200
0200
4800
3000
ENDCHAR
STARTCHAR cyr-Zhe
ENCODING 246
SWIDTH 642 0
DWIDTH 12 0
BBX 15 12 0 0
BITMAP
0CE6
0888
0888
0490
0540
0380
0540
1240
1240
2220
4440
CE60
ENDCHAR
STARTCHAR cyr-Ve
ENCODING 247
SWIDTH 642 0
DWIDTH 12 0
BBX 15 12 0 0
BITMAP
0FF0
0410
0408
0408
0820
0FE0
0810
1010
1010
1010
2040
FF80
ENDCHAR
STARTCHAR cyr-Ierik
ENCODING 248
SWIDTH 642 0
DWIDTH 12 0
BBX 14 12 1 0
BITMAP
0E00
0800
0800
0800
1000
1FC0
1020
2020
2020
2020
4080
FF00
ENDCHAR
STARTCHAR cyr-Iery
ENCODING 249
SWIDTH 642 0
DWIDTH 12 0
BBX 15 12 0 0
BITMAP
0E0E
0808
0808
0808
1010
1F10
1090
20A0
20A0
20A0
4240
FCE0
ENDCHAR
STARTCHAR cyr-Ze
ENCODING 250
SWIDTH 642 0
DWIDTH 12 0
BBX 13 12 1 0
BITMAP
0BC0
1840
1020
0020
0080
0780
0040
0040
0040
4040
C100
BE00
ENDCHAR
STARTCHAR cyr-Sha
ENCODING 251
SWIDTH 642 0
DWIDTH 12 0
BBX 15 12 0 0
BITMAP
0EEE
0888
0888
0888
1110
1110
1110
2220
2220
2220
4440
FFE0
ENDCHAR
STARTCHAR cyr-E-rev
ENCODING 252
SWIDTH 642 0
DWIDTH 12 0
BBX 14 12 1 0
BITMAP
03E0
1830
1010
0008
0010
0FF0
0010
0020
0020
4040
C180
3E00
ENDCHAR
STARTCHAR cyr-Shcha
ENCODING 253
SWIDTH 642 0
DWIDTH 12 0
BBX 15 14 0 -2
BITMAP
0EEE
0444
0444
0888
0888
0888
1110
1110
1110
2220
2220
7FF0
0020
0020
ENDCHAR
STARTCHAR cyr-Che
ENCODING 254
SWIDTH 642 0
DWIDTH 12 0
BBX 14 12 0 0
BITMAP
0F3C
0810
0810
0810
1020
1060
10A0
1E40
0040
0040
0080
03C0
ENDCHAR
STARTCHAR cyr-Ier
ENCODING 255
SWIDTH 642 0
DWIDTH 12 0
BBX 15 12 0 0
BITMAP
0F80
1200
1200
0200
0400
07E0
0410
0810
0810
0810
1040
7F80
ENDCHAR
ENDFONT
