STARTFONT 2.1
COMMENT Copyright (C) 1994-1995 Cronyx Ltd.
COMMENT Changes Copyright (C) 1996-1997 by Andrey A. Chernov, Moscow, Russia.
COMMENT Designed by Serge Vakulenko, <vak@cronyx.ru>
COMMENT This software may be used, modified, copied, distributed, and sold,
COMMENT in both source and binary form provided that the copyright
COMMENT and these terms are retained. Under no circumstances is the author
COMMENT responsible for the proper functioning of this software, nor does
COMMENT the author assume any responsibility for damages incurred with its use.
COMMENT $XFree86: xc/fonts/bdf/cyrillic/koi9x15.bdf,v 3.1.4.1 1998/02/01 16:04:21 robin Exp $
FONT -Cronyx-Fixed-Medium-R-Normal--15-140-75-75-C-90-KOI8-R
SIZE 15 75 75
FONTBOUNDINGBOX 10 15 0 -3
STARTPROPERTIES 20
FONTNAME_REGISTRY ""
FOUNDRY "Cronyx"
FAMILY_NAME "Fixed"
WEIGHT_NAME "Medium"
SLANT "R"
SETWIDTH_NAME "Normal"
ADD_STYLE_NAME ""
PIXEL_SIZE 15
POINT_SIZE 140
RESOLUTION_X 75
RESOLUTION_Y 75
SPACING "C"
AVERAGE_WIDTH 90
CHARSET_REGISTRY "KOI8"
CHARSET_ENCODING "R"
DEFAULT_CHAR 0
FONT_DESCENT 3
FONT_ASCENT 12
COPYRIGHT "Copyright (C) 1994 Cronyx Ltd., Portions Copyright (C) 1996-1997 by Andrey A. Chernov, Moscow, Russia."
_XMBDFED_INFO "Edited with xmbdfed 2.7."
ENDPROPERTIES
CHARS 196
STARTCHAR C000
ENCODING 0
SWIDTH 640 0
DWIDTH 10 0
BBX 10 15 0 -3
BITMAP
0000
0000
0000
0000
0000
0000
0000
0000
0000
0000
0000
0000
0000
0000
0000
ENDCHAR
STARTCHAR C001
ENCODING 1
SWIDTH 640 0
DWIDTH 10 0
BBX 10 15 0 -3
BITMAP
0000
0000
0000
0000
0000
0400
0E00
1F00
3F80
1F00
0E00
0400
0000
0000
0000
ENDCHAR
STARTCHAR C002
ENCODING 2
SWIDTH 640 0
DWIDTH 10 0
BBX 10 15 0 -3
BITMAP
0000
0000
0000
0000
0000
2480
1100
2480
1100
2480
1100
2480
0000
0000
0000
ENDCHAR
STARTCHAR C003
ENCODING 3
SWIDTH 640 0
DWIDTH 10 0
BBX 10 15 0 -3
BITMAP
0000
0000
0000
0000
0000
2200
2200
3E00
2200
2200
0F80
0200
0200
0200
0000
ENDCHAR
STARTCHAR C004
ENCODING 4
SWIDTH 640 0
DWIDTH 10 0
BBX 10 15 0 -3
BITMAP
0000
0000
0000
0000
0000
3C00
2000
3800
2000
2780
0400
0700
0400
0400
0000
ENDCHAR
STARTCHAR C005
ENCODING 5
SWIDTH 640 0
DWIDTH 10 0
BBX 10 15 0 -3
BITMAP
0000
0000
0000
0000
0000
1E00
2000
2000
1E00
0F00
0880
0F00
0880
0880
0000
ENDCHAR
STARTCHAR C006
ENCODING 6
SWIDTH 640 0
DWIDTH 10 0
BBX 10 15 0 -3
BITMAP
0000
0000
0000
0000
0000
2000
2000
2000
3E00
0F80
0800
0F00
0800
0800
0000
ENDCHAR
STARTCHAR C007
ENCODING 7
SWIDTH 640 0
DWIDTH 10 0
BBX 10 15 0 -3
BITMAP
0000
0000
0000
0000
0000
0E00
1100
1100
0E00
0000
0000
0000
0000
0000
0000
ENDCHAR
STARTCHAR C010
ENCODING 8
SWIDTH 640 0
DWIDTH 10 0
BBX 10 15 0 -3
BITMAP
0000
0000
0000
0000
0000
0000
0400
0400
3F80
0400
0400
3F80
0000
0000
0000
ENDCHAR
STARTCHAR C011
ENCODING 9
SWIDTH 640 0
DWIDTH 10 0
BBX 10 15 0 -3
BITMAP
0000
0000
0000
0000
0000
2200
3200
2A00
2600
2200
0800
0800
0800
0F80
0000
ENDCHAR
STARTCHAR C012
ENCODING 10
SWIDTH 640 0
DWIDTH 10 0
BBX 10 15 0 -3
BITMAP
0000
0000
0000
0000
0000
2200
2200
1400
0800
0F80
0200
0200
0200
0200
0000
ENDCHAR
STARTCHAR C013
ENCODING 11
SWIDTH 640 0
DWIDTH 10 0
BBX 10 15 0 -3
BITMAP
0400
0400
0400
0400
0400
0400
0400
0400
FC00
0000
0000
0000
0000
0000
0000
ENDCHAR
STARTCHAR C014
ENCODING 12
SWIDTH 640 0
DWIDTH 10 0
BBX 10 15 0 -3
BITMAP
0000
0000
0000
0000
0000
0000
0000
0000
FC00
0400
0400
0400
0400
0400
0400
ENDCHAR
STARTCHAR C015
ENCODING 13
SWIDTH 640 0
DWIDTH 10 0
BBX 10 15 0 -3
BITMAP
0000
0000
0000
0000
0000
0000
0000
0000
0780
0400
0400
0400
0400
0400
0400
ENDCHAR
STARTCHAR C016
ENCODING 14
SWIDTH 640 0
DWIDTH 10 0
BBX 10 15 0 -3
BITMAP
0400
0400
0400
0400
0400
0400
0400
0400
0780
0000
0000
0000
0000
0000
0000
ENDCHAR
STARTCHAR C017
ENCODING 15
SWIDTH 640 0
DWIDTH 10 0
BBX 10 15 0 -3
BITMAP
0400
0400
0400
0400
0400
0400
0400
0400
FF80
0400
0400
0400
0400
0400
0400
ENDCHAR
STARTCHAR C020
ENCODING 16
SWIDTH 640 0
DWIDTH 10 0
BBX 10 15 0 -3
BITMAP
0000
0000
0000
0000
FF80
0000
0000
0000
0000
0000
0000
0000
0000
0000
0000
ENDCHAR
STARTCHAR C021
ENCODING 17
SWIDTH 640 0
DWIDTH 10 0
BBX 10 15 0 -3
BITMAP
0000
0000
0000
0000
0000
0000
FF80
0000
0000
0000
0000
0000
0000
0000
0000
ENDCHAR
STARTCHAR C022
ENCODING 18
SWIDTH 640 0
DWIDTH 10 0
BBX 10 15 0 -3
BITMAP
0000
0000
0000
0000
0000
0000
0000
0000
FF80
0000
0000
0000
0000
0000
0000
ENDCHAR
STARTCHAR C023
ENCODING 19
SWIDTH 640 0
DWIDTH 10 0
BBX 10 15 0 -3
BITMAP
0000
0000
0000
0000
0000
0000
0000
0000
0000
0000
FF80
0000
0000
0000
0000
ENDCHAR
STARTCHAR C024
ENCODING 20
SWIDTH 640 0
DWIDTH 10 0
BBX 10 15 0 -3
BITMAP
0000
0000
0000
0000
0000
0000
0000
0000
0000
0000
0000
0000
FF80
0000
0000
ENDCHAR
STARTCHAR C025
ENCODING 21
SWIDTH 640 0
DWIDTH 10 0
BBX 10 15 0 -3
BITMAP
0400
0400
0400
0400
0400
0400
0400
0400
0780
0400
0400
0400
0400
0400
0400
ENDCHAR
STARTCHAR C026
ENCODING 22
SWIDTH 640 0
DWIDTH 10 0
BBX 10 15 0 -3
BITMAP
0400
0400
0400
0400
0400
0400
0400
0400
FC00
0400
0400
0400
0400
0400
0400
ENDCHAR
STARTCHAR C027
ENCODING 23
SWIDTH 640 0
DWIDTH 10 0
BBX 10 15 0 -3
BITMAP
0400
0400
0400
0400
0400
0400
0400
0400
FF80
0000
0000
0000
0000
0000
0000
ENDCHAR
STARTCHAR C030
ENCODING 24
SWIDTH 640 0
DWIDTH 10 0
BBX 10 15 0 -3
BITMAP
0000
0000
0000
0000
0000
0000
0000
0000
FF80
0400
0400
0400
0400
0400
0400
ENDCHAR
STARTCHAR C031
ENCODING 25
SWIDTH 640 0
DWIDTH 10 0
BBX 10 15 0 -3
BITMAP
0400
0400
0400
0400
0400
0400
0400
0400
0400
0400
0400
0400
0400
0400
0400
ENDCHAR
STARTCHAR C032
ENCODING 26
SWIDTH 640 0
DWIDTH 10 0
BBX 10 15 0 -3
BITMAP
0000
0000
0000
0000
0000
0080
0200
0800
2000
0800
0200
0080
3F80
0000
0000
ENDCHAR
STARTCHAR C033
ENCODING 27
SWIDTH 640 0
DWIDTH 10 0
BBX 10 15 0 -3
BITMAP
0000
0000
0000
0000
0000
2000
0800
0200
0080
0200
0800
2000
3F80
0000
0000
ENDCHAR
STARTCHAR C034
ENCODING 28
SWIDTH 640 0
DWIDTH 10 0
BBX 10 15 0 -3
BITMAP
0000
0000
0000
0000
0000
0000
0000
3F80
0900
0900
0900
1100
0000
0000
0000
ENDCHAR
STARTCHAR C035
ENCODING 29
SWIDTH 640 0
DWIDTH 10 0
BBX 10 15 0 -3
BITMAP
0000
0000
0000
0000
0000
0080
0100
3F80
0400
3F80
1000
2000
0000
0000
0000
ENDCHAR
STARTCHAR C036
ENCODING 30
SWIDTH 640 0
DWIDTH 10 0
BBX 10 15 0 -3
BITMAP
0000
0000
0000
0000
0000
0700
0880
0800
3E00
0800
1E00
2980
1000
0000
0000
ENDCHAR
STARTCHAR C037
ENCODING 31
SWIDTH 640 0
DWIDTH 10 0
BBX 10 15 0 -3
BITMAP
0000
0000
0000
0000
0000
0000
0000
0000
0400
0000
0000
0000
0000
0000
0000
ENDCHAR
STARTCHAR C040
ENCODING 32
SWIDTH 640 0
DWIDTH 10 0
BBX 10 15 0 -3
BITMAP
0000
0000
0000
0000
0000
0000
0000
0000
0000
0000
0000
0000
0000
0000
0000
ENDCHAR
STARTCHAR !
ENCODING 33
SWIDTH 640 0
DWIDTH 10 0
BBX 10 15 0 -3
BITMAP
0000
0000
0400
0400
0400
0400
0400
0400
0400
0400
0000
0400
0000
0000
0000
ENDCHAR
STARTCHAR "
ENCODING 34
SWIDTH 640 0
DWIDTH 10 0
BBX 10 15 0 -3
BITMAP
0000
0000
0900
0900
0900
0000
0000
0000
0000
0000
0000
0000
0000
0000
0000
ENDCHAR
STARTCHAR #
ENCODING 35
SWIDTH 640 0
DWIDTH 10 0
BBX 10 15 0 -3
BITMAP
0000
0000
0000
1200
1200
3F00
1200
1200
3F00
1200
1200
0000
0000
0000
0000
ENDCHAR
STARTCHAR $
ENCODING 36
SWIDTH 640 0
DWIDTH 10 0
BBX 10 15 0 -3
BITMAP
0000
0000
0000
0400
1F00
2400
2400
1F00
0480
0480
1F00
0400
0000
0000
0000
ENDCHAR
STARTCHAR %
ENCODING 37
SWIDTH 640 0
DWIDTH 10 0
BBX 10 15 0 -3
BITMAP
0000
0000
1080
2900
2900
1200
0400
0400
0900
1280
1280
2100
0000
0000
0000
ENDCHAR
STARTCHAR &
ENCODING 38
SWIDTH 640 0
DWIDTH 10 0
BBX 10 15 0 -3
BITMAP
0000
0000
1C00
2200
2200
2200
1C00
2200
2280
2100
2300
1C80
0000
0000
0000
ENDCHAR
STARTCHAR '
ENCODING 39
SWIDTH 640 0
DWIDTH 10 0
BBX 10 15 0 -3
BITMAP
0000
0000
0700
0600
0800
0000
0000
0000
0000
0000
0000
0000
0000
0000
0000
ENDCHAR
STARTCHAR (
ENCODING 40
SWIDTH 640 0
DWIDTH 10 0
BBX 10 15 0 -3
BITMAP
0000
0000
0200
0400
0400
0800
0800
0800
0800
0400
0400
0200
0000
0000
0000
ENDCHAR
STARTCHAR )
ENCODING 41
SWIDTH 640 0
DWIDTH 10 0
BBX 10 15 0 -3
BITMAP
0000
0000
0800
0400
0400
0200
0200
0200
0200
0400
0400
0800
0000
0000
0000
ENDCHAR
STARTCHAR *
ENCODING 42
SWIDTH 640 0
DWIDTH 10 0
BBX 10 15 0 -3
BITMAP
0000
0000
0000
0000
0000
1100
0A00
3F80
0A00
1100
0000
0000
0000
0000
0000
ENDCHAR
STARTCHAR +
ENCODING 43
SWIDTH 640 0
DWIDTH 10 0
BBX 10 15 0 -3
BITMAP
0000
0000
0000
0000
0400
0400
0400
3F80
0400
0400
0400
0000
0000
0000
0000
ENDCHAR
STARTCHAR ,
ENCODING 44
SWIDTH 640 0
DWIDTH 10 0
BBX 10 15 0 -3
BITMAP
0000
0000
0000
0000
0000
0000
0000
0000
0000
0000
0E00
0C00
1000
0000
0000
ENDCHAR
STARTCHAR -
ENCODING 45
SWIDTH 640 0
DWIDTH 10 0
BBX 10 15 0 -3
BITMAP
0000
0000
0000
0000
0000
0000
0000
3F80
0000
0000
0000
0000
0000
0000
0000
ENDCHAR
STARTCHAR .
ENCODING 46
SWIDTH 640 0
DWIDTH 10 0
BBX 10 15 0 -3
BITMAP
0000
0000
0000
0000
0000
0000
0000
0000
0000
0000
0400
0E00
0400
0000
0000
ENDCHAR
STARTCHAR /
ENCODING 47
SWIDTH 640 0
DWIDTH 10 0
BBX 10 15 0 -3
BITMAP
0000
0000
0080
0100
0100
0200
0400
0400
0800
1000
1000
2000
0000
0000
0000
ENDCHAR
STARTCHAR 0
ENCODING 48
SWIDTH 640 0
DWIDTH 10 0
BBX 10 15 0 -3
BITMAP
0000
0000
0E00
1100
2080
2080
2080
2080
2080
2080
1100
0E00
0000
0000
0000
ENDCHAR
STARTCHAR 1
ENCODING 49
SWIDTH 640 0
DWIDTH 10 0
BBX 10 15 0 -3
BITMAP
0000
0000
0400
0C00
1400
0400
0400
0400
0400
0400
0400
1F00
0000
0000
0000
ENDCHAR
STARTCHAR 2
ENCODING 50
SWIDTH 640 0
DWIDTH 10 0
BBX 10 15 0 -3
BITMAP
0000
0000
1F00
2080
2080
0080
0100
0200
0C00
1000
2000
3F80
0000
0000
0000
ENDCHAR
STARTCHAR 3
ENCODING 51
SWIDTH 640 0
DWIDTH 10 0
BBX 10 15 0 -3
BITMAP
0000
0000
3F80
0080
0100
0200
0700
0080
0080
0080
2080
1F00
0000
0000
0000
ENDCHAR
STARTCHAR 4
ENCODING 52
SWIDTH 640 0
DWIDTH 10 0
BBX 10 15 0 -3
BITMAP
0000
0000
0100
0300
0500
0900
1100
2100
3F80
0100
0100
0100
0000
0000
0000
ENDCHAR
STARTCHAR 5
ENCODING 53
SWIDTH 640 0
DWIDTH 10 0
BBX 10 15 0 -3
BITMAP
0000
0000
3F80
2000
2000
2F00
3080
0080
0080
0080
2080
1F00
0000
0000
0000
ENDCHAR
STARTCHAR 6
ENCODING 54
SWIDTH 640 0
DWIDTH 10 0
BBX 10 15 0 -3
BITMAP
0000
0000
0F00
1000
2000
2000
2F00
3080
2080
2080
2080
1F00
0000
0000
0000
ENDCHAR
STARTCHAR 7
ENCODING 55
SWIDTH 640 0
DWIDTH 10 0
BBX 10 15 0 -3
BITMAP
0000
0000
3F80
0080
0080
0100
0200
0400
0800
0800
1000
1000
0000
0000
0000
ENDCHAR
STARTCHAR 8
ENCODING 56
SWIDTH 640 0
DWIDTH 10 0
BBX 10 15 0 -3
BITMAP
0000
0000
1F00
2080
2080
2080
1F00
2080
2080
2080
2080
1F00
0000
0000
0000
ENDCHAR
STARTCHAR 9
ENCODING 57
SWIDTH 640 0
DWIDTH 10 0
BBX 10 15 0 -3
BITMAP
0000
0000
1F00
2080
2080
2080
2180
1E80
0080
0080
0100
1E00
0000
0000
0000
ENDCHAR
STARTCHAR :
ENCODING 58
SWIDTH 640 0
DWIDTH 10 0
BBX 10 15 0 -3
BITMAP
0000
0000
0000
0000
0000
0400
0E00
0400
0000
0000
0400
0E00
0400
0000
0000
ENDCHAR
STARTCHAR ;
ENCODING 59
SWIDTH 640 0
DWIDTH 10 0
BBX 10 15 0 -3
BITMAP
0000
0000
0000
0000
0000
0400
0E00
0400
0000
0000
0E00
0C00
1000
0000
0000
ENDCHAR
STARTCHAR <
ENCODING 60
SWIDTH 640 0
DWIDTH 10 0
BBX 10 15 0 -3
BITMAP
0000
0000
0100
0200
0400
0800
1000
1000
0800
0400
0200
0100
0000
0000
0000
ENDCHAR
STARTCHAR =
ENCODING 61
SWIDTH 640 0
DWIDTH 10 0
BBX 10 15 0 -3
BITMAP
0000
0000
0000
0000
0000
0000
3F80
0000
0000
3F80
0000
0000
0000
0000
0000
ENDCHAR
STARTCHAR >
ENCODING 62
SWIDTH 640 0
DWIDTH 10 0
BBX 10 15 0 -3
BITMAP
0000
0000
1000
0800
0400
0200
0100
0100
0200
0400
0800
1000
0000
0000
0000
ENDCHAR
STARTCHAR ?
ENCODING 63
SWIDTH 640 0
DWIDTH 10 0
BBX 10 15 0 -3
BITMAP
0000
0000
1F00
2080
2080
0080
0100
0200
0400
0400
0000
0400
0000
0000
0000
ENDCHAR
STARTCHAR @
ENCODING 64
SWIDTH 640 0
DWIDTH 10 0
BBX 10 15 0 -3
BITMAP
0000
0000
1F00
2080
2080
2780
2880
2980
2680
2000
2000
1F00
0000
0000
0000
ENDCHAR
STARTCHAR A
ENCODING 65
SWIDTH 640 0
DWIDTH 10 0
BBX 10 15 0 -3
BITMAP
0000
0000
0400
0A00
1100
2080
2080
2080
3F80
2080
2080
2080
0000
0000
0000
ENDCHAR
STARTCHAR B
ENCODING 66
SWIDTH 640 0
DWIDTH 10 0
BBX 10 15 0 -3
BITMAP
0000
0000
3F00
1080
1080
1080
1F00
1080
1080
1080
1080
3F00
0000
0000
0000
ENDCHAR
STARTCHAR C
ENCODING 67
SWIDTH 640 0
DWIDTH 10 0
BBX 10 15 0 -3
BITMAP
0000
0000
1F00
2080
2000
2000
2000
2000
2000
2000
2080
1F00
0000
0000
0000
ENDCHAR
STARTCHAR D
ENCODING 68
SWIDTH 640 0
DWIDTH 10 0
BBX 10 15 0 -3
BITMAP
0000
0000
3F00
1080
1080
1080
1080
1080
1080
1080
1080
3F00
0000
0000
0000
ENDCHAR
STARTCHAR E
ENCODING 69
SWIDTH 640 0
DWIDTH 10 0
BBX 10 15 0 -3
BITMAP
0000
0000
3F80
1000
1000
1000
1E00
1000
1000
1000
1000
3F80
0000
0000
0000
ENDCHAR
STARTCHAR F
ENCODING 70
SWIDTH 640 0
DWIDTH 10 0
BBX 10 15 0 -3
BITMAP
0000
0000
3F80
1000
1000
1000
1E00
1000
1000
1000
1000
1000
0000
0000
0000
ENDCHAR
STARTCHAR G
ENCODING 71
SWIDTH 640 0
DWIDTH 10 0
BBX 10 15 0 -3
BITMAP
0000
0000
1F00
2080
2000
2000
2000
2380
2080
2080
2080
1F00
0000
0000
0000
ENDCHAR
STARTCHAR H
ENCODING 72
SWIDTH 640 0
DWIDTH 10 0
BBX 10 15 0 -3
BITMAP
0000
0000
2080
2080
2080
2080
3F80
2080
2080
2080
2080
2080
0000
0000
0000
ENDCHAR
STARTCHAR I
ENCODING 73
SWIDTH 640 0
DWIDTH 10 0
BBX 10 15 0 -3
BITMAP
0000
0000
1F00
0400
0400
0400
0400
0400
0400
0400
0400
1F00
0000
0000
0000
ENDCHAR
STARTCHAR J
ENCODING 74
SWIDTH 640 0
DWIDTH 10 0
BBX 10 15 0 -3
BITMAP
0000
0000
0780
0100
0100
0100
0100
0100
0100
0100
2100
1E00
0000
0000
0000
ENDCHAR
STARTCHAR K
ENCODING 75
SWIDTH 640 0
DWIDTH 10 0
BBX 10 15 0 -3
BITMAP
0000
0000
2080
2100
2200
2400
3800
2800
2400
2200
2100
2080
0000
0000
0000
ENDCHAR
STARTCHAR L
ENCODING 76
SWIDTH 640 0
DWIDTH 10 0
BBX 10 15 0 -3
BITMAP
0000
0000
2000
2000
2000
2000
2000
2000
2000
2000
2000
3F80
0000
0000
0000
ENDCHAR
STARTCHAR M
ENCODING 77
SWIDTH 640 0
DWIDTH 10 0
BBX 10 15 0 -3
BITMAP
0000
0000
2080
2080
3180
2A80
2A80
2480
2480
2080
2080
2080
0000
0000
0000
ENDCHAR
STARTCHAR N
ENCODING 78
SWIDTH 640 0
DWIDTH 10 0
BBX 10 15 0 -3
BITMAP
0000
0000
2080
2080
3080
2880
2480
2280
2180
2080
2080
2080
0000
0000
0000
ENDCHAR
STARTCHAR O
ENCODING 79
SWIDTH 640 0
DWIDTH 10 0
BBX 10 15 0 -3
BITMAP
0000
0000
1F00
2080
2080
2080
2080
2080
2080
2080
2080
1F00
0000
0000
0000
ENDCHAR
STARTCHAR P
ENCODING 80
SWIDTH 640 0
DWIDTH 10 0
BBX 10 15 0 -3
BITMAP
0000
0000
3F00
2080
2080
2080
3F00
2000
2000
2000
2000
2000
0000
0000
0000
ENDCHAR
STARTCHAR Q
ENCODING 81
SWIDTH 640 0
DWIDTH 10 0
BBX 10 15 0 -3
BITMAP
0000
0000
1F00
2080
2080
2080
2080
2080
2080
2480
2280
1F00
0080
0000
0000
ENDCHAR
STARTCHAR R
ENCODING 82
SWIDTH 640 0
DWIDTH 10 0
BBX 10 15 0 -3
BITMAP
0000
0000
3F00
2080
2080
2080
3F00
2400
2200
2100
2080
2080
0000
0000
0000
ENDCHAR
STARTCHAR S
ENCODING 83
SWIDTH 640 0
DWIDTH 10 0
BBX 10 15 0 -3
BITMAP
0000
0000
1F00
2080
2000
2000
1F00
0080
0080
0080
2080
1F00
0000
0000
0000
ENDCHAR
STARTCHAR T
ENCODING 84
SWIDTH 640 0
DWIDTH 10 0
BBX 10 15 0 -3
BITMAP
0000
0000
3F80
0400
0400
0400
0400
0400
0400
0400
0400
0400
0000
0000
0000
ENDCHAR
STARTCHAR U
ENCODING 85
SWIDTH 640 0
DWIDTH 10 0
BBX 10 15 0 -3
BITMAP
0000
0000
2080
2080
2080
2080
2080
2080
2080
2080
2080
1F00
0000
0000
0000
ENDCHAR
STARTCHAR V
ENCODING 86
SWIDTH 640 0
DWIDTH 10 0
BBX 10 15 0 -3
BITMAP
0000
0000
2080
2080
2080
1100
1100
1100
0A00
0A00
0A00
0400
0000
0000
0000
ENDCHAR
STARTCHAR W
ENCODING 87
SWIDTH 640 0
DWIDTH 10 0
BBX 10 15 0 -3
BITMAP
0000
0000
2080
2080
2080
2080
2480
2480
2480
2480
2A80
1100
0000
0000
0000
ENDCHAR
STARTCHAR X
ENCODING 88
SWIDTH 640 0
DWIDTH 10 0
BBX 10 15 0 -3
BITMAP
0000
0000
2080
2080
1100
0A00
0400
0400
0A00
1100
2080
2080
0000
0000
0000
ENDCHAR
STARTCHAR Y
ENCODING 89
SWIDTH 640 0
DWIDTH 10 0
BBX 10 15 0 -3
BITMAP
0000
0000
2080
2080
1100
0A00
0400
0400
0400
0400
0400
0400
0000
0000
0000
ENDCHAR
STARTCHAR Z
ENCODING 90
SWIDTH 640 0
DWIDTH 10 0
BBX 10 15 0 -3
BITMAP
0000
0000
3F80
0080
0100
0200
0400
0800
1000
2000
2000
3F80
0000
0000
0000
ENDCHAR
STARTCHAR [
ENCODING 91
SWIDTH 640 0
DWIDTH 10 0
BBX 10 15 0 -3
BITMAP
0000
0000
0F00
0800
0800
0800
0800
0800
0800
0800
0800
0F00
0000
0000
0000
ENDCHAR
STARTCHAR \
ENCODING 92
SWIDTH 640 0
DWIDTH 10 0
BBX 10 15 0 -3
BITMAP
0000
0000
2000
1000
1000
0800
0400
0400
0200
0100
0100
0080
0000
0000
0000
ENDCHAR
STARTCHAR ]
ENCODING 93
SWIDTH 640 0
DWIDTH 10 0
BBX 10 15 0 -3
BITMAP
0000
0000
1E00
0200
0200
0200
0200
0200
0200
0200
0200
1E00
0000
0000
0000
ENDCHAR
STARTCHAR ^
ENCODING 94
SWIDTH 640 0
DWIDTH 10 0
BBX 10 15 0 -3
BITMAP
0000
0000
0400
0A00
1100
2080
0000
0000
0000
0000
0000
0000
0000
0000
0000
ENDCHAR
STARTCHAR _
ENCODING 95
SWIDTH 640 0
DWIDTH 10 0
BBX 10 15 0 -3
BITMAP
0000
0000
0000
0000
0000
0000
0000
0000
0000
0000
0000
0000
7F80
0000
0000
ENDCHAR
STARTCHAR `
ENCODING 96
SWIDTH 640 0
DWIDTH 10 0
BBX 10 15 0 -3
BITMAP
0000
0000
1C00
0C00
0200
0000
0000
0000
0000
0000
0000
0000
0000
0000
0000
ENDCHAR
STARTCHAR a
ENCODING 97
SWIDTH 640 0
DWIDTH 10 0
BBX 10 15 0 -3
BITMAP
0000
0000
0000
0000
0000
1F00
0080
0080
1F80
2080
2180
1E80
0000
0000
0000
ENDCHAR
STARTCHAR b
ENCODING 98
SWIDTH 640 0
DWIDTH 10 0
BBX 10 15 0 -3
BITMAP
0000
0000
2000
2000
2000
2F00
3080
2080
2080
2080
3080
2F00
0000
0000
0000
ENDCHAR
STARTCHAR c
ENCODING 99
SWIDTH 640 0
DWIDTH 10 0
BBX 10 15 0 -3
BITMAP
0000
0000
0000
0000
0000
1F00
2080
2000
2000
2000
2080
1F00
0000
0000
0000
ENDCHAR
STARTCHAR d
ENCODING 100
SWIDTH 640 0
DWIDTH 10 0
BBX 10 15 0 -3
BITMAP
0000
0000
0080
0080
0080
1E80
2180
2080
2080
2080
2180
1E80
0000
0000
0000
ENDCHAR
STARTCHAR e
ENCODING 101
SWIDTH 640 0
DWIDTH 10 0
BBX 10 15 0 -3
BITMAP
0000
0000
0000
0000
0000
1F00
2080
2080
3F80
2000
2000
1F00
0000
0000
0000
ENDCHAR
STARTCHAR f
ENCODING 102
SWIDTH 640 0
DWIDTH 10 0
BBX 10 15 0 -3
BITMAP
0000
0000
0700
0880
0880
0800
0800
3E00
0800
0800
0800
0800
0000
0000
0000
ENDCHAR
STARTCHAR g
ENCODING 103
SWIDTH 640 0
DWIDTH 10 0
BBX 10 15 0 -3
BITMAP
0000
0000
0000
0000
0000
1E80
2100
2100
2100
1E00
2000
1F00
2080
2080
1F00
ENDCHAR
STARTCHAR h
ENCODING 104
SWIDTH 640 0
DWIDTH 10 0
BBX 10 15 0 -3
BITMAP
0000
0000
2000
2000
2000
2F00
3080
2080
2080
2080
2080
2080
0000
0000
0000
ENDCHAR
STARTCHAR i
ENCODING 105
SWIDTH 640 0
DWIDTH 10 0
BBX 10 15 0 -3
BITMAP
0000
0000
0000
0400
0000
0C00
0400
0400
0400
0400
0400
1F00
0000
0000
0000
ENDCHAR
STARTCHAR j
ENCODING 106
SWIDTH 640 0
DWIDTH 10 0
BBX 10 15 0 -3
BITMAP
0000
0000
0000
0100
0000
0700
0100
0100
0100
0100
0100
2100
2100
2100
1E00
ENDCHAR
STARTCHAR k
ENCODING 107
SWIDTH 640 0
DWIDTH 10 0
BBX 10 15 0 -3
BITMAP
0000
0000
2000
2000
2000
2080
2300
2C00
3000
2C00
2300
2080
0000
0000
0000
ENDCHAR
STARTCHAR l
ENCODING 108
SWIDTH 640 0
DWIDTH 10 0
BBX 10 15 0 -3
BITMAP
0000
0000
0C00
0400
0400
0400
0400
0400
0400
0400
0400
1F00
0000
0000
0000
ENDCHAR
STARTCHAR m
ENCODING 109
SWIDTH 640 0
DWIDTH 10 0
BBX 10 15 0 -3
BITMAP
0000
0000
0000
0000
0000
3B00
2480
2480
2480
2480
2480
2080
0000
0000
0000
ENDCHAR
STARTCHAR n
ENCODING 110
SWIDTH 640 0
DWIDTH 10 0
BBX 10 15 0 -3
BITMAP
0000
0000
0000
0000
0000
2F00
3080
2080
2080
2080
2080
2080
0000
0000
0000
ENDCHAR
STARTCHAR o
ENCODING 111
SWIDTH 640 0
DWIDTH 10 0
BBX 10 15 0 -3
BITMAP
0000
0000
0000
0000
0000
1F00
2080
2080
2080
2080
2080
1F00
0000
0000
0000
ENDCHAR
STARTCHAR p
ENCODING 112
SWIDTH 640 0
DWIDTH 10 0
BBX 10 15 0 -3
BITMAP
0000
0000
0000
0000
0000
2F00
3080
2080
2080
2080
3080
2F00
2000
2000
2000
ENDCHAR
STARTCHAR q
ENCODING 113
SWIDTH 640 0
DWIDTH 10 0
BBX 10 15 0 -3
BITMAP
0000
0000
0000
0000
0000
1E80
2180
2080
2080
2080
2180
1E80
0080
0080
0080
ENDCHAR
STARTCHAR r
ENCODING 114
SWIDTH 640 0
DWIDTH 10 0
BBX 10 15 0 -3
BITMAP
0000
0000
0000
0000
0000
2700
1880
1080
1000
1000
1000
1000
0000
0000
0000
ENDCHAR
STARTCHAR s
ENCODING 115
SWIDTH 640 0
DWIDTH 10 0
BBX 10 15 0 -3
BITMAP
0000
0000
0000
0000
0000
1F00
2080
2000
1F00
0080
2080
1F00
0000
0000
0000
ENDCHAR
STARTCHAR t
ENCODING 116
SWIDTH 640 0
DWIDTH 10 0
BBX 10 15 0 -3
BITMAP
0000
0000
0000
0800
0800
3F00
0800
0800
0800
0800
0880
0700
0000
0000
0000
ENDCHAR
STARTCHAR u
ENCODING 117
SWIDTH 640 0
DWIDTH 10 0
BBX 10 15 0 -3
BITMAP
0000
0000
0000
0000
0000
2100
2100
2100
2100
2100
2100
1E80
0000
0000
0000
ENDCHAR
STARTCHAR v
ENCODING 118
SWIDTH 640 0
DWIDTH 10 0
BBX 10 15 0 -3
BITMAP
0000
0000
0000
0000
0000
2080
2080
1100
1100
0A00
0A00
0400
0000
0000
0000
ENDCHAR
STARTCHAR w
ENCODING 119
SWIDTH 640 0
DWIDTH 10 0
BBX 10 15 0 -3
BITMAP
0000
0000
0000
0000
0000
2080
2080
2480
2480
2480
2A80
1100
0000
0000
0000
ENDCHAR
STARTCHAR x
ENCODING 120
SWIDTH 640 0
DWIDTH 10 0
BBX 10 15 0 -3
BITMAP
0000
0000
0000
0000
0000
2080
1100
0A00
0400
0A00
1100
2080
0000
0000
0000
ENDCHAR
STARTCHAR y
ENCODING 121
SWIDTH 640 0
DWIDTH 10 0
BBX 10 15 0 -3
BITMAP
0000
0000
0000
0000
0000
2100
2100
2100
2100
2100
2300
1D00
0100
2100
1E00
ENDCHAR
STARTCHAR z
ENCODING 122
SWIDTH 640 0
DWIDTH 10 0
BBX 10 15 0 -3
BITMAP
0000
0000
0000
0000
0000
3F80
0100
0200
0400
0800
1000
3F80
0000
0000
0000
ENDCHAR
STARTCHAR {
ENCODING 123
SWIDTH 640 0
DWIDTH 10 0
BBX 10 15 0 -3
BITMAP
0000
0000
0380
0400
0400
0200
0C00
0C00
0200
0400
0400
0380
0000
0000
0000
ENDCHAR
STARTCHAR |
ENCODING 124
SWIDTH 640 0
DWIDTH 10 0
BBX 10 15 0 -3
BITMAP
0000
0000
0400
0400
0400
0400
0400
0400
0400
0400
0400
0400
0000
0000
0000
ENDCHAR
STARTCHAR }
ENCODING 125
SWIDTH 640 0
DWIDTH 10 0
BBX 10 15 0 -3
BITMAP
0000
0000
3800
0400
0400
0800
0600
0600
0800
0400
0400
3800
0000
0000
0000
ENDCHAR
STARTCHAR ~
ENCODING 126
SWIDTH 640 0
DWIDTH 10 0
BBX 10 15 0 -3
BITMAP
0000
0000
1880
2480
2300
0000
0000
0000
0000
0000
0000
0000
0000
0000
0000
ENDCHAR
STARTCHAR C177
ENCODING 127
SWIDTH 640 0
DWIDTH 10 0
BBX 10 15 0 -3
BITMAP
0000
0000
0000
0000
0000
0000
0000
0000
0000
0000
0000
0000
0000
0000
0000
ENDCHAR
STARTCHAR C040
ENCODING 154
SWIDTH 640 0
DWIDTH 10 0
BBX 10 15 0 -3
BITMAP
0000
0000
0000
0000
0000
0000
0000
0000
0000
0000
0000
0000
0000
0000
0000
ENDCHAR
STARTCHAR C243
ENCODING 163
SWIDTH 640 0
DWIDTH 10 0
BBX 10 15 0 -3
BITMAP
0000
0000
0000
1100
0000
1F00
2080
2080
3F80
2000
2000
1F00
0000
0000
0000
ENDCHAR
STARTCHAR C263
ENCODING 179
SWIDTH 640 0
DWIDTH 10 0
BBX 10 15 0 -3
BITMAP
1100
0000
3F80
1000
1000
1000
1E00
1000
1000
1000
1000
3F80
0000
0000
0000
ENDCHAR
STARTCHAR copyright
ENCODING 191
SWIDTH 640 0
DWIDTH 10 0
BBX 10 15 0 -3
BITMAP
0000
3E00
4100
8080
9880
A480
A080
A480
9880
8080
4100
3E00
0000
0000
0000
ENDCHAR
STARTCHAR C300
ENCODING 192
SWIDTH 640 0
DWIDTH 10 0
BBX 10 15 0 -3
BITMAP
0000
0000
0000
0000
0000
2300
2480
2480
3C80
2480
2480
2300
0000
0000
0000
ENDCHAR
STARTCHAR C301
ENCODING 193
SWIDTH 640 0
DWIDTH 10 0
BBX 10 15 0 -3
BITMAP
0000
0000
0000
0000
0000
0E00
1100
2080
2080
3F80
2080
2080
0000
0000
0000
ENDCHAR
STARTCHAR C302
ENCODING 194
SWIDTH 640 0
DWIDTH 10 0
BBX 10 15 0 -3
BITMAP
0000
0000
0000
0000
0000
3F00
2000
2000
3F00
2080
2080
3F00
0000
0000
0000
ENDCHAR
STARTCHAR C303
ENCODING 195
SWIDTH 640 0
DWIDTH 10 0
BBX 10 15 0 -3
BITMAP
0000
0000
0000
0000
0000
2100
2100
2100
2100
2100
2100
3F80
0080
0100
0200
ENDCHAR
STARTCHAR C304
ENCODING 196
SWIDTH 640 0
DWIDTH 10 0
BBX 10 15 0 -3
BITMAP
0000
0000
0000
0000
0000
0E00
0A00
1200
1200
1200
1200
7F80
4080
0000
0000
ENDCHAR
STARTCHAR C305
ENCODING 197
SWIDTH 640 0
DWIDTH 10 0
BBX 10 15 0 -3
BITMAP
0000
0000
0000
0000
0000
1F00
2080
2080
3F80
2000
2000
1F00
0000
0000
0000
ENDCHAR
STARTCHAR C306
ENCODING 198
SWIDTH 640 0
DWIDTH 10 0
BBX 10 15 0 -3
BITMAP
0000
0000
0000
0000
0400
1F00
2480
2480
2480
2480
2480
1F00
0400
0000
0000
ENDCHAR
STARTCHAR C307
ENCODING 199
SWIDTH 640 0
DWIDTH 10 0
BBX 10 15 0 -3
BITMAP
0000
0000
0000
0000
0000
3F80
2080
2000
2000
2000
2000
2000
0000
0000
0000
ENDCHAR
STARTCHAR C310
ENCODING 200
SWIDTH 640 0
DWIDTH 10 0
BBX 10 15 0 -3
BITMAP
0000
0000
0000
0000
0000
2080
1100
0A00
0400
0A00
1100
2080
0000
0000
0000
ENDCHAR
STARTCHAR C311
ENCODING 201
SWIDTH 640 0
DWIDTH 10 0
BBX 10 15 0 -3
BITMAP
0000
0000
0000
0000
0000
2080
2180
2280
2480
2880
3080
2080
0000
0000
0000
ENDCHAR
STARTCHAR C312
ENCODING 202
SWIDTH 640 0
DWIDTH 10 0
BBX 10 15 0 -3
BITMAP
0000
0000
0600
0C00
0000
2080
2180
2280
2480
2880
3080
2080
0000
0000
0000
ENDCHAR
STARTCHAR C313
ENCODING 203
SWIDTH 640 0
DWIDTH 10 0
BBX 10 15 0 -3
BITMAP
0000
0000
0000
0000
0000
2080
2300
2C00
3000
2C00
2300
2080
0000
0000
0000
ENDCHAR
STARTCHAR C314
ENCODING 204
SWIDTH 640 0
DWIDTH 10 0
BBX 10 15 0 -3
BITMAP
0000
0000
0000
0000
0000
0780
0880
1080
1080
1080
2080
2080
0000
0000
0000
ENDCHAR
STARTCHAR C315
ENCODING 205
SWIDTH 640 0
DWIDTH 10 0
BBX 10 15 0 -3
BITMAP
0000
0000
0000
0000
0000
2080
3180
2A80
2480
2480
2080
2080
0000
0000
0000
ENDCHAR
STARTCHAR C316
ENCODING 206
SWIDTH 640 0
DWIDTH 10 0
BBX 10 15 0 -3
BITMAP
0000
0000
0000
0000
0000
2080
2080
2080
3F80
2080
2080
2080
0000
0000
0000
ENDCHAR
STARTCHAR C317
ENCODING 207
SWIDTH 640 0
DWIDTH 10 0
BBX 10 15 0 -3
BITMAP
0000
0000
0000
0000
0000
1F00
2080
2080
2080
2080
2080
1F00
0000
0000
0000
ENDCHAR
STARTCHAR C320
ENCODING 208
SWIDTH 640 0
DWIDTH 10 0
BBX 10 15 0 -3
BITMAP
0000
0000
0000
0000
0000
3F80
2080
2080
2080
2080
2080
2080
0000
0000
0000
ENDCHAR
STARTCHAR C321
ENCODING 209
SWIDTH 640 0
DWIDTH 10 0
BBX 10 15 0 -3
BITMAP
0000
0000
0000
0000
0000
1F80
2080
2080
1F80
0280
0C80
3080
0000
0000
0000
ENDCHAR
STARTCHAR C322
ENCODING 210
SWIDTH 640 0
DWIDTH 10 0
BBX 10 15 0 -3
BITMAP
0000
0000
0000
0000
0000
3F00
2080
2080
2080
3F00
2000
2000
0000
0000
0000
ENDCHAR
STARTCHAR C323
ENCODING 211
SWIDTH 640 0
DWIDTH 10 0
BBX 10 15 0 -3
BITMAP
0000
0000
0000
0000
0000
1F00
2080
2000
2000
2000
2080
1F00
0000
0000
0000
ENDCHAR
STARTCHAR C324
ENCODING 212
SWIDTH 640 0
DWIDTH 10 0
BBX 10 15 0 -3
BITMAP
0000
0000
0000
0000
0000
3F80
2480
0400
0400
0400
0400
0400
0000
0000
0000
ENDCHAR
STARTCHAR C325
ENCODING 213
SWIDTH 640 0
DWIDTH 10 0
BBX 10 15 0 -3
BITMAP
0000
0000
0000
0000
0000
2080
2080
2080
1F80
0080
0080
1F00
0000
0000
0000
ENDCHAR
STARTCHAR C326
ENCODING 214
SWIDTH 640 0
DWIDTH 10 0
BBX 10 15 0 -3
BITMAP
0000
0000
0000
0000
0000
2480
1500
0E00
0400
1F00
2480
2480
0000
0000
0000
ENDCHAR
STARTCHAR C327
ENCODING 215
SWIDTH 640 0
DWIDTH 10 0
BBX 10 15 0 -3
BITMAP
0000
0000
0000
0000
0000
3F00
2080
2080
3F00
2080
2080
3F00
0000
0000
0000
ENDCHAR
STARTCHAR C330
ENCODING 216
SWIDTH 640 0
DWIDTH 10 0
BBX 10 15 0 -3
BITMAP
0000
0000
0000
0000
0000
2000
2000
2000
3F00
2080
2080
3F00
0000
0000
0000
ENDCHAR
STARTCHAR C331
ENCODING 217
SWIDTH 640 0
DWIDTH 10 0
BBX 10 15 0 -3
BITMAP
0000
0000
0000
0000
0000
2080
2080
2080
3C80
2280
2280
3C80
0000
0000
0000
ENDCHAR
STARTCHAR C332
ENCODING 218
SWIDTH 640 0
DWIDTH 10 0
BBX 10 15 0 -3
BITMAP
0000
0000
0000
0000
0000
1F00
2080
0100
0600
0180
2080
1F00
0000
0000
0000
ENDCHAR
STARTCHAR C333
ENCODING 219
SWIDTH 640 0
DWIDTH 10 0
BBX 10 15 0 -3
BITMAP
0000
0000
0000
0000
0000
2480
2480
2480
2480
2480
2480
3F80
0000
0000
0000
ENDCHAR
STARTCHAR C334
ENCODING 220
SWIDTH 640 0
DWIDTH 10 0
BBX 10 15 0 -3
BITMAP
0000
0000
0000
0000
0000
3E00
0100
0080
0F80
0080
0100
3E00
0000
0000
0000
ENDCHAR
STARTCHAR C335
ENCODING 221
SWIDTH 640 0
DWIDTH 10 0
BBX 10 15 0 -3
BITMAP
0000
0000
0000
0000
0000
2480
2480
2480
2480
2480
2480
3F80
0080
0100
0200
ENDCHAR
STARTCHAR C336
ENCODING 222
SWIDTH 640 0
DWIDTH 10 0
BBX 10 15 0 -3
BITMAP
0000
0000
0000
0000
0000
2080
2080
2080
2080
1F80
0080
0080
0000
0000
0000
ENDCHAR
STARTCHAR C337
ENCODING 223
SWIDTH 640 0
DWIDTH 10 0
BBX 10 15 0 -3
BITMAP
0000
0000
0000
0000
0000
3000
1000
1000
1F00
1080
1080
1F00
0000
0000
0000
ENDCHAR
STARTCHAR C340
ENCODING 224
SWIDTH 640 0
DWIDTH 10 0
BBX 10 15 0 -3
BITMAP
0000
0000
2300
2480
2480
2480
2480
3C80
2480
2480
2480
2300
0000
0000
0000
ENDCHAR
STARTCHAR C341
ENCODING 225
SWIDTH 640 0
DWIDTH 10 0
BBX 10 15 0 -3
BITMAP
0000
0000
0600
0900
1080
2080
2080
2080
3F80
2080
2080
2080
0000
0000
0000
ENDCHAR
STARTCHAR C342
ENCODING 226
SWIDTH 640 0
DWIDTH 10 0
BBX 10 15 0 -3
BITMAP
0000
0000
3F00
2000
2000
2000
3F00
2080
2080
2080
2080
3F00
0000
0000
0000
ENDCHAR
STARTCHAR C343
ENCODING 227
SWIDTH 640 0
DWIDTH 10 0
BBX 10 15 0 -3
BITMAP
0000
0000
2100
2100
2100
2100
2100
2100
2100
2100
2100
3F80
0080
0100
0200
ENDCHAR
STARTCHAR C344
ENCODING 228
SWIDTH 640 0
DWIDTH 10 0
BBX 10 15 0 -3
BITMAP
0000
0000
0E00
0A00
1200
1200
1200
1200
1200
1200
1200
7F80
4080
0000
0000
ENDCHAR
STARTCHAR C345
ENCODING 229
SWIDTH 640 0
DWIDTH 10 0
BBX 10 15 0 -3
BITMAP
0000
0000
3F80
2000
2000
2000
3E00
2000
2000
2000
2000
3F80
0000
0000
0000
ENDCHAR
STARTCHAR C346
ENCODING 230
SWIDTH 640 0
DWIDTH 10 0
BBX 10 15 0 -3
BITMAP
0000
0400
1F00
2480
2480
2480
2480
2480
2480
2480
1F00
0400
0400
0000
0000
ENDCHAR
STARTCHAR C347
ENCODING 231
SWIDTH 640 0
DWIDTH 10 0
BBX 10 15 0 -3
BITMAP
0000
0000
3F80
2080
2000
2000
2000
2000
2000
2000
2000
2000
0000
0000
0000
ENDCHAR
STARTCHAR C350
ENCODING 232
SWIDTH 640 0
DWIDTH 10 0
BBX 10 15 0 -3
BITMAP
0000
0000
2080
2080
1100
0A00
0400
0400
0A00
1100
2080
2080
0000
0000
0000
ENDCHAR
STARTCHAR C351
ENCODING 233
SWIDTH 640 0
DWIDTH 10 0
BBX 10 15 0 -3
BITMAP
0000
0000
2080
2080
2080
2180
2280
2480
2880
3080
2080
2080
0000
0000
0000
ENDCHAR
STARTCHAR C352
ENCODING 234
SWIDTH 640 0
DWIDTH 10 0
BBX 10 15 0 -3
BITMAP
0600
0C00
2080
2080
2080
2180
2280
2480
2880
3080
2080
2080
0000
0000
0000
ENDCHAR
STARTCHAR C353
ENCODING 235
SWIDTH 640 0
DWIDTH 10 0
BBX 10 15 0 -3
BITMAP
0000
0000
2080
2100
2200
2400
3800
2400
2200
2100
2080
2080
0000
0000
0000
ENDCHAR
STARTCHAR C354
ENCODING 236
SWIDTH 640 0
DWIDTH 10 0
BBX 10 15 0 -3
BITMAP
0000
0000
0780
0880
0880
1080
1080
1080
1080
2080
2080
2080
0000
0000
0000
ENDCHAR
STARTCHAR C355
ENCODING 237
SWIDTH 640 0
DWIDTH 10 0
BBX 10 15 0 -3
BITMAP
0000
0000
2080
3180
2A80
2A80
2480
2480
2080
2080
2080
2080
0000
0000
0000
ENDCHAR
STARTCHAR C356
ENCODING 238
SWIDTH 640 0
DWIDTH 10 0
BBX 10 15 0 -3
BITMAP
0000
0000
2080
2080
2080
2080
3F80
2080
2080
2080
2080
2080
0000
0000
0000
ENDCHAR
STARTCHAR C357
ENCODING 239
SWIDTH 640 0
DWIDTH 10 0
BBX 10 15 0 -3
BITMAP
0000
0000
1F00
2080
2080
2080
2080
2080
2080
2080
2080
1F00
0000
0000
0000
ENDCHAR
STARTCHAR C360
ENCODING 240
SWIDTH 640 0
DWIDTH 10 0
BBX 10 15 0 -3
BITMAP
0000
0000
3F80
2080
2080
2080
2080
2080
2080
2080
2080
2080
0000
0000
0000
ENDCHAR
STARTCHAR C361
ENCODING 241
SWIDTH 640 0
DWIDTH 10 0
BBX 10 15 0 -3
BITMAP
0000
0000
1F80
2080
2080
2080
2080
1F80
0480
0880
1080
2080
0000
0000
0000
ENDCHAR
STARTCHAR C362
ENCODING 242
SWIDTH 640 0
DWIDTH 10 0
BBX 10 15 0 -3
BITMAP
0000
0000
3F00
2080
2080
2080
2080
3F00
2000
2000
2000
2000
0000
0000
0000
ENDCHAR
STARTCHAR C363
ENCODING 243
SWIDTH 640 0
DWIDTH 10 0
BBX 10 15 0 -3
BITMAP
0000
0000
1F00
2080
2000
2000
2000
2000
2000
2000
2080
1F00
0000
0000
0000
ENDCHAR
STARTCHAR C364
ENCODING 244
SWIDTH 640 0
DWIDTH 10 0
BBX 10 15 0 -3
BITMAP
0000
0000
3F80
2480
0400
0400
0400
0400
0400
0400
0400
0400
0000
0000
0000
ENDCHAR
STARTCHAR C365
ENCODING 245
SWIDTH 640 0
DWIDTH 10 0
BBX 10 15 0 -3
BITMAP
0000
0000
2080
2080
2080
2080
2080
1F80
0080
0080
0080
1F00
0000
0000
0000
ENDCHAR
STARTCHAR C366
ENCODING 246
SWIDTH 640 0
DWIDTH 10 0
BBX 10 15 0 -3
BITMAP
0000
0000
2480
2480
1500
0E00
0400
1F00
2480
2480
2480
2480
0000
0000
0000
ENDCHAR
STARTCHAR C367
ENCODING 247
SWIDTH 640 0
DWIDTH 10 0
BBX 10 15 0 -3
BITMAP
0000
0000
3F00
2080
2080
2080
3F00
2080
2080
2080
2080
3F00
0000
0000
0000
ENDCHAR
STARTCHAR C370
ENCODING 248
SWIDTH 640 0
DWIDTH 10 0
BBX 10 15 0 -3
BITMAP
0000
0000
2000
2000
2000
2000
3F00
2080
2080
2080
2080
3F00
0000
0000
0000
ENDCHAR
STARTCHAR C371
ENCODING 249
SWIDTH 640 0
DWIDTH 10 0
BBX 10 15 0 -3
BITMAP
0000
0000
2080
2080
2080
2080
3C80
2280
2280
2280
2280
3C80
0000
0000
0000
ENDCHAR
STARTCHAR C372
ENCODING 250
SWIDTH 640 0
DWIDTH 10 0
BBX 10 15 0 -3
BITMAP
0000
0000
1F00
2080
0080
0100
0600
0100
0080
0080
2080
1F00
0000
0000
0000
ENDCHAR
STARTCHAR C373
ENCODING 251
SWIDTH 640 0
DWIDTH 10 0
BBX 10 15 0 -3
BITMAP
0000
0000
2480
2480
2480
2480
2480
2480
2480
2480
2480
3F80
0000
0000
0000
ENDCHAR
STARTCHAR C374
ENCODING 252
SWIDTH 640 0
DWIDTH 10 0
BBX 10 15 0 -3
BITMAP
0000
0000
3C00
0200
0100
0080
0F80
0080
0080
0100
0200
3C00
0000
0000
0000
ENDCHAR
STARTCHAR C375
ENCODING 253
SWIDTH 640 0
DWIDTH 10 0
BBX 10 15 0 -3
BITMAP
0000
0000
2480
2480
2480
2480
2480
2480
2480
2480
2480
3F80
0080
0100
0200
ENDCHAR
STARTCHAR C376
ENCODING 254
SWIDTH 640 0
DWIDTH 10 0
BBX 10 15 0 -3
BITMAP
0000
0000
2080
2080
2080
2080
2080
1F80
0080
0080
0080
0080
0000
0000
0000
ENDCHAR
STARTCHAR C377
ENCODING 255
SWIDTH 640 0
DWIDTH 10 0
BBX 10 15 0 -3
BITMAP
0000
0000
3000
1000
1000
1000
1F00
1080
1080
1080
1080
1F00
0000
0000
0000
ENDCHAR
ENDFONT
